<svg xmlns="http://www.w3.org/2000/svg" xmlns:xlink="http://www.w3.org/1999/xlink" width="25.774505928853756" height="30" viewBox="0 0 25.774505928853756 30" fill="none"><g opacity="1"  transform="translate(0 0)"><path id="路径 1" fill-rule="evenodd" style="fill:#146AE4" opacity="1" d="M19.4194 7.22428C16.0202 7.12694 13.8231 5.36416 13.1728 4.76936C13.0546 4.66119 12.8871 4.66119 12.7689 4.76936C12.1186 5.36416 9.92147 7.11614 6.52232 7.22428C6.35482 7.22428 6.20703 7.37569 6.20703 7.57036L6.20703 14.5566C6.20703 17.6929 10.4929 21.3808 12.9659 21.3808C15.3699 21.3808 19.7248 17.6929 19.7248 14.5566L19.7248 7.55955C19.7248 7.37569 19.5869 7.22428 19.4194 7.22428ZM14.8379 14.9676C15.0153 14.9676 15.1532 15.119 15.1532 15.3137L15.1532 16.1464C15.1532 16.3411 15.0153 16.4925 14.8379 16.4925L13.6162 16.4925L13.6162 18.0823C13.6162 18.2769 13.4782 18.4283 13.3009 18.4283L12.5423 18.4283C12.3649 18.4283 12.227 18.2769 12.227 18.0823L12.227 13.8104C11.1531 13.4644 10.3648 12.3829 10.3648 11.0959C10.3648 9.52782 11.5274 8.25167 12.9561 8.25167C14.3847 8.25167 15.5473 9.52782 15.5473 11.0959C15.5473 12.4153 14.7197 13.5184 13.6063 13.8429L13.6063 14.9676L14.8379 14.9676Z"></path><path id="路径 2" fill-rule="evenodd" style="fill:#153E8B" opacity="1" d="M14.3061 11.1178C14.3061 10.3824 13.7642 9.7876 13.0942 9.7876C12.4242 9.7876 11.8823 10.3824 11.8823 11.1178C11.8823 11.8532 12.4242 12.448 13.0942 12.448C13.7642 12.448 14.3061 11.8424 14.3061 11.1178Z"></path><path id="路径 3" fill-rule="evenodd" style="fill:#153E8B" opacity="1" d="M21.39 3.14246e-06L4.40411 3.14246e-06C1.98036 3.14246e-06 0 2.17377 0 4.83417L0 25.1658C0 27.8262 1.98036 30 4.40411 30L21.3703 30C23.794 30 25.7744 27.8262 25.7744 25.1658L25.7744 4.83417C25.7941 2.16293 23.8137 0 21.39 0L21.39 3.14246e-06ZM21.39 27.2639L4.40411 27.2639C3.34003 27.2639 2.473 26.3122 2.473 25.1442L2.473 4.83417C2.473 3.66619 3.34003 2.71448 4.40411 2.71448L21.3703 2.71448C22.4343 2.71448 23.3014 3.66619 23.3014 4.83417L23.3014 25.155L23.3112 25.155C23.3112 26.3122 22.4442 27.2639 21.39 27.2639Z"></path><path id="路径 4" fill-rule="evenodd" style="fill:#146AE4" opacity="1" d="M17.5777 23.0674L8.21775 23.0674C7.52807 23.0674 6.97632 23.673 6.97632 24.43C6.97632 25.1871 7.52807 25.7927 8.21775 25.7927L17.5777 25.7927C18.2674 25.7927 18.8191 25.1871 18.8191 24.43C18.8191 23.673 18.2477 23.0674 17.5777 23.0674Z"></path></g></svg>