<svg xmlns="http://www.w3.org/2000/svg" xmlns:xlink="http://www.w3.org/1999/xlink" width="29.518653973555008" height="30" viewBox="0 0 29.518653973555008 30" fill="none"><g opacity="1"  transform="translate(0 0)"><path id="路径 1" fill-rule="evenodd" style="fill:#153E8B" opacity="1" d="M9.1692 22.399L10.024 22.399L10.024 22.63C9.94625 22.7839 9.94625 23.0148 9.94625 23.1688L9.94625 24.4003L9.1692 24.4003C4.11837 24.4003 0.0777051 22.0911 0.0777051 19.3201L0.0777051 17.3188C0 20.0899 4.11837 22.399 9.1692 22.399ZM9.1692 18.8583L10.024 18.8583L10.024 19.0892C9.94625 19.2432 9.94625 19.4741 9.94625 19.628L9.94625 20.8596L9.1692 20.8596C4.11837 20.8596 0.0777051 18.5504 0.0777051 15.7794L0.0777051 13.7781C0 16.5491 4.11837 18.8583 9.1692 18.8583ZM9.1692 11.6998C14.22 11.6998 18.2607 9.39066 18.2607 6.61965L18.2607 8.62094C18.2607 9.8525 17.4836 10.9301 16.2404 11.7768C14.9971 12.1617 13.8315 12.6235 12.899 13.2393C11.7335 13.5472 10.4125 13.7011 9.0915 13.7011C4.04066 13.7011 0 11.392 0 8.62094L0 6.61965C0 9.46763 4.11837 11.6998 9.1692 11.6998ZM9.1692 15.2406C9.79084 15.2406 10.4125 15.2406 10.9564 15.1636C10.4902 15.7794 10.1794 16.5491 10.024 17.2419L9.1692 17.2419C4.11837 17.2419 0.0777051 14.9327 0.0777051 12.1617L0.0777051 10.1604C0 13.0084 4.11837 15.2406 9.1692 15.2406ZM9.1692 0C14.22 0 18.2607 2.30918 18.2607 5.08019C18.2607 7.85121 14.1423 10.1604 9.1692 10.1604C4.11837 10.1604 0.0777051 7.85121 0.0777051 5.08019C0 2.30918 4.11837 0 9.1692 0Z"></path><path id="路径 1" fill-rule="evenodd" style="fill:#146AE4" opacity="1" d="M29.1393 29.2495L28.673 29.7113C28.2068 30.0962 27.1966 30.0962 26.7304 29.7113L23.3114 26.7864C22.0681 27.5561 20.6694 28.0179 19.1153 28.0179C14.7638 28.0179 11.2671 24.6311 11.2671 20.3976C11.2671 16.1641 14.7638 12.7773 19.1153 12.7773C23.4668 12.7773 26.9635 16.1641 26.9635 20.3976C26.9635 21.9371 26.4973 23.3226 25.7202 24.4772L29.1393 27.4021C29.6832 27.864 29.6055 28.7107 29.1393 29.2495ZM19.1153 15.5484C16.3956 15.5484 14.1422 17.7036 14.1422 20.3976C14.1422 23.0917 16.3956 25.2469 19.1153 25.2469C21.835 25.2469 24.0884 23.0917 24.0884 20.3976C24.0884 17.7036 21.9127 15.5484 19.1153 15.5484Z"></path><path id="路径 2" fill-rule="evenodd" style="fill:#153E8B" opacity="1" d="M16.5664 18.1191L16.5664 22.9992C16.5664 23.1532 16.6907 23.2763 16.8461 23.2763L21.4152 23.2763C21.5706 23.2763 21.6949 23.1532 21.6949 22.9992L21.6949 18.1191C21.6949 17.9652 21.5706 17.842 21.4152 17.842L16.8461 17.842C16.6752 17.842 16.5664 17.9652 16.5664 18.1191ZM21.1665 22.7991L17.0637 22.7991L17.0637 18.3347L21.1665 18.3347L21.1665 22.7991ZM17.8252 19.3507L17.8252 19.6894L18.1982 19.6894L18.1982 19.3507L17.8252 19.3507ZM18.5557 19.3507L18.5557 19.6894L20.4206 19.6894L20.4206 19.3507L18.5557 19.3507ZM17.8252 20.3821L17.8252 20.7208L18.1982 20.7208L18.1982 20.3821L17.8252 20.3821ZM18.5557 20.3821L18.5557 20.7208L20.4206 20.7208L20.4206 20.3821L18.5557 20.3821ZM17.8252 21.4136L17.8252 21.7523L18.1982 21.7523L18.1982 21.4136L17.8252 21.4136ZM18.5557 21.4136L18.5557 21.7523L20.4206 21.7523L20.4206 21.4136L18.5557 21.4136Z"></path></g></svg>