<svg xmlns="http://www.w3.org/2000/svg" xmlns:xlink="http://www.w3.org/1999/xlink" width="26.751708984375" height="30" viewBox="0 0 26.751708984375 30" fill="none"><g opacity="1"  transform="translate(0 0)"><path id="路径 1" fill-rule="evenodd" style="fill:#153E8B" opacity="1" d="M11.941 23.2376C11.9312 23.0494 11.9247 22.8575 11.9247 22.6692C11.9247 22.481 11.9312 22.2891 11.941 22.1009C11.9801 21.4058 12.3059 20.7868 12.8076 20.4103L0.345359 20.4103L0.345359 27.5926L13.5081 27.5926C13.4495 27.1654 13.5016 26.7202 13.6775 26.3111L14.0294 25.4857L13.254 25.178C12.5079 24.8848 11.9898 24.1209 11.941 23.2376ZM22.1616 0L0.00651612 0L0.00651612 7.18233L22.1616 7.18233L22.1616 0ZM3.23856 4.85821C2.60974 4.85821 2.09822 4.28985 2.09822 3.59117C2.09822 2.89248 2.60974 2.32412 3.23856 2.32412C3.86737 2.32412 4.3789 2.89248 4.3789 3.59117C4.3789 4.28985 3.86737 4.85821 3.23856 4.85821ZM13.9838 16.6164C14.2086 16.334 14.453 16.0625 14.7071 15.8127C15.3033 15.2263 16.157 15.0923 16.8737 15.4724L17.6166 15.8634L17.8903 15.0018C18.1574 14.1692 18.8449 13.5936 19.6399 13.5393C19.9787 13.5176 20.3241 13.5176 20.6597 13.5393C21.2689 13.5791 21.813 13.9266 22.1551 14.4624L22.1551 10.3246L0 10.3246L0 17.5069L13.5472 17.5069C13.6319 17.1847 13.7753 16.8807 13.9838 16.6164ZM3.23856 15.1828C2.60974 15.1828 2.09822 14.6145 2.09822 13.9158C2.09822 13.2171 2.60974 12.6487 3.23856 12.6487C3.86737 12.6487 4.3789 13.2171 4.3789 13.9158C4.3789 14.6145 3.86737 15.1828 3.23856 15.1828Z"></path><path id="路径 1" fill-rule="evenodd" style="fill:#146AE4" opacity="1" d="M26.7426 22.2132C26.7328 22.0539 26.6416 21.9163 26.5048 21.862L25.5111 21.471C24.7193 21.1597 24.3446 20.1533 24.7063 19.3098L25.1592 18.2527C25.2211 18.1079 25.1983 17.9378 25.1038 17.8183C24.9213 17.5903 24.7291 17.3731 24.5238 17.1739C24.4163 17.069 24.2632 17.0436 24.1329 17.1124L23.1815 17.6156C22.4224 18.0174 21.5166 17.6011 21.2364 16.7214L20.8813 15.61C20.8324 15.4616 20.7086 15.3566 20.5652 15.3458C20.4284 15.3349 20.2916 15.3313 20.1547 15.3313C20.0179 15.3313 19.881 15.3349 19.7442 15.3458C19.6008 15.3566 19.477 15.458 19.4282 15.61L19.0763 16.7142C18.7961 17.5939 17.8903 18.0102 17.1312 17.6084L16.1798 17.1052C16.0495 17.0364 15.8964 17.0617 15.7889 17.1667C15.5836 17.3694 15.3881 17.583 15.2089 17.8111C15.1144 17.9305 15.0916 18.1007 15.1535 18.2455L15.6064 19.3026C15.9681 20.1461 15.5934 21.1525 14.8017 21.4638L13.8014 21.862C13.6678 21.9163 13.5733 22.0539 13.5636 22.2132C13.5538 22.3652 13.5505 22.5173 13.5505 22.6693C13.5505 22.8213 13.5538 22.9734 13.5636 23.1254C13.5733 23.2847 13.6646 23.4223 13.8014 23.4766L14.7951 23.8676C15.5869 24.1789 15.9615 25.1853 15.5999 26.0288L15.147 27.0859C15.0851 27.2307 15.1079 27.4008 15.2024 27.5203C15.3849 27.7483 15.5771 27.9655 15.7823 28.1647C15.8899 28.2696 16.043 28.295 16.1733 28.2262L17.1247 27.723C17.8838 27.3212 18.7896 27.7375 19.0698 28.6172L19.4216 29.7213C19.4705 29.8697 19.5943 29.9747 19.7377 29.9856C19.8745 29.9964 20.0114 30.0001 20.1482 30.0001C20.285 30.0001 20.4219 29.9964 20.5587 29.9856C20.7021 29.9747 20.8259 29.8734 20.8748 29.7213L21.2266 28.6172C21.5068 27.7375 22.4126 27.3212 23.1717 27.723L24.1231 28.2262C24.2534 28.295 24.4066 28.2696 24.5141 28.1647C24.7193 27.9619 24.9148 27.7483 25.094 27.5203C25.1885 27.4008 25.2113 27.2307 25.1494 27.0859L24.6965 26.0288C24.3349 25.1853 24.7096 24.1789 25.5013 23.8676L26.495 23.4766C26.6286 23.4223 26.7231 23.2847 26.7328 23.1254C26.7426 22.9734 26.7459 22.8213 26.7459 22.6693C26.7556 22.5173 26.7524 22.3652 26.7426 22.2132ZM20.1547 26.3075C18.3465 26.3075 16.8803 24.6785 16.8803 22.6693C16.8803 20.6601 18.3465 19.0311 20.1547 19.0311C21.963 19.0311 23.4291 20.6601 23.4291 22.6693C23.4291 24.6785 21.963 26.3075 20.1547 26.3075Z"></path></g></svg>