<svg xmlns="http://www.w3.org/2000/svg" xmlns:xlink="http://www.w3.org/1999/xlink" width="25" height="24.3203125" viewBox="0 0 25 24.3203125" fill="none"><g opacity="1"  transform="translate(0 0)"><path id="路径 1" fill-rule="evenodd" style="fill:#153E8B" opacity="1" d="M25 17.8753C24.9003 18.1802 24.6776 18.3649 24.4108 18.5262C21.7342 20.1503 19.0577 21.7744 16.387 23.4073C15.8652 23.7268 15.3111 23.8793 14.6983 23.8793C11.2479 23.8734 7.79736 23.8763 4.34393 23.8763L4.0273 23.8763C4.02146 23.7855 4.01264 23.7063 4.01264 23.6271C4.01264 20.8275 4.01559 18.0278 4.0068 15.2281C4.0068 15.0141 4.06248 14.9614 4.27943 14.9525C5.39636 14.9027 6.40485 15.1695 7.27554 15.9024C7.45436 16.0519 7.67131 16.1604 7.87944 16.2688C8.51266 16.5942 9.18987 16.7496 9.89933 16.7555C10.682 16.7613 11.4619 16.7496 12.2446 16.7584C12.957 16.7672 13.4993 17.0985 13.8159 17.7317C13.9244 17.9516 13.9537 18.233 13.9391 18.4822C13.9127 18.878 13.7866 18.9542 13.3997 18.9571C12.4733 18.9659 11.544 18.9542 10.6176 18.9952C9.71169 19.0363 8.92308 19.4233 8.20484 19.9539C7.99962 20.1034 7.96447 20.3584 8.09344 20.5636C8.22244 20.763 8.47455 20.8245 8.69442 20.7132C8.72374 20.6985 8.75013 20.6809 8.7765 20.6633C9.58564 20.0506 10.5003 19.8425 11.5058 19.8776C12.5554 19.9128 13.6049 19.8776 14.6544 19.8894C15.1264 19.8952 15.572 19.819 16.0176 19.6695C18.6297 18.793 21.2417 17.9252 23.8567 17.0545C24.4137 16.8698 24.7333 17.0164 24.9648 17.5529C24.9707 17.5675 24.9854 17.5763 24.9971 17.5881C25 17.679 25 17.7786 25 17.8753ZM5.36705 6.92292L5.36705 5.77373C5.36705 5.2607 5.49018 5.13756 5.99442 5.13464C6.41072 5.13464 6.82406 5.12585 7.24036 5.13756C7.41038 5.14343 7.46315 5.07309 7.53938 4.93235C7.77683 4.4809 8.03189 4.03822 8.30452 3.60729C8.38955 3.47242 8.42179 3.38742 8.33384 3.24376C8.09931 2.86265 7.88236 2.47275 7.65957 2.08285C7.47488 1.75743 7.53352 1.54051 7.85891 1.35287C8.56837 0.942451 9.28074 0.532027 9.99312 0.121604C10.342 -0.0777385 10.5355 -0.0278956 10.7378 0.318027C10.9635 0.705003 11.1892 1.08903 11.4062 1.48188C11.4736 1.60206 11.5381 1.63724 11.6905 1.63138C12.2329 1.61085 12.7781 1.62846 13.3205 1.61964C13.4055 1.61964 13.5228 1.56982 13.5638 1.50237C13.8072 1.10956 14.0299 0.702054 14.2645 0.30042C14.4521 -0.0191066 14.6573 -0.080687 14.9739 0.101078C15.701 0.517369 16.428 0.933662 17.1492 1.35579C17.4599 1.53756 17.5127 1.75451 17.3339 2.07111C17.1081 2.46688 16.8853 2.86265 16.6508 3.25255C16.5775 3.37569 16.5922 3.4519 16.6713 3.57503C16.9498 4.02064 17.2166 4.47795 17.4629 4.94117C17.5362 5.07893 17.5977 5.13172 17.7502 5.12878C18.1987 5.11999 18.6443 5.12291 19.0928 5.12585C19.471 5.12878 19.6264 5.28414 19.6293 5.65941C19.6323 6.48905 19.6323 7.31868 19.6293 8.15127C19.6293 8.53237 19.4798 8.67601 19.0928 8.67895C18.6384 8.68187 18.1811 8.68479 17.7267 8.67601C17.5889 8.67309 17.5391 8.73172 17.4746 8.84603C17.2195 9.31509 16.9557 9.78122 16.6743 10.2356C16.5981 10.3588 16.5804 10.4379 16.6537 10.561C16.8883 10.9509 17.114 11.3467 17.3368 11.7425C17.5156 12.0591 17.4599 12.2789 17.1492 12.4578C16.4251 12.8799 15.698 13.2962 14.971 13.7125C14.6573 13.8913 14.4462 13.8268 14.2616 13.5131C14.0329 13.1203 13.8013 12.7275 13.5814 12.3288C13.5169 12.2115 13.4466 12.1822 13.3117 12.1851C12.7694 12.1969 12.2241 12.1969 11.6817 12.1851C11.5498 12.1822 11.4765 12.2027 11.4091 12.3229C11.1892 12.7216 10.9576 13.1145 10.729 13.5073C10.5384 13.8327 10.3244 13.8884 9.99899 13.7037C9.28074 13.2903 8.5625 12.877 7.84426 12.4607C7.53057 12.2789 7.47194 12.062 7.65078 11.7483C7.87065 11.3584 8.09052 10.9685 8.3221 10.5874C8.40421 10.4496 8.39834 10.3646 8.30744 10.221C8.02894 9.78414 7.76804 9.33269 7.53057 8.87243C7.45436 8.72293 7.38399 8.67014 7.2257 8.67601C6.7713 8.68479 6.31395 8.68187 5.85955 8.67895C5.52536 8.67601 5.37 8.52064 5.36705 8.1835C5.36413 7.77016 5.36705 7.34508 5.36705 6.92292ZM16.5189 6.92C16.5189 4.68904 14.7101 2.87732 12.4879 2.88318C10.2746 2.88905 8.47455 4.69782 8.47455 6.91413C8.47455 9.13627 10.2658 10.9392 12.4821 10.9451C14.716 10.9509 16.5189 9.15093 16.5189 6.92ZM3.11266 19.218L3.11266 23.7356C3.11266 24.1783 2.97192 24.319 2.52924 24.319C1.86084 24.319 1.19536 24.3219 0.526956 24.319C0.163437 24.319 0.00219885 24.1607 0.00219885 23.803C-0.000732805 20.7366 -0.000732805 17.6672 0.00219885 14.6008C0.00219885 14.2402 0.166369 14.076 0.524025 14.076C1.19828 14.0731 1.8755 14.0731 2.54977 14.076C2.96021 14.076 3.11266 14.2285 3.11266 14.633L3.11266 19.218Z"></path><path id="路径 2" fill-rule="evenodd" style="fill:#146AE4" opacity="1" d="M12.4884 10.0303C10.7646 10.0215 9.37211 8.61722 9.3809 6.89932C9.38969 5.17259 10.7998 3.79473 12.547 3.80647C14.2503 3.81818 15.6311 5.23122 15.6193 6.94329C15.6018 8.6524 14.1946 10.039 12.4884 10.0303ZM12.4972 9.1537C13.7314 9.1537 14.734 8.1599 14.7428 6.92863C14.7516 5.69148 13.7402 4.67716 12.5001 4.67716C11.26 4.67716 10.2457 5.69148 10.2545 6.92568C10.2574 8.15695 11.263 9.1537 12.4972 9.1537Z"></path><path id="路径 3" fill-rule="evenodd" style="fill:#146AE4" opacity="1" d="M13.8185 6.9259C13.8155 7.66761 13.2204 8.25393 12.4817 8.24806C11.7458 8.24219 11.1654 7.64414 11.1742 6.89953C11.18 6.1725 11.7752 5.58618 12.4992 5.58618C13.2321 5.58618 13.8214 6.18421 13.8185 6.9259Z"></path></g></svg>