<svg xmlns="http://www.w3.org/2000/svg" xmlns:xlink="http://www.w3.org/1999/xlink" width="25" height="25" viewBox="0 0 25 25" fill="none"><g opacity="1"  transform="translate(0 0)"><path fill-rule="evenodd"  id="路径 1" style="fill:#153E8B; opacity:1;" d="M0.0150567 13.1133C0.00501891 12.909 0 12.7046 0 12.5C0 12.2954 0.00501891 12.091 0.0150567 11.8867C0.0250943 11.6823 0.0401393 11.4784 0.0601913 11.2748C0.0802433 11.0712 0.105277 10.8682 0.135294 10.6659C0.16531 10.4635 0.200273 10.262 0.240183 10.0614Q0.30005 9.7604 0.374609 9.46275C0.424316 9.26431 0.478863 9.06722 0.538246 8.87145C0.597629 8.67568 0.661781 8.4815 0.7307 8.28888C0.799617 8.09626 0.873219 7.90545 0.951506 7.71646C1.02979 7.52746 1.11267 7.34049 1.20013 7.15555C1.2876 6.97061 1.37956 6.78796 1.476 6.60755C1.57242 6.42713 1.67322 6.24917 1.77839 6.07371C1.88357 5.89825 1.99298 5.72546 2.10663 5.55536C2.22028 5.38529 2.33804 5.21808 2.45991 5.05377C2.58177 4.88947 2.7076 4.72824 2.83736 4.5701C2.96713 4.41194 3.10073 4.25709 3.23812 4.10552C3.37548 3.95394 3.51651 3.80582 3.66115 3.66115C3.80582 3.51652 3.95393 3.37549 4.10552 3.23812C4.25711 3.10073 4.41196 2.96713 4.5701 2.83737C4.72823 2.7076 4.88947 2.58177 5.05377 2.45991C5.21808 2.33804 5.38529 2.22028 5.55536 2.10663C5.72546 1.99298 5.89825 1.88357 6.07371 1.7784C6.24916 1.67322 6.42713 1.57242 6.60754 1.476C6.78796 1.37955 6.97063 1.2876 7.15555 1.20014C7.34049 1.11267 7.52745 1.02979 7.71646 0.951506C7.90544 0.87322 8.09625 0.799618 8.28887 0.730701C8.48149 0.661781 8.67567 0.59763 8.87144 0.538246C9.06721 0.478863 9.2643 0.424316 9.46274 0.37461Q9.7604 0.30005 10.0614 0.240183C10.262 0.200275 10.4635 0.165312 10.6659 0.135294C10.8682 0.105278 11.0712 0.0802433 11.2748 0.0601913C11.4784 0.0401393 11.6823 0.0250943 11.8867 0.0150566C12.091 0.00501881 12.2954 0 12.5 0C12.7046 0 12.909 0.00501881 13.1133 0.0150566C13.3177 0.0250943 13.5216 0.0401393 13.7252 0.0601913C13.9288 0.0802433 14.1318 0.105278 14.3341 0.135294C14.5365 0.165312 14.738 0.200275 14.9386 0.240183Q15.2396 0.30005 15.5373 0.37461C15.7357 0.424316 15.9328 0.478863 16.1286 0.538246C16.3243 0.59763 16.5185 0.661781 16.7111 0.730701C16.9037 0.799618 17.0945 0.87322 17.2835 0.951506C17.4725 1.02979 17.6595 1.11267 17.8444 1.20014C18.0294 1.2876 18.212 1.37955 18.3925 1.476C18.5729 1.57242 18.7508 1.67322 18.9263 1.7784C19.1017 1.88357 19.2745 1.99298 19.4446 2.10663C19.6147 2.22028 19.7819 2.33804 19.9462 2.45991C20.1105 2.58177 20.2718 2.7076 20.4299 2.83737C20.588 2.96713 20.7429 3.10073 20.8945 3.23812C21.0461 3.37549 21.1942 3.51652 21.3388 3.66115C21.4835 3.80582 21.6245 3.95394 21.7619 4.10552C21.8993 4.25709 22.0329 4.41194 22.1626 4.5701C22.2924 4.72824 22.4182 4.88947 22.5401 5.05377C22.662 5.21808 22.7797 5.38529 22.8934 5.55536C23.007 5.72546 23.1164 5.89825 23.2216 6.07371C23.3268 6.24917 23.4276 6.42713 23.524 6.60755C23.6204 6.78796 23.7124 6.97061 23.7999 7.15555C23.8873 7.34049 23.9702 7.52746 24.0485 7.71646C24.1268 7.90545 24.2004 8.09626 24.2693 8.28888C24.3382 8.4815 24.4024 8.67568 24.4617 8.87145C24.5211 9.06722 24.5757 9.26431 24.6254 9.46275C24.6751 9.66118 24.7199 9.86073 24.7598 10.0614C24.7997 10.262 24.8347 10.4635 24.8647 10.6659C24.8947 10.8682 24.9197 11.0712 24.9398 11.2748C24.9599 11.4784 24.9749 11.6823 24.9849 11.8867C24.995 12.091 25 12.2954 25 12.5C25 12.7046 24.995 12.909 24.9849 13.1133C24.9749 13.3177 24.9599 13.5216 24.9398 13.7252C24.9197 13.9288 24.8947 14.1318 24.8647 14.3341C24.8347 14.5365 24.7997 14.738 24.7598 14.9386C24.7199 15.1393 24.6751 15.3388 24.6254 15.5373C24.5757 15.7357 24.5211 15.9328 24.4617 16.1286C24.4024 16.3243 24.3382 16.5185 24.2693 16.7111C24.2004 16.9038 24.1268 17.0946 24.0485 17.2835C23.9702 17.4726 23.8873 17.6595 23.7999 17.8445C23.7124 18.0294 23.6204 18.2121 23.524 18.3925C23.4276 18.5729 23.3268 18.7508 23.2216 18.9263C23.1164 19.1018 23.007 19.2746 22.8934 19.4446C22.7797 19.6147 22.662 19.7819 22.5401 19.9462C22.4182 20.1105 22.2924 20.2718 22.1626 20.4299C22.0329 20.588 21.8993 20.7429 21.7619 20.8945C21.6245 21.0461 21.4835 21.1942 21.3388 21.3388C21.1942 21.4835 21.0461 21.6245 20.8945 21.7619C20.7429 21.8993 20.588 22.0329 20.4299 22.1626C20.2718 22.2924 20.1105 22.4182 19.9462 22.5401C19.7819 22.662 19.6147 22.7797 19.4446 22.8934C19.2745 23.007 19.1017 23.1164 18.9263 23.2216C18.7508 23.3268 18.5729 23.4276 18.3925 23.524C18.212 23.6205 18.0294 23.7124 17.8444 23.7999C17.6595 23.8874 17.4725 23.9702 17.2835 24.0485C17.0946 24.1268 16.9037 24.2004 16.7111 24.2693C16.5185 24.3382 16.3243 24.4024 16.1286 24.4618C15.9328 24.5212 15.7357 24.5757 15.5373 24.6254C15.3388 24.6751 15.1393 24.7199 14.9386 24.7598C14.738 24.7997 14.5365 24.8347 14.3341 24.8647C14.1318 24.8947 13.9288 24.9198 13.7252 24.9398C13.5216 24.9599 13.3177 24.9749 13.1133 24.985C12.909 24.995 12.7046 25 12.5 25C12.2954 25 12.091 24.995 11.8867 24.985C11.6823 24.9749 11.4784 24.9599 11.2748 24.9398C11.0712 24.9198 10.8682 24.8947 10.6659 24.8647C10.4635 24.8347 10.262 24.7997 10.0614 24.7598C9.86072 24.7199 9.66118 24.6751 9.46274 24.6254C9.2643 24.5757 9.06721 24.5212 8.87144 24.4618C8.67567 24.4024 8.48149 24.3382 8.28887 24.2693C8.09625 24.2004 7.90544 24.1268 7.71646 24.0485C7.52745 23.9702 7.34049 23.8874 7.15555 23.7999C6.97063 23.7124 6.78796 23.6205 6.60754 23.524C6.42713 23.4276 6.24916 23.3268 6.07371 23.2216C5.89825 23.1164 5.72546 23.007 5.55536 22.8934C5.38529 22.7797 5.21808 22.662 5.05377 22.5401C4.88947 22.4182 4.72823 22.2924 4.5701 22.1626C4.41196 22.0329 4.25711 21.8993 4.10552 21.7619C3.95393 21.6245 3.80582 21.4835 3.66115 21.3388C3.51651 21.1942 3.37548 21.0461 3.23812 20.8945C3.10073 20.7429 2.96713 20.588 2.83736 20.4299C2.7076 20.2718 2.58177 20.1105 2.45991 19.9462C2.33804 19.7819 2.22028 19.6147 2.10663 19.4446C1.99298 19.2746 1.88357 19.1018 1.77839 18.9263C1.67322 18.7508 1.57242 18.5729 1.476 18.3925C1.37956 18.2121 1.2876 18.0294 1.20013 17.8445C1.11267 17.6595 1.02979 17.4726 0.951506 17.2835C0.873219 17.0946 0.799617 16.9038 0.7307 16.7111C0.661781 16.5185 0.597629 16.3243 0.538246 16.1286C0.478863 15.9328 0.424316 15.7357 0.374609 15.5373Q0.30005 15.2396 0.240183 14.9386C0.200273 14.738 0.16531 14.5365 0.135294 14.3341C0.105277 14.1318 0.0802433 13.9288 0.0601913 13.7252C0.0401393 13.5216 0.0250943 13.3177 0.0150567 13.1133ZM2.01265 13.0152Q2 12.7578 2 12.5Q2 12.2422 2.01265 11.9848Q2.02529 11.7273 2.05056 11.4708Q2.07583 11.2142 2.11364 10.9593Q2.15147 10.7043 2.20175 10.4516Q2.25204 10.1987 2.31467 9.94871Q2.37727 9.69879 2.45214 9.45199Q2.52693 9.20542 2.6138 8.96263Q2.70065 8.71987 2.79928 8.4818Q2.89787 8.24378 3.00813 8.01062Q3.11818 7.77793 3.23987 7.55028Q3.36146 7.32278 3.49382 7.10197Q3.62645 6.8807 3.76951 6.66659Q3.91289 6.45203 4.06633 6.24517Q4.21985 6.03817 4.38354 5.8387Q4.54667 5.63987 4.72015 5.4485Q4.89284 5.25793 5.07523 5.0755Q5.25793 4.89284 5.44864 4.72003Q5.63991 4.54667 5.83882 4.38344Q6.03817 4.21985 6.24528 4.06625Q6.45203 3.91289 6.66647 3.76959Q6.88069 3.62646 7.10196 3.49382Q7.32278 3.36146 7.55041 3.2398Q7.7776 3.11835 8.01061 3.00814Q8.24377 2.89787 8.48188 2.79924Q8.71987 2.70066 8.96265 2.61379Q9.20541 2.52693 9.45198 2.45214Q9.69878 2.37727 9.94871 2.31467Q10.1987 2.25204 10.4515 2.20176Q10.7043 2.15148 10.9593 2.11365Q11.2142 2.07583 11.4708 2.05056Q11.7273 2.0253 11.9848 2.01265Q12.2422 2 12.5 2Q12.7578 2 13.0152 2.01265Q13.2727 2.0253 13.5292 2.05056Q13.7858 2.07583 14.0406 2.11364Q14.2957 2.15148 14.5484 2.20176Q14.8013 2.25204 15.0513 2.31467Q15.3012 2.37727 15.548 2.45214Q15.7946 2.52693 16.0373 2.61377Q16.2801 2.70065 16.5182 2.79928Q16.7562 2.89787 16.9893 3.00809Q17.2224 3.11836 17.4497 3.23988Q17.6772 3.36146 17.898 3.49383Q18.1193 3.62645 18.3334 3.76951Q18.548 3.91288 18.7548 4.06633Q18.9618 4.2198 19.1611 4.38334Q19.3601 4.54672 19.5515 4.72015Q19.7421 4.89286 19.9245 5.07524Q20.1072 5.25793 20.2801 5.44877Q20.4533 5.63986 20.6166 5.83883Q20.7802 6.03828 20.9337 6.24528Q21.087 6.45191 21.2304 6.66652Q21.3735 6.88056 21.5062 7.10197Q21.6386 7.32291 21.7602 7.55041Q21.8817 7.77772 21.9919 8.01068Q22.102 8.24356 22.2008 8.48189Q22.2993 8.71984 22.3863 8.96282Q22.473 9.20517 22.5479 9.45215Q22.6226 9.69834 22.6853 9.94869Q22.748 10.1992 22.7983 10.4517Q22.8485 10.7044 22.8863 10.9593Q22.9241 11.214 22.9494 11.4707Q22.9747 11.7271 22.9874 11.9849Q23 12.242 23 12.5Q23 12.758 22.9874 13.0151Q22.9747 13.273 22.9495 13.529Q22.9241 13.786 22.8863 14.0407Q22.8485 14.2956 22.7982 14.5486Q22.7479 14.8014 22.6853 15.0513Q22.6228 15.3012 22.5478 15.5481Q22.473 15.7948 22.3862 16.0374Q22.2993 16.2802 22.2007 16.5182Q22.102 16.7565 21.9919 16.9892Q21.8816 17.2224 21.7602 17.4496Q21.6385 17.6772 21.5062 17.8981Q21.3734 18.1195 21.2304 18.3335Q21.0871 18.548 20.9336 18.7549Q20.7802 18.9617 20.6166 19.1612Q20.4533 19.3601 20.2798 19.5515Q20.1071 19.7422 19.9246 19.9246Q19.7422 20.1071 19.5514 20.28Q19.3601 20.4533 19.1612 20.6166Q18.9617 20.7803 18.7547 20.9338Q18.5481 21.087 18.3335 21.2305Q18.1194 21.3735 17.898 21.5062Q17.6771 21.6386 17.4496 21.7602Q17.2225 21.8816 16.9893 21.9919Q16.7565 22.102 16.5181 22.2008Q16.2802 22.2993 16.0372 22.3863Q15.7948 22.473 15.5479 22.5479Q15.3016 22.6226 15.0513 22.6853Q14.8008 22.7481 14.5483 22.7983Q14.2956 22.8486 14.0407 22.8864Q13.786 22.9241 13.5293 22.9495Q13.2729 22.9747 13.0151 22.9874Q12.758 23 12.5 23Q12.242 23 11.9849 22.9874Q11.727 22.9747 11.471 22.9495Q11.214 22.9241 10.9593 22.8864Q10.7044 22.8486 10.4514 22.7982Q10.1986 22.748 9.94868 22.6853Q9.69884 22.6228 9.45192 22.5478Q9.20516 22.473 8.96259 22.3862Q8.71984 22.2993 8.48179 22.2007Q8.24356 22.1021 8.01078 21.992Q7.77746 21.8816 7.55022 21.7601Q7.3229 21.6386 7.10195 21.5062Q6.88056 21.3735 6.66665 21.2305Q6.45191 21.087 6.24512 20.9336Q6.03828 20.7802 5.83882 20.6166Q5.63989 20.4533 5.44849 20.2799Q5.25785 20.1071 5.07536 19.9246Q4.89291 19.7422 4.72003 19.5514Q4.54666 19.3601 4.38344 19.1612Q4.21984 18.9618 4.06624 18.7547Q3.91283 18.5479 3.76951 18.3334Q3.62649 18.1194 3.49382 17.898Q3.36145 17.6772 3.23981 17.4496Q3.11833 17.2224 3.00813 16.9894Q2.89786 16.7562 2.79924 16.5181Q2.70066 16.2801 2.61379 16.0374Q2.52693 15.7946 2.45213 15.548Q2.37727 15.3012 2.31467 15.0513Q2.25204 14.8013 2.20176 14.5485Q2.15147 14.2957 2.11364 14.0407Q2.07583 13.7858 2.05056 13.5292Q2.02529 13.2727 2.01265 13.0152Z"></path><path id="路径 2" fill-rule="evenodd" style="fill:#146AE4" opacity="1" d="M19.6839 15.749C19.7014 15.7489 19.7189 15.7483 19.7364 15.7472C19.7539 15.7461 19.7713 15.7446 19.7888 15.7426C19.8062 15.7406 19.8235 15.7382 19.8408 15.7353C19.8581 15.7324 19.8753 15.7291 19.8924 15.7253C19.9095 15.7216 19.9265 15.7174 19.9434 15.7127C19.9603 15.7081 19.977 15.703 19.9937 15.6975C20.0103 15.692 20.0268 15.686 20.0431 15.6797C20.0594 15.6733 20.0756 15.6665 20.0915 15.6593C20.1075 15.6521 20.1233 15.6445 20.1388 15.6365C20.1544 15.6285 20.1698 15.62 20.1849 15.6112C20.2 15.6024 20.215 15.5932 20.2296 15.5836C20.2443 15.574 20.2587 15.5641 20.2729 15.5537C20.287 15.5434 20.3009 15.5327 20.3145 15.5217C20.3281 15.5106 20.3414 15.4992 20.3544 15.4875C20.3674 15.4757 20.3801 15.4637 20.3924 15.4513C20.4048 15.4389 20.4169 15.4262 20.4286 15.4132C20.4403 15.4002 20.4517 15.3868 20.4627 15.3732C20.4738 15.3596 20.4844 15.3457 20.4948 15.3316C20.5051 15.3174 20.515 15.303 20.5246 15.2883C20.5342 15.2736 20.5433 15.2587 20.5521 15.2436C20.5609 15.2284 20.5693 15.2131 20.5773 15.1975C20.5853 15.1819 20.5929 15.1661 20.6001 15.1501C20.6073 15.1341 20.6141 15.118 20.6204 15.1017C20.6268 15.0853 20.6327 15.0688 20.6382 15.0522C20.6437 15.0356 20.6487 15.0188 20.6533 15.0019C20.658 14.985 20.6622 14.968 20.6659 14.9509C20.6697 14.9338 20.673 14.9166 20.6758 14.8993C20.6787 14.882 20.6811 14.8647 20.6831 14.8472C20.685 14.8299 20.6865 14.8124 20.6876 14.7949C20.6886 14.7774 20.6892 14.7599 20.6894 14.7424C20.6895 14.7249 20.6892 14.7074 20.6885 14.6899C20.6877 14.6724 20.6865 14.6549 20.6848 14.6374C20.6851 14.5867 20.6843 14.5359 20.6826 14.4852C20.6809 14.4345 20.6782 14.3838 20.6745 14.3332C20.6708 14.2826 20.6662 14.2321 20.6605 14.1816C20.6549 14.1311 20.6483 14.0808 20.6406 14.0307C20.633 13.9805 20.6245 13.9305 20.6149 13.8806C20.6054 13.8308 20.5949 13.7811 20.5834 13.7317C20.5719 13.6822 20.5595 13.633 20.5461 13.5841C20.5327 13.5351 20.5184 13.4864 20.5031 13.438C20.4878 13.3896 20.4716 13.3415 20.4544 13.2937C20.4372 13.246 20.4192 13.1986 20.4002 13.1515C20.3812 13.1044 20.3613 13.0577 20.3405 13.0115C20.3197 12.9651 20.2979 12.9193 20.2753 12.8738C20.2528 12.8284 20.2293 12.7834 20.2049 12.7388C20.1806 12.6943 20.1554 12.6503 20.1293 12.6067C20.1033 12.5632 20.0764 12.5201 20.0486 12.4776C20.0209 12.4351 19.9924 12.3931 19.963 12.3517C19.946 12.3265 19.9287 12.3014 19.9111 12.2766C19.8935 12.2517 19.8756 12.2271 19.8574 12.2026C19.8392 12.1782 19.8207 12.154 19.8019 12.13C19.7832 12.1061 19.7641 12.0823 19.7448 12.0588C19.7254 12.0352 19.7058 12.012 19.686 11.9889C19.6661 11.9658 19.6459 11.943 19.6255 11.9204C19.6051 11.8978 19.5844 11.8755 19.5634 11.8534C19.5425 11.8313 19.5213 11.8094 19.4998 11.7878C19.4783 11.7662 19.4566 11.7449 19.4346 11.7238C19.4126 11.7028 19.3904 11.682 19.3679 11.6614C19.3454 11.6409 19.3227 11.6206 19.2998 11.6006C19.2768 11.5806 19.2536 11.5608 19.2302 11.5414C19.2068 11.5219 19.1831 11.5027 19.1592 11.4838C19.1354 11.4649 19.1113 11.4463 19.0869 11.428C19.0626 11.4097 19.0381 11.3916 19.0133 11.3739C18.9886 11.3561 18.9636 11.3387 18.9385 11.3215C18.9133 11.3044 18.888 11.2875 18.8624 11.271C18.8368 11.2544 18.8111 11.2382 18.7851 11.2222C18.7592 11.2063 18.733 11.1907 18.7067 11.1753C18.6804 11.16 18.6539 11.145 18.6272 11.1303C18.6005 11.1157 18.5737 11.1013 18.5467 11.0872C18.5196 11.0732 18.4925 11.0595 18.4651 11.046C18.4378 11.0326 18.4103 11.0195 18.3826 11.0068C18.355 10.994 18.3272 10.9816 18.2992 10.9695C18.2713 10.9574 18.2432 10.9457 18.215 10.9342C18.1867 10.9228 18.1584 10.9117 18.1299 10.901C18.1014 10.8902 18.0728 10.8798 18.0441 10.8697C18.0153 10.8596 17.9865 10.8499 17.9575 10.8405C17.9285 10.8311 17.8994 10.8221 17.8703 10.8134C17.8411 10.8047 17.8118 10.7963 17.7824 10.7883C17.753 10.7803 17.7236 10.7726 17.694 10.7653C17.6644 10.758 17.6348 10.7511 17.6051 10.7444C17.2393 10.6626 16.864 10.629 16.479 10.5712C16.4816 10.5342 16.4836 10.4972 16.4851 10.4602C16.4866 10.4231 16.4876 10.3861 16.488 10.349C16.4885 10.312 16.4884 10.2749 16.4878 10.2379C16.4873 10.2008 16.4862 10.1637 16.4845 10.1267C16.4829 10.0897 16.4808 10.0527 16.4781 10.0157C16.4755 9.97872 16.4723 9.94179 16.4686 9.90491C16.4649 9.86804 16.4607 9.8312 16.456 9.79445C16.4513 9.75769 16.4461 9.721 16.4403 9.68437C16.4346 9.64774 16.4283 9.61123 16.4216 9.57477C16.4148 9.53832 16.4075 9.50199 16.3997 9.46575C16.3919 9.42951 16.3836 9.39339 16.3748 9.35736C16.366 9.32139 16.3567 9.28551 16.3469 9.24976C16.3371 9.21401 16.3268 9.1784 16.316 9.14293C16.3052 9.10748 16.2939 9.07218 16.2821 9.03704C16.2703 9.00191 16.2581 8.96694 16.2453 8.93213C16.2325 8.89734 16.2193 8.86274 16.2055 8.82831C16.1918 8.79388 16.1776 8.75965 16.1629 8.7256C16.1482 8.69158 16.133 8.65776 16.1173 8.62416C16.1017 8.59055 16.0856 8.55718 16.069 8.52404C16.0524 8.49089 16.0354 8.45798 16.0179 8.4253C16.0004 8.39261 15.9824 8.36019 15.964 8.32803C15.9456 8.29585 15.9267 8.26394 15.9074 8.2323C15.8881 8.20066 15.8684 8.16929 15.8482 8.1382C15.828 8.10712 15.8074 8.07632 15.7863 8.0458C15.7653 8.01528 15.7439 7.98507 15.722 7.95515C15.7001 7.92524 15.6777 7.89564 15.655 7.86637C15.6323 7.83708 15.6092 7.80811 15.5857 7.77948C15.5621 7.75083 15.5382 7.72252 15.5139 7.69455C15.4895 7.66658 15.4648 7.63896 15.4397 7.61169C15.4146 7.58442 15.3891 7.5575 15.3633 7.53094C15.3374 7.50437 15.3112 7.47817 15.2846 7.45235C15.258 7.42652 15.2311 7.40107 15.2038 7.37599C15.177 7.34996 15.1499 7.32434 15.1223 7.29911C15.0948 7.27389 15.0669 7.24907 15.0387 7.22465C15.0105 7.20023 14.9818 7.17622 14.9529 7.15265C14.9239 7.12905 14.8947 7.10588 14.865 7.08314C14.8354 7.0604 14.8055 7.03811 14.7752 7.01625C14.7449 6.9944 14.7144 6.97298 14.6835 6.95201C14.6526 6.93104 14.6214 6.91052 14.5899 6.89045C14.5584 6.87038 14.5266 6.85077 14.4946 6.83162C14.4625 6.81249 14.4302 6.79382 14.3976 6.77562C14.365 6.75741 14.3321 6.73969 14.299 6.72244C14.2659 6.7052 14.2325 6.68845 14.1989 6.67219C14.1653 6.65591 14.1315 6.64013 14.0974 6.62485C14.0633 6.60955 14.029 6.59475 13.9945 6.58046C13.96 6.56618 13.9253 6.55239 13.8904 6.5391C13.8555 6.52583 13.8205 6.51306 13.7852 6.50079C13.7499 6.48853 13.7145 6.4768 13.6789 6.46557C13.6432 6.45434 13.6075 6.44363 13.5716 6.43345C13.5356 6.42324 13.4996 6.41358 13.4634 6.40445C13.4272 6.39531 13.3908 6.3867 13.3544 6.37862C13.3179 6.37054 13.2814 6.36299 13.2447 6.35597C13.208 6.34895 13.1712 6.34247 13.1344 6.33651C13.0975 6.33056 13.0606 6.32514 13.0236 6.32027C12.9865 6.3154 12.9494 6.31107 12.9123 6.30728C12.8752 6.30349 12.838 6.30023 12.8007 6.2975C12.7635 6.2948 12.7262 6.29263 12.6889 6.29101C12.6516 6.28938 12.6143 6.2883 12.5769 6.28776C12.5396 6.28722 12.5022 6.28722 12.4649 6.28776C12.4276 6.2883 12.3903 6.28939 12.353 6.29104C12.3157 6.29266 12.2784 6.29483 12.2412 6.29753C12.2039 6.30026 12.1667 6.30352 12.1296 6.30731C12.0924 6.31112 12.0553 6.31546 12.0183 6.32033C11.9813 6.3252 11.9443 6.33062 11.9075 6.33657C11.8455 6.34591 11.7837 6.35671 11.7222 6.36896C11.6607 6.38121 11.5995 6.3949 11.5386 6.41002C11.4777 6.42511 11.4173 6.44164 11.3572 6.45958C11.297 6.47753 11.2374 6.49687 11.1782 6.5176C11.119 6.53835 11.0603 6.56046 11.0022 6.58394C10.944 6.60742 10.8865 6.63226 10.8295 6.65844C10.7725 6.68463 10.7161 6.71213 10.6604 6.74094C10.6047 6.76975 10.5497 6.79986 10.4954 6.83126C10.4411 6.86266 10.3876 6.89531 10.3348 6.92921C10.282 6.96312 10.2301 6.99824 10.1789 7.03457C10.1278 7.0709 10.0776 7.10841 10.0282 7.14711C9.97885 7.18579 9.9304 7.22561 9.88291 7.26657C9.83542 7.30751 9.78889 7.34956 9.74336 7.39271C9.69782 7.43584 9.65331 7.48001 9.60985 7.52522C9.56639 7.57044 9.52398 7.61665 9.48269 7.66387C9.4414 7.71107 9.40121 7.75921 9.36218 7.8083C9.32311 7.85738 9.28524 7.90734 9.24855 7.95819C9.21183 8.00906 9.17634 8.06075 9.14205 8.11326C9.10777 8.1658 9.07474 8.21909 9.04295 8.27314C9.01116 8.32722 8.98063 8.38201 8.9514 8.43751C8.9222 8.49299 8.89429 8.54913 8.86767 8.60593C8.84108 8.66274 8.81585 8.72013 8.79194 8.77812C8.76803 8.8361 8.74547 8.89462 8.7243 8.95367C8.70316 9.01271 8.68336 9.07222 8.66499 9.13217C8.64661 9.19214 8.62962 9.25251 8.61407 9.31327C8.59852 9.37402 8.58442 9.4351 8.57172 9.49652C8.559 9.55796 8.54775 9.61965 8.53795 9.68157C8.52814 9.74353 8.51981 9.8057 8.51293 9.86801C8.50604 9.93036 8.50059 9.99283 8.49662 10.0554C8.49265 10.118 8.49016 10.1807 8.48911 10.2434C8.48805 10.3061 8.4885 10.3688 8.4904 10.4315C8.49229 10.4942 8.49566 10.5568 8.5005 10.6193C8.43758 10.6171 8.37467 10.6163 8.31172 10.617C8.24877 10.6177 8.18588 10.6199 8.12302 10.6235C8.06019 10.6272 7.99745 10.6323 7.93487 10.6389C7.87228 10.6455 7.80984 10.6535 7.74761 10.663C7.68539 10.6725 7.6234 10.6835 7.56172 10.6959C7.5 10.7083 7.43862 10.7222 7.37753 10.7374C7.31645 10.7527 7.25578 10.7694 7.19551 10.7875C7.13522 10.8057 7.07539 10.8252 7.01602 10.8461C6.95665 10.8671 6.8978 10.8894 6.83947 10.9131C6.78117 10.9368 6.72343 10.9618 6.66626 10.9882C6.60912 11.0146 6.55262 11.0423 6.49676 11.0713C6.4409 11.1003 6.38575 11.1306 6.33131 11.1623C6.27689 11.1939 6.22324 11.2267 6.17034 11.2609C6.11745 11.295 6.06538 11.3304 6.01413 11.3669C5.96288 11.4035 5.91252 11.4412 5.86306 11.4802C5.81359 11.5191 5.76506 11.5591 5.71746 11.6003C5.66986 11.6415 5.62326 11.6838 5.57764 11.7272C5.53202 11.7706 5.48745 11.815 5.44392 11.8605C5.40039 11.9059 5.35795 11.9524 5.31658 11.9999C5.27522 12.0473 5.23499 12.0957 5.19589 12.145C5.15681 12.1944 5.11889 12.2446 5.08214 12.2957C5.04541 12.3468 5.00989 12.3988 4.97558 12.4516C4.94128 12.5044 4.90822 12.5579 4.87642 12.6122C4.84462 12.6666 4.8141 12.7216 4.78487 12.7774C4.75566 12.8331 4.72776 12.8895 4.70117 12.9466C4.6746 13.0037 4.64938 13.0613 4.6255 13.1196C4.60162 13.1778 4.57911 13.2365 4.55798 13.2959C4.53685 13.3552 4.51712 13.4149 4.49879 13.4751C4.48046 13.5353 4.46355 13.596 4.44805 13.657C4.43257 13.718 4.41852 13.7794 4.40588 13.841C4.39327 13.9027 4.38211 13.9646 4.37241 14.0268C4.36269 14.089 4.35442 14.1514 4.34763 14.214C4.34318 14.2502 4.33924 14.2864 4.33581 14.3227C4.3324 14.359 4.3295 14.3953 4.32712 14.4317C4.32473 14.4681 4.32286 14.5044 4.32149 14.5409C4.32015 14.5773 4.31932 14.6138 4.319 14.6502C4.31868 14.6866 4.31888 14.7231 4.3196 14.7595C4.3203 14.796 4.32153 14.8324 4.3233 14.8688C4.32504 14.9052 4.32731 14.9416 4.33009 14.978C4.33288 15.0143 4.33618 15.0506 4.33999 15.0868C4.3438 15.1231 4.34813 15.1593 4.35298 15.1954C4.35781 15.2316 4.36317 15.2676 4.36904 15.3036C4.37492 15.3396 4.38129 15.3754 4.38817 15.4113C4.39507 15.447 4.40247 15.4827 4.41037 15.5183C4.41827 15.5539 4.42667 15.5894 4.43557 15.6247C4.44449 15.6601 4.45391 15.6953 4.46381 15.7303C4.47372 15.7654 4.48412 15.8004 4.49503 15.8351C4.50592 15.8699 4.51731 15.9045 4.5292 15.939C4.54109 15.9735 4.55346 16.0077 4.56631 16.0419C4.57916 16.076 4.59251 16.1099 4.60634 16.1436C4.62015 16.1773 4.63445 16.2108 4.64923 16.2442C4.66401 16.2775 4.67926 16.3106 4.69497 16.3435C4.71067 16.3764 4.72684 16.4091 4.74349 16.4415C4.76013 16.4739 4.77723 16.5061 4.7948 16.5381C4.81236 16.57 4.83037 16.6017 4.84881 16.6331C4.86728 16.6646 4.88618 16.6957 4.9055 16.7266C4.92486 16.7575 4.94463 16.7882 4.96484 16.8185C4.98505 16.8488 5.0057 16.8789 5.02677 16.9086C5.04782 16.9384 5.06931 16.9678 5.09122 16.9969C5.11312 17.0261 5.13543 17.0549 5.15814 17.0834C5.18088 17.1119 5.20401 17.1401 5.22753 17.1679C5.25105 17.1958 5.27496 17.2233 5.29926 17.2504C5.32356 17.2776 5.34824 17.3044 5.3733 17.3309C5.39837 17.3574 5.4238 17.3835 5.44961 17.4092C5.47595 17.4375 5.50273 17.4655 5.52994 17.493C5.55713 17.5206 5.58473 17.5477 5.61274 17.5743C5.64075 17.601 5.66915 17.6273 5.69794 17.6532C5.72676 17.679 5.75595 17.7044 5.78552 17.7293C5.8151 17.7543 5.84503 17.7788 5.87533 17.8029C5.90565 17.8269 5.93631 17.8505 5.96733 17.8736C5.99835 17.8968 6.02971 17.9194 6.06141 17.9416C6.09311 17.9638 6.12514 17.9855 6.1575 18.0068C6.18986 18.028 6.22254 18.0487 6.25552 18.069C6.2885 18.0892 6.32179 18.1089 6.35537 18.1281C6.38894 18.1474 6.42279 18.1661 6.45694 18.1843C6.49109 18.2025 6.52549 18.2202 6.56016 18.2373C6.59485 18.2545 6.62977 18.2712 6.66494 18.2873C6.70013 18.3034 6.73555 18.319 6.7712 18.3341C6.80685 18.3491 6.84271 18.3636 6.87878 18.3776C6.91487 18.3915 6.95116 18.405 6.98766 18.4178C7.02415 18.4307 7.06082 18.443 7.09767 18.4548C7.13455 18.4666 7.17158 18.4778 7.20877 18.4884C7.24597 18.4991 7.28332 18.5092 7.32084 18.5187C7.35834 18.5282 7.39597 18.5372 7.43374 18.5456C7.47152 18.554 7.50941 18.5618 7.54743 18.5691C7.58545 18.5763 7.62355 18.583 7.66175 18.5891C7.69998 18.5952 7.73826 18.6007 7.77664 18.6057C7.81501 18.6106 7.85345 18.6149 7.89198 18.6188C7.93048 18.6225 7.96903 18.6257 8.00765 18.6284C8.04624 18.631 8.08489 18.6331 8.12356 18.6345C8.16221 18.6359 8.20089 18.6368 8.2396 18.6371C8.2783 18.6374 8.31698 18.6371 8.35566 18.6362C8.39437 18.6354 8.43301 18.6339 8.47166 18.6319C8.51031 18.6298 8.5489 18.6272 8.58745 18.624C8.62604 18.6208 8.66454 18.617 8.70297 18.6127C8.74144 18.6083 8.77982 18.6033 8.8181 18.5978C8.86572 18.5935 8.91323 18.5882 8.96066 18.582C9.00809 18.5757 9.05534 18.5685 9.10247 18.5604C9.1496 18.5523 9.19655 18.5432 9.24332 18.5332C9.29008 18.5232 9.33661 18.5123 9.38296 18.5004C9.42931 18.4885 9.47538 18.4758 9.52119 18.462C9.56699 18.4484 9.61253 18.4338 9.65776 18.4183C9.703 18.4028 9.7479 18.3863 9.7925 18.369C9.83707 18.3517 9.88129 18.3335 9.92514 18.3144C9.96902 18.2954 10.0125 18.2754 10.0555 18.2546C10.0986 18.2338 10.1412 18.2122 10.1834 18.1896C10.2256 18.1672 10.2673 18.1438 10.3086 18.1196C10.3499 18.0955 10.3906 18.0705 10.4309 18.0447C10.4712 18.0189 10.5109 17.9923 10.5501 17.9649C10.5893 17.9375 10.6279 17.9093 10.666 17.8804C10.7041 17.8515 10.7416 17.8218 10.7785 17.7914C10.8154 17.761 10.8517 17.7298 10.8873 17.6979C11.4648 17.1638 11.9941 16.5815 12.5475 16.0185C13.4714 15.0561 14.3857 14.1178 15.3145 13.1746C15.3322 13.1575 15.3502 13.1407 15.3684 13.1243C15.3868 13.1079 15.4053 13.0918 15.4242 13.0761C15.4431 13.0603 15.4623 13.0449 15.4818 13.0299C15.5012 13.0149 15.521 13.0002 15.541 12.9859C15.561 12.9716 15.5812 12.9577 15.6017 12.9441C15.6222 12.9306 15.643 12.9174 15.664 12.9046C15.685 12.8918 15.7062 12.8794 15.7276 12.8674C15.7491 12.8554 15.7708 12.8438 15.7927 12.8326C15.8145 12.8214 15.8366 12.8105 15.8589 12.8001C15.8812 12.7897 15.9036 12.7798 15.9263 12.7702C15.9489 12.7606 15.9717 12.7515 15.9947 12.7427C16.0177 12.734 16.0408 12.7257 16.0642 12.7178C16.0874 12.7099 16.1109 12.7025 16.1344 12.6955C16.158 12.6885 16.1817 12.6819 16.2055 12.6757C16.2293 12.6696 16.2532 12.6639 16.2772 12.6586C16.3013 12.6534 16.3254 12.6486 16.3495 12.6442C16.3738 12.6398 16.398 12.6359 16.4224 12.6324C16.4467 12.6289 16.4711 12.6259 16.4955 12.6233C16.52 12.6207 16.5445 12.6186 16.569 12.617C16.5936 12.6153 16.6181 12.614 16.6427 12.6133C16.6672 12.6125 16.6918 12.6122 16.7164 12.6123C16.741 12.6124 16.7656 12.613 16.7902 12.6141C16.8147 12.6151 16.8392 12.6166 16.8638 12.6185C16.8883 12.6205 16.9128 12.6229 16.9372 12.6257C16.9616 12.6286 16.986 12.6319 17.0103 12.6356C17.0346 12.6394 17.0588 12.6435 17.0829 12.6482C17.1071 12.6528 17.1311 12.6579 17.1551 12.6634C17.179 12.6689 17.2029 12.6749 17.2266 12.6813C17.2504 12.6877 17.274 12.6945 17.2974 12.7018C17.3209 12.709 17.3443 12.7167 17.3675 12.7249C17.3907 12.733 17.4138 12.7416 17.4366 12.7506C17.4595 12.7595 17.4823 12.7689 17.5048 12.7788C17.5273 12.7886 17.5497 12.7988 17.5719 12.8094C17.594 12.8201 17.616 12.8311 17.6377 12.8426C17.6595 12.854 17.681 12.8659 17.7024 12.8781C17.7237 12.8903 17.7448 12.903 17.7656 12.916C17.7865 12.929 17.8071 12.9424 17.8274 12.9562C17.8478 12.97 17.8679 12.9842 17.8878 12.9986C17.9076 13.0132 17.9272 13.0281 17.9465 13.0433C17.9658 13.0585 17.9848 13.0741 18.0035 13.09C18.0222 13.106 18.0406 13.1223 18.0587 13.1389C18.0769 13.1555 18.0947 13.1725 18.1122 13.1897C18.1296 13.207 18.1468 13.2246 18.1637 13.2425C18.1805 13.2605 18.197 13.2787 18.2132 13.2972C18.2294 13.3157 18.2452 13.3345 18.2607 13.3536C18.2762 13.3727 18.2913 13.3921 18.3061 13.4118C18.3208 13.4314 18.3352 13.4513 18.3493 13.4715C18.3633 13.4917 18.377 13.5121 18.3903 13.5329C18.4035 13.5535 18.4164 13.5744 18.4289 13.5956C18.4414 13.6168 18.4536 13.6382 18.4653 13.6598C18.477 13.6814 18.4883 13.7032 18.4992 13.7252C18.5101 13.7473 18.5207 13.7695 18.5308 13.7919C18.5408 13.8144 18.5505 13.8369 18.5598 13.8597C18.5691 13.8825 18.5779 13.9054 18.5863 13.9285C18.5948 13.9516 18.6028 13.9749 18.6103 13.9982C18.6179 14.0216 18.625 14.0452 18.6317 14.0688C18.6384 14.0925 18.6447 14.1163 18.6505 14.1402C18.6563 14.1641 18.6617 14.1881 18.6666 14.2121C18.6716 14.2362 18.676 14.2604 18.6801 14.2846C18.6842 14.3089 18.6877 14.3332 18.6909 14.3576C18.694 14.382 18.6967 14.4064 18.699 14.4309C18.7012 14.4554 18.703 14.4799 18.7044 14.5044C18.7057 14.529 18.7066 14.5536 18.7071 14.5781C18.7075 14.6027 18.7075 14.6273 18.707 14.6519C18.7057 14.669 18.7047 14.686 18.7042 14.7031C18.7036 14.7202 18.7036 14.7374 18.7039 14.7544C18.7042 14.7715 18.705 14.7886 18.7062 14.8057C18.7074 14.8228 18.709 14.8398 18.7111 14.8568C18.7132 14.8738 18.7157 14.8907 18.7186 14.9076C18.7215 14.9244 18.7248 14.9412 18.7286 14.9579C18.7324 14.9746 18.7366 14.9911 18.7412 15.0076C18.7458 15.0241 18.7508 15.0405 18.7562 15.0567C18.7617 15.0729 18.7675 15.089 18.7738 15.1049C18.78 15.1208 18.7866 15.1366 18.7937 15.1522C18.8007 15.1678 18.8082 15.1832 18.816 15.1984C18.8238 15.2136 18.832 15.2286 18.8406 15.2434C18.8492 15.2583 18.8581 15.2729 18.8674 15.2872C18.8767 15.3015 18.8864 15.3156 18.8965 15.3295C18.9065 15.3434 18.9169 15.357 18.9276 15.3703C18.9383 15.3836 18.9493 15.3967 18.9607 15.4095C18.9721 15.4223 18.9838 15.4347 18.9958 15.447C19.0078 15.4591 19.0201 15.471 19.0327 15.4826C19.0453 15.4941 19.0582 15.5054 19.0714 15.5163C19.0846 15.5272 19.098 15.5378 19.1117 15.548C19.1255 15.5583 19.1394 15.5681 19.1536 15.5776C19.1679 15.5872 19.1823 15.5963 19.1969 15.6051C19.2116 15.6139 19.2265 15.6224 19.2416 15.6304C19.2567 15.6385 19.272 15.6461 19.2875 15.6534C19.303 15.6606 19.3187 15.6675 19.3345 15.674C19.3503 15.6805 19.3663 15.6866 19.3825 15.6922C19.3986 15.6979 19.4149 15.7032 19.4313 15.708C19.4477 15.7129 19.4642 15.7173 19.4809 15.7213C19.4975 15.7253 19.5142 15.7289 19.531 15.7321C19.5478 15.7353 19.5647 15.738 19.5817 15.7403C19.5986 15.7426 19.6156 15.7445 19.6327 15.746C19.6497 15.7474 19.6668 15.7485 19.6839 15.749ZM8.36576 16.6297C8.33268 16.6305 8.2996 16.6306 8.26651 16.6298C8.23346 16.6291 8.20041 16.6275 8.16741 16.6251C8.13442 16.6227 8.10149 16.6195 8.06864 16.6155C8.0358 16.6114 8.00308 16.6066 7.97048 16.6009C7.93787 16.5953 7.90542 16.5888 7.87315 16.5816C7.84085 16.5743 7.80876 16.5663 7.77688 16.5574C7.745 16.5486 7.71336 16.539 7.68193 16.5286C7.65053 16.5182 7.6194 16.507 7.58854 16.4951C7.55769 16.4831 7.52713 16.4704 7.4969 16.457C7.46668 16.4435 7.43681 16.4293 7.40728 16.4144C7.37774 16.3995 7.3486 16.3838 7.31984 16.3674C7.29109 16.351 7.26276 16.334 7.23485 16.3162C7.20696 16.2984 7.17951 16.2799 7.1525 16.2608C7.12551 16.2417 7.09901 16.2219 7.07298 16.2014C7.04698 16.181 7.02148 16.1599 6.9965 16.1382C6.97153 16.1165 6.94711 16.0942 6.92323 16.0713C6.89937 16.0484 6.87608 16.0249 6.85337 16.0008C6.83067 15.9767 6.80857 15.9521 6.78708 15.927C6.76559 15.9018 6.74473 15.8761 6.72452 15.8499C6.70429 15.8238 6.68473 15.7971 6.66584 15.7699C6.64694 15.7428 6.62871 15.7152 6.61117 15.6871C6.59364 15.6591 6.57682 15.6306 6.5607 15.6017C6.54456 15.5728 6.52915 15.5435 6.51447 15.5138C6.49979 15.4842 6.48586 15.4542 6.47267 15.4239C6.45948 15.3935 6.44704 15.3629 6.43537 15.3319C6.42369 15.3009 6.41278 15.2697 6.40265 15.2382C6.39252 15.2067 6.38318 15.175 6.37462 15.143C6.36606 15.1111 6.35829 15.0789 6.35131 15.0465C6.34433 15.0142 6.33817 14.9817 6.33281 14.9491C6.32744 14.9164 6.32288 14.8836 6.31913 14.8508C6.3154 14.8179 6.31247 14.7849 6.31035 14.7519C6.30824 14.7189 6.30695 14.6858 6.30647 14.6528C6.30599 14.6197 6.30633 14.5866 6.30749 14.5535C6.30863 14.5205 6.31061 14.4875 6.31341 14.4545C6.3162 14.4215 6.3198 14.3886 6.32421 14.3558C6.32862 14.323 6.33385 14.2904 6.33988 14.2578C6.34592 14.2253 6.35275 14.193 6.36039 14.1607C6.36803 14.1286 6.37645 14.0966 6.38566 14.0648C6.39488 14.033 6.40488 14.0015 6.41564 13.9702C6.42643 13.9389 6.43798 13.9079 6.45029 13.8772C6.4626 13.8465 6.47567 13.8161 6.48948 13.786C6.50327 13.756 6.51782 13.7262 6.53312 13.6969C6.5484 13.6676 6.56439 13.6386 6.58109 13.61C6.59781 13.5815 6.61523 13.5534 6.63333 13.5257C6.65144 13.498 6.67021 13.4707 6.68966 13.444C6.70914 13.4172 6.72924 13.391 6.75 13.3652C6.77075 13.3394 6.79212 13.3142 6.81412 13.2894C6.83611 13.2647 6.85871 13.2406 6.88191 13.217C6.90511 13.1934 6.92888 13.1704 6.95322 13.148C6.97754 13.1255 7.00241 13.1037 7.02784 13.0825C7.05324 13.0614 7.07916 13.0408 7.10558 13.0209C7.13203 13.001 7.15894 12.9817 7.18631 12.9632C7.2137 12.9446 7.24153 12.9267 7.2698 12.9095C7.29805 12.8923 7.32673 12.8758 7.35582 12.86C7.3849 12.8442 7.41434 12.8292 7.44418 12.8149C7.47398 12.8005 7.50415 12.7869 7.53468 12.7741C7.56517 12.7613 7.59597 12.7492 7.62704 12.7379C7.65814 12.7266 7.68951 12.7161 7.72112 12.7063C7.75273 12.6966 7.78458 12.6876 7.81664 12.6794C7.8487 12.6712 7.88094 12.6638 7.91336 12.6572C7.94578 12.6506 7.97836 12.6449 8.01108 12.6399C8.04377 12.6349 8.07658 12.6308 8.10952 12.6274C8.14245 12.6241 8.17541 12.6215 8.20847 12.6198C8.24152 12.6181 8.27457 12.6172 8.30766 12.617C8.34074 12.617 8.37382 12.6177 8.40688 12.6192C8.43993 12.6208 8.47292 12.6232 8.50586 12.6263C8.53879 12.6296 8.57163 12.6336 8.60435 12.6383C8.63711 12.6432 8.66971 12.6487 8.70216 12.6552C8.73461 12.6616 8.76692 12.6688 8.79901 12.6768C8.8311 12.6848 8.86301 12.6937 8.89468 12.7033C8.92635 12.7128 8.95775 12.7232 8.9889 12.7343C9.02006 12.7455 9.05092 12.7574 9.08148 12.7701C9.11204 12.7828 9.14226 12.7962 9.17219 12.8103C9.20208 12.8245 9.23162 12.8394 9.26079 12.855C9.28993 12.8707 9.31869 12.887 9.34705 12.9041C9.37541 12.9211 9.40335 12.9389 9.43081 12.9573C9.45827 12.9757 9.48528 12.9948 9.51183 13.0146C9.53836 13.0344 9.56438 13.0548 9.58991 13.0759C9.61545 13.0969 9.64044 13.1186 9.66489 13.1408C9.68934 13.1632 9.71322 13.1861 9.73653 13.2095C9.75984 13.233 9.78258 13.257 9.80471 13.2816C9.82685 13.3062 9.84835 13.3313 9.86922 13.357C9.89013 13.3827 9.91037 13.4089 9.92995 13.4355C9.94953 13.4622 9.96848 13.4893 9.98673 13.5169C10.005 13.5445 10.0225 13.5725 10.0394 13.601C10.0563 13.6295 10.0724 13.6583 10.0878 13.6876C10.1033 13.7169 10.118 13.7465 10.1319 13.7765C10.1459 13.8065 10.1591 13.8368 10.1716 13.8674C10.1841 13.8981 10.1958 13.929 10.2067 13.9603C10.2177 13.9915 10.2278 14.023 10.2372 14.0547C10.2466 14.0865 10.2552 14.1184 10.263 14.1505C10.2708 14.1827 10.2778 14.215 10.284 14.2475C10.2902 14.28 10.2956 14.3127 10.3002 14.3454C10.3048 14.3782 10.3085 14.4111 10.3115 14.444C10.3145 14.477 10.3166 14.51 10.318 14.543C10.3193 14.5761 10.3198 14.6092 10.3195 14.6423C10.3195 14.6744 10.3187 14.7066 10.3172 14.7387C10.3156 14.7709 10.3133 14.803 10.3101 14.835C10.307 14.867 10.3031 14.8989 10.2985 14.9308C10.2938 14.9626 10.2884 14.9943 10.2822 15.0259C10.276 15.0575 10.269 15.0889 10.2613 15.1201C10.2535 15.1513 10.245 15.1824 10.2358 15.2132C10.2266 15.244 10.2166 15.2746 10.2059 15.3049C10.1951 15.3353 10.1837 15.3653 10.1715 15.3951C10.1593 15.4249 10.1464 15.4544 10.1328 15.4835C10.1192 15.5127 10.1049 15.5415 10.0899 15.5699C10.0749 15.5984 10.0592 15.6265 10.0428 15.6542C10.0264 15.6819 10.0093 15.7092 9.99163 15.736C9.97392 15.7629 9.95557 15.7893 9.9366 15.8153C9.91762 15.8413 9.89801 15.8668 9.87777 15.8918C9.85756 15.9168 9.83674 15.9413 9.8153 15.9654C9.79389 15.9894 9.7719 16.0129 9.74934 16.0358C9.72679 16.0587 9.70369 16.0811 9.68005 16.1029C9.65641 16.1248 9.63226 16.146 9.60756 16.1667C9.58287 16.1873 9.55773 16.2073 9.53207 16.2268C9.50642 16.2462 9.48031 16.265 9.45376 16.2832C9.4272 16.3013 9.40019 16.3189 9.37279 16.3357C9.34539 16.3525 9.31757 16.3687 9.28936 16.3842C9.26118 16.3997 9.23261 16.4145 9.20371 16.4286C9.1748 16.4427 9.14554 16.4561 9.11598 16.4688C9.08641 16.4815 9.05655 16.4935 9.02641 16.5047C8.99624 16.516 8.96584 16.5265 8.93519 16.5362C8.90454 16.546 8.87366 16.555 8.84256 16.5633C8.81146 16.5715 8.78018 16.579 8.74872 16.5858C8.71723 16.5925 8.68562 16.5985 8.65389 16.6037C8.62213 16.6089 8.59028 16.6134 8.55831 16.617C8.52634 16.6207 8.49428 16.6236 8.46219 16.6257C8.4301 16.6278 8.39795 16.6291 8.36576 16.6297ZM12.4801 12.2988C12.4471 12.2989 12.4142 12.2983 12.3813 12.2968C12.3483 12.2953 12.3154 12.293 12.2826 12.2899C12.2498 12.2869 12.217 12.283 12.1844 12.2782C12.1518 12.2736 12.1193 12.2681 12.0869 12.2618C12.0545 12.2554 12.0224 12.2483 11.9904 12.2405C11.9583 12.2326 11.9265 12.2239 11.895 12.2144C11.8633 12.205 11.832 12.1947 11.8009 12.1837C11.7699 12.1727 11.7391 12.1609 11.7086 12.1484C11.678 12.1359 11.6479 12.1226 11.618 12.1086C11.5882 12.0946 11.5587 12.0799 11.5296 12.0644C11.5004 12.0489 11.4717 12.0328 11.4434 12.0159C11.4151 11.999 11.3872 11.9814 11.3597 11.9632C11.3323 11.9449 11.3053 11.926 11.2788 11.9064C11.2522 11.8868 11.2262 11.8666 11.2007 11.8457C11.1751 11.8249 11.1502 11.8034 11.1257 11.7813C11.1012 11.7592 11.0773 11.7365 11.0539 11.7132C11.0306 11.6899 11.0078 11.6661 10.9857 11.6417C10.9635 11.6173 10.9419 11.5923 10.921 11.5669C10.9 11.5414 10.8797 11.5154 10.86 11.489C10.8404 11.4625 10.8214 11.4356 10.8031 11.4082C10.7847 11.3808 10.767 11.3529 10.7501 11.3246C10.7331 11.2964 10.7169 11.2677 10.7013 11.2386C10.6858 11.2096 10.6709 11.1801 10.6568 11.1503C10.6427 11.1205 10.6294 11.0904 10.6168 11.0599C10.6041 11.0294 10.5923 10.9987 10.5812 10.9676C10.5701 10.9366 10.5597 10.9053 10.5502 10.8737C10.5406 10.8422 10.5319 10.8104 10.5239 10.7784C10.5159 10.7464 10.5087 10.7143 10.5023 10.6819C10.4959 10.6496 10.4903 10.6171 10.4855 10.5844C10.4807 10.5518 10.4767 10.5191 10.4735 10.4863C10.4703 10.4535 10.4679 10.4206 10.4664 10.3877C10.4648 10.3547 10.464 10.3218 10.4641 10.2888C10.4641 10.2558 10.465 10.2229 10.4667 10.1899C10.4683 10.157 10.4708 10.1241 10.4741 10.0913C10.4774 10.0585 10.4815 10.0258 10.4864 9.99322C10.4913 9.96062 10.4971 9.92816 10.5036 9.8958C10.5101 9.8635 10.5174 9.83135 10.5255 9.79938C10.5336 9.76744 10.5425 9.73568 10.5521 9.70416C10.5618 9.67264 10.5722 9.64136 10.5834 9.61035C10.5947 9.57935 10.6066 9.54864 10.6193 9.5182C10.632 9.48777 10.6455 9.45769 10.6597 9.42792C10.6739 9.39817 10.6888 9.36879 10.7045 9.33976C10.7201 9.31074 10.7365 9.28212 10.7535 9.25391C10.7706 9.22568 10.7883 9.1979 10.8068 9.17057C10.8252 9.14322 10.8443 9.11635 10.864 9.08994C10.8838 9.06355 10.9042 9.03766 10.9252 9.01225C10.9462 8.98687 10.9679 8.96201 10.9902 8.93767C11.0124 8.91334 11.0353 8.88958 11.0587 8.86639C11.0821 8.84317 11.1061 8.82055 11.1306 8.79854C11.1552 8.77652 11.1803 8.75512 11.2059 8.73432C11.2315 8.71355 11.2576 8.69341 11.2841 8.6739C11.3107 8.65441 11.3378 8.63559 11.3653 8.61742C11.3928 8.59925 11.4208 8.58178 11.4491 8.565C11.4775 8.54822 11.5063 8.53214 11.5355 8.51676C11.5647 8.5014 11.5942 8.48676 11.6241 8.47285C11.654 8.45893 11.6842 8.44577 11.7147 8.43336C11.7453 8.42093 11.7761 8.40926 11.8073 8.39835C11.8384 8.38746 11.8698 8.37734 11.9014 8.36797C11.933 8.35861 11.9648 8.35004 11.9968 8.34226C12.0289 8.33448 12.0611 8.32748 12.0935 8.32127C12.1259 8.31507 12.1584 8.30967 12.191 8.30509C12.2237 8.30049 12.2564 8.2967 12.2893 8.29372C12.3221 8.29073 12.355 8.28856 12.3879 8.28722C12.4209 8.28586 12.4539 8.2853 12.4868 8.28557C12.5198 8.28583 12.5527 8.2869 12.5856 8.28878C12.6186 8.29067 12.6514 8.29336 12.6842 8.29687C12.717 8.30038 12.7497 8.3047 12.7823 8.30984C12.8148 8.31495 12.8473 8.32087 12.8795 8.32758C12.9118 8.3343 12.9439 8.34181 12.9758 8.35011C13.0077 8.35841 13.0394 8.36749 13.0709 8.37736C13.1023 8.38722 13.1335 8.39785 13.1645 8.40924C13.1954 8.42064 13.2261 8.4328 13.2564 8.44572C13.2868 8.45863 13.3168 8.47228 13.3464 8.48665C13.3761 8.50105 13.4054 8.51616 13.4343 8.53201C13.4632 8.54783 13.4917 8.56435 13.5199 8.5816C13.548 8.59884 13.5757 8.61677 13.6029 8.63538C13.6301 8.65398 13.6568 8.67324 13.6831 8.69315C13.7094 8.71308 13.7351 8.73364 13.7604 8.75484C13.7857 8.77603 13.8104 8.79782 13.8346 8.82022C13.8588 8.84264 13.8824 8.86563 13.9054 8.88921C13.9285 8.91279 13.951 8.93692 13.9728 8.96161C13.9947 8.98629 14.0159 9.01149 14.0366 9.03722C14.0572 9.06294 14.0771 9.08917 14.0965 9.11589C14.1158 9.1426 14.1345 9.16977 14.1524 9.1974C14.1704 9.22503 14.1877 9.25309 14.2043 9.28158C14.221 9.31008 14.2368 9.33895 14.252 9.36821C14.2672 9.39748 14.2817 9.4271 14.2954 9.45709C14.3091 9.48707 14.3221 9.51736 14.3343 9.54798C14.3465 9.57862 14.358 9.60954 14.3687 9.6407C14.3794 9.67192 14.3893 9.70335 14.3985 9.73502C14.4076 9.76669 14.416 9.79857 14.4236 9.83066C14.4312 9.86275 14.438 9.89499 14.444 9.92741C14.45 9.95986 14.4552 9.9924 14.4595 10.0251C14.4639 10.0578 14.4675 10.0905 14.4703 10.1234C14.4731 10.1563 14.475 10.1892 14.4762 10.2221C14.4773 10.2551 14.4777 10.288 14.4772 10.321C14.4769 10.3536 14.4759 10.3862 14.474 10.4188C14.4722 10.4514 14.4696 10.4839 14.4661 10.5163C14.4627 10.5488 14.4584 10.5811 14.4534 10.6133C14.4484 10.6456 14.4426 10.6777 14.4359 10.7096C14.4293 10.7416 14.4219 10.7733 14.4137 10.8049C14.4056 10.8365 14.3966 10.8679 14.3869 10.899C14.3772 10.9302 14.3667 10.9611 14.3555 10.9917C14.3442 11.0223 14.3322 11.0527 14.3195 11.0827C14.3067 11.1127 14.2933 11.1424 14.2791 11.1718C14.2648 11.2012 14.2499 11.2302 14.2343 11.2588C14.2187 11.2875 14.2023 11.3157 14.1853 11.3435C14.1683 11.3714 14.1506 11.3988 14.1322 11.4257C14.1139 11.4527 14.0949 11.4792 14.0752 11.5052C14.0555 11.5313 14.0352 11.5568 14.0142 11.5818C13.9933 11.6068 13.9718 11.6313 13.9496 11.6553C13.9275 11.6793 13.9048 11.7027 13.8815 11.7255C13.8582 11.7484 13.8343 11.7706 13.8099 11.7923C13.7856 11.814 13.7606 11.835 13.7352 11.8555C13.7098 11.8759 13.6839 11.8957 13.6575 11.9149C13.6311 11.9341 13.6042 11.9526 13.5769 11.9704C13.5496 11.9883 13.5219 12.0054 13.4937 12.0219C13.4655 12.0384 13.437 12.0542 13.4081 12.0693C13.3791 12.0843 13.3498 12.0987 13.3202 12.1123C13.2906 12.1259 13.2606 12.1388 13.2303 12.151C13.2 12.1631 13.1694 12.1745 13.1386 12.1852C13.1078 12.1959 13.0767 12.2058 13.0454 12.2148C13.014 12.224 12.9825 12.2323 12.9508 12.2399C12.9191 12.2475 12.8872 12.2542 12.8551 12.2602C12.823 12.2662 12.7908 12.2714 12.7585 12.2759C12.7261 12.2803 12.6937 12.2839 12.6612 12.2867C12.6287 12.2895 12.5962 12.2915 12.5635 12.2927C12.5309 12.2939 12.4983 12.2944 12.4657 12.2939L12.4801 12.2988ZM19.4674 16.7211C19.451 16.7201 19.4347 16.7196 19.4183 16.7194C19.4019 16.7192 19.3856 16.7195 19.3692 16.7202C19.3529 16.7209 19.3365 16.722 19.3202 16.7235C19.3039 16.7251 19.2877 16.727 19.2714 16.7293C19.2553 16.7317 19.2391 16.7344 19.2231 16.7376C19.207 16.7408 19.1911 16.7444 19.1752 16.7484C19.1593 16.7523 19.1435 16.7567 19.1279 16.7615C19.1122 16.7663 19.0967 16.7715 19.0813 16.7771C19.0659 16.7827 19.0507 16.7886 19.0356 16.795C19.0205 16.8014 19.0056 16.8081 18.9908 16.8153C18.9761 16.8224 18.9615 16.8299 18.9472 16.8377C18.9329 16.8456 18.9187 16.8538 18.9048 16.8624C18.8908 16.871 18.8771 16.8799 18.8636 16.8892C18.8501 16.8985 18.8369 16.9081 18.8239 16.9181C18.8109 16.9281 18.7982 16.9384 18.7858 16.9489C18.7733 16.9596 18.7611 16.9705 18.7492 16.9817C18.7373 16.993 18.7257 17.0045 18.7144 17.0163C18.703 17.0282 18.692 17.0403 18.6813 17.0526C18.6706 17.065 18.6602 17.0777 18.6502 17.0906C18.6401 17.1035 18.6304 17.1167 18.621 17.1301C18.6116 17.1435 18.6026 17.1572 18.5939 17.171C18.5852 17.1849 18.5769 17.199 18.5689 17.2133C18.5609 17.2276 18.5534 17.2421 18.5461 17.2568C18.5389 17.2715 18.532 17.2864 18.5256 17.3014C18.5191 17.3164 18.513 17.3316 18.5073 17.3469C18.5016 17.3623 18.4963 17.3778 18.4914 17.3934C18.4865 17.409 18.482 17.4248 18.4779 17.4406C18.4738 17.4565 18.4701 17.4724 18.4668 17.4884C18.4635 17.5045 18.4606 17.5206 18.4582 17.5368C18.4557 17.553 18.4537 17.5692 18.452 17.5855C18.4504 17.6018 18.4492 17.6181 18.4484 17.6344C18.4475 17.6508 18.4472 17.6671 18.4472 17.6835C18.447 17.6999 18.4473 17.7163 18.4479 17.7327C18.4485 17.7491 18.4496 17.7655 18.451 17.7818C18.4525 17.7982 18.4543 17.8145 18.4566 17.8308C18.4588 17.847 18.4615 17.8632 18.4645 17.8793C18.4676 17.8955 18.471 17.9115 18.4748 17.9274C18.4786 17.9434 18.4828 17.9593 18.4874 17.975C18.492 17.9908 18.497 18.0064 18.5024 18.0219C18.5077 18.0374 18.5135 18.0528 18.5196 18.068C18.5257 18.0833 18.5322 18.0983 18.539 18.1132C18.5459 18.1282 18.5531 18.1429 18.5607 18.1574C18.5682 18.172 18.5762 18.1864 18.5845 18.2005C18.5927 18.2147 18.6014 18.2287 18.6103 18.2424C18.6193 18.2562 18.6286 18.2697 18.6382 18.283C18.6478 18.2963 18.6578 18.3093 18.668 18.3222C18.6783 18.3349 18.6888 18.3475 18.6997 18.3598C18.7106 18.3721 18.7218 18.3841 18.7332 18.3958C18.7447 18.4076 18.7565 18.419 18.7685 18.4302C18.7805 18.4414 18.7928 18.4522 18.8054 18.4628C18.8179 18.4734 18.8307 18.4836 18.8438 18.4935C18.8569 18.5035 18.8701 18.5131 18.8836 18.5224C18.8972 18.5317 18.9109 18.5406 18.9249 18.5492C18.9389 18.5579 18.953 18.5661 18.9674 18.574C18.9818 18.582 18.9963 18.5895 19.0111 18.5967C19.0258 18.604 19.0407 18.6108 19.0558 18.6173C19.0709 18.6238 19.0861 18.6299 19.1015 18.6356C19.1169 18.6413 19.1324 18.6467 19.148 18.6517C19.1637 18.6566 19.1794 18.6612 19.1953 18.6654C19.2111 18.6696 19.2271 18.6734 19.2431 18.6768C19.2592 18.6803 19.2753 18.6833 19.2915 18.6859C19.3077 18.6886 19.324 18.6908 19.3403 18.6926C19.3566 18.6945 19.3729 18.6959 19.3893 18.697C19.4057 18.698 19.4221 18.6986 19.4385 18.6989C19.4544 18.6986 19.4703 18.698 19.4862 18.6969C19.502 18.6959 19.5179 18.6945 19.5337 18.6928C19.5495 18.691 19.5653 18.6889 19.581 18.6864C19.5967 18.6839 19.6124 18.681 19.6279 18.6778C19.6435 18.6746 19.659 18.671 19.6744 18.667C19.6899 18.663 19.7052 18.6587 19.7204 18.654C19.7356 18.6494 19.7507 18.6444 19.7657 18.639C19.7806 18.6336 19.7955 18.6279 19.8102 18.6218C19.8249 18.6157 19.8394 18.6093 19.8538 18.6026C19.8682 18.5958 19.8825 18.5888 19.8966 18.5813C19.9106 18.5739 19.9245 18.5662 19.9383 18.5581C19.952 18.55 19.9655 18.5417 19.9788 18.5329C19.9921 18.5242 20.0052 18.5152 20.0181 18.5059C20.031 18.4966 20.0437 18.487 20.0562 18.4771C20.0686 18.4672 20.0808 18.457 20.0928 18.4465C20.1048 18.436 20.1165 18.4253 20.1279 18.4142C20.1394 18.4032 20.1506 18.3919 20.1616 18.3804C20.1725 18.3688 20.1832 18.357 20.1936 18.345C20.2039 18.3329 20.2141 18.3206 20.2239 18.3081C20.2337 18.2956 20.2432 18.2828 20.2524 18.2698C20.2616 18.2569 20.2705 18.2437 20.2791 18.2303C20.2877 18.2169 20.296 18.2034 20.304 18.1896C20.312 18.1758 20.3196 18.1618 20.3269 18.1477C20.3342 18.1336 20.3412 18.1193 20.3479 18.1048C20.3545 18.0904 20.3608 18.0758 20.3667 18.061C20.3727 18.0462 20.3783 18.0314 20.3836 18.0164C20.3889 18.0013 20.3938 17.9862 20.3983 17.971C20.4029 17.9557 20.4071 17.9404 20.4109 17.9249C20.4148 17.9095 20.4182 17.894 20.4213 17.8784C20.4244 17.8628 20.4272 17.8471 20.4296 17.8314C20.432 17.8156 20.434 17.7998 20.4356 17.784C20.4372 17.7682 20.4385 17.7523 20.4394 17.7365C20.4398 17.7202 20.4398 17.7039 20.4394 17.6876C20.439 17.6714 20.4382 17.6551 20.437 17.6388C20.4358 17.6226 20.4342 17.6065 20.4322 17.5903C20.4302 17.5742 20.4278 17.5581 20.425 17.542C20.4222 17.526 20.419 17.51 20.4154 17.4941C20.4118 17.4782 20.4079 17.4624 20.4035 17.4468C20.3991 17.4311 20.3944 17.4155 20.3893 17.4001C20.3842 17.3846 20.3787 17.3693 20.3728 17.3541C20.3669 17.339 20.3606 17.3239 20.354 17.309C20.3474 17.2942 20.3404 17.2795 20.3331 17.265C20.3257 17.2504 20.318 17.2361 20.31 17.2219C20.3019 17.2078 20.2935 17.1938 20.2848 17.1801C20.2761 17.1664 20.267 17.1529 20.2576 17.1396C20.2482 17.1263 20.2384 17.1133 20.2284 17.1004C20.2184 17.0876 20.208 17.0751 20.1974 17.0628C20.1867 17.0505 20.1757 17.0384 20.1645 17.0267C20.1532 17.015 20.1417 17.0035 20.1298 16.9922C20.118 16.9811 20.1059 16.9702 20.0936 16.9596C20.0812 16.949 20.0686 16.9387 20.0557 16.9287C20.0429 16.9188 20.0298 16.9091 20.0164 16.8998C20.0031 16.8905 19.9895 16.8815 19.9757 16.8728C19.962 16.8642 19.948 16.8559 19.9338 16.8479C19.9196 16.8399 19.9052 16.8323 19.8906 16.825C19.8761 16.8177 19.8613 16.8109 19.8464 16.8043C19.8315 16.7978 19.8165 16.7916 19.8012 16.7858C19.786 16.78 19.7707 16.7746 19.7552 16.7696C19.7397 16.7645 19.7241 16.7599 19.7084 16.7556C19.6927 16.7513 19.6769 16.7475 19.661 16.744C19.6451 16.7405 19.6291 16.7374 19.6131 16.7347C19.597 16.732 19.5809 16.7297 19.5647 16.7278C19.5486 16.7258 19.5324 16.7243 19.5161 16.7232C19.4999 16.7221 19.4836 16.7214 19.4674 16.7211Z"></path></g></svg>