<svg xmlns="http://www.w3.org/2000/svg" xmlns:xlink="http://www.w3.org/1999/xlink" width="25" height="25" viewBox="0 0 25 25" fill="none"><g opacity="1"  transform="translate(0 0)"><path id="路径 1" fill-rule="evenodd" style="fill:#146AE4" opacity="1" d="M15.3538 11.2744L15.3538 13.8271L15.347 14.021C15.3439 14.0708 15.3396 14.1206 15.3342 14.1702C15.3287 14.2198 15.3221 14.2693 15.3143 14.3186C15.3065 14.3679 15.2976 14.417 15.2875 14.466C15.2774 14.5148 15.2661 14.5635 15.2537 14.6118C15.2414 14.6602 15.2278 14.7082 15.2131 14.756C15.1985 14.8037 15.1827 14.851 15.1658 14.898C15.1489 14.945 15.1309 14.9916 15.1118 15.0377C15.0927 15.0838 15.0726 15.1295 15.0514 15.1747C15.0301 15.2199 15.0078 15.2645 14.9845 15.3087C14.9611 15.3528 14.9367 15.3964 14.9113 15.4393C14.8859 15.4823 14.8596 15.5247 14.8322 15.5664C14.8048 15.6082 14.7764 15.6492 14.747 15.6896C14.7177 15.73 14.6874 15.7697 14.6562 15.8087C14.625 15.8477 14.5929 15.8859 14.5599 15.9234C14.5269 15.9608 14.493 15.9975 14.4583 16.0333C14.4236 16.0692 14.388 16.1042 14.3516 16.1384C14.3152 16.1726 14.278 16.2059 14.2401 16.2383C14.2021 16.2708 14.1634 16.3023 14.124 16.3329C14.0846 16.3635 14.0444 16.3932 14.0036 16.4219C13.9627 16.4506 13.9212 16.4784 13.8791 16.5051C13.8369 16.5319 13.7942 16.5576 13.7508 16.5824C13.7074 16.6071 13.6635 16.6308 13.619 16.6535C13.5746 16.6762 13.5296 16.6978 13.4841 16.7183C13.4385 16.7389 13.3926 16.7584 13.3462 16.7768C13.2998 16.7951 13.2529 16.8124 13.2057 16.8286C13.1585 16.8448 13.1109 16.8598 13.0629 16.8738C13.015 16.8877 12.9667 16.9005 12.9182 16.9121C12.8696 16.9238 12.8208 16.9343 12.7718 16.9437C12.7228 16.953 12.6735 16.9612 12.6241 16.9683C12.5747 16.9753 12.5251 16.9812 12.4754 16.9859C12.4257 16.9906 12.3759 16.9941 12.326 16.9965C12.2762 16.9988 12.2263 17 12.1763 17C12.1264 17 12.0765 16.9988 12.0266 16.9965C11.9767 16.9941 11.927 16.9906 11.8773 16.9859C11.8275 16.9812 11.778 16.9753 11.7286 16.9683C11.6791 16.9612 11.6299 16.953 11.5808 16.9437C11.5318 16.9343 11.483 16.9238 11.4345 16.9122C11.3859 16.9005 11.3377 16.8877 11.2897 16.8738C11.2418 16.8598 11.1942 16.8448 11.147 16.8286C11.0997 16.8124 11.0529 16.7951 11.0065 16.7768C10.9601 16.7584 10.9141 16.7389 10.8686 16.7183C10.8231 16.6978 10.7781 16.6762 10.7336 16.6535C10.6891 16.6309 10.6452 16.6071 10.6019 16.5824C10.5585 16.5576 10.5157 16.5319 10.4736 16.5051C10.4314 16.4784 10.3899 16.4506 10.3491 16.4219C10.3083 16.3932 10.2681 16.3635 10.2287 16.3329C10.1892 16.3023 10.1505 16.2708 10.1126 16.2384C10.0746 16.2059 10.0374 16.1726 10.001 16.1384C9.96465 16.1042 9.92908 16.0692 9.89436 16.0333C9.85962 15.9975 9.82576 15.9608 9.79275 15.9234C9.75974 15.8859 9.72761 15.8477 9.69641 15.8087C9.66521 15.7697 9.63496 15.73 9.60562 15.6896C9.57628 15.6492 9.54789 15.6082 9.5205 15.5664C9.4931 15.5247 9.46671 15.4823 9.44131 15.4393C9.41591 15.3964 9.39154 15.3528 9.36819 15.3087C9.34484 15.2645 9.32255 15.2199 9.3013 15.1747C9.28005 15.1295 9.25991 15.0838 9.24081 15.0377C9.22172 14.9916 9.20373 14.945 9.18684 14.898C9.16995 14.851 9.15417 14.8037 9.13951 14.756C9.12483 14.7082 9.11131 14.6602 9.09891 14.6118C9.08651 14.5635 9.07527 14.5148 9.06516 14.466C9.05505 14.417 9.04612 14.3679 9.03835 14.3186C9.03055 14.2693 9.02393 14.2198 9.01846 14.1702C9.01303 14.1206 9.00875 14.0708 9.00562 14.021L9 13.8271L9 11.2744L15.3538 11.2744L15.3538 11.2744ZM12.2161 12.4051C12.2064 12.4051 12.1967 12.4052 12.187 12.4056C12.1773 12.406 12.1676 12.4065 12.158 12.4073C12.1483 12.408 12.1386 12.409 12.129 12.4102C12.1194 12.4113 12.1098 12.4126 12.1002 12.4142C12.0906 12.4157 12.0811 12.4174 12.0716 12.4193C12.062 12.4213 12.0526 12.4234 12.0431 12.4257C12.0337 12.428 12.0243 12.4305 12.015 12.4332C12.0057 12.4358 11.9964 12.4387 11.9872 12.4418C11.978 12.4448 11.9689 12.448 11.9598 12.4515C11.9507 12.4549 11.9417 12.4585 11.9328 12.4623C11.9239 12.4661 11.915 12.4701 11.9062 12.4742C11.8975 12.4784 11.8888 12.4827 11.8802 12.4872C11.8716 12.4917 11.8631 12.4963 11.8546 12.5012C11.8462 12.506 11.8379 12.511 11.8298 12.5162C11.8215 12.5214 11.8134 12.5267 11.8054 12.5322C11.7974 12.5377 11.7896 12.5434 11.7818 12.5492C11.7741 12.555 11.7664 12.561 11.7589 12.5671C11.7514 12.5733 11.744 12.5795 11.7367 12.586C11.7294 12.5924 11.7223 12.599 11.7153 12.6057C11.7083 12.6124 11.7015 12.6193 11.6947 12.6263C11.688 12.6333 11.6814 12.6404 11.675 12.6476C11.6685 12.6549 11.6622 12.6623 11.6561 12.6698C11.65 12.6773 11.644 12.685 11.6382 12.6927C11.6323 12.7004 11.6267 12.7083 11.6211 12.7163C11.6156 12.7243 11.6103 12.7324 11.6051 12.7406C11.5999 12.7488 11.5949 12.7571 11.59 12.7655C11.5852 12.7739 11.5805 12.7824 11.576 12.791C11.5715 12.7996 11.5672 12.8083 11.563 12.817C11.5589 12.8258 11.5549 12.8346 11.5511 12.8436C11.5473 12.8525 11.5437 12.8615 11.5402 12.8706C11.5368 12.8796 11.5336 12.8888 11.5305 12.898C11.5274 12.9072 11.5246 12.9164 11.5219 12.9258C11.5192 12.9351 11.5167 12.9445 11.5143 12.9539C11.512 12.9633 11.5099 12.9728 11.508 12.9823C11.5061 12.9918 11.5043 13.0013 11.5028 13.0109C11.5012 13.0205 11.4999 13.0301 11.4987 13.0398C11.4976 13.0494 11.4966 13.059 11.4958 13.0687C11.4951 13.0784 11.4945 13.0881 11.4941 13.0977C11.4937 13.1074 11.4935 13.1172 11.4936 13.1268C11.4936 13.1365 11.4938 13.1463 11.4942 13.1559C11.4946 13.1656 11.4952 13.1753 11.496 13.185C11.4968 13.1947 11.4978 13.2043 11.499 13.2139C11.5002 13.2236 11.5016 13.2332 11.5032 13.2427C11.5047 13.2523 11.5065 13.2618 11.5085 13.2714C11.5104 13.2809 11.5126 13.2903 11.5149 13.2997C11.5173 13.3091 11.5198 13.3185 11.5225 13.3278C11.5252 13.3371 11.5282 13.3464 11.5312 13.3556C11.5343 13.3648 11.5376 13.3739 11.5411 13.383C11.5445 13.392 11.5482 13.401 11.552 13.4099C11.5558 13.4189 11.5599 13.4277 11.564 13.4364C11.5682 13.4452 11.5726 13.4538 11.5771 13.4624C11.5817 13.471 11.5864 13.4795 11.5912 13.4879C11.5961 13.4963 11.6011 13.5046 11.6064 13.5127C11.6116 13.5209 11.617 13.529 11.6225 13.537C11.628 13.5449 11.6337 13.5528 11.6396 13.5605C11.6455 13.5683 11.6514 13.5759 11.6576 13.5834C11.6638 13.5909 11.6701 13.5982 11.6766 13.6055C11.683 13.6127 11.6896 13.6198 11.6964 13.6268C11.7031 13.6337 11.71 13.6406 11.717 13.6473C11.724 13.654 11.7312 13.6605 11.7385 13.6669C11.7458 13.6733 11.7532 13.6796 11.7607 13.6857C11.7683 13.6918 11.7759 13.6977 11.7837 13.7035C11.7915 13.7093 11.7994 13.715 11.8074 13.7204C11.8154 13.7259 11.8235 13.7312 11.8317 13.7364L11.9225 13.7846L11.9225 15.0363C11.9222 15.0409 11.922 15.0456 11.9219 15.0502C11.9217 15.0548 11.9217 15.0594 11.9219 15.0641C11.922 15.0687 11.9222 15.0733 11.9225 15.078C11.9229 15.0826 11.9233 15.0872 11.9238 15.0918C11.9244 15.0964 11.9251 15.101 11.9258 15.1056C11.9266 15.1101 11.9275 15.1147 11.9284 15.1192C11.9294 15.1237 11.9306 15.1282 11.9317 15.1327C11.9329 15.1372 11.9343 15.1416 11.9357 15.146C11.9371 15.1504 11.9386 15.1548 11.9402 15.1592C11.9418 15.1635 11.9436 15.1678 11.9454 15.1721C11.9472 15.1763 11.9492 15.1805 11.9512 15.1847C11.9532 15.1889 11.9553 15.193 11.9576 15.197C11.9598 15.2011 11.9621 15.2051 11.9645 15.2091C11.967 15.213 11.9694 15.2169 11.972 15.2208C11.9746 15.2246 11.9774 15.2284 11.9801 15.2321C11.9829 15.2358 11.9858 15.2394 11.9887 15.243C11.9917 15.2466 11.9947 15.25 11.9979 15.2535C12.001 15.2569 12.0042 15.2602 12.0075 15.2635C12.0107 15.2668 12.0141 15.27 12.0175 15.2731C12.021 15.2762 12.0245 15.2792 12.0281 15.2822C12.0316 15.2851 12.0353 15.288 12.039 15.2907C12.0427 15.2935 12.0465 15.2962 12.0503 15.2988C12.0542 15.3014 12.0581 15.3039 12.0621 15.3062C12.066 15.3086 12.07 15.311 12.0741 15.3132C12.0782 15.3154 12.0823 15.3175 12.0865 15.3195C12.0907 15.3215 12.0949 15.3235 12.0991 15.3253C12.1034 15.3271 12.1077 15.3288 12.112 15.3304C12.1164 15.332 12.1208 15.3335 12.1252 15.3349C12.1296 15.3363 12.134 15.3376 12.1385 15.3388C12.143 15.3399 12.1475 15.341 12.152 15.342C12.1566 15.343 12.1611 15.3438 12.1657 15.3446C12.1703 15.3454 12.1749 15.346 12.1795 15.3465C12.184 15.3471 12.1887 15.3475 12.1933 15.3478C12.1979 15.3481 12.2025 15.3483 12.2072 15.3484C12.2118 15.3485 12.2164 15.3485 12.2211 15.3484C12.2257 15.3482 12.2304 15.348 12.235 15.3477C12.2396 15.3473 12.2442 15.3469 12.2488 15.3463C12.2534 15.3457 12.258 15.345 12.2626 15.3443C12.2671 15.3435 12.2716 15.3426 12.2762 15.3416C12.2807 15.3406 12.2852 15.3395 12.2897 15.3382C12.2941 15.337 12.2986 15.3357 12.303 15.3343C12.3074 15.3328 12.3118 15.3313 12.3161 15.3297C12.3204 15.328 12.3247 15.3263 12.329 15.3244C12.3332 15.3226 12.3374 15.3207 12.3416 15.3186C12.3458 15.3166 12.3499 15.3144 12.3539 15.3122C12.358 15.31 12.362 15.3076 12.3659 15.3052C12.3699 15.3028 12.3738 15.3002 12.3776 15.2976C12.3814 15.295 12.3852 15.2923 12.3889 15.2895C12.3926 15.2867 12.3962 15.2838 12.3997 15.2809C12.4033 15.2779 12.4068 15.2748 12.4102 15.2717C12.4136 15.2686 12.4169 15.2654 12.4202 15.2621C12.4235 15.2588 12.4266 15.2554 12.4297 15.252C12.4328 15.2485 12.4359 15.245 12.4388 15.2414C12.4417 15.2378 12.4446 15.2342 12.4473 15.2304C12.4501 15.2267 12.4527 15.2229 12.4553 15.2191C12.4579 15.2152 12.4604 15.2113 12.4628 15.2073C12.4652 15.2034 12.4674 15.1993 12.4696 15.1953C12.4718 15.1912 12.4739 15.187 12.4759 15.1829C12.4779 15.1787 12.4798 15.1745 12.4816 15.1702C12.4834 15.1659 12.4851 15.1616 12.4867 15.1573C12.4883 15.1529 12.4898 15.1485 12.4912 15.1441C12.4926 15.1397 12.4938 15.1352 12.495 15.1307C12.4962 15.1262 12.4972 15.1217 12.4982 15.1172C12.4992 15.1127 12.5 15.1081 12.5007 15.1035L12.5075 15.0363L12.5086 13.7846C12.5179 13.7804 12.5271 13.776 12.5362 13.7714C12.5453 13.7668 12.5543 13.7621 12.5632 13.7571C12.5721 13.7521 12.5809 13.747 12.5896 13.7416C12.5983 13.7363 12.6068 13.7308 12.6153 13.7251C12.6238 13.7194 12.6321 13.7135 12.6403 13.7075C12.6485 13.7014 12.6566 13.6952 12.6645 13.6888C12.6725 13.6824 12.6803 13.6758 12.6879 13.6691C12.6956 13.6624 12.7031 13.6555 12.7105 13.6485C12.7178 13.6414 12.725 13.6342 12.7321 13.6269C12.7392 13.6195 12.7461 13.612 12.7528 13.6044C12.7596 13.5967 12.7661 13.589 12.7726 13.581C12.779 13.5731 12.7852 13.5651 12.7913 13.5569C12.7974 13.5487 12.8033 13.5404 12.809 13.5319C12.8147 13.5235 12.8203 13.515 12.8257 13.5063C12.831 13.4976 12.8362 13.4888 12.8412 13.4799C12.8462 13.471 12.851 13.4621 12.8556 13.453C12.8602 13.4439 12.8646 13.4347 12.8688 13.4254C12.873 13.4161 12.877 13.4068 12.8809 13.3973C12.8847 13.3879 12.8883 13.3783 12.8917 13.3687C12.8951 13.3591 12.8983 13.3495 12.9014 13.3397C12.9044 13.33 12.9072 13.3202 12.9098 13.3103C12.9124 13.3005 12.9147 13.2905 12.9169 13.2806C12.9191 13.2706 12.921 13.2606 12.9228 13.2506C12.9246 13.2405 12.9261 13.2305 12.9274 13.2203C12.9287 13.2102 12.9298 13.2001 12.9307 13.19C12.9316 13.1798 12.9323 13.1696 12.9328 13.1594C12.9332 13.1493 12.9335 13.1391 12.9335 13.1289C12.9335 13.1187 12.9333 13.1085 12.9329 13.0983C12.9325 13.0881 12.9319 13.0779 12.9311 13.0678C12.9303 13.0576 12.9292 13.0475 12.9279 13.0374C12.9267 13.0273 12.9252 13.0172 12.9235 13.0071C12.9218 12.997 12.9199 12.987 12.9178 12.9771C12.9157 12.9671 12.9134 12.9572 12.9108 12.9473C12.9083 12.9374 12.9055 12.9276 12.9026 12.9179C12.8996 12.9081 12.8965 12.8984 12.8931 12.8888C12.8898 12.8792 12.8862 12.8696 12.8824 12.8601C12.8787 12.8507 12.8747 12.8413 12.8705 12.832C12.8664 12.8227 12.862 12.8134 12.8575 12.8043C12.8529 12.7952 12.8482 12.7862 12.8432 12.7773C12.8383 12.7684 12.8332 12.7595 12.8279 12.7508C12.8226 12.7422 12.8171 12.7336 12.8114 12.7251C12.8057 12.7166 12.7999 12.7083 12.7938 12.7001C12.7878 12.6918 12.7816 12.6837 12.7752 12.6758C12.7688 12.6678 12.7623 12.66 12.7556 12.6523C12.7489 12.6446 12.7421 12.6371 12.735 12.6297C12.728 12.6223 12.7208 12.6151 12.7135 12.608C12.7062 12.6009 12.6987 12.594 12.6911 12.5872C12.6835 12.5804 12.6757 12.5738 12.6678 12.5674C12.6599 12.561 12.6519 12.5547 12.6437 12.5486C12.6355 12.5425 12.6273 12.5366 12.6188 12.5308C12.6104 12.5251 12.6019 12.5195 12.5932 12.5141C12.5845 12.5087 12.5758 12.5035 12.5669 12.4985C12.558 12.4935 12.5491 12.4887 12.54 12.484C12.5309 12.4794 12.5217 12.4749 12.5125 12.4707C12.5032 12.4664 12.4938 12.4624 12.4844 12.4586C12.475 12.4547 12.4654 12.451 12.4559 12.4476C12.4463 12.4442 12.4366 12.4409 12.4269 12.4379C12.4171 12.4348 12.4073 12.432 12.3975 12.4294C12.3876 12.4268 12.3777 12.4244 12.3678 12.4222C12.3578 12.4199 12.3478 12.418 12.3378 12.4162C12.3277 12.4144 12.3177 12.4128 12.3076 12.4115C12.2975 12.4101 12.2873 12.409 12.2772 12.408C12.267 12.4071 12.2569 12.4064 12.2467 12.4059C12.2365 12.4054 12.2263 12.4052 12.2161 12.4051ZM12.1769 8.00113C13.3782 8.00113 14.3632 8.93125 14.4506 10.1101L14.4573 10.2804L14.4573 10.8071L13.3255 10.8071L13.3255 10.2804C13.3257 10.2615 13.3255 10.2426 13.3248 10.2237C13.3242 10.2048 13.323 10.1859 13.3215 10.1671C13.3199 10.1482 13.3179 10.1294 13.3154 10.1106C13.3129 10.0919 13.31 10.0732 13.3066 10.0546C13.3032 10.036 13.2994 10.0175 13.2952 9.99902C13.2909 9.98058 13.2862 9.96225 13.2811 9.94405C13.276 9.92585 13.2704 9.90778 13.2644 9.88984C13.2584 9.8719 13.252 9.85409 13.2452 9.83647C13.2383 9.81882 13.2311 9.80136 13.2234 9.78407C13.2157 9.76679 13.2076 9.74969 13.1991 9.73278C13.1907 9.71589 13.1818 9.69919 13.1725 9.68272C13.1632 9.66625 13.1535 9.64999 13.1434 9.63397C13.1334 9.61795 13.1229 9.60219 13.1121 9.58667C13.1013 9.57115 13.0901 9.55592 13.0785 9.54092C13.067 9.52592 13.0551 9.51124 13.0429 9.49682C13.0306 9.4824 13.018 9.4683 13.0051 9.45448C12.9922 9.44067 12.9789 9.42717 12.9653 9.41401C12.9518 9.40083 12.9379 9.38798 12.9237 9.37545C12.9095 9.36293 12.8951 9.35077 12.8803 9.33895C12.8655 9.3271 12.8505 9.31565 12.8352 9.30454C12.8198 9.29343 12.8043 9.28272 12.7885 9.27234C12.7726 9.26197 12.7566 9.25199 12.7403 9.2424C12.724 9.23281 12.7074 9.2236 12.6907 9.2148C12.674 9.206 12.657 9.19759 12.6399 9.18958C12.6227 9.1816 12.6054 9.17401 12.5879 9.16684C12.5704 9.15967 12.5527 9.15294 12.5349 9.14662C12.5171 9.14029 12.4991 9.1344 12.481 9.12891C12.4629 9.12345 12.4447 9.11843 12.4263 9.11384C12.4079 9.10924 12.3895 9.10507 12.371 9.10136C12.3524 9.09766 12.3338 9.09438 12.3151 9.09157C12.2964 9.08873 12.2776 9.08634 12.2588 9.08442C12.24 9.0825 12.2211 9.08103 12.2022 9.08001C12.1833 9.07899 12.1645 9.07841 12.1455 9.07828C12.1266 9.07815 12.1077 9.07849 12.0888 9.07925C12.0699 9.08004 12.051 9.08127 12.0322 9.08295C12.0134 9.08463 11.9946 9.08676 11.9758 9.08933C11.9571 9.09191 11.9384 9.09493 11.9198 9.09842C11.9012 9.10189 11.8827 9.1058 11.8643 9.11016C11.8459 9.11449 11.8276 9.1193 11.8094 9.12453C11.7912 9.12975 11.7732 9.13543 11.7553 9.14149C11.7374 9.14759 11.7196 9.1541 11.702 9.16106C11.6844 9.16799 11.667 9.17535 11.6498 9.18312C11.6325 9.1909 11.6155 9.19907 11.5986 9.20765C11.5818 9.21624 11.5651 9.22522 11.5487 9.2346C11.5323 9.24398 11.5161 9.25375 11.5001 9.26391C11.4841 9.27408 11.4684 9.28461 11.453 9.29551C11.4375 9.30641 11.4223 9.31767 11.4074 9.32931C11.3925 9.34094 11.3779 9.35292 11.3635 9.36524C11.3492 9.37756 11.3351 9.39024 11.3214 9.40324C11.3077 9.41624 11.2942 9.42956 11.2811 9.44319C11.268 9.45685 11.2552 9.47079 11.2428 9.48506C11.2304 9.49932 11.2183 9.51384 11.2065 9.52868C11.1948 9.54352 11.1834 9.55862 11.1724 9.57399C11.1614 9.58935 11.1507 9.60498 11.1404 9.62087C11.1302 9.63676 11.1203 9.65286 11.1108 9.66922C11.1013 9.68558 11.0922 9.70216 11.0834 9.71894C11.0747 9.73572 11.0664 9.75271 11.0585 9.76989C11.0506 9.78709 11.0431 9.80445 11.0361 9.822C11.029 9.83954 11.0223 9.85725 11.0161 9.8751C11.0099 9.89296 11.0041 9.91096 10.9987 9.9291C10.9934 9.94725 10.9884 9.96551 10.9839 9.98389C10.9794 10.0022 10.9754 10.0207 10.9718 10.0393C10.9682 10.0579 10.965 10.0765 10.9623 10.0952C10.9595 10.114 10.9573 10.1327 10.9555 10.1516L10.9487 10.2804L10.9487 10.8071L9.89649 10.8071L9.89649 10.2804L9.90322 10.1101C9.90587 10.0747 9.90936 10.0393 9.91367 10.004C9.91798 9.96874 9.9231 9.93357 9.92906 9.89853C9.93499 9.8635 9.94177 9.82862 9.94936 9.7939C9.95695 9.75918 9.96533 9.72464 9.97452 9.69031C9.98371 9.65598 9.99369 9.62189 10.0045 9.58804C10.0153 9.55418 10.0269 9.52059 10.0392 9.48726C10.0516 9.45393 10.0647 9.42092 10.0786 9.38822C10.0925 9.35552 10.1072 9.32314 10.1226 9.29112C10.138 9.2591 10.1542 9.22746 10.1711 9.1962C10.188 9.16492 10.2056 9.13406 10.2239 9.10362C10.2423 9.07318 10.2613 9.04319 10.2811 9.01364C10.3008 8.98409 10.3212 8.95502 10.3423 8.92642C10.3634 8.89781 10.3852 8.86974 10.4076 8.84216C10.43 8.81458 10.4531 8.78753 10.4767 8.76103C10.5004 8.73453 10.5247 8.70858 10.5496 8.68324C10.5745 8.65787 10.6 8.6331 10.626 8.60891C10.6521 8.58472 10.6787 8.56119 10.7058 8.53826C10.733 8.51533 10.7607 8.49303 10.7888 8.47139C10.817 8.44975 10.8457 8.42879 10.8749 8.40849C10.9041 8.38818 10.9337 8.36859 10.9638 8.34968C10.9939 8.33077 11.0244 8.31257 11.0553 8.29508C11.0863 8.27759 11.1176 8.26083 11.1493 8.24483C11.1811 8.22881 11.2131 8.21353 11.2456 8.199C11.278 8.18448 11.3108 8.17074 11.3438 8.15774C11.3769 8.14474 11.4103 8.13256 11.444 8.12113C11.4776 8.10971 11.5115 8.09907 11.5457 8.08922C11.5798 8.07937 11.6142 8.07034 11.6487 8.06209C11.6833 8.05387 11.7181 8.04644 11.753 8.03982C11.7879 8.03322 11.8229 8.02742 11.8581 8.02243C11.8933 8.01747 11.9286 8.01332 11.964 8.01001C11.9994 8.00667 12.0348 8.00418 12.0703 8.00252C12.1058 8.00084 12.1413 8 12.1769 8L12.1769 8.00113Z"></path><path id="路径 1" fill-rule="evenodd" style="fill:#153E8B" opacity="1" d="M20.8333 0C20.9015 0 20.9697 0.00167298 21.0378 0.00501895C21.1059 0.00836492 21.1739 0.0133798 21.2417 0.0200637C21.3096 0.0267476 21.3772 0.0350923 21.4447 0.0450979C21.5122 0.0551035 21.5793 0.0667581 21.6462 0.0800615C21.7131 0.093365 21.7796 0.108301 21.8458 0.12487C21.9119 0.141439 21.9776 0.159621 22.0428 0.179416C22.1081 0.19921 22.1728 0.220594 22.237 0.243567C22.3012 0.266538 22.3648 0.291074 22.4278 0.31717C22.4908 0.343267 22.5532 0.370891 22.6148 0.400046C22.6764 0.429202 22.7374 0.459851 22.7975 0.491995C22.8576 0.524141 22.9169 0.557742 22.9754 0.592798C23.0339 0.627854 23.0915 0.664326 23.1482 0.702212C23.2049 0.740095 23.2606 0.779348 23.3154 0.819971C23.3702 0.860591 23.4239 0.902532 23.4766 0.945791C23.5293 0.98905 23.581 1.03358 23.6315 1.07937C23.682 1.12517 23.7314 1.17217 23.7796 1.22039C23.8278 1.26861 23.8748 1.31798 23.9206 1.36851C23.9664 1.41903 24.0109 1.47065 24.0542 1.52336C24.0975 1.57608 24.1394 1.62982 24.18 1.68459C24.2207 1.73936 24.2599 1.7951 24.2978 1.85179C24.3357 1.90849 24.3721 1.96609 24.4072 2.02458C24.4421 2.08306 24.4758 2.14238 24.5081 2.20252C24.54 2.26266 24.5708 2.32355 24.5999 2.38519C24.6292 2.44683 24.6567 2.50916 24.6829 2.57217C24.709 2.63516 24.7334 2.69875 24.7563 2.76296C24.7793 2.82717 24.8008 2.89189 24.8206 2.95715C24.8403 3.02241 24.8586 3.08811 24.8752 3.15425C24.8916 3.22039 24.9065 3.28691 24.9199 3.35381C24.9333 3.42068 24.9448 3.48784 24.9548 3.5553C24.9648 3.62275 24.9734 3.69041 24.98 3.75828C24.9866 3.82612 24.9917 3.89412 24.9949 3.96223C24.9983 4.03032 25 4.09849 25 4.16667L25 20.8333C25 20.9015 24.9983 20.9697 24.9949 21.0378C24.9917 21.1059 24.9866 21.1739 24.98 21.2417C24.9734 21.3096 24.9648 21.3772 24.9548 21.4447C24.9448 21.5122 24.9333 21.5793 24.9199 21.6462C24.9065 21.7131 24.8916 21.7796 24.8752 21.8458C24.8586 21.9119 24.8403 21.9776 24.8206 22.0428C24.8008 22.1081 24.7793 22.1728 24.7563 22.237C24.7334 22.3012 24.709 22.3648 24.6829 22.4278C24.6567 22.4908 24.6292 22.5532 24.5999 22.6148C24.5708 22.6764 24.54 22.7374 24.5081 22.7975C24.4758 22.8576 24.4421 22.9169 24.4072 22.9754C24.3721 23.0339 24.3357 23.0915 24.2978 23.1482C24.2599 23.2049 24.2207 23.2606 24.18 23.3154C24.1394 23.3702 24.0975 23.4239 24.0542 23.4766C24.0109 23.5293 23.9664 23.581 23.9206 23.6315C23.8748 23.682 23.8278 23.7314 23.7796 23.7796C23.7314 23.8278 23.682 23.8748 23.6315 23.9206C23.581 23.9664 23.5293 24.0109 23.4766 24.0542C23.4239 24.0975 23.3702 24.1394 23.3154 24.18C23.2606 24.2207 23.2049 24.2599 23.1482 24.2978C23.0915 24.3357 23.0339 24.3721 22.9754 24.4072C22.9169 24.4421 22.8576 24.4758 22.7975 24.5081C22.7374 24.54 22.6764 24.5708 22.6148 24.5999C22.5532 24.6292 22.4908 24.6567 22.4278 24.6829C22.3648 24.709 22.3012 24.7334 22.237 24.7563C22.1728 24.7793 22.1081 24.8008 22.0428 24.8206C21.9776 24.8403 21.9119 24.8586 21.8458 24.8752C21.7796 24.8916 21.7131 24.9065 21.6462 24.9199C21.5793 24.9333 21.5122 24.9448 21.4447 24.9548C21.3772 24.9648 21.3096 24.9734 21.2417 24.98C21.1739 24.9866 21.1059 24.9917 21.0378 24.9949C20.9697 24.9983 20.9015 25 20.8333 25L4.16667 25C4.09849 25 4.03032 24.9983 3.96223 24.9949C3.89412 24.9917 3.82612 24.9866 3.75828 24.98C3.69041 24.9734 3.62275 24.9648 3.5553 24.9548C3.48784 24.9448 3.42068 24.9333 3.35381 24.9199C3.28691 24.9065 3.22039 24.8916 3.15425 24.8752C3.08811 24.8586 3.02241 24.8403 2.95715 24.8206C2.89189 24.8008 2.82717 24.7793 2.76296 24.7563C2.69875 24.7334 2.63516 24.709 2.57217 24.6829C2.50916 24.6567 2.44683 24.6292 2.38519 24.5999C2.32355 24.5708 2.26266 24.54 2.20252 24.5081C2.14238 24.4758 2.08306 24.4421 2.02458 24.4072C1.96609 24.3721 1.90849 24.3357 1.85179 24.2978C1.7951 24.2599 1.73936 24.2207 1.68459 24.18C1.62982 24.1394 1.57608 24.0975 1.52336 24.0542C1.47065 24.0109 1.41903 23.9664 1.36851 23.9206C1.31798 23.8748 1.26861 23.8278 1.22039 23.7796C1.17217 23.7314 1.12517 23.682 1.07937 23.6315C1.03358 23.581 0.98905 23.5293 0.945791 23.4766C0.902532 23.4239 0.860591 23.3702 0.819971 23.3154C0.779348 23.2606 0.740095 23.2049 0.702212 23.1482C0.664326 23.0915 0.627854 23.0339 0.592798 22.9754C0.557742 22.9169 0.524141 22.8576 0.491995 22.7975C0.459851 22.7374 0.429202 22.6764 0.400046 22.6148C0.370891 22.5532 0.343267 22.4908 0.31717 22.4278C0.291074 22.3648 0.266538 22.3012 0.243567 22.237C0.220594 22.1728 0.19921 22.1081 0.179416 22.0428C0.159621 21.9776 0.141439 21.9119 0.12487 21.8458C0.108301 21.7796 0.093365 21.7131 0.0800615 21.6462C0.0667581 21.5793 0.0551035 21.5122 0.0450979 21.4447C0.0350923 21.3772 0.0267476 21.3096 0.0200637 21.2417C0.0133798 21.1739 0.00836492 21.1059 0.00501895 21.0378C0.00167298 20.9697 2.96237e-14 20.9015 2.96237e-14 20.8333L2.96237e-14 4.16667C-8.12893e-09 4.09849 0.00167297 4.03032 0.00501892 3.96223C0.00836487 3.89412 0.0133798 3.82612 0.0200636 3.75828C0.0267476 3.69041 0.0350923 3.62275 0.0450979 3.5553C0.0551035 3.48784 0.0667581 3.42068 0.0800615 3.35381C0.0933647 3.28691 0.108301 3.22039 0.12487 3.15425C0.141439 3.08811 0.159621 3.02241 0.179416 2.95715C0.19921 2.89189 0.220594 2.82717 0.243567 2.76296C0.266538 2.69875 0.291072 2.63516 0.317168 2.57217C0.343264 2.50916 0.370891 2.44685 0.400046 2.38519C0.429202 2.32355 0.459851 2.26266 0.491995 2.20252C0.524141 2.14238 0.557742 2.08306 0.592798 2.02458C0.627854 1.96609 0.664326 1.90849 0.702212 1.85179C0.740095 1.7951 0.779348 1.73936 0.819971 1.68459C0.860591 1.62982 0.902532 1.57608 0.945791 1.52336C0.98905 1.47065 1.03358 1.41903 1.07937 1.36851C1.12517 1.31798 1.17217 1.26861 1.22039 1.22039C1.26861 1.17217 1.31798 1.12517 1.36851 1.07937C1.41903 1.03358 1.47065 0.98905 1.52336 0.945791C1.57608 0.902532 1.62982 0.860591 1.68459 0.819971C1.73936 0.779348 1.7951 0.740095 1.85179 0.702212C1.90849 0.664326 1.96609 0.627854 2.02458 0.592798C2.08306 0.557742 2.14238 0.524141 2.20252 0.491995C2.26266 0.459851 2.32355 0.429202 2.38519 0.400046C2.44685 0.370891 2.50916 0.343267 2.57217 0.31717C2.63516 0.291074 2.69875 0.266538 2.76296 0.243567C2.82717 0.220594 2.89189 0.19921 2.95715 0.179416C3.02241 0.159621 3.08811 0.141439 3.15425 0.12487C3.22039 0.108301 3.28691 0.093365 3.35381 0.0800615C3.42068 0.0667581 3.48784 0.0551035 3.5553 0.0450979C3.62275 0.0350923 3.69041 0.0267476 3.75828 0.0200637C3.82612 0.0133798 3.89412 0.00836492 3.96223 0.00501895C4.03032 0.00167298 4.09849 0 4.16667 0L20.8333 0ZM12.5 6.25C12.3788 6.25005 12.2577 6.25361 12.1367 6.26069C12.0157 6.2678 11.895 6.27839 11.7746 6.2925C11.6542 6.30659 11.5344 6.32419 11.415 6.34529C11.2957 6.36636 11.177 6.39089 11.0591 6.4189C10.9411 6.44688 10.8241 6.47827 10.708 6.51306C10.5919 6.54785 10.4769 6.58599 10.363 6.62747C10.2491 6.66895 10.1366 6.71372 10.0253 6.76174C9.91401 6.80979 9.80422 6.86101 9.69592 6.91543C9.58762 6.96985 9.48098 7.02739 9.37603 7.08801C9.27107 7.14863 9.16797 7.21226 9.06672 7.27888C8.96548 7.34551 8.86624 7.41501 8.76904 7.4874C8.67183 7.55979 8.57681 7.63496 8.48396 7.71289C8.39111 7.79082 8.30063 7.87139 8.2125 7.95457C8.12434 8.03774 8.0387 8.12344 7.95552 8.21162C7.87234 8.29978 7.79182 8.39031 7.71392 8.48315C7.63601 8.576 7.56089 8.67105 7.48853 8.76829C7.41616 8.86553 7.34668 8.96477 7.28008 9.06604C7.2135 9.16731 7.1499 9.27043 7.08931 9.37541C7.02871 9.48037 6.97122 9.58701 6.91682 9.69534C6.86243 9.80366 6.81123 9.91345 6.76323 10.0248C6.71523 10.1361 6.67051 10.2487 6.62905 10.3625C6.5876 10.4764 6.54949 10.5915 6.51472 10.7076C6.47998 10.8237 6.44861 10.9407 6.42065 11.0586C6.3927 11.1766 6.36821 11.2952 6.34717 11.4146C6.3261 11.534 6.30855 11.6538 6.29448 11.7742C6.2804 11.8946 6.26985 12.0153 6.26279 12.1363C6.25574 12.2573 6.2522 12.3784 6.2522 12.4996C6.25217 12.6208 6.25569 12.7419 6.26274 12.8629C6.26978 12.9839 6.28032 13.1046 6.29438 13.225C6.30845 13.3454 6.326 13.4653 6.34702 13.5846C6.36807 13.704 6.39255 13.8227 6.42048 13.9406C6.44844 14.0585 6.47976 14.1756 6.5145 14.2917C6.54924 14.4078 6.58735 14.5228 6.62878 14.6367C6.67021 14.7506 6.71494 14.8632 6.76292 14.9745C6.81091 15.0858 6.86211 15.1957 6.91648 15.304C6.97085 15.4123 7.02834 15.5189 7.08892 15.6239C7.14949 15.7289 7.21309 15.832 7.27966 15.9333C7.34624 16.0346 7.41572 16.1338 7.48806 16.2311C7.56042 16.3283 7.63555 16.4234 7.71343 16.5163C7.79133 16.6091 7.87185 16.6996 7.95498 16.7878C8.03813 16.876 8.12378 16.9617 8.21194 17.0449C8.30007 17.1281 8.39055 17.2087 8.48337 17.2866C8.5762 17.3646 8.67122 17.4397 8.76841 17.5121C8.8656 17.5845 8.96484 17.6541 9.06609 17.7207C9.16733 17.7873 9.27041 17.851 9.37537 17.9116C9.48032 17.9722 9.58694 18.0298 9.69524 18.0842C9.80352 18.1386 9.91331 18.1899 10.0246 18.2379C10.1359 18.286 10.2484 18.3308 10.3623 18.3723C10.4762 18.4138 10.5912 18.4519 10.7073 18.4867C10.8234 18.5215 10.9404 18.5529 11.0583 18.5809C11.1763 18.6089 11.2949 18.6335 11.4143 18.6546C11.5336 18.6757 11.6535 18.6933 11.7739 18.7074C11.8942 18.7216 12.0149 18.7322 12.1359 18.7393C12.2569 18.7464 12.378 18.7499 12.4992 18.75C12.6204 18.75 12.7415 18.7466 12.8625 18.7396C12.9835 18.7326 13.1042 18.7221 13.2246 18.7081C13.345 18.6941 13.4649 18.6766 13.5843 18.6556C13.7037 18.6346 13.8223 18.6102 13.9403 18.5823C14.0582 18.5544 14.1753 18.5231 14.2914 18.4884C14.4075 18.4537 14.5226 18.4157 14.6365 18.3743C14.7504 18.3329 14.863 18.2882 14.9744 18.2403C15.0857 18.1924 15.1955 18.1412 15.3039 18.0869C15.4122 18.0325 15.5189 17.9751 15.6239 17.9146C15.7289 17.854 15.8321 17.7905 15.9333 17.7239L16.175 17.5562L17.9875 18.0021L17.5615 16.1667C17.6034 16.1087 17.6444 16.0501 17.6844 15.9907C17.7243 15.9314 17.7633 15.8714 17.8012 15.8107C17.8391 15.75 17.8759 15.6887 17.9117 15.6267C17.9475 15.5648 17.9822 15.5022 18.0159 15.4391C18.0495 15.376 18.0821 15.3123 18.1135 15.248C18.145 15.1837 18.1753 15.1189 18.2046 15.0536C18.2338 14.9883 18.2619 14.9226 18.2889 14.8563C18.3158 14.79 18.3417 14.7233 18.3664 14.6562C18.391 14.589 18.4146 14.5214 18.4369 14.4535C18.4593 14.3855 18.4805 14.3172 18.5005 14.2485C18.5205 14.1798 18.5393 14.1108 18.557 14.0414C18.5746 13.9721 18.5911 13.9025 18.6063 13.8326C18.6216 13.7627 18.6356 13.6925 18.6485 13.6221C18.6613 13.5518 18.673 13.4812 18.6834 13.4104C18.6938 13.3396 18.703 13.2687 18.711 13.1976C18.719 13.1264 18.7258 13.0552 18.7313 12.9839C18.7368 12.9126 18.7411 12.8412 18.7442 12.7697C18.7473 12.6982 18.7492 12.6267 18.7498 12.5552C18.7504 12.4836 18.7499 12.4121 18.748 12.3405C18.7462 12.269 18.7431 12.1975 18.7389 12.1261C18.7346 12.0547 18.7291 11.9834 18.7223 11.9121C18.7156 11.8409 18.7077 11.7698 18.6985 11.6989C18.6893 11.6279 18.6789 11.5571 18.6673 11.4865C18.6557 11.4159 18.6429 11.3455 18.6289 11.2754C18.6149 11.2052 18.5997 11.1353 18.5833 11.0657C18.5668 10.996 18.5492 10.9267 18.5304 10.8577C18.5116 10.7886 18.4916 10.7199 18.4705 10.6516C18.4493 10.5833 18.427 10.5153 18.4035 10.4477C18.38 10.3801 18.3553 10.313 18.3295 10.2462C18.3037 10.1795 18.2768 10.1132 18.2487 10.0474C18.2207 9.98162 18.1915 9.91631 18.1611 9.85149C18.1308 9.78669 18.0994 9.72244 18.0669 9.65869C18.0344 9.59497 18.0007 9.53181 17.966 9.46924C17.9313 9.40666 17.8956 9.34473 17.8588 9.28337C17.8219 9.22202 17.7841 9.16133 17.7452 9.10129C17.7063 9.04126 17.6663 8.98188 17.6254 8.92322C17.5844 8.86455 17.5425 8.80659 17.4996 8.74936C17.4566 8.69211 17.4127 8.63564 17.3679 8.57991C17.323 8.52419 17.2771 8.46926 17.2304 8.41511C17.1836 8.36096 17.136 8.30762 17.0874 8.2551C17.0388 8.20259 16.9893 8.15093 16.9389 8.10012C16.8885 8.04932 16.8373 7.99937 16.7853 7.95032C16.7332 7.90127 16.6802 7.8531 16.6265 7.80586C16.5728 7.75862 16.5183 7.71233 16.4629 7.66697C16.4076 7.62161 16.3515 7.5772 16.2947 7.53376C16.2378 7.49033 16.1802 7.44788 16.1219 7.4064C16.0636 7.36494 16.0046 7.32449 15.9449 7.28506C15.8852 7.24563 15.8248 7.20723 15.7638 7.16987C15.7028 7.13249 15.6412 7.09619 15.5789 7.06096C15.5166 7.02571 15.4538 6.99153 15.3903 6.95845C15.3269 6.92537 15.2629 6.89338 15.1984 6.8625C15.1338 6.83162 15.0688 6.80183 15.0032 6.77317C14.9377 6.74453 14.8717 6.71699 14.8051 6.6906C14.7386 6.66421 14.6717 6.63899 14.6043 6.61489C14.537 6.5908 14.4692 6.56787 14.401 6.54612C14.3329 6.52437 14.2644 6.50376 14.1955 6.48435C14.1266 6.46494 14.0574 6.44673 13.988 6.42969C13.9185 6.41267 13.8487 6.39683 13.7787 6.3822C13.7086 6.36755 13.6384 6.35413 13.5679 6.34189C13.4974 6.32966 13.4267 6.31865 13.3558 6.30886C13.2849 6.29907 13.2139 6.29048 13.1427 6.28313C13.0716 6.27578 13.0003 6.26965 12.9289 6.26475C12.8575 6.25984 12.7861 6.25615 12.7146 6.25369C12.6431 6.25122 12.5716 6.25 12.5 6.25Z"></path></g></svg>