<svg xmlns="http://www.w3.org/2000/svg" xmlns:xlink="http://www.w3.org/1999/xlink" width="25.000244140625" height="26.7373046875" viewBox="0 0 25.000244140625 26.7373046875" fill="none"><g opacity="1"  transform="translate(0 0)"><path id="路径 1" fill-rule="evenodd" style="fill:#146AE4" opacity="1" d="M14.7666 20.4728L20.9161 20.4728C21.3452 20.4728 21.6914 20.1252 21.6914 19.6974L21.6914 16.5759C21.6914 14.453 19.9642 12.7258 17.8413 12.7258C15.7184 12.7258 13.9912 14.453 13.9912 16.5759L13.9912 19.6974C13.9899 20.1252 14.3374 20.4728 14.7666 20.4728ZM15.5419 16.5746C15.5419 15.3072 16.5726 14.2765 17.84 14.2765C19.1073 14.2765 20.138 15.3072 20.138 16.5746L20.138 18.9207L15.5406 18.9207L15.5406 16.5746L15.5419 16.5746ZM18.6167 11.7271L18.6167 10.3288C18.6167 9.89969 18.2691 9.55347 17.8413 9.55347C17.4122 9.55347 17.0659 9.90103 17.0659 10.3288L17.0659 11.7272C17.0659 12.1563 17.4135 12.5025 17.8413 12.5025C18.2691 12.5025 18.6167 12.1549 18.6167 11.7272L18.6167 11.7271ZM14.6756 12.7832C14.6799 12.7906 14.6842 12.7978 14.6887 12.805C14.6932 12.8122 14.6978 12.8193 14.7025 12.8263C14.7072 12.8334 14.7121 12.8403 14.717 12.8472C14.7219 12.8541 14.727 12.8609 14.7321 12.8676C14.7373 12.8743 14.7426 12.8809 14.7479 12.8875C14.7533 12.894 14.7588 12.9004 14.7644 12.9068C14.77 12.9132 14.7757 12.9194 14.7815 12.9256C14.7873 12.9318 14.7932 12.9379 14.7991 12.9439C14.8051 12.9498 14.8112 12.9557 14.8174 12.9615C14.8236 12.9673 14.8299 12.9729 14.8362 12.9785C14.8426 12.9841 14.8491 12.9896 14.8556 12.995C14.8622 13.0003 14.8688 13.0056 14.8755 13.0107C14.8823 13.0159 14.8891 13.0209 14.896 13.0258C14.9028 13.0308 14.9098 13.0356 14.9168 13.0403C14.9239 13.045 14.931 13.0496 14.9382 13.054C14.9454 13.0585 14.9526 13.0628 14.96 13.0671C14.9673 13.0713 14.9747 13.0754 14.9822 13.0794C14.9897 13.0834 14.9972 13.0872 15.0048 13.091C15.0124 13.0947 15.02 13.0983 15.0278 13.1018C15.0355 13.1053 15.0432 13.1087 15.0511 13.1119C15.0589 13.1151 15.0668 13.1182 15.0747 13.1213C15.0826 13.1242 15.0906 13.1271 15.0986 13.1298C15.1066 13.1325 15.1147 13.1351 15.1228 13.1375C15.1309 13.14 15.139 13.1423 15.1472 13.1445C15.1554 13.1467 15.1636 13.1487 15.1718 13.1507C15.1801 13.1526 15.1884 13.1544 15.1967 13.156C15.205 13.1577 15.2133 13.1592 15.2217 13.1606C15.23 13.1619 15.2384 13.1632 15.2468 13.1643C15.2552 13.1654 15.2636 13.1664 15.272 13.1672C15.2804 13.168 15.2889 13.1687 15.2973 13.1693C15.3058 13.1698 15.3142 13.1702 15.3227 13.1705C15.3311 13.1708 15.3396 13.1709 15.3481 13.1709C15.4791 13.1709 15.6128 13.1375 15.7358 13.0667C15.7467 13.0603 15.7576 13.0537 15.7683 13.0468C15.779 13.0399 15.7895 13.0328 15.7998 13.0255C15.8102 13.018 15.8203 13.0104 15.8303 13.0025C15.8402 12.9946 15.85 12.9865 15.8595 12.9781C15.8691 12.9698 15.8785 12.9612 15.8876 12.9523C15.8967 12.9435 15.9057 12.9345 15.9144 12.9252C15.923 12.9159 15.9315 12.9064 15.9397 12.8968C15.948 12.8871 15.9559 12.8772 15.9637 12.8671C15.9714 12.8571 15.9789 12.8468 15.9861 12.8364C15.9933 12.8259 16.0003 12.8153 16.007 12.8045C16.0137 12.7937 16.0202 12.7828 16.0264 12.7717C16.0326 12.7605 16.0384 12.7493 16.044 12.7379C16.0497 12.7265 16.055 12.715 16.0601 12.7033C16.0651 12.6917 16.0699 12.6799 16.0743 12.668C16.0788 12.6561 16.083 12.6441 16.0869 12.632C16.0908 12.6199 16.0943 12.6077 16.0976 12.5955C16.1009 12.5832 16.1039 12.5708 16.1066 12.5584C16.1092 12.546 16.1116 12.5335 16.1137 12.521C16.1157 12.5085 16.1175 12.4959 16.1189 12.4832C16.1203 12.4706 16.1215 12.458 16.1223 12.4453C16.1231 12.4326 16.1236 12.4199 16.1238 12.4072C16.124 12.3945 16.1239 12.3818 16.1234 12.3691C16.123 12.3564 16.1223 12.3437 16.1212 12.3311C16.1202 12.3184 16.1188 12.3058 16.1171 12.2932C16.1154 12.2806 16.1134 12.268 16.1111 12.2556C16.1089 12.243 16.1063 12.2306 16.1034 12.2183C16.1005 12.2059 16.0972 12.1936 16.0937 12.1814C16.0902 12.1692 16.0864 12.1571 16.0823 12.1451C16.0782 12.133 16.0738 12.1211 16.0691 12.1093C16.0644 12.0975 16.0594 12.0858 16.0541 12.0742C16.0489 12.0627 16.0433 12.0513 16.0375 12.04C16.0316 12.0287 16.0256 12.0175 16.0192 12.0066L15.32 10.7967C15.3137 10.7857 15.307 10.7748 15.3002 10.7641C15.2933 10.7535 15.2862 10.743 15.2788 10.7326C15.2714 10.7223 15.2638 10.7121 15.2559 10.7022C15.248 10.6922 15.2399 10.6825 15.2315 10.6729C15.2231 10.6633 15.2145 10.654 15.2057 10.6448C15.1969 10.6357 15.1878 10.6268 15.1786 10.6181C15.1693 10.6094 15.1598 10.6009 15.1501 10.5927C15.1404 10.5845 15.1306 10.5765 15.1205 10.5688C15.1104 10.5611 15.1001 10.5536 15.0897 10.5463C15.0793 10.5391 15.0686 10.5321 15.0578 10.5254C15.0471 10.5187 15.0361 10.5122 15.025 10.5061C15.0139 10.4999 15.0026 10.494 14.9913 10.4884C14.9799 10.4828 14.9683 10.4774 14.9567 10.4724C14.945 10.4673 14.9332 10.4626 14.9213 10.4581C14.9094 10.4536 14.8974 10.4495 14.8854 10.4456C14.8733 10.4417 14.8611 10.4381 14.8488 10.4349C14.8365 10.4316 14.8242 10.4286 14.8118 10.4259C14.7993 10.4232 14.7869 10.4209 14.7743 10.4188C14.7618 10.4167 14.7492 10.415 14.7366 10.4136C14.7239 10.4121 14.7113 10.411 14.6986 10.4102C14.686 10.4093 14.6732 10.4089 14.6605 10.4087C14.6478 10.4085 14.6351 10.4086 14.6224 10.409C14.6098 10.4095 14.5971 10.4102 14.5844 10.4113C14.5717 10.4123 14.5591 10.4137 14.5465 10.4154C14.5339 10.417 14.5214 10.419 14.5089 10.4213C14.4964 10.4236 14.484 10.4262 14.4716 10.4291C14.4592 10.432 14.4469 10.4352 14.4347 10.4387C14.4225 10.4422 14.4104 10.4461 14.3984 10.4502C14.3864 10.4543 14.3745 10.4587 14.3626 10.4634C14.3508 10.4681 14.3391 10.4731 14.3276 10.4783C14.316 10.4836 14.3046 10.4891 14.2933 10.495C14.282 10.5008 14.2709 10.5069 14.2599 10.5133C14.2489 10.5196 14.238 10.5262 14.2273 10.5331C14.2167 10.54 14.2061 10.5471 14.1958 10.5545C14.1855 10.5619 14.1753 10.5695 14.1654 10.5774C14.1554 10.5853 14.1457 10.5934 14.1361 10.6018C14.1265 10.6102 14.1172 10.6188 14.108 10.6276C14.0989 10.6364 14.09 10.6455 14.0813 10.6547C14.0726 10.664 14.0642 10.6735 14.0559 10.6832C14.0477 10.6928 14.0397 10.7027 14.032 10.7128C14.0243 10.7229 14.0168 10.7331 14.0095 10.7436C14.0023 10.754 13.9953 10.7646 13.9886 10.7754C13.9819 10.7862 13.9755 10.7972 13.9693 10.8083C13.9631 10.8194 13.9572 10.8306 13.9516 10.842C13.946 10.8534 13.9406 10.865 13.9356 10.8766C13.9305 10.8882 13.9258 10.9 13.9213 10.9119C13.9168 10.9238 13.9127 10.9358 13.9088 10.9479C13.9049 10.96 13.9013 10.9722 13.898 10.9845C13.8947 10.9968 13.8918 11.0091 13.8891 11.0215C13.8864 11.0339 13.884 11.0464 13.882 11.059C13.8799 11.0715 13.8782 11.0841 13.8768 11.0967C13.8753 11.1093 13.8742 11.122 13.8734 11.1346C13.8725 11.1473 13.872 11.16 13.8718 11.1727C13.8717 11.1854 13.8718 11.1981 13.8722 11.2108C13.8726 11.2235 13.8734 11.2362 13.8744 11.2489C13.8755 11.2615 13.8769 11.2742 13.8785 11.2867C13.8802 11.2993 13.8822 11.3119 13.8845 11.3244C13.8868 11.3369 13.8894 11.3493 13.8923 11.3617C13.8952 11.3741 13.8984 11.3863 13.9019 11.3986C13.9054 11.4108 13.9092 11.4229 13.9134 11.4349C13.9175 11.4469 13.9218 11.4588 13.9265 11.4706C13.9312 11.4824 13.9362 11.4941 13.9415 11.5057C13.9468 11.5172 13.9523 11.5287 13.9581 11.54C13.964 11.5512 13.9701 11.5624 13.9765 11.5734L14.6756 12.7832ZM14.1944 14.608C14.4083 14.2364 14.2813 13.7618 13.911 13.548L12.7011 12.8488C12.3308 12.6349 11.8549 12.7619 11.641 13.1322C11.4271 13.5038 11.5541 13.9784 11.9244 14.1923L13.1342 14.8915C13.1489 14.9 13.1638 14.908 13.1789 14.9156C13.1941 14.9231 13.2095 14.9301 13.2251 14.9366C13.2408 14.9431 13.2566 14.9491 13.2726 14.9546C13.2886 14.9601 13.3048 14.965 13.3211 14.9694C13.3375 14.9738 13.354 14.9776 13.3706 14.981C13.3872 14.9842 13.4039 14.987 13.4207 14.9892C13.4374 14.9914 13.4543 14.993 13.4712 14.9941C13.4881 14.9952 13.505 14.9958 13.5219 14.9957C13.5304 14.9957 13.5389 14.9956 13.5473 14.9953C13.5558 14.995 13.5643 14.9946 13.5727 14.9941C13.5812 14.9935 13.5896 14.9928 13.598 14.992C13.6065 14.9912 13.6149 14.9902 13.6232 14.9891C13.6316 14.988 13.64 14.9867 13.6484 14.9854C13.6567 14.984 13.6651 14.9825 13.6734 14.9808C13.6817 14.9792 13.6899 14.9774 13.6982 14.9755C13.7064 14.9735 13.7146 14.9715 13.7228 14.9693C13.731 14.9671 13.7391 14.9648 13.7472 14.9623C13.7553 14.9599 13.7634 14.9573 13.7714 14.9546C13.7794 14.9519 13.7874 14.949 13.7953 14.946C13.8033 14.943 13.8111 14.9399 13.819 14.9367C13.8268 14.9335 13.8346 14.9301 13.8423 14.9266C13.85 14.9231 13.8576 14.9195 13.8652 14.9158C13.8728 14.912 13.8804 14.9082 13.8878 14.9042C13.8953 14.9002 13.9027 14.8961 13.91 14.8919C13.9174 14.8876 13.9246 14.8833 13.9318 14.8788C13.939 14.8743 13.9461 14.8698 13.9532 14.8651C13.9602 14.8604 13.9672 14.8555 13.9741 14.8506C13.981 14.8457 13.9878 14.8407 13.9945 14.8355C14.0012 14.8304 14.0078 14.8251 14.0144 14.8197C14.0209 14.8144 14.0274 14.8089 14.0338 14.8033C14.0402 14.7977 14.0464 14.7921 14.0526 14.7863C14.0588 14.7805 14.0649 14.7746 14.0709 14.7687C14.0769 14.7626 14.0828 14.7566 14.0886 14.7504C14.0943 14.7442 14.1 14.738 14.1056 14.7316C14.1112 14.7252 14.1167 14.7188 14.1221 14.7123C14.1275 14.7057 14.1327 14.6991 14.1379 14.6924C14.1431 14.6857 14.1481 14.6789 14.153 14.672C14.158 14.6651 14.1628 14.6582 14.1675 14.6511C14.1722 14.6441 14.1768 14.637 14.1813 14.6298C14.1858 14.6226 14.1901 14.6154 14.1944 14.608ZM12.8535 15.9369L11.4565 15.9369C11.0274 15.9369 10.6812 16.2845 10.6812 16.7122C10.6812 17.14 11.0287 17.4876 11.4565 17.4876L12.8549 17.4876C13.284 17.4876 13.6302 17.14 13.6302 16.7122C13.6302 16.2845 13.2827 15.9369 12.8535 15.9369ZM24.2247 15.9369L22.8277 15.9369C22.3986 15.9369 22.0524 16.2845 22.0524 16.7122C22.0524 17.14 22.3999 17.4876 22.8277 17.4876L24.2247 17.4876C24.6539 17.4876 25.0001 17.14 25.0001 16.7122C25.0001 16.2845 24.6539 15.9369 24.2247 15.9369ZM22.9815 12.8488L21.7716 13.5479C21.7606 13.5542 21.7498 13.5609 21.7391 13.5677C21.7284 13.5746 21.7179 13.5817 21.7076 13.5891C21.6972 13.5965 21.6871 13.6042 21.6771 13.6121C21.6672 13.6199 21.6574 13.6281 21.6478 13.6364C21.6383 13.6448 21.6289 13.6534 21.6198 13.6622C21.6106 13.6711 21.6017 13.6801 21.5931 13.6894C21.5844 13.6986 21.5759 13.7081 21.5677 13.7178C21.5594 13.7275 21.5515 13.7374 21.5437 13.7474C21.536 13.7575 21.5285 13.7678 21.5213 13.7782C21.514 13.7887 21.507 13.7993 21.5003 13.8101C21.4936 13.8209 21.4872 13.8318 21.481 13.8429C21.4748 13.854 21.4689 13.8653 21.4633 13.8767C21.4577 13.888 21.4524 13.8996 21.4473 13.9113C21.4423 13.9229 21.4375 13.9347 21.433 13.9466C21.4286 13.9585 21.4244 13.9704 21.4205 13.9826C21.4166 13.9947 21.413 14.0068 21.4098 14.0191C21.4065 14.0314 21.4035 14.0437 21.4008 14.0562C21.3982 14.0686 21.3958 14.0811 21.3937 14.0936C21.3917 14.1061 21.3899 14.1187 21.3885 14.1313C21.387 14.144 21.3859 14.1566 21.3851 14.1693C21.3843 14.182 21.3838 14.1947 21.3836 14.2074C21.3834 14.2201 21.3835 14.2328 21.3839 14.2455C21.3843 14.2582 21.3851 14.2709 21.3862 14.2835C21.3872 14.2962 21.3886 14.3088 21.3903 14.3214C21.3919 14.334 21.3939 14.3465 21.3962 14.3591C21.3985 14.3715 21.4011 14.384 21.404 14.3963C21.4069 14.4087 21.4101 14.421 21.4137 14.4332C21.4172 14.4454 21.421 14.4575 21.4251 14.4696C21.4292 14.4816 21.4336 14.4935 21.4383 14.5053C21.443 14.5171 21.448 14.5288 21.4533 14.5404C21.4585 14.5519 21.464 14.5633 21.4699 14.5746C21.4757 14.5859 21.4818 14.5971 21.4882 14.608C21.4924 14.6154 21.4968 14.6226 21.5013 14.6298C21.5058 14.637 21.5104 14.6441 21.5151 14.6511C21.5198 14.6582 21.5246 14.6651 21.5296 14.672C21.5345 14.6789 21.5396 14.6857 21.5447 14.6924C21.5499 14.6991 21.5551 14.7057 21.5605 14.7123C21.5659 14.7188 21.5714 14.7253 21.577 14.7316C21.5826 14.738 21.5883 14.7442 21.594 14.7504C21.5998 14.7566 21.6057 14.7626 21.6117 14.7687C21.6177 14.7746 21.6238 14.7805 21.63 14.7863C21.6362 14.7921 21.6425 14.7977 21.6488 14.8033C21.6552 14.8089 21.6616 14.8144 21.6682 14.8197C21.6748 14.8251 21.6814 14.8304 21.6881 14.8355C21.6948 14.8407 21.7016 14.8457 21.7085 14.8506C21.7154 14.8555 21.7224 14.8604 21.7294 14.8651C21.7365 14.8698 21.7436 14.8743 21.7508 14.8788C21.758 14.8833 21.7652 14.8876 21.7726 14.8919C21.7799 14.8961 21.7873 14.9002 21.7948 14.9042C21.8022 14.9082 21.8098 14.912 21.8174 14.9158C21.825 14.9195 21.8326 14.9231 21.8403 14.9266C21.848 14.9301 21.8558 14.9335 21.8636 14.9367C21.8715 14.94 21.8794 14.9431 21.8873 14.946C21.8952 14.949 21.9031 14.9519 21.9112 14.9546C21.9192 14.9573 21.9273 14.9599 21.9354 14.9623C21.9435 14.9648 21.9516 14.9671 21.9598 14.9693C21.9679 14.9715 21.9762 14.9735 21.9844 14.9755C21.9927 14.9774 22.001 14.9792 22.0093 14.9808C22.0176 14.9825 22.0259 14.984 22.0342 14.9854C22.0426 14.9867 22.051 14.988 22.0594 14.9891C22.0677 14.9902 22.0762 14.9912 22.0846 14.992C22.093 14.9928 22.1015 14.9935 22.1099 14.9941C22.1183 14.9946 22.1268 14.995 22.1353 14.9953C22.1437 14.9956 22.1522 14.9957 22.1607 14.9957C22.2917 14.9957 22.4254 14.9623 22.5483 14.8915L23.7582 14.1923C23.7692 14.1859 23.7801 14.1793 23.7907 14.1725C23.8014 14.1656 23.8119 14.1584 23.8223 14.1511C23.8326 14.1437 23.8428 14.136 23.8527 14.1282C23.8627 14.1203 23.8724 14.1121 23.882 14.1038C23.8915 14.0954 23.9009 14.0868 23.91 14.078C23.9192 14.0691 23.9281 14.0601 23.9368 14.0508C23.9455 14.0415 23.9539 14.0321 23.9622 14.0224C23.9704 14.0127 23.9784 14.0029 23.9861 13.9928C23.9938 13.9827 24.0013 13.9724 24.0085 13.962C24.0158 13.9515 24.0228 13.9409 24.0295 13.9301C24.0362 13.9193 24.0426 13.9084 24.0488 13.8973C24.055 13.8862 24.0608 13.8749 24.0665 13.8636C24.0721 13.8521 24.0774 13.8406 24.0825 13.829C24.0875 13.8173 24.0923 13.8055 24.0968 13.7936C24.1012 13.7817 24.1054 13.7697 24.1093 13.7576C24.1132 13.7455 24.1168 13.7334 24.12 13.7211C24.1233 13.7088 24.1263 13.6965 24.129 13.684C24.1317 13.6716 24.134 13.6592 24.1361 13.6466C24.1381 13.6341 24.1399 13.6215 24.1413 13.6089C24.1428 13.5962 24.1439 13.5836 24.1447 13.5709C24.1455 13.5582 24.146 13.5455 24.1462 13.5328C24.1464 13.5201 24.1463 13.5074 24.1459 13.4947C24.1454 13.482 24.1447 13.4694 24.1436 13.4567C24.1426 13.444 24.1412 13.4314 24.1395 13.4188C24.1378 13.4062 24.1359 13.3937 24.1336 13.3812C24.1313 13.3687 24.1287 13.3562 24.1258 13.3439C24.1229 13.3315 24.1197 13.3192 24.1161 13.307C24.1126 13.2948 24.1088 13.2827 24.1047 13.2707C24.1006 13.2586 24.0962 13.2467 24.0915 13.2349C24.0868 13.2231 24.0818 13.2114 24.0766 13.1999C24.0713 13.1883 24.0657 13.1769 24.0599 13.1656C24.0541 13.1543 24.048 13.1432 24.0416 13.1322C23.8277 12.7619 23.3531 12.6349 22.9815 12.8488ZM20.3332 13.1709C20.3416 13.1709 20.3501 13.1708 20.3586 13.1706C20.3671 13.1703 20.3755 13.1699 20.384 13.1694C20.3924 13.1689 20.4008 13.1682 20.4093 13.1674C20.4177 13.1665 20.4261 13.1656 20.4345 13.1645C20.4429 13.1634 20.4513 13.1622 20.4597 13.1608C20.468 13.1595 20.4764 13.1579 20.4847 13.1563C20.493 13.1547 20.5013 13.1529 20.5095 13.151C20.5178 13.1491 20.526 13.147 20.5342 13.1449C20.5424 13.1427 20.5505 13.1404 20.5586 13.1379C20.5667 13.1355 20.5748 13.1329 20.5828 13.1302C20.5908 13.1274 20.5988 13.1246 20.6067 13.1216C20.6147 13.1187 20.6226 13.1156 20.6304 13.1123C20.6382 13.1091 20.646 13.1057 20.6537 13.1022C20.6614 13.0987 20.6691 13.0951 20.6767 13.0914C20.6843 13.0876 20.6918 13.0838 20.6993 13.0798C20.7068 13.0758 20.7142 13.0717 20.7215 13.0675C20.7288 13.0632 20.7361 13.0589 20.7433 13.0544C20.7505 13.0499 20.7576 13.0454 20.7647 13.0407C20.7717 13.036 20.7787 13.0311 20.7856 13.0262C20.7924 13.0213 20.7993 13.0162 20.806 13.0111C20.8127 13.0059 20.8193 13.0007 20.8259 12.9953C20.8324 12.9899 20.8389 12.9844 20.8452 12.9789C20.8516 12.9733 20.8579 12.9676 20.8641 12.9618C20.8703 12.956 20.8763 12.9501 20.8823 12.9441C20.8883 12.9381 20.8942 12.932 20.9 12.9259C20.9058 12.9197 20.9115 12.9134 20.917 12.907C20.9226 12.9007 20.9281 12.8942 20.9335 12.8876C20.9389 12.8811 20.9441 12.8745 20.9492 12.8677C20.9544 12.861 20.9595 12.8542 20.9644 12.8473C20.9693 12.8404 20.9741 12.8335 20.9788 12.8264C20.9835 12.8194 20.9881 12.8123 20.9926 12.8051C20.997 12.7978 21.0014 12.7906 21.0056 12.7832L21.7048 11.5734C21.9187 11.2018 21.7917 10.7272 21.4214 10.5133C21.0497 10.2994 20.5752 10.4264 20.3613 10.7967L19.6621 12.0065C19.4482 12.3782 19.5752 12.8528 19.9455 13.0667C19.9601 13.0751 19.975 13.0831 19.9902 13.0906C20.0054 13.0981 20.0208 13.1051 20.0364 13.1116C20.0521 13.1181 20.0679 13.1241 20.0839 13.1296C20.0999 13.135 20.1161 13.1399 20.1325 13.1443C20.1488 13.1487 20.1653 13.1526 20.1819 13.1559C20.1985 13.1592 20.2152 13.162 20.232 13.1642C20.2487 13.1664 20.2656 13.1681 20.2825 13.1692C20.2993 13.1703 20.3163 13.1709 20.3332 13.1709ZM22.7007 21.3538L12.9805 21.3538C12.5514 21.3538 12.2052 21.7014 12.2052 22.1292C12.2052 22.557 12.5527 22.9045 12.9805 22.9045L22.7007 22.9045C23.1299 22.9045 23.4761 22.557 23.4761 22.1292C23.4761 21.7014 23.1299 21.3538 22.7007 21.3538Z"></path><path id="路径 1" fill-rule="evenodd" style="fill:#153E8B" opacity="1" d="M13.4483 24.2548C12.9149 24.6251 12.3882 24.9192 11.8762 25.1304C9.05408 24.0128 6.53811 20.8766 4.90582 18.4034C3.27354 15.9316 2.18668 13.6215 1.93135 13.0654L1.81638 10.7245L4.36439 10.7245L7.38968 13.9036C7.53673 14.0587 7.74126 14.1442 7.95116 14.1442C7.98991 14.1442 8.02871 14.1415 8.06613 14.1362C8.08145 14.1339 8.0967 14.1311 8.11187 14.1279C8.12704 14.1247 8.14211 14.121 8.15704 14.1169C8.17201 14.1128 8.18681 14.1082 8.20148 14.1032C8.21616 14.0982 8.23068 14.0927 8.24501 14.0869C8.25937 14.081 8.27352 14.0747 8.28749 14.0679C8.30146 14.0612 8.31522 14.054 8.32875 14.0465C8.3423 14.0389 8.35559 14.031 8.36867 14.0226C8.38173 14.0143 8.39452 14.0055 8.40708 13.9964C8.41961 13.9873 8.43186 13.9778 8.44384 13.9679C8.4558 13.9581 8.46747 13.9479 8.47883 13.9373C8.49016 13.9268 8.50121 13.9159 8.51191 13.9047C8.52262 13.8935 8.53298 13.8819 8.54298 13.8701C8.55299 13.8582 8.56265 13.8461 8.57194 13.8337C8.58121 13.8213 8.59011 13.8086 8.59865 13.7956C8.60716 13.7827 8.61528 13.7695 8.62304 13.7561C8.63077 13.7426 8.63808 13.7289 8.645 13.7151L11.3815 8.21929L11.947 9.22458C11.9532 9.23565 11.9597 9.24656 11.9664 9.25735C11.9731 9.26811 11.9801 9.27868 11.9874 9.2891C11.9947 9.29949 12.0022 9.30973 12.01 9.3198C12.0177 9.32983 12.0257 9.33967 12.034 9.34934C12.0422 9.359 12.0507 9.36842 12.0594 9.37767C12.0681 9.38691 12.0771 9.39592 12.0862 9.40472C12.0954 9.41352 12.1047 9.42208 12.1143 9.43044C12.1239 9.43876 12.1337 9.44686 12.1437 9.45472C12.1536 9.46255 12.1638 9.47018 12.1741 9.47754C12.1845 9.48488 12.195 9.49198 12.2057 9.49882C12.2164 9.50566 12.2273 9.51224 12.2383 9.51856C12.2493 9.52485 12.2605 9.53088 12.2718 9.53665C12.2831 9.5424 12.2946 9.54786 12.3062 9.55308C12.3177 9.55825 12.3295 9.56316 12.3413 9.56778C12.3531 9.5724 12.3651 9.57673 12.3771 9.58075C12.3891 9.58477 12.4013 9.58851 12.4135 9.59196C12.4257 9.5954 12.438 9.59854 12.4504 9.60136C12.4628 9.60418 12.4752 9.60671 12.4877 9.60893C12.5002 9.61115 12.5128 9.61305 12.5254 9.61467C12.538 9.61627 12.5506 9.61754 12.5633 9.61854C12.5759 9.61953 12.5886 9.62018 12.6013 9.62055C12.614 9.62091 12.6267 9.62097 12.6394 9.6207C12.6521 9.62044 12.6648 9.61987 12.6774 9.61898C12.6901 9.61807 12.7027 9.61687 12.7153 9.61538C12.7279 9.61386 12.7405 9.61203 12.753 9.60992C12.7655 9.60778 12.778 9.60535 12.7904 9.60261C12.8028 9.59987 12.8151 9.59684 12.8274 9.5935C12.8396 9.59015 12.8518 9.5865 12.8639 9.58256C12.8759 9.57861 12.8879 9.57438 12.8998 9.56984C12.9116 9.5653 12.9234 9.56049 12.935 9.5554C12.9466 9.55028 12.9581 9.54488 12.9695 9.53921C12.9808 9.53355 12.992 9.52759 13.0031 9.52138C13.3761 9.31147 13.5098 8.83825 13.2999 8.46525L12.0165 6.18193C12.0122 6.17428 12.0078 6.16673 12.0032 6.15927C11.9986 6.15177 11.994 6.14436 11.9891 6.13705C11.9843 6.12971 11.9794 6.12248 11.9743 6.11532C11.9693 6.10814 11.9641 6.10107 11.9588 6.09409C11.9535 6.0871 11.9481 6.0802 11.9426 6.07342C11.937 6.0666 11.9314 6.05989 11.9256 6.05331C11.9199 6.04668 11.914 6.04018 11.908 6.03378C11.902 6.02736 11.896 6.02104 11.8898 6.01485C11.8836 6.00863 11.8773 6.00252 11.8709 5.99655C11.8645 5.99054 11.858 5.98464 11.8514 5.97889C11.8448 5.9731 11.8381 5.96743 11.8314 5.9619C11.8246 5.95634 11.8177 5.9509 11.8107 5.9456C11.8037 5.94028 11.7967 5.93508 11.7896 5.93002C11.7824 5.92492 11.7752 5.91996 11.7679 5.91513C11.7605 5.91028 11.7532 5.90558 11.7457 5.90101C11.7382 5.89641 11.7307 5.89197 11.7231 5.88764C11.7154 5.8833 11.7077 5.8791 11.7 5.87503C11.6922 5.87095 11.6844 5.86701 11.6765 5.86322C11.6686 5.85941 11.6606 5.85573 11.6526 5.85221C11.6446 5.84865 11.6365 5.84526 11.6284 5.842C11.6203 5.83873 11.6121 5.8356 11.6038 5.83262C11.5956 5.82962 11.5873 5.82677 11.5789 5.82408C11.5706 5.82137 11.5622 5.81878 11.5538 5.81638C11.5454 5.81395 11.5369 5.81168 11.5284 5.80954C11.5199 5.8074 11.5114 5.80539 11.5028 5.80356C11.4942 5.80168 11.4857 5.79998 11.477 5.79844C11.4684 5.79688 11.4598 5.79544 11.4511 5.79419C11.4424 5.79291 11.4337 5.79179 11.425 5.79082C11.4163 5.78983 11.4076 5.78902 11.3988 5.78834C11.3901 5.78766 11.3813 5.78711 11.3726 5.78675C11.3638 5.78636 11.355 5.78612 11.3463 5.78604C11.3375 5.78594 11.3288 5.78602 11.32 5.78622C11.3113 5.78643 11.3025 5.78677 11.2937 5.78729C11.285 5.78782 11.2762 5.78847 11.2675 5.78928C11.2588 5.79006 11.2501 5.79103 11.2414 5.79215C11.2327 5.79325 11.224 5.79448 11.2154 5.79589C11.2067 5.79727 11.1981 5.79881 11.1895 5.80051C11.1809 5.80218 11.1723 5.80403 11.1638 5.80602C11.1552 5.808 11.1467 5.81012 11.1383 5.81241C11.1298 5.81466 11.1213 5.81709 11.113 5.81965C11.1046 5.8222 11.0962 5.82489 11.0879 5.82774C11.0797 5.83056 11.0714 5.83354 11.0632 5.83667C11.055 5.83978 11.0469 5.84304 11.0388 5.84644C11.0307 5.84983 11.0227 5.85335 11.0147 5.85704C11.0068 5.86069 10.9989 5.8645 10.991 5.86845C10.9832 5.87236 10.9755 5.87644 10.9677 5.88064C10.96 5.88484 10.9524 5.88918 10.9449 5.89364C10.9373 5.89808 10.9299 5.90268 10.9225 5.9074C10.9151 5.9121 10.9078 5.91696 10.9005 5.92192C10.8933 5.92688 10.8862 5.93195 10.8791 5.93717C10.8721 5.94237 10.8651 5.94769 10.8582 5.95312C10.8514 5.95855 10.8446 5.96412 10.8379 5.96978C10.8312 5.97545 10.8246 5.98124 10.8181 5.98715C10.8116 5.99302 10.8053 5.99903 10.799 6.00516C10.7927 6.01127 10.7865 6.01749 10.7804 6.02381C10.7743 6.03012 10.7684 6.03655 10.7625 6.04307C10.7567 6.0496 10.751 6.05621 10.7453 6.06294C10.7397 6.06966 10.7342 6.07647 10.7288 6.08336C10.7234 6.09026 10.7181 6.09725 10.7129 6.10436C10.7078 6.11143 10.7027 6.11861 10.6978 6.12587C10.6929 6.13313 10.6881 6.14047 10.6834 6.14788C10.6788 6.1553 10.6742 6.16282 10.6698 6.17039C10.6654 6.17796 10.6611 6.18559 10.657 6.19332C10.6528 6.20104 10.6488 6.20883 10.6449 6.21668L7.75068 12.032L5.25876 9.41446C5.24973 9.405 5.24046 9.39576 5.23095 9.38678C5.22145 9.37777 5.21174 9.36902 5.20179 9.36054C5.19184 9.35203 5.18171 9.3438 5.17134 9.33581C5.16098 9.32782 5.15043 9.32009 5.1397 9.31262C5.12894 9.30516 5.118 9.29798 5.1069 9.29108C5.09581 9.28416 5.08453 9.27753 5.07306 9.27121C5.06163 9.26487 5.05003 9.25884 5.03828 9.25309C5.02653 9.24732 5.01465 9.24186 5.00262 9.23672C4.99061 9.23155 4.97846 9.22672 4.96619 9.22218C4.95392 9.21763 4.94154 9.21343 4.92906 9.20951C4.91658 9.2056 4.90402 9.20199 4.89136 9.1987C4.8787 9.19541 4.86595 9.19246 4.85313 9.18983C4.84031 9.18716 4.82744 9.18486 4.81452 9.18288C4.80159 9.1809 4.78864 9.17922 4.77561 9.17789C4.76258 9.17654 4.74955 9.17554 4.7365 9.17486C4.72342 9.17419 4.71036 9.17382 4.69728 9.17382L1.74017 9.17382L1.57841 5.90255L11.8828 1.61658L22.1873 5.90252L22.0669 8.34227C22.0455 8.77007 22.3758 9.13502 22.8035 9.1551C23.2327 9.17513 23.5963 8.84626 23.6163 8.41846L23.7634 5.43329C23.7639 5.42336 23.7642 5.41347 23.7643 5.40355C23.7644 5.39362 23.7643 5.38373 23.7641 5.37381C23.7638 5.36388 23.7633 5.35399 23.7627 5.34409C23.762 5.3342 23.7612 5.32433 23.7601 5.31446C23.7591 5.30459 23.7579 5.29474 23.7565 5.28493C23.7551 5.27511 23.7535 5.26532 23.7517 5.25558C23.7499 5.24581 23.748 5.23607 23.7458 5.22641C23.7436 5.21672 23.7413 5.20709 23.7388 5.19751C23.7363 5.1879 23.7336 5.17837 23.7307 5.16889C23.7278 5.15939 23.7247 5.14996 23.7215 5.14061C23.7182 5.13124 23.7148 5.12194 23.7112 5.1127C23.7076 5.10346 23.7038 5.09429 23.6998 5.08521C23.6959 5.07609 23.6918 5.06708 23.6874 5.05816C23.6831 5.04923 23.6787 5.04037 23.6741 5.0316C23.6694 5.02283 23.6646 5.01416 23.6596 5.00559C23.6547 4.997 23.6495 4.98852 23.6442 4.98014C23.6389 4.97176 23.6335 4.96348 23.6279 4.95531C23.6222 4.94711 23.6165 4.93904 23.6105 4.9311C23.6046 4.92314 23.5986 4.9153 23.5923 4.9076C23.5861 4.89987 23.5797 4.89227 23.5732 4.88481C23.5667 4.87731 23.5601 4.86995 23.5533 4.86274C23.5464 4.85551 23.5395 4.84843 23.5325 4.84149C23.5254 4.83452 23.5182 4.8277 23.5109 4.82102C23.5035 4.81433 23.4961 4.80778 23.4885 4.80141C23.4809 4.79501 23.4732 4.78877 23.4654 4.78266C23.4576 4.77655 23.4497 4.77062 23.4416 4.76483C23.4335 4.75901 23.4254 4.75337 23.4171 4.74788C23.4089 4.7424 23.4005 4.73707 23.3921 4.73193C23.3836 4.72676 23.375 4.72175 23.3664 4.71691C23.3577 4.71206 23.349 4.70741 23.3401 4.70292C23.3313 4.6984 23.3224 4.69407 23.3134 4.68992C23.3043 4.68574 23.2953 4.68177 23.2861 4.67796L12.181 0.0591607C12.1692 0.0542929 12.1573 0.0497165 12.1453 0.0454312C12.1333 0.0411462 12.1212 0.0371575 12.109 0.033465C12.0968 0.0297729 12.0845 0.0263814 12.0721 0.0232909C12.0597 0.0202003 12.0473 0.0174144 12.0348 0.014933C12.0223 0.0124516 12.0097 0.0102778 11.9971 0.00841157C11.9845 0.00654534 11.9719 0.00498888 11.9592 0.0037422C11.9465 0.00249556 11.9338 0.00156019 11.9211 0.000936116C11.9083 0.000312038 11.8956 0 11.8828 0C11.8701 0 11.8573 0.000312038 11.8446 0.000936116C11.8319 0.00156019 11.8192 0.00249556 11.8065 0.0037422C11.7938 0.00498888 11.7811 0.00654534 11.7685 0.00841157C11.7559 0.0102778 11.7434 0.0124516 11.7309 0.014933C11.7184 0.0174144 11.7059 0.0202003 11.6936 0.0232909C11.6812 0.0263814 11.6689 0.0297729 11.6567 0.033465C11.6445 0.0371575 11.6324 0.0411462 11.6204 0.0454312C11.6084 0.0497165 11.5965 0.0542929 11.5847 0.0591607L0.478185 4.67929C0.176086 4.80493 -0.015096 5.10706 0.000935928 5.43459L0.388626 13.2899C0.39262 13.3848 0.415363 13.4771 0.452779 13.5626C0.647983 14.0078 5.30422 24.49 11.6262 26.6945C11.7091 26.724 11.796 26.7373 11.8815 26.7373C11.9711 26.7373 12.062 26.7211 12.1475 26.6906C12.8641 26.4297 13.5994 26.0381 14.332 25.5301C14.6836 25.2854 14.7718 24.8015 14.5271 24.4499C14.5199 24.4395 14.5124 24.4292 14.5047 24.4191C14.497 24.409 14.4891 24.3991 14.4808 24.3895C14.4726 24.3798 14.4642 24.3703 14.4555 24.3611C14.4469 24.3518 14.438 24.3427 14.4288 24.3339C14.4197 24.325 14.4104 24.3164 14.4009 24.3081C14.3913 24.2997 14.3816 24.2915 14.3716 24.2837C14.3617 24.2758 14.3516 24.2681 14.3412 24.2607C14.3309 24.2533 14.3204 24.2462 14.3098 24.2393C14.2991 24.2324 14.2882 24.2258 14.2773 24.2195C14.2663 24.2131 14.2551 24.2071 14.2438 24.2013C14.2325 24.1955 14.2211 24.1899 14.2095 24.1847C14.198 24.1795 14.1863 24.1745 14.1745 24.1699C14.1627 24.1652 14.1507 24.1609 14.1387 24.1568C14.1267 24.1527 14.1146 24.1489 14.1024 24.1455C14.0902 24.142 14.0779 24.1388 14.0655 24.136C14.0531 24.1331 14.0407 24.1305 14.0282 24.1283C14.0157 24.126 14.0032 24.124 13.9906 24.1224C13.978 24.1208 13.9654 24.1194 13.9528 24.1184C13.9401 24.1174 13.9274 24.1167 13.9148 24.1163C13.9021 24.1159 13.8894 24.1158 13.8767 24.116C13.864 24.1162 13.8513 24.1168 13.8386 24.1176C13.826 24.1185 13.8133 24.1196 13.8007 24.1211C13.7881 24.1226 13.7756 24.1244 13.763 24.1265C13.7505 24.1286 13.738 24.131 13.7256 24.1337C13.7132 24.1364 13.7009 24.1394 13.6887 24.1427C13.6764 24.146 13.6642 24.1496 13.6522 24.1535C13.6401 24.1574 13.6281 24.1616 13.6162 24.1662C13.6044 24.1707 13.5926 24.1754 13.581 24.1805C13.5694 24.1856 13.5578 24.191 13.5465 24.1966C13.5351 24.2022 13.5239 24.2081 13.5128 24.2144C13.5017 24.2206 13.4908 24.227 13.48 24.2338C13.4693 24.2405 13.4587 24.2475 13.4483 24.2548L13.4483 24.2548ZM11.2675 5.78928C10.8972 5.57538 11.4553 5.42185 11.2414 5.79215C11.0275 6.16381 10.8451 5.58201 11.2154 5.79589"></path></g></svg>