<svg xmlns="http://www.w3.org/2000/svg" xmlns:xlink="http://www.w3.org/1999/xlink" width="25" height="19.70458984375" viewBox="0 0 25 19.70458984375" fill="none"><g opacity="1"  transform="translate(0 0)"><path id="路径 1" fill-rule="evenodd" style="fill:#153E8B" opacity="1" d="M23.2954 2.46307L23.2954 17.2415C23.2954 17.4941 23.1249 17.6836 22.8977 17.6205L20.9659 17.2415C18.1818 16.6731 15.3409 16.3573 12.5 16.3573C9.65905 16.3573 6.81817 16.6731 4.0909 17.1784L2.15908 17.5573C1.875 17.6205 1.70455 17.4941 1.70455 17.2415L1.70455 2.46307C1.70455 2.21046 1.875 2.02099 2.10227 2.08414L4.03406 2.46307C6.81817 3.03148 9.65905 3.34726 12.5 3.34726C15.3409 3.34726 18.1818 3.03148 20.909 2.52622L22.8409 2.14729C23.1249 2.08414 23.2954 2.21046 23.2954 2.46307ZM23.8636 0L23.6363 0L20.625 0.631548C17.9545 1.19995 15.2272 1.45259 12.5 1.45259C9.7727 1.45259 7.04543 1.19995 4.37497 0.631548L1.36363 0L1.13636 0C0.511363 0 0 0.568402 0 1.26312L0 18.4415C0 19.1362 0.511363 19.7046 1.13636 19.7046L1.36363 19.7046L4.37497 19.073C7.04543 18.5046 9.7727 18.252 12.5 18.252C15.2272 18.252 17.9545 18.5046 20.625 19.073L23.6363 19.7046L23.8636 19.7046C24.4886 19.7046 24.9999 19.1362 24.9999 18.4415L24.9999 1.26312C24.9999 0.568402 24.4886 0 23.8636 0Z"></path><path id="路径 2" fill-rule="evenodd" style="fill:#153E8B" opacity="1" d="M15.1709 8.90491L14.7164 8.90491L14.7164 9.97857L15.1709 9.97857C15.455 9.97857 15.6254 9.7891 15.6254 9.47331C15.6254 9.09437 15.455 8.90491 15.1709 8.90491ZM10.1709 8.90491L9.77319 8.90491L9.77319 11.1154L10.2277 11.1154C10.7959 11.1154 11.08 10.7364 11.08 10.0417C11.0232 9.28384 10.7391 8.90491 10.1709 8.90491Z"></path><path id="路径 3" fill-rule="evenodd" style="fill:#146AE4" opacity="1" d="M21.2495 4.23172C18.3518 4.80013 15.3973 5.11591 12.4996 5.11591C9.60185 5.11591 6.64732 4.80013 3.7496 4.23172L3.40869 4.16858L3.40869 15.284L3.7496 15.2208C6.64732 14.6524 9.54504 14.3367 12.4996 14.3367C15.3973 14.3367 18.3518 14.6524 21.2495 15.2208L21.5905 15.284L21.5905 4.16858L21.2495 4.23172ZM10.17 11.8104L9.37459 11.8104C9.1473 11.8104 9.03368 11.6841 9.03368 11.4315L9.03368 8.58947C9.03368 8.33686 9.1473 8.21054 9.37459 8.21054L10.1132 8.21054C11.1359 8.27371 11.7041 8.84211 11.7041 10.0421C11.7041 11.1789 11.1927 11.7473 10.17 11.8104ZM13.5791 11.8104L12.4428 11.8104C12.2155 11.8104 12.1019 11.6841 12.1019 11.3683L12.1019 8.58947C12.1019 8.33686 12.2155 8.21054 12.4428 8.21054C12.67 8.21054 12.7837 8.33686 12.7837 8.58947L12.7837 11.1157L13.5791 11.1157C13.8064 11.1157 13.92 11.242 13.92 11.4947C13.8632 11.6841 13.7496 11.8104 13.5791 11.8104ZM15.17 10.6105L14.6587 10.6105L14.6587 11.4315C14.6587 11.6841 14.545 11.8104 14.3178 11.8104C14.0905 11.8104 13.9769 11.6841 13.9769 11.4315L13.9769 8.58947C13.9769 8.33686 14.0905 8.21054 14.3178 8.21054L15.1132 8.21054C15.8518 8.27371 16.1928 8.65264 16.2496 9.41051C16.2496 10.1684 15.9087 10.5473 15.17 10.6105Z"></path></g></svg>