<svg xmlns="http://www.w3.org/2000/svg" xmlns:xlink="http://www.w3.org/1999/xlink" width="25" height="24.5263671875" viewBox="0 0 25 24.5263671875" fill="none"><g opacity="1"  transform="translate(0 0)"><path id="路径 1" fill-rule="evenodd" style="fill:#153E8B" opacity="1" d="M0 0L0 5.80211L1.78492 5.80211L1.78492 7.44029L23.1928 7.44029L23.1928 5.80211L24.9805 5.80211L24.9805 0L0 0ZM4.80898 4.04887L3.02684 4.04887L3.02684 2.29564L4.80898 2.29564L4.80898 4.04887ZM10.8293 4.04887L6.5939 4.04887L6.5939 2.29564L10.8293 2.29564L10.8293 4.04887ZM0 8.54154L0 14.3409L1.78492 14.3409L1.78492 15.9791L12.8731 15.9791L12.8731 10.7988L24.9777 10.7988L24.9777 8.54154L0 8.54154ZM4.80898 12.5904L3.02684 12.5904L3.02684 10.8372L4.80898 10.8372L4.80898 12.5904ZM10.8293 12.5904L6.5939 12.5904L6.5939 10.8372L10.8293 10.8372L10.8293 12.5904ZM0 17.0886L0 22.8879L1.78492 22.8879L1.78492 24.5261L12.8453 24.5261L12.8453 17.0886L0 17.0886ZM4.80898 21.1374L3.02684 21.1374L3.02684 19.3842L4.80898 19.3842L4.80898 21.1374ZM10.8293 21.1374L6.5939 21.1374L6.5939 19.3842L10.8293 19.3842L10.8293 21.1374ZM24.9694 16.4064L24.9694 16.4092L24.961 16.442C24.961 16.4448 24.961 16.4448 24.9582 16.4475C24.9555 16.4585 24.9499 16.4694 24.9471 16.4777C24.9471 16.4804 24.9443 16.4831 24.9443 16.4859C24.9387 16.4968 24.9332 16.5051 24.9276 16.516L24.9276 16.5188C24.922 16.5297 24.9137 16.5379 24.9081 16.5489C24.9053 16.5516 24.9053 16.5544 24.9025 16.5571C24.8942 16.5681 24.8858 16.5763 24.8775 16.5872C24.8691 16.5955 24.8608 16.6064 24.8496 16.6146L24.8413 16.6229L24.8107 16.653L24.8079 16.6557C24.7967 16.6639 24.7856 16.6749 24.7745 16.6831L24.7661 16.6913C24.755 16.7023 24.741 16.7105 24.7271 16.7187C24.7132 16.7269 24.6993 16.7379 24.6853 16.7461C24.6826 16.7489 24.677 16.7516 24.6742 16.7543C24.6603 16.7626 24.6436 16.7735 24.6297 16.7817L24.6269 16.7817C24.6102 16.79 24.5962 16.8009 24.5795 16.8091C24.5767 16.8119 24.5712 16.8146 24.5684 16.8146C24.5517 16.8228 24.535 16.8338 24.5155 16.842C24.5127 16.842 24.5099 16.8447 24.5099 16.8447C24.4932 16.853 24.4737 16.8612 24.457 16.8721C24.4542 16.8749 24.4487 16.8749 24.4459 16.8776C24.4264 16.8858 24.4041 16.8968 24.3846 16.905C24.3818 16.9078 24.3763 16.9078 24.3735 16.9105C24.3512 16.9187 24.3289 16.9297 24.3066 16.9379C24.3039 16.9379 24.3039 16.9406 24.3011 16.9406C24.276 16.9488 24.2537 16.9598 24.2287 16.968C24.2231 16.9708 24.2175 16.9708 24.2148 16.9735C24.1897 16.9845 24.1618 16.9927 24.134 17.0036C24.1284 17.0064 24.1256 17.0064 24.1201 17.0091C24.0922 17.0201 24.0616 17.0283 24.0338 17.0392C24.031 17.0392 24.0282 17.042 24.0254 17.042L23.9168 17.0749C23.914 17.0749 23.9112 17.0749 23.9112 17.0776C23.875 17.0886 23.8361 17.0995 23.7971 17.1105C23.7915 17.1132 23.7859 17.1132 23.7831 17.1159C23.7664 17.1214 23.7469 17.1269 23.7302 17.1296C23.7219 17.1324 23.7135 17.1351 23.7052 17.1351C23.6913 17.1379 23.6745 17.1433 23.6606 17.1461C23.6523 17.1488 23.6411 17.1516 23.6328 17.1543C23.6189 17.157 23.6021 17.1625 23.5882 17.1653C23.5799 17.168 23.5687 17.1707 23.5604 17.1735C23.5465 17.1762 23.5297 17.1817 23.513 17.1844C23.5047 17.1872 23.4935 17.1899 23.4852 17.1899C23.4546 17.1954 23.4267 17.2036 23.3961 17.2091C23.3933 17.2091 23.3877 17.2118 23.3849 17.2118C23.3571 17.2173 23.332 17.2228 23.3042 17.2283C23.2958 17.231 23.2875 17.231 23.2791 17.2337C23.2513 17.2392 23.2207 17.2447 23.1928 17.2502C23.19 17.2502 23.1872 17.2502 23.1845 17.2529C23.151 17.2584 23.1204 17.2666 23.087 17.2721C23.0786 17.2721 23.0731 17.2748 23.0647 17.2748C23.0202 17.2831 22.9756 17.2913 22.9283 17.2995C22.9227 17.2995 22.9144 17.3022 22.9088 17.3022C22.8614 17.3104 22.8141 17.3187 22.7668 17.3241C22.7612 17.3241 22.7556 17.3269 22.7473 17.3269C22.6999 17.3351 22.6498 17.3406 22.5997 17.3488C22.5941 17.3488 22.5886 17.3515 22.583 17.3515C22.5329 17.3598 22.48 17.3652 22.4298 17.3735C22.4215 17.3735 22.4103 17.3762 22.402 17.3762C22.3769 17.3789 22.3547 17.3817 22.3296 17.3844C22.3185 17.3871 22.3045 17.3871 22.2934 17.3899C22.2711 17.3926 22.2488 17.3954 22.2238 17.3981C22.2126 17.4008 22.2015 17.4008 22.1876 17.4036C22.1625 17.4063 22.1347 17.4091 22.1096 17.4118C22.1013 17.4118 22.0929 17.4145 22.0845 17.4145C22.0483 17.4173 22.0149 17.4228 21.9787 17.4255C21.9704 17.4255 21.962 17.4282 21.9537 17.4282L21.8701 17.4365C21.859 17.4365 21.8451 17.4392 21.8339 17.4392C21.8089 17.4419 21.7838 17.4447 21.7615 17.4447C21.7476 17.4447 21.7365 17.4474 21.7225 17.4474C21.6975 17.4501 21.6724 17.4529 21.6474 17.4529C21.6362 17.4529 21.6251 17.4556 21.6112 17.4556C21.575 17.4583 21.536 17.4611 21.4998 17.4638C21.4023 17.472 21.3076 17.4775 21.2102 17.483C21.2018 17.483 21.1907 17.483 21.1823 17.4857C21.1099 17.4912 21.0403 17.494 20.9679 17.4967C20.9596 17.4967 20.9484 17.4967 20.9401 17.4994L20.7229 17.5077L20.7034 17.5077C20.6004 17.5104 20.4973 17.5159 20.3971 17.5159L20.3804 17.5159C20.2857 17.5186 20.191 17.5186 20.0964 17.5214L19.7928 17.5214C19.7121 17.5214 19.6285 17.5214 19.5478 17.5186L19.5199 17.5186C19.4364 17.5159 19.3501 17.5159 19.2665 17.5131L19.2498 17.5131C19.1607 17.5104 19.0688 17.5077 18.9797 17.5049L18.9714 17.5049C18.8823 17.5022 18.796 17.4967 18.7096 17.4912L18.6846 17.4912C18.601 17.4857 18.5147 17.4803 18.4312 17.4748C18.4228 17.4748 18.4172 17.4748 18.4089 17.4721C18.3198 17.4666 18.2307 17.4584 18.1416 17.4529C18.1332 17.4529 18.1276 17.4529 18.1193 17.4502C18.0831 17.4474 18.0497 17.4447 18.0135 17.4419C17.9996 17.4419 17.9856 17.4392 17.9689 17.4392L17.8854 17.431C17.8687 17.4282 17.8548 17.4282 17.8381 17.4255C17.8102 17.4228 17.7796 17.42 17.7517 17.4173C17.7378 17.4145 17.7239 17.4145 17.71 17.4118C17.6738 17.4091 17.6403 17.4036 17.6041 17.4008C17.5958 17.4008 17.5902 17.3981 17.5819 17.3981C17.5401 17.3926 17.4956 17.3871 17.4538 17.3817C17.4426 17.3789 17.4287 17.3789 17.4176 17.3762C17.3869 17.3735 17.3563 17.368 17.3257 17.3652C17.3118 17.3625 17.2978 17.3625 17.2867 17.3598C17.2505 17.3543 17.2115 17.3488 17.1753 17.3433C17.1698 17.3433 17.1614 17.3406 17.1558 17.3406C17.1141 17.3351 17.0695 17.3269 17.0277 17.3214C17.0166 17.3187 17.0082 17.3187 16.9971 17.3159C16.9581 17.3104 16.9191 17.305 16.8829 17.2967C16.8746 17.294 16.8662 17.294 16.8579 17.2913C16.8133 17.2831 16.7716 17.2776 16.727 17.2694C16.7187 17.2666 16.7103 17.2666 16.7019 17.2639C16.6518 17.2557 16.6017 17.2447 16.5544 17.2365L16.5516 17.2365C16.5042 17.2283 16.4541 17.2173 16.4068 17.2063C16.3984 17.2036 16.3873 17.2036 16.3789 17.2009C16.3622 17.1981 16.3455 17.1926 16.3288 17.1899L16.287 17.1817C16.2703 17.179 16.2536 17.1735 16.2369 17.1707C16.223 17.168 16.2091 17.1652 16.1979 17.1625C16.1812 17.1598 16.1645 17.1543 16.1478 17.1515C16.1339 17.1488 16.1227 17.1461 16.1088 17.1433C16.0921 17.1378 16.0754 17.1351 16.0587 17.1296C16.0476 17.1269 16.0336 17.1241 16.0225 17.1214C16.0086 17.1187 15.9947 17.1132 15.9807 17.1104C15.9668 17.1077 15.9529 17.1022 15.9418 17.0995C15.9278 17.0967 15.9139 17.0913 15.9 17.0885C15.8861 17.0858 15.8749 17.0803 15.861 17.0776C15.8471 17.0748 15.8332 17.0693 15.8192 17.0666C15.8081 17.0639 15.7942 17.0584 15.783 17.0557C15.7691 17.0529 15.7552 17.0474 15.744 17.0447C15.7329 17.042 15.719 17.0365 15.7078 17.0337C15.6939 17.0283 15.6828 17.0255 15.6689 17.02C15.6577 17.0173 15.6466 17.0118 15.6327 17.0091C15.6187 17.0036 15.6076 17.0009 15.5965 16.9954C15.5853 16.9926 15.5742 16.9872 15.563 16.9844C15.5519 16.9789 15.538 16.9762 15.5268 16.9707C15.5157 16.968 15.5046 16.9625 15.4962 16.9598C15.4851 16.9543 15.4739 16.9516 15.46 16.9461C15.4489 16.9433 15.4405 16.9379 15.4294 16.9351C15.4182 16.9296 15.4071 16.9269 15.396 16.9214C15.3876 16.9187 15.3765 16.9132 15.3681 16.9105C15.357 16.905 15.3458 16.8995 15.3347 16.8968C15.3264 16.894 15.3152 16.8885 15.3069 16.8858C15.2957 16.8803 15.2846 16.8749 15.2762 16.8721C15.2679 16.8694 15.2595 16.8639 15.2512 16.8612C15.24 16.8557 15.2289 16.8502 15.2205 16.8447C15.2122 16.842 15.2038 16.8365 15.1955 16.8338C15.1843 16.8283 15.176 16.8228 15.1649 16.8173C15.1565 16.8146 15.1509 16.8091 15.1426 16.8064C15.1314 16.8009 15.1203 16.7954 15.1119 16.7899C15.1064 16.7872 15.1008 16.7844 15.0925 16.779C15.0813 16.7735 15.0702 16.7653 15.059 16.7598C15.0535 16.7571 15.0507 16.7543 15.0451 16.7516C15.0312 16.7434 15.0145 16.7324 15.0006 16.7214C14.8168 16.5954 14.7305 16.4694 14.7305 16.3434L14.7277 18.3213C14.7277 18.4473 14.814 18.5733 14.9978 18.6993C15.0117 18.7103 15.0256 18.7185 15.0423 18.7294C15.0479 18.7322 15.0535 18.7349 15.0563 18.7377C15.0674 18.7431 15.0785 18.7514 15.0897 18.7568C15.0952 18.7596 15.1036 18.7651 15.1092 18.7678C15.1175 18.7733 15.1287 18.7788 15.1398 18.7842C15.1481 18.7897 15.1565 18.7924 15.1621 18.7952C15.1704 18.8007 15.1816 18.8061 15.1927 18.8116C15.2011 18.8144 15.2094 18.8198 15.2178 18.8226C15.2289 18.8281 15.2373 18.8335 15.2484 18.8363C15.2567 18.839 15.2651 18.8445 15.2734 18.8472C15.2846 18.8527 15.2957 18.8582 15.3041 18.8609C15.3124 18.8637 15.3236 18.8692 15.3319 18.8719C15.3431 18.8774 15.3542 18.8801 15.3653 18.8856C15.3765 18.8911 15.3848 18.8938 15.396 18.8965C15.4071 18.902 15.4182 18.9048 15.4294 18.9102C15.4405 18.913 15.4517 18.9185 15.46 18.9212C15.4712 18.9267 15.4823 18.9294 15.4934 18.9349C15.5046 18.9376 15.5157 18.9431 15.5268 18.9459C15.538 18.9513 15.5519 18.9541 15.563 18.9596C15.5742 18.9623 15.5853 18.9678 15.5965 18.9705C15.6076 18.976 15.6215 18.9787 15.6327 18.9842C15.6438 18.9869 15.6549 18.9924 15.6689 18.9952C15.6828 19.0006 15.6939 19.0034 15.7078 19.0089C15.719 19.0116 15.7329 19.0171 15.744 19.0198C15.758 19.0226 15.7691 19.028 15.783 19.0308C15.7942 19.0335 15.8081 19.039 15.8192 19.0417C15.8332 19.0445 15.8471 19.05 15.861 19.0527C15.8749 19.0554 15.8861 19.0609 15.9 19.0637C15.9139 19.0664 15.9278 19.0719 15.9418 19.0746C15.9557 19.0773 15.9668 19.0828 15.9807 19.0856C15.9947 19.0883 16.0086 19.0938 16.0225 19.0966L16.0281 19.0966C16.0392 19.0993 16.0476 19.102 16.0587 19.1048C16.0754 19.1102 16.0921 19.113 16.1088 19.1185C16.1227 19.1212 16.1339 19.1239 16.1478 19.1267C16.1645 19.1294 16.1812 19.1349 16.1979 19.1376L16.2397 19.1459C16.2564 19.1486 16.2731 19.1541 16.2898 19.1568L16.3316 19.165C16.3483 19.1678 16.365 19.1733 16.3817 19.176C16.3873 19.176 16.3901 19.1787 16.3956 19.1787C16.4012 19.1787 16.4068 19.1815 16.4096 19.1815C16.4569 19.1924 16.5042 19.2007 16.5544 19.2116L16.5571 19.2116C16.6045 19.2198 16.6546 19.2308 16.7047 19.239C16.7103 19.239 16.7159 19.2417 16.7214 19.2417C16.7242 19.2417 16.7298 19.2417 16.7326 19.2445C16.7743 19.2527 16.8189 19.2609 16.8634 19.2664C16.8718 19.2691 16.8802 19.2691 16.8913 19.2718C16.9303 19.2773 16.9665 19.2828 17.0055 19.291C17.011 19.291 17.0194 19.2938 17.025 19.2938C17.0277 19.2938 17.0333 19.2938 17.0361 19.2965C17.0779 19.302 17.1196 19.3102 17.1642 19.3157C17.1698 19.3157 17.1781 19.3184 17.1837 19.3184C17.2199 19.3239 17.2589 19.3294 17.2951 19.3349C17.3006 19.3349 17.3062 19.3376 17.3146 19.3376C17.3229 19.3376 17.3285 19.3403 17.3368 19.3403C17.3675 19.3431 17.3981 19.3486 17.4287 19.3513C17.4399 19.354 17.4538 19.354 17.4649 19.3568C17.5067 19.3622 17.5512 19.3677 17.593 19.3732L17.5958 19.3732C17.6014 19.3732 17.6097 19.3759 17.6153 19.3759C17.6487 19.3787 17.6849 19.3842 17.7183 19.3869C17.7322 19.3896 17.7462 19.3896 17.7629 19.3924C17.7907 19.3951 17.8213 19.3979 17.8492 19.4006C17.8575 19.4006 17.8659 19.4033 17.8743 19.4033C17.8826 19.4033 17.8882 19.4061 17.8965 19.4061L17.9801 19.4143C17.994 19.4143 18.0107 19.417 18.0246 19.417C18.0608 19.4198 18.0942 19.4225 18.1304 19.4253C18.136 19.4253 18.1444 19.4253 18.1499 19.428L18.1527 19.428C18.2418 19.4362 18.3281 19.4417 18.42 19.4472L18.4423 19.4472C18.5258 19.4527 18.6094 19.4581 18.6957 19.4636L18.7208 19.4636C18.8071 19.4691 18.8934 19.4718 18.9825 19.4773L18.9909 19.4773C19.08 19.48 19.1691 19.4828 19.261 19.4855L19.2777 19.4855C19.3612 19.4883 19.4448 19.491 19.5311 19.491L19.5589 19.491C19.6397 19.491 19.7232 19.4937 19.804 19.4937L20.1047 19.4937C20.1994 19.4937 20.2941 19.491 20.3887 19.4883L20.4054 19.4883L20.7117 19.48L20.7312 19.48L20.9484 19.4718C20.9596 19.4718 20.9679 19.4718 20.9791 19.4691C21.0515 19.4663 21.1211 19.4609 21.1935 19.4581L21.2213 19.4581C21.3188 19.4527 21.4135 19.4444 21.5109 19.439C21.5499 19.4362 21.5861 19.4335 21.6223 19.4307C21.6334 19.4307 21.6446 19.428 21.6585 19.428C21.6836 19.4253 21.7086 19.4225 21.7337 19.4225C21.7476 19.4225 21.7587 19.4198 21.7727 19.4198C21.7977 19.417 21.82 19.4143 21.8451 19.4143C21.859 19.4143 21.8701 19.4116 21.8841 19.4116C21.9119 19.4088 21.9397 19.4061 21.9648 19.4033C21.9732 19.4033 21.9815 19.4006 21.9899 19.4006C22.0261 19.3979 22.0595 19.3924 22.0957 19.3896C22.104 19.3896 22.1124 19.3869 22.1235 19.3869C22.1486 19.3842 22.1764 19.3814 22.2015 19.3787C22.2126 19.3759 22.2266 19.3759 22.2377 19.3732C22.26 19.3705 22.2823 19.3677 22.3073 19.365C22.3185 19.3622 22.3324 19.3622 22.3435 19.3595C22.3658 19.3568 22.3909 19.354 22.4131 19.3513C22.4215 19.3513 22.4298 19.3486 22.4354 19.3486L22.441 19.3486C22.4939 19.3403 22.544 19.3349 22.5941 19.3266C22.5997 19.3266 22.6053 19.3239 22.6108 19.3239C22.661 19.3157 22.7111 19.3102 22.7584 19.302C22.764 19.302 22.7696 19.2992 22.7779 19.2992C22.8252 19.291 22.8726 19.2828 22.9199 19.2773C22.9255 19.2773 22.9311 19.2746 22.9394 19.2746C22.9868 19.2664 23.0313 19.2582 23.0759 19.2499C23.0786 19.2499 23.0842 19.2499 23.087 19.2472C23.0898 19.2472 23.0954 19.2445 23.0981 19.2445C23.1316 19.239 23.165 19.2335 23.1956 19.2253C23.1984 19.2253 23.2012 19.2253 23.204 19.2225C23.2346 19.2171 23.2624 19.2116 23.2931 19.2061C23.3014 19.2034 23.3098 19.2034 23.3181 19.2006C23.346 19.1951 23.3738 19.1897 23.3989 19.1842C23.4017 19.1842 23.4072 19.1815 23.41 19.1815C23.4406 19.176 23.4713 19.1678 23.4991 19.1623C23.5019 19.1623 23.5047 19.1596 23.5075 19.1596C23.513 19.1568 23.5186 19.1568 23.527 19.1541C23.5437 19.1513 23.5576 19.1459 23.5743 19.1431C23.5827 19.1404 23.5938 19.1376 23.6021 19.1349C23.6161 19.1322 23.6328 19.1267 23.6467 19.1239C23.6551 19.1212 23.6662 19.1184 23.6745 19.1157C23.6885 19.113 23.7052 19.1075 23.7191 19.1047C23.7275 19.102 23.7358 19.0993 23.7442 19.0993C23.7609 19.0938 23.7804 19.091 23.7971 19.0856C23.8026 19.0856 23.8054 19.0828 23.811 19.0828C23.85 19.0719 23.889 19.0609 23.9252 19.05C23.9279 19.05 23.9279 19.05 23.9307 19.0472L24.0393 19.0143C24.0421 19.0143 24.0421 19.0143 24.0449 19.0116L24.0477 19.0116C24.0783 19.0006 24.1062 18.9925 24.134 18.9815C24.1396 18.9788 24.1424 18.9788 24.1479 18.976C24.1758 18.9651 24.2036 18.9568 24.2287 18.9459C24.2315 18.9459 24.2342 18.9431 24.2342 18.9431C24.237 18.9431 24.2398 18.9404 24.2426 18.9404C24.2677 18.9322 24.2927 18.9212 24.315 18.913C24.3178 18.913 24.3178 18.9103 24.3206 18.9103C24.3428 18.9021 24.3651 18.8911 24.3874 18.8829C24.3902 18.8829 24.393 18.8801 24.3958 18.8801C24.3985 18.8801 24.3985 18.8801 24.4013 18.8774C24.4236 18.8692 24.4431 18.8582 24.4626 18.85C24.4682 18.8473 24.4709 18.8473 24.4737 18.8445C24.4932 18.8363 24.5099 18.8281 24.5266 18.8171C24.5294 18.8171 24.5294 18.8144 24.5322 18.8144L24.535 18.8144C24.5545 18.8062 24.5712 18.7952 24.5879 18.787C24.5907 18.7843 24.5962 18.7815 24.599 18.7815C24.6157 18.7733 24.6324 18.7623 24.6464 18.7541L24.6491 18.7541C24.6659 18.7459 24.6798 18.7349 24.6937 18.7267C24.6965 18.724 24.7021 18.7213 24.7048 18.7185C24.7188 18.7103 24.7327 18.6993 24.7466 18.6911C24.7605 18.6829 24.7717 18.6719 24.7856 18.6637L24.7939 18.6555C24.8051 18.6473 24.8162 18.6363 24.8274 18.6281L24.8301 18.6281C24.8413 18.6172 24.8524 18.6089 24.8608 18.598L24.8691 18.5898L24.897 18.5624C24.9053 18.5514 24.9137 18.5432 24.922 18.5322C24.9248 18.5295 24.9248 18.5268 24.9276 18.524C24.936 18.5131 24.9415 18.5048 24.9471 18.4939C24.9527 18.4829 24.9582 18.4747 24.9638 18.4637C24.9638 18.461 24.9666 18.4583 24.9666 18.4555C24.9722 18.4446 24.9749 18.4336 24.9777 18.4254L24.9777 18.4227L24.9777 18.4199L24.9861 18.387L24.9861 18.3843C24.9889 18.3733 24.9889 18.3624 24.9889 18.3514L24.9889 18.3487L24.9889 18.3377L24.9917 16.3599L24.9917 16.3736C24.9722 16.3845 24.9694 16.3955 24.9694 16.4064Z"></path><path id="路径 2" fill-rule="evenodd" style="fill:#146AE4" opacity="1" d="M24.969 18.9234L24.969 18.9261L24.9606 18.959C24.9606 18.9617 24.9606 18.9617 24.9579 18.9645C24.9551 18.9754 24.9495 18.9864 24.9467 18.9946C24.9467 18.9974 24.9439 19.0001 24.9439 19.0028C24.9384 19.0138 24.9328 19.022 24.9272 19.033L24.9272 19.0357C24.9217 19.0467 24.9133 19.0549 24.9077 19.0658C24.905 19.0686 24.905 19.0713 24.9022 19.0741C24.8938 19.085 24.8855 19.0932 24.8771 19.1042C24.8688 19.1124 24.8604 19.1234 24.8493 19.1316L24.8409 19.1398L24.8103 19.1699L24.8075 19.1727C24.7964 19.1809 24.7852 19.1919 24.7741 19.2001L24.7657 19.2083C24.7546 19.2192 24.7407 19.2275 24.7267 19.2357C24.7128 19.2439 24.6989 19.2549 24.685 19.2631C24.6822 19.2658 24.6766 19.2686 24.6738 19.2713C24.6599 19.2795 24.6432 19.2905 24.6293 19.2987L24.6265 19.2987C24.6098 19.3069 24.5959 19.3179 24.5792 19.3261C24.5764 19.3288 24.5708 19.3316 24.568 19.3316C24.5513 19.3398 24.5346 19.3507 24.5151 19.359C24.5123 19.359 24.5095 19.3617 24.5095 19.3617C24.4928 19.3699 24.4733 19.3781 24.4566 19.3891C24.4539 19.3918 24.4483 19.3918 24.4455 19.3946C24.426 19.4028 24.4037 19.4137 24.3842 19.422C24.3815 19.4247 24.3759 19.4247 24.3731 19.4274C24.3508 19.4357 24.3285 19.4466 24.3063 19.4548C24.3035 19.4548 24.3035 19.4576 24.3007 19.4576C24.2756 19.4658 24.2534 19.4767 24.2283 19.485C24.2227 19.4877 24.2172 19.4877 24.2144 19.4904C24.1893 19.5014 24.1615 19.5096 24.1336 19.5206C24.1281 19.5233 24.1253 19.5233 24.1197 19.5261C24.0919 19.537 24.0612 19.5452 24.0334 19.5562C24.0306 19.5562 24.0278 19.5589 24.025 19.5589L23.9164 19.5918C23.9136 19.5918 23.9109 19.5918 23.9109 19.5945C23.8747 19.6055 23.8357 19.6165 23.7967 19.6274C23.7911 19.6302 23.7856 19.6302 23.7828 19.6329C23.7661 19.6384 23.7466 19.6439 23.7299 19.6466C23.7215 19.6493 23.7132 19.6521 23.7048 19.6521C23.6909 19.6548 23.6742 19.6603 23.6602 19.663C23.6519 19.6658 23.6408 19.6685 23.6324 19.6712C23.6185 19.674 23.6018 19.6795 23.5878 19.6822C23.5795 19.6849 23.5684 19.6877 23.56 19.6904C23.5461 19.6932 23.5294 19.6986 23.5127 19.7014C23.5043 19.7041 23.4932 19.7069 23.4848 19.7069C23.4542 19.7123 23.4263 19.7206 23.3957 19.726C23.3929 19.726 23.3874 19.7288 23.3846 19.7288C23.3567 19.7343 23.3317 19.7397 23.3038 19.7452C23.2955 19.748 23.2871 19.748 23.2788 19.7507C23.2509 19.7562 23.2203 19.7617 23.1924 19.7671C23.1897 19.7671 23.1869 19.7671 23.1841 19.7699C23.1507 19.7753 23.12 19.7836 23.0866 19.789C23.0783 19.789 23.0727 19.7918 23.0643 19.7918C23.0198 19.8 22.9752 19.8082 22.9279 19.8164C22.9223 19.8164 22.914 19.8192 22.9084 19.8192C22.8611 19.8274 22.8137 19.8356 22.7664 19.8411C22.7608 19.8411 22.7553 19.8438 22.7469 19.8438C22.6996 19.8521 22.6494 19.8575 22.5993 19.8657C22.5938 19.8657 22.5882 19.8685 22.5826 19.8685C22.5325 19.8767 22.4796 19.8822 22.4295 19.8904C22.4211 19.8904 22.41 19.8931 22.4016 19.8931C22.3766 19.8959 22.3543 19.8986 22.3292 19.9014C22.3181 19.9041 22.3042 19.9041 22.293 19.9068C22.2707 19.9096 22.2485 19.9123 22.2234 19.9151C22.2123 19.9178 22.2011 19.9178 22.1872 19.9205C22.1621 19.9233 22.1343 19.926 22.1092 19.9288C22.1009 19.9288 22.0925 19.9315 22.0842 19.9315C22.048 19.9342 22.0146 19.9397 21.9784 19.9425C21.97 19.9425 21.9616 19.9452 21.9533 19.9452L21.8698 19.9534C21.8586 19.9534 21.8447 19.9562 21.8336 19.9562C21.8085 19.9589 21.7834 19.9616 21.7612 19.9616C21.7472 19.9616 21.7361 19.9644 21.7222 19.9644C21.6971 19.9671 21.6721 19.9698 21.647 19.9698C21.6359 19.9698 21.6247 19.9726 21.6108 19.9726C21.5746 19.9753 21.5356 19.9781 21.4994 19.9808C21.4019 19.989 21.3073 19.9945 21.2098 20C21.2015 20 21.1903 20 21.182 20.0027C21.1096 20.0082 21.0399 20.0109 20.9676 20.0137C20.9592 20.0137 20.9481 20.0137 20.9397 20.0164L20.7225 20.0246L20.703 20.0246C20.6 20.0273 20.497 20.0328 20.3967 20.0328L20.38 20.0328C20.2853 20.0356 20.1907 20.0356 20.096 20.0383L19.7925 20.0383C19.7117 20.0383 19.6282 20.0383 19.5474 20.0356L19.5196 20.0356C19.436 20.0329 19.3497 20.0329 19.2662 20.0301L19.2495 20.0301C19.1604 20.0273 19.0685 20.0246 18.9794 20.0219L18.971 20.0219C18.8819 20.0192 18.7956 20.0137 18.7093 20.0082L18.6842 20.0082C18.6007 20.0027 18.5143 19.9972 18.4308 19.9918C18.4224 19.9918 18.4169 19.9918 18.4085 19.989C18.3194 19.9835 18.2303 19.9753 18.1412 19.9698C18.1328 19.9698 18.1273 19.9698 18.1189 19.9671C18.0827 19.9644 18.0493 19.9616 18.0131 19.9589C17.9992 19.9589 17.9853 19.9562 17.9686 19.9562L17.885 19.9479C17.8683 19.9452 17.8544 19.9452 17.8377 19.9425C17.8098 19.9397 17.7792 19.937 17.7514 19.9342C17.7374 19.9315 17.7235 19.9315 17.7096 19.9288C17.6734 19.926 17.64 19.9205 17.6038 19.9178C17.5954 19.9178 17.5898 19.9151 17.5815 19.9151C17.5397 19.9096 17.4952 19.9041 17.4534 19.8986C17.4423 19.8959 17.4283 19.8959 17.4172 19.8931C17.3866 19.8904 17.3559 19.8849 17.3253 19.8822C17.3114 19.8794 17.2975 19.8794 17.2863 19.8767C17.2501 19.8712 17.2111 19.8657 17.1749 19.8603C17.1694 19.8603 17.161 19.8575 17.1555 19.8575C17.1137 19.8521 17.0691 19.8438 17.0274 19.8384C17.0162 19.8356 17.0079 19.8356 16.9967 19.8329C16.9577 19.8274 16.9188 19.8219 16.8826 19.8137C16.8742 19.811 16.8659 19.811 16.8575 19.8082C16.813 19.8 16.7712 19.7945 16.7266 19.7863C16.7183 19.7836 16.7099 19.7836 16.7016 19.7808C16.6514 19.7726 16.6013 19.7617 16.554 19.7534L16.5512 19.7534C16.5039 19.7452 16.4537 19.7343 16.4064 19.7233C16.398 19.7206 16.3869 19.7206 16.3786 19.7178C16.3618 19.7151 16.3451 19.7096 16.3284 19.7069L16.2867 19.6986C16.27 19.6959 16.2532 19.6904 16.2365 19.6877C16.2226 19.6849 16.2087 19.6822 16.1976 19.6795C16.1808 19.6767 16.1641 19.6712 16.1474 19.6685C16.1335 19.6658 16.1224 19.663 16.1084 19.6603C16.0917 19.6548 16.075 19.6521 16.0583 19.6466C16.0472 19.6439 16.0333 19.6411 16.0221 19.6384C16.0082 19.6356 15.9943 19.6302 15.9804 19.6274C15.9664 19.6247 15.9525 19.6192 15.9414 19.6164C15.9275 19.6137 15.9135 19.6082 15.8996 19.6055C15.8857 19.6027 15.8745 19.5973 15.8606 19.5945C15.8467 19.5918 15.8328 19.5863 15.8189 19.5836C15.8077 19.5808 15.7938 19.5753 15.7827 19.5726C15.7687 19.5699 15.7548 19.5644 15.7437 19.5616C15.7325 19.5589 15.7186 19.5534 15.7075 19.5507C15.6935 19.5452 15.6824 19.5425 15.6685 19.537C15.6573 19.5343 15.6462 19.5288 15.6323 19.526C15.6184 19.5206 15.6072 19.5178 15.5961 19.5123C15.5849 19.5096 15.5738 19.5041 15.5627 19.5014C15.5515 19.4959 15.5376 19.4932 15.5265 19.4877C15.5153 19.4849 15.5042 19.4795 15.4958 19.4767C15.4847 19.4712 15.4736 19.4685 15.4596 19.463C15.4485 19.4603 15.4401 19.4548 15.429 19.4521C15.4179 19.4466 15.4067 19.4438 15.3956 19.4384C15.3872 19.4356 15.3761 19.4302 15.3677 19.4274C15.3566 19.4219 15.3455 19.4165 15.3343 19.4137C15.326 19.411 15.3148 19.4055 15.3065 19.4028C15.2954 19.3973 15.2842 19.3918 15.2759 19.3891C15.2675 19.3863 15.2592 19.3808 15.2508 19.3781C15.2397 19.3726 15.2285 19.3671 15.2202 19.3617C15.2118 19.3589 15.2035 19.3534 15.1951 19.3507C15.184 19.3452 15.1756 19.3398 15.1645 19.3343C15.1561 19.3315 15.1506 19.3261 15.1422 19.3233C15.1311 19.3178 15.1199 19.3124 15.1116 19.3069C15.106 19.3041 15.1004 19.3014 15.0921 19.2959C15.0809 19.2904 15.0698 19.2822 15.0587 19.2767C15.0531 19.274 15.0503 19.2713 15.0447 19.2685C15.0308 19.2603 15.0141 19.2493 15.0002 19.2384C14.8164 19.1124 14.7301 18.9864 14.7301 18.8604L14.7273 20.8382C14.7273 20.9642 14.8136 21.0902 14.9974 21.2163C15.0113 21.2272 15.0252 21.2354 15.042 21.2464C15.0475 21.2491 15.0531 21.2519 15.0559 21.2546C15.067 21.2601 15.0782 21.2683 15.0893 21.2738C15.0949 21.2765 15.1032 21.282 15.1088 21.2847C15.1171 21.2902 15.1283 21.2957 15.1394 21.3012C15.1478 21.3067 15.1561 21.3094 15.1617 21.3121C15.17 21.3176 15.1812 21.3231 15.1923 21.3286C15.2007 21.3313 15.209 21.3368 15.2174 21.3395C15.2285 21.345 15.2369 21.3505 15.248 21.3532C15.2564 21.356 15.2647 21.3615 15.2731 21.3642C15.2842 21.3697 15.2954 21.3751 15.3037 21.3779C15.3121 21.3806 15.3232 21.3861 15.3315 21.3888C15.3427 21.3943 15.3538 21.3971 15.365 21.4025C15.3761 21.408 15.3845 21.4108 15.3956 21.4135C15.4067 21.419 15.4179 21.4217 15.429 21.4272C15.4401 21.4299 15.4513 21.4354 15.4596 21.4382C15.4708 21.4436 15.4819 21.4464 15.4931 21.4519C15.5042 21.4546 15.5153 21.4601 15.5265 21.4628C15.5376 21.4683 15.5515 21.471 15.5627 21.4765C15.5738 21.4792 15.5849 21.4847 15.5961 21.4875C15.6072 21.4929 15.6211 21.4957 15.6323 21.5012C15.6434 21.5039 15.6546 21.5094 15.6685 21.5121C15.6824 21.5176 15.6935 21.5203 15.7075 21.5258C15.7186 21.5286 15.7325 21.534 15.7437 21.5368C15.7576 21.5395 15.7687 21.545 15.7827 21.5477C15.7938 21.5505 15.8077 21.5559 15.8189 21.5587C15.8328 21.5614 15.8467 21.5669 15.8606 21.5696C15.8745 21.5724 15.8857 21.5779 15.8996 21.5806C15.9135 21.5833 15.9275 21.5888 15.9414 21.5916C15.9553 21.5943 15.9664 21.5998 15.9804 21.6025C15.9943 21.6053 16.0082 21.6108 16.0221 21.6135L16.0277 21.6135C16.0388 21.6162 16.0472 21.619 16.0583 21.6217C16.075 21.6272 16.0917 21.6299 16.1084 21.6354C16.1224 21.6382 16.1335 21.6409 16.1474 21.6436C16.1641 21.6464 16.1808 21.6519 16.1976 21.6546L16.2393 21.6628C16.256 21.6656 16.2727 21.671 16.2894 21.6738L16.3312 21.682C16.3479 21.6847 16.3646 21.6902 16.3813 21.6929C16.3869 21.6929 16.3897 21.6957 16.3953 21.6957C16.4008 21.6957 16.4064 21.6984 16.4092 21.6984C16.4565 21.7094 16.5039 21.7176 16.554 21.7286L16.5568 21.7286C16.6041 21.7368 16.6542 21.7477 16.7044 21.756C16.7099 21.756 16.7155 21.7587 16.7211 21.7587C16.7238 21.7587 16.7294 21.7587 16.7322 21.7614C16.774 21.7696 16.8185 21.7778 16.8631 21.7833C16.8714 21.7861 16.8798 21.7861 16.8909 21.7888C16.9299 21.7943 16.9661 21.7998 17.0051 21.808C17.0107 21.808 17.019 21.8107 17.0246 21.8107C17.0274 21.8107 17.0329 21.8107 17.0357 21.8135C17.0775 21.8189 17.1193 21.8272 17.1638 21.8326C17.1694 21.8326 17.1777 21.8354 17.1833 21.8354C17.2195 21.8408 17.2585 21.8463 17.2947 21.8518C17.3003 21.8518 17.3058 21.8545 17.3142 21.8545C17.3225 21.8545 17.3281 21.8573 17.3365 21.8573C17.3671 21.86 17.3977 21.8655 17.4283 21.8682C17.4395 21.871 17.4534 21.871 17.4645 21.8737C17.5063 21.8792 17.5509 21.8847 17.5926 21.8902L17.5954 21.8902C17.601 21.8902 17.6093 21.8929 17.6149 21.8929C17.6483 21.8956 17.6845 21.9011 17.7179 21.9039C17.7319 21.9066 17.7458 21.9066 17.7625 21.9093C17.7903 21.9121 17.821 21.9148 17.8488 21.9176C17.8572 21.9176 17.8655 21.9203 17.8739 21.9203C17.8822 21.9203 17.8878 21.923 17.8962 21.923L17.9797 21.9313C17.9936 21.9313 18.0103 21.934 18.0242 21.934C18.0604 21.9367 18.0939 21.9395 18.1301 21.9422C18.1356 21.9422 18.144 21.9422 18.1496 21.9449L18.1523 21.9449C18.2414 21.9532 18.3278 21.9586 18.4197 21.9641L18.4419 21.9641C18.5255 21.9696 18.609 21.9751 18.6953 21.9806L18.7204 21.9806C18.8067 21.986 18.893 21.9888 18.9821 21.9943L18.9905 21.9943C19.0796 21.997 19.1687 21.9997 19.2606 22.0025L19.2773 22.0025C19.3608 22.0052 19.4444 22.008 19.5307 22.008L19.5586 22.008C19.6393 22.008 19.7228 22.0107 19.8036 22.0107L20.1043 22.0107C20.199 22.0107 20.2937 22.008 20.3884 22.0052L20.4051 22.0052L20.7114 21.997L20.7309 21.997L20.9481 21.9888C20.9592 21.9888 20.9676 21.9888 20.9787 21.986C21.0511 21.9833 21.1207 21.9778 21.1931 21.9751L21.2209 21.9751C21.3184 21.9696 21.4131 21.9614 21.5105 21.9559C21.5495 21.9532 21.5857 21.9504 21.6219 21.9477C21.6331 21.9477 21.6442 21.9449 21.6581 21.9449C21.6832 21.9422 21.7083 21.9395 21.7333 21.9395C21.7472 21.9395 21.7584 21.9367 21.7723 21.9367C21.7974 21.934 21.8196 21.9313 21.8447 21.9313C21.8586 21.9313 21.8698 21.9285 21.8837 21.9285C21.9115 21.9258 21.9394 21.923 21.9644 21.9203C21.9728 21.9203 21.9811 21.9176 21.9895 21.9176C22.0257 21.9148 22.0591 21.9093 22.0953 21.9066C22.1037 21.9066 22.112 21.9039 22.1232 21.9039C22.1482 21.9011 22.1761 21.8984 22.2011 21.8956C22.2123 21.8929 22.2262 21.8929 22.2373 21.8902C22.2596 21.8874 22.2819 21.8847 22.3069 21.8819C22.3181 21.8792 22.332 21.8792 22.3431 21.8765C22.3654 21.8737 22.3905 21.871 22.4128 21.8682C22.4211 21.8682 22.4295 21.8655 22.435 21.8655L22.4406 21.8655C22.4935 21.8573 22.5436 21.8518 22.5938 21.8436C22.5993 21.8436 22.6049 21.8408 22.6105 21.8408C22.6606 21.8326 22.7107 21.8272 22.758 21.8189C22.7636 21.8189 22.7692 21.8162 22.7775 21.8162C22.8249 21.808 22.8722 21.7998 22.9195 21.7943C22.9251 21.7943 22.9307 21.7915 22.939 21.7915C22.9864 21.7833 23.0309 21.7751 23.0755 21.7669C23.0783 21.7669 23.0838 21.7669 23.0866 21.7641C23.0894 21.7641 23.095 21.7614 23.0978 21.7614C23.1312 21.7559 23.1646 21.7504 23.1952 21.7422C23.198 21.7422 23.2008 21.7422 23.2036 21.7395C23.2342 21.734 23.2621 21.7285 23.2927 21.7231C23.301 21.7203 23.3094 21.7203 23.3177 21.7176C23.3456 21.7121 23.3734 21.7066 23.3985 21.7012C23.4013 21.7012 23.4068 21.6984 23.4096 21.6984C23.4403 21.6929 23.4709 21.6847 23.4987 21.6793C23.5015 21.6793 23.5043 21.6793 23.5071 21.6765C23.5127 21.6738 23.5182 21.6738 23.5266 21.671C23.5433 21.6683 23.5572 21.6628 23.5739 21.6601C23.5823 21.6573 23.5934 21.6546 23.6018 21.6519C23.6157 21.6491 23.6324 21.6436 23.6463 21.6409C23.6547 21.6382 23.6658 21.6354 23.6742 21.6327C23.6881 21.6299 23.7048 21.6245 23.7187 21.6217C23.7271 21.619 23.7354 21.6162 23.7438 21.6162C23.7605 21.6107 23.78 21.608 23.7967 21.6025C23.8023 21.6025 23.805 21.5998 23.8106 21.5998C23.8496 21.5888 23.8886 21.5779 23.9248 21.5669C23.9276 21.5669 23.9276 21.5669 23.9303 21.5642L24.0389 21.5313C24.0417 21.5313 24.0417 21.5313 24.0445 21.5286L24.0473 21.5286C24.0779 21.5176 24.1058 21.5094 24.1336 21.4984C24.1392 21.4957 24.142 21.4957 24.1475 21.493C24.1754 21.482 24.2032 21.4738 24.2283 21.4628C24.2311 21.4628 24.2339 21.4601 24.2339 21.4601C24.2367 21.4601 24.2394 21.4574 24.2422 21.4574C24.2673 21.4491 24.2923 21.4382 24.3146 21.43C24.3174 21.43 24.3174 21.4272 24.3202 21.4272C24.3425 21.419 24.3647 21.408 24.387 21.3998C24.3898 21.3998 24.3926 21.3971 24.3954 21.3971C24.3982 21.3971 24.3982 21.3971 24.4009 21.3944C24.4232 21.3861 24.4427 21.3752 24.4622 21.367C24.4678 21.3642 24.4706 21.3642 24.4733 21.3615C24.4928 21.3533 24.5095 21.345 24.5263 21.3341C24.529 21.3341 24.529 21.3313 24.5318 21.3313L24.5346 21.3313C24.5541 21.3231 24.5708 21.3122 24.5875 21.3039C24.5903 21.3012 24.5959 21.2985 24.5987 21.2985C24.6154 21.2903 24.6321 21.2793 24.646 21.2711L24.6488 21.2711C24.6655 21.2629 24.6794 21.2519 24.6933 21.2437C24.6961 21.2409 24.7017 21.2382 24.7045 21.2355C24.7184 21.2272 24.7323 21.2163 24.7462 21.2081C24.7602 21.1999 24.7713 21.1889 24.7852 21.1807L24.7936 21.1725C24.8047 21.1642 24.8158 21.1533 24.827 21.1451L24.8298 21.1451C24.8409 21.1341 24.852 21.1259 24.8604 21.1149L24.8688 21.1067L24.8966 21.0793C24.905 21.0684 24.9133 21.0601 24.9217 21.0492C24.9244 21.0464 24.9244 21.0437 24.9272 21.041C24.9356 21.03 24.9412 21.0218 24.9467 21.0108C24.9523 20.9999 24.9579 20.9917 24.9634 20.9807C24.9634 20.978 24.9662 20.9752 24.9662 20.9725C24.9718 20.9615 24.9746 20.9506 24.9774 20.9423L24.9774 20.9396L24.9774 20.9369L24.9857 20.904L24.9857 20.9013C24.9885 20.8903 24.9885 20.8793 24.9885 20.8684L24.9885 20.8656L24.9885 20.8547L24.9913 18.8768L24.9913 18.8905C24.9718 18.9015 24.969 18.9124 24.969 18.9234Z"></path><path id="路径 3" fill-rule="evenodd" style="fill:#146AE4" opacity="1" d="M24.9697 21.439L24.9697 21.4418L24.9613 21.4746C24.9613 21.4774 24.9613 21.4774 24.9585 21.4801C24.9557 21.4911 24.9502 21.502 24.9474 21.5103C24.9474 21.513 24.9446 21.5157 24.9446 21.5185C24.939 21.5294 24.9335 21.5376 24.9279 21.5486L24.9279 21.5513C24.9223 21.5623 24.914 21.5705 24.9084 21.5815C24.9056 21.5842 24.9056 21.587 24.9028 21.5897C24.8945 21.6007 24.8861 21.6089 24.8778 21.6198C24.8694 21.628 24.8611 21.639 24.8499 21.6472L24.8416 21.6554L24.8109 21.6856L24.8081 21.6883C24.797 21.6965 24.7859 21.7075 24.7747 21.7157L24.7664 21.7239C24.7552 21.7349 24.7413 21.7431 24.7274 21.7513C24.7135 21.7595 24.6995 21.7705 24.6856 21.7787C24.6828 21.7815 24.6773 21.7842 24.6745 21.7869C24.6606 21.7952 24.6439 21.8061 24.6299 21.8143L24.6271 21.8143C24.6104 21.8225 24.5965 21.8335 24.5798 21.8417C24.577 21.8445 24.5715 21.8472 24.5687 21.8472C24.552 21.8554 24.5353 21.8664 24.5158 21.8746C24.513 21.8746 24.5102 21.8773 24.5102 21.8773C24.4935 21.8856 24.474 21.8938 24.4573 21.9047C24.4545 21.9075 24.4489 21.9075 24.4461 21.9102C24.4267 21.9184 24.4044 21.9294 24.3849 21.9376C24.3821 21.9403 24.3765 21.9403 24.3737 21.9431C24.3515 21.9513 24.3292 21.9623 24.3069 21.9705C24.3041 21.9705 24.3041 21.9732 24.3013 21.9732C24.2763 21.9814 24.254 21.9924 24.229 22.0006C24.2234 22.0033 24.2178 22.0033 24.215 22.0061C24.19 22.017 24.1621 22.0253 24.1343 22.0362C24.1287 22.039 24.1259 22.039 24.1204 22.0417C24.0925 22.0527 24.0619 22.0609 24.034 22.0718C24.0312 22.0718 24.0285 22.0746 24.0257 22.0746L23.9171 22.1074C23.9143 22.1074 23.9115 22.1074 23.9115 22.1102C23.8753 22.1211 23.8363 22.1321 23.7973 22.1431C23.7918 22.1458 23.7862 22.1458 23.7834 22.1485C23.7667 22.154 23.7472 22.1595 23.7305 22.1622C23.7222 22.165 23.7138 22.1677 23.7054 22.1677C23.6915 22.1705 23.6748 22.1759 23.6609 22.1787C23.6525 22.1814 23.6414 22.1842 23.633 22.1869C23.6191 22.1896 23.6024 22.1951 23.5885 22.1978C23.5801 22.2006 23.569 22.2033 23.5606 22.2061C23.5467 22.2088 23.53 22.2143 23.5133 22.217C23.505 22.2198 23.4938 22.2225 23.4855 22.2225C23.4548 22.228 23.427 22.2362 23.3964 22.2417C23.3936 22.2417 23.388 22.2444 23.3852 22.2444C23.3574 22.2499 23.3323 22.2554 23.3045 22.2609C23.2961 22.2636 23.2878 22.2636 23.2794 22.2663C23.2516 22.2718 23.2209 22.2773 23.1931 22.2828C23.1903 22.2828 23.1875 22.2828 23.1847 22.2855C23.1513 22.291 23.1207 22.2992 23.0873 22.3047C23.0789 22.3047 23.0733 22.3074 23.065 22.3074C23.0204 22.3156 22.9759 22.3239 22.9285 22.3321C22.923 22.3321 22.9146 22.3348 22.9091 22.3348C22.8617 22.343 22.8144 22.3513 22.767 22.3567C22.7615 22.3567 22.7559 22.3595 22.7476 22.3595C22.7002 22.3677 22.6501 22.3732 22.6 22.3814C22.5944 22.3814 22.5888 22.3841 22.5833 22.3841C22.5331 22.3923 22.4802 22.3978 22.4301 22.406C22.4218 22.406 22.4106 22.4088 22.4023 22.4088C22.3772 22.4115 22.3549 22.4143 22.3299 22.417C22.3187 22.4197 22.3048 22.4197 22.2937 22.4225C22.2714 22.4252 22.2491 22.428 22.224 22.4307C22.2129 22.4334 22.2018 22.4334 22.1878 22.4362C22.1628 22.4389 22.1349 22.4417 22.1099 22.4444C22.1015 22.4444 22.0932 22.4471 22.0848 22.4471C22.0486 22.4499 22.0152 22.4554 21.979 22.4581C21.9707 22.4581 21.9623 22.4608 21.9539 22.4608L21.8704 22.4691C21.8593 22.4691 21.8453 22.4718 21.8342 22.4718C21.8091 22.4745 21.7841 22.4773 21.7618 22.4773C21.7479 22.4773 21.7367 22.48 21.7228 22.48C21.6978 22.4827 21.6727 22.4855 21.6476 22.4855C21.6365 22.4855 21.6254 22.4882 21.6114 22.4882C21.5752 22.4909 21.5363 22.4937 21.5001 22.4964C21.4026 22.5046 21.3079 22.5101 21.2105 22.5156C21.2021 22.5156 21.191 22.5156 21.1826 22.5183C21.1102 22.5238 21.0406 22.5266 20.9682 22.5293C20.9598 22.5293 20.9487 22.5293 20.9404 22.532L20.7232 22.5402L20.7037 22.5402C20.6006 22.543 20.4976 22.5485 20.3974 22.5485L20.3807 22.5485C20.286 22.5512 20.1913 22.5512 20.0966 22.5539L19.7931 22.5539C19.7124 22.5539 19.6288 22.5539 19.5481 22.5512L19.5202 22.5512C19.4367 22.5485 19.3504 22.5485 19.2668 22.5457L19.2501 22.5457C19.161 22.543 19.0691 22.5402 18.98 22.5375L18.9717 22.5375C18.8825 22.5348 18.7962 22.5293 18.7099 22.5238L18.6848 22.5238C18.6013 22.5183 18.515 22.5129 18.4314 22.5074C18.4231 22.5074 18.4175 22.5074 18.4092 22.5047C18.3201 22.4992 18.231 22.491 18.1418 22.4855C18.1335 22.4855 18.1279 22.4855 18.1196 22.4827C18.0834 22.48 18.05 22.4773 18.0138 22.4745C17.9998 22.4745 17.9859 22.4718 17.9692 22.4718L17.8857 22.4636C17.869 22.4608 17.855 22.4608 17.8383 22.4581C17.8105 22.4554 17.7798 22.4526 17.752 22.4499C17.7381 22.4471 17.7242 22.4471 17.7102 22.4444C17.674 22.4417 17.6406 22.4362 17.6044 22.4334C17.5961 22.4334 17.5905 22.4307 17.5821 22.4307C17.5404 22.4252 17.4958 22.4197 17.4541 22.4143C17.4429 22.4115 17.429 22.4115 17.4179 22.4088C17.3872 22.406 17.3566 22.4006 17.326 22.3978C17.312 22.3951 17.2981 22.3951 17.287 22.3923C17.2508 22.3869 17.2118 22.3814 17.1756 22.3759C17.17 22.3759 17.1617 22.3732 17.1561 22.3732C17.1143 22.3677 17.0698 22.3595 17.028 22.354C17.0169 22.3513 17.0085 22.3513 16.9974 22.3485C16.9584 22.343 16.9194 22.3376 16.8832 22.3293C16.8749 22.3266 16.8665 22.3266 16.8582 22.3239C16.8136 22.3156 16.7718 22.3102 16.7273 22.3019C16.7189 22.2992 16.7106 22.2992 16.7022 22.2965C16.6521 22.2882 16.602 22.2773 16.5546 22.2691L16.5518 22.2691C16.5045 22.2609 16.4544 22.2499 16.407 22.2389C16.3987 22.2362 16.3876 22.2362 16.3792 22.2335C16.3625 22.2307 16.3458 22.2252 16.3291 22.2225L16.2873 22.2143C16.2706 22.2115 16.2539 22.2061 16.2372 22.2033C16.2233 22.2006 16.2093 22.1978 16.1982 22.1951C16.1815 22.1924 16.1648 22.1869 16.1481 22.1842C16.1342 22.1814 16.123 22.1786 16.1091 22.1759C16.0924 22.1705 16.0757 22.1677 16.059 22.1622C16.0478 22.1595 16.0339 22.1568 16.0228 22.154C16.0089 22.1513 15.9949 22.1458 15.981 22.1431C15.9671 22.1403 15.9532 22.1348 15.942 22.1321C15.9281 22.1294 15.9142 22.1239 15.9003 22.1211C15.8863 22.1184 15.8752 22.1129 15.8613 22.1102C15.8473 22.1074 15.8334 22.1019 15.8195 22.0992C15.8084 22.0965 15.7944 22.091 15.7833 22.0882C15.7694 22.0855 15.7555 22.08 15.7443 22.0773C15.7332 22.0745 15.7193 22.0691 15.7081 22.0663C15.6942 22.0608 15.6831 22.0581 15.6691 22.0526C15.658 22.0499 15.6469 22.0444 15.6329 22.0417C15.619 22.0362 15.6079 22.0335 15.5967 22.028C15.5856 22.0252 15.5745 22.0198 15.5633 22.017C15.5522 22.0115 15.5383 22.0088 15.5271 22.0033C15.516 22.0006 15.5048 21.9951 15.4965 21.9924C15.4853 21.9869 15.4742 21.9841 15.4603 21.9787C15.4492 21.9759 15.4408 21.9704 15.4297 21.9677C15.4185 21.9622 15.4074 21.9595 15.3962 21.954C15.3879 21.9513 15.3768 21.9458 15.3684 21.9431C15.3573 21.9376 15.3461 21.9321 15.335 21.9294C15.3266 21.9266 15.3155 21.9211 15.3071 21.9184C15.296 21.9129 15.2849 21.9074 15.2765 21.9047C15.2682 21.902 15.2598 21.8965 15.2514 21.8937C15.2403 21.8883 15.2292 21.8828 15.2208 21.8773C15.2125 21.8746 15.2041 21.8691 15.1958 21.8663C15.1846 21.8609 15.1763 21.8554 15.1651 21.8499C15.1568 21.8472 15.1512 21.8417 15.1428 21.839C15.1317 21.8335 15.1206 21.828 15.1122 21.8225C15.1066 21.8198 15.1011 21.817 15.0927 21.8116C15.0816 21.8061 15.0704 21.7979 15.0593 21.7924C15.0537 21.7896 15.051 21.7869 15.0454 21.7842C15.0315 21.7759 15.0148 21.765 15.0008 21.754C14.817 21.628 14.7307 21.502 14.7307 21.376L14.7279 23.3539C14.7279 23.4799 14.8143 23.6059 14.998 23.7319C15.012 23.7429 15.0259 23.7511 15.0426 23.762C15.0482 23.7648 15.0537 23.7675 15.0565 23.7703C15.0677 23.7757 15.0788 23.7839 15.0899 23.7894C15.0955 23.7922 15.1039 23.7976 15.1094 23.8004C15.1178 23.8059 15.1289 23.8113 15.1401 23.8168C15.1484 23.8223 15.1568 23.825 15.1623 23.8278C15.1707 23.8333 15.1818 23.8387 15.193 23.8442C15.2013 23.847 15.2097 23.8524 15.218 23.8552C15.2292 23.8607 15.2375 23.8661 15.2487 23.8689C15.257 23.8716 15.2654 23.8771 15.2737 23.8798C15.2849 23.8853 15.296 23.8908 15.3044 23.8935C15.3127 23.8963 15.3238 23.9017 15.3322 23.9045C15.3433 23.91 15.3545 23.9127 15.3656 23.9182C15.3768 23.9237 15.3851 23.9264 15.3962 23.9291C15.4074 23.9346 15.4185 23.9374 15.4297 23.9428C15.4408 23.9456 15.4519 23.9511 15.4603 23.9538C15.4714 23.9593 15.4826 23.962 15.4937 23.9675C15.5048 23.9702 15.516 23.9757 15.5271 23.9784C15.5383 23.9839 15.5522 23.9867 15.5633 23.9921C15.5745 23.9949 15.5856 24.0004 15.5967 24.0031C15.6079 24.0086 15.6218 24.0113 15.6329 24.0168C15.6441 24.0195 15.6552 24.025 15.6691 24.0278C15.6831 24.0332 15.6942 24.036 15.7081 24.0415C15.7193 24.0442 15.7332 24.0497 15.7443 24.0524C15.7582 24.0552 15.7694 24.0606 15.7833 24.0634C15.7944 24.0661 15.8084 24.0716 15.8195 24.0743C15.8334 24.0771 15.8473 24.0825 15.8613 24.0853C15.8752 24.088 15.8863 24.0935 15.9003 24.0962C15.9142 24.099 15.9281 24.1045 15.942 24.1072C15.9559 24.1099 15.9671 24.1154 15.981 24.1182C15.9949 24.1209 16.0089 24.1264 16.0228 24.1291L16.0283 24.1291C16.0395 24.1319 16.0478 24.1346 16.059 24.1374C16.0757 24.1428 16.0924 24.1456 16.1091 24.1511C16.123 24.1538 16.1342 24.1565 16.1481 24.1593C16.1648 24.162 16.1815 24.1675 16.1982 24.1702L16.24 24.1785C16.2567 24.1812 16.2734 24.1867 16.2901 24.1894L16.3319 24.1976C16.3486 24.2004 16.3653 24.2058 16.382 24.2086C16.3876 24.2086 16.3903 24.2113 16.3959 24.2113C16.4015 24.2113 16.407 24.2141 16.4098 24.2141C16.4572 24.225 16.5045 24.2332 16.5546 24.2442L16.5574 24.2442C16.6048 24.2524 16.6549 24.2634 16.705 24.2716C16.7106 24.2716 16.7161 24.2743 16.7217 24.2743C16.7245 24.2743 16.7301 24.2743 16.7328 24.277C16.7746 24.2853 16.8192 24.2935 16.8637 24.299C16.8721 24.3017 16.8804 24.3017 16.8916 24.3044C16.9305 24.3099 16.9667 24.3154 17.0057 24.3236C17.0113 24.3236 17.0197 24.3264 17.0252 24.3264C17.028 24.3264 17.0336 24.3264 17.0364 24.3291C17.0781 24.3346 17.1199 24.3428 17.1645 24.3483C17.17 24.3483 17.1784 24.351 17.1839 24.351C17.2201 24.3565 17.2591 24.362 17.2953 24.3674C17.3009 24.3674 17.3065 24.3702 17.3148 24.3702C17.3232 24.3702 17.3287 24.3729 17.3371 24.3729C17.3677 24.3757 17.3984 24.3811 17.429 24.3839C17.4401 24.3866 17.4541 24.3866 17.4652 24.3894C17.507 24.3948 17.5515 24.4003 17.5933 24.4058L17.5961 24.4058C17.6016 24.4058 17.61 24.4085 17.6156 24.4085C17.649 24.4113 17.6852 24.4168 17.7186 24.4195C17.7325 24.4222 17.7464 24.4222 17.7631 24.425C17.791 24.4277 17.8216 24.4305 17.8495 24.4332C17.8578 24.4332 17.8662 24.4359 17.8745 24.4359C17.8829 24.4359 17.8884 24.4387 17.8968 24.4387L17.9803 24.4469C17.9943 24.4469 18.011 24.4496 18.0249 24.4496C18.0611 24.4524 18.0945 24.4551 18.1307 24.4578C18.1363 24.4578 18.1446 24.4578 18.1502 24.4606L18.153 24.4606C18.2421 24.4688 18.3284 24.4743 18.4203 24.4798L18.4426 24.4798C18.5261 24.4852 18.6097 24.4907 18.696 24.4962L18.721 24.4962C18.8074 24.5017 18.8937 24.5044 18.9828 24.5099L18.9911 24.5099C19.0802 24.5126 19.1694 24.5154 19.2612 24.5181L19.278 24.5181C19.3615 24.5209 19.445 24.5236 19.5314 24.5236L19.5592 24.5236C19.64 24.5236 19.7235 24.5263 19.8042 24.5263L20.105 24.5263C20.1997 24.5263 20.2943 24.5236 20.389 24.5209L20.4057 24.5209L20.712 24.5126L20.7315 24.5126L20.9487 24.5044C20.9598 24.5044 20.9682 24.5044 20.9793 24.5017C21.0517 24.4989 21.1214 24.4935 21.1938 24.4907L21.2216 24.4907C21.3191 24.4852 21.4137 24.477 21.5112 24.4715C21.5502 24.4688 21.5864 24.4661 21.6226 24.4633C21.6337 24.4633 21.6449 24.4606 21.6588 24.4606C21.6838 24.4578 21.7089 24.4551 21.734 24.4551C21.7479 24.4551 21.759 24.4524 21.7729 24.4524C21.798 24.4496 21.8203 24.4469 21.8453 24.4469C21.8593 24.4469 21.8704 24.4442 21.8843 24.4442C21.9122 24.4414 21.94 24.4387 21.9651 24.4359C21.9734 24.4359 21.9818 24.4332 21.9901 24.4332C22.0263 24.4305 22.0598 24.425 22.096 24.4222C22.1043 24.4222 22.1127 24.4195 22.1238 24.4195C22.1489 24.4168 22.1767 24.414 22.2018 24.4113C22.2129 24.4085 22.2268 24.4085 22.238 24.4058C22.2602 24.4031 22.2825 24.4003 22.3076 24.3976C22.3187 24.3948 22.3326 24.3948 22.3438 24.3921C22.3661 24.3894 22.3911 24.3866 22.4134 24.3839C22.4218 24.3839 22.4301 24.3811 22.4357 24.3811L22.4412 24.3811C22.4942 24.3729 22.5443 24.3674 22.5944 24.3592C22.6 24.3592 22.6055 24.3565 22.6111 24.3565C22.6612 24.3483 22.7114 24.3428 22.7587 24.3346C22.7643 24.3346 22.7698 24.3318 22.7782 24.3318C22.8255 24.3236 22.8729 24.3154 22.9202 24.3099C22.9258 24.3099 22.9313 24.3072 22.9397 24.3072C22.987 24.299 23.0316 24.2907 23.0761 24.2825C23.0789 24.2825 23.0845 24.2825 23.0873 24.2798C23.0901 24.2798 23.0956 24.277 23.0984 24.277C23.1318 24.2716 23.1652 24.2661 23.1959 24.2579C23.1987 24.2579 23.2014 24.2579 23.2042 24.2551C23.2349 24.2497 23.2627 24.2442 23.2933 24.2387C23.3017 24.236 23.31 24.236 23.3184 24.2332C23.3462 24.2277 23.3741 24.2223 23.3991 24.2168C23.4019 24.2168 23.4075 24.2141 23.4103 24.2141C23.4409 24.2086 23.4715 24.2004 23.4994 24.1949C23.5022 24.1949 23.505 24.1949 23.5077 24.1922C23.5133 24.1894 23.5189 24.1894 23.5272 24.1867C23.5439 24.1839 23.5579 24.1785 23.5746 24.1757C23.5829 24.173 23.5941 24.1702 23.6024 24.1675C23.6163 24.1648 23.633 24.1593 23.647 24.1565C23.6553 24.1538 23.6665 24.151 23.6748 24.1483C23.6887 24.1456 23.7054 24.1401 23.7194 24.1373C23.7277 24.1346 23.7361 24.1319 23.7444 24.1319C23.7611 24.1264 23.7806 24.1236 23.7973 24.1182C23.8029 24.1182 23.8057 24.1154 23.8113 24.1154C23.8502 24.1045 23.8892 24.0935 23.9254 24.0825C23.9282 24.0825 23.9282 24.0825 23.931 24.0798L24.0396 24.047C24.0424 24.047 24.0424 24.047 24.0452 24.0442L24.048 24.0442C24.0786 24.0333 24.1064 24.025 24.1343 24.0141C24.1398 24.0113 24.1426 24.0113 24.1482 24.0086C24.176 23.9977 24.2039 23.9894 24.229 23.9785C24.2317 23.9785 24.2345 23.9757 24.2345 23.9757C24.2373 23.9757 24.2401 23.973 24.2429 23.973C24.2679 23.9648 24.293 23.9538 24.3153 23.9456C24.3181 23.9456 24.3181 23.9429 24.3208 23.9429C24.3431 23.9346 24.3654 23.9237 24.3877 23.9155C24.3905 23.9155 24.3932 23.9127 24.396 23.9127C24.3988 23.9127 24.3988 23.9127 24.4016 23.91C24.4239 23.9018 24.4434 23.8908 24.4629 23.8826C24.4684 23.8799 24.4712 23.8799 24.474 23.8771C24.4935 23.8689 24.5102 23.8607 24.5269 23.8497C24.5297 23.8497 24.5297 23.847 24.5325 23.847L24.5353 23.847C24.5547 23.8388 24.5715 23.8278 24.5882 23.8196C24.5909 23.8168 24.5965 23.8141 24.5993 23.8141C24.616 23.8059 24.6327 23.7949 24.6466 23.7867L24.6494 23.7867C24.6661 23.7785 24.6801 23.7675 24.694 23.7593C24.6968 23.7566 24.7023 23.7538 24.7051 23.7511C24.719 23.7429 24.733 23.7319 24.7469 23.7237C24.7608 23.7155 24.7719 23.7045 24.7859 23.6963L24.7942 23.6881C24.8054 23.6799 24.8165 23.6689 24.8276 23.6607L24.8304 23.6607C24.8416 23.6497 24.8527 23.6415 24.8611 23.6306L24.8694 23.6223L24.8973 23.595C24.9056 23.584 24.914 23.5758 24.9223 23.5648C24.9251 23.5621 24.9251 23.5593 24.9279 23.5566C24.9362 23.5456 24.9418 23.5374 24.9474 23.5265C24.9529 23.5155 24.9585 23.5073 24.9641 23.4963C24.9641 23.4936 24.9669 23.4909 24.9669 23.4881C24.9724 23.4772 24.9752 23.4662 24.978 23.458L24.978 23.4552L24.978 23.4525L24.9864 23.4196L24.9864 23.4169C24.9891 23.4059 24.9891 23.395 24.9891 23.384L24.9891 23.3813L24.9891 23.3703L24.9919 21.3925L24.9919 21.4062C24.9724 21.4171 24.9697 21.4281 24.9697 21.439ZM24.9724 13.8234C24.9724 13.6974 24.8861 13.5714 24.7023 13.4454C23.7946 12.8263 20.8819 12.4921 18.1975 12.6975C16.0534 12.8619 14.7029 13.3221 14.7057 13.8152L14.7057 13.8125L14.7029 15.7903C14.7029 15.9163 14.7892 16.0423 14.973 16.1684C14.9869 16.1793 15.0008 16.1875 15.0175 16.1985C15.0231 16.2012 15.0287 16.204 15.0315 16.2067C15.0426 16.2122 15.0537 16.2204 15.0649 16.2259C15.0704 16.2286 15.0788 16.2341 15.0844 16.2368C15.0927 16.2423 15.1039 16.2478 15.115 16.2533C15.1234 16.2588 15.1317 16.2615 15.1373 16.2642C15.1456 16.2697 15.1568 16.2752 15.1679 16.2807C15.1763 16.2834 15.1846 16.2889 15.193 16.2916C15.2041 16.2971 15.2125 16.3026 15.2236 16.3053C15.232 16.3081 15.2403 16.3136 15.2487 16.3163C15.2598 16.3218 15.2709 16.3272 15.2793 16.33C15.2876 16.3327 15.2988 16.3382 15.3071 16.3409C15.3183 16.3464 15.3294 16.3492 15.3406 16.3546C15.3517 16.3601 15.36 16.3629 15.3712 16.3656C15.3823 16.3711 15.3935 16.3738 15.4046 16.3793C15.4157 16.382 15.4269 16.3875 15.4352 16.3903C15.4464 16.3957 15.4575 16.3985 15.4686 16.404C15.4798 16.4067 15.4909 16.4122 15.5021 16.4149C15.5132 16.4204 15.5271 16.4231 15.5383 16.4286C15.5494 16.4313 15.5605 16.4368 15.5717 16.4396C15.5828 16.445 15.5967 16.4478 15.6079 16.4533C15.619 16.456 15.6301 16.4615 15.6441 16.4642C15.658 16.4697 15.6691 16.4724 15.6831 16.4779C15.6942 16.4807 15.7081 16.4861 15.7193 16.4889C15.7332 16.4916 15.7443 16.4971 15.7582 16.4998C15.7694 16.5026 15.7833 16.5081 15.7944 16.5108C15.8084 16.5135 15.8223 16.519 15.8362 16.5217C15.8501 16.5245 15.8613 16.53 15.8752 16.5327C15.8891 16.5354 15.903 16.5409 15.917 16.5437C15.9309 16.5464 15.942 16.5519 15.9559 16.5546C15.9699 16.5574 15.9838 16.5628 15.9977 16.5656L16.0033 16.5656C16.0144 16.5683 16.0228 16.5711 16.0339 16.5738C16.0506 16.5793 16.0673 16.582 16.084 16.5875C16.098 16.5902 16.1091 16.593 16.123 16.5957C16.1397 16.5985 16.1564 16.6039 16.1731 16.6067L16.2149 16.6149C16.2316 16.6176 16.2483 16.6231 16.265 16.6258L16.3068 16.6341C16.3235 16.6368 16.3402 16.6423 16.3569 16.645C16.3625 16.645 16.3653 16.6478 16.3708 16.6478C16.3764 16.6478 16.382 16.6505 16.3848 16.6505C16.4321 16.6615 16.4794 16.6697 16.5296 16.6806L16.5324 16.6806C16.5797 16.6889 16.6298 16.6998 16.6799 16.708C16.6855 16.708 16.6911 16.7108 16.6966 16.7108C16.6994 16.7108 16.705 16.7108 16.7078 16.7135C16.7496 16.7217 16.7941 16.7299 16.8387 16.7354C16.847 16.7382 16.8554 16.7382 16.8665 16.7409C16.9055 16.7464 16.9417 16.7519 16.9807 16.7601C16.9862 16.7601 16.9946 16.7628 17.0002 16.7628C17.0029 16.7628 17.0085 16.7628 17.0113 16.7656C17.0531 16.771 17.0948 16.7793 17.1394 16.7847C17.145 16.7847 17.1533 16.7875 17.1589 16.7875C17.1951 16.793 17.2341 16.7984 17.2703 16.8039C17.2758 16.8039 17.2814 16.8066 17.2898 16.8066C17.2981 16.8066 17.3037 16.8094 17.312 16.8094C17.3427 16.8121 17.3733 16.8176 17.4039 16.8203C17.4151 16.8231 17.429 16.8231 17.4401 16.8258C17.4819 16.8313 17.5265 16.8368 17.5682 16.8423L17.571 16.8423C17.5766 16.8423 17.5849 16.845 17.5905 16.845C17.6239 16.8477 17.6601 16.8532 17.6935 16.856C17.7074 16.8587 17.7214 16.8587 17.7381 16.8614C17.7659 16.8642 17.7966 16.8669 17.8244 16.8697C17.8328 16.8697 17.8411 16.8724 17.8495 16.8724C17.8578 16.8724 17.8634 16.8751 17.8717 16.8751L17.9553 16.8834C17.9692 16.8834 17.9859 16.8861 17.9998 16.8861C18.036 16.8888 18.0694 16.8916 18.1056 16.8943C18.1112 16.8943 18.1196 16.8943 18.1251 16.897L18.1279 16.897C18.217 16.9053 18.3034 16.9107 18.3952 16.9162L18.4175 16.9162C18.5011 16.9217 18.5846 16.9272 18.6709 16.9327L18.696 16.9327C18.7823 16.9381 18.8686 16.9409 18.9577 16.9464L18.9661 16.9464C19.0552 16.9491 19.1443 16.9518 19.2362 16.9546L19.2529 16.9546C19.3364 16.9573 19.42 16.9601 19.5063 16.9601L19.5341 16.9601C19.6149 16.9601 19.6984 16.9628 19.7792 16.9628L20.0799 16.9628C20.1746 16.9628 20.2693 16.9601 20.3639 16.9573L20.3807 16.9573L20.687 16.9491L20.7064 16.9491L20.9236 16.9409C20.9348 16.9409 20.9431 16.9409 20.9543 16.9381C21.0267 16.9354 21.0963 16.9299 21.1687 16.9272L21.1965 16.9272C21.294 16.9217 21.3887 16.9135 21.4861 16.908C21.5251 16.9053 21.5613 16.9025 21.5975 16.8998C21.6087 16.8998 21.6198 16.897 21.6337 16.897C21.6588 16.8943 21.6838 16.8916 21.7089 16.8916C21.7228 16.8916 21.734 16.8888 21.7479 16.8888C21.7729 16.8861 21.7952 16.8834 21.8203 16.8834C21.8342 16.8834 21.8453 16.8806 21.8593 16.8806C21.8871 16.8779 21.915 16.8751 21.94 16.8724C21.9484 16.8724 21.9567 16.8697 21.9651 16.8697C22.0013 16.8669 22.0347 16.8614 22.0709 16.8587C22.0793 16.8587 22.0876 16.856 22.0987 16.856C22.1238 16.8532 22.1516 16.8505 22.1767 16.8477C22.1878 16.845 22.2018 16.845 22.2129 16.8423C22.2352 16.8395 22.2575 16.8368 22.2825 16.834C22.2937 16.8313 22.3076 16.8313 22.3187 16.8286C22.341 16.8258 22.3661 16.8231 22.3883 16.8203C22.3967 16.8203 22.405 16.8176 22.4106 16.8176L22.4162 16.8176C22.4691 16.8094 22.5192 16.8039 22.5693 16.7957C22.5749 16.7957 22.5805 16.793 22.586 16.793C22.6362 16.7847 22.6863 16.7793 22.7336 16.771C22.7392 16.771 22.7448 16.7683 22.7531 16.7683C22.8005 16.7601 22.8478 16.7519 22.8951 16.7464C22.9007 16.7464 22.9063 16.7436 22.9146 16.7436C22.962 16.7354 23.0065 16.7272 23.0511 16.719C23.0539 16.719 23.0594 16.719 23.0622 16.7162C23.065 16.7162 23.0706 16.7135 23.0733 16.7135C23.1068 16.708 23.1402 16.7026 23.1708 16.6943C23.1736 16.6943 23.1764 16.6943 23.1792 16.6916C23.2098 16.6861 23.2376 16.6806 23.2683 16.6752C23.2766 16.6724 23.285 16.6724 23.2933 16.6697C23.3212 16.6642 23.349 16.6587 23.3741 16.6532C23.3769 16.6532 23.3824 16.6505 23.3852 16.6505C23.4159 16.645 23.4465 16.6368 23.4743 16.6313C23.4771 16.6313 23.4799 16.6313 23.4827 16.6286C23.4883 16.6258 23.4938 16.6258 23.5022 16.6231C23.5189 16.6204 23.5328 16.6149 23.5495 16.6121C23.5579 16.6094 23.569 16.6067 23.5774 16.6039C23.5913 16.6012 23.608 16.5957 23.6219 16.593C23.6303 16.5902 23.6414 16.5875 23.6498 16.5848C23.6637 16.582 23.6804 16.5765 23.6943 16.5738C23.7027 16.5711 23.711 16.5683 23.7194 16.5683C23.7361 16.5628 23.7556 16.5601 23.7723 16.5546C23.7778 16.5546 23.7806 16.5519 23.7862 16.5519C23.8252 16.5409 23.8642 16.53 23.9004 16.519C23.9032 16.519 23.9032 16.519 23.9059 16.5163L24.0145 16.4834C24.0173 16.4834 24.0173 16.4834 24.0201 16.4807L24.0229 16.4807C24.0535 16.4697 24.0814 16.4615 24.1092 16.4505C24.1148 16.4478 24.1176 16.4478 24.1231 16.445C24.151 16.4341 24.1788 16.4259 24.2039 16.4149C24.2067 16.4149 24.2095 16.4122 24.2095 16.4122C24.2122 16.4122 24.215 16.4094 24.2178 16.4094C24.2429 16.4012 24.2679 16.3903 24.2902 16.382C24.293 16.382 24.293 16.3793 24.2958 16.3793C24.3181 16.3711 24.3403 16.3601 24.3626 16.3519C24.3654 16.3519 24.3682 16.3492 24.371 16.3492C24.3737 16.3492 24.3737 16.3492 24.3765 16.3465C24.3988 16.3382 24.4183 16.3273 24.4378 16.3191C24.4434 16.3163 24.4461 16.3163 24.4489 16.3136C24.4684 16.3054 24.4851 16.2971 24.5018 16.2862C24.5046 16.2862 24.5046 16.2834 24.5074 16.2834L24.5102 16.2834C24.5297 16.2752 24.5464 16.2643 24.5631 16.2561C24.5659 16.2533 24.5715 16.2506 24.5742 16.2506C24.5909 16.2424 24.6077 16.2314 24.6216 16.2232L24.6244 16.2232C24.6411 16.215 24.655 16.204 24.6689 16.1958C24.6717 16.193 24.6773 16.1903 24.6801 16.1876C24.694 16.1793 24.7079 16.1684 24.7218 16.1602C24.7357 16.152 24.7469 16.141 24.7608 16.1328L24.7692 16.1246C24.7803 16.1163 24.7914 16.1054 24.8026 16.0972L24.8054 16.0972C24.8165 16.0862 24.8276 16.078 24.836 16.067L24.8443 16.0588L24.8722 16.0314C24.8805 16.0205 24.8889 16.0122 24.8973 16.0013C24.9 15.9985 24.9 15.9958 24.9028 15.9931C24.9112 15.9821 24.9167 15.9739 24.9223 15.9629C24.9279 15.952 24.9335 15.9438 24.939 15.9328C24.939 15.9301 24.9418 15.9273 24.9418 15.9246C24.9474 15.9136 24.9502 15.9027 24.9529 15.8944L24.9529 15.8917L24.9529 15.889L24.9613 15.8561L24.9613 15.8534C24.9641 15.8424 24.9641 15.8314 24.9641 15.8205L24.9641 15.8177L24.9641 15.8068L24.9724 13.8234L24.9724 13.8234ZM15.0677 14.248C15.0704 14.2508 15.0732 14.2508 15.0788 14.2535C15.0732 14.2535 15.0704 14.2508 15.0677 14.248ZM15.193 14.3165C15.1874 14.3138 15.1846 14.311 15.179 14.311C15.1846 14.311 15.1902 14.3138 15.193 14.3165C15.1958 14.3165 15.193 14.3165 15.193 14.3165ZM15.2514 14.3439C15.2487 14.3439 15.2459 14.3412 15.2431 14.3412C15.2459 14.3412 15.2487 14.3439 15.2514 14.3439ZM15.3099 14.3713C15.3016 14.3686 15.2904 14.3631 15.2821 14.3603C15.2932 14.3631 15.3016 14.3658 15.3099 14.3713C15.3127 14.3713 15.3127 14.3713 15.3099 14.3713ZM15.374 14.396C15.3656 14.3932 15.3573 14.3905 15.3489 14.385C15.3573 14.3905 15.3656 14.3932 15.374 14.396ZM15.4074 14.4097C15.4102 14.4097 15.413 14.4124 15.4185 14.4124C15.4157 14.4124 15.4102 14.4124 15.4074 14.4097ZM15.722 14.5192C15.7193 14.5192 15.7165 14.5165 15.7137 14.5165C15.7165 14.5192 15.7193 14.5192 15.722 14.5192ZM15.8 14.5439C15.7889 14.5412 15.7749 14.5357 15.7638 14.5329C15.7749 14.5357 15.7861 14.5412 15.8 14.5439ZM16.2678 14.6644C16.2734 14.6644 16.279 14.6672 16.2845 14.6672C16.279 14.6672 16.2734 14.6644 16.2678 14.6644ZM19.5258 14.9986L19.5007 14.9986C19.5119 14.9959 19.5174 14.9986 19.5258 14.9986ZM20.3584 14.9932L20.3639 14.9932L20.3584 14.9932ZM21.5947 14.9302C21.5585 14.9329 21.5195 14.9356 21.4833 14.9384C21.5195 14.9356 21.5585 14.9329 21.5947 14.9302ZM21.7061 14.9192C21.6866 14.9219 21.6643 14.9219 21.6449 14.9247C21.6671 14.9219 21.6894 14.9219 21.7117 14.9192L21.7061 14.9192ZM21.8175 14.911C21.8036 14.911 21.7897 14.9137 21.7757 14.9137C21.7924 14.911 21.8091 14.911 21.8259 14.9082C21.8231 14.9082 21.8203 14.911 21.8175 14.911ZM21.9623 14.8945C21.9539 14.8945 21.9456 14.8973 21.9372 14.8973C21.9233 14.9 21.9094 14.9 21.8955 14.9C21.9205 14.9 21.9428 14.8973 21.9623 14.8945ZM22.0681 14.8836C22.0514 14.8863 22.0347 14.8863 22.018 14.8891C22.0375 14.8863 22.057 14.8836 22.0765 14.8836L22.0681 14.8836ZM22.1739 14.8726C22.16 14.8754 22.1489 14.8754 22.1349 14.8781C22.1516 14.8754 22.1684 14.8754 22.1851 14.8726L22.1739 14.8726ZM22.277 14.8589C22.2686 14.8589 22.2575 14.8617 22.2491 14.8617C22.263 14.8589 22.2797 14.8589 22.2937 14.8562C22.2881 14.8589 22.2825 14.8589 22.277 14.8589ZM22.4106 14.8425C22.4023 14.8425 22.3911 14.8452 22.3828 14.8452C22.3744 14.8452 22.3661 14.848 22.3577 14.848C22.3772 14.848 22.3967 14.8452 22.4106 14.8425C22.4134 14.8425 22.4134 14.8425 22.4106 14.8425ZM22.5833 14.8206C22.5777 14.8206 22.5721 14.8233 22.5666 14.8233L22.5638 14.8233C22.5749 14.8206 22.586 14.8206 22.5972 14.8178C22.5916 14.8178 22.5888 14.8178 22.5833 14.8206ZM22.9118 14.7685C22.9063 14.7685 22.8979 14.7713 22.8923 14.7713L22.8868 14.7713C22.8979 14.7685 22.9091 14.7685 22.9202 14.7658C22.9174 14.7658 22.9146 14.7685 22.9118 14.7685ZM23.0678 14.7384C23.0678 14.7411 23.0678 14.7411 23.0678 14.7384C23.0706 14.7384 23.0733 14.7384 23.0761 14.7357C23.0733 14.7384 23.0706 14.7384 23.0678 14.7384ZM23.1764 14.7192C23.1736 14.7192 23.1708 14.7192 23.168 14.722L23.1625 14.722C23.1736 14.7192 23.1875 14.7165 23.1987 14.7137C23.1903 14.7165 23.1819 14.7192 23.1764 14.7192ZM23.2878 14.6973C23.2794 14.7 23.2711 14.7 23.2627 14.7028C23.2766 14.7 23.2878 14.6973 23.3017 14.6946C23.2961 14.6946 23.2933 14.6946 23.2878 14.6973ZM23.3824 14.6754C23.3797 14.6754 23.3741 14.6781 23.3713 14.6781C23.3685 14.6781 23.3657 14.6781 23.3629 14.6809C23.3769 14.6781 23.388 14.6754 23.4019 14.6726C23.3936 14.6726 23.388 14.6754 23.3824 14.6754ZM23.4715 14.6562C23.466 14.6562 23.4632 14.6589 23.4576 14.6589C23.4715 14.6562 23.4855 14.6535 23.4966 14.6507C23.491 14.6535 23.4799 14.6535 23.4715 14.6562ZM23.5746 14.6316C23.5662 14.6343 23.5551 14.637 23.5467 14.6398C23.5439 14.6398 23.5412 14.6425 23.5356 14.6425C23.5523 14.6398 23.5662 14.6343 23.5829 14.6316L23.5746 14.6316ZM23.647 14.6124C23.6386 14.6151 23.6275 14.6179 23.6191 14.6206L23.6163 14.6206C23.6303 14.6179 23.647 14.6124 23.6609 14.6096C23.6581 14.6124 23.6525 14.6124 23.647 14.6124ZM23.7194 14.5959C23.7138 14.5987 23.7054 14.5987 23.6999 14.6014C23.7138 14.5987 23.7277 14.5932 23.7416 14.5905C23.7333 14.5905 23.7277 14.5932 23.7194 14.5959ZM23.7862 14.5768C23.7834 14.5768 23.7778 14.5795 23.7751 14.5795C23.7834 14.5768 23.7918 14.574 23.8001 14.574C23.7946 14.574 23.7918 14.5768 23.7862 14.5768ZM23.9087 14.5412C23.9059 14.5412 23.9032 14.5412 23.9032 14.5439C23.9004 14.5439 23.8976 14.5439 23.8976 14.5466C23.9004 14.5439 23.9059 14.5412 23.9087 14.5412C23.9115 14.5412 23.9087 14.5412 23.9087 14.5412ZM24.0257 14.5055C24.0229 14.5055 24.0201 14.5083 24.0173 14.5083C24.0145 14.5083 24.0145 14.5083 24.0118 14.511L24.0368 14.5028C24.0312 14.5028 24.0285 14.5055 24.0257 14.5055ZM24.112 14.4754C24.1092 14.4754 24.1092 14.4754 24.1064 14.4781C24.112 14.4754 24.1148 14.4754 24.1204 14.4727C24.1176 14.4754 24.1148 14.4754 24.112 14.4754ZM24.2234 14.4371C24.2206 14.4398 24.215 14.4398 24.2122 14.4425C24.2178 14.4398 24.2234 14.4371 24.229 14.4371C24.2262 14.4343 24.2234 14.4371 24.2234 14.4371ZM24.3013 14.4069C24.2986 14.4069 24.2986 14.4097 24.2958 14.4097C24.293 14.4124 24.2874 14.4124 24.2846 14.4151C24.293 14.4124 24.3013 14.4097 24.3069 14.4069C24.3041 14.4042 24.3041 14.4042 24.3013 14.4069ZM24.3682 14.3768C24.3682 14.3768 24.3654 14.3768 24.3654 14.3795C24.3682 14.3795 24.371 14.3768 24.3737 14.3768L24.3682 14.3768ZM24.4545 14.3384C24.4517 14.3384 24.4517 14.3412 24.4489 14.3412C24.4517 14.3384 24.4545 14.3384 24.4573 14.3357C24.4573 14.3384 24.4545 14.3384 24.4545 14.3384ZM24.513 14.311C24.5102 14.311 24.5074 14.3138 24.5074 14.3138C24.5074 14.3138 24.5046 14.3138 24.5046 14.3165C24.5102 14.3138 24.5185 14.311 24.5241 14.3056C24.5213 14.3056 24.5185 14.3083 24.513 14.311ZM24.5798 14.2754C24.577 14.2782 24.5715 14.2809 24.5687 14.2809C24.5659 14.2809 24.5659 14.2836 24.5631 14.2836L24.5798 14.2754ZM24.6299 14.2453C24.6299 14.248 24.6271 14.248 24.6299 14.2453C24.6244 14.248 24.6216 14.2508 24.6188 14.2508C24.6216 14.2508 24.6271 14.248 24.6299 14.2453ZM24.6856 14.2124C24.6856 14.2124 24.6856 14.2097 24.6856 14.2124C24.6856 14.2097 24.6856 14.2097 24.6856 14.2124ZM24.7274 14.1823C24.7246 14.185 24.7246 14.185 24.7218 14.185C24.7274 14.1823 24.7302 14.1795 24.7357 14.1741L24.7274 14.1823ZM24.7747 14.1467L24.7664 14.1549C24.7664 14.1549 24.7636 14.1549 24.7636 14.1576C24.7692 14.1549 24.7719 14.1494 24.7775 14.1467C24.7775 14.1439 24.7747 14.1467 24.7747 14.1467ZM24.8109 14.1165C24.8081 14.1193 24.8081 14.1193 24.8109 14.1165L24.8026 14.1248C24.8081 14.122 24.8109 14.1165 24.8165 14.1138C24.8137 14.1138 24.8109 14.1165 24.8109 14.1165ZM24.8416 14.0891L24.8388 14.0919L24.8443 14.0864C24.8416 14.0864 24.8416 14.0864 24.8416 14.0891ZM24.875 14.0508C24.875 14.0508 24.8778 14.0508 24.875 14.0508C24.8778 14.0508 24.875 14.0508 24.875 14.0508ZM24.9056 14.0124C24.9056 14.0152 24.9028 14.0152 24.9028 14.0179C24.9056 14.0152 24.9056 14.0124 24.9084 14.0097C24.9056 14.0097 24.9056 14.0124 24.9056 14.0124ZM24.9251 13.9823C24.9223 13.985 24.9223 13.9878 24.9195 13.9878C24.9223 13.985 24.9251 13.9796 24.9251 13.9768C24.9279 13.9768 24.9279 13.9796 24.9251 13.9823ZM24.9446 13.944C24.9446 13.9467 24.9418 13.9494 24.9418 13.9522C24.9418 13.9522 24.9418 13.9549 24.939 13.9549C24.9418 13.9494 24.9446 13.9467 24.9446 13.944ZM24.9585 13.9111C24.9585 13.9138 24.9585 13.9138 24.9585 13.9111C24.9585 13.9138 24.9585 13.9138 24.9585 13.9111ZM24.9697 13.87L24.9697 13.8727C24.9697 13.87 24.9697 13.8673 24.9724 13.8618C24.9697 13.8673 24.9697 13.87 24.9697 13.87ZM24.9724 13.8371C24.9724 13.8371 24.9724 13.8399 24.9724 13.8371L24.9724 13.8234L24.9724 13.8371Z"></path></g></svg>