<svg xmlns="http://www.w3.org/2000/svg" xmlns:xlink="http://www.w3.org/1999/xlink" width="25.438720703125" height="25" viewBox="0 0 25.438720703125 25" fill="none"><g opacity="1"  transform="translate(0 0)"><path id="路径 1" fill-rule="evenodd" style="fill:#153E8B" opacity="1" d="M21.6214 0L3.81732 0C1.7178 0 0 1.6875 0 3.75001L0 21.25C0 23.3125 1.7178 25 3.81732 25L21.6214 25C23.7209 25 25.4387 23.3125 25.4387 21.25L25.4387 3.75001C25.4387 1.6875 23.7209 0 21.6214 0ZM24.1662 21.25C24.1662 22.6287 23.0249 23.75 21.6214 23.75L3.81732 23.75C2.41382 23.75 1.27245 22.6287 1.27245 21.25L1.27245 3.75001C1.27245 2.37124 2.41382 1.25 3.81732 1.25L21.6214 1.25C23.0249 1.25 24.1662 2.37124 24.1662 3.75001L24.1662 21.25Z"></path><path id="路径 2" fill-rule="evenodd" style="fill:#146AE4" opacity="1" d="M6.35718 19.9998L19.0816 19.9998L19.0816 21.2498L6.35718 21.2498L6.35718 19.9998ZM12.302 12.8998L12.302 15.3735C12.302 16.2848 13.0528 17.0223 13.9791 17.0223L17.3397 17.0223C18.2672 17.0223 19.0167 16.2848 19.0167 15.3735L19.0167 12.0748C19.0167 11.1635 18.266 10.4248 17.3397 10.4248L16.5215 10.4248C16.5215 11.7898 15.3903 12.8998 14.002 12.8998L12.302 12.8998Z"></path><path id="路径 3" fill-rule="evenodd" style="fill:#153E8B" opacity="1" d="M10.6444 12.075L14.0024 12.075C14.93 12.075 15.682 11.3375 15.682 10.425L15.682 7.12628C15.682 7.09929 15.6813 7.07232 15.6799 7.04536C15.6786 7.0184 15.6765 6.99149 15.6738 6.96463C15.6711 6.93778 15.6677 6.911 15.6637 6.88431C15.6596 6.85761 15.6549 6.83103 15.6495 6.80455C15.6442 6.77809 15.6381 6.75177 15.6314 6.72559C15.6247 6.69942 15.6174 6.67341 15.6094 6.64758C15.6014 6.62176 15.5928 6.59615 15.5835 6.57074C15.5742 6.54534 15.5643 6.52017 15.5538 6.49523C15.5433 6.4703 15.5321 6.44564 15.5204 6.42124C15.5086 6.39685 15.4962 6.37277 15.4833 6.34897C15.4703 6.32518 15.4568 6.30171 15.4426 6.27856C15.4285 6.25541 15.4138 6.23261 15.3985 6.21018C15.3832 6.18775 15.3674 6.1657 15.351 6.14404C15.3347 6.12236 15.3177 6.10109 15.3003 6.08023C15.2829 6.05937 15.2649 6.03895 15.2464 6.01897C15.228 5.99898 15.209 5.97944 15.1896 5.96037C15.1702 5.94129 15.1503 5.92269 15.1299 5.90457C15.1096 5.88645 15.0888 5.86883 15.0675 5.85172C15.0463 5.8346 15.0246 5.818 15.0025 5.80193C14.9804 5.78587 14.958 5.77034 14.9352 5.75533C14.9123 5.74035 14.8891 5.72592 14.8655 5.71207C14.8419 5.69819 14.818 5.6849 14.7938 5.67219C14.7696 5.65946 14.745 5.64733 14.7202 5.6358C14.6954 5.62427 14.6702 5.61334 14.6449 5.60301C14.6195 5.59268 14.5938 5.58297 14.568 5.5739C14.5421 5.5648 14.516 5.55634 14.4897 5.54852C14.4634 5.54068 14.437 5.53348 14.4103 5.52693C14.3837 5.52037 14.3568 5.51447 14.3299 5.5092C14.303 5.50394 14.2759 5.49933 14.2487 5.49537C14.2216 5.49141 14.1943 5.48811 14.1669 5.48546C14.1396 5.48281 14.1122 5.48083 14.0848 5.47953C14.0573 5.4782 14.0299 5.47754 14.0024 5.47754L10.6444 5.47754C9.7168 5.47754 8.96478 6.21502 8.96478 7.12628L8.96478 10.425C8.96478 11.3375 9.71806 12.075 10.6444 12.075ZM9.80458 7.12628C9.80458 6.67253 10.1825 6.30254 10.6444 6.30254L14.0024 6.30254C14.0161 6.30254 14.0298 6.30287 14.0436 6.30353C14.0573 6.30418 14.071 6.30516 14.0846 6.30649C14.0983 6.30781 14.1119 6.30946 14.1255 6.31143C14.1391 6.31341 14.1526 6.31572 14.1661 6.31836C14.1795 6.32099 14.1929 6.32393 14.2062 6.32719C14.2196 6.33047 14.2328 6.33407 14.2459 6.33799C14.2591 6.34189 14.2721 6.34612 14.2851 6.35066C14.298 6.35519 14.3108 6.36004 14.3235 6.36522C14.3362 6.37038 14.3487 6.37583 14.3611 6.38157C14.3736 6.38734 14.3858 6.3934 14.3979 6.39976C14.41 6.40611 14.422 6.41275 14.4338 6.41968C14.4456 6.42661 14.4572 6.43382 14.4686 6.4413C14.48 6.44878 14.4912 6.45655 14.5023 6.46458C14.5133 6.47261 14.5241 6.48089 14.5347 6.48945C14.5453 6.49799 14.5558 6.50679 14.5659 6.51585C14.5761 6.52489 14.5861 6.53419 14.5958 6.54373C14.6055 6.55325 14.615 6.56301 14.6242 6.573C14.6334 6.58299 14.6424 6.59319 14.6511 6.60361C14.6599 6.61403 14.6683 6.62466 14.6765 6.63549C14.6847 6.64631 14.6926 6.65732 14.7002 6.66852C14.7079 6.67973 14.7152 6.69112 14.7223 6.70268C14.7294 6.71425 14.7362 6.72598 14.7426 6.73787C14.7491 6.74975 14.7553 6.76179 14.7612 6.77399C14.7671 6.78618 14.7727 6.7985 14.7779 6.81094C14.7832 6.8234 14.7881 6.83598 14.7928 6.84867C14.7974 6.86137 14.8017 6.87416 14.8057 6.88707C14.8098 6.89998 14.8134 6.91297 14.8168 6.92604C14.8201 6.93913 14.8232 6.95228 14.8259 6.96549C14.8286 6.97872 14.8309 6.99201 14.8329 7.00535C14.835 7.01868 14.8367 7.03207 14.838 7.04549C14.8394 7.05892 14.8405 7.07237 14.8411 7.08583C14.8418 7.09931 14.8422 7.11279 14.8422 7.12628L14.8422 10.425C14.8422 10.4385 14.8419 10.452 14.8412 10.4655C14.8405 10.479 14.8395 10.4924 14.8382 10.5059C14.8368 10.5193 14.8351 10.5327 14.8331 10.5461C14.8311 10.5594 14.8288 10.5727 14.826 10.586C14.8234 10.5992 14.8204 10.6124 14.817 10.6255C14.8137 10.6386 14.81 10.6516 14.806 10.6645C14.802 10.6774 14.7978 10.6903 14.7931 10.703C14.7885 10.7157 14.7835 10.7283 14.7783 10.7407C14.773 10.7532 14.7675 10.7655 14.7616 10.7778C14.7557 10.79 14.7495 10.802 14.743 10.8139C14.7366 10.8258 14.7298 10.8376 14.7227 10.8492C14.7157 10.8607 14.7083 10.8722 14.7006 10.8834C14.693 10.8946 14.6851 10.9056 14.6769 10.9165C14.6687 10.9273 14.6603 10.9379 14.6516 10.9484C14.6429 10.9588 14.6339 10.969 14.6247 10.9791C14.6154 10.9891 14.606 10.9989 14.5962 11.0084C14.5865 11.0179 14.5766 11.0272 14.5664 11.0363C14.5562 11.0454 14.5458 11.0542 14.5351 11.0627C14.5245 11.0713 14.5137 11.0796 14.5027 11.0877C14.4916 11.0957 14.4804 11.1035 14.469 11.111C14.4575 11.1185 14.4459 11.1257 14.4341 11.1327C14.4224 11.1396 14.4104 11.1462 14.3983 11.1526C14.3862 11.159 14.3739 11.165 14.3614 11.1708C14.349 11.1766 14.3365 11.182 14.3238 11.1872C14.3111 11.1924 14.2983 11.1973 14.2853 11.2018C14.2724 11.2063 14.2593 11.2106 14.2462 11.2145C14.233 11.2184 14.2198 11.222 14.2064 11.2253C14.1931 11.2286 14.1797 11.2315 14.1662 11.2342C14.1527 11.2368 14.1392 11.2391 14.1256 11.2411C14.112 11.2431 14.0984 11.2447 14.0847 11.2461C14.071 11.2474 14.0573 11.2484 14.0436 11.249C14.0299 11.2497 14.0161 11.25 14.0024 11.25L10.6444 11.25C10.6307 11.25 10.6169 11.2496 10.6032 11.2489C10.5895 11.2482 10.5758 11.2472 10.5622 11.2458C10.5485 11.2445 10.5349 11.2428 10.5213 11.2408C10.5077 11.2388 10.4942 11.2364 10.4808 11.2338C10.4673 11.2311 10.4539 11.2281 10.4406 11.2248C10.4273 11.2215 10.414 11.2179 10.4009 11.2139C10.3878 11.21 10.3748 11.2058 10.3618 11.2012C10.3489 11.1966 10.3361 11.1917 10.3234 11.1866C10.3107 11.1814 10.2982 11.1759 10.2858 11.1701C10.2734 11.1643 10.2611 11.1582 10.249 11.1519C10.2369 11.1455 10.225 11.1389 10.2132 11.1319C10.2014 11.1249 10.1899 11.1177 10.1784 11.1102C10.167 11.1027 10.1558 11.0949 10.1448 11.0869C10.1338 11.0789 10.1229 11.0706 10.1123 11.062C10.1017 11.0534 10.0913 11.0446 10.0811 11.0356C10.071 11.0265 10.061 11.0172 10.0513 11.0077C10.0416 10.9981 10.0321 10.9884 10.0229 10.9784C10.0137 10.9684 10.0047 10.9582 9.996 10.9477C9.98731 10.9373 9.97883 10.9267 9.97063 10.9158C9.96246 10.905 9.95456 10.894 9.9469 10.8828C9.93927 10.8716 9.93192 10.8602 9.92484 10.8486C9.91779 10.8371 9.91101 10.8253 9.9045 10.8134C9.89802 10.8016 9.89184 10.7895 9.88594 10.7773C9.88006 10.7651 9.87448 10.7528 9.86921 10.7403C9.86393 10.7279 9.85896 10.7153 9.85431 10.7026C9.84966 10.6899 9.84534 10.6771 9.84132 10.6642C9.83733 10.6513 9.83364 10.6384 9.83025 10.6253C9.82692 10.6122 9.82388 10.599 9.82115 10.5858C9.81844 10.5726 9.81606 10.5593 9.81401 10.5459C9.81196 10.5326 9.81024 10.5192 9.80887 10.5058C9.80751 10.4924 9.80644 10.4789 9.80573 10.4655C9.80502 10.452 9.80464 10.4385 9.80458 10.425L9.80458 7.12628ZM7.85902 15.8475C7.81449 15.875 7.64019 16.0888 7.28007 16.4488C6.93906 16.7538 7.01921 16.8488 7.41878 16.9C8.1695 16.9725 10.3288 17.0238 10.3288 17.0238C10.3288 17.0238 10.1469 15.0313 10.068 14.2975C10.0451 13.8538 10.026 13.7675 9.60863 14.1513C9.38648 14.3414 9.17863 14.5455 8.98514 14.7638C8.95844 14.7725 8.25222 14.46 7.7725 13.2675C7.29406 12.0763 7.86668 10.3888 8.12242 9.93753C8.32092 9.72752 8.45072 9.06878 7.81195 9.64628C6.80546 10.63 6.14632 12.0488 6.54206 13.6238C6.90978 15.0888 7.74196 15.795 7.85902 15.8475Z"></path></g></svg>