<svg xmlns="http://www.w3.org/2000/svg" xmlns:xlink="http://www.w3.org/1999/xlink" width="30" height="33.103515625" viewBox="0 0 30 33.103515625" fill="none"><g opacity="1"  transform="translate(0 0)"><path id="路径 1" fill-rule="evenodd" style="fill:#153E8B" opacity="1" d="M25.0345 20.6897C24.4138 21.3103 24 21.931 23.5862 22.7586C22.1379 25.6552 22.3448 28.7586 22.7586 30.2069C20.4828 31.8621 13.4483 31.8621 11.1724 30.2069L11.1724 26.2759C11.1724 25.6552 10.7586 25.0345 9.51724 25.0345L9.31034 25.0345L8.89655 25.0345C6.62069 25.0345 5.37931 24.6207 5.17241 24.2069C4.96552 22.7586 5.17241 19.6552 5.17241 19.6552C5.17241 18.8276 4.96552 18.6207 4.75862 18.6207C4.75862 18.6207 3.31034 18.2069 2.27586 17.5862C2.06897 17.5862 2.06897 17.3793 1.86207 17.3793L1.86207 16.9655C4.75862 12.8276 4.96552 11.5862 4.96552 11.3793C6.2069 2.48276 13.6552 1.86207 15.931 1.86207L16.7586 1.86207C18.6207 1.86207 27.931 2.27586 27.931 11.1724C28.1379 17.1724 26.2759 19.0345 25.0345 20.6897ZM30 11.1724C30 0.413793 18.2069 9.8656e-07 16.9655 9.8656e-07L16.1379 9.8656e-07C13.4483 9.8656e-07 4.55172 0.827586 3.31034 10.9655C3.31034 10.9655 3.10345 12.2069 0.413793 16.1379C0.413793 16.1379 0 16.7586 0 17.5862C0 18 0.413793 18.4138 1.03448 18.8276C1.86207 19.0345 2.68965 19.4483 3.31034 19.6552C3.31034 20.6897 3.10345 22.9655 3.31034 24.4138C3.72414 26.069 6.41379 26.4828 8.48276 26.4828L9.31034 26.4828L9.31034 30.8276C9.31034 31.0345 9.31034 31.2414 9.51724 31.2414C11.1724 32.4828 14.069 33.1034 16.9655 33.1034C19.8621 33.1034 22.9655 32.4828 24.2069 31.2414C24.4138 31.0345 24.4138 30.8276 24.4138 30.6207C24.4138 30.4138 23.3793 26.6897 25.0345 23.3793L26.2759 21.5172C28.1379 19.8621 30 17.5862 30 11.1724Z"></path><path id="路径 2" fill-rule="evenodd" style="fill:#146AE4" opacity="1" d="M18.8276 13.0344L18.2069 13.0344C18.2069 12.8275 18 12.6206 18 12.4137L18.6207 11.9999C19.0345 11.793 19.0345 11.3792 18.8276 11.1723C18.6207 10.7585 18.2069 10.5516 17.7931 10.7585L17.1725 11.1723C16.9656 10.9654 16.9656 10.7585 16.7587 10.7585L17.1725 10.1378C17.3794 9.72404 17.1725 9.31025 16.9656 9.31025C16.7587 9.31025 15.9311 9.10336 15.7242 9.51715L15.5173 9.93094C15.3104 9.93094 15.1035 9.72404 14.8966 9.72404L14.8966 9.10336C14.8966 8.68956 14.4828 8.48267 14.2759 8.48267C13.6552 8.48267 13.2414 8.89646 13.2414 9.10336L13.2414 9.72404C13.0345 9.72404 12.8276 9.72404 12.6207 9.93094L12.2069 9.51715C12 9.10336 11.5862 8.89646 11.3794 9.10336C10.9656 9.31025 10.7587 9.72404 10.9656 10.1378L11.3794 10.7585C11.1725 10.7585 10.9656 10.9654 10.9656 11.1723L10.3449 10.7585C9.93108 10.5516 9.51728 10.7585 9.31039 10.9654C9.10349 11.3792 9.31039 11.793 9.51728 11.9999L10.138 12.4137C10.138 12.6206 9.93108 12.8275 9.93108 13.0344L9.31039 13.0344C8.89659 13.0344 8.6897 13.2413 8.6897 13.6551C8.6897 14.0689 9.10349 14.2758 9.31039 14.2758L9.93108 14.2758C9.93108 14.4827 10.138 14.6896 10.138 14.8965L9.51728 15.3103C9.31039 15.5171 9.10349 15.9309 9.31039 16.1378C9.51728 16.3447 9.72418 16.5516 9.93108 16.5516L10.3449 16.5516L10.9656 16.1378C10.9656 16.3447 11.1725 16.3447 11.3794 16.5516L10.9656 17.1723C10.7587 17.5861 10.9656 17.9999 11.1725 17.9999L11.5862 17.9999C11.7931 17.9999 12 17.793 12.2069 17.5861L12.6207 16.9654C12.8276 16.9654 13.0345 17.1723 13.2414 17.1723L13.2414 17.793C13.2414 18.2068 13.6552 18.4137 13.8621 18.4137C14.2759 18.4137 14.4828 18.2068 14.4828 17.793L14.4828 17.3792C14.6897 17.3792 14.8966 17.3792 15.1035 17.1723L15.7242 17.793C15.9311 17.9999 16.138 18.2068 16.3449 18.2068L16.7587 18.2068C17.1725 17.9999 17.1725 17.5861 16.9656 17.3792L16.7587 16.5516C16.9656 16.3447 17.1725 16.3447 17.1725 16.1378L17.7931 16.5516L18.2069 16.5516C18.4138 16.5516 18.6207 16.3447 18.8276 16.1378C19.0345 15.724 18.8276 15.3103 18.6207 15.3103L18 14.8965C18 14.6896 18.2069 14.4827 18.2069 14.2758L18.8276 14.2758C19.2414 14.2758 19.4483 14.0689 19.4483 13.6551C19.4483 13.2413 19.2414 13.0344 18.8276 13.0344ZM14.069 16.1378C12.6207 16.1378 11.3794 15.1034 11.3794 13.6551C11.3794 12.2068 12.6207 11.1723 14.069 11.1723C15.5173 11.1723 16.7587 12.2068 16.7587 13.6551C16.7587 15.1034 15.5173 16.1378 14.069 16.1378Z"></path><path id="路径 3" fill-rule="evenodd" style="fill:#146AE4" opacity="1" d="M14.0689 12.8276C13.4482 12.8276 13.0344 13.2414 13.0344 13.6552C13.0344 14.0689 13.4482 14.4827 14.0689 14.4827C14.6896 14.4827 15.1034 14.0689 15.1034 13.6552C15.1034 13.0345 14.4827 12.8276 14.0689 12.8276ZM23.9999 6.82757L23.1724 6.82757C23.1724 6.62067 23.1724 6.62067 22.9655 6.41378L23.5861 5.79309C23.793 5.58619 23.793 5.1724 23.5861 4.7586C23.3792 4.55171 22.7586 4.55171 22.5517 4.7586L21.931 5.37929C21.7241 5.37929 21.7241 5.1724 21.5172 5.1724L21.5172 4.34481C21.5172 3.93102 21.1034 3.72412 20.8965 3.72412C20.4827 3.72412 20.2758 3.93102 20.2758 4.34481L20.2758 5.1724C20.0689 5.1724 20.0689 5.1724 19.862 5.37929L19.0344 4.7586C18.8275 4.55171 18.2068 4.55171 17.9999 4.7586C17.793 4.9655 17.793 5.37929 17.9999 5.79309L18.6206 6.41378C18.6206 6.62067 18.4137 6.62067 18.4137 6.82757L17.5861 6.82757C17.1724 6.82757 16.9655 7.03447 16.9655 7.44826C16.9655 7.86205 17.3793 8.06895 17.5861 8.06895L18.4137 8.06895C18.4137 8.27584 18.4137 8.27584 18.6206 8.48274L17.9999 9.10343C17.793 9.31033 17.793 9.72412 17.9999 10.1379C18.2068 10.3448 18.4137 10.3448 18.4137 10.3448C18.6206 10.3448 18.8275 10.3448 18.8275 10.1379L19.4482 9.51722C19.6551 9.51722 19.6551 9.72412 19.862 9.72412L19.862 10.3448C19.862 10.7586 20.2758 10.9655 20.4827 10.9655C20.8965 10.9655 21.1034 10.7586 21.1034 10.3448L21.1034 9.51722C21.3103 9.51722 21.3103 9.51722 21.5172 9.31033L22.1379 9.93102C22.3448 10.1379 22.5517 10.1379 22.5517 10.1379C22.7586 10.1379 22.9655 10.1379 22.9655 9.93102C23.1724 9.72412 23.1724 9.31033 22.9655 8.89653L22.3448 8.27584C22.3448 8.06895 22.5517 8.06895 22.5517 7.86205L23.9999 7.86205C24.4137 7.86205 24.6206 7.65516 24.6206 7.24136C24.6206 7.03447 24.2068 6.82757 23.9999 6.82757ZM20.6896 8.27584C20.0689 8.27584 19.6551 7.86205 19.6551 7.44826C19.6551 7.03447 20.0689 6.62067 20.6896 6.62067C21.3103 6.62067 21.7241 7.03447 21.7241 7.44826C21.7241 7.86205 21.3103 8.27584 20.6896 8.27584Z"></path><path id="路径 4" fill-rule="evenodd" style="fill:#FFFFFF" opacity="1" d="M20.6898 6.41382C20.0691 6.41382 19.6553 6.82761 19.6553 7.2414C19.6553 7.6552 20.0691 8.06899 20.6898 8.06899C21.3104 8.06899 21.7242 7.6552 21.7242 7.2414C21.7242 6.82761 21.3104 6.41382 20.6898 6.41382Z"></path></g></svg>