<svg xmlns="http://www.w3.org/2000/svg" xmlns:xlink="http://www.w3.org/1999/xlink" width="30" height="29.8662109375" viewBox="0 0 30 29.8662109375" fill="none"><g opacity="1"  transform="translate(0 0)"><path id="路径 2" fill-rule="evenodd" style="fill:#153E8B" opacity="1" d="M15.0694 0C15.3925 0.177848 15.7472 0.362324 16.1266 0.550665L16.5927 0.777669L17.0799 1.00744C17.1627 1.0461 17.2461 1.08421 17.3306 1.12232L17.8443 1.35264C17.9305 1.3913 18.0183 1.42941 18.1061 1.46752L18.6396 1.69563C18.8192 1.7713 19.0003 1.84697 19.1832 1.92153L19.7338 2.14246L20.0111 2.25127L20.5684 2.46391C20.8468 2.56885 21.1262 2.67048 21.4035 2.76935L21.9569 2.96156C23.7923 3.58566 25.5249 4.03639 26.7034 4.10486L26.8765 4.11203L26.8748 13.2215L26.8702 13.5038L26.861 13.8064L26.8511 14.0196L26.8377 14.2405L26.8202 14.4703L26.7982 14.7078L26.7705 14.9536L26.7373 15.2065L26.6975 15.4673L26.6754 15.5998L26.6244 15.8716L26.5665 16.1499C26.5461 16.2438 26.5241 16.3383 26.5004 16.4344L26.4257 16.7254L26.3412 17.0226C25.3758 20.2758 22.6672 24.5751 15.0694 28.6324C8.00137 25.3273 5.16133 21.1788 4.02242 17.8953L3.9175 17.5799C3.88437 17.4761 3.85232 17.3728 3.82195 17.2706L3.7369 16.9674C3.69656 16.8171 3.65955 16.6697 3.62585 16.5244L3.56235 16.2383L3.50655 15.9588L3.45796 15.6876C3.45039 15.6433 3.44303 15.5989 3.43588 15.5545L3.39774 15.2949L3.36573 15.0442L3.33865 14.8017L3.31657 14.5692L3.29226 14.2378L3.27624 13.9285L3.26962 13.7357L3.26245 13.3833L3.26245 4.11203C4.55323 4.07781 6.60566 3.52437 8.73485 2.76935L9.29106 2.56775L9.56997 2.46446L10.1267 2.25127L10.6807 2.03255L11.228 1.80941L11.4987 1.69618L12.0322 1.46752L12.5531 1.23776L13.0584 1.00744L13.3048 0.892553L13.782 0.663891C14.2481 0.436886 14.6817 0.213197 15.0694 0ZM15.0694 1.25267L14.9325 1.32447C11.782 2.95437 7.35461 4.59092 4.56373 5.07475L4.36655 5.10732L4.36655 13.221C4.37207 15.3375 4.72886 17.2275 5.86829 19.3678C7.44187 22.3227 10.2482 24.9782 14.6149 27.1831L15.0374 27.3925L15.1722 27.3184C19.7719 24.7634 22.6832 21.9996 24.275 19.1037L24.3794 18.9104C25.4421 16.8983 25.7475 15.2977 25.7701 13.1398L25.7718 12.8785L25.7718 5.10732L25.5752 5.07475C22.7832 4.59092 18.3558 2.95382 15.2064 1.32447L15.0694 1.25267Z"></path><path id="路径 3" fill-rule="evenodd" style="fill:#146AE4" opacity="1" d="M29.4476 4.81641C29.4559 4.81641 29.4642 4.81659 29.4726 4.81697C29.4811 4.81734 29.4894 4.81791 29.4976 4.81868C29.5059 4.81944 29.5143 4.8204 29.5226 4.82154C29.5309 4.82266 29.5393 4.82397 29.5476 4.82549C29.5557 4.827 29.5638 4.8287 29.5719 4.83059C29.5801 4.83247 29.5882 4.83455 29.5963 4.83681C29.6044 4.83904 29.6124 4.84148 29.6203 4.84411C29.6282 4.84672 29.6361 4.84951 29.644 4.85247C29.6517 4.85545 29.6593 4.85861 29.667 4.86194C29.6747 4.86525 29.6824 4.86874 29.69 4.87241C29.6975 4.87609 29.7049 4.87994 29.7121 4.88395C29.7196 4.88795 29.7268 4.89211 29.7338 4.89646C29.741 4.9008 29.7482 4.9053 29.7552 4.90995C29.762 4.9146 29.7688 4.91941 29.7756 4.92439C29.7824 4.92935 29.789 4.93446 29.7953 4.93972C29.8019 4.94501 29.8083 4.95043 29.8144 4.95598C29.8208 4.96153 29.8269 4.96722 29.8328 4.97305C29.839 4.97889 29.8449 4.98486 29.8506 4.99098C29.8563 4.99708 29.8619 5.0033 29.8674 5.00964C29.8727 5.016 29.8779 5.02248 29.8832 5.02908C29.8882 5.03569 29.8932 5.0424 29.898 5.04922C29.9028 5.05604 29.9075 5.06296 29.9121 5.06998C29.9167 5.07702 29.9211 5.08416 29.9253 5.0914C29.9295 5.09862 29.9335 5.10593 29.9375 5.11335C29.9412 5.12078 29.9448 5.12828 29.9483 5.13585C29.9518 5.14344 29.9552 5.15111 29.9585 5.15885C29.9616 5.16657 29.9646 5.17437 29.9674 5.18224C29.9703 5.19012 29.9729 5.19806 29.9753 5.20607C29.9777 5.21405 29.98 5.22209 29.9822 5.23018C29.9844 5.23828 29.9863 5.24641 29.9878 5.2546C29.9896 5.26278 29.9912 5.271 29.9927 5.27927C29.9941 5.28752 29.9951 5.29579 29.996 5.30408L30 5.36873L30 13.9071C30 16.3053 29.7805 17.9446 28.8698 20.1174C27.5577 23.2468 25.0605 26.2333 21.0678 29.0219C20.7032 29.276 20.3277 29.5284 19.9394 29.7786C19.9318 29.7835 19.9241 29.7881 19.9162 29.7925C19.9084 29.797 19.9005 29.8012 19.8924 29.8053C19.8844 29.8093 19.8763 29.8132 19.8681 29.8169C19.8598 29.8205 19.8515 29.824 19.8431 29.8273C19.8347 29.8305 19.8262 29.8335 19.8177 29.8364C19.8092 29.8392 19.8005 29.8419 19.7919 29.8443C19.7832 29.8467 19.7745 29.8489 19.7657 29.8509C19.7569 29.8529 19.7481 29.8547 19.7393 29.8562C19.7304 29.8578 19.7215 29.8591 19.7125 29.8603C19.7036 29.8614 19.6947 29.8623 19.6857 29.863C19.6767 29.8637 19.6677 29.8641 19.6587 29.8644C19.6497 29.8646 19.6407 29.8647 19.6317 29.8645C19.6227 29.8643 19.6137 29.8639 19.6047 29.8633C19.5958 29.8626 19.5868 29.8618 19.5779 29.8607C19.5689 29.8596 19.56 29.8583 19.5511 29.8568C19.5423 29.8553 19.5334 29.8536 19.5246 29.8517C19.5158 29.8497 19.5071 29.8476 19.4984 29.8452C19.4897 29.8429 19.4811 29.8403 19.4725 29.8375C19.464 29.8347 19.4555 29.8317 19.4471 29.8285C19.4387 29.8253 19.4303 29.8219 19.4221 29.8183C19.4138 29.8147 19.4057 29.8109 19.3976 29.8069C19.3895 29.8028 19.3816 29.7986 19.3737 29.7943C19.3659 29.7898 19.3581 29.7853 19.3505 29.7805C19.3428 29.7757 19.3353 29.7708 19.328 29.7656C19.3206 29.7605 19.3133 29.7551 19.3062 29.7496C19.2991 29.7441 19.2921 29.7385 19.2852 29.7326C19.2784 29.7268 19.2716 29.7208 19.2651 29.7146C19.2586 29.7085 19.2521 29.7021 19.2459 29.6956C19.2396 29.6892 19.2335 29.6826 19.2276 29.6758C19.2217 29.669 19.2159 29.6621 19.2104 29.655C19.2048 29.6479 19.1993 29.6408 19.1941 29.6334C19.1889 29.6261 19.1838 29.6187 19.179 29.6111C19.1741 29.6035 19.1694 29.5958 19.1649 29.588C19.1604 29.5802 19.1561 29.5723 19.152 29.5643C19.1479 29.5563 19.144 29.5482 19.1403 29.54C19.1366 29.5318 19.1331 29.5235 19.1297 29.5151C19.1264 29.5067 19.1233 29.4983 19.1204 29.4898C19.1175 29.4813 19.1149 29.4726 19.1124 29.464C19.1099 29.4553 19.1077 29.4466 19.1056 29.4379C19.1036 29.4291 19.1017 29.4203 19.1001 29.4114C19.0985 29.4026 19.0971 29.3937 19.0959 29.3848C19.0947 29.3758 19.0938 29.3669 19.093 29.3579C19.0923 29.3489 19.0917 29.3399 19.0914 29.3309C19.0911 29.3219 19.091 29.3129 19.0912 29.3039C19.0913 29.2949 19.0917 29.2859 19.0923 29.277C19.0928 29.268 19.0936 29.259 19.0947 29.2501C19.0957 29.2411 19.0969 29.2322 19.0984 29.2233C19.0998 29.2144 19.1015 29.2056 19.1034 29.1968C19.1052 29.188 19.1073 29.1792 19.1096 29.1705C19.1119 29.1618 19.1145 29.1532 19.1172 29.1446C19.1199 29.136 19.1229 29.1275 19.126 29.1191C19.1292 29.1106 19.1325 29.1023 19.1361 29.094C19.1396 29.0857 19.1434 29.0776 19.1474 29.0695C19.1513 29.0614 19.1555 29.0534 19.1598 29.0455C19.1642 29.0376 19.1687 29.0299 19.1734 29.0222C19.1782 29.0145 19.1831 29.007 19.1882 28.9996C19.1933 28.9922 19.1985 28.9849 19.204 28.9777C19.2095 28.9706 19.2151 28.9635 19.2209 28.9566C19.2267 28.9498 19.2326 28.943 19.2388 28.9364C19.2449 28.9298 19.2512 28.9233 19.2576 28.9171C19.2641 28.9108 19.2707 28.9046 19.2774 28.8987C19.2842 28.8927 19.291 28.8869 19.2981 28.8813C19.3051 28.8757 19.3123 28.8702 19.3195 28.8649C19.3268 28.8596 19.3343 28.8545 19.3418 28.8496C19.7109 28.612 20.0754 28.3675 20.4354 28.1161C24.2619 25.444 26.6226 22.6205 27.8508 19.6905C28.6582 17.765 28.877 16.2981 28.8941 14.186L28.8955 13.9071L28.8955 5.36873C28.8955 5.35967 28.8957 5.35064 28.8961 5.34162C28.8965 5.33258 28.8972 5.32357 28.8981 5.31458C28.899 5.30558 28.9001 5.29661 28.9014 5.28766C28.9027 5.27874 28.9042 5.26984 28.906 5.26098C28.9077 5.2521 28.9097 5.24328 28.9119 5.23453C28.9141 5.22575 28.9165 5.21704 28.9192 5.2084C28.9218 5.19974 28.9246 5.19115 28.9277 5.18264C28.9308 5.17413 28.934 5.16569 28.9372 5.15734C28.9408 5.149 28.9445 5.14074 28.9484 5.13256C28.9522 5.1244 28.9562 5.11633 28.9606 5.10835C28.9648 5.10038 28.9692 5.09252 28.9738 5.08475C28.9786 5.07701 28.9834 5.06938 28.9882 5.06186C28.9933 5.05435 28.9985 5.04697 29.004 5.03971C29.0093 5.03245 29.0149 5.02532 29.0208 5.01833C29.0265 5.01133 29.0323 5.00448 29.0383 4.9978C29.0444 4.99111 29.0507 4.98456 29.057 4.97815C29.0634 4.97177 29.0699 4.96554 29.0768 4.95946C29.0833 4.95341 29.0901 4.94751 29.0972 4.94176C29.1042 4.93604 29.1113 4.93048 29.1185 4.92508C29.1258 4.91971 29.1332 4.91451 29.1409 4.90949C29.1484 4.90446 29.1559 4.89963 29.1636 4.89498C29.1715 4.89033 29.1794 4.88587 29.1873 4.88162C29.1952 4.87736 29.2033 4.87329 29.2117 4.86941C29.2198 4.86555 29.228 4.86189 29.2363 4.85842C29.2447 4.85498 29.2531 4.85173 29.2617 4.84868C29.2702 4.84563 29.2788 4.84279 29.2873 4.84016C29.2959 4.83755 29.3045 4.83515 29.3133 4.83296C29.3221 4.83076 29.331 4.82878 29.34 4.827C29.3488 4.82525 29.3576 4.8237 29.3666 4.82236C29.3756 4.82104 29.3846 4.81994 29.3936 4.81904C29.4026 4.81816 29.4116 4.8175 29.4206 4.81706C29.4296 4.81663 29.4386 4.81641 29.4476 4.81641ZM0.552327 4.81641C0.543946 4.81641 0.535579 4.81659 0.527222 4.81697C0.518865 4.81734 0.510531 4.81791 0.502217 4.81868C0.493883 4.81944 0.485568 4.8204 0.477277 4.82154C0.469009 4.82266 0.46076 4.82397 0.452535 4.82549C0.444309 4.827 0.436117 4.8287 0.427957 4.83059C0.41982 4.83247 0.411713 4.83455 0.403642 4.83681C0.395591 4.83904 0.387596 4.84148 0.379657 4.84411C0.371717 4.84672 0.363831 4.84951 0.356 4.85247C0.348192 4.85545 0.340447 4.85861 0.332771 4.86194C0.325095 4.86525 0.317505 4.86875 0.310003 4.87244C0.30248 4.8761 0.295055 4.87994 0.287729 4.88395C0.28038 4.88795 0.273131 4.89211 0.26598 4.89646C0.25883 4.9008 0.251778 4.9053 0.244824 4.90995C0.237871 4.9146 0.231038 4.91941 0.224326 4.92439C0.217592 4.92935 0.210979 4.93446 0.204487 4.93972C0.197994 4.94501 0.191622 4.95043 0.18537 4.95598C0.179119 4.96153 0.172999 4.96722 0.167011 4.97305C0.161023 4.97889 0.155166 4.98486 0.149441 4.99098C0.143716 4.99708 0.138134 5.0033 0.132694 5.00964C0.127255 5.016 0.121968 5.02248 0.116835 5.02908C0.11168 5.03569 0.106691 5.0424 0.101865 5.04922C0.0970173 5.05604 0.0923343 5.06296 0.0878159 5.06998C0.0832974 5.07702 0.078932 5.08416 0.0747209 5.0914C0.0705315 5.09862 0.0665065 5.10593 0.0626458 5.11335C0.0587634 5.12078 0.0550675 5.12828 0.0515575 5.13585C0.0480261 5.14344 0.0446701 5.15111 0.0414895 5.15885C0.0383092 5.16657 0.0353042 5.17437 0.0324743 5.18224C0.0296669 5.19012 0.0270236 5.19806 0.024545 5.20607C0.0220885 5.21405 0.0198072 5.22209 0.0177016 5.23018C0.0156176 5.23828 0.0137094 5.24641 0.0119768 5.2546C0.0102437 5.26278 0.00870848 5.271 0.00737052 5.27927C0.00601048 5.28752 0.0048367 5.29579 0.00384967 5.30408L0 5.36873L0 13.9071C0 16.3053 0.2187 17.9446 1.13005 20.1174C2.44235 23.2468 4.93886 26.2333 8.93159 29.0219C9.29614 29.276 9.67172 29.5284 10.06 29.7786C10.0676 29.7835 10.0753 29.7882 10.0832 29.7927C10.091 29.7972 10.0989 29.8015 10.1069 29.8056C10.115 29.8098 10.1231 29.8137 10.1314 29.8174C10.1396 29.8211 10.1479 29.8246 10.1563 29.8279C10.1648 29.8312 10.1732 29.8343 10.1818 29.8372C10.1904 29.8401 10.199 29.8428 10.2077 29.8453C10.2164 29.8477 10.2251 29.85 10.2339 29.852C10.2427 29.8541 10.2516 29.8559 10.2605 29.8575C10.2694 29.8591 10.2783 29.8605 10.2873 29.8616C10.2962 29.8628 10.3052 29.8637 10.3142 29.8645C10.3232 29.8652 10.3322 29.8657 10.3412 29.866C10.3503 29.8663 10.3593 29.8663 10.3683 29.8662C10.3774 29.866 10.3864 29.8657 10.3954 29.8651C10.4044 29.8644 10.4134 29.8636 10.4224 29.8626C10.4314 29.8615 10.4403 29.8603 10.4492 29.8588C10.4581 29.8573 10.467 29.8556 10.4758 29.8537C10.4847 29.8518 10.4934 29.8496 10.5022 29.8473C10.5109 29.845 10.5196 29.8424 10.5282 29.8396C10.5367 29.8368 10.5453 29.8338 10.5538 29.8306C10.5622 29.8275 10.5706 29.8241 10.5789 29.8205C10.5871 29.8169 10.5953 29.813 10.6034 29.8091C10.6115 29.805 10.6195 29.8008 10.6274 29.7965C10.6353 29.7921 10.6431 29.7875 10.6508 29.7827C10.6584 29.7779 10.666 29.773 10.6734 29.7678C10.6808 29.7626 10.6881 29.7573 10.6953 29.7518C10.7024 29.7463 10.7095 29.7406 10.7164 29.7348C10.7232 29.7289 10.73 29.7229 10.7366 29.7167C10.7432 29.7106 10.7496 29.7042 10.7559 29.6977C10.7622 29.6912 10.7683 29.6846 10.7742 29.6778C10.7802 29.671 10.7859 29.664 10.7916 29.657C10.7972 29.6499 10.8026 29.6426 10.8079 29.6353C10.8131 29.628 10.8182 29.6205 10.8231 29.6129C10.828 29.6053 10.8327 29.5976 10.8372 29.5898C10.8417 29.5819 10.8461 29.574 10.8502 29.5659C10.8543 29.5579 10.8582 29.5498 10.862 29.5415C10.8657 29.5333 10.8692 29.525 10.8725 29.5166C10.8758 29.5082 10.8789 29.4997 10.8818 29.4912C10.8847 29.4826 10.8874 29.474 10.8899 29.4653C10.8924 29.4566 10.8946 29.4478 10.8967 29.439C10.8987 29.4303 10.9005 29.4214 10.9022 29.4125C10.9038 29.4036 10.9052 29.3947 10.9064 29.3857C10.9075 29.3768 10.9085 29.3678 10.9092 29.3588C10.91 29.3498 10.9105 29.3408 10.9108 29.3318C10.9111 29.3227 10.9111 29.3137 10.911 29.3046C10.9108 29.2956 10.9104 29.2866 10.9099 29.2776C10.9093 29.2685 10.9084 29.2596 10.9074 29.2506C10.9064 29.2416 10.9052 29.2327 10.9037 29.2237C10.9022 29.2148 10.9005 29.206 10.8986 29.1971C10.8967 29.1883 10.8946 29.1795 10.8922 29.1708C10.8899 29.1621 10.8873 29.1534 10.8846 29.1448C10.8818 29.1362 10.8788 29.1277 10.8756 29.1192C10.8724 29.1107 10.8691 29.1024 10.8655 29.0941C10.8619 29.0858 10.8581 29.0776 10.8541 29.0695C10.8501 29.0614 10.8459 29.0534 10.8415 29.0455C10.8371 29.0376 10.8326 29.0298 10.8278 29.0221C10.823 29.0145 10.8181 29.0069 10.8129 28.9995C10.8078 28.992 10.8025 28.9847 10.797 28.9776C10.7915 28.9704 10.7858 28.9634 10.7799 28.9565C10.7741 28.9496 10.7681 28.9429 10.7619 28.9362C10.7557 28.9297 10.7494 28.9232 10.7429 28.9169C10.7364 28.9106 10.7298 28.9045 10.723 28.8986C10.7162 28.8926 10.7093 28.8868 10.7022 28.8812C10.6951 28.8756 10.6879 28.8701 10.6806 28.8649C10.6732 28.8596 10.6658 28.8545 10.6582 28.8496C10.289 28.612 9.92451 28.3675 9.56456 28.1161C5.73752 25.444 3.37743 22.6205 2.14854 19.6905C1.34102 17.765 1.12232 16.2981 1.10574 14.186L1.10462 13.9076L1.10462 5.36873C1.10462 5.35967 1.1044 5.35064 1.10396 5.34162C1.10352 5.33258 1.10287 5.32357 1.10199 5.31458C1.10109 5.30558 1.09998 5.29661 1.09866 5.28766C1.09733 5.27874 1.09578 5.26984 1.09403 5.26098C1.09225 5.2521 1.09027 5.24328 1.08807 5.23453C1.08588 5.22575 1.08347 5.21704 1.08087 5.2084C1.07823 5.19974 1.07539 5.19115 1.07234 5.18264C1.06929 5.17413 1.06605 5.16569 1.0626 5.15734C1.05914 5.149 1.05547 5.14074 1.05162 5.13256C1.04773 5.1244 1.04366 5.11633 1.03941 5.10835C1.03515 5.10038 1.0307 5.09252 1.02605 5.08475C1.0214 5.07701 1.01656 5.06938 1.01154 5.06186C1.00652 5.05435 1.00132 5.04697 0.995945 5.03971C0.990549 5.03245 0.984988 5.02532 0.979263 5.01833C0.973539 5.01133 0.967639 5.00448 0.961562 4.9978C0.955485 4.99111 0.949257 4.98456 0.942874 4.97815C0.936468 4.97177 0.92992 4.96554 0.923231 4.95946C0.916542 4.95341 0.909699 4.94751 0.9027 4.94176C0.895702 4.93604 0.888576 4.93048 0.881314 4.92508C0.874053 4.91971 0.866673 4.91451 0.859171 4.90949C0.851646 4.90446 0.844013 4.89963 0.836271 4.89498C0.828506 4.89033 0.820643 4.88587 0.81268 4.88162C0.804695 4.87736 0.796624 4.87329 0.788465 4.86941C0.780282 4.86555 0.772023 4.86189 0.763689 4.85842C0.755332 4.85498 0.746899 4.85173 0.738388 4.84868C0.729876 4.84563 0.721289 4.84279 0.712625 4.84016C0.703982 4.83755 0.695276 4.83515 0.686501 4.83296C0.677749 4.83076 0.668931 4.82878 0.660048 4.827C0.651187 4.82525 0.642291 4.8237 0.633364 4.82236C0.624415 4.82104 0.615443 4.81994 0.60645 4.81904C0.597458 4.81816 0.588443 4.8175 0.579405 4.81706C0.57039 4.81663 0.561365 4.81641 0.552327 4.81641Z"></path><path id="路径 4" fill-rule="evenodd" style="fill:#153E8B" opacity="1" d="M14.6328 4.99867C14.4151 5.11853 14.1798 5.2406 13.9318 5.36266L13.5519 5.54494C13.4226 5.60512 13.2906 5.66533 13.1569 5.72498L12.751 5.90173L12.3378 6.07404C12.2685 6.10229 12.1991 6.13028 12.1296 6.158L11.7126 6.32037C11.643 6.34689 11.574 6.37341 11.5044 6.39881L11.0924 6.54848L10.6875 6.68769C9.75519 6.99974 8.91675 7.2157 8.38706 7.25381L8.27825 7.25933C8.26048 7.25979 8.24274 7.26069 8.22502 7.26203C8.20729 7.26337 8.18961 7.26512 8.17198 7.2673C8.15432 7.26949 8.13674 7.2721 8.11924 7.27513C8.10171 7.27815 8.08427 7.2816 8.06692 7.28546C8.04957 7.28934 8.03232 7.29363 8.01517 7.29832C7.99804 7.30304 7.98103 7.30816 7.96414 7.31369C7.94722 7.31921 7.93047 7.32515 7.91386 7.33149C7.89726 7.3378 7.8808 7.34454 7.86451 7.35169C7.84823 7.35882 7.83213 7.36633 7.81621 7.37423C7.80028 7.38215 7.78456 7.39044 7.76903 7.3991C7.75352 7.40776 7.73822 7.41679 7.72313 7.42618C7.70804 7.43559 7.69319 7.44536 7.67858 7.45549C7.66397 7.46561 7.64961 7.47607 7.63551 7.48688C7.62139 7.4977 7.60754 7.50885 7.59399 7.52034C7.58041 7.53182 7.56712 7.54362 7.55411 7.55575C7.54112 7.56788 7.52843 7.58032 7.51601 7.59306C7.50362 7.60578 7.49153 7.61881 7.47975 7.63215C7.468 7.64546 7.45656 7.65906 7.44544 7.67294C7.43431 7.68681 7.42354 7.70093 7.41313 7.71532C7.40268 7.72971 7.39261 7.74435 7.38289 7.75925C7.37315 7.77412 7.36378 7.78922 7.35479 7.80455C7.3458 7.81989 7.33718 7.83542 7.32893 7.85118C7.32068 7.86693 7.31282 7.88287 7.30534 7.89901C7.29786 7.91514 7.29077 7.93143 7.28408 7.94791C7.27739 7.96438 7.27111 7.981 7.26523 7.99775C7.25933 8.01453 7.25385 8.03145 7.24878 8.04849C7.24371 8.06553 7.23906 8.08268 7.23483 8.09995C7.23057 8.11721 7.22675 8.13456 7.22335 8.152C7.21995 8.16947 7.21696 8.18697 7.2144 8.20458C7.21183 8.22218 7.2097 8.23981 7.20801 8.25751C7.2063 8.27518 7.20502 8.29292 7.20416 8.31069C7.20331 8.32842 7.20288 8.34619 7.20288 8.36399L7.20288 13.7464C7.21394 15.2404 7.49285 16.6361 8.32356 18.1661C9.49339 20.3212 11.5618 22.1952 14.6974 23.6672C14.7168 23.6763 14.7364 23.6849 14.7563 23.6929C14.7762 23.7008 14.7963 23.7083 14.8167 23.7151C14.837 23.7219 14.8575 23.7281 14.8782 23.7337C14.8989 23.7393 14.9198 23.7443 14.9408 23.7487C14.9618 23.7531 14.9829 23.7569 15.0041 23.7601C15.0253 23.7633 15.0466 23.7658 15.0679 23.7677C15.0893 23.7697 15.1107 23.771 15.1321 23.7717C15.1535 23.7724 15.175 23.7724 15.1964 23.7718C15.2179 23.7713 15.2393 23.7701 15.2606 23.7683C15.282 23.7665 15.3033 23.7641 15.3246 23.761C15.3458 23.758 15.3669 23.7543 15.3879 23.75C15.4089 23.7458 15.4298 23.7409 15.4505 23.7354C15.4713 23.7299 15.4918 23.7238 15.5122 23.7171C15.5326 23.7104 15.5527 23.7031 15.5727 23.6953C15.5926 23.6874 15.6123 23.679 15.6318 23.67C15.6512 23.6609 15.6704 23.6514 15.6893 23.6412C21.2689 20.6493 23.0612 17.4773 23.1291 13.7652L23.1313 13.4304L23.1313 8.36399C23.1314 8.34711 23.131 8.3302 23.1302 8.31332C23.1294 8.29644 23.1283 8.27959 23.1267 8.26278C23.1252 8.24597 23.1233 8.22919 23.1209 8.21244C23.1186 8.19569 23.1159 8.17904 23.1129 8.16243C23.1098 8.1458 23.1063 8.12926 23.1025 8.11281C23.0986 8.09636 23.0944 8.08001 23.0898 8.06376C23.0853 8.0475 23.0803 8.03136 23.075 8.01532C23.0697 7.99929 23.064 7.98339 23.0579 7.96762C23.0518 7.95185 23.0454 7.93622 23.0387 7.92073C23.0319 7.90527 23.0247 7.88996 23.0173 7.8748C23.0098 7.85964 23.002 7.84467 22.9938 7.82989C22.9857 7.8151 22.9772 7.80051 22.9683 7.78609C22.9595 7.77168 22.9503 7.75749 22.9408 7.74352C22.9314 7.72955 22.9216 7.71579 22.9115 7.70226C22.9013 7.68873 22.8909 7.67544 22.8802 7.66238C22.8695 7.64933 22.8585 7.63653 22.8471 7.62399C22.8358 7.61144 22.8242 7.59916 22.8124 7.58714C22.8005 7.57512 22.7883 7.56338 22.7759 7.55193C22.7635 7.54046 22.7508 7.52928 22.7379 7.5184C22.725 7.50752 22.7118 7.49695 22.6984 7.48669C22.685 7.47642 22.6713 7.46646 22.6575 7.45681C22.6436 7.44716 22.6295 7.43784 22.6152 7.42884C22.6009 7.41983 22.5865 7.41115 22.5718 7.40282C22.557 7.39448 22.5422 7.38649 22.5271 7.37883C22.5121 7.37118 22.4968 7.36387 22.4814 7.35692C22.466 7.34997 22.4505 7.34337 22.4348 7.33715C22.4191 7.33089 22.4033 7.32502 22.3873 7.31951C22.3713 7.31398 22.3553 7.30884 22.339 7.30408C22.3228 7.2993 22.3065 7.29489 22.2901 7.29085C22.2737 7.28682 22.2572 7.28316 22.2407 7.2799C22.2241 7.27663 22.2074 7.27374 22.1907 7.27124C22.174 7.26872 22.1573 7.26659 22.1405 7.26486L22.056 7.25933C21.6748 7.2494 21.0949 7.12677 20.4178 6.92959L20.04 6.81525C19.8467 6.75452 19.6478 6.68934 19.4451 6.61975L19.0364 6.47505L18.6211 6.32037C18.5516 6.29396 18.4822 6.26727 18.4128 6.24029L17.9958 6.07404L17.7887 5.98843L17.3789 5.81391C17.1756 5.72554 16.9757 5.63496 16.7824 5.54438L16.4018 5.3621C16.1655 5.24653 15.932 5.12538 15.7015 4.99867C15.6913 4.99305 15.681 4.98759 15.6707 4.98228C15.6604 4.97699 15.6499 4.97186 15.6394 4.96688C15.6289 4.96193 15.6183 4.95713 15.6077 4.95251C15.597 4.94785 15.5863 4.94338 15.5755 4.93908C15.5647 4.93478 15.5538 4.93066 15.5429 4.92671C15.532 4.92276 15.521 4.91899 15.51 4.91539C15.4989 4.91177 15.4878 4.90834 15.4767 4.90509C15.4655 4.90182 15.4543 4.89874 15.443 4.89585C15.4318 4.89293 15.4205 4.8902 15.4091 4.88766C15.3978 4.88511 15.3864 4.88275 15.375 4.88058C15.3636 4.87839 15.3522 4.87638 15.3407 4.87456C15.3292 4.87272 15.3177 4.87107 15.3062 4.86962C15.2946 4.86816 15.2831 4.86687 15.2715 4.86578C15.26 4.86468 15.2484 4.86376 15.2368 4.86301C15.2252 4.86229 15.2136 4.86174 15.202 4.86137C15.1903 4.86102 15.1787 4.86084 15.1671 4.86084C15.1555 4.86084 15.1439 4.86102 15.1322 4.86137C15.1206 4.86174 15.109 4.86229 15.0974 4.86301C15.0858 4.86376 15.0742 4.86468 15.0627 4.86578C15.0511 4.86687 15.0396 4.86816 15.028 4.86962C15.0165 4.87107 15.005 4.87272 14.9935 4.87456C14.982 4.87638 14.9706 4.87839 14.9592 4.88058C14.9478 4.88275 14.9364 4.88511 14.9251 4.88766C14.9137 4.8902 14.9024 4.89293 14.8912 4.89585C14.8799 4.89874 14.8687 4.90182 14.8576 4.90509C14.8464 4.90834 14.8353 4.91177 14.8243 4.91539C14.8132 4.91899 14.8022 4.92276 14.7913 4.92671C14.7804 4.93066 14.7695 4.93478 14.7587 4.93908C14.7479 4.94338 14.7372 4.94785 14.7265 4.95251C14.7159 4.95713 14.7053 4.96193 14.6948 4.96688C14.6843 4.97186 14.6738 4.97699 14.6635 4.98228C14.6532 4.98759 14.6429 4.99305 14.6327 4.99867L14.6328 4.99867ZM15.1674 5.96523C16.9144 6.93071 20.251 8.2408 21.8792 8.35681L22.0267 8.36399L22.0245 13.7668L22.0145 14.0927L21.9958 14.3815L21.982 14.5351L21.9543 14.7753L21.93 14.9427L21.9007 15.115L21.8665 15.2918L21.8268 15.474L21.7809 15.6613L21.7555 15.7563L21.6997 15.9496L21.6688 16.0479L21.6025 16.2478L21.5655 16.3489L21.4865 16.5549C21.4589 16.624 21.4302 16.6936 21.3993 16.7643L21.3032 16.9769C21.2695 17.0487 21.2341 17.1205 21.1971 17.1929L21.0811 17.4121C20.9607 17.6331 20.8248 17.8578 20.6713 18.0871L20.5122 18.3168C20.4846 18.3555 20.457 18.3942 20.4283 18.4328L20.2504 18.6664C19.953 19.0442 19.6326 19.4013 19.2894 19.738L19.0364 19.9799C18.0831 20.8691 16.8254 21.7782 15.1674 22.6675C12.6913 21.5054 11.1089 20.1638 10.0971 18.862L9.91921 18.6261C9.71874 18.3511 9.54363 18.0788 9.39008 17.8104L9.26304 17.5817C9.22325 17.507 9.18459 17.4317 9.14706 17.3558L9.04102 17.1321L8.9913 17.0216L8.89852 16.8029C8.86924 16.7311 8.84163 16.6593 8.81511 16.5875L8.73944 16.3765C8.72762 16.3418 8.71602 16.307 8.70466 16.2721L8.6406 16.0667L8.58424 15.8662L8.55828 15.7679L8.51136 15.5745L8.47102 15.3862L8.43621 15.2039L8.40696 15.0272L8.38209 14.856L8.35337 14.6124L8.33293 14.3837L8.31638 14.1048L8.30809 13.801L8.30753 8.36399C9.87282 8.32256 13.3646 6.96108 15.1674 5.96523Z"></path><path id="路径 5" fill-rule="evenodd" style="fill:#146AE4" opacity="1" d="M15.4226 14.0583L15.4226 22.5287L15.1674 22.6674C11.9125 21.1396 10.2009 19.3021 9.30173 17.6523L9.1813 17.4231C9.16224 17.3854 9.14347 17.3477 9.12498 17.3098L9.01946 17.0851L8.92335 16.863C8.89341 16.7907 8.86451 16.718 8.83666 16.6448L8.75822 16.4305C8.73387 16.3609 8.71049 16.2909 8.68807 16.2206L8.62565 16.0147C8.61587 15.981 8.6063 15.9473 8.59693 15.9136L8.54501 15.7147L8.49974 15.5209L8.46052 15.3331L8.42739 15.1502L8.39866 14.9735L8.37491 14.8034L8.35612 14.6399L8.33404 14.4079L8.32022 14.192L8.3147 14.0578L15.4226 14.0583ZM15.464 6.12476C15.6971 6.24626 15.9517 6.37218 16.2207 6.49921L16.6349 6.69034C16.9889 6.84939 17.3612 7.00791 17.7406 7.16035L18.1991 7.34042C19.5788 7.87008 20.9889 8.29372 21.8831 8.3567L22.0267 8.36387L22.0267 13.5911C22.0256 13.7744 22.0222 13.9854 22.0073 14.2207L15.4651 14.2207L15.464 6.12476Z"></path><path id="路径 6" fill-rule="evenodd" style="fill:#146AE4" opacity="1" d="M12.4826 23.5842C12.4969 23.5842 12.5111 23.5846 12.5254 23.5853C12.5397 23.586 12.5539 23.587 12.5681 23.5884C12.5823 23.5898 12.5965 23.5916 12.6106 23.5937C12.6248 23.5958 12.6388 23.5982 12.6529 23.601C12.6668 23.6038 12.6808 23.6069 12.6946 23.6104C12.7085 23.6138 12.7222 23.6176 12.7359 23.6218C12.7496 23.6259 12.7631 23.6304 12.7766 23.6352C12.7901 23.64 12.8034 23.6452 12.8165 23.6506C12.8297 23.6561 12.8428 23.6619 12.8557 23.668C12.8686 23.6741 12.8814 23.6805 12.894 23.6873C12.9066 23.694 12.919 23.701 12.9312 23.7084C12.9435 23.7157 12.9556 23.7234 12.9674 23.7313C12.9793 23.7392 12.991 23.7474 13.0024 23.756C13.0139 23.7645 13.0252 23.7732 13.0362 23.7823C13.0473 23.7914 13.0581 23.8007 13.0686 23.8103C13.0792 23.8199 13.0896 23.8297 13.0997 23.8398C13.1098 23.8499 13.1196 23.8603 13.1292 23.8708C13.1388 23.8814 13.1481 23.8922 13.1572 23.9033C13.1662 23.9143 13.175 23.9255 13.1835 23.937C13.1921 23.9485 13.2003 23.9602 13.2082 23.9721C13.2161 23.9839 13.2238 23.996 13.2311 24.0083C13.2384 24.0205 13.2455 24.0329 13.2522 24.0455C13.259 24.0581 13.2654 24.0708 13.2715 24.0838C13.2776 24.0967 13.2834 24.1097 13.2889 24.1229C13.2943 24.1361 13.2994 24.1494 13.3043 24.1629C13.3091 24.1764 13.3135 24.1899 13.3177 24.2036C13.3218 24.2172 13.3256 24.231 13.3291 24.2449C13.3326 24.2587 13.3357 24.2726 13.3385 24.2866C13.3413 24.3006 13.3437 24.3147 13.3458 24.3288C13.3479 24.343 13.3497 24.3571 13.3511 24.3714C13.3525 24.3855 13.3535 24.3998 13.3542 24.4141C13.3549 24.4283 13.3553 24.4426 13.3553 24.4569C13.3553 24.4712 13.3549 24.4854 13.3542 24.4997C13.3535 24.514 13.3525 24.5282 13.3511 24.5424C13.3497 24.5566 13.3479 24.5708 13.3458 24.5849C13.3437 24.599 13.3413 24.6131 13.3385 24.6271C13.3357 24.6411 13.3326 24.6551 13.3291 24.6689C13.3256 24.6828 13.3218 24.6965 13.3177 24.7102C13.3135 24.7239 13.3091 24.7374 13.3043 24.7509C13.2994 24.7643 13.2943 24.7776 13.2889 24.7908C13.2834 24.804 13.2776 24.8171 13.2715 24.83C13.2654 24.8429 13.259 24.8556 13.2522 24.8682C13.2455 24.8808 13.2384 24.8933 13.2311 24.9055C13.2238 24.9178 13.2161 24.9298 13.2082 24.9417C13.2003 24.9536 13.1921 24.9652 13.1835 24.9767C13.175 24.9882 13.1662 24.9995 13.1572 25.0105C13.1481 25.0215 13.1388 25.0324 13.1292 25.0429C13.1196 25.0535 13.1098 25.0639 13.0997 25.074C13.0896 25.0841 13.0792 25.0939 13.0686 25.1035C13.0581 25.1131 13.0473 25.1224 13.0362 25.1315C13.0252 25.1405 13.0139 25.1493 13.0024 25.1578C12.991 25.1663 12.9793 25.1745 12.9674 25.1825C12.9556 25.1904 12.9435 25.1981 12.9312 25.2054C12.919 25.2127 12.9066 25.2198 12.894 25.2265C12.8814 25.2333 12.8686 25.2397 12.8557 25.2458C12.8428 25.2519 12.8297 25.2576 12.8165 25.2631C12.8034 25.2686 12.7901 25.2737 12.7766 25.2785C12.7631 25.2833 12.7496 25.2878 12.7359 25.292C12.7222 25.2961 12.7085 25.2999 12.6946 25.3034C12.6808 25.3069 12.6668 25.31 12.6529 25.3128C12.6388 25.3156 12.6248 25.318 12.6106 25.3201C12.5965 25.3222 12.5823 25.3239 12.5681 25.3254C12.5539 25.3268 12.5397 25.3278 12.5254 25.3285C12.5111 25.3292 12.4969 25.3296 12.4826 25.3296C12.4683 25.3296 12.454 25.3292 12.4398 25.3285C12.4255 25.3278 12.4113 25.3268 12.3971 25.3254C12.3829 25.3239 12.3687 25.3222 12.3545 25.3201C12.3404 25.318 12.3263 25.3156 12.3124 25.3128C12.2983 25.31 12.2844 25.3069 12.2706 25.3034C12.2567 25.2999 12.2429 25.2961 12.2293 25.292C12.2156 25.2878 12.2021 25.2833 12.1886 25.2785C12.1752 25.2737 12.1618 25.2686 12.1486 25.2631C12.1354 25.2576 12.1224 25.2519 12.1095 25.2458C12.0965 25.2397 12.0838 25.2333 12.0712 25.2265C12.0586 25.2198 12.0462 25.2127 12.034 25.2054C12.0217 25.1981 12.0097 25.1904 11.9978 25.1825C11.9859 25.1745 11.9742 25.1663 11.9627 25.1578C11.9513 25.1493 11.94 25.1405 11.929 25.1315C11.918 25.1224 11.9071 25.1131 11.8965 25.1035C11.886 25.0939 11.8756 25.0841 11.8655 25.074C11.8554 25.0639 11.8456 25.0535 11.836 25.0429C11.8264 25.0324 11.8171 25.0215 11.808 25.0105C11.799 24.9995 11.7902 24.9882 11.7817 24.9767C11.7732 24.9652 11.7649 24.9536 11.757 24.9417C11.7491 24.9298 11.7414 24.9178 11.7341 24.9055C11.7267 24.8933 11.7197 24.8808 11.713 24.8682C11.7062 24.8556 11.6998 24.8429 11.6937 24.83C11.6876 24.8171 11.6818 24.804 11.6764 24.7908C11.6709 24.7776 11.6658 24.7643 11.6609 24.7509C11.6561 24.7374 11.6516 24.7239 11.6475 24.7102C11.6434 24.6965 11.6395 24.6828 11.6361 24.6689C11.6326 24.6551 11.6295 24.6411 11.6267 24.6271C11.6239 24.6131 11.6215 24.599 11.6194 24.5849C11.6173 24.5708 11.6156 24.5566 11.6141 24.5424C11.6127 24.5282 11.6117 24.514 11.611 24.4997C11.6103 24.4854 11.6099 24.4712 11.6099 24.4569C11.6099 24.4426 11.6103 24.4283 11.611 24.4141C11.6117 24.3998 11.6127 24.3855 11.6141 24.3714C11.6156 24.3571 11.6173 24.343 11.6194 24.3288C11.6215 24.3147 11.6239 24.3006 11.6267 24.2866C11.6295 24.2726 11.6326 24.2587 11.6361 24.2449C11.6395 24.231 11.6434 24.2172 11.6475 24.2036C11.6516 24.1899 11.6561 24.1764 11.6609 24.1629C11.6658 24.1494 11.6709 24.1361 11.6764 24.1229C11.6818 24.1097 11.6876 24.0967 11.6937 24.0838C11.6998 24.0709 11.7062 24.0581 11.713 24.0455C11.7197 24.0329 11.7267 24.0205 11.7341 24.0083C11.7414 23.996 11.7491 23.9839 11.757 23.9721C11.7649 23.9602 11.7732 23.9485 11.7817 23.937C11.7902 23.9255 11.799 23.9143 11.808 23.9033C11.8171 23.8922 11.8264 23.8814 11.836 23.8708C11.8456 23.8603 11.8554 23.8499 11.8655 23.8398C11.8756 23.8297 11.886 23.8199 11.8965 23.8103C11.9071 23.8007 11.918 23.7914 11.929 23.7823C11.94 23.7732 11.9513 23.7645 11.9627 23.756C11.9742 23.7474 11.9859 23.7392 11.9978 23.7313C12.0097 23.7234 12.0217 23.7157 12.0339 23.7084C12.0462 23.701 12.0586 23.694 12.0712 23.6873C12.0838 23.6805 12.0965 23.6741 12.1095 23.668C12.1224 23.6619 12.1354 23.6561 12.1486 23.6506C12.1618 23.6452 12.1752 23.64 12.1886 23.6352C12.2021 23.6304 12.2156 23.6259 12.2293 23.6218C12.2429 23.6176 12.2567 23.6138 12.2706 23.6104C12.2844 23.6069 12.2983 23.6038 12.3124 23.601C12.3263 23.5982 12.3404 23.5958 12.3545 23.5937C12.3687 23.5916 12.3829 23.5898 12.3971 23.5884C12.4113 23.587 12.4255 23.586 12.4398 23.5853C12.454 23.5846 12.4683 23.5842 12.4826 23.5842ZM17.2547 23.5842C17.2689 23.5842 17.2832 23.5846 17.2975 23.5853C17.3118 23.586 17.326 23.587 17.3402 23.5884C17.3544 23.5898 17.3686 23.5916 17.3827 23.5937C17.3968 23.5958 17.4109 23.5982 17.4249 23.601C17.4389 23.6038 17.4529 23.6069 17.4667 23.6104C17.4806 23.6138 17.4943 23.6176 17.508 23.6218C17.5216 23.6259 17.5352 23.6304 17.5486 23.6352C17.5621 23.64 17.5754 23.6452 17.5886 23.6506C17.6018 23.6561 17.6148 23.6619 17.6278 23.668C17.6407 23.6741 17.6534 23.6805 17.666 23.6873C17.6786 23.694 17.691 23.701 17.7033 23.7084C17.7156 23.7157 17.7276 23.7234 17.7395 23.7313C17.7514 23.7392 17.763 23.7474 17.7745 23.756C17.786 23.7645 17.7973 23.7732 17.8083 23.7823C17.8193 23.7914 17.8301 23.8007 17.8407 23.8103C17.8513 23.8199 17.8616 23.8297 17.8717 23.8398C17.8818 23.8499 17.8917 23.8603 17.9013 23.8708C17.9109 23.8814 17.9202 23.8922 17.9293 23.9033C17.9383 23.9143 17.9471 23.9255 17.9556 23.937C17.9641 23.9485 17.9723 23.9602 17.9803 23.9721C17.9882 23.9839 17.9959 23.996 18.0032 24.0083C18.0105 24.0205 18.0175 24.0329 18.0243 24.0455C18.031 24.0581 18.0374 24.0708 18.0436 24.0838C18.0496 24.0967 18.0554 24.1097 18.0609 24.1229C18.0664 24.1361 18.0715 24.1494 18.0763 24.1629C18.0811 24.1764 18.0856 24.1899 18.0898 24.2036C18.0939 24.2172 18.0977 24.231 18.1012 24.2449C18.1046 24.2587 18.1078 24.2726 18.1106 24.2866C18.1134 24.3006 18.1158 24.3147 18.1179 24.3288C18.12 24.343 18.1217 24.3571 18.1231 24.3714C18.1245 24.3855 18.1256 24.3998 18.1263 24.4141C18.127 24.4283 18.1273 24.4426 18.1273 24.4569C18.1273 24.4712 18.127 24.4854 18.1263 24.4997C18.1256 24.514 18.1245 24.5282 18.1231 24.5424C18.1217 24.5566 18.12 24.5708 18.1179 24.5849C18.1158 24.599 18.1134 24.6131 18.1106 24.6271C18.1078 24.6411 18.1046 24.6551 18.1012 24.6689C18.0977 24.6828 18.0939 24.6965 18.0898 24.7102C18.0856 24.7239 18.0811 24.7374 18.0763 24.7509C18.0715 24.7643 18.0664 24.7776 18.0609 24.7908C18.0554 24.804 18.0496 24.8171 18.0436 24.83C18.0374 24.8429 18.031 24.8556 18.0243 24.8682C18.0175 24.8808 18.0105 24.8933 18.0032 24.9055C17.9959 24.9178 17.9882 24.9298 17.9803 24.9417C17.9723 24.9536 17.9641 24.9652 17.9556 24.9767C17.9471 24.9882 17.9383 24.9995 17.9293 25.0105C17.9202 25.0215 17.9109 25.0324 17.9013 25.0429C17.8917 25.0535 17.8818 25.0639 17.8717 25.074C17.8616 25.0841 17.8513 25.0939 17.8407 25.1035C17.8301 25.1131 17.8193 25.1224 17.8083 25.1315C17.7973 25.1405 17.786 25.1493 17.7745 25.1578C17.763 25.1663 17.7514 25.1745 17.7395 25.1825C17.7276 25.1904 17.7156 25.1981 17.7033 25.2054C17.691 25.2127 17.6786 25.2198 17.666 25.2265C17.6534 25.2333 17.6407 25.2397 17.6278 25.2458C17.6148 25.2519 17.6018 25.2576 17.5886 25.2631C17.5754 25.2686 17.5621 25.2737 17.5486 25.2785C17.5352 25.2833 17.5216 25.2878 17.508 25.292C17.4943 25.2961 17.4806 25.2999 17.4667 25.3034C17.4529 25.3069 17.4389 25.31 17.4249 25.3128C17.4109 25.3156 17.3968 25.318 17.3827 25.3201C17.3686 25.3222 17.3544 25.3239 17.3402 25.3254C17.326 25.3268 17.3118 25.3278 17.2975 25.3285C17.2832 25.3292 17.2689 25.3296 17.2547 25.3296C17.2404 25.3296 17.2261 25.3292 17.2118 25.3285C17.1976 25.3278 17.1833 25.3268 17.1691 25.3254C17.1549 25.3239 17.1407 25.3222 17.1266 25.3201C17.1125 25.318 17.0984 25.3156 17.0844 25.3128C17.0704 25.31 17.0565 25.3069 17.0426 25.3034C17.0288 25.2999 17.015 25.2961 17.0014 25.292C16.9877 25.2878 16.9741 25.2833 16.9607 25.2785C16.9472 25.2737 16.9339 25.2686 16.9207 25.2631C16.9075 25.2576 16.8945 25.2519 16.8816 25.2458C16.8686 25.2397 16.8559 25.2333 16.8433 25.2265C16.8307 25.2198 16.8183 25.2127 16.806 25.2054C16.7938 25.1981 16.7817 25.1904 16.7698 25.1825C16.7579 25.1745 16.7463 25.1663 16.7348 25.1578C16.7233 25.1493 16.7121 25.1405 16.7011 25.1315C16.69 25.1224 16.6792 25.1131 16.6686 25.1035C16.658 25.0939 16.6477 25.0841 16.6376 25.074C16.6275 25.0639 16.6177 25.0535 16.608 25.0429C16.5985 25.0324 16.5891 25.0215 16.5801 25.0105C16.571 24.9995 16.5622 24.9882 16.5537 24.9767C16.5452 24.9652 16.537 24.9536 16.529 24.9417C16.5211 24.9298 16.5135 24.9178 16.5061 24.9055C16.4988 24.8933 16.4918 24.8808 16.485 24.8682C16.4783 24.8556 16.4719 24.8429 16.4658 24.83C16.4597 24.8171 16.4539 24.804 16.4484 24.7908C16.4429 24.7776 16.4378 24.7643 16.433 24.7509C16.4282 24.7374 16.4237 24.7239 16.4196 24.7102C16.4154 24.6965 16.4116 24.6828 16.4081 24.6689C16.4047 24.6551 16.4016 24.6411 16.3988 24.6271C16.396 24.6131 16.3935 24.599 16.3915 24.5849C16.3893 24.5708 16.3876 24.5566 16.3862 24.5424C16.3848 24.5282 16.3838 24.514 16.3831 24.4997C16.3824 24.4854 16.382 24.4712 16.382 24.4569C16.382 24.4426 16.3824 24.4283 16.3831 24.4141C16.3838 24.3998 16.3848 24.3855 16.3862 24.3714C16.3876 24.3571 16.3893 24.343 16.3915 24.3288C16.3935 24.3147 16.396 24.3006 16.3988 24.2866C16.4016 24.2726 16.4047 24.2587 16.4081 24.2449C16.4116 24.231 16.4154 24.2172 16.4196 24.2036C16.4237 24.1899 16.4282 24.1764 16.433 24.1629C16.4378 24.1494 16.4429 24.1361 16.4484 24.1229C16.4539 24.1097 16.4597 24.0967 16.4658 24.0838C16.4719 24.0709 16.4783 24.0581 16.485 24.0455C16.4918 24.0329 16.4988 24.0205 16.5061 24.0083C16.5135 23.996 16.5211 23.9839 16.529 23.9721C16.537 23.9602 16.5452 23.9485 16.5537 23.937C16.5622 23.9255 16.571 23.9143 16.5801 23.9033C16.5891 23.8922 16.5985 23.8814 16.608 23.8708C16.6177 23.8603 16.6275 23.8499 16.6376 23.8398C16.6477 23.8297 16.658 23.8199 16.6686 23.8103C16.6792 23.8007 16.69 23.7914 16.7011 23.7823C16.7121 23.7732 16.7233 23.7645 16.7348 23.756C16.7463 23.7474 16.7579 23.7392 16.7698 23.7313C16.7817 23.7234 16.7938 23.7157 16.806 23.7084C16.8183 23.701 16.8307 23.694 16.8433 23.6873C16.8559 23.6805 16.8686 23.6741 16.8816 23.668C16.8945 23.6619 16.9075 23.6561 16.9207 23.6506C16.9339 23.6452 16.9472 23.64 16.9607 23.6352C16.9741 23.6304 16.9877 23.6259 17.0014 23.6218C17.015 23.6176 17.0288 23.6138 17.0426 23.6104C17.0565 23.6069 17.0704 23.6038 17.0844 23.601C17.0984 23.5982 17.1125 23.5958 17.1266 23.5937C17.1407 23.5916 17.1549 23.5898 17.1691 23.5884C17.1833 23.587 17.1976 23.586 17.2118 23.5853C17.2261 23.5846 17.2404 23.5842 17.2547 23.5842ZM8.30702 19.4086C8.3213 19.4086 8.33558 19.409 8.34986 19.4097C8.36411 19.4104 8.37836 19.4114 8.39257 19.4129C8.40678 19.4143 8.42096 19.416 8.43508 19.4181C8.44919 19.4202 8.46328 19.4226 8.47729 19.4254C8.49128 19.4282 8.50523 19.4314 8.51908 19.4348C8.53293 19.4383 8.54672 19.4421 8.56037 19.4462C8.57402 19.4504 8.58758 19.4548 8.60104 19.4597C8.61449 19.4645 8.62779 19.4696 8.64098 19.4751C8.65417 19.4805 8.66724 19.4863 8.68017 19.4924C8.69306 19.4985 8.7058 19.505 8.7184 19.5117C8.731 19.5184 8.74344 19.5255 8.75568 19.5328C8.76795 19.5402 8.77999 19.5478 8.79187 19.5557C8.80375 19.5636 8.81539 19.5719 8.82688 19.5804C8.83836 19.5889 8.84961 19.5977 8.86067 19.6068C8.87169 19.6158 8.88251 19.6251 8.89308 19.6347C8.90367 19.6443 8.914 19.6542 8.9241 19.6643C8.9342 19.6744 8.94407 19.6847 8.95365 19.6953C8.96322 19.7059 8.97257 19.7167 8.98162 19.7277C8.99066 19.7387 8.99945 19.75 9.00797 19.7615C9.01649 19.7729 9.02472 19.7846 9.03265 19.7965C9.04058 19.8084 9.04821 19.8204 9.05555 19.8327C9.06288 19.8449 9.06992 19.8573 9.07667 19.8699C9.08341 19.8825 9.08983 19.8953 9.09592 19.9082C9.102 19.9211 9.10779 19.9342 9.11329 19.9474C9.11875 19.9605 9.12388 19.9739 9.12869 19.9873C9.13352 20.0008 9.138 20.0143 9.14214 20.028C9.14629 20.0416 9.15011 20.0554 9.15356 20.0693C9.15701 20.0831 9.16014 20.0971 9.16294 20.1111C9.16574 20.1251 9.16817 20.1392 9.17027 20.1533C9.17235 20.1674 9.17409 20.1816 9.17551 20.1958C9.17692 20.21 9.17797 20.2243 9.17867 20.2385C9.17936 20.2527 9.17972 20.267 9.17972 20.2813C9.17972 20.2956 9.17936 20.3099 9.17867 20.3241C9.17797 20.3384 9.17692 20.3526 9.17551 20.3669C9.17409 20.3811 9.17235 20.3952 9.17027 20.4094C9.16817 20.4235 9.16574 20.4376 9.16294 20.4516C9.16014 20.4656 9.15701 20.4795 9.15356 20.4934C9.15011 20.5072 9.14629 20.521 9.14214 20.5347C9.138 20.5483 9.13352 20.5619 9.12869 20.5753C9.12388 20.5888 9.11875 20.6021 9.11329 20.6153C9.10779 20.6285 9.102 20.6415 9.09592 20.6544C9.08983 20.6673 9.08341 20.6801 9.07667 20.6927C9.06992 20.7053 9.06288 20.7177 9.05555 20.73C9.04821 20.7422 9.04058 20.7543 9.03265 20.7662C9.02472 20.778 9.01649 20.7897 9.00797 20.8012C8.99945 20.8126 8.99066 20.8239 8.98162 20.835C8.97257 20.846 8.96322 20.8568 8.95365 20.8674C8.94407 20.878 8.9342 20.8883 8.9241 20.8984C8.914 20.9085 8.90367 20.9184 8.89308 20.9279C8.88251 20.9375 8.87169 20.9469 8.86067 20.9559C8.84961 20.9649 8.83836 20.9737 8.82688 20.9823C8.81539 20.9908 8.80375 20.999 8.79187 21.0069C8.77999 21.0149 8.76795 21.0225 8.75568 21.0298C8.74344 21.0372 8.731 21.0442 8.7184 21.051C8.7058 21.0577 8.69306 21.0641 8.68017 21.0702C8.66724 21.0763 8.65417 21.0821 8.64098 21.0876C8.62779 21.093 8.61449 21.0982 8.60104 21.103C8.58758 21.1078 8.57402 21.1123 8.56037 21.1164C8.54672 21.1206 8.53293 21.1244 8.51908 21.1278C8.50523 21.1313 8.49128 21.1344 8.47729 21.1372C8.46328 21.14 8.44919 21.1425 8.43508 21.1446C8.42096 21.1466 8.40678 21.1484 8.39257 21.1498C8.37836 21.1512 8.36411 21.1523 8.34986 21.153C8.33558 21.1536 8.3213 21.154 8.30702 21.154C8.29274 21.154 8.27847 21.1536 8.26422 21.153C8.24996 21.1523 8.23573 21.1512 8.22151 21.1498C8.2073 21.1484 8.19313 21.1466 8.179 21.1446C8.16488 21.1425 8.15081 21.14 8.13679 21.1372C8.12277 21.1344 8.10884 21.1313 8.095 21.1278C8.08114 21.1244 8.06738 21.1206 8.05371 21.1164C8.04005 21.1123 8.02649 21.1078 8.01304 21.103C7.9996 21.0982 7.98627 21.093 7.97307 21.0876C7.95988 21.0821 7.94684 21.0763 7.93392 21.0702C7.92102 21.0641 7.90826 21.0577 7.89565 21.051C7.88306 21.0442 7.87064 21.0372 7.85841 21.0298C7.84614 21.0225 7.83408 21.0149 7.82221 21.0069C7.81033 20.999 7.79865 20.9908 7.78717 20.9823C7.7757 20.9737 7.76445 20.9649 7.75341 20.9559C7.74238 20.9469 7.73157 20.9375 7.72097 20.9279C7.7104 20.9184 7.70007 20.9085 7.68998 20.8984C7.67987 20.8883 7.67002 20.878 7.66043 20.8674C7.65085 20.8568 7.64152 20.846 7.63247 20.835C7.62341 20.8239 7.61462 20.8126 7.60611 20.8012C7.5976 20.7897 7.58937 20.778 7.58144 20.7662C7.5735 20.7543 7.56586 20.7422 7.55854 20.73C7.55119 20.7177 7.54415 20.7053 7.53741 20.6927C7.53068 20.6801 7.52426 20.6673 7.51816 20.6544C7.51204 20.6415 7.50625 20.6285 7.50079 20.6153C7.49533 20.6021 7.4902 20.5888 7.48539 20.5753C7.48057 20.5619 7.47608 20.5483 7.47194 20.5347C7.46779 20.521 7.46398 20.5072 7.46052 20.4934C7.45706 20.4795 7.45393 20.4656 7.45114 20.4516C7.44836 20.4376 7.44591 20.4235 7.44381 20.4094C7.44172 20.3952 7.43998 20.3811 7.43857 20.3669C7.43717 20.3526 7.43612 20.3384 7.43542 20.3241C7.43472 20.3099 7.43436 20.2956 7.43436 20.2813C7.43436 20.267 7.43472 20.2527 7.43542 20.2385C7.43612 20.2243 7.43717 20.21 7.43857 20.1958C7.43998 20.1816 7.44172 20.1674 7.44381 20.1533C7.44591 20.1392 7.44836 20.1251 7.45114 20.1111C7.45393 20.0971 7.45706 20.0831 7.46052 20.0693C7.46398 20.0554 7.46779 20.0416 7.47194 20.028C7.47608 20.0143 7.48057 20.0008 7.48539 19.9873C7.4902 19.9739 7.49533 19.9605 7.50079 19.9474C7.50625 19.9342 7.51204 19.9211 7.51816 19.9082C7.52426 19.8953 7.53068 19.8825 7.53741 19.8699C7.54415 19.8573 7.55119 19.8449 7.55854 19.8327C7.56586 19.8204 7.5735 19.8084 7.58144 19.7965C7.58937 19.7846 7.5976 19.7729 7.60611 19.7615C7.61462 19.75 7.62341 19.7387 7.63247 19.7277C7.64152 19.7167 7.65085 19.7059 7.66043 19.6953C7.67002 19.6847 7.67987 19.6744 7.68998 19.6643C7.70007 19.6542 7.7104 19.6443 7.72097 19.6347C7.73157 19.6251 7.74238 19.6158 7.75341 19.6068C7.76445 19.5977 7.7757 19.5889 7.78717 19.5804C7.79865 19.5719 7.81033 19.5636 7.82221 19.5557C7.83408 19.5478 7.84614 19.5402 7.85841 19.5328C7.87064 19.5255 7.88306 19.5184 7.89565 19.5117C7.90826 19.505 7.92102 19.4985 7.93392 19.4924C7.94684 19.4863 7.95988 19.4805 7.97307 19.4751C7.98627 19.4696 7.9996 19.4645 8.01304 19.4597C8.02649 19.4548 8.04005 19.4504 8.05371 19.4462C8.06738 19.4421 8.08114 19.4383 8.095 19.4348C8.10884 19.4314 8.12277 19.4282 8.13679 19.4254C8.15081 19.4226 8.16488 19.4202 8.179 19.4181C8.19313 19.416 8.2073 19.4143 8.22151 19.4129C8.23573 19.4114 8.24996 19.4104 8.26422 19.4097C8.27847 19.409 8.29274 19.4086 8.30702 19.4086ZM22.0268 19.4086C22.041 19.4086 22.0553 19.409 22.0696 19.4097C22.0838 19.4104 22.098 19.4114 22.1123 19.4129C22.1265 19.4143 22.1407 19.416 22.1548 19.4181C22.1689 19.4202 22.183 19.4226 22.197 19.4254C22.211 19.4282 22.2249 19.4314 22.2388 19.4348C22.2526 19.4383 22.2664 19.4421 22.2801 19.4462C22.2937 19.4504 22.3073 19.4548 22.3207 19.4597C22.3342 19.4645 22.3475 19.4696 22.3607 19.4751C22.3739 19.4805 22.3869 19.4863 22.3999 19.4924C22.4128 19.4985 22.4255 19.505 22.4381 19.5117C22.4507 19.5184 22.4631 19.5255 22.4754 19.5328C22.4876 19.5402 22.4997 19.5478 22.5116 19.5557C22.5234 19.5636 22.5351 19.5719 22.5466 19.5804C22.5581 19.5889 22.5693 19.5977 22.5804 19.6068C22.5914 19.6158 22.6022 19.6251 22.6128 19.6347C22.6234 19.6443 22.6337 19.6542 22.6438 19.6643C22.6539 19.6744 22.6638 19.6847 22.6733 19.6953C22.6829 19.7059 22.6923 19.7167 22.7013 19.7277C22.7104 19.7387 22.7191 19.75 22.7277 19.7615C22.7362 19.7729 22.7444 19.7846 22.7523 19.7965C22.7603 19.8084 22.7679 19.8204 22.7752 19.8327C22.7826 19.8449 22.7896 19.8573 22.7964 19.8699C22.8031 19.8825 22.8095 19.8953 22.8156 19.9082C22.8217 19.9211 22.8275 19.9342 22.833 19.9474C22.8384 19.9605 22.8436 19.9739 22.8484 19.9873C22.8532 20.0008 22.8577 20.0143 22.8618 20.028C22.866 20.0416 22.8698 20.0554 22.8733 20.0693C22.8767 20.0831 22.8798 20.0971 22.8826 20.1111C22.8854 20.1251 22.8879 20.1392 22.89 20.1533C22.892 20.1674 22.8938 20.1816 22.8952 20.1958C22.8966 20.21 22.8977 20.2243 22.8984 20.2385C22.899 20.2527 22.8994 20.267 22.8994 20.2813C22.8994 20.2956 22.899 20.3099 22.8984 20.3241C22.8977 20.3384 22.8966 20.3526 22.8952 20.3669C22.8938 20.3811 22.892 20.3952 22.89 20.4094C22.8879 20.4235 22.8854 20.4376 22.8826 20.4516C22.8798 20.4656 22.8767 20.4795 22.8733 20.4934C22.8698 20.5072 22.866 20.521 22.8618 20.5347C22.8577 20.5483 22.8532 20.5619 22.8484 20.5753C22.8436 20.5888 22.8384 20.6021 22.833 20.6153C22.8275 20.6285 22.8217 20.6415 22.8156 20.6544C22.8095 20.6673 22.8031 20.6801 22.7964 20.6927C22.7896 20.7053 22.7826 20.7177 22.7752 20.73C22.7679 20.7422 22.7603 20.7543 22.7523 20.7662C22.7444 20.778 22.7362 20.7897 22.7277 20.8012C22.7191 20.8126 22.7104 20.8239 22.7013 20.835C22.6923 20.846 22.6829 20.8568 22.6733 20.8674C22.6638 20.878 22.6539 20.8883 22.6438 20.8984C22.6337 20.9085 22.6234 20.9184 22.6128 20.9279C22.6022 20.9375 22.5914 20.9469 22.5804 20.9559C22.5693 20.9649 22.5581 20.9737 22.5466 20.9823C22.5351 20.9908 22.5234 20.999 22.5116 21.0069C22.4997 21.0149 22.4876 21.0225 22.4754 21.0298C22.4631 21.0372 22.4507 21.0442 22.4381 21.051C22.4255 21.0577 22.4128 21.0641 22.3999 21.0702C22.3869 21.0763 22.3739 21.0821 22.3607 21.0876C22.3475 21.093 22.3342 21.0982 22.3207 21.103C22.3073 21.1078 22.2937 21.1123 22.2801 21.1164C22.2664 21.1206 22.2526 21.1244 22.2388 21.1278C22.2249 21.1313 22.211 21.1344 22.197 21.1372C22.183 21.14 22.1689 21.1425 22.1548 21.1446C22.1407 21.1466 22.1265 21.1484 22.1123 21.1498C22.098 21.1512 22.0838 21.1523 22.0696 21.153C22.0553 21.1536 22.041 21.154 22.0268 21.154C22.0125 21.154 21.9982 21.1536 21.9839 21.153C21.9697 21.1523 21.9554 21.1512 21.9412 21.1498C21.927 21.1484 21.9128 21.1466 21.8987 21.1446C21.8846 21.1425 21.8705 21.14 21.8565 21.1372C21.8425 21.1344 21.8285 21.1313 21.8147 21.1278C21.8008 21.1244 21.7871 21.1206 21.7734 21.1164C21.7598 21.1123 21.7462 21.1078 21.7327 21.103C21.7193 21.0982 21.706 21.093 21.6928 21.0876C21.6796 21.0821 21.6665 21.0763 21.6536 21.0702C21.6407 21.0641 21.628 21.0577 21.6154 21.051C21.6028 21.0442 21.5903 21.0372 21.5781 21.0298C21.5658 21.0225 21.5538 21.0149 21.5419 21.0069C21.53 20.999 21.5184 20.9908 21.5069 20.9823C21.4954 20.9737 21.4842 20.9649 21.4731 20.9559C21.4621 20.9469 21.4513 20.9375 21.4407 20.9279C21.4301 20.9184 21.4198 20.9085 21.4097 20.8984C21.3996 20.8883 21.3897 20.878 21.3801 20.8674C21.3706 20.8568 21.3612 20.846 21.3522 20.835C21.3431 20.8239 21.3343 20.8126 21.3258 20.8012C21.3173 20.7897 21.3091 20.778 21.3011 20.7662C21.2932 20.7543 21.2856 20.7422 21.2782 20.73C21.2709 20.7177 21.2638 20.7053 21.2571 20.6927C21.2504 20.6801 21.2439 20.6673 21.2379 20.6544C21.2317 20.6415 21.2259 20.6285 21.2205 20.6153C21.215 20.6021 21.2099 20.5888 21.2051 20.5753C21.2003 20.5619 21.1958 20.5483 21.1916 20.5347C21.1875 20.521 21.1837 20.5072 21.1802 20.4934C21.1768 20.4795 21.1736 20.4656 21.1708 20.4516C21.168 20.4376 21.1656 20.4235 21.1635 20.4094C21.1614 20.3952 21.1597 20.3811 21.1583 20.3669C21.1569 20.3526 21.1558 20.3384 21.1551 20.3241C21.1544 20.3099 21.1541 20.2956 21.1541 20.2813C21.1541 20.267 21.1544 20.2527 21.1551 20.2385C21.1558 20.2243 21.1569 20.21 21.1583 20.1958C21.1597 20.1816 21.1614 20.1674 21.1635 20.1533C21.1656 20.1392 21.168 20.1251 21.1708 20.1111C21.1736 20.0971 21.1768 20.0831 21.1802 20.0693C21.1837 20.0554 21.1875 20.0416 21.1916 20.028C21.1958 20.0143 21.2003 20.0008 21.2051 19.9873C21.2099 19.9739 21.215 19.9605 21.2205 19.9474C21.2259 19.9342 21.2317 19.9211 21.2379 19.9082C21.2439 19.8953 21.2504 19.8825 21.2571 19.8699C21.2638 19.8573 21.2709 19.8449 21.2782 19.8327C21.2856 19.8204 21.2932 19.8084 21.3011 19.7965C21.3091 19.7846 21.3173 19.7729 21.3258 19.7615C21.3343 19.75 21.3431 19.7387 21.3522 19.7277C21.3612 19.7167 21.3706 19.7059 21.3801 19.6953C21.3897 19.6847 21.3996 19.6744 21.4097 19.6643C21.4198 19.6542 21.4301 19.6443 21.4407 19.6347C21.4513 19.6251 21.4621 19.6158 21.4731 19.6068C21.4842 19.5977 21.4954 19.5889 21.5069 19.5804C21.5184 19.5719 21.53 19.5636 21.5419 19.5557C21.5538 19.5478 21.5658 19.5402 21.5781 19.5328C21.5903 19.5255 21.6028 19.5184 21.6154 19.5117C21.628 19.505 21.6407 19.4985 21.6536 19.4924C21.6665 19.4863 21.6796 19.4805 21.6928 19.4751C21.706 19.4696 21.7193 19.4645 21.7327 19.4597C21.7462 19.4548 21.7598 19.4504 21.7734 19.4462C21.7871 19.4421 21.8008 19.4383 21.8147 19.4348C21.8285 19.4314 21.8425 19.4282 21.8565 19.4254C21.8705 19.4226 21.8846 19.4202 21.8987 19.4181C21.9128 19.416 21.927 19.4143 21.9412 19.4129C21.9554 19.4114 21.9697 19.4104 21.9839 19.4097C21.9982 19.409 22.0125 19.4086 22.0268 19.4086ZM5.921 14.0401C5.93528 14.0401 5.94955 14.0404 5.96381 14.0411C5.97809 14.0418 5.99233 14.0429 6.00655 14.0443C6.02076 14.0457 6.03493 14.0474 6.04906 14.0495C6.06318 14.0516 6.07724 14.054 6.09124 14.0568C6.10525 14.0596 6.11919 14.0628 6.13305 14.0662C6.1469 14.0697 6.16065 14.0735 6.17431 14.0777C6.18798 14.0818 6.20153 14.0863 6.21498 14.0911C6.22843 14.0959 6.24175 14.101 6.25496 14.1065C6.26816 14.112 6.28121 14.1178 6.29411 14.1239C6.30703 14.1299 6.31978 14.1364 6.33238 14.1431C6.34497 14.1498 6.35739 14.1569 6.36965 14.1642C6.38189 14.1716 6.39396 14.1792 6.40585 14.1872C6.41771 14.1951 6.42938 14.2033 6.44085 14.2118C6.45233 14.2203 6.46358 14.2291 6.47461 14.2382C6.48567 14.2472 6.49648 14.2565 6.50705 14.2661C6.51762 14.2757 6.52797 14.2856 6.53808 14.2957C6.54817 14.3058 6.55801 14.3161 6.56759 14.3267C6.5772 14.3373 6.58653 14.3481 6.59559 14.3591C6.60465 14.3702 6.61343 14.3814 6.62195 14.3929C6.63046 14.4044 6.63867 14.416 6.64659 14.4279C6.65453 14.4398 6.66218 14.4519 6.66952 14.4641C6.67687 14.4764 6.6839 14.4888 6.69061 14.5014C6.69735 14.514 6.70377 14.5267 6.70989 14.5396C6.71599 14.5525 6.72177 14.5656 6.72723 14.5788C6.73269 14.592 6.73784 14.6053 6.74266 14.6187C6.74747 14.6322 6.75194 14.6457 6.75609 14.6594C6.76023 14.6731 6.76404 14.6868 6.7675 14.7007C6.77099 14.7145 6.77413 14.7285 6.77691 14.7425C6.7797 14.7565 6.78214 14.7706 6.78422 14.7847C6.78632 14.7988 6.78808 14.813 6.78948 14.8272C6.79086 14.8414 6.79191 14.8557 6.79261 14.8699C6.79331 14.8842 6.79366 14.8985 6.79366 14.9127C6.79366 14.927 6.79331 14.9413 6.79261 14.9556C6.79191 14.9698 6.79086 14.9841 6.78948 14.9983C6.78808 15.0125 6.78632 15.0267 6.78422 15.0408C6.78214 15.0549 6.7797 15.069 6.77691 15.083C6.77413 15.097 6.77099 15.1109 6.7675 15.1248C6.76404 15.1386 6.76023 15.1524 6.75609 15.1661C6.75194 15.1797 6.74747 15.1933 6.74266 15.2067C6.73784 15.2202 6.73269 15.2335 6.72723 15.2467C6.72177 15.2599 6.71599 15.2729 6.70989 15.2859C6.70377 15.2988 6.69735 15.3115 6.69061 15.3241C6.6839 15.3367 6.67687 15.3491 6.66952 15.3614C6.66218 15.3736 6.65453 15.3857 6.64659 15.3976C6.63867 15.4094 6.63046 15.4211 6.62195 15.4326C6.61343 15.4441 6.60465 15.4553 6.59559 15.4664C6.58653 15.4774 6.5772 15.4882 6.56759 15.4988C6.55801 15.5094 6.54817 15.5197 6.53808 15.5298C6.52797 15.5399 6.51762 15.5498 6.50705 15.5593C6.49648 15.5689 6.48567 15.5783 6.47461 15.5873C6.46358 15.5964 6.45233 15.6052 6.44085 15.6137C6.42938 15.6222 6.41771 15.6304 6.40585 15.6383C6.39396 15.6463 6.38189 15.6539 6.36965 15.6613C6.35739 15.6686 6.34497 15.6756 6.33238 15.6824C6.31978 15.6891 6.30703 15.6955 6.29411 15.7016C6.28121 15.7077 6.26816 15.7135 6.25496 15.719C6.24175 15.7244 6.22843 15.7296 6.21498 15.7344C6.20153 15.7392 6.18798 15.7437 6.17431 15.7478C6.16065 15.752 6.1469 15.7558 6.13305 15.7593C6.11919 15.7627 6.10525 15.7658 6.09124 15.7686C6.07724 15.7714 6.06318 15.7739 6.04906 15.776C6.03493 15.7781 6.02076 15.7798 6.00655 15.7812C5.99233 15.7826 5.97809 15.7837 5.96381 15.7844C5.94955 15.785 5.93528 15.7854 5.921 15.7854C5.90672 15.7854 5.89245 15.785 5.8782 15.7844C5.86392 15.7837 5.84967 15.7826 5.83546 15.7812C5.82124 15.7798 5.80707 15.7781 5.79295 15.776C5.77882 15.7739 5.76476 15.7714 5.75077 15.7686C5.73675 15.7658 5.72281 15.7627 5.70895 15.7593C5.69511 15.7558 5.68135 15.752 5.66769 15.7478C5.65402 15.7437 5.64047 15.7392 5.62702 15.7344C5.61357 15.7296 5.60025 15.7244 5.58705 15.719C5.57384 15.7135 5.56079 15.7077 5.54789 15.7016C5.53497 15.6955 5.52222 15.6891 5.50963 15.6824C5.49704 15.6756 5.48461 15.6686 5.47235 15.6613C5.46011 15.6539 5.44804 15.6463 5.43616 15.6383C5.42429 15.6304 5.41262 15.6222 5.40115 15.6137C5.38968 15.6052 5.37842 15.5964 5.36739 15.5873C5.35636 15.5783 5.34554 15.5689 5.33495 15.5593C5.32438 15.5498 5.31404 15.5399 5.30392 15.5298C5.29383 15.5197 5.28399 15.5094 5.27441 15.4988C5.2648 15.4882 5.25547 15.4774 5.24641 15.4664C5.23735 15.4553 5.22857 15.4441 5.22006 15.4326C5.21154 15.4211 5.20333 15.4094 5.19541 15.3976C5.18747 15.3857 5.17983 15.3736 5.17248 15.3614C5.16513 15.3491 5.1581 15.3367 5.15139 15.3241C5.14466 15.3115 5.13823 15.2988 5.13211 15.2859C5.12601 15.2729 5.12023 15.2599 5.11477 15.2467C5.10931 15.2335 5.10416 15.2202 5.09934 15.2067C5.09453 15.1933 5.09006 15.1797 5.08591 15.1661C5.08177 15.1524 5.07796 15.1386 5.0745 15.1248C5.07101 15.1109 5.06787 15.097 5.06509 15.083C5.0623 15.069 5.05987 15.0549 5.05778 15.0408C5.05568 15.0267 5.05393 15.0125 5.05255 14.9983C5.05115 14.9841 5.0501 14.9698 5.04939 14.9556C5.04869 14.9413 5.04834 14.927 5.04834 14.9127C5.04834 14.8985 5.04869 14.8842 5.04939 14.8699C5.0501 14.8557 5.05114 14.8414 5.05252 14.8272C5.05392 14.813 5.05568 14.7988 5.05778 14.7847C5.05987 14.7706 5.0623 14.7565 5.06509 14.7425C5.06787 14.7285 5.07101 14.7145 5.0745 14.7007C5.07796 14.6868 5.08177 14.6731 5.08591 14.6594C5.09006 14.6457 5.09453 14.6322 5.09934 14.6187C5.10416 14.6053 5.10931 14.592 5.11477 14.5788C5.12023 14.5656 5.12601 14.5525 5.13211 14.5396C5.13823 14.5267 5.14466 14.514 5.15139 14.5014C5.1581 14.4888 5.16513 14.4764 5.17248 14.4641C5.17983 14.4519 5.18747 14.4398 5.19541 14.4279C5.20333 14.416 5.21154 14.4044 5.22006 14.3929C5.22857 14.3814 5.23735 14.3702 5.24641 14.3591C5.25547 14.3481 5.2648 14.3373 5.27441 14.3267C5.28399 14.3161 5.29383 14.3058 5.30392 14.2957C5.31404 14.2856 5.32438 14.2757 5.33495 14.2661C5.34554 14.2565 5.35636 14.2472 5.36739 14.2382C5.37842 14.2291 5.38968 14.2203 5.40115 14.2118C5.41262 14.2033 5.42429 14.1951 5.43616 14.1871C5.44804 14.1792 5.46011 14.1716 5.47235 14.1642C5.48461 14.1569 5.49704 14.1498 5.50963 14.1431C5.52222 14.1364 5.53497 14.1299 5.54789 14.1239C5.56079 14.1178 5.57384 14.112 5.58705 14.1065C5.60025 14.101 5.61357 14.0959 5.62702 14.0911C5.64047 14.0863 5.65402 14.0818 5.66769 14.0777C5.68135 14.0735 5.69511 14.0697 5.70895 14.0662C5.72281 14.0628 5.73675 14.0596 5.75077 14.0568C5.76476 14.054 5.77882 14.0516 5.79295 14.0495C5.80707 14.0474 5.82124 14.0457 5.83546 14.0443C5.84967 14.0429 5.86392 14.0418 5.8782 14.0411C5.89245 14.0404 5.90672 14.0401 5.921 14.0401ZM24.4128 14.0401C24.4271 14.0401 24.4413 14.0404 24.4556 14.0411C24.4699 14.0418 24.4841 14.0429 24.4983 14.0443C24.5125 14.0457 24.5267 14.0474 24.5408 14.0495C24.5549 14.0516 24.569 14.054 24.583 14.0568C24.597 14.0596 24.611 14.0628 24.6248 14.0662C24.6387 14.0697 24.6524 14.0735 24.6661 14.0777C24.6797 14.0818 24.6933 14.0863 24.7068 14.0911C24.7202 14.0959 24.7335 14.101 24.7467 14.1065C24.7599 14.112 24.773 14.1178 24.7859 14.1239C24.7988 14.1299 24.8115 14.1364 24.8241 14.1431C24.8367 14.1498 24.8492 14.1569 24.8614 14.1642C24.8737 14.1716 24.8857 14.1792 24.8976 14.1872C24.9095 14.1951 24.9211 14.2033 24.9326 14.2118C24.9441 14.2203 24.9554 14.2291 24.9664 14.2382C24.9774 14.2472 24.9883 14.2565 24.9988 14.2661C25.0094 14.2757 25.0197 14.2856 25.0299 14.2957C25.04 14.3058 25.0498 14.3161 25.0594 14.3267C25.069 14.3373 25.0783 14.3481 25.0874 14.3591C25.0964 14.3702 25.1052 14.3814 25.1137 14.3929C25.1222 14.4044 25.1304 14.416 25.1384 14.4279C25.1463 14.4398 25.154 14.4519 25.1613 14.4641C25.1686 14.4764 25.1756 14.4888 25.1824 14.5014C25.1891 14.514 25.1955 14.5267 25.2017 14.5396C25.2078 14.5525 25.2135 14.5656 25.219 14.5788C25.2245 14.592 25.2296 14.6053 25.2344 14.6187C25.2392 14.6322 25.2437 14.6457 25.2479 14.6594C25.252 14.6731 25.2558 14.6868 25.2593 14.7007C25.2628 14.7145 25.2659 14.7285 25.2687 14.7425C25.2715 14.7565 25.2739 14.7706 25.276 14.7847C25.2781 14.7988 25.2798 14.813 25.2813 14.8272C25.2826 14.8414 25.2837 14.8557 25.2844 14.8699C25.2851 14.8842 25.2854 14.8985 25.2854 14.9127C25.2854 14.927 25.2851 14.9413 25.2844 14.9556C25.2837 14.9698 25.2826 14.9841 25.2813 14.9983C25.2798 15.0125 25.2781 15.0267 25.276 15.0408C25.2739 15.0549 25.2715 15.069 25.2687 15.083C25.2659 15.097 25.2628 15.1109 25.2593 15.1248C25.2558 15.1386 25.252 15.1524 25.2479 15.1661C25.2437 15.1797 25.2392 15.1933 25.2344 15.2067C25.2296 15.2202 25.2245 15.2335 25.219 15.2467C25.2135 15.2599 25.2078 15.2729 25.2017 15.2859C25.1955 15.2988 25.1891 15.3115 25.1824 15.3241C25.1756 15.3367 25.1686 15.3491 25.1613 15.3614C25.154 15.3736 25.1463 15.3857 25.1384 15.3976C25.1304 15.4094 25.1222 15.4211 25.1137 15.4326C25.1052 15.4441 25.0964 15.4553 25.0874 15.4664C25.0783 15.4774 25.069 15.4882 25.0594 15.4988C25.0498 15.5094 25.04 15.5197 25.0299 15.5298C25.0197 15.5399 25.0094 15.5498 24.9988 15.5593C24.9883 15.5689 24.9774 15.5783 24.9664 15.5873C24.9554 15.5964 24.9441 15.6052 24.9326 15.6137C24.9211 15.6222 24.9095 15.6304 24.8976 15.6383C24.8857 15.6463 24.8737 15.6539 24.8614 15.6613C24.8492 15.6686 24.8367 15.6756 24.8241 15.6824C24.8115 15.6891 24.7988 15.6955 24.7859 15.7016C24.773 15.7077 24.7599 15.7135 24.7467 15.719C24.7335 15.7244 24.7202 15.7296 24.7068 15.7344C24.6933 15.7392 24.6797 15.7437 24.6661 15.7478C24.6524 15.752 24.6387 15.7558 24.6248 15.7593C24.611 15.7627 24.597 15.7658 24.583 15.7686C24.569 15.7714 24.5549 15.7739 24.5408 15.776C24.5267 15.7781 24.5125 15.7798 24.4983 15.7812C24.4841 15.7826 24.4699 15.7837 24.4556 15.7844C24.4413 15.785 24.4271 15.7854 24.4128 15.7854C24.3985 15.7854 24.3842 15.785 24.3699 15.7844C24.3557 15.7837 24.3414 15.7826 24.3272 15.7812C24.313 15.7798 24.2988 15.7781 24.2847 15.776C24.2706 15.7739 24.2565 15.7714 24.2425 15.7686C24.2285 15.7658 24.2146 15.7627 24.2007 15.7593C24.1869 15.7558 24.1731 15.752 24.1595 15.7478C24.1458 15.7437 24.1322 15.7392 24.1188 15.7344C24.1053 15.7296 24.092 15.7244 24.0788 15.719C24.0656 15.7135 24.0526 15.7077 24.0397 15.7016C24.0267 15.6955 24.014 15.6891 24.0014 15.6824C23.9888 15.6756 23.9764 15.6686 23.9641 15.6613C23.9519 15.6539 23.9398 15.6463 23.9279 15.6383C23.9161 15.6304 23.9044 15.6222 23.8929 15.6137C23.8814 15.6052 23.8702 15.5964 23.8592 15.5873C23.8481 15.5783 23.8373 15.5689 23.8267 15.5593C23.8161 15.5498 23.8058 15.5399 23.7957 15.5298C23.7856 15.5197 23.7758 15.5094 23.7661 15.4988C23.7566 15.4882 23.7472 15.4774 23.7382 15.4664C23.7291 15.4553 23.7203 15.4441 23.7118 15.4326C23.7033 15.4211 23.6951 15.4094 23.6872 15.3976C23.6793 15.3857 23.6716 15.3736 23.6643 15.3614C23.6569 15.3491 23.6499 15.3367 23.6431 15.3241C23.6364 15.3115 23.63 15.2988 23.6239 15.2859C23.6178 15.2729 23.612 15.2599 23.6065 15.2467C23.601 15.2335 23.5959 15.2202 23.5911 15.2067C23.5863 15.1933 23.5818 15.1797 23.5777 15.1661C23.5735 15.1524 23.5697 15.1386 23.5663 15.1248C23.5628 15.1109 23.5597 15.097 23.5569 15.083C23.5541 15.069 23.5516 15.0549 23.5496 15.0408C23.5474 15.0267 23.5457 15.0125 23.5443 14.9983C23.5429 14.9841 23.5419 14.9698 23.5412 14.9556C23.5405 14.9413 23.5401 14.927 23.5401 14.9127C23.5401 14.8985 23.5405 14.8842 23.5412 14.8699C23.5419 14.8557 23.5429 14.8414 23.5443 14.8272C23.5457 14.813 23.5474 14.7988 23.5496 14.7847C23.5516 14.7706 23.5541 14.7565 23.5569 14.7425C23.5597 14.7285 23.5628 14.7145 23.5663 14.7007C23.5697 14.6868 23.5735 14.6731 23.5777 14.6594C23.5818 14.6457 23.5863 14.6322 23.5911 14.6187C23.5959 14.6053 23.601 14.592 23.6065 14.5788C23.612 14.5656 23.6178 14.5525 23.6239 14.5396C23.63 14.5267 23.6364 14.514 23.6431 14.5014C23.6499 14.4888 23.6569 14.4764 23.6643 14.4641C23.6716 14.4519 23.6793 14.4398 23.6872 14.4279C23.6951 14.416 23.7033 14.4044 23.7118 14.3929C23.7203 14.3814 23.7291 14.3702 23.7382 14.3591C23.7472 14.3481 23.7566 14.3373 23.7661 14.3267C23.7758 14.3161 23.7856 14.3058 23.7957 14.2957C23.8058 14.2856 23.8161 14.2757 23.8267 14.2661C23.8373 14.2565 23.8481 14.2472 23.8592 14.2382C23.8702 14.2291 23.8814 14.2203 23.8929 14.2118C23.9044 14.2033 23.9161 14.1951 23.9279 14.1871C23.9398 14.1792 23.9519 14.1716 23.9641 14.1642C23.9764 14.1569 23.9888 14.1498 24.0014 14.1431C24.014 14.1364 24.0267 14.1299 24.0397 14.1239C24.0526 14.1178 24.0656 14.112 24.0788 14.1065C24.092 14.101 24.1053 14.0959 24.1188 14.0911C24.1322 14.0863 24.1458 14.0818 24.1595 14.0777C24.1731 14.0735 24.1869 14.0697 24.2007 14.0662C24.2146 14.0628 24.2285 14.0596 24.2425 14.0568C24.2565 14.054 24.2706 14.0516 24.2847 14.0495C24.2988 14.0474 24.313 14.0457 24.3272 14.0443C24.3414 14.0429 24.3557 14.0418 24.37 14.0411C24.3842 14.0404 24.3985 14.0401 24.4128 14.0401ZM24.4128 7.47847C24.4271 7.47847 24.4413 7.47883 24.4556 7.47952C24.4699 7.48021 24.4841 7.48126 24.4983 7.48268C24.5125 7.48409 24.5267 7.48584 24.5408 7.48791C24.5549 7.49001 24.569 7.49245 24.583 7.49525C24.597 7.49804 24.611 7.50117 24.6248 7.50462C24.6387 7.50808 24.6524 7.51189 24.6661 7.51604C24.6797 7.52019 24.6933 7.52466 24.7068 7.5295C24.7202 7.5343 24.7335 7.53943 24.7467 7.5449C24.7599 7.55039 24.773 7.55618 24.7859 7.56227C24.7988 7.56835 24.8115 7.57477 24.8241 7.58151C24.8367 7.58826 24.8492 7.5953 24.8614 7.60264C24.8737 7.60997 24.8857 7.61761 24.8976 7.62554C24.9095 7.63347 24.9211 7.64169 24.9326 7.65021C24.9441 7.65874 24.9554 7.66752 24.9664 7.67657C24.9774 7.68562 24.9883 7.69496 24.9988 7.70454C25.0094 7.71411 25.0197 7.72398 25.0299 7.73408C25.04 7.74418 25.0498 7.75451 25.0594 7.76511C25.069 7.77567 25.0783 7.78649 25.0874 7.79752C25.0964 7.80857 25.1052 7.81982 25.1137 7.83131C25.1222 7.84279 25.1304 7.85444 25.1384 7.86631C25.1463 7.87819 25.154 7.89027 25.1613 7.90251C25.1686 7.91475 25.1756 7.92718 25.1824 7.93979C25.1891 7.95239 25.1955 7.96512 25.2017 7.97805C25.2078 7.99095 25.2135 8.00401 25.219 8.0172C25.2245 8.0304 25.2296 8.04369 25.2344 8.05715C25.2392 8.0706 25.2437 8.08416 25.2479 8.09781C25.252 8.11147 25.2558 8.12525 25.2593 8.13911C25.2628 8.15296 25.2659 8.16691 25.2687 8.18089C25.2715 8.19491 25.2739 8.20899 25.276 8.2231C25.2781 8.23722 25.2798 8.2514 25.2813 8.26561C25.2826 8.27983 25.2837 8.29408 25.2844 8.30832C25.2851 8.3226 25.2854 8.33688 25.2854 8.35116C25.2854 8.36544 25.2851 8.37972 25.2844 8.39396C25.2837 8.40821 25.2826 8.42246 25.2813 8.43667C25.2798 8.45089 25.2781 8.46507 25.276 8.47918C25.2739 8.49333 25.2715 8.50741 25.2687 8.52139C25.2659 8.53541 25.2628 8.54933 25.2593 8.56318C25.2558 8.57703 25.252 8.59082 25.2479 8.60447C25.2437 8.61813 25.2392 8.63168 25.2344 8.64514C25.2296 8.6586 25.2245 8.67192 25.219 8.68512C25.2135 8.69831 25.2078 8.71134 25.2017 8.72427C25.1955 8.73717 25.1891 8.74993 25.1824 8.76253C25.1756 8.77514 25.1686 8.78754 25.1613 8.79978C25.154 8.81205 25.1463 8.82409 25.1384 8.83597C25.1304 8.84785 25.1222 8.85953 25.1137 8.87101C25.1052 8.88249 25.0964 8.89375 25.0874 8.90477C25.0783 8.91579 25.069 8.92662 25.0594 8.93721C25.0498 8.94777 25.04 8.9581 25.0299 8.9682C25.0197 8.9783 25.0094 8.98818 24.9988 8.99775C24.9883 9.00732 24.9774 9.01667 24.9664 9.02572C24.9554 9.03477 24.9441 9.04355 24.9326 9.05207C24.9211 9.06059 24.9095 9.06882 24.8976 9.07675C24.8857 9.08468 24.8737 9.09231 24.8614 9.09965C24.8492 9.10699 24.8367 9.11403 24.8241 9.12077C24.8115 9.12752 24.7988 9.13393 24.7859 9.14002C24.773 9.14614 24.7599 9.15193 24.7467 9.15739C24.7335 9.16285 24.7202 9.16799 24.7068 9.17279C24.6933 9.17763 24.6797 9.1821 24.6661 9.18625C24.6524 9.19039 24.6387 9.19421 24.6248 9.19766C24.611 9.20112 24.597 9.20424 24.583 9.20704C24.569 9.20984 24.5549 9.21227 24.5408 9.21438C24.5267 9.21645 24.5125 9.21819 24.4983 9.21961C24.4841 9.22102 24.4699 9.22208 24.4556 9.22277C24.4413 9.22346 24.4271 9.22382 24.4128 9.22382C24.3985 9.22382 24.3842 9.22346 24.3699 9.22277C24.3557 9.22208 24.3414 9.22102 24.3272 9.21961C24.313 9.21819 24.2988 9.21645 24.2847 9.21438C24.2706 9.21227 24.2565 9.20984 24.2425 9.20704C24.2285 9.20424 24.2146 9.20112 24.2007 9.19766C24.1869 9.19421 24.1731 9.19039 24.1595 9.18625C24.1458 9.1821 24.1322 9.17763 24.1188 9.17279C24.1053 9.16799 24.092 9.16285 24.0788 9.15739C24.0656 9.15193 24.0526 9.14614 24.0397 9.14002C24.0267 9.13393 24.014 9.12752 24.0014 9.12077C23.9888 9.11403 23.9764 9.10699 23.9641 9.09965C23.9519 9.09231 23.9398 9.08468 23.9279 9.07675C23.9161 9.06882 23.9044 9.06059 23.8929 9.05207C23.8814 9.04355 23.8702 9.03477 23.8592 9.02572C23.8481 9.01667 23.8373 9.00732 23.8267 8.99775C23.8161 8.98818 23.8058 8.9783 23.7957 8.9682C23.7856 8.9581 23.7758 8.94777 23.7661 8.93721C23.7566 8.92662 23.7472 8.91579 23.7382 8.90477C23.7291 8.89375 23.7203 8.88249 23.7118 8.87101C23.7033 8.85953 23.6951 8.84785 23.6872 8.83597C23.6793 8.82409 23.6716 8.81205 23.6643 8.79978C23.6569 8.78754 23.6499 8.77514 23.6431 8.76253C23.6364 8.74993 23.63 8.73717 23.6239 8.72427C23.6178 8.71134 23.612 8.69831 23.6065 8.68512C23.601 8.67192 23.5959 8.6586 23.5911 8.64514C23.5863 8.63168 23.5818 8.61813 23.5777 8.60447C23.5735 8.59082 23.5697 8.57703 23.5662 8.56318C23.5628 8.54933 23.5597 8.53541 23.5569 8.52139C23.5541 8.50741 23.5516 8.49333 23.5496 8.47918C23.5474 8.46507 23.5457 8.45089 23.5443 8.43667C23.5429 8.42246 23.5419 8.40821 23.5412 8.39396C23.5405 8.37972 23.5401 8.36544 23.5401 8.35116C23.5401 8.33688 23.5405 8.3226 23.5412 8.30832C23.5419 8.29408 23.5429 8.27983 23.5443 8.26561C23.5457 8.2514 23.5474 8.23722 23.5496 8.2231C23.5516 8.20899 23.5541 8.19491 23.5569 8.18089C23.5597 8.16691 23.5628 8.15296 23.5662 8.13911C23.5697 8.12525 23.5735 8.11147 23.5777 8.09781C23.5818 8.08416 23.5863 8.0706 23.5911 8.05715C23.5959 8.04369 23.601 8.0304 23.6065 8.0172C23.612 8.00401 23.6178 7.99095 23.6239 7.97805C23.63 7.96512 23.6364 7.95239 23.6431 7.93979C23.6499 7.92718 23.6569 7.91475 23.6643 7.90251C23.6716 7.89027 23.6793 7.87819 23.6872 7.86631C23.6951 7.85444 23.7033 7.84279 23.7118 7.83131C23.7203 7.81982 23.7291 7.80857 23.7382 7.79752C23.7472 7.78649 23.7566 7.77567 23.7661 7.76511C23.7758 7.75451 23.7856 7.74418 23.7957 7.73408C23.8058 7.72398 23.8161 7.71411 23.8267 7.70454C23.8373 7.69496 23.8481 7.68562 23.8592 7.67657C23.8702 7.66752 23.8814 7.65874 23.8929 7.65021C23.9044 7.64169 23.9161 7.63347 23.9279 7.62554C23.9398 7.61761 23.9519 7.60997 23.9641 7.60264C23.9764 7.5953 23.9888 7.58826 24.0014 7.58151C24.014 7.57477 24.0267 7.56835 24.0397 7.56227C24.0526 7.55618 24.0656 7.55039 24.0788 7.5449C24.092 7.53943 24.1053 7.5343 24.1188 7.5295C24.1322 7.52466 24.1458 7.52019 24.1595 7.51604C24.1731 7.51189 24.1869 7.50808 24.2007 7.50462C24.2146 7.50117 24.2285 7.49804 24.2425 7.49525C24.2565 7.49245 24.2706 7.49001 24.2847 7.48791C24.2988 7.48584 24.313 7.48409 24.3272 7.48268C24.3414 7.48126 24.3557 7.48021 24.37 7.47952C24.3842 7.47883 24.3985 7.47847 24.4128 7.47847ZM5.921 7.47847C5.93528 7.47847 5.94956 7.47883 5.96384 7.47952C5.9781 7.48021 5.99233 7.48126 6.00655 7.48268C6.02076 7.48409 6.03493 7.48584 6.04906 7.48791C6.06318 7.49001 6.07724 7.49245 6.09124 7.49525C6.10525 7.49804 6.11919 7.50117 6.13305 7.50462C6.1469 7.50808 6.16065 7.51189 6.17431 7.51604C6.18798 7.52019 6.20153 7.52466 6.21498 7.5295C6.22843 7.5343 6.24175 7.53943 6.25496 7.5449C6.26816 7.55039 6.28121 7.55618 6.29411 7.56227C6.30703 7.56835 6.31978 7.57477 6.33238 7.58151C6.34497 7.58826 6.35739 7.5953 6.36965 7.60264C6.38189 7.60997 6.39396 7.61761 6.40585 7.62554C6.41771 7.63347 6.42938 7.64169 6.44085 7.65021C6.45233 7.65874 6.46358 7.66752 6.47461 7.67657C6.48567 7.68562 6.49648 7.69496 6.50705 7.70454C6.51762 7.71411 6.52797 7.72398 6.53808 7.73408C6.54817 7.74418 6.55801 7.75451 6.56759 7.76511C6.5772 7.77567 6.58653 7.78649 6.59559 7.79752C6.60465 7.80857 6.61343 7.81982 6.62195 7.83131C6.63046 7.84279 6.63867 7.85444 6.64659 7.86631C6.65453 7.87819 6.66218 7.89027 6.66952 7.90251C6.67687 7.91475 6.6839 7.92718 6.69061 7.93979C6.69735 7.95239 6.70377 7.96512 6.70989 7.97805C6.71599 7.99095 6.72177 8.00401 6.72723 8.0172C6.73269 8.0304 6.73784 8.04369 6.74266 8.05715C6.74747 8.0706 6.75194 8.08416 6.75609 8.09781C6.76023 8.11147 6.76404 8.12525 6.7675 8.13911C6.77099 8.15296 6.77413 8.16691 6.77691 8.18089C6.7797 8.19491 6.78214 8.20899 6.78422 8.2231C6.78632 8.23722 6.78808 8.2514 6.78948 8.26561C6.79086 8.27983 6.79191 8.29408 6.79261 8.30832C6.79331 8.3226 6.79366 8.33688 6.79366 8.35116C6.79366 8.36544 6.79331 8.37972 6.79261 8.39396C6.79191 8.40821 6.79086 8.42246 6.78948 8.43667C6.78808 8.45089 6.78632 8.46507 6.78422 8.47918C6.78214 8.49333 6.7797 8.50741 6.77691 8.52139C6.77413 8.53541 6.77099 8.54933 6.7675 8.56318C6.76404 8.57703 6.76023 8.59082 6.75609 8.60447C6.75194 8.61813 6.74747 8.63168 6.74266 8.64514C6.73784 8.6586 6.73269 8.67192 6.72723 8.68512C6.72177 8.69831 6.71599 8.71134 6.70989 8.72427C6.70377 8.73717 6.69735 8.74993 6.69061 8.76253C6.6839 8.77514 6.67687 8.78754 6.66952 8.79978C6.66218 8.81205 6.65453 8.82409 6.64659 8.83597C6.63867 8.84785 6.63046 8.85953 6.62195 8.87101C6.61343 8.88249 6.60465 8.89375 6.59559 8.90477C6.58653 8.91579 6.57721 8.92662 6.56762 8.93721C6.55802 8.94777 6.54817 8.9581 6.53808 8.9682C6.52797 8.9783 6.51762 8.98818 6.50705 8.99775C6.49648 9.00732 6.48567 9.01667 6.47461 9.02572C6.46358 9.03477 6.45233 9.04355 6.44085 9.05207C6.42938 9.06059 6.41771 9.06882 6.40585 9.07675C6.39396 9.08468 6.38189 9.09231 6.36965 9.09965C6.35739 9.10699 6.34497 9.11403 6.33238 9.12077C6.31978 9.12752 6.30703 9.13393 6.29411 9.14002C6.28121 9.14614 6.26816 9.15193 6.25496 9.15739C6.24175 9.16285 6.22843 9.16799 6.21498 9.17279C6.20153 9.17763 6.18798 9.1821 6.17431 9.18625C6.16065 9.19039 6.1469 9.19421 6.13305 9.19766C6.11919 9.20112 6.10525 9.20424 6.09124 9.20704C6.07724 9.20984 6.06318 9.21227 6.04906 9.21438C6.03493 9.21645 6.02076 9.21819 6.00655 9.21961C5.99233 9.22102 5.9781 9.22208 5.96384 9.22277C5.94956 9.22346 5.93528 9.22382 5.921 9.22382C5.90672 9.22382 5.89245 9.22346 5.8782 9.22277C5.86392 9.22208 5.84967 9.22102 5.83546 9.21961C5.82124 9.21819 5.80707 9.21645 5.79295 9.21438C5.77882 9.21227 5.76476 9.20984 5.75077 9.20704C5.73675 9.20424 5.72281 9.20112 5.70895 9.19766C5.69511 9.19421 5.68135 9.19039 5.66769 9.18625C5.65402 9.1821 5.64047 9.17763 5.62702 9.17279C5.61357 9.16799 5.60025 9.16285 5.58705 9.15739C5.57384 9.15193 5.56079 9.14614 5.54789 9.14002C5.53497 9.13393 5.52222 9.12752 5.50963 9.12077C5.49704 9.11403 5.48461 9.10699 5.47235 9.09965C5.46011 9.09231 5.44804 9.08468 5.43616 9.07675C5.42429 9.06882 5.41262 9.06059 5.40115 9.05207C5.38968 9.04355 5.37842 9.03477 5.36739 9.02572C5.35636 9.01667 5.34554 9.00732 5.33495 8.99775C5.32438 8.98818 5.31404 8.9783 5.30392 8.9682C5.29383 8.9581 5.28399 8.94777 5.27441 8.93721C5.2648 8.92662 5.25547 8.91579 5.24641 8.90477C5.23735 8.89375 5.22857 8.88249 5.22006 8.87101C5.21154 8.85953 5.20333 8.84785 5.19541 8.83597C5.18747 8.82409 5.17983 8.81205 5.17248 8.79978C5.16515 8.78754 5.15812 8.77514 5.15139 8.76253C5.14466 8.74993 5.13823 8.73717 5.13211 8.72427C5.12601 8.71134 5.12023 8.69831 5.11477 8.68512C5.10931 8.67192 5.10416 8.6586 5.09934 8.64514C5.09453 8.63168 5.09006 8.61813 5.08591 8.60447C5.08177 8.59082 5.07796 8.57703 5.0745 8.56318C5.07101 8.54933 5.06787 8.53541 5.06509 8.52139C5.0623 8.50741 5.05987 8.49333 5.05778 8.47918C5.05568 8.46507 5.05393 8.45089 5.05255 8.43667C5.05115 8.42246 5.0501 8.40821 5.04939 8.39396C5.04869 8.37972 5.04834 8.36544 5.04834 8.35116C5.04834 8.33688 5.04869 8.3226 5.04939 8.30832C5.0501 8.29408 5.05115 8.27983 5.05255 8.26561C5.05393 8.2514 5.05568 8.23722 5.05778 8.2231C5.05987 8.20899 5.0623 8.19491 5.06509 8.18089C5.06787 8.16691 5.07101 8.15296 5.0745 8.13911C5.07796 8.12525 5.08177 8.11147 5.08591 8.09781C5.09006 8.08416 5.09453 8.0706 5.09934 8.05715C5.10416 8.04369 5.10931 8.0304 5.11477 8.0172C5.12023 8.00401 5.12601 7.99095 5.13211 7.97805C5.13823 7.96512 5.14466 7.95239 5.15139 7.93979C5.15812 7.92718 5.16515 7.91475 5.17248 7.90251C5.17983 7.89027 5.18747 7.87819 5.19541 7.86631C5.20333 7.85444 5.21154 7.84279 5.22006 7.83131C5.22857 7.81982 5.23735 7.80857 5.24641 7.79752C5.25547 7.78649 5.2648 7.77567 5.27441 7.76511C5.28399 7.75451 5.29383 7.74418 5.30392 7.73408C5.31404 7.72398 5.32438 7.71411 5.33495 7.70454C5.34554 7.69496 5.35636 7.68562 5.36739 7.67657C5.37842 7.66752 5.38968 7.65874 5.40115 7.65021C5.41262 7.64169 5.42429 7.63347 5.43616 7.62554C5.44804 7.61761 5.46011 7.60997 5.47235 7.60264C5.48461 7.5953 5.49704 7.58826 5.50963 7.58151C5.52222 7.57477 5.53497 7.56835 5.54789 7.56227C5.56079 7.55618 5.57384 7.55039 5.58705 7.5449C5.60025 7.53943 5.61357 7.5343 5.62702 7.5295C5.64047 7.52466 5.65402 7.52019 5.66769 7.51604C5.68135 7.51189 5.69511 7.50808 5.70895 7.50462C5.72281 7.50117 5.73675 7.49804 5.75077 7.49525C5.76476 7.49245 5.77882 7.49001 5.79295 7.48791C5.80707 7.48584 5.82124 7.48409 5.83546 7.48268C5.84967 7.48126 5.86392 7.48021 5.8782 7.47952C5.89245 7.47883 5.90672 7.47847 5.921 7.47847ZM19.6407 3.89941C19.655 3.89941 19.6693 3.89977 19.6835 3.90047C19.6978 3.90117 19.712 3.90222 19.7262 3.90363C19.7405 3.90503 19.7546 3.90677 19.7687 3.90886C19.7829 3.91096 19.7969 3.91341 19.811 3.91619C19.8249 3.91898 19.8389 3.92211 19.8527 3.92557C19.8666 3.92904 19.8804 3.93284 19.894 3.93699C19.9077 3.94113 19.9212 3.94562 19.9347 3.95045C19.9482 3.95525 19.9615 3.96038 19.9746 3.96584C19.9878 3.97131 20.0009 3.9771 20.0138 3.98322C20.0267 3.98931 20.0395 3.99573 20.0521 4.00246C20.0647 4.0092 20.0771 4.01624 20.0893 4.02359C20.1016 4.03093 20.1137 4.03857 20.1255 4.04649C20.1374 4.05443 20.1491 4.06265 20.1605 4.07116C20.172 4.07967 20.1833 4.08846 20.1943 4.09752C20.2054 4.10658 20.2162 4.1159 20.2267 4.12548C20.2373 4.13507 20.2477 4.14492 20.2578 4.15503C20.2679 4.16512 20.2777 4.17546 20.2873 4.18606C20.2969 4.19663 20.3062 4.20743 20.3153 4.21847C20.3243 4.22952 20.3331 4.24078 20.3416 4.25226C20.3502 4.26373 20.3584 4.2754 20.3663 4.28726C20.3742 4.29913 20.3819 4.31119 20.3892 4.32346C20.3966 4.3357 20.4036 4.34812 20.4103 4.36073C20.4171 4.37333 20.4235 4.38607 20.4296 4.39897C20.4357 4.41189 20.4415 4.42495 20.4469 4.43815C20.4524 4.45134 20.4576 4.46465 20.4624 4.4781C20.4672 4.49154 20.4716 4.5051 20.4758 4.51876C20.4799 4.53243 20.4837 4.54619 20.4872 4.56005C20.4907 4.57392 20.4938 4.58785 20.4966 4.60184C20.4994 4.61586 20.5018 4.62993 20.5039 4.64405C20.506 4.65818 20.5078 4.67235 20.5092 4.68656C20.5106 4.70078 20.5116 4.71501 20.5123 4.72927C20.513 4.74355 20.5134 4.75783 20.5134 4.77211C20.5134 4.78639 20.513 4.80066 20.5123 4.81491C20.5116 4.82917 20.5106 4.84341 20.5092 4.85762C20.5078 4.87183 20.506 4.886 20.5039 4.90013C20.5018 4.91425 20.4994 4.92833 20.4966 4.94234C20.4938 4.95636 20.4907 4.97029 20.4872 4.98413C20.4837 4.99799 20.4799 5.01176 20.4758 5.02542C20.4716 5.03908 20.4672 5.05264 20.4624 5.06609C20.4576 5.07953 20.4524 5.09286 20.4469 5.10606C20.4415 5.11925 20.4357 5.1323 20.4296 5.14522C20.4235 5.15811 20.4171 5.17087 20.4103 5.18348C20.4036 5.19607 20.3966 5.20849 20.3892 5.22073C20.3819 5.23299 20.3742 5.24505 20.3663 5.25692C20.3584 5.26881 20.3502 5.28049 20.3416 5.29196C20.3331 5.30343 20.3243 5.31469 20.3153 5.32572C20.3062 5.33675 20.2969 5.34756 20.2873 5.35816C20.2777 5.36873 20.2679 5.37906 20.2578 5.38915C20.2477 5.39926 20.2373 5.40911 20.2267 5.4187C20.2162 5.42828 20.2054 5.43761 20.1943 5.44667C20.1833 5.45572 20.172 5.46451 20.1605 5.47302C20.1491 5.48153 20.1374 5.48976 20.1255 5.4977C20.1137 5.50564 20.1016 5.51327 20.0893 5.5206C20.0771 5.52794 20.0647 5.53498 20.0521 5.54172C20.0395 5.54845 20.0267 5.55487 20.0138 5.56097C20.0009 5.56709 19.9878 5.57288 19.9746 5.57834C19.9615 5.5838 19.9482 5.58894 19.9347 5.59377C19.9212 5.59857 19.9077 5.60305 19.894 5.60719C19.8804 5.61134 19.8666 5.61515 19.8527 5.61861C19.8389 5.62208 19.8249 5.6252 19.811 5.62799C19.7969 5.63078 19.7829 5.63322 19.7687 5.63533C19.7546 5.63741 19.7405 5.63915 19.7262 5.64056C19.712 5.64196 19.6978 5.64301 19.6835 5.64372C19.6693 5.64442 19.655 5.64477 19.6407 5.64477C19.6264 5.64477 19.6121 5.64442 19.5979 5.64372C19.5836 5.64301 19.5694 5.64196 19.5552 5.64056C19.541 5.63915 19.5268 5.63741 19.5126 5.63533C19.4985 5.63322 19.4844 5.63078 19.4705 5.62799C19.4564 5.6252 19.4425 5.62208 19.4287 5.61861C19.4148 5.61515 19.401 5.61134 19.3874 5.60719C19.3737 5.60305 19.3602 5.59857 19.3467 5.59377C19.3333 5.58894 19.3199 5.5838 19.3067 5.57834C19.2935 5.57288 19.2805 5.56709 19.2676 5.56097C19.2547 5.55487 19.2419 5.54845 19.2293 5.54172C19.2167 5.53498 19.2043 5.52794 19.1921 5.5206C19.1798 5.51327 19.1678 5.50564 19.1559 5.4977C19.144 5.48976 19.1323 5.48153 19.1208 5.47302C19.1094 5.46451 19.0981 5.45572 19.0871 5.44667C19.0761 5.43761 19.0652 5.42828 19.0546 5.4187C19.0441 5.40911 19.0337 5.39926 19.0236 5.38915C19.0135 5.37906 19.0037 5.36873 18.9941 5.35816C18.9845 5.34756 18.9752 5.33675 18.9661 5.32572C18.9571 5.31469 18.9483 5.30343 18.9397 5.29196C18.9313 5.28049 18.923 5.26881 18.9151 5.25692C18.9072 5.24505 18.8995 5.23299 18.8922 5.22073C18.8848 5.20849 18.8778 5.19607 18.8711 5.18348C18.8643 5.17087 18.8579 5.15811 18.8518 5.14522C18.8457 5.1323 18.8399 5.11925 18.8345 5.10606C18.829 5.09286 18.8239 5.07953 18.819 5.06609C18.8142 5.05264 18.8098 5.03908 18.8056 5.02542C18.8015 5.01176 18.7976 4.99799 18.7942 4.98413C18.7907 4.97029 18.7876 4.95636 18.7848 4.94234C18.782 4.92833 18.7796 4.91425 18.7775 4.90013C18.7754 4.886 18.7736 4.87183 18.7722 4.85762C18.7708 4.84341 18.7698 4.82917 18.7691 4.81491C18.7684 4.80066 18.768 4.78639 18.768 4.77211C18.768 4.75783 18.7684 4.74355 18.7691 4.72927C18.7698 4.71501 18.7708 4.70078 18.7722 4.68656C18.7737 4.67235 18.7754 4.65818 18.7775 4.64405C18.7796 4.62993 18.782 4.61586 18.7848 4.60184C18.7876 4.58785 18.7907 4.57392 18.7942 4.56005C18.7976 4.54619 18.8015 4.53243 18.8056 4.51876C18.8098 4.5051 18.8142 4.49154 18.819 4.4781C18.8239 4.46465 18.829 4.45134 18.8345 4.43815C18.8399 4.42495 18.8457 4.4119 18.8518 4.399C18.8579 4.38608 18.8643 4.37333 18.8711 4.36073C18.8778 4.34812 18.8848 4.3357 18.8922 4.32346C18.8995 4.31119 18.9072 4.29913 18.9151 4.28726C18.923 4.2754 18.9313 4.26373 18.9397 4.25226C18.9483 4.24078 18.9571 4.22952 18.9661 4.21847C18.9752 4.20743 18.9845 4.19663 18.9941 4.18606C19.0037 4.17546 19.0135 4.16512 19.0236 4.15503C19.0337 4.14492 19.0441 4.13507 19.0546 4.12548C19.0652 4.1159 19.0761 4.10658 19.0871 4.09752C19.0981 4.08846 19.1094 4.07967 19.1208 4.07116C19.1323 4.06265 19.144 4.05443 19.1559 4.04649C19.1678 4.03857 19.1798 4.03093 19.1921 4.02359C19.2043 4.01624 19.2167 4.0092 19.2293 4.00246C19.2419 3.99573 19.2547 3.98931 19.2676 3.98322C19.2805 3.97712 19.2935 3.97133 19.3067 3.96584C19.3199 3.96038 19.3333 3.95525 19.3467 3.95045C19.3602 3.94562 19.3737 3.94113 19.3874 3.93699C19.401 3.93284 19.4148 3.92904 19.4287 3.92557C19.4425 3.92211 19.4564 3.91898 19.4705 3.91619C19.4844 3.91341 19.4985 3.91096 19.5126 3.90886C19.5268 3.90677 19.541 3.90503 19.5552 3.90363C19.5694 3.90222 19.5836 3.90117 19.5979 3.90047C19.6121 3.89977 19.6264 3.89941 19.6407 3.89941ZM10.6931 3.89941C10.7074 3.89941 10.7216 3.89977 10.7359 3.90047C10.7502 3.90117 10.7644 3.90222 10.7786 3.90363C10.7928 3.90503 10.807 3.90677 10.8211 3.90886C10.8353 3.91096 10.8493 3.91341 10.8633 3.91619C10.8773 3.91898 10.8912 3.92211 10.9051 3.92557C10.919 3.92904 10.9327 3.93284 10.9464 3.93699C10.96 3.94113 10.9736 3.94562 10.9871 3.95045C11.0005 3.95525 11.0138 3.96038 11.027 3.96584C11.0402 3.97131 11.0533 3.9771 11.0662 3.98322C11.0791 3.98931 11.0919 3.99573 11.1045 4.00246C11.1171 4.0092 11.1295 4.01624 11.1417 4.02359C11.154 4.03093 11.166 4.03857 11.1779 4.04649C11.1898 4.05443 11.2015 4.06265 11.2129 4.07116C11.2244 4.07967 11.2357 4.08846 11.2467 4.09752C11.2577 4.10658 11.2685 4.1159 11.2791 4.12548C11.2897 4.13507 11.3001 4.14492 11.3102 4.15503C11.3203 4.16512 11.3301 4.17546 11.3397 4.18606C11.3492 4.19663 11.3586 4.20743 11.3677 4.21847C11.3767 4.22952 11.3855 4.24078 11.394 4.25226C11.4025 4.26373 11.4107 4.2754 11.4187 4.28726C11.4266 4.29913 11.4342 4.31119 11.4416 4.32346C11.4489 4.3357 11.4559 4.34812 11.4627 4.36073C11.4694 4.37333 11.4759 4.38607 11.4819 4.39897C11.4881 4.41189 11.4939 4.42495 11.4993 4.43815C11.5048 4.45134 11.5099 4.46465 11.5147 4.4781C11.5195 4.49154 11.524 4.5051 11.5282 4.51876C11.5323 4.53243 11.5361 4.54619 11.5396 4.56005C11.543 4.57392 11.5462 4.58785 11.549 4.60184C11.5518 4.61586 11.5542 4.62993 11.5563 4.64405C11.5584 4.65818 11.5601 4.67235 11.5615 4.68656C11.5629 4.70078 11.564 4.71501 11.5647 4.72927C11.5654 4.74355 11.5657 4.75783 11.5657 4.77211C11.5657 4.78639 11.5654 4.80066 11.5647 4.81491C11.564 4.82917 11.5629 4.84341 11.5615 4.85762C11.5601 4.87183 11.5584 4.886 11.5563 4.90013C11.5542 4.91425 11.5518 4.92833 11.549 4.94234C11.5462 4.95636 11.543 4.97029 11.5396 4.98413C11.5361 4.99799 11.5323 5.01176 11.5282 5.02542C11.524 5.03908 11.5195 5.05264 11.5147 5.06609C11.5099 5.07953 11.5048 5.09286 11.4993 5.10606C11.4939 5.11925 11.4881 5.1323 11.4819 5.14522C11.4759 5.15811 11.4694 5.17087 11.4627 5.18348C11.4559 5.19607 11.4489 5.20849 11.4416 5.22073C11.4343 5.23299 11.4266 5.24505 11.4187 5.25692C11.4107 5.26881 11.4025 5.28049 11.394 5.29196C11.3855 5.30343 11.3767 5.31469 11.3677 5.32572C11.3586 5.33675 11.3492 5.34756 11.3397 5.35816C11.3301 5.36873 11.3203 5.37906 11.3102 5.38915C11.3001 5.39926 11.2897 5.40911 11.2791 5.4187C11.2685 5.42828 11.2577 5.43761 11.2467 5.44667C11.2357 5.45572 11.2244 5.46451 11.2129 5.47302C11.2015 5.48153 11.1898 5.48976 11.1779 5.4977C11.166 5.50564 11.154 5.51327 11.1417 5.5206C11.1295 5.52794 11.1171 5.53498 11.1045 5.54172C11.0919 5.54845 11.0791 5.55487 11.0662 5.56097C11.0533 5.56709 11.0402 5.57288 11.027 5.57834C11.0138 5.5838 11.0005 5.58894 10.9871 5.59377C10.9736 5.59857 10.96 5.60305 10.9464 5.60719C10.9327 5.61134 10.919 5.61515 10.9051 5.61861C10.8912 5.62208 10.8773 5.6252 10.8633 5.62799C10.8493 5.63078 10.8353 5.63322 10.8211 5.63533C10.807 5.63741 10.7928 5.63915 10.7786 5.64056C10.7644 5.64196 10.7502 5.64301 10.7359 5.64372C10.7216 5.64442 10.7074 5.64477 10.6931 5.64477C10.6788 5.64477 10.6645 5.64442 10.6502 5.64372C10.636 5.64301 10.6217 5.64196 10.6075 5.64056C10.5933 5.63915 10.5791 5.63741 10.565 5.63533C10.5509 5.63322 10.5368 5.63078 10.5228 5.62799C10.5088 5.6252 10.4949 5.62208 10.481 5.61861C10.4672 5.61515 10.4534 5.61134 10.4397 5.60719C10.4261 5.60305 10.4125 5.59857 10.3991 5.59377C10.3856 5.58894 10.3723 5.5838 10.3591 5.57834C10.3459 5.57288 10.3329 5.56709 10.32 5.56097C10.307 5.55487 10.2943 5.54845 10.2817 5.54172C10.2691 5.53498 10.2567 5.52794 10.2444 5.5206C10.2322 5.51327 10.2201 5.50564 10.2082 5.4977C10.1964 5.48976 10.1847 5.48153 10.1732 5.47302C10.1617 5.46451 10.1505 5.45572 10.1395 5.44667C10.1284 5.43761 10.1176 5.42828 10.107 5.4187C10.0964 5.40911 10.0861 5.39926 10.076 5.38915C10.0659 5.37906 10.0561 5.36873 10.0465 5.35816C10.0369 5.34756 10.0275 5.33675 10.0185 5.32572C10.0094 5.31469 10.0007 5.30343 9.99214 5.29196C9.98361 5.28049 9.97539 5.26881 9.96746 5.25692C9.95953 5.24505 9.9519 5.23299 9.94456 5.22073C9.93722 5.20849 9.93018 5.19607 9.92344 5.18348C9.91669 5.17087 9.91027 5.15811 9.90419 5.14522C9.8981 5.1323 9.89231 5.11925 9.88682 5.10606C9.88135 5.09286 9.87622 5.07953 9.87142 5.06609C9.86661 5.05264 9.86214 5.03908 9.85799 5.02542C9.85385 5.01176 9.85003 4.99799 9.84654 4.98413C9.84309 4.97029 9.83996 4.95636 9.83717 4.94234C9.83437 4.92833 9.83194 4.91425 9.82986 4.90013C9.82776 4.886 9.82601 4.87183 9.8246 4.85762C9.82318 4.84341 9.82213 4.82917 9.82144 4.81491C9.82075 4.80066 9.82039 4.78639 9.82039 4.77211C9.82039 4.75783 9.82075 4.74355 9.82144 4.72927C9.82213 4.71501 9.82318 4.70078 9.8246 4.68656C9.82601 4.67235 9.82776 4.65818 9.82986 4.64405C9.83194 4.62993 9.83437 4.61586 9.83717 4.60184C9.83996 4.58785 9.84309 4.57392 9.84654 4.56005C9.85003 4.54619 9.85385 4.53243 9.85799 4.51876C9.86214 4.5051 9.86661 4.49154 9.87142 4.4781C9.87622 4.46465 9.88135 4.45134 9.88682 4.43815C9.89231 4.42495 9.8981 4.4119 9.90419 4.399C9.91027 4.38608 9.91669 4.37333 9.92344 4.36073C9.93018 4.34812 9.93722 4.3357 9.94456 4.32346C9.9519 4.31119 9.95953 4.29913 9.96746 4.28726C9.97539 4.2754 9.98361 4.26373 9.99214 4.25226C10.0007 4.24078 10.0094 4.22952 10.0185 4.21847C10.0275 4.20743 10.0369 4.19663 10.0465 4.18606C10.0561 4.17546 10.0659 4.16512 10.076 4.15503C10.0861 4.14492 10.0964 4.13507 10.107 4.12548C10.1176 4.1159 10.1284 4.10658 10.1395 4.09752C10.1505 4.08846 10.1617 4.07967 10.1732 4.07116C10.1847 4.06265 10.1964 4.05443 10.2082 4.04649C10.2201 4.03857 10.2322 4.03093 10.2444 4.02359C10.2567 4.01624 10.2691 4.0092 10.2817 4.00246C10.2943 3.99573 10.307 3.98931 10.32 3.98322C10.3329 3.97712 10.3459 3.97133 10.3591 3.96584C10.3723 3.96038 10.3856 3.95525 10.3991 3.95045C10.4125 3.94562 10.4261 3.94113 10.4397 3.93699C10.4534 3.93284 10.4672 3.92904 10.481 3.92557C10.4949 3.92211 10.5088 3.91898 10.5228 3.91619C10.5368 3.91341 10.5509 3.91096 10.565 3.90886C10.5791 3.90677 10.5933 3.90503 10.6075 3.90363C10.6217 3.90222 10.636 3.90117 10.6502 3.90047C10.6645 3.89977 10.6788 3.89941 10.6931 3.89941Z"></path><path id="路径 7" fill-rule="evenodd" style="fill:#153E8B" opacity="1" d="M22.6453 13.8081L22.6453 14.9128L8.28491 14.9128L8.28491 13.8081L22.6453 13.8081Z"></path><path id="路径 8" fill-rule="evenodd" style="fill:#153E8B" opacity="1" d="M15.686 5.52319L15.686 23.1975L14.5813 23.1975L14.5813 5.52319L15.686 5.52319Z"></path></g></svg>