<svg xmlns="http://www.w3.org/2000/svg" xmlns:xlink="http://www.w3.org/1999/xlink" width="30" height="27.161458333333336" viewBox="0 0 30 27.161458333333336" fill="none"><g opacity="1"  transform="translate(0 0)"><path id="路径 4" fill-rule="evenodd" style="fill:#146AE4" opacity="1" d="M0 0L8.75 0C8.81137 0 8.87273 0.00136747 8.93402 0.0041024C8.99531 0.00681416 9.05648 0.0108928 9.11758 0.0163395C9.17863 0.0217856 9.23953 0.0285879 9.30023 0.0367458C9.36094 0.0449037 9.4214 0.0544053 9.4816 0.0652511C9.5418 0.0760733 9.60164 0.0882394 9.66117 0.101749C9.7207 0.115259 9.77984 0.130078 9.83855 0.146205C9.89726 0.162332 9.95555 0.179756 10.0133 0.198477C10.0711 0.217197 10.1284 0.237191 10.1851 0.258458C10.2418 0.279701 10.2979 0.302207 10.3533 0.325973C10.4088 0.349739 10.4636 0.374718 10.5177 0.400914C10.5718 0.42711 10.6252 0.454484 10.6779 0.483035C10.7305 0.511611 10.7823 0.54133 10.8334 0.572194C10.8844 0.603058 10.9346 0.63504 10.9839 0.668143C11.0332 0.701246 11.0815 0.735421 11.129 0.770671C11.1764 0.805921 11.2229 0.842207 11.2684 0.879529C11.3138 0.91683 11.3582 0.955132 11.4016 0.994435C11.445 1.03372 11.4873 1.07394 11.5286 1.1151C11.5698 1.1563 11.6098 1.19836 11.6488 1.24129C11.6877 1.28425 11.7255 1.32805 11.762 1.37268C11.7986 1.41731 11.8339 1.46272 11.868 1.50891C11.9021 1.55512 11.9349 1.60206 11.9665 1.6497C11.998 1.69738 12.0283 1.74571 12.0572 1.79471C12.0861 1.8437 12.1137 1.89332 12.14 1.94356C12.1662 1.99379 12.1911 2.04456 12.2145 2.09589C12.238 2.14724 12.2601 2.19908 12.2808 2.25139C12.3014 2.30369 12.3207 2.35643 12.3385 2.40962C12.3563 2.46279 12.3727 2.51632 12.3876 2.57022C12.4025 2.62412 12.416 2.67831 12.4279 2.7328C12.4399 2.78731 12.4504 2.84205 12.4594 2.89701C12.4684 2.95197 12.4759 3.00709 12.482 3.06238C12.488 3.1177 12.4925 3.17309 12.4955 3.22857C12.4985 3.28407 12.5 3.33961 12.5 3.39518L12.5 11.3173L3.75 11.3173C3.68862 11.3173 3.62729 11.3159 3.56602 11.3132C3.50471 11.3104 3.44352 11.3064 3.38242 11.3009C3.32136 11.2955 3.26047 11.2887 3.19977 11.2805C3.13906 11.2724 3.0786 11.2629 3.0184 11.252C2.95821 11.2412 2.89836 11.229 2.83883 11.2155C2.7793 11.202 2.72017 11.1872 2.66145 11.1711C2.60272 11.1549 2.54446 11.1375 2.48668 11.1188C2.42889 11.1001 2.37164 11.0801 2.31492 11.0588C2.25823 11.0376 2.20215 11.0151 2.14668 10.9913C2.09118 10.9675 2.03638 10.9426 1.98227 10.9164C1.92815 10.8902 1.87477 10.8628 1.82211 10.8342C1.76948 10.8057 1.71764 10.776 1.6666 10.7451C1.61559 10.7142 1.56543 10.6822 1.51613 10.6491C1.46684 10.616 1.41846 10.5819 1.37102 10.5466C1.32359 10.5113 1.27714 10.4751 1.23164 10.4377C1.18617 10.4004 1.14175 10.3621 1.09836 10.3228C1.05495 10.2835 1.01264 10.2433 0.971445 10.2022C0.930223 10.161 0.890144 10.1189 0.851211 10.076C0.812277 10.033 0.774531 9.98923 0.737969 9.94459C0.701406 9.89996 0.666082 9.85455 0.631992 9.80836C0.597902 9.76214 0.565078 9.71521 0.533516 9.66757C0.50198 9.61989 0.471746 9.57155 0.442812 9.52256C0.413879 9.47358 0.386289 9.42396 0.360039 9.37371C0.333789 9.32349 0.308932 9.2727 0.285469 9.22138C0.261979 9.17003 0.239896 9.11818 0.219219 9.06588C0.198542 9.01357 0.179297 8.9608 0.161484 8.90765C0.143671 8.85449 0.127305 8.80095 0.112383 8.74705C0.0974609 8.69315 0.0840234 8.63897 0.0720703 8.58447C0.060091 8.52997 0.0495965 8.47522 0.0405859 8.42026C0.0315755 8.3653 0.0240624 8.31017 0.0180471 8.25489C0.0120312 8.19958 0.00752629 8.14419 0.00453113 8.0887C0.00151038 8.03321 0 7.97765 0 7.92209L0 0Z"></path><path id="路径 6" fill-rule="evenodd" style="fill:#153E8B" opacity="1" d="M11.25 14.7125L11.25 21.5028C11.25 21.5398 11.249 21.5769 11.247 21.6139C11.245 21.6509 11.242 21.6878 11.238 21.7247C11.2339 21.7616 11.2289 21.7983 11.2229 21.8349C11.2169 21.8716 11.21 21.9081 11.2019 21.9444C11.194 21.9807 11.185 22.0169 11.1751 22.0528C11.1651 22.0887 11.1542 22.1244 11.1423 22.1599C11.1305 22.1953 11.1177 22.2305 11.1039 22.2654C11.0901 22.3002 11.0753 22.3348 11.0597 22.369C11.044 22.4032 11.0275 22.4371 11.01 22.4705C10.9925 22.504 10.9741 22.5371 10.9548 22.5698C10.9355 22.6025 10.9153 22.6347 10.8943 22.6664C10.8733 22.6982 10.8514 22.7295 10.8287 22.7603C10.8059 22.7911 10.7824 22.8214 10.758 22.8512C10.7336 22.8809 10.7085 22.9101 10.6825 22.9387C10.6566 22.9674 10.6298 22.9954 10.6024 23.0229C10.5749 23.0503 10.5467 23.0771 10.5178 23.1033C10.4888 23.1295 10.4592 23.1551 10.4289 23.1799C10.3986 23.2048 10.3676 23.229 10.336 23.2525C10.3044 23.276 10.2721 23.2988 10.2393 23.3208C10.2064 23.3429 10.1729 23.3642 10.1389 23.3848C10.1049 23.4054 10.0703 23.4252 10.0353 23.4443C10.0002 23.4633 9.96457 23.4815 9.92847 23.499C9.89242 23.5164 9.85586 23.5331 9.81886 23.5489C9.78187 23.5648 9.74449 23.5798 9.70672 23.594C9.6689 23.6081 9.63074 23.6215 9.59222 23.634C9.55371 23.6464 9.51488 23.658 9.4757 23.6688C9.43656 23.6796 9.39715 23.6894 9.35746 23.6984C9.31777 23.7075 9.27785 23.7156 9.23773 23.7228C9.19761 23.73 9.1573 23.7363 9.11683 23.7418C9.07636 23.7472 9.03578 23.7517 8.99504 23.7554C8.95433 23.759 8.91355 23.7617 8.87265 23.7635C8.83179 23.7654 8.7909 23.7663 8.75 23.7663L1.25 23.7663L1.25 16.9759C1.25 16.9389 1.251 16.9018 1.25301 16.8649C1.25501 16.8278 1.25802 16.7909 1.26203 16.7541C1.26604 16.7172 1.27105 16.6804 1.27707 16.6438C1.28306 16.6071 1.29005 16.5706 1.29805 16.5343C1.30602 16.498 1.31497 16.4619 1.32492 16.4259C1.33487 16.39 1.34578 16.3543 1.35766 16.3189C1.36953 16.2834 1.38236 16.2482 1.39613 16.2134C1.40991 16.1785 1.42464 16.1439 1.44031 16.1097C1.45596 16.0755 1.47254 16.0417 1.49004 16.0082C1.50751 15.9747 1.5259 15.9416 1.54519 15.9089C1.56449 15.8763 1.58465 15.844 1.60566 15.8123C1.62671 15.7805 1.64859 15.7492 1.67133 15.7184C1.69406 15.6876 1.71762 15.6573 1.74199 15.6276C1.76637 15.5978 1.79152 15.5686 1.81746 15.54C1.84343 15.5113 1.87014 15.4833 1.89762 15.4559C1.92509 15.4284 1.95329 15.4016 1.98223 15.3754C2.01116 15.3492 2.04078 15.3237 2.07109 15.2988C2.10141 15.2739 2.13238 15.2497 2.16402 15.2262C2.19564 15.2027 2.22788 15.18 2.26074 15.1579C2.2936 15.1358 2.32706 15.1145 2.36109 15.0939C2.3951 15.0733 2.42965 15.0535 2.46473 15.0345C2.49983 15.0154 2.53543 14.9972 2.57152 14.9797C2.60759 14.9622 2.64411 14.9456 2.68109 14.9298C2.7181 14.9139 2.7555 14.8989 2.79328 14.8848C2.83109 14.8706 2.86926 14.8572 2.90777 14.8448C2.94629 14.8323 2.98513 14.8207 3.0243 14.8099C3.06344 14.7992 3.10285 14.7893 3.14254 14.7803C3.18223 14.7713 3.22214 14.7632 3.26226 14.756C3.30239 14.7487 3.34269 14.7424 3.38316 14.737C3.42363 14.7315 3.46423 14.727 3.50496 14.7233C3.54566 14.7197 3.58646 14.717 3.62734 14.7152C3.6682 14.7134 3.70909 14.7125 3.75 14.7125L11.25 14.7125ZM12.5 13.5807L3.75 13.5807C3.68862 13.5807 3.62729 13.5821 3.56601 13.5848C3.50471 13.5876 3.44351 13.5916 3.38242 13.5971C3.32135 13.6025 3.26047 13.6093 3.19976 13.6175C3.13906 13.6256 3.0786 13.6351 3.0184 13.646C2.95821 13.6568 2.89836 13.669 2.83883 13.6825C2.7793 13.696 2.72017 13.7108 2.66144 13.7269C2.60272 13.7431 2.54446 13.7605 2.48668 13.7792C2.42889 13.7979 2.37164 13.8179 2.31492 13.8392C2.25823 13.8604 2.20215 13.8829 2.14668 13.9067C2.09118 13.9305 2.03638 13.9554 1.98226 13.9816C1.92815 14.0078 1.87477 14.0352 1.82211 14.0638C1.76948 14.0923 1.71764 14.122 1.6666 14.1529C1.61559 14.1838 1.56543 14.2158 1.51613 14.2489C1.46684 14.282 1.41846 14.3161 1.37102 14.3514C1.32359 14.3867 1.27714 14.4229 1.23164 14.4603C1.18617 14.4976 1.14175 14.5359 1.09836 14.5752C1.05495 14.6145 1.01264 14.6547 0.971445 14.6958C0.930222 14.737 0.890144 14.7791 0.851211 14.822C0.812277 14.865 0.774531 14.9088 0.737969 14.9534C0.701406 14.998 0.666082 15.0434 0.631992 15.0896C0.597902 15.1359 0.565078 15.1828 0.533515 15.2304C0.50198 15.2781 0.471746 15.3264 0.442812 15.3754C0.413879 15.4244 0.386289 15.474 0.360039 15.5243C0.333789 15.5745 0.308932 15.6253 0.285469 15.6766C0.261979 15.728 0.239896 15.7798 0.219219 15.8321C0.198542 15.8844 0.179297 15.9372 0.161484 15.9903C0.143671 16.0435 0.127305 16.097 0.112383 16.1509C0.0974609 16.2048 0.0840234 16.259 0.0720703 16.3135C0.060091 16.368 0.0495965 16.4228 0.0405859 16.4777C0.0315755 16.5327 0.0240624 16.5878 0.0180471 16.6431C0.0120312 16.6984 0.00752629 16.7538 0.00453113 16.8093C0.00151038 16.8648 0 16.9203 0 16.9759L0 24.898L8.75 24.898C8.81136 24.898 8.87273 24.8966 8.93402 24.8939C8.99531 24.8912 9.05648 24.8871 9.11758 24.8817C9.17863 24.8762 9.23953 24.8694 9.30023 24.8613C9.36093 24.8531 9.4214 24.8436 9.4816 24.8327C9.54179 24.8219 9.60164 24.8098 9.66117 24.7962C9.7207 24.7827 9.77984 24.7679 9.83855 24.7518C9.89726 24.7357 9.95554 24.7182 10.0133 24.6995C10.0711 24.6808 10.1284 24.6608 10.1851 24.6395C10.2418 24.6183 10.2978 24.5958 10.3533 24.572C10.4088 24.5483 10.4636 24.5233 10.5177 24.4971C10.5718 24.4709 10.6252 24.4435 10.6779 24.415C10.7305 24.3864 10.7823 24.3567 10.8334 24.3258C10.8844 24.2949 10.9346 24.263 10.9839 24.2299C11.0332 24.1968 11.0815 24.1626 11.129 24.1273C11.1764 24.0921 11.2228 24.0558 11.2684 24.0185C11.3138 23.9812 11.3582 23.9429 11.4016 23.9036C11.445 23.8643 11.4873 23.8241 11.5286 23.7829C11.5698 23.7417 11.6098 23.6997 11.6488 23.6567C11.6877 23.6137 11.7255 23.57 11.762 23.5253C11.7986 23.4807 11.8339 23.4353 11.868 23.3891C11.9021 23.3429 11.9349 23.2959 11.9665 23.2483C11.998 23.2007 12.0283 23.1523 12.0572 23.1033C12.0861 23.0543 12.1137 23.0047 12.14 22.9544C12.1662 22.9042 12.1911 22.8534 12.2145 22.8021C12.238 22.7508 12.2601 22.6989 12.2808 22.6466C12.3014 22.5943 12.3207 22.5416 12.3385 22.4884C12.3563 22.4352 12.3727 22.3817 12.3876 22.3278C12.4025 22.2739 12.416 22.2197 12.4279 22.1652C12.4399 22.1107 12.4504 22.0559 12.4594 22.001C12.4684 21.946 12.4759 21.8909 12.4819 21.8356C12.488 21.7803 12.4925 21.7249 12.4955 21.6694C12.4985 21.6139 12.5 21.5584 12.5 21.5028L12.5 13.5807ZM8.75 1.13173C8.7909 1.13173 8.83179 1.13264 8.87265 1.13445C8.91355 1.13626 8.95433 1.13899 8.99504 1.14262C9.03578 1.14625 9.07636 1.15079 9.11683 1.15624C9.1573 1.16166 9.19761 1.16799 9.23773 1.17523C9.27785 1.18244 9.31777 1.19055 9.35746 1.19956C9.39715 1.20857 9.43656 1.21845 9.4757 1.2292C9.51488 1.23995 9.55371 1.25156 9.59222 1.26403C9.63074 1.27651 9.6689 1.28984 9.70672 1.30403C9.74449 1.3182 9.78187 1.33321 9.81886 1.34905C9.85586 1.36487 9.89242 1.38152 9.92847 1.39899C9.96457 1.41646 10.0002 1.43471 10.0353 1.45374C10.0703 1.47279 10.1049 1.49261 10.1389 1.51319C10.1729 1.53377 10.2064 1.5551 10.2393 1.57717C10.2721 1.59924 10.3044 1.62201 10.336 1.6455C10.3676 1.669 10.3986 1.69319 10.4289 1.71807C10.4592 1.74294 10.4888 1.76848 10.5178 1.79467C10.5467 1.82087 10.5749 1.84769 10.6024 1.87513C10.6298 1.90257 10.6566 1.93062 10.6825 1.95927C10.7085 1.98789 10.7336 2.01708 10.758 2.04683C10.7824 2.07659 10.8059 2.10686 10.8287 2.13766C10.8514 2.16847 10.8733 2.19976 10.8943 2.23152C10.9153 2.2633 10.9355 2.29553 10.9548 2.32821C10.9741 2.36086 10.9925 2.39393 11.01 2.42741C11.0275 2.46092 11.044 2.49478 11.0597 2.52899C11.0753 2.56322 11.0901 2.59777 11.1039 2.63264C11.1177 2.66752 11.1305 2.70268 11.1423 2.73814C11.1542 2.77358 11.1651 2.80926 11.1751 2.8452C11.185 2.88113 11.194 2.91726 11.2019 2.9536C11.21 2.98993 11.2169 3.02642 11.2229 3.06306C11.2289 3.09969 11.2339 3.13645 11.238 3.17333C11.242 3.21018 11.245 3.24711 11.247 3.28413C11.249 3.32112 11.25 3.35814 11.25 3.39518L11.25 10.1855L3.75 10.1855C3.70909 10.1855 3.6682 10.1846 3.62734 10.1828C3.58646 10.181 3.54566 10.1783 3.50496 10.1747C3.46423 10.171 3.42363 10.1665 3.38316 10.161C3.34269 10.1556 3.30239 10.1493 3.26226 10.142C3.22214 10.1348 3.18223 10.1267 3.14254 10.1177C3.10285 10.1087 3.06344 10.0988 3.0243 10.0881C2.98513 10.0773 2.94629 10.0657 2.90777 10.0532C2.86926 10.0408 2.83109 10.0274 2.79328 10.0132C2.7555 9.99906 2.7181 9.98406 2.68109 9.96822C2.64411 9.95241 2.60759 9.93575 2.57152 9.91828C2.53543 9.90081 2.49983 9.88256 2.46473 9.86353C2.42965 9.84447 2.39509 9.82467 2.36105 9.80408C2.32704 9.7835 2.2936 9.76217 2.26074 9.7401C2.22788 9.71803 2.19564 9.69526 2.16402 9.67177C2.13238 9.64826 2.10141 9.62407 2.07109 9.5992C2.04078 9.57434 2.01116 9.54881 1.98223 9.5226C1.95329 9.49639 1.92509 9.46959 1.89762 9.44214C1.87014 9.4147 1.84343 9.38665 1.81746 9.358C1.79152 9.32939 1.76637 9.30018 1.74199 9.27044C1.71762 9.24069 1.69406 9.21038 1.67133 9.17958C1.64859 9.14878 1.62671 9.11751 1.60566 9.08575C1.58465 9.05396 1.56449 9.02174 1.54519 8.98906C1.5259 8.95642 1.50751 8.92332 1.49004 8.88982C1.47254 8.85633 1.45596 8.82248 1.44031 8.78829C1.42464 8.75405 1.40991 8.7195 1.39613 8.68463C1.38236 8.64975 1.36953 8.6146 1.35766 8.57913C1.34578 8.54369 1.33487 8.50801 1.32492 8.47207C1.31497 8.43614 1.30602 8.4 1.29805 8.36368C1.29005 8.32735 1.28306 8.29086 1.27707 8.25422C1.27105 8.21758 1.26604 8.18083 1.26203 8.14394C1.25802 8.10709 1.25501 8.07017 1.25301 8.03314C1.251 7.99615 1.25 7.95912 1.25 7.92209L1.25 1.13173L8.75 1.13173ZM8.75 0L0 0L0 7.92209C0 7.97765 0.00151038 8.03321 0.00453113 8.0887C0.00752629 8.14419 0.0120312 8.19957 0.0180471 8.25489C0.0240624 8.31017 0.0315755 8.3653 0.0405859 8.42026C0.0495965 8.47522 0.060091 8.52997 0.0720703 8.58447C0.0840234 8.63897 0.0974609 8.69315 0.112383 8.74705C0.127305 8.80095 0.143671 8.85449 0.161484 8.90765C0.179297 8.9608 0.198542 9.01357 0.219219 9.06588C0.239896 9.11818 0.261979 9.17003 0.285469 9.22138C0.308932 9.2727 0.333789 9.32349 0.360039 9.37371C0.386289 9.42396 0.413879 9.47358 0.442812 9.52256C0.471746 9.57155 0.50198 9.61989 0.533515 9.66757C0.565078 9.71521 0.597902 9.76214 0.631992 9.80836C0.666082 9.85455 0.701406 9.89996 0.737969 9.94459C0.774531 9.98922 0.812277 10.033 0.851211 10.076C0.890144 10.1189 0.930222 10.161 0.971445 10.2022C1.01264 10.2433 1.05495 10.2835 1.09836 10.3228C1.14175 10.3621 1.18617 10.4004 1.23164 10.4377C1.27714 10.4751 1.32359 10.5113 1.37102 10.5466C1.41846 10.5819 1.46684 10.616 1.51613 10.6491C1.56543 10.6822 1.61559 10.7142 1.6666 10.7451C1.71764 10.776 1.76948 10.8057 1.82211 10.8342C1.87477 10.8628 1.92815 10.8902 1.98226 10.9164C2.03638 10.9426 2.09118 10.9675 2.14668 10.9913C2.20215 11.0151 2.25823 11.0376 2.31492 11.0588C2.37164 11.0801 2.42889 11.1001 2.48668 11.1188C2.54444 11.1375 2.60269 11.1549 2.66144 11.1711C2.72017 11.1872 2.7793 11.202 2.83883 11.2155C2.89836 11.229 2.95821 11.2412 3.0184 11.252C3.0786 11.2629 3.13906 11.2724 3.19976 11.2805C3.26047 11.2887 3.32135 11.2955 3.38242 11.3009C3.44351 11.3064 3.5047 11.3104 3.56598 11.3132C3.62728 11.3159 3.68862 11.3173 3.75 11.3173L12.5 11.3173L12.5 3.39518C12.5 3.33961 12.4985 3.28408 12.4955 3.22861C12.4925 3.1731 12.488 3.1177 12.4819 3.06238C12.4759 3.00709 12.4684 2.95197 12.4594 2.89701C12.4504 2.84205 12.4399 2.78731 12.4279 2.7328C12.416 2.67831 12.4025 2.62412 12.3876 2.57022C12.3727 2.51632 12.3563 2.46279 12.3385 2.40962C12.3207 2.35646 12.3014 2.30371 12.2808 2.25139C12.2601 2.19908 12.238 2.14724 12.2145 2.09589C12.1911 2.04456 12.1662 1.99378 12.14 1.94356C12.1137 1.89332 12.0861 1.8437 12.0572 1.79471C12.0283 1.74571 11.998 1.69738 11.9665 1.6497C11.9349 1.60206 11.9021 1.55512 11.868 1.50891C11.8339 1.46272 11.7986 1.41731 11.762 1.37268C11.7255 1.32805 11.6877 1.28425 11.6488 1.24129C11.6098 1.19836 11.5698 1.1563 11.5286 1.1151C11.4873 1.07394 11.445 1.03372 11.4016 0.994434C11.3582 0.955132 11.3138 0.91683 11.2684 0.879529C11.2228 0.842207 11.1764 0.805921 11.129 0.770671C11.0815 0.735421 11.0332 0.701246 10.9839 0.668143C10.9346 0.63504 10.8844 0.603058 10.8334 0.572194C10.7823 0.54133 10.7305 0.511611 10.6779 0.483035C10.6252 0.454484 10.5718 0.42711 10.5177 0.400914C10.4636 0.374718 10.4088 0.349739 10.3533 0.325973C10.2978 0.302206 10.2418 0.279701 10.1851 0.258458C10.1284 0.237191 10.0711 0.217197 10.0133 0.198477C9.95554 0.179756 9.89726 0.162332 9.83855 0.146205C9.77984 0.130078 9.7207 0.115259 9.66117 0.101749C9.60164 0.0882393 9.54179 0.0760733 9.4816 0.0652511C9.4214 0.0544053 9.36093 0.0449037 9.30023 0.0367458C9.23953 0.0285879 9.17863 0.0217856 9.11758 0.0163395C9.05648 0.0108928 8.99531 0.00681416 8.93402 0.0041024C8.87273 0.00136747 8.81136 0 8.75 0ZM26.25 1.13173L26.25 7.92209C26.25 7.95912 26.249 7.99615 26.247 8.03314C26.245 8.07017 26.242 8.10709 26.238 8.14394C26.2339 8.18083 26.2289 8.21758 26.2229 8.25422C26.2169 8.29086 26.21 8.32735 26.2019 8.36368C26.194 8.4 26.185 8.43614 26.1751 8.47207C26.1651 8.50801 26.1542 8.54369 26.1423 8.57913C26.1305 8.6146 26.1176 8.64975 26.1039 8.68463C26.0901 8.7195 26.0753 8.75405 26.0597 8.78829C26.044 8.82248 26.0275 8.85633 26.01 8.88982C25.9925 8.92332 25.9741 8.95642 25.9548 8.98906C25.9355 9.02174 25.9153 9.05396 25.8943 9.08575C25.8733 9.11751 25.8514 9.14878 25.8287 9.17958C25.8059 9.21038 25.7824 9.24069 25.758 9.27044C25.7336 9.30018 25.7085 9.32939 25.6825 9.358C25.6566 9.38665 25.6298 9.4147 25.6024 9.44214C25.5749 9.46959 25.5467 9.49639 25.5178 9.5226C25.4888 9.54881 25.4592 9.57434 25.4289 9.5992C25.3986 9.62407 25.3676 9.64826 25.336 9.67177C25.3044 9.69526 25.2721 9.71803 25.2393 9.7401C25.2064 9.76217 25.1729 9.7835 25.1389 9.80408C25.1049 9.82467 25.0703 9.84447 25.0353 9.86353C25.0001 9.88256 24.9646 9.90081 24.9285 9.91828C24.8924 9.93575 24.8559 9.95241 24.8189 9.96822C24.7819 9.98406 24.7445 9.99906 24.7067 10.0132C24.6689 10.0274 24.6307 10.0408 24.5922 10.0532C24.5537 10.0657 24.5149 10.0773 24.4757 10.0881C24.4366 10.0988 24.3971 10.1087 24.3575 10.1177C24.3178 10.1267 24.2778 10.1348 24.2377 10.142C24.1976 10.1493 24.1573 10.1556 24.1168 10.161C24.0764 10.1665 24.0358 10.171 23.995 10.1747C23.9543 10.1783 23.9135 10.181 23.8726 10.1828C23.8318 10.1846 23.7909 10.1855 23.75 10.1855L16.25 10.1855L16.25 3.39518C16.25 3.35814 16.251 3.32112 16.253 3.28413C16.255 3.24711 16.258 3.21018 16.262 3.17333C16.266 3.13645 16.271 3.09969 16.2771 3.06306C16.283 3.02642 16.29 2.98993 16.298 2.9536C16.306 2.91726 16.315 2.88113 16.3249 2.8452C16.3349 2.80926 16.3458 2.77358 16.3577 2.73814C16.3695 2.70268 16.3823 2.66752 16.3961 2.63264C16.4099 2.59777 16.4246 2.56322 16.4403 2.52899C16.456 2.49478 16.4725 2.46092 16.49 2.42741C16.5075 2.39393 16.5259 2.36086 16.5452 2.32821C16.5645 2.29553 16.5846 2.2633 16.6057 2.23152C16.6267 2.19976 16.6486 2.16848 16.6713 2.13769C16.6941 2.10688 16.7176 2.07659 16.742 2.04683C16.7664 2.01708 16.7915 1.98789 16.8175 1.95927C16.8434 1.93062 16.8701 1.90257 16.8976 1.87513C16.9251 1.84769 16.9533 1.82087 16.9822 1.79467C17.0112 1.76848 17.0408 1.74294 17.0711 1.71807C17.1014 1.69319 17.1324 1.669 17.164 1.6455C17.1956 1.62201 17.2279 1.59924 17.2607 1.57717C17.2936 1.5551 17.3271 1.53377 17.3611 1.51319C17.3951 1.49261 17.4296 1.47279 17.4648 1.45374C17.4998 1.43471 17.5354 1.41646 17.5715 1.39899C17.6076 1.38152 17.6441 1.36487 17.6811 1.34905C17.7181 1.33321 17.7555 1.3182 17.7933 1.30403C17.8311 1.28984 17.8693 1.27651 17.9078 1.26403C17.9463 1.25156 17.9851 1.23995 18.0243 1.2292C18.0634 1.21845 18.1028 1.20857 18.1425 1.19956C18.1822 1.19055 18.2221 1.18244 18.2623 1.17523C18.3024 1.16799 18.3427 1.16166 18.3832 1.15624C18.4236 1.15079 18.4642 1.14625 18.505 1.14262C18.5457 1.13899 18.5864 1.13626 18.6273 1.13445C18.6682 1.13264 18.7091 1.13173 18.75 1.13173L26.25 1.13173ZM27.5 0L18.75 0C18.6886 0 18.6273 0.00136747 18.566 0.0041024C18.5047 0.00681416 18.4435 0.0108928 18.3824 0.0163395C18.3214 0.0217856 18.2605 0.0285879 18.1998 0.0367458C18.1391 0.0449037 18.0786 0.0544053 18.0184 0.0652511C17.9582 0.0760733 17.8984 0.0882393 17.8388 0.101749C17.7793 0.115259 17.7201 0.130078 17.6614 0.146205C17.6027 0.162332 17.5444 0.179756 17.4867 0.198477C17.4289 0.217197 17.3716 0.237191 17.3149 0.258458C17.2582 0.279701 17.2021 0.302206 17.1467 0.325973C17.0912 0.349739 17.0364 0.374718 16.9823 0.400914C16.9281 0.42711 16.8747 0.454484 16.8221 0.483035C16.7695 0.511611 16.7177 0.54133 16.6666 0.572194C16.6156 0.603058 16.5654 0.63504 16.5161 0.668143C16.4668 0.701246 16.4185 0.735421 16.371 0.770671C16.3236 0.805921 16.2771 0.842207 16.2316 0.879529C16.1862 0.91683 16.1418 0.955132 16.0984 0.994434C16.055 1.03372 16.0127 1.07394 15.9714 1.1151C15.9302 1.1563 15.8902 1.19836 15.8512 1.24129C15.8123 1.28425 15.7745 1.32805 15.738 1.37268C15.7014 1.41731 15.6661 1.46272 15.632 1.50891C15.5979 1.55512 15.5651 1.60206 15.5335 1.6497C15.502 1.69738 15.4718 1.74571 15.4428 1.79471C15.4139 1.8437 15.3863 1.89332 15.36 1.94356C15.3338 1.99378 15.3089 2.04456 15.2855 2.09589C15.262 2.14724 15.2399 2.19908 15.2192 2.25139C15.1986 2.30369 15.1793 2.35643 15.1615 2.40962C15.1437 2.46279 15.1273 2.51632 15.1124 2.57022C15.0975 2.62412 15.084 2.67831 15.0721 2.7328C15.0601 2.78731 15.0496 2.84205 15.0406 2.89701C15.0316 2.95197 15.0241 3.00709 15.018 3.06238C15.012 3.1177 15.0075 3.17309 15.0045 3.22857C15.0015 3.28407 15 3.33961 15 3.39518L15 11.3173L23.75 11.3173C23.8114 11.3173 23.8727 11.3159 23.934 11.3132C23.9953 11.3104 24.0565 11.3064 24.1176 11.3009C24.1786 11.2955 24.2395 11.2887 24.3002 11.2805C24.3609 11.2724 24.4214 11.2629 24.4816 11.252C24.5418 11.2412 24.6016 11.229 24.6612 11.2155C24.7207 11.202 24.7798 11.1872 24.8385 11.1711C24.8973 11.1549 24.9555 11.1375 25.0133 11.1188C25.0711 11.1001 25.1284 11.0801 25.1851 11.0588C25.2418 11.0376 25.2978 11.0151 25.3533 10.9913C25.4088 10.9675 25.4636 10.9426 25.5177 10.9164C25.5719 10.8902 25.6253 10.8628 25.6779 10.8342C25.7305 10.8057 25.7823 10.776 25.8334 10.7451C25.8844 10.7142 25.9346 10.6822 25.9839 10.6491C26.0332 10.616 26.0815 10.5819 26.129 10.5466C26.1764 10.5113 26.2229 10.4751 26.2684 10.4377C26.3138 10.4004 26.3582 10.3621 26.4016 10.3228C26.445 10.2835 26.4873 10.2433 26.5285 10.2022C26.5698 10.161 26.6098 10.1189 26.6488 10.076C26.6877 10.033 26.7255 9.98922 26.762 9.94459C26.7986 9.89996 26.8339 9.85455 26.868 9.80836C26.9021 9.76214 26.9349 9.71521 26.9665 9.66757C26.998 9.61989 27.0283 9.57155 27.0572 9.52256C27.0861 9.47358 27.1137 9.42396 27.14 9.37371C27.1662 9.32349 27.1911 9.2727 27.2146 9.22138C27.238 9.17003 27.2601 9.11818 27.2808 9.06588C27.3014 9.01357 27.3207 8.9608 27.3385 8.90765C27.3563 8.85449 27.3727 8.80095 27.3876 8.74705C27.4025 8.69315 27.416 8.63897 27.4279 8.58447C27.4399 8.52997 27.4504 8.47522 27.4594 8.42026C27.4684 8.3653 27.4759 8.31017 27.4819 8.25489C27.488 8.19957 27.4925 8.14419 27.4955 8.0887C27.4985 8.03321 27.5 7.97765 27.5 7.92209L27.5 0Z"></path><path id="路径 7" fill-rule="evenodd" style="fill:#FFFFFF" opacity="1" d="M13.75 12.449L27.5 12.449C29.1667 12.449 30 13.2035 30 14.7124L30 24.898C30 26.407 29.1667 27.1614 27.5 27.1614L13.75 27.1614C12.0833 27.1614 11.25 26.407 11.25 24.898L11.25 14.7124C11.25 13.2035 12.0833 12.449 13.75 12.449Z"></path><path id="路径 8" fill-rule="evenodd" style="fill:#146AE4" opacity="1" d="M13.75 12.449L27.5 12.449C27.5409 12.449 27.5818 12.4499 27.6227 12.4517C27.6636 12.4535 27.7043 12.4562 27.745 12.4599C27.7858 12.4635 27.8264 12.468 27.8668 12.4735C27.9073 12.4789 27.9476 12.4852 27.9877 12.4925C28.0278 12.4997 28.0678 12.5078 28.1075 12.5168C28.1471 12.5258 28.1866 12.5357 28.2257 12.5464C28.2649 12.5572 28.3037 12.5688 28.3422 12.5813C28.3807 12.5938 28.4189 12.6071 28.4567 12.6213C28.4945 12.6355 28.5319 12.6505 28.5689 12.6663C28.6059 12.6821 28.6424 12.6988 28.6785 12.7162C28.7146 12.7337 28.7502 12.752 28.7852 12.771C28.8203 12.79 28.8549 12.8099 28.8889 12.8304C28.9229 12.851 28.9564 12.8723 28.9893 12.8944C29.0221 12.9165 29.0544 12.9393 29.086 12.9627C29.1176 12.9863 29.1486 13.0104 29.1789 13.0353C29.2092 13.0602 29.2388 13.0857 29.2678 13.1119C29.2967 13.1381 29.3249 13.1649 29.3524 13.1924C29.3798 13.2198 29.4066 13.2479 29.4325 13.2765C29.4585 13.3051 29.4836 13.3343 29.508 13.3641C29.5324 13.3938 29.5559 13.4241 29.5787 13.4549C29.6014 13.4857 29.6233 13.517 29.6443 13.5488C29.6653 13.5806 29.6855 13.6128 29.7048 13.6455C29.7241 13.6781 29.7425 13.7112 29.76 13.7447C29.7775 13.7782 29.794 13.812 29.8097 13.8462C29.8253 13.8805 29.8401 13.915 29.8539 13.9499C29.8677 13.9848 29.8805 14.0199 29.8923 14.0554C29.9042 14.0908 29.9151 14.1265 29.9251 14.1624C29.935 14.1984 29.944 14.2345 29.952 14.2708C29.96 14.3072 29.967 14.3437 29.9729 14.3803C29.9789 14.4169 29.9839 14.4537 29.988 14.4906C29.992 14.5274 29.995 14.5644 29.997 14.6014C29.999 14.6384 30 14.6754 30 14.7124L30 16.9759L11.25 16.9759L11.25 14.7124C11.25 14.6754 11.251 14.6384 11.253 14.6014C11.255 14.5644 11.258 14.5274 11.262 14.4906C11.266 14.4537 11.2711 14.4169 11.2771 14.3803C11.2831 14.3437 11.2901 14.3072 11.298 14.2708C11.306 14.2345 11.315 14.1984 11.3249 14.1624C11.3349 14.1265 11.3458 14.0908 11.3577 14.0554C11.3695 14.0199 11.3824 13.9848 11.3961 13.9499C11.4099 13.915 11.4246 13.8805 11.4403 13.8462C11.456 13.812 11.4725 13.7782 11.49 13.7447C11.5075 13.7112 11.5259 13.6781 11.5452 13.6455C11.5645 13.6128 11.5846 13.5806 11.6057 13.5488C11.6267 13.517 11.6486 13.4857 11.6713 13.4549C11.6941 13.4241 11.7176 13.3938 11.742 13.3641C11.7664 13.3343 11.7915 13.3051 11.8175 13.2765C11.8434 13.2479 11.8701 13.2198 11.8976 13.1924C11.9251 13.1649 11.9533 13.1381 11.9822 13.1119C12.0112 13.0857 12.0408 13.0602 12.0711 13.0353C12.1014 13.0104 12.1324 12.9863 12.164 12.9627C12.1956 12.9393 12.2279 12.9165 12.2607 12.8944C12.2936 12.8723 12.327 12.851 12.3611 12.8304C12.3951 12.8099 12.4296 12.79 12.4647 12.771C12.4998 12.752 12.5354 12.7337 12.5715 12.7162C12.6076 12.6988 12.6441 12.6821 12.6811 12.6663C12.7181 12.6505 12.7555 12.6355 12.7933 12.6213C12.8311 12.6071 12.8693 12.5938 12.9078 12.5813C12.9463 12.5688 12.9851 12.5572 13.0243 12.5464C13.0634 12.5357 13.1029 12.5258 13.1425 12.5168C13.1822 12.5078 13.2221 12.4997 13.2623 12.4925C13.3024 12.4852 13.3427 12.4789 13.3832 12.4735C13.4236 12.468 13.4642 12.4635 13.505 12.4599C13.5457 12.4562 13.5865 12.4535 13.6273 12.4517C13.6682 12.4499 13.7091 12.449 13.75 12.449Z"></path><path id="路径 9" fill-rule="evenodd" style="fill:#153E8B" opacity="1" d="M27.5 13.5807C27.5205 13.5807 27.5409 13.5812 27.5613 13.5821C27.5818 13.583 27.6022 13.5843 27.6225 13.5861C27.6429 13.588 27.6632 13.5902 27.6834 13.5929C27.7036 13.5957 27.7238 13.5988 27.7439 13.6025C27.7639 13.6061 27.7839 13.6101 27.8037 13.6146C27.8236 13.6191 27.8433 13.6241 27.8629 13.6294C27.8824 13.6348 27.9018 13.6406 27.9211 13.6469C27.9403 13.6531 27.9595 13.6598 27.9784 13.6669C27.9972 13.6739 28.0159 13.6814 28.0345 13.6893C28.0529 13.6973 28.0712 13.7056 28.0893 13.7144C28.1073 13.7231 28.1251 13.7322 28.1426 13.7417C28.1602 13.7512 28.1775 13.7611 28.1945 13.7714C28.2114 13.7817 28.2282 13.7924 28.2446 13.8034C28.2611 13.8144 28.2772 13.8258 28.293 13.8376C28.3088 13.8493 28.3243 13.8614 28.3395 13.8739C28.3546 13.8863 28.3694 13.8991 28.3839 13.9122C28.3984 13.9253 28.4125 13.9387 28.4262 13.9524C28.4399 13.9661 28.4533 13.9801 28.4662 13.9945C28.4793 14.0088 28.4918 14.0234 28.504 14.0383C28.5162 14.0531 28.528 14.0683 28.5393 14.0837C28.5507 14.0991 28.5616 14.1147 28.5721 14.1306C28.5827 14.1465 28.5927 14.1626 28.6024 14.1789C28.612 14.1953 28.6212 14.2118 28.63 14.2285C28.6387 14.2453 28.647 14.2622 28.6548 14.2793C28.6627 14.2964 28.67 14.3137 28.6769 14.3311C28.6838 14.3486 28.6902 14.3662 28.6962 14.3839C28.7021 14.4016 28.7076 14.4195 28.7125 14.4375C28.7175 14.4554 28.722 14.4735 28.726 14.4916C28.73 14.5098 28.7335 14.5281 28.7365 14.5464C28.7395 14.5647 28.742 14.5831 28.744 14.6015C28.746 14.6199 28.7475 14.6384 28.7485 14.6569C28.7495 14.6754 28.75 14.6939 28.75 14.7124L28.75 24.898C28.75 24.9165 28.7495 24.935 28.7485 24.9535C28.7475 24.972 28.746 24.9905 28.744 25.0089C28.742 25.0273 28.7395 25.0457 28.7365 25.064C28.7335 25.0823 28.73 25.1006 28.726 25.1188C28.722 25.1369 28.7175 25.155 28.7125 25.1729C28.7076 25.1909 28.7021 25.2088 28.6962 25.2265C28.6902 25.2442 28.6838 25.2618 28.6769 25.2792C28.67 25.2967 28.6627 25.314 28.6548 25.3311C28.647 25.3482 28.6387 25.3651 28.63 25.3819C28.6212 25.3986 28.612 25.4151 28.6024 25.4315C28.5927 25.4478 28.5827 25.4639 28.5721 25.4798C28.5616 25.4957 28.5507 25.5113 28.5393 25.5267C28.528 25.5421 28.5162 25.5572 28.504 25.5721C28.4918 25.587 28.4793 25.6016 28.4662 25.6159C28.4533 25.6303 28.4399 25.6443 28.4262 25.658C28.4125 25.6717 28.3984 25.6851 28.3839 25.6982C28.3694 25.7113 28.3546 25.7241 28.3395 25.7365C28.3243 25.749 28.3088 25.7611 28.293 25.7728C28.2772 25.7846 28.2611 25.796 28.2446 25.807C28.2282 25.818 28.2114 25.8287 28.1945 25.839C28.1775 25.8493 28.1602 25.8592 28.1426 25.8687C28.1251 25.8782 28.1073 25.8873 28.0893 25.8961C28.0712 25.9048 28.0529 25.9131 28.0345 25.9211C28.0159 25.9289 27.9972 25.9364 27.9784 25.9435C27.9595 25.9507 27.9403 25.9573 27.9211 25.9635C27.9018 25.9698 27.8824 25.9756 27.8629 25.981C27.8433 25.9863 27.8236 25.9913 27.8037 25.9958C27.7839 26.0003 27.7639 26.0043 27.7439 26.0079C27.7238 26.0116 27.7036 26.0147 27.6834 26.0175C27.6632 26.0202 27.6429 26.0224 27.6225 26.0243C27.6022 26.0261 27.5818 26.0274 27.5613 26.0283C27.5409 26.0292 27.5205 26.0297 27.5 26.0297L13.75 26.0297C13.7295 26.0297 13.7091 26.0292 13.6887 26.0283C13.6682 26.0274 13.6478 26.0261 13.6275 26.0243C13.6071 26.0224 13.5868 26.0202 13.5666 26.0175C13.5464 26.0147 13.5262 26.0116 13.5061 26.0079C13.4861 26.0043 13.4661 26.0003 13.4463 25.9958C13.4264 25.9913 13.4067 25.9863 13.3871 25.981C13.3676 25.9756 13.3481 25.9698 13.3289 25.9635C13.3096 25.9573 13.2905 25.9507 13.2716 25.9435C13.2527 25.9364 13.234 25.9289 13.2155 25.921C13.1971 25.9131 13.1788 25.9048 13.1607 25.8961C13.1427 25.8873 13.1249 25.8782 13.1074 25.8687C13.0898 25.8592 13.0726 25.8493 13.0555 25.839C13.0385 25.8287 13.0218 25.818 13.0054 25.807C12.989 25.796 12.9728 25.7846 12.957 25.7728C12.9412 25.7611 12.9257 25.749 12.9105 25.7365C12.8954 25.7241 12.8806 25.7113 12.8661 25.6982C12.8517 25.6851 12.8376 25.6717 12.8238 25.658C12.8101 25.6443 12.7967 25.6303 12.7837 25.6159C12.7708 25.6016 12.7582 25.587 12.746 25.5721C12.7338 25.5572 12.722 25.5421 12.7107 25.5267C12.6993 25.5113 12.6883 25.4957 12.6779 25.4798C12.6673 25.4639 12.6573 25.4478 12.6476 25.4315C12.638 25.4151 12.6287 25.3986 12.62 25.3819C12.6112 25.3651 12.603 25.3482 12.5952 25.3311C12.5873 25.314 12.58 25.2967 12.5731 25.2792C12.5662 25.2618 12.5598 25.2442 12.5538 25.2265C12.5479 25.2088 12.5424 25.1909 12.5375 25.1729C12.5325 25.155 12.528 25.1369 12.524 25.1188C12.52 25.1006 12.5165 25.0823 12.5135 25.064C12.5105 25.0457 12.508 25.0273 12.506 25.0089C12.504 24.9905 12.5025 24.972 12.5015 24.9535C12.5005 24.935 12.5 24.9165 12.5 24.898L12.5 14.7124C12.5 14.6939 12.5005 14.6754 12.5015 14.6569C12.5025 14.6384 12.504 14.6199 12.506 14.6015C12.508 14.5831 12.5105 14.5647 12.5135 14.5464C12.5165 14.5281 12.52 14.5098 12.524 14.4916C12.528 14.4735 12.5325 14.4554 12.5375 14.4375C12.5424 14.4195 12.5479 14.4016 12.5538 14.3839C12.5598 14.3662 12.5662 14.3486 12.5731 14.3311C12.58 14.3137 12.5873 14.2964 12.5952 14.2793C12.603 14.2622 12.6112 14.2453 12.62 14.2285C12.6287 14.2118 12.638 14.1953 12.6476 14.1789C12.6573 14.1626 12.6673 14.1465 12.6779 14.1306C12.6884 14.1147 12.6993 14.0991 12.7107 14.0837C12.722 14.0683 12.7338 14.0531 12.746 14.0383C12.7582 14.0234 12.7708 14.0088 12.7837 13.9945C12.7967 13.9801 12.8101 13.9661 12.8238 13.9524C12.8376 13.9387 12.8517 13.9253 12.8661 13.9122C12.8806 13.8991 12.8954 13.8863 12.9105 13.8739C12.9257 13.8614 12.9412 13.8493 12.957 13.8376C12.9728 13.8258 12.989 13.8144 13.0054 13.8034C13.0218 13.7924 13.0385 13.7817 13.0555 13.7714C13.0726 13.7612 13.0898 13.7512 13.1074 13.7417C13.1249 13.7322 13.1427 13.7231 13.1607 13.7144C13.1788 13.7056 13.1971 13.6973 13.2155 13.6893C13.234 13.6814 13.2527 13.6739 13.2716 13.6669C13.2905 13.6598 13.3096 13.6531 13.3289 13.6469C13.3481 13.6406 13.3676 13.6348 13.3871 13.6294C13.4067 13.6241 13.4264 13.6191 13.4463 13.6146C13.4661 13.6101 13.4861 13.6061 13.5061 13.6025C13.5262 13.5988 13.5464 13.5957 13.5666 13.5929C13.5868 13.5902 13.6071 13.588 13.6275 13.5861C13.6478 13.5843 13.6682 13.583 13.6887 13.5821C13.7091 13.5812 13.7295 13.5807 13.75 13.5807L27.5 13.5807ZM27.5 12.449L13.75 12.449C13.7091 12.449 13.6682 12.4499 13.6273 12.4517C13.5865 12.4535 13.5457 12.4562 13.505 12.4599C13.4642 12.4635 13.4236 12.468 13.3832 12.4735C13.3427 12.4789 13.3024 12.4852 13.2623 12.4925C13.2221 12.4997 13.1822 12.5078 13.1425 12.5168C13.1029 12.5258 13.0634 12.5357 13.0243 12.5464C12.9851 12.5572 12.9463 12.5688 12.9078 12.5813C12.8693 12.5938 12.8311 12.6071 12.7933 12.6213C12.7555 12.6355 12.7181 12.6505 12.6811 12.6663C12.6441 12.6821 12.6076 12.6988 12.5715 12.7162C12.5354 12.7337 12.4998 12.752 12.4647 12.771C12.4296 12.79 12.3951 12.8099 12.3611 12.8304C12.327 12.851 12.2936 12.8723 12.2607 12.8944C12.2279 12.9165 12.1956 12.9393 12.164 12.9627C12.1324 12.9863 12.1014 13.0104 12.0711 13.0353C12.0408 13.0602 12.0112 13.0857 11.9822 13.1119C11.9533 13.1381 11.9251 13.1649 11.8976 13.1924C11.8701 13.2198 11.8434 13.2479 11.8175 13.2765C11.7915 13.3051 11.7664 13.3343 11.742 13.3641C11.7176 13.3938 11.6941 13.4241 11.6713 13.4549C11.6486 13.4857 11.6267 13.517 11.6057 13.5488C11.5846 13.5805 11.5645 13.6128 11.5452 13.6455C11.5259 13.6781 11.5075 13.7112 11.49 13.7447C11.4725 13.7782 11.456 13.812 11.4403 13.8462C11.4246 13.8805 11.4099 13.915 11.3961 13.9499C11.3824 13.9848 11.3695 14.0199 11.3577 14.0554C11.3458 14.0908 11.3349 14.1265 11.3249 14.1624C11.315 14.1984 11.306 14.2345 11.298 14.2708C11.2901 14.3072 11.2831 14.3437 11.2771 14.3803C11.2711 14.4169 11.266 14.4537 11.262 14.4906C11.258 14.5274 11.255 14.5644 11.253 14.6014C11.251 14.6384 11.25 14.6754 11.25 14.7124L11.25 24.898C11.25 24.935 11.251 24.972 11.253 25.009C11.255 25.0461 11.258 25.083 11.262 25.1198C11.266 25.1567 11.2711 25.1935 11.2771 25.2301C11.2831 25.2667 11.2901 25.3032 11.298 25.3396C11.306 25.3759 11.315 25.412 11.3249 25.448C11.3349 25.4839 11.3458 25.5196 11.3577 25.555C11.3695 25.5905 11.3824 25.6256 11.3961 25.6605C11.4099 25.6954 11.4246 25.7299 11.4403 25.7642C11.456 25.7984 11.4725 25.8322 11.49 25.8657C11.5075 25.8992 11.5259 25.9323 11.5452 25.9649C11.5645 25.9976 11.5846 26.0298 11.6057 26.0616C11.6267 26.0934 11.6486 26.1247 11.6713 26.1555C11.6941 26.1863 11.7176 26.2166 11.742 26.2463C11.7664 26.2761 11.7915 26.3053 11.8175 26.3339C11.8434 26.3625 11.8701 26.3906 11.8976 26.418C11.9251 26.4455 11.9533 26.4723 11.9822 26.4985C12.0112 26.5247 12.0408 26.5502 12.0711 26.5751C12.1014 26.5999 12.1324 26.6241 12.164 26.6477C12.1956 26.6711 12.2279 26.6939 12.2607 26.716C12.2936 26.7381 12.327 26.7594 12.3611 26.78C12.3951 26.8005 12.4296 26.8204 12.4647 26.8394C12.4998 26.8584 12.5354 26.8767 12.5715 26.8942C12.6076 26.9116 12.6441 26.9283 12.6811 26.9441C12.7181 26.9599 12.7555 26.9749 12.7933 26.9891C12.8311 27.0033 12.8693 27.0166 12.9078 27.0291C12.9463 27.0416 12.9851 27.0532 13.0243 27.064C13.0634 27.0747 13.1029 27.0846 13.1425 27.0936C13.1822 27.1026 13.2221 27.1107 13.2623 27.1179C13.3024 27.1252 13.3427 27.1315 13.3832 27.1369C13.4236 27.1424 13.4642 27.1469 13.505 27.1505C13.5457 27.1542 13.5865 27.1569 13.6273 27.1587C13.6682 27.1605 13.7091 27.1614 13.75 27.1614L27.5 27.1614C27.5409 27.1614 27.5818 27.1605 27.6227 27.1587C27.6636 27.1569 27.7043 27.1542 27.745 27.1505C27.7858 27.1469 27.8264 27.1424 27.8668 27.1369C27.9073 27.1315 27.9476 27.1252 27.9877 27.1179C28.0278 27.1107 28.0678 27.1026 28.1075 27.0936C28.1471 27.0846 28.1866 27.0747 28.2257 27.064C28.2649 27.0532 28.3037 27.0416 28.3422 27.0291C28.3807 27.0166 28.4189 27.0033 28.4567 26.9891C28.4945 26.9749 28.5319 26.9599 28.5689 26.9441C28.6059 26.9283 28.6424 26.9116 28.6785 26.8942C28.7146 26.8767 28.7502 26.8584 28.7852 26.8394C28.8203 26.8204 28.8549 26.8005 28.8889 26.78C28.9229 26.7594 28.9564 26.7381 28.9893 26.716C29.0221 26.6939 29.0544 26.6711 29.086 26.6477C29.1176 26.6241 29.1486 26.5999 29.1789 26.5751C29.2092 26.5502 29.2388 26.5247 29.2678 26.4985C29.2967 26.4723 29.3249 26.4455 29.3524 26.418C29.3798 26.3906 29.4066 26.3625 29.4325 26.3339C29.4585 26.3053 29.4836 26.2761 29.508 26.2463C29.5324 26.2166 29.5559 26.1863 29.5787 26.1555C29.6014 26.1247 29.6233 26.0934 29.6443 26.0616C29.6653 26.0298 29.6855 25.9976 29.7048 25.9649C29.7241 25.9323 29.7425 25.8992 29.76 25.8657C29.7775 25.8322 29.794 25.7984 29.8097 25.7642C29.8253 25.7299 29.8401 25.6954 29.8539 25.6605C29.8677 25.6256 29.8805 25.5905 29.8923 25.555C29.9042 25.5196 29.9151 25.4839 29.9251 25.448C29.935 25.412 29.944 25.3759 29.952 25.3396C29.96 25.3032 29.967 25.2667 29.9729 25.2301C29.9789 25.1935 29.9839 25.1567 29.988 25.1198C29.992 25.083 29.995 25.0461 29.997 25.009C29.999 24.972 30 24.935 30 24.898L30 14.7124C30 14.6754 29.999 14.6384 29.997 14.6014C29.995 14.5644 29.992 14.5274 29.988 14.4906C29.9839 14.4537 29.9789 14.4169 29.9729 14.3803C29.967 14.3437 29.96 14.3072 29.952 14.2708C29.944 14.2345 29.935 14.1984 29.9251 14.1624C29.9151 14.1265 29.9042 14.0908 29.8923 14.0554C29.8805 14.0199 29.8677 13.9848 29.8539 13.9499C29.8401 13.915 29.8253 13.8805 29.8097 13.8462C29.794 13.812 29.7775 13.7782 29.76 13.7447C29.7425 13.7112 29.7241 13.6781 29.7048 13.6455C29.6855 13.6128 29.6653 13.5805 29.6443 13.5488C29.6233 13.517 29.6014 13.4857 29.5787 13.4549C29.5559 13.4241 29.5324 13.3938 29.508 13.3641C29.4836 13.3343 29.4585 13.3051 29.4325 13.2765C29.4066 13.2479 29.3798 13.2198 29.3524 13.1924C29.3249 13.1649 29.2967 13.1381 29.2678 13.1119C29.2388 13.0857 29.2092 13.0602 29.1789 13.0353C29.1486 13.0104 29.1176 12.9863 29.086 12.9627C29.0544 12.9393 29.0221 12.9165 28.9893 12.8944C28.9564 12.8723 28.9229 12.851 28.8889 12.8304C28.8549 12.8099 28.8203 12.79 28.7852 12.771C28.7502 12.752 28.7146 12.7337 28.6785 12.7162C28.6424 12.6988 28.6059 12.6821 28.5689 12.6663C28.5319 12.6505 28.4945 12.6355 28.4567 12.6213C28.4189 12.6071 28.3807 12.5938 28.3422 12.5813C28.3037 12.5688 28.2649 12.5572 28.2257 12.5464C28.1866 12.5357 28.1471 12.5258 28.1075 12.5168C28.0678 12.5078 28.0278 12.4997 27.9877 12.4925C27.9476 12.4852 27.9073 12.4789 27.8668 12.4735C27.8264 12.468 27.7858 12.4635 27.745 12.4599C27.7043 12.4562 27.6636 12.4535 27.6227 12.4517C27.5818 12.4499 27.5409 12.449 27.5 12.449Z"></path><path id="路径 10" fill-rule="evenodd" style="fill:#2A5082" opacity="1" d="M27.5 15.8442L13.75 15.8442L13.75 16.976L27.5 16.976L27.5 15.8442ZM17.5 19.2394L13.75 19.2394L13.75 20.3711L17.5 20.3711L17.5 19.2394ZM27.5 22.6346L23.75 22.6346L23.75 23.7663L27.5 23.7663L27.5 22.6346ZM27.5 19.2394L18.75 19.2394L18.75 20.3711L27.5 20.3711L27.5 19.2394Z"></path><path id="路径 11" fill-rule="evenodd" style="fill:#2A5082" opacity="1" d="M18.75 19.2394L18.75 20.3711L17.5 20.3711L17.5 19.2394L18.75 19.2394ZM20 18.1077L16.25 18.1077L16.25 21.5028L20 21.5028L20 18.1077ZM22.5 22.6346L13.75 22.6346L13.75 23.7663L22.5 23.7663L22.5 22.6346Z"></path><path id="路径 12" fill-rule="evenodd" style="fill:#2A5082" opacity="1" d="M23.75 22.6347L23.75 23.7664L22.5 23.7664L22.5 22.6347L23.75 22.6347ZM25 21.5029L21.25 21.5029L21.25 24.8981L25 24.8981L25 21.5029Z"></path></g></svg>