<svg xmlns="http://www.w3.org/2000/svg" xmlns:xlink="http://www.w3.org/1999/xlink" width="30" height="30.457763671875" viewBox="0 0 30 30.457763671875" fill="none"><g opacity="1"  transform="translate(0 0)"><path id="路径 1" fill-rule="evenodd" style="fill:#146AE4" opacity="1" d="M9.36957 11.8718L4.21191 17.7466L5.60051 19.3336L9.76632 14.6032L12.5893 16.2054L17.5791 10.529L18.3573 11.414L19.9596 6.19531L15.3818 8.01117L16.2058 8.94199L12.1926 13.474L9.36957 11.8718Z"></path><path id="路径 2" fill-rule="evenodd" style="fill:#153E8B" opacity="1" d="M5.31025 0L0 2.89927L0 30.1831L13.3214 30.1831L13.3214 28.2908L1.86164 28.2603L1.83112 5.0661L6.36315 5.09662L6.36315 1.89216L23.1637 1.89216L23.1637 12.8941L25.0864 12.8941L25.0864 0L5.31025 0Z"></path><path id="路径 3" fill-rule="evenodd" style="fill:#146AE4" opacity="1" d="M27.5584 16.2054C25.9867 14.6337 23.8809 13.7639 21.653 13.7639C19.4251 13.7639 17.3194 14.6337 15.7476 16.2054C14.1759 17.7771 13.3062 19.8829 13.3062 22.1108C13.3062 24.3386 14.1759 26.4444 15.7476 28.0161C17.3194 29.5878 19.4251 30.4578 21.653 30.4578C23.8809 30.4578 25.9867 29.5878 27.5584 28.0161C29.1301 26.4444 30 24.3386 30 22.1108C30 19.8829 29.1301 17.7924 27.5584 16.2054ZM21.653 28.7181C18.006 28.7181 15.0457 25.7578 15.0457 22.1108C15.0457 18.4638 18.006 15.5035 21.653 15.5035C25.3 15.5035 28.2603 18.4638 28.2603 22.1108C28.2603 25.7578 25.2847 28.7181 21.653 28.7181Z"></path><path id="路径 4" fill-rule="evenodd" style="fill:#146AE4" opacity="1" d="M11.1238 10.6357C11.0627 10.6509 11.0017 10.6662 10.9254 10.6815C10.8644 10.6967 10.7881 10.6815 10.727 10.6357C10.666 10.6052 10.6355 10.5289 10.6202 10.4678C10.5897 10.3305 10.6813 10.1932 10.8186 10.1626C10.8796 10.1474 10.9254 10.1474 10.9712 10.1321C11.1085 10.1016 11.2459 10.1779 11.2764 10.3152C11.3374 10.4678 11.2611 10.6052 11.1238 10.6357ZM13.2296 6.82085C13.1533 6.85137 13.0617 6.83611 13.0007 6.79034C12.9549 6.75982 12.9244 6.71404 12.9091 6.66826C12.8939 6.60722 12.8786 6.56145 12.8481 6.51567C12.7871 6.37833 12.8633 6.22574 12.9854 6.1647C13.1228 6.10367 13.2754 6.17996 13.3211 6.3173C13.3516 6.37833 13.3669 6.43937 13.3822 6.50041C13.4279 6.62248 13.3669 6.77508 13.2296 6.82085ZM12.1156 10.1932C12.0546 10.2237 12.0088 10.2695 11.9478 10.3C11.8562 10.361 11.7494 10.3458 11.6731 10.2847C11.6426 10.2695 11.6121 10.2389 11.5968 10.2084C11.5205 10.0863 11.5663 9.91849 11.6884 9.85746L11.8257 9.7659C11.9478 9.6896 12.1004 9.72012 12.1767 9.8422C12.2682 9.94901 12.2377 10.1169 12.1156 10.1932ZM13.2906 7.82796C13.2448 7.82796 13.1838 7.81271 13.1533 7.78219C13.077 7.73641 13.0465 7.64485 13.0465 7.56856L13.0465 7.4007C13.0465 7.26337 13.1533 7.1413 13.2906 7.12604C13.4279 7.12604 13.55 7.23286 13.55 7.37018L13.55 7.56856C13.55 7.72115 13.4279 7.82796 13.2906 7.82796ZM12.9091 9.44545C12.8786 9.50649 12.8328 9.55227 12.7871 9.59805C12.6955 9.70486 12.5429 9.72012 12.4513 9.64383C12.4361 9.64383 12.4361 9.62857 12.4361 9.62857C12.3293 9.53701 12.314 9.36916 12.4056 9.26234C12.4361 9.21656 12.4819 9.18604 12.5124 9.14027C12.6039 9.03345 12.7565 9.00293 12.8786 9.09449C12.9702 9.17079 13.0007 9.32338 12.9091 9.44545ZM13.4127 8.46886L13.3516 8.65197C13.3059 8.7893 13.1533 8.85034 13.0159 8.80456C13.0007 8.7893 12.9854 8.7893 12.9549 8.77404C12.8633 8.71301 12.8176 8.57567 12.8633 8.46886C12.8786 8.42308 12.8939 8.36204 12.9244 8.31626C12.9702 8.17893 13.1075 8.10263 13.2448 8.14841C13.3669 8.17893 13.4432 8.33152 13.4127 8.46886ZM12.5887 5.60011L11.7189 5.6764C11.6273 5.69166 11.5816 5.63063 11.6426 5.53907L11.841 5.24914C10.9102 4.62351 9.70467 4.65403 8.81963 5.27966L8.80437 5.29492C8.56022 5.46277 8.33133 5.69166 8.14822 5.95107C7.2937 7.17182 7.58363 8.8656 8.80437 9.72012C8.88067 9.78116 8.97223 9.82694 9.06378 9.88797C9.10956 9.91849 9.15534 9.93375 9.21638 9.96427L9.23163 9.96427C9.44527 10.0711 9.6589 10.1321 9.88779 10.1779C10.0251 10.2084 10.1167 10.3305 10.1014 10.4831C10.0709 10.6204 9.94882 10.712 9.79623 10.6967C9.33845 10.6204 8.91119 10.4373 8.51445 10.1626C8.36185 10.0558 8.22452 9.94901 8.10244 9.81168C7.6294 9.33864 7.32422 8.74352 7.20214 8.07211C7.18688 8.01108 7.18688 7.93478 7.17162 7.87374L7.17162 7.85848C7.15636 7.79745 7.15636 7.73641 7.15636 7.66011L7.15636 7.64485C7.12584 6.97345 7.30896 6.3173 7.65992 5.76796C7.65992 5.76796 7.65992 5.7527 7.67518 5.7527C7.69044 5.72218 7.72096 5.69166 7.73622 5.64588C7.75148 5.63063 7.76674 5.60011 7.782 5.58485L7.79726 5.56959C8.23978 4.97447 8.85015 4.56247 9.55208 4.37936L9.56734 4.37936C9.64364 4.3641 9.73519 4.34884 9.81149 4.31832C10.6355 4.18099 11.4595 4.34884 12.1462 4.82188L12.3445 4.53195C12.4056 4.45566 12.4666 4.45566 12.4971 4.56247L12.726 5.417C12.7413 5.50855 12.6802 5.58485 12.5887 5.60011ZM12.1614 8.60619C12.1309 8.68249 12.0546 8.71301 11.9783 8.71301C11.9478 8.71301 11.9173 8.69775 11.8868 8.68249L9.97934 7.70589L9.97934 5.61537C9.97934 5.49329 10.0709 5.40174 10.193 5.40174C10.315 5.40174 10.4066 5.49329 10.4066 5.61537L10.4066 7.44648L12.0851 8.31626C12.1767 8.3773 12.2072 8.49937 12.1614 8.60619Z"></path><path id="路径 5" fill-rule="evenodd" style="fill:#153E8B" opacity="1" d="M21.1346 18.876L19.7612 22.0957L21.5924 23.5148L19.807 26.1394L24.0796 23.3164L22.5537 21.6227L24.4458 18.876L21.1346 18.876Z"></path></g></svg>