<svg xmlns="http://www.w3.org/2000/svg" xmlns:xlink="http://www.w3.org/1999/xlink" width="188.11895751953125" height="179.9639892578125" viewBox="0 0 188.11895751953125 179.9639892578125" fill="none"><path id="路径 1" fill-rule="evenodd" fill="url(#linear_0)" opacity="1" d="M147.482 111.773C156.374 111.773 163.928 116.872 166.015 123.849L171.791 123.849C180.109 123.849 187.12 128.948 188.016 135.703L188.119 137.164L188.119 166.701C188.001 173.652 181.535 179.182 173.452 179.886L171.688 179.964L122.16 179.964C113.827 179.964 106.816 174.865 105.92 168.123L105.817 166.649L105.817 137.177C105.817 130.2 112.283 124.632 120.381 123.927L122.145 123.849L128.95 123.849C131.037 116.872 138.591 111.773 147.482 111.773ZM88.1808 0C136.416 0 176.362 16.1055 176.362 39.1226L176.332 71.7248L176.362 71.7248L176.332 72.129L176.362 106.205L161.665 106.205L161.679 93.8812C145.807 104.418 118.647 110.847 88.1808 110.847C57.729 110.847 30.5693 104.431 14.6968 93.8943L14.6968 104.327C14.6968 116.924 45.1339 129.587 84.3596 130.37L88.1808 130.409L88.1808 143.45C57.729 143.45 30.5693 137.033 14.6968 126.496L14.6968 136.929C14.6968 149.527 45.1339 162.189 84.3596 162.972L88.1808 163.011L88.1808 176.052C41.298 176.052 2.21922 160.82 0.0881814 138.833L0 136.929L0 39.1226L0.0881814 37.2186C2.21922 15.2317 41.298 0 88.1808 0ZM171.791 131.674L122.13 131.674C118.353 131.674 115.37 133.708 114.738 136.212L114.62 137.164L114.62 166.636C114.62 169.244 117.192 171.566 120.749 172.048L122.13 172.139L171.688 172.139C175.465 172.139 178.493 170.092 179.154 167.601L179.286 166.649L179.286 137.177C179.286 134.569 176.714 132.247 173.158 131.765L171.776 131.674L171.791 131.674ZM151.377 142.367L151.377 158.72L142.559 158.72L142.559 142.367L151.377 142.367ZM147.482 119.598C147.302 119.596 147.122 119.598 146.942 119.604C146.761 119.611 146.581 119.621 146.402 119.635C146.222 119.649 146.043 119.667 145.865 119.69C145.686 119.712 145.508 119.738 145.331 119.768C145.154 119.798 144.978 119.832 144.803 119.87C144.627 119.908 144.454 119.95 144.281 119.996C144.108 120.042 143.937 120.091 143.767 120.145C143.597 120.198 143.428 120.255 143.262 120.316C143.095 120.377 142.93 120.441 142.767 120.509C142.604 120.578 142.443 120.649 142.284 120.725C142.124 120.8 141.968 120.879 141.813 120.961C141.658 121.044 141.506 121.13 141.357 121.219C141.207 121.308 141.06 121.4 140.915 121.496C140.771 121.592 140.629 121.69 140.49 121.793C140.351 121.895 140.215 122 140.082 122.108C139.95 122.216 139.82 122.327 139.693 122.441L138.841 123.354L138.473 123.849L156.477 123.849L156.139 123.354C156.056 123.254 155.971 123.157 155.884 123.06C155.797 122.964 155.708 122.869 155.617 122.777C155.525 122.683 155.432 122.592 155.336 122.503C155.24 122.413 155.143 122.325 155.043 122.239C154.944 122.153 154.842 122.069 154.738 121.987C154.635 121.904 154.53 121.824 154.422 121.745C154.315 121.666 154.206 121.59 154.095 121.515C153.984 121.441 153.872 121.368 153.758 121.298C153.644 121.227 153.528 121.158 153.411 121.092C153.294 121.026 153.175 120.962 153.055 120.9C152.935 120.838 152.813 120.778 152.69 120.72C152.567 120.662 152.443 120.607 152.318 120.554C152.192 120.501 152.065 120.45 151.938 120.401C151.81 120.353 151.681 120.307 151.551 120.263C151.421 120.219 151.29 120.178 151.158 120.138C151.026 120.099 150.893 120.063 150.76 120.028L149.025 119.689L147.482 119.598ZM161.665 61.3051C145.792 71.803 118.633 78.2452 88.1808 78.2452C57.729 78.2452 30.5693 71.8161 14.6968 61.2921L14.6968 71.7248C14.6968 84.7265 47.1326 97.8065 88.1808 97.8065C127.95 97.8065 159.622 85.5351 161.577 72.9376L161.65 71.9073L161.665 61.2921L161.665 61.3051ZM88.1808 13.0409C47.1326 13.0409 14.6968 26.1209 14.6968 39.1226C14.6968 52.1244 47.1326 65.2043 88.1808 65.2043C127.95 65.2043 159.622 52.9329 161.577 40.3354L161.65 39.1226C161.665 26.1209 129.229 13.0409 88.1808 13.0409Z"></path><defs><linearGradient id="linear_0" x1="0.00001129085014001048%" y1="50%" x2="99.99998870914986%" y2="50%" gradientUnits="objectBoundingBox"><stop offset="0" stop-color="#1F4799" stop-opacity="0.5" /><stop offset="1" stop-color="#3A9CDE" stop-opacity="0.5" /></linearGradient></defs></svg>