<svg xmlns="http://www.w3.org/2000/svg" xmlns:xlink="http://www.w3.org/1999/xlink" width="176" height="186.35296630859375" viewBox="0 0 176 186.35296630859375" fill="none"><path id="路径 1" fill-rule="evenodd" fill="url(#linear_0)" opacity="1" d="M99.478 137.739C99.537 137.739 99.596 137.74 99.6551 137.743C99.714 137.745 99.773 137.75 99.832 137.755C99.8908 137.761 99.9495 137.768 100.008 137.777C100.066 137.785 100.125 137.795 100.183 137.807C100.241 137.818 100.299 137.831 100.356 137.845C100.414 137.859 100.471 137.875 100.528 137.892C100.585 137.909 100.641 137.928 100.697 137.947C100.753 137.967 100.809 137.988 100.864 138.011C100.919 138.033 100.974 138.057 101.028 138.083C101.082 138.108 101.135 138.134 101.188 138.162C101.241 138.19 101.293 138.219 101.345 138.25C101.397 138.28 101.448 138.311 101.498 138.345C101.548 138.377 101.597 138.412 101.646 138.447C101.695 138.482 101.743 138.519 101.79 138.556C101.837 138.594 101.884 138.633 101.929 138.673C101.974 138.713 102.019 138.754 102.063 138.796C102.106 138.838 102.149 138.881 102.191 138.926C102.233 138.97 102.273 139.015 102.313 139.061C102.353 139.108 102.392 139.155 102.429 139.203C102.467 139.251 102.504 139.3 102.539 139.35C102.575 139.4 102.61 139.451 102.643 139.503C102.676 139.554 102.708 139.607 102.74 139.66C102.771 139.713 102.801 139.767 102.829 139.822C102.858 139.876 102.885 139.932 102.912 139.988C102.938 140.044 102.963 140.1 102.987 140.157C103.011 140.215 103.033 140.273 103.054 140.331C103.076 140.389 103.096 140.448 103.114 140.507C103.133 140.567 103.15 140.627 103.167 140.687C103.183 140.747 103.197 140.807 103.211 140.868C103.224 140.929 103.236 140.991 103.247 141.052C103.258 141.114 103.267 141.175 103.275 141.237C103.283 141.299 103.29 141.361 103.296 141.424C103.301 141.486 103.305 141.548 103.307 141.611C103.31 141.673 103.311 141.736 103.311 141.799C103.311 141.861 103.31 141.924 103.307 141.986C103.304 142.048 103.299 142.111 103.294 142.173C103.288 142.236 103.281 142.298 103.273 142.36C103.265 142.421 103.255 142.483 103.244 142.545C103.233 142.606 103.221 142.667 103.207 142.728C103.193 142.789 103.178 142.849 103.162 142.91C103.146 142.97 103.128 143.029 103.109 143.089C103.09 143.148 103.07 143.207 103.048 143.265C103.027 143.323 103.004 143.381 102.98 143.438C102.956 143.495 102.931 143.552 102.904 143.608C102.878 143.664 102.85 143.719 102.821 143.773C102.792 143.828 102.762 143.882 102.731 143.935C102.7 143.988 102.667 144.04 102.634 144.092C102.6 144.143 102.565 144.194 102.53 144.243C102.494 144.293 102.457 144.342 102.419 144.39C102.381 144.438 102.342 144.485 102.302 144.531C102.262 144.577 102.221 144.622 102.179 144.666C102.137 144.71 102.094 144.753 102.051 144.795C102.007 144.837 101.962 144.878 101.916 144.918C101.871 144.958 101.824 144.996 101.777 145.034C101.73 145.071 101.681 145.107 101.633 145.143C101.584 145.178 101.534 145.212 101.484 145.244C101.433 145.277 101.382 145.308 101.331 145.339C101.279 145.369 101.226 145.397 101.173 145.425C101.12 145.453 101.067 145.479 101.013 145.504C100.958 145.529 100.904 145.553 100.849 145.575C100.793 145.597 100.738 145.618 100.682 145.638C100.625 145.657 100.569 145.676 100.512 145.692C100.455 145.709 100.398 145.725 100.34 145.739C100.283 145.752 100.225 145.765 100.167 145.776L99.478 145.841L76.5215 145.841C76.4623 145.841 76.4033 145.84 76.3443 145.837C76.2851 145.834 76.2263 145.83 76.1675 145.824C76.1087 145.819 76.05 145.811 75.9915 145.803C75.9329 145.794 75.8746 145.785 75.8167 145.773C75.7586 145.762 75.7006 145.749 75.6431 145.735C75.5855 145.72 75.5283 145.705 75.4716 145.688C75.4146 145.671 75.3583 145.652 75.3023 145.632C75.2462 145.612 75.1906 145.591 75.1355 145.569C75.0803 145.546 75.0258 145.522 74.9718 145.497C74.9176 145.472 74.8642 145.445 74.8113 145.417C74.7584 145.39 74.7062 145.36 74.6545 145.33C74.6029 145.3 74.5519 145.268 74.5017 145.235C74.4515 145.202 74.402 145.168 74.3532 145.133C74.3044 145.097 74.2564 145.061 74.2094 145.023C74.162 144.985 74.1158 144.947 74.0704 144.907C74.0248 144.867 73.9803 144.826 73.9368 144.784C73.893 144.741 73.8503 144.698 73.8085 144.654C73.7667 144.61 73.726 144.564 73.6862 144.518C73.6464 144.472 73.6077 144.425 73.57 144.377C73.5322 144.328 73.4956 144.279 73.4601 144.23C73.4244 144.18 73.3899 144.129 73.3566 144.077C73.3232 144.025 73.2909 143.973 73.2599 143.92C73.2287 143.867 73.1989 143.813 73.1702 143.758C73.1415 143.703 73.1139 143.648 73.0877 143.592C73.0615 143.536 73.0364 143.479 73.0128 143.422C72.9887 143.365 72.9663 143.307 72.9452 143.249C72.9238 143.19 72.9037 143.131 72.8851 143.072C72.8664 143.013 72.849 142.953 72.8329 142.893C72.8167 142.833 72.802 142.772 72.7886 142.711C72.7751 142.65 72.7631 142.589 72.7523 142.528C72.7416 142.466 72.7321 142.404 72.7242 142.342C72.7159 142.28 72.7093 142.218 72.7041 142.156C72.6987 142.093 72.6946 142.031 72.6921 141.969C72.6894 141.906 72.6881 141.844 72.6883 141.781C72.6883 141.718 72.6899 141.656 72.6928 141.593C72.6957 141.531 72.6998 141.469 72.7055 141.406C72.7111 141.344 72.7181 141.282 72.7263 141.22C72.7346 141.158 72.7443 141.096 72.7554 141.035C72.7663 140.973 72.7787 140.912 72.7924 140.852C72.806 140.791 72.821 140.73 72.8374 140.67C72.8537 140.61 72.8713 140.55 72.8903 140.491C72.9093 140.432 72.9296 140.373 72.9511 140.315C72.9726 140.256 72.9954 140.199 73.0194 140.142C73.0434 140.084 73.0687 140.028 73.0953 139.972C73.1216 139.916 73.1492 139.861 73.1783 139.806C73.2072 139.752 73.2373 139.698 73.2687 139.645C73.2999 139.592 73.3322 139.54 73.3659 139.488C73.3994 139.436 73.4341 139.386 73.4699 139.336C73.5058 139.286 73.5426 139.237 73.5806 139.19C73.6184 139.142 73.6573 139.094 73.6973 139.048C73.7373 139.002 73.7784 138.957 73.8204 138.913C73.8622 138.869 73.905 138.826 73.949 138.784C73.9927 138.742 74.0376 138.702 74.0831 138.662C74.1287 138.622 74.1751 138.583 74.2225 138.546C74.2698 138.508 74.3179 138.472 74.3668 138.437C74.4156 138.402 74.4653 138.368 74.5157 138.335C74.5661 138.303 74.6172 138.271 74.669 138.241C74.7207 138.211 74.7731 138.182 74.8261 138.154C74.8791 138.127 74.9327 138.101 74.9868 138.076C75.041 138.051 75.0957 138.027 75.1509 138.005C75.2062 137.982 75.2618 137.961 75.3179 137.942C75.3739 137.922 75.4304 137.904 75.4874 137.887C75.5443 137.871 75.6015 137.855 75.6592 137.841C75.7168 137.827 75.7747 137.815 75.8328 137.804L76.5215 137.739L99.478 137.739ZM87.9997 93.1762C88.0552 93.1762 88.1106 93.1773 88.166 93.18C88.2212 93.1825 88.2765 93.1863 88.3317 93.1914C88.3869 93.1963 88.442 93.2028 88.4969 93.2104C88.5518 93.218 88.6066 93.2267 88.6613 93.237C88.7159 93.247 88.7702 93.2584 88.8244 93.2711C88.8783 93.2837 88.9322 93.2975 88.9858 93.3127C89.0392 93.3277 89.0925 93.3441 89.1454 93.3617C89.1981 93.3792 89.2507 93.3978 89.3029 93.4179C89.3549 93.4379 89.4067 93.459 89.458 93.4814C89.5091 93.5038 89.5599 93.5273 89.6103 93.552C89.6605 93.5767 89.7102 93.6025 89.7595 93.6295C89.8086 93.6564 89.8572 93.6844 89.9053 93.7136C89.9534 93.7429 90.0007 93.773 90.0477 93.8046C90.0943 93.8359 90.1406 93.8684 90.1861 93.9018C90.2315 93.9352 90.2764 93.9698 90.3205 94.0055C90.3644 94.041 90.4076 94.0776 90.4503 94.1152C90.493 94.1526 90.5348 94.1912 90.5757 94.2307C90.6166 94.2702 90.6568 94.3106 90.6962 94.352C90.7355 94.3932 90.7739 94.4354 90.8115 94.4787C90.8492 94.5216 90.8858 94.5657 90.9217 94.6105C90.9575 94.6551 90.9923 94.7007 91.0262 94.7472C91.0601 94.7935 91.0931 94.8406 91.1252 94.8887C91.1571 94.9365 91.188 94.9852 91.2181 95.0345C91.2481 95.0839 91.2771 95.1339 91.3051 95.1845C91.3329 95.2351 91.3598 95.2863 91.3856 95.3384C91.4115 95.3902 91.4364 95.4426 91.4601 95.4958C91.4837 95.5488 91.5061 95.6023 91.5277 95.6564C91.5492 95.7104 91.5695 95.7651 91.5888 95.8201C91.608 95.8752 91.6261 95.9307 91.6432 95.9865C91.66 96.0423 91.676 96.0985 91.6907 96.1551C91.7052 96.2117 91.7187 96.2685 91.731 96.3258C91.7434 96.3828 91.7545 96.4403 91.7646 96.4981L91.8257 97.2273L91.8257 141.79C91.8257 141.852 91.8245 141.915 91.822 141.977C91.8193 142.04 91.8153 142.102 91.81 142.165C91.8046 142.227 91.7979 142.289 91.7899 142.351C91.7816 142.413 91.7723 142.475 91.7615 142.536C91.7508 142.598 91.7386 142.659 91.7253 142.72C91.7117 142.781 91.697 142.841 91.681 142.901C91.6649 142.962 91.6473 143.021 91.6286 143.081C91.61 143.14 91.5899 143.199 91.5687 143.257C91.5474 143.316 91.5248 143.373 91.5009 143.431C91.4771 143.488 91.452 143.544 91.4258 143.601C91.3994 143.657 91.372 143.712 91.3433 143.767C91.3146 143.821 91.2847 143.875 91.2536 143.928C91.2224 143.982 91.1903 144.034 91.157 144.086C91.1236 144.137 91.089 144.188 91.0535 144.238C91.0178 144.288 90.9812 144.337 90.9435 144.385C90.9057 144.433 90.867 144.48 90.8271 144.527C90.7873 144.573 90.7464 144.618 90.7048 144.662C90.6629 144.706 90.6202 144.75 90.5766 144.792C90.5328 144.834 90.4883 144.875 90.4428 144.915C90.3972 144.955 90.351 144.994 90.304 145.031C90.2566 145.069 90.2087 145.106 90.16 145.141C90.1112 145.176 90.0617 145.21 90.0115 145.243C89.9613 145.276 89.9103 145.308 89.8587 145.338C89.807 145.369 89.7546 145.398 89.7017 145.426C89.6488 145.453 89.5954 145.48 89.5414 145.505C89.4872 145.53 89.4325 145.554 89.3775 145.577C89.3222 145.599 89.2668 145.62 89.2109 145.64C89.1547 145.66 89.0982 145.678 89.0414 145.695C88.9845 145.712 88.9273 145.728 88.8699 145.742C88.8122 145.756 88.7544 145.769 88.6965 145.781C88.6384 145.792 88.5799 145.802 88.5215 145.811C88.463 145.819 88.4043 145.826 88.3455 145.832C88.2865 145.837 88.2275 145.842 88.1687 145.845C88.1095 145.847 88.0505 145.848 87.9915 145.848C87.9323 145.848 87.8733 145.847 87.8143 145.844C87.7553 145.841 87.6965 145.836 87.6376 145.83C87.5788 145.824 87.5202 145.817 87.4617 145.808C87.403 145.799 87.3448 145.789 87.2868 145.777C87.2287 145.766 87.171 145.753 87.1136 145.738C87.056 145.724 86.9988 145.708 86.9421 145.691C86.8853 145.673 86.829 145.655 86.773 145.634C86.717 145.614 86.6614 145.593 86.6066 145.57C86.5515 145.548 86.497 145.523 86.443 145.498C86.389 145.473 86.3356 145.446 86.2828 145.418C86.2301 145.39 86.1779 145.36 86.1264 145.33C86.0748 145.299 86.024 145.267 85.974 145.234C85.9238 145.201 85.8745 145.166 85.8259 145.131C85.7771 145.095 85.7294 145.059 85.6824 145.021C85.6354 144.983 85.5891 144.944 85.5439 144.904C85.4986 144.864 85.4541 144.822 85.4107 144.78C85.3671 144.738 85.3246 144.694 85.283 144.65C85.2414 144.605 85.2008 144.56 85.1612 144.514C85.1216 144.467 85.083 144.42 85.0455 144.372C85.0079 144.323 84.9715 144.274 84.9361 144.224C84.9006 144.174 84.8664 144.123 84.8332 144.071C84.8 144.019 84.7681 143.967 84.7372 143.914C84.7064 143.86 84.6766 143.806 84.6481 143.751C84.6196 143.697 84.5923 143.641 84.5663 143.585C84.5401 143.529 84.5154 143.472 84.4919 143.415C84.4682 143.357 84.4458 143.3 84.4248 143.241C84.4036 143.183 84.3839 143.123 84.3656 143.064C84.347 143.005 84.3299 142.945 84.3141 142.885C84.2982 142.824 84.2837 142.764 84.2704 142.703C84.2571 142.642 84.2453 142.581 84.2349 142.519L84.1737 141.79L84.1737 97.2273C84.1737 97.161 84.1752 97.0947 84.1782 97.0286C84.1813 96.9622 84.1859 96.8961 84.192 96.8302C84.1981 96.7641 84.2058 96.6984 84.215 96.6329C84.2241 96.5672 84.2349 96.5019 84.2471 96.4369C84.2593 96.372 84.2731 96.3072 84.2883 96.243C84.3034 96.1787 84.3201 96.1149 84.3384 96.0514C84.3565 95.9878 84.3762 95.9248 84.3974 95.8625C84.4184 95.8 84.4408 95.7381 84.4648 95.6769C84.4888 95.6156 84.5141 95.555 84.541 95.4952C84.5677 95.4352 84.5959 95.3762 84.6255 95.3177C84.6549 95.2592 84.6858 95.2014 84.718 95.1447C84.7501 95.0877 84.7837 95.0317 84.8185 94.9766C84.8533 94.9215 84.8893 94.8672 84.9266 94.8141C84.9639 94.7607 85.0023 94.7085 85.0421 94.6572C85.0818 94.6059 85.1226 94.5558 85.1648 94.5068C85.2068 94.4576 85.25 94.4096 85.2943 94.3627C85.3384 94.3158 85.3838 94.27 85.4302 94.2256C85.4765 94.1811 85.524 94.1378 85.5724 94.0957C85.6209 94.0535 85.6702 94.0129 85.7206 93.9734C85.7708 93.9339 85.8219 93.8957 85.8741 93.8589C85.9261 93.822 85.9788 93.7865 86.0327 93.7525C86.0865 93.7184 86.1408 93.6857 86.196 93.6545C86.2513 93.6232 86.3072 93.5934 86.3639 93.5651C86.4204 93.5366 86.4776 93.5098 86.5355 93.4846C86.5933 93.4591 86.6518 93.4352 86.7108 93.413C86.7696 93.3906 86.8291 93.3697 86.889 93.3507C86.9489 93.3313 87.0092 93.3135 87.07 93.2975C87.1306 93.2814 87.1918 93.267 87.2533 93.2541C87.3146 93.2411 87.3763 93.2298 87.4384 93.2201C87.5003 93.2102 87.5623 93.2022 87.6247 93.1958C87.687 93.1891 87.7494 93.1842 87.812 93.1811C87.8744 93.1777 87.937 93.1762 87.9997 93.1762ZM49.7391 97.2273C49.8391 97.2271 49.9392 97.2311 50.0391 97.2392C50.139 97.2474 50.2385 97.2597 50.3375 97.2763C50.4365 97.2926 50.5346 97.3131 50.6322 97.3378C50.7296 97.3623 50.8261 97.391 50.9215 97.4236C51.0167 97.4561 51.1107 97.4926 51.2034 97.5332C51.296 97.5735 51.3871 97.6177 51.4764 97.6659C51.5657 97.7138 51.6531 97.7654 51.7388 97.8207C51.8242 97.876 51.9076 97.9348 51.9888 97.9971L52.4479 98.4103L67.7522 114.615C67.8228 114.69 67.8906 114.767 67.9557 114.848C68.0206 114.929 68.0823 115.012 68.1412 115.098C68.2 115.184 68.2554 115.272 68.3078 115.362C68.36 115.452 68.4087 115.545 68.4543 115.639C68.4995 115.733 68.5413 115.83 68.5797 115.928C68.618 116.026 68.6527 116.125 68.6835 116.226C68.7144 116.326 68.7416 116.428 68.7649 116.531C68.7882 116.634 68.8076 116.738 68.8234 116.843L68.8693 117.483L68.8693 182.301C68.8693 182.36 68.868 182.418 68.8659 182.477C68.8634 182.536 68.8598 182.594 68.855 182.653C68.8501 182.711 68.8442 182.769 68.837 182.828C68.8298 182.886 68.8214 182.944 68.8119 183.002C68.8022 183.059 68.7916 183.117 68.7798 183.174C68.7678 183.232 68.7547 183.289 68.7405 183.345C68.7262 183.402 68.7108 183.458 68.6943 183.514C68.6776 183.57 68.6598 183.626 68.641 183.681C68.6222 183.736 68.6023 183.791 68.5811 183.845C68.5599 183.899 68.5379 183.953 68.5146 184.006C68.4912 184.06 68.4669 184.112 68.4414 184.164C68.4159 184.216 68.3894 184.268 68.3618 184.319C68.3341 184.37 68.3056 184.42 68.276 184.47C68.2463 184.519 68.2156 184.568 68.184 184.616C68.1523 184.664 68.1196 184.712 68.0861 184.758C68.0524 184.805 68.0179 184.851 67.9826 184.896C67.9471 184.941 67.9107 184.985 67.8734 185.029C67.8361 185.072 67.7979 185.114 67.759 185.156C67.7199 185.198 67.6799 185.239 67.6393 185.279C67.5985 185.318 67.557 185.357 67.5149 185.395C67.4725 185.433 67.4293 185.47 67.3856 185.506C67.3418 185.542 67.2973 185.577 67.2521 185.61C67.2068 185.644 67.1609 185.677 67.1142 185.709C67.0676 185.741 67.0204 185.771 66.9727 185.801C66.9246 185.831 66.8762 185.859 66.8273 185.886C66.7781 185.914 66.7286 185.94 66.6786 185.966C66.6284 185.991 66.5778 186.014 66.5269 186.036C66.4757 186.059 66.4243 186.081 66.3723 186.102C66.3202 186.122 66.2681 186.141 66.2153 186.159C66.1624 186.177 66.1093 186.193 66.0559 186.209C66.0024 186.225 65.9488 186.24 65.8948 186.252C65.8407 186.265 65.7865 186.277 65.732 186.288L65.0433 186.353L3.82608 186.353C3.77067 186.353 3.71528 186.352 3.65992 186.349C3.60456 186.347 3.54928 186.343 3.49406 186.338C3.43886 186.333 3.38378 186.326 3.32884 186.319C3.27389 186.311 3.21912 186.302 3.16454 186.292C3.10997 186.282 3.05561 186.271 3.0015 186.258C2.94739 186.245 2.89355 186.231 2.84002 186.216C2.78648 186.201 2.73327 186.185 2.68038 186.167C2.62751 186.149 2.57501 186.13 2.52291 186.11C2.47081 186.091 2.41914 186.07 2.3679 186.047C2.31666 186.024 2.26589 186.001 2.21562 185.977C2.16535 185.952 2.11561 185.926 2.0664 185.899C2.01719 185.873 1.96855 185.844 1.92049 185.815C1.87242 185.786 1.82498 185.755 1.77816 185.724C1.73135 185.693 1.68519 185.66 1.6397 185.627C1.59422 185.593 1.54944 185.559 1.50537 185.523C1.4613 185.487 1.41798 185.451 1.37541 185.413C1.33285 185.376 1.29107 185.337 1.25007 185.298C1.20908 185.258 1.16893 185.218 1.1296 185.177C1.09026 185.135 1.0518 185.093 1.01421 185.05C0.976605 185.007 0.939905 184.963 0.904107 184.918C0.868322 184.873 0.833462 184.828 0.79953 184.781C0.76561 184.735 0.732657 184.688 0.700674 184.64C0.668678 184.592 0.637687 184.543 0.6077 184.494C0.577701 184.445 0.548731 184.395 0.520788 184.344C0.492846 184.293 0.465957 184.242 0.440118 184.19C0.414279 184.138 0.389519 184.086 0.365832 184.033C0.342146 183.98 0.319561 183.926 0.298075 183.872C0.276589 183.818 0.256221 183.763 0.236971 183.708C0.217722 183.653 0.199613 183.598 0.182647 183.542C0.165669 183.486 0.149845 183.43 0.135174 183.373C0.120515 183.317 0.107017 183.26 0.0946776 183.203C0.0823504 183.145 0.0712011 183.088 0.0612292 183.03L8.98981e-08 182.301L8.98981e-08 101.279C-1.18828e-05 101.22 0.00117205 101.161 0.0035512 101.103C0.00594267 101.044 0.00953549 100.985 0.0143301 100.927C0.0191126 100.868 0.025097 100.81 0.0322826 100.752C0.0394687 100.694 0.0478442 100.636 0.0574093 100.578C0.0669744 100.52 0.0777173 100.463 0.0896378 100.405C0.101558 100.348 0.114651 100.291 0.128915 100.234C0.143179 100.178 0.158597 100.121 0.175168 100.065C0.19174 100.009 0.209454 99.9538 0.228309 99.8987C0.247164 99.8435 0.267143 99.7888 0.288247 99.7345C0.309351 99.6802 0.331554 99.6264 0.354856 99.5733C0.378159 99.5201 0.402545 99.4673 0.428012 99.4153C0.453479 99.363 0.480005 99.3116 0.507588 99.2609C0.535172 99.21 0.563783 99.1597 0.593424 99.1101C0.623065 99.0603 0.653708 99.0115 0.685357 98.9635C0.716994 98.9153 0.749612 98.868 0.783209 98.8213C0.816795 98.7746 0.851325 98.7286 0.8868 98.6836C0.922275 98.6384 0.958659 98.5943 0.995951 98.551C1.03324 98.5076 1.07141 98.465 1.11045 98.4234C1.14947 98.3817 1.18934 98.341 1.23005 98.3011C1.27075 98.2613 1.31225 98.2225 1.35456 98.1845C1.39686 98.1466 1.43992 98.1097 1.48374 98.0738C1.52755 98.0379 1.57207 98.003 1.61732 97.9692C1.66257 97.9354 1.7085 97.9025 1.75509 97.8708C1.80167 97.8389 1.84889 97.8084 1.89676 97.7787C1.94461 97.7491 1.99305 97.7206 2.04206 97.6933C2.09108 97.6659 2.14063 97.6397 2.19073 97.6147C2.24082 97.5896 2.29141 97.5657 2.34249 97.5429C2.39357 97.5201 2.44509 97.4986 2.49705 97.4783C2.54901 97.4578 2.60138 97.4386 2.65412 97.4208C2.70687 97.4027 2.75997 97.386 2.8134 97.3705C2.86683 97.3549 2.92056 97.3404 2.9746 97.3275C3.02862 97.3144 3.08289 97.3027 3.13739 97.2922L3.82608 97.2273L49.7391 97.2273ZM156.869 97.2273C156.969 97.2271 157.069 97.2311 157.169 97.2392C157.269 97.2474 157.369 97.2597 157.468 97.2763C157.567 97.2926 157.665 97.3131 157.762 97.3378C157.86 97.3623 157.956 97.391 158.051 97.4236C158.147 97.4561 158.241 97.4926 158.333 97.5332C158.426 97.5735 158.517 97.6177 158.606 97.6659C158.696 97.7138 158.783 97.7654 158.869 97.8207C158.954 97.876 159.038 97.9348 159.119 97.9971L159.578 98.4103L174.882 114.615C174.953 114.69 175.021 114.767 175.086 114.848C175.151 114.929 175.212 115.012 175.271 115.098C175.33 115.184 175.385 115.272 175.438 115.362C175.49 115.452 175.539 115.545 175.584 115.639C175.629 115.733 175.671 115.83 175.709 115.928C175.748 116.026 175.782 116.125 175.813 116.226C175.845 116.326 175.871 116.428 175.894 116.531C175.918 116.634 175.938 116.738 175.953 116.843L176 117.483L176 182.301C176 182.36 175.999 182.418 175.996 182.477C175.994 182.536 175.99 182.594 175.986 182.653C175.981 182.711 175.975 182.769 175.968 182.828C175.961 182.886 175.952 182.944 175.943 183.002C175.933 183.059 175.922 183.117 175.91 183.174C175.898 183.232 175.885 183.289 175.871 183.345C175.857 183.402 175.841 183.458 175.824 183.514C175.807 183.57 175.789 183.626 175.77 183.681C175.753 183.736 175.733 183.791 175.711 183.845C175.69 183.899 175.667 183.953 175.645 184.006C175.621 184.06 175.596 184.112 175.571 184.164C175.546 184.216 175.52 184.268 175.492 184.319C175.464 184.37 175.436 184.42 175.406 184.47C175.376 184.519 175.346 184.568 175.314 184.616C175.282 184.664 175.25 184.712 175.216 184.758C175.183 184.805 175.148 184.851 175.113 184.896C175.077 184.941 175.041 184.985 175.004 185.029C174.966 185.072 174.928 185.114 174.889 185.156C174.85 185.198 174.81 185.239 174.769 185.279C174.729 185.318 174.687 185.357 174.645 185.395C174.603 185.433 174.559 185.47 174.516 185.506C174.472 185.542 174.427 185.577 174.382 185.61C174.337 185.644 174.291 185.677 174.244 185.709C174.198 185.741 174.15 185.771 174.103 185.801C174.055 185.831 174.006 185.859 173.957 185.886C173.908 185.914 173.859 185.94 173.809 185.966C173.759 185.991 173.708 186.014 173.657 186.036C173.606 186.059 173.554 186.081 173.502 186.102C173.45 186.122 173.398 186.141 173.345 186.159C173.293 186.177 173.239 186.193 173.186 186.209C173.133 186.225 173.079 186.24 173.025 186.252C172.971 186.265 172.916 186.277 172.862 186.288L172.173 186.353L110.956 186.353C110.901 186.353 110.845 186.352 110.79 186.349C110.734 186.347 110.679 186.343 110.624 186.338C110.569 186.333 110.514 186.326 110.459 186.319C110.404 186.311 110.349 186.302 110.295 186.292C110.24 186.282 110.186 186.271 110.132 186.258C110.077 186.245 110.024 186.231 109.97 186.216C109.916 186.201 109.863 186.185 109.811 186.167C109.758 186.149 109.705 186.13 109.653 186.11C109.601 186.091 109.549 186.07 109.498 186.047C109.447 186.024 109.396 186.001 109.346 185.977C109.295 185.952 109.246 185.926 109.196 185.899C109.147 185.873 109.099 185.844 109.051 185.815C109.003 185.786 108.955 185.755 108.908 185.724C108.861 185.693 108.815 185.66 108.77 185.627C108.724 185.593 108.68 185.559 108.635 185.523C108.591 185.487 108.548 185.451 108.506 185.413C108.463 185.376 108.421 185.337 108.38 185.298C108.339 185.258 108.299 185.218 108.26 185.177C108.22 185.135 108.182 185.093 108.144 185.05C108.107 185.007 108.07 184.963 108.034 184.918C107.998 184.873 107.963 184.828 107.93 184.781C107.896 184.735 107.863 184.688 107.831 184.64C107.799 184.592 107.768 184.543 107.738 184.494C107.708 184.445 107.679 184.395 107.651 184.344C107.623 184.293 107.596 184.242 107.57 184.19C107.544 184.138 107.52 184.086 107.496 184.033C107.472 183.98 107.45 183.926 107.428 183.872C107.407 183.818 107.386 183.763 107.367 183.708C107.348 183.653 107.33 183.598 107.313 183.542C107.296 183.486 107.28 183.43 107.265 183.373C107.25 183.317 107.237 183.26 107.225 183.203C107.212 183.145 107.201 183.088 107.191 183.03L107.13 182.301L107.13 101.279C107.13 101.22 107.131 101.161 107.134 101.103C107.136 101.044 107.139 100.985 107.145 100.927C107.149 100.868 107.155 100.81 107.162 100.752C107.17 100.694 107.178 100.636 107.188 100.578C107.197 100.52 107.208 100.463 107.22 100.405C107.231 100.348 107.245 100.291 107.259 100.234C107.273 100.178 107.289 100.121 107.305 100.065C107.322 100.009 107.339 99.9538 107.358 99.8987C107.377 99.8435 107.397 99.7888 107.418 99.7345C107.439 99.6802 107.462 99.6264 107.485 99.5733C107.508 99.5201 107.533 99.4673 107.558 99.4153C107.584 99.363 107.61 99.3116 107.638 99.2609C107.665 99.21 107.694 99.1597 107.723 99.1101C107.753 99.0603 107.784 99.0115 107.815 98.9635C107.847 98.9153 107.88 98.868 107.913 98.8213C107.947 98.7746 107.981 98.7286 108.017 98.6836C108.052 98.6384 108.089 98.5943 108.126 98.551C108.163 98.5076 108.201 98.465 108.24 98.4234C108.28 98.3817 108.319 98.341 108.36 98.3011C108.401 98.2613 108.442 98.2225 108.485 98.1845C108.527 98.1466 108.57 98.1097 108.614 98.0738C108.658 98.0379 108.702 98.003 108.747 97.9692C108.793 97.9354 108.839 97.9025 108.885 97.8708C108.932 97.8389 108.979 97.8084 109.027 97.7787C109.075 97.7491 109.123 97.7206 109.172 97.6933C109.221 97.6659 109.271 97.6397 109.321 97.6147C109.371 97.5896 109.421 97.5657 109.473 97.5429C109.524 97.5201 109.575 97.4986 109.627 97.4783C109.679 97.4578 109.731 97.4386 109.784 97.4208C109.837 97.4027 109.89 97.386 109.944 97.3705C109.997 97.3549 110.05 97.3404 110.105 97.3275C110.159 97.3144 110.213 97.3027 110.267 97.2922L110.956 97.2273L156.869 97.2273ZM48.1551 105.33L7.65215 105.33L7.65215 178.25L61.2173 178.25L61.2173 119.16L48.1551 105.33ZM155.285 105.33L114.782 105.33L114.782 178.25L168.347 178.25L168.347 119.16L155.285 105.33ZM49.7391 162.046C49.7981 162.045 49.8571 162.047 49.9161 162.05C49.9751 162.052 50.0341 162.057 50.0929 162.062C50.1517 162.068 50.2104 162.075 50.269 162.084C50.3275 162.092 50.3858 162.102 50.4439 162.114C50.502 162.125 50.5598 162.138 50.6173 162.152C50.6747 162.166 50.7319 162.182 50.789 162.199C50.8456 162.216 50.9021 162.234 50.9583 162.254C51.0142 162.274 51.0698 162.295 51.1251 162.318C51.1799 162.34 51.2346 162.364 51.2888 162.389C51.3428 162.415 51.3962 162.441 51.4491 162.469C51.502 162.497 51.5544 162.526 51.6061 162.556C51.6575 162.587 51.7085 162.618 51.7589 162.651C51.8091 162.684 51.8586 162.718 51.9074 162.754C51.956 162.789 52.0039 162.825 52.0512 162.863C52.0982 162.901 52.1445 162.94 52.19 162.98C52.2356 163.02 52.2801 163.061 52.3238 163.103C52.3674 163.145 52.4101 163.188 52.4519 163.232C52.4937 163.277 52.5344 163.322 52.5742 163.368C52.614 163.414 52.6527 163.462 52.6906 163.51C52.7282 163.558 52.7648 163.607 52.8005 163.657C52.836 163.707 52.8705 163.758 52.9038 163.809C52.9372 163.861 52.9693 163.913 53.0005 163.967C53.0315 164.02 53.0615 164.074 53.0902 164.128C53.1189 164.183 53.1463 164.238 53.1727 164.295C53.1988 164.35 53.224 164.407 53.2478 164.464C53.2715 164.522 53.2941 164.579 53.3154 164.638C53.3366 164.696 53.3567 164.755 53.3753 164.814C53.394 164.874 53.4114 164.933 53.4275 164.994C53.4437 165.054 53.4584 165.114 53.4718 165.175C53.4853 165.236 53.4975 165.297 53.5082 165.359C53.519 165.42 53.5283 165.482 53.5364 165.544C53.5443 165.606 53.5511 165.668 53.5565 165.731C53.5618 165.793 53.5658 165.855 53.5685 165.918C53.571 165.98 53.5721 166.043 53.5721 166.105C53.5719 166.168 53.5705 166.23 53.5676 166.293C53.5647 166.355 53.5604 166.418 53.555 166.48C53.5493 166.542 53.5423 166.604 53.534 166.666C53.5258 166.728 53.5161 166.79 53.5052 166.851C53.4941 166.913 53.4817 166.974 53.4681 167.035C53.4544 167.096 53.4394 167.156 53.423 167.216C53.4067 167.276 53.3891 167.336 53.3701 167.396C53.3511 167.455 53.331 167.513 53.3095 167.572C53.288 167.63 53.2652 167.688 53.2412 167.745C53.2171 167.802 53.1919 167.859 53.1653 167.915C53.1388 167.97 53.111 168.025 53.0821 168.08C53.053 168.135 53.0231 168.188 52.9919 168.242C52.9605 168.295 52.928 168.347 52.8945 168.398C52.861 168.45 52.8263 168.501 52.7905 168.55C52.7546 168.6 52.7178 168.649 52.68 168.697C52.642 168.745 52.6031 168.792 52.5631 168.838C52.5231 168.884 52.4822 168.929 52.4402 168.973C52.3982 169.017 52.3554 169.06 52.3116 169.102C52.2677 169.144 52.2228 169.185 52.1773 169.225C52.1317 169.264 52.0853 169.303 52.0379 169.34C51.9906 169.378 51.9425 169.414 51.8937 169.449C51.8448 169.484 51.7951 169.518 51.7447 169.551C51.6943 169.584 51.6432 169.615 51.5915 169.645C51.5397 169.675 51.4873 169.704 51.4344 169.732C51.3813 169.76 51.3277 169.786 51.2736 169.811C51.2194 169.836 51.1647 169.859 51.1096 169.882C51.0544 169.904 50.9986 169.925 50.9427 169.945C50.8863 169.964 50.8299 169.982 50.773 169.999C50.716 170.016 50.6588 170.031 50.6014 170.045C50.5436 170.059 50.4859 170.072 50.4278 170.083L49.7391 170.148L19.1304 170.148C19.0712 170.148 19.0122 170.146 18.9532 170.144C18.8942 170.141 18.8352 170.137 18.7764 170.131C18.7176 170.125 18.6589 170.118 18.6005 170.11C18.5418 170.101 18.4835 170.091 18.4254 170.08C18.3673 170.068 18.3096 170.055 18.252 170.041C18.1944 170.027 18.1372 170.011 18.0805 169.994C18.0235 169.977 17.9672 169.959 17.9112 169.939C17.8551 169.919 17.7995 169.898 17.7444 169.876C17.6893 169.853 17.6347 169.829 17.5806 169.804C17.5266 169.779 17.4731 169.752 17.4201 169.724C17.3673 169.696 17.315 169.667 17.2634 169.637C17.2117 169.607 17.1608 169.575 17.1106 169.542C17.0603 169.509 17.0108 169.475 16.9621 169.44C16.9133 169.404 16.8653 169.368 16.8182 169.33C16.771 169.292 16.7247 169.253 16.6792 169.214C16.6338 169.174 16.5893 169.133 16.5456 169.09C16.502 169.048 16.4592 169.005 16.4174 168.961C16.3757 168.916 16.3349 168.871 16.2951 168.825C16.2553 168.779 16.2165 168.732 16.1789 168.683C16.1411 168.635 16.1044 168.586 16.0689 168.536C16.0333 168.486 15.9988 168.436 15.9654 168.384C15.9321 168.332 15.8998 168.28 15.8688 168.227C15.8377 168.174 15.8078 168.12 15.7791 168.065C15.7504 168.01 15.7229 167.955 15.6966 167.899C15.6704 167.843 15.6454 167.786 15.6216 167.729C15.5977 167.671 15.5752 167.614 15.554 167.555C15.5327 167.497 15.5127 167.438 15.4939 167.379C15.4753 167.32 15.4579 167.26 15.4417 167.2C15.4257 167.139 15.4109 167.079 15.3974 167.018C15.384 166.957 15.372 166.896 15.3612 166.834C15.3504 166.773 15.3411 166.711 15.3331 166.649C15.3249 166.587 15.3182 166.525 15.313 166.463C15.3076 166.4 15.3036 166.338 15.3009 166.276C15.2983 166.213 15.2971 166.15 15.2972 166.088C15.2973 166.025 15.2988 165.963 15.3017 165.9C15.3045 165.838 15.3088 165.776 15.3144 165.713C15.32 165.651 15.327 165.589 15.3352 165.527C15.3436 165.465 15.3533 165.403 15.3643 165.342C15.3753 165.28 15.3876 165.219 15.4012 165.158C15.415 165.097 15.43 165.037 15.4462 164.977C15.4626 164.917 15.4802 164.857 15.4991 164.798C15.5181 164.739 15.5384 164.68 15.5599 164.622C15.5814 164.563 15.6042 164.506 15.6283 164.448C15.6523 164.391 15.6776 164.335 15.7041 164.279C15.7305 164.223 15.7582 164.168 15.7872 164.113C15.8161 164.058 15.8462 164.005 15.8776 163.952C15.9088 163.899 15.9412 163.846 15.9748 163.795C16.0083 163.743 16.043 163.693 16.0788 163.643C16.1146 163.593 16.1515 163.544 16.1894 163.496C16.2273 163.448 16.2662 163.401 16.3062 163.355C16.3462 163.309 16.3873 163.264 16.4292 163.22C16.4711 163.176 16.5139 163.133 16.5578 163.091C16.6017 163.049 16.6464 163.008 16.692 162.969C16.7376 162.929 16.7841 162.89 16.8313 162.853C16.8787 162.815 16.9268 162.779 16.9757 162.744C17.0246 162.709 17.0742 162.675 17.1245 162.642C17.175 162.61 17.2261 162.578 17.2777 162.548C17.3295 162.518 17.3819 162.489 17.435 162.461C17.488 162.434 17.5415 162.407 17.5957 162.382C17.6499 162.357 17.7046 162.334 17.7598 162.311C17.815 162.289 17.8707 162.268 17.9268 162.249C17.9828 162.229 18.0393 162.211 18.0963 162.194C18.1532 162.177 18.2104 162.162 18.2681 162.148C18.3257 162.134 18.3836 162.121 18.4417 162.11L19.1304 162.046L49.7391 162.046ZM156.869 162.046C156.928 162.045 156.987 162.047 157.046 162.05C157.105 162.052 157.164 162.057 157.223 162.062C157.282 162.068 157.341 162.075 157.399 162.084C157.457 162.092 157.516 162.102 157.574 162.114C157.632 162.125 157.69 162.138 157.747 162.152C157.805 162.166 157.862 162.182 157.919 162.199C157.976 162.216 158.032 162.234 158.088 162.254C158.144 162.274 158.2 162.295 158.255 162.318C158.31 162.34 158.365 162.364 158.419 162.389C158.473 162.415 158.526 162.441 158.579 162.469C158.632 162.497 158.684 162.526 158.736 162.556C158.788 162.587 158.839 162.618 158.889 162.651C158.939 162.684 158.989 162.718 159.037 162.754C159.086 162.789 159.134 162.825 159.181 162.863C159.228 162.901 159.275 162.94 159.32 162.98C159.366 163.02 159.41 163.061 159.454 163.103C159.497 163.145 159.54 163.188 159.582 163.232C159.624 163.277 159.665 163.322 159.704 163.368C159.744 163.414 159.783 163.462 159.821 163.51C159.858 163.558 159.895 163.607 159.93 163.657C159.966 163.707 160.001 163.758 160.034 163.809C160.067 163.861 160.099 163.913 160.131 163.967C160.161 164.02 160.191 164.074 160.22 164.128C160.249 164.183 160.276 164.238 160.303 164.295C160.329 164.35 160.354 164.407 160.378 164.464C160.401 164.522 160.424 164.579 160.446 164.638C160.467 164.696 160.487 164.755 160.505 164.814C160.524 164.874 160.542 164.933 160.558 164.994C160.574 165.054 160.588 165.114 160.602 165.175C160.615 165.236 160.627 165.297 160.638 165.359C160.649 165.42 160.658 165.482 160.666 165.544C160.674 165.606 160.681 165.668 160.687 165.731C160.692 165.793 160.696 165.855 160.698 165.918C160.701 165.98 160.702 166.043 160.702 166.105C160.702 166.168 160.701 166.23 160.698 166.293C160.695 166.355 160.691 166.418 160.685 166.48C160.679 166.542 160.672 166.604 160.664 166.666C160.656 166.728 160.646 166.79 160.635 166.851C160.624 166.913 160.612 166.974 160.598 167.035C160.584 167.096 160.569 167.156 160.553 167.216C160.537 167.276 160.519 167.336 160.5 167.396C160.481 167.455 160.461 167.513 160.439 167.572C160.418 167.63 160.395 167.688 160.371 167.745C160.347 167.802 160.322 167.859 160.295 167.915C160.269 167.97 160.241 168.025 160.212 168.08C160.183 168.135 160.153 168.188 160.122 168.242C160.09 168.295 160.058 168.347 160.025 168.398C159.991 168.45 159.956 168.501 159.921 168.55C159.885 168.6 159.848 168.649 159.81 168.697C159.772 168.745 159.733 168.792 159.693 168.838C159.653 168.884 159.612 168.929 159.57 168.973C159.528 169.017 159.485 169.06 159.442 169.102C159.398 169.144 159.353 169.185 159.307 169.225C159.262 169.264 159.215 169.303 159.168 169.34C159.121 169.378 159.072 169.414 159.024 169.449C158.975 169.484 158.925 169.518 158.875 169.551C158.824 169.584 158.773 169.615 158.722 169.645C158.67 169.675 158.617 169.704 158.564 169.732C158.511 169.76 158.458 169.786 158.404 169.811C158.35 169.836 158.295 169.859 158.24 169.882C158.184 169.904 158.129 169.925 158.073 169.945C158.016 169.964 157.96 169.982 157.903 169.999C157.846 170.016 157.789 170.031 157.731 170.045C157.674 170.059 157.616 170.072 157.558 170.083L156.869 170.148L126.26 170.148C126.201 170.148 126.142 170.146 126.083 170.144C126.024 170.141 125.965 170.137 125.907 170.131C125.848 170.125 125.789 170.118 125.73 170.11C125.672 170.101 125.614 170.091 125.556 170.08C125.497 170.068 125.44 170.055 125.382 170.041C125.325 170.027 125.267 170.011 125.211 169.994C125.154 169.977 125.097 169.959 125.041 169.939C124.985 169.919 124.929 169.898 124.874 169.876C124.819 169.853 124.765 169.829 124.711 169.804C124.656 169.779 124.603 169.752 124.55 169.724C124.497 169.696 124.445 169.667 124.393 169.637C124.342 169.607 124.291 169.575 124.241 169.542C124.19 169.509 124.141 169.475 124.092 169.44C124.043 169.404 123.995 169.368 123.948 169.33C123.901 169.292 123.855 169.253 123.809 169.214C123.764 169.174 123.719 169.133 123.676 169.09C123.632 169.048 123.589 169.005 123.548 168.961C123.506 168.916 123.465 168.871 123.425 168.825C123.385 168.779 123.347 168.732 123.309 168.683C123.271 168.635 123.234 168.586 123.199 168.536C123.163 168.486 123.129 168.436 123.095 168.384C123.062 168.332 123.03 168.28 122.999 168.227C122.968 168.174 122.938 168.12 122.909 168.065C122.88 168.01 122.853 167.955 122.827 167.899C122.8 167.843 122.775 167.786 122.752 167.729C122.728 167.671 122.705 167.614 122.684 167.555C122.663 167.497 122.643 167.438 122.624 167.379C122.605 167.32 122.588 167.26 122.572 167.2C122.556 167.139 122.541 167.079 122.527 167.018C122.514 166.957 122.502 166.896 122.491 166.834C122.48 166.773 122.471 166.711 122.463 166.649C122.455 166.587 122.448 166.525 122.443 166.463C122.438 166.4 122.433 166.338 122.431 166.276C122.428 166.213 122.427 166.15 122.427 166.088C122.427 166.025 122.429 165.963 122.432 165.9C122.435 165.838 122.439 165.776 122.444 165.713C122.45 165.651 122.457 165.589 122.465 165.527C122.473 165.465 122.483 165.403 122.494 165.342C122.505 165.28 122.518 165.219 122.531 165.158C122.545 165.097 122.56 165.037 122.576 164.977C122.593 164.917 122.61 164.857 122.629 164.798C122.648 164.739 122.668 164.68 122.69 164.622C122.711 164.563 122.734 164.506 122.758 164.448C122.782 164.391 122.808 164.335 122.834 164.279C122.861 164.223 122.888 164.168 122.917 164.113C122.946 164.058 122.976 164.005 123.008 163.952C123.039 163.899 123.071 163.846 123.105 163.795C123.138 163.743 123.173 163.693 123.209 163.643C123.245 163.593 123.281 163.544 123.319 163.496C123.357 163.448 123.396 163.401 123.436 163.355C123.476 163.309 123.517 163.264 123.559 163.22C123.601 163.176 123.644 163.133 123.688 163.091C123.732 163.049 123.776 163.008 123.822 162.969C123.868 162.929 123.914 162.89 123.962 162.853C124.009 162.815 124.057 162.779 124.106 162.744C124.155 162.709 124.204 162.675 124.255 162.642C124.305 162.61 124.356 162.578 124.408 162.548C124.46 162.518 124.512 162.489 124.565 162.461C124.618 162.434 124.672 162.407 124.726 162.382C124.78 162.357 124.835 162.334 124.89 162.311C124.945 162.289 125.001 162.268 125.057 162.249C125.113 162.229 125.169 162.211 125.226 162.194C125.283 162.177 125.341 162.162 125.398 162.148C125.456 162.134 125.514 162.121 125.572 162.11L126.26 162.046L156.869 162.046ZM49.7391 145.841C49.7981 145.841 49.8571 145.842 49.9161 145.845C49.9751 145.848 50.0341 145.852 50.0929 145.858C50.1517 145.863 50.2104 145.87 50.269 145.879C50.3275 145.887 50.3858 145.897 50.4439 145.909C50.502 145.92 50.5598 145.933 50.6173 145.947C50.6747 145.961 50.7319 145.977 50.789 145.994C50.8456 146.011 50.9021 146.03 50.9583 146.05C51.0142 146.069 51.0698 146.091 51.1251 146.113C51.1801 146.136 51.2346 146.16 51.2888 146.185C51.3428 146.21 51.3962 146.237 51.4491 146.265C51.502 146.292 51.5544 146.321 51.6061 146.352C51.6577 146.382 51.7087 146.414 51.7589 146.447C51.8091 146.48 51.8586 146.514 51.9074 146.549C51.956 146.585 52.0039 146.621 52.0512 146.659C52.0982 146.696 52.1445 146.735 52.19 146.775C52.2356 146.815 52.2801 146.856 52.3238 146.898C52.3674 146.941 52.4101 146.984 52.4519 147.028C52.4937 147.072 52.5345 147.117 52.5744 147.164C52.614 147.21 52.6527 147.257 52.6906 147.305C52.7282 147.353 52.7648 147.402 52.8005 147.452C52.836 147.502 52.8706 147.553 52.904 147.605C52.9374 147.656 52.9695 147.709 53.0005 147.762C53.0315 147.815 53.0615 147.869 53.0902 147.924C53.1189 147.979 53.1463 148.034 53.1727 148.09C53.1988 148.146 53.224 148.202 53.2478 148.26C53.2715 148.317 53.2941 148.375 53.3154 148.433C53.3366 148.491 53.3567 148.55 53.3755 148.61C53.3942 148.669 53.4116 148.729 53.4277 148.789C53.4437 148.849 53.4584 148.91 53.4718 148.971C53.4853 149.032 53.4975 149.093 53.5082 149.154C53.519 149.216 53.5283 149.278 53.5364 149.34C53.5445 149.401 53.5511 149.464 53.5565 149.526C53.5618 149.588 53.5658 149.651 53.5685 149.713C53.571 149.776 53.5721 149.838 53.5721 149.901C53.5719 149.963 53.5705 150.026 53.5676 150.088C53.5647 150.151 53.5604 150.213 53.555 150.276C53.5493 150.338 53.5423 150.4 53.534 150.462C53.5258 150.524 53.5161 150.585 53.5052 150.647C53.4941 150.708 53.4817 150.77 53.4681 150.83C53.4544 150.891 53.4394 150.952 53.423 151.012C53.4067 151.072 53.3891 151.132 53.3701 151.191C53.3511 151.25 53.331 151.309 53.3095 151.367C53.288 151.425 53.2652 151.483 53.2412 151.54C53.2171 151.597 53.1919 151.654 53.1653 151.71C53.1388 151.766 53.111 151.821 53.0821 151.876C53.053 151.93 53.0231 151.984 52.9919 152.037C52.9605 152.09 52.928 152.142 52.8945 152.194C52.861 152.245 52.8263 152.296 52.7905 152.346C52.7546 152.396 52.7178 152.444 52.68 152.492C52.642 152.54 52.6031 152.587 52.5631 152.633C52.5231 152.679 52.4822 152.724 52.4402 152.769C52.3982 152.813 52.3554 152.856 52.3116 152.898C52.2677 152.939 52.223 152.98 52.1775 153.02C52.1317 153.06 52.0853 153.098 52.0379 153.136C51.9906 153.173 51.9425 153.21 51.8937 153.245C51.8448 153.28 51.7951 153.314 51.7447 153.347C51.6943 153.379 51.6432 153.411 51.5915 153.441C51.5397 153.471 51.4873 153.5 51.4344 153.528C51.3813 153.555 51.3277 153.581 51.2736 153.606C51.2194 153.631 51.1647 153.655 51.1096 153.677C51.0544 153.699 50.9986 153.72 50.9427 153.74C50.8863 153.759 50.8299 153.778 50.773 153.795C50.716 153.811 50.6588 153.827 50.6014 153.841C50.5436 153.855 50.4859 153.867 50.4278 153.878L49.7391 153.943L19.1304 153.943C19.0712 153.943 19.0122 153.942 18.9532 153.939C18.8942 153.936 18.8352 153.932 18.7764 153.927C18.7176 153.921 18.6589 153.914 18.6005 153.905C18.5418 153.897 18.4835 153.887 18.4254 153.875C18.3673 153.864 18.3096 153.851 18.252 153.837C18.1944 153.822 18.1372 153.807 18.0805 153.79C18.0235 153.773 17.9672 153.754 17.9112 153.735C17.8551 153.715 17.7995 153.693 17.7444 153.671C17.6893 153.648 17.6347 153.624 17.5806 153.599C17.5266 153.574 17.4731 153.548 17.4201 153.52C17.3673 153.492 17.315 153.463 17.2634 153.432C17.2117 153.402 17.1608 153.37 17.1106 153.337C17.0603 153.304 17.0108 153.27 16.9621 153.235C16.9133 153.2 16.8653 153.163 16.8182 153.126C16.771 153.088 16.7247 153.049 16.6792 153.009C16.6338 152.969 16.5893 152.928 16.5456 152.886C16.502 152.844 16.4592 152.8 16.4174 152.756C16.3757 152.712 16.3349 152.667 16.2951 152.621C16.2553 152.574 16.2165 152.527 16.1789 152.479C16.1411 152.431 16.1044 152.382 16.0689 152.332C16.0333 152.282 15.9988 152.231 15.9654 152.179C15.9321 152.128 15.8998 152.075 15.8688 152.022C15.8377 151.969 15.8078 151.915 15.7791 151.86C15.7504 151.806 15.7229 151.75 15.6966 151.694C15.6704 151.638 15.6454 151.581 15.6216 151.524C15.5977 151.467 15.5752 151.409 15.554 151.351C15.5327 151.292 15.5127 151.234 15.4939 151.174C15.4753 151.115 15.4579 151.055 15.4417 150.995C15.4257 150.935 15.4109 150.874 15.3974 150.813C15.384 150.752 15.372 150.691 15.3612 150.63C15.3504 150.568 15.3411 150.506 15.3331 150.445C15.3249 150.382 15.3182 150.32 15.313 150.258C15.3076 150.196 15.3036 150.133 15.3009 150.071C15.2983 150.008 15.2971 149.946 15.2972 149.883C15.2973 149.821 15.2988 149.758 15.3017 149.696C15.3045 149.633 15.3088 149.571 15.3144 149.509C15.32 149.446 15.327 149.384 15.3352 149.322C15.3436 149.26 15.3533 149.199 15.3643 149.137C15.3753 149.076 15.3876 149.014 15.4012 148.954C15.415 148.893 15.43 148.832 15.4462 148.772C15.4626 148.712 15.4802 148.653 15.4991 148.593C15.5181 148.534 15.5384 148.475 15.5599 148.417C15.5814 148.359 15.6042 148.301 15.6283 148.244C15.6523 148.187 15.6776 148.13 15.7041 148.074C15.7305 148.018 15.7582 147.963 15.7872 147.909C15.8161 147.854 15.8462 147.8 15.8776 147.747C15.9088 147.694 15.9412 147.642 15.9748 147.59C16.0083 147.539 16.043 147.488 16.0788 147.439C16.1146 147.389 16.1515 147.34 16.1894 147.292C16.2273 147.244 16.2662 147.197 16.3062 147.151C16.3462 147.105 16.3873 147.06 16.4292 147.016C16.4711 146.972 16.5139 146.928 16.5578 146.887C16.6017 146.845 16.6464 146.804 16.692 146.764C16.7376 146.724 16.7841 146.686 16.8313 146.648C16.8787 146.611 16.9268 146.574 16.9757 146.539C17.0246 146.504 17.0742 146.47 17.1245 146.438C17.175 146.405 17.2261 146.373 17.2777 146.343C17.3295 146.313 17.3819 146.284 17.435 146.257C17.488 146.229 17.5415 146.203 17.5957 146.178C17.6499 146.153 17.7046 146.129 17.7598 146.107C17.815 146.085 17.8707 146.064 17.9268 146.044C17.9828 146.025 18.0393 146.006 18.0963 145.99C18.1532 145.973 18.2104 145.958 18.2681 145.943C18.3257 145.929 18.3836 145.917 18.4417 145.906L19.1304 145.841L49.7391 145.841ZM156.869 145.841C156.928 145.841 156.987 145.842 157.046 145.845C157.105 145.848 157.164 145.852 157.223 145.858C157.282 145.863 157.341 145.87 157.399 145.879C157.457 145.887 157.516 145.897 157.574 145.909C157.632 145.92 157.69 145.933 157.747 145.947C157.805 145.961 157.862 145.977 157.919 145.994C157.976 146.011 158.032 146.03 158.088 146.05C158.144 146.069 158.2 146.091 158.255 146.113C158.31 146.136 158.365 146.16 158.419 146.185C158.473 146.21 158.526 146.237 158.579 146.265C158.632 146.292 158.684 146.321 158.736 146.352C158.788 146.382 158.839 146.414 158.889 146.447C158.939 146.48 158.989 146.514 159.037 146.549C159.086 146.585 159.134 146.621 159.181 146.659C159.228 146.696 159.275 146.735 159.32 146.775C159.366 146.815 159.41 146.856 159.454 146.898C159.497 146.94 159.54 146.984 159.582 147.028C159.624 147.072 159.665 147.117 159.704 147.164C159.744 147.21 159.783 147.257 159.821 147.305C159.858 147.353 159.895 147.402 159.93 147.452C159.966 147.502 160.001 147.553 160.034 147.605C160.067 147.656 160.099 147.709 160.131 147.762C160.161 147.815 160.191 147.869 160.22 147.924C160.249 147.979 160.276 148.034 160.303 148.09C160.329 148.146 160.354 148.202 160.378 148.26C160.401 148.317 160.424 148.375 160.446 148.433C160.467 148.491 160.487 148.55 160.505 148.61C160.524 148.669 160.542 148.729 160.558 148.789C160.574 148.849 160.588 148.91 160.602 148.971C160.615 149.032 160.627 149.093 160.638 149.154C160.649 149.216 160.658 149.278 160.666 149.34C160.674 149.401 160.681 149.464 160.687 149.526C160.692 149.588 160.696 149.651 160.698 149.713C160.701 149.776 160.702 149.838 160.702 149.901C160.702 149.963 160.701 150.026 160.698 150.088C160.695 150.151 160.691 150.213 160.685 150.276C160.679 150.338 160.672 150.4 160.664 150.462C160.656 150.524 160.646 150.585 160.635 150.647C160.624 150.708 160.612 150.77 160.598 150.83C160.584 150.891 160.569 150.952 160.553 151.012C160.537 151.072 160.519 151.132 160.5 151.191C160.481 151.25 160.461 151.309 160.439 151.367C160.418 151.425 160.395 151.483 160.371 151.54C160.347 151.597 160.322 151.654 160.295 151.71C160.269 151.766 160.241 151.821 160.212 151.876C160.183 151.93 160.153 151.984 160.122 152.037C160.09 152.09 160.058 152.142 160.025 152.194C159.991 152.245 159.956 152.296 159.921 152.346C159.885 152.396 159.848 152.444 159.81 152.492C159.772 152.54 159.733 152.587 159.693 152.633C159.653 152.679 159.612 152.724 159.57 152.769C159.528 152.813 159.485 152.856 159.442 152.897C159.398 152.939 159.353 152.98 159.307 153.02C159.262 153.06 159.215 153.098 159.168 153.136C159.121 153.173 159.072 153.21 159.024 153.245C158.975 153.28 158.925 153.314 158.875 153.347C158.824 153.379 158.773 153.411 158.722 153.441C158.67 153.471 158.617 153.5 158.564 153.528C158.511 153.555 158.458 153.581 158.404 153.606C158.35 153.631 158.295 153.655 158.24 153.677C158.184 153.699 158.129 153.72 158.073 153.74C158.016 153.759 157.96 153.778 157.903 153.795C157.846 153.811 157.789 153.827 157.731 153.841C157.674 153.855 157.616 153.867 157.558 153.878L156.869 153.943L126.26 153.943C126.201 153.943 126.142 153.942 126.083 153.939C126.024 153.936 125.965 153.932 125.907 153.927C125.848 153.921 125.789 153.914 125.73 153.905C125.672 153.897 125.614 153.887 125.556 153.875C125.497 153.864 125.44 153.851 125.382 153.837C125.325 153.822 125.267 153.807 125.211 153.79C125.154 153.773 125.097 153.754 125.041 153.735C124.985 153.715 124.929 153.694 124.874 153.671C124.819 153.648 124.765 153.624 124.711 153.599C124.656 153.574 124.603 153.548 124.55 153.52C124.497 153.492 124.445 153.463 124.393 153.432C124.342 153.402 124.291 153.37 124.241 153.337C124.19 153.304 124.141 153.27 124.092 153.235C124.043 153.2 123.995 153.163 123.948 153.126C123.901 153.088 123.855 153.049 123.809 153.009C123.764 152.969 123.719 152.928 123.676 152.886C123.632 152.844 123.589 152.8 123.548 152.756C123.506 152.712 123.465 152.667 123.425 152.621C123.385 152.574 123.347 152.527 123.309 152.479C123.271 152.431 123.234 152.382 123.199 152.332C123.163 152.282 123.129 152.231 123.095 152.179C123.062 152.128 123.03 152.075 122.999 152.022C122.968 151.969 122.938 151.915 122.909 151.86C122.88 151.806 122.853 151.75 122.827 151.694C122.8 151.638 122.775 151.581 122.752 151.524C122.728 151.467 122.705 151.409 122.684 151.351C122.663 151.292 122.643 151.234 122.624 151.174C122.605 151.115 122.588 151.055 122.572 150.995C122.556 150.935 122.541 150.874 122.527 150.813C122.514 150.752 122.502 150.691 122.491 150.63C122.48 150.568 122.471 150.506 122.463 150.445C122.455 150.382 122.448 150.32 122.443 150.258C122.438 150.196 122.433 150.133 122.431 150.071C122.428 150.008 122.427 149.946 122.427 149.883C122.427 149.821 122.429 149.758 122.432 149.696C122.435 149.633 122.439 149.571 122.444 149.509C122.45 149.446 122.457 149.384 122.465 149.322C122.473 149.26 122.483 149.199 122.494 149.137C122.505 149.076 122.518 149.014 122.531 148.954C122.545 148.893 122.56 148.832 122.576 148.772C122.593 148.712 122.61 148.653 122.629 148.593C122.648 148.534 122.668 148.475 122.69 148.417C122.711 148.359 122.734 148.301 122.758 148.244C122.782 148.187 122.808 148.13 122.834 148.074C122.861 148.018 122.888 147.963 122.917 147.909C122.946 147.854 122.976 147.8 123.008 147.747C123.039 147.694 123.071 147.642 123.105 147.59C123.138 147.539 123.173 147.488 123.209 147.439C123.245 147.389 123.281 147.34 123.319 147.292C123.357 147.244 123.396 147.197 123.436 147.151C123.476 147.105 123.517 147.06 123.559 147.016C123.601 146.972 123.644 146.928 123.688 146.887C123.732 146.845 123.776 146.804 123.822 146.764C123.868 146.724 123.914 146.686 123.962 146.648C124.009 146.611 124.057 146.574 124.106 146.539C124.155 146.504 124.204 146.47 124.255 146.438C124.305 146.405 124.356 146.373 124.408 146.343C124.46 146.313 124.512 146.284 124.565 146.257C124.618 146.229 124.672 146.203 124.726 146.178C124.78 146.153 124.835 146.129 124.89 146.107C124.945 146.085 125.001 146.064 125.057 146.044C125.113 146.025 125.169 146.006 125.226 145.99C125.283 145.973 125.341 145.958 125.398 145.943C125.456 145.929 125.514 145.917 125.572 145.906L126.26 145.841L156.869 145.841ZM34.4347 129.636C34.4937 129.636 34.5527 129.638 34.6119 129.64C34.6709 129.643 34.7299 129.647 34.7887 129.653C34.8475 129.659 34.9062 129.666 34.9646 129.674C35.0231 129.683 35.0816 129.693 35.1397 129.704C35.1978 129.716 35.2555 129.729 35.3131 129.743C35.3705 129.757 35.4277 129.773 35.4846 129.79C35.5414 129.807 35.5979 129.825 35.654 129.845C35.71 129.865 35.7654 129.886 35.8206 129.909C35.8757 129.931 35.9302 129.955 35.9844 129.98C36.0386 130.005 36.092 130.032 36.1449 130.06C36.1976 130.088 36.25 130.117 36.3017 130.147C36.3533 130.178 36.4042 130.209 36.4545 130.242C36.5047 130.275 36.5542 130.309 36.603 130.345C36.6517 130.38 36.6996 130.417 36.747 130.454C36.794 130.492 36.8402 130.531 36.8858 130.571C36.9312 130.611 36.9756 130.652 37.0194 130.694C37.0632 130.736 37.1059 130.779 37.1476 130.823C37.1892 130.868 37.2301 130.913 37.27 130.959C37.3098 131.005 37.3485 131.052 37.3862 131.101C37.4238 131.149 37.4606 131.198 37.4963 131.248C37.5318 131.298 37.5662 131.349 37.5996 131.4C37.633 131.452 37.6651 131.504 37.6963 131.557C37.7273 131.611 37.7572 131.665 37.7859 131.719C37.8146 131.774 37.8421 131.829 37.8684 131.885C37.8946 131.941 37.9197 131.998 37.9436 132.055C37.9673 132.112 37.9899 132.17 38.0112 132.229C38.0324 132.287 38.0524 132.346 38.0711 132.405C38.0897 132.465 38.1071 132.524 38.1233 132.585C38.1394 132.645 38.1541 132.705 38.1676 132.766C38.1809 132.827 38.1931 132.888 38.2038 132.95C38.2146 133.011 38.2239 133.073 38.2322 133.135C38.24 133.197 38.2469 133.259 38.2522 133.322C38.2574 133.384 38.2614 133.446 38.2641 133.509C38.2666 133.571 38.2678 133.634 38.2678 133.696C38.2677 133.759 38.2662 133.821 38.2634 133.884C38.2605 133.946 38.2562 134.009 38.2506 134.071C38.2451 134.133 38.2381 134.195 38.2298 134.257C38.2216 134.319 38.2119 134.381 38.2008 134.443C38.1896 134.504 38.1774 134.565 38.1638 134.626C38.15 134.687 38.1349 134.747 38.1188 134.807C38.1023 134.867 38.0847 134.927 38.0659 134.986C38.0469 135.046 38.0266 135.104 38.0053 135.163C37.9838 135.221 37.961 135.279 37.9369 135.336C37.9127 135.393 37.8874 135.449 37.8611 135.505C37.8345 135.561 37.8067 135.616 37.7779 135.671C37.7488 135.725 37.7187 135.779 37.6875 135.833C37.6563 135.886 37.6238 135.938 37.5903 135.989C37.5565 136.041 37.5219 136.091 37.4862 136.141C37.4504 136.191 37.4136 136.24 37.3758 136.288C37.3377 136.336 37.2986 136.383 37.2588 136.429C37.2188 136.475 37.1779 136.52 37.136 136.564C37.094 136.608 37.051 136.651 37.0072 136.693C36.9634 136.735 36.9186 136.776 36.8731 136.815C36.8275 136.855 36.7811 136.894 36.7337 136.932C36.6864 136.969 36.6381 137.005 36.5893 137.04C36.5404 137.075 36.4907 137.109 36.4405 137.142C36.3901 137.175 36.339 137.206 36.2873 137.236C36.2355 137.266 36.1831 137.295 36.1302 137.323C36.0771 137.35 36.0235 137.377 35.9693 137.402C35.9152 137.427 35.8605 137.45 35.8052 137.473C35.75 137.495 35.6944 137.516 35.6383 137.536C35.5821 137.555 35.5256 137.573 35.4688 137.59C35.4117 137.607 35.3545 137.622 35.297 137.636C35.2394 137.65 35.1815 137.663 35.1233 137.674L34.4347 137.739L19.1304 137.739C19.0712 137.739 19.0122 137.737 18.9532 137.735C18.8942 137.732 18.8352 137.728 18.7764 137.722C18.7176 137.716 18.6589 137.709 18.6005 137.701C18.5418 137.692 18.4835 137.682 18.4254 137.671C18.3673 137.659 18.3096 137.646 18.252 137.632C18.1944 137.618 18.1372 137.602 18.0805 137.585C18.0235 137.568 17.9672 137.55 17.9112 137.53C17.8551 137.51 17.7995 137.489 17.7444 137.466C17.6893 137.444 17.6347 137.42 17.5806 137.395C17.5266 137.369 17.4731 137.343 17.4201 137.315C17.3673 137.287 17.315 137.258 17.2634 137.228C17.2117 137.197 17.1608 137.166 17.1106 137.133C17.0603 137.1 17.0108 137.066 16.9621 137.03C16.9133 136.995 16.8653 136.958 16.8182 136.921C16.771 136.883 16.7247 136.844 16.6792 136.804C16.6338 136.764 16.5893 136.723 16.5456 136.681C16.502 136.639 16.4592 136.596 16.4174 136.552C16.3757 136.507 16.3349 136.462 16.2951 136.416C16.2553 136.37 16.2165 136.323 16.1789 136.274C16.1411 136.226 16.1044 136.177 16.0689 136.127C16.0333 136.077 15.9988 136.026 15.9654 135.975C15.9321 135.923 15.8998 135.871 15.8688 135.818C15.8377 135.764 15.8078 135.71 15.7791 135.656C15.7504 135.601 15.7229 135.546 15.6966 135.49C15.6704 135.434 15.6454 135.377 15.6216 135.32C15.5977 135.262 15.5752 135.205 15.554 135.146C15.5327 135.088 15.5127 135.029 15.4939 134.97C15.4753 134.91 15.4579 134.851 15.4417 134.791C15.4257 134.73 15.4109 134.67 15.3974 134.609C15.384 134.548 15.372 134.487 15.3612 134.425C15.3504 134.364 15.3411 134.302 15.3331 134.24C15.3249 134.178 15.3182 134.116 15.313 134.054C15.3076 133.991 15.3036 133.929 15.3009 133.866C15.2983 133.804 15.2971 133.741 15.2972 133.679C15.2973 133.616 15.2988 133.554 15.3017 133.491C15.3045 133.429 15.3088 133.366 15.3144 133.304C15.32 133.242 15.327 133.18 15.3352 133.118C15.3436 133.056 15.3533 132.994 15.3643 132.933C15.3753 132.871 15.3876 132.81 15.4012 132.749C15.415 132.688 15.43 132.628 15.4462 132.568C15.4626 132.508 15.4802 132.448 15.4991 132.389C15.5181 132.329 15.5384 132.27 15.5599 132.212C15.5814 132.154 15.6042 132.096 15.6283 132.039C15.6523 131.982 15.6776 131.926 15.7041 131.87C15.7305 131.814 15.7582 131.759 15.7872 131.704C15.8161 131.649 15.8462 131.596 15.8776 131.543C15.9088 131.489 15.9412 131.437 15.9748 131.386C16.0083 131.334 16.043 131.284 16.0788 131.234C16.1146 131.184 16.1515 131.135 16.1894 131.087C16.2273 131.039 16.2662 130.992 16.3062 130.946C16.3462 130.9 16.3873 130.855 16.4292 130.811C16.4711 130.767 16.5139 130.724 16.5578 130.682C16.6017 130.64 16.6464 130.599 16.692 130.56C16.7376 130.52 16.7841 130.481 16.8313 130.444C16.8787 130.406 16.9268 130.37 16.9757 130.335C17.0246 130.3 17.0742 130.266 17.1245 130.233C17.175 130.2 17.2261 130.169 17.2777 130.139C17.3295 130.109 17.3819 130.08 17.435 130.052C17.488 130.025 17.5415 129.998 17.5957 129.973C17.6499 129.948 17.7046 129.925 17.7598 129.902C17.815 129.88 17.8707 129.859 17.9268 129.84C17.9828 129.82 18.0393 129.802 18.0963 129.785C18.1532 129.768 18.2104 129.753 18.2681 129.739C18.3257 129.725 18.3836 129.712 18.4417 129.701L19.1304 129.636L34.4347 129.636ZM141.565 129.636C141.624 129.636 141.683 129.638 141.742 129.64C141.801 129.643 141.86 129.647 141.919 129.653C141.977 129.659 142.036 129.666 142.095 129.674C142.153 129.683 142.212 129.693 142.27 129.704C142.328 129.716 142.385 129.729 142.443 129.743C142.5 129.757 142.558 129.773 142.615 129.79C142.671 129.807 142.728 129.825 142.784 129.845C142.84 129.865 142.896 129.886 142.951 129.909C143.006 129.931 143.06 129.955 143.115 129.98C143.169 130.005 143.222 130.032 143.275 130.06C143.328 130.088 143.38 130.117 143.432 130.147C143.483 130.178 143.534 130.209 143.585 130.242C143.635 130.275 143.684 130.309 143.733 130.345C143.782 130.38 143.83 130.417 143.877 130.454C143.924 130.492 143.97 130.531 144.016 130.571C144.061 130.611 144.106 130.652 144.15 130.694C144.193 130.736 144.236 130.779 144.278 130.823C144.319 130.868 144.36 130.913 144.4 130.959C144.44 131.005 144.478 131.052 144.516 131.101C144.554 131.149 144.591 131.198 144.626 131.248C144.662 131.298 144.696 131.349 144.73 131.4C144.763 131.452 144.795 131.504 144.826 131.557C144.857 131.611 144.887 131.665 144.916 131.719C144.945 131.774 144.972 131.829 144.998 131.885C145.025 131.941 145.05 131.998 145.074 132.055C145.097 132.112 145.12 132.17 145.141 132.229C145.162 132.287 145.182 132.346 145.201 132.405C145.22 132.465 145.237 132.524 145.253 132.585C145.269 132.645 145.284 132.705 145.298 132.766C145.311 132.827 145.323 132.888 145.334 132.95C145.345 133.011 145.354 133.073 145.362 133.135C145.37 133.197 145.377 133.259 145.382 133.322C145.388 133.384 145.392 133.446 145.394 133.509C145.397 133.571 145.398 133.634 145.398 133.696C145.398 133.759 145.396 133.821 145.393 133.884C145.39 133.946 145.386 134.009 145.381 134.071C145.375 134.133 145.368 134.195 145.36 134.257C145.352 134.319 145.342 134.381 145.331 134.442C145.32 134.504 145.307 134.565 145.294 134.626C145.28 134.687 145.265 134.747 145.249 134.807C145.232 134.867 145.215 134.927 145.196 134.986C145.177 135.046 145.157 135.104 145.135 135.163C145.114 135.221 145.091 135.279 145.067 135.336C145.043 135.393 145.018 135.449 144.991 135.505C144.965 135.561 144.937 135.616 144.908 135.671C144.879 135.725 144.849 135.779 144.818 135.833C144.786 135.886 144.754 135.938 144.72 135.989C144.687 136.041 144.652 136.091 144.616 136.141C144.581 136.191 144.544 136.24 144.506 136.288C144.468 136.336 144.429 136.383 144.389 136.429C144.349 136.475 144.308 136.52 144.266 136.564C144.224 136.608 144.181 136.651 144.137 136.693C144.093 136.735 144.049 136.776 144.003 136.816C143.957 136.855 143.911 136.894 143.864 136.932C143.816 136.969 143.768 137.005 143.719 137.04C143.671 137.075 143.621 137.109 143.57 137.142C143.52 137.175 143.469 137.206 143.417 137.236C143.365 137.266 143.313 137.295 143.26 137.323C143.207 137.35 143.153 137.377 143.099 137.402C143.045 137.427 142.99 137.45 142.935 137.473C142.88 137.495 142.824 137.516 142.768 137.536C142.712 137.555 142.656 137.573 142.599 137.59C142.542 137.607 142.484 137.622 142.427 137.636C142.369 137.65 142.312 137.663 142.253 137.674L141.565 137.739L126.26 137.739C126.201 137.739 126.142 137.737 126.083 137.735C126.024 137.732 125.965 137.728 125.907 137.722C125.848 137.716 125.789 137.709 125.73 137.701C125.672 137.692 125.614 137.682 125.556 137.671C125.497 137.659 125.44 137.646 125.382 137.632C125.325 137.618 125.267 137.602 125.211 137.585C125.154 137.568 125.097 137.55 125.041 137.53C124.985 137.51 124.929 137.489 124.874 137.466C124.819 137.444 124.765 137.42 124.711 137.395C124.656 137.369 124.603 137.343 124.55 137.315C124.497 137.287 124.445 137.258 124.393 137.228C124.342 137.197 124.291 137.166 124.241 137.133C124.19 137.1 124.141 137.066 124.092 137.03C124.043 136.995 123.995 136.958 123.948 136.921C123.901 136.883 123.855 136.844 123.809 136.804C123.764 136.764 123.719 136.723 123.676 136.681C123.632 136.639 123.589 136.596 123.548 136.552C123.506 136.507 123.465 136.462 123.425 136.416C123.385 136.37 123.347 136.323 123.309 136.274C123.271 136.226 123.234 136.177 123.199 136.127C123.163 136.077 123.129 136.026 123.095 135.975C123.062 135.923 123.03 135.871 122.999 135.818C122.968 135.764 122.938 135.71 122.909 135.656C122.881 135.601 122.853 135.546 122.827 135.49C122.8 135.434 122.775 135.377 122.752 135.32C122.728 135.262 122.705 135.205 122.684 135.146C122.663 135.088 122.643 135.029 122.624 134.97C122.605 134.91 122.588 134.851 122.572 134.791C122.556 134.73 122.541 134.67 122.528 134.609C122.514 134.548 122.502 134.487 122.491 134.425C122.48 134.364 122.471 134.302 122.463 134.24C122.455 134.178 122.448 134.116 122.443 134.054C122.438 133.991 122.433 133.929 122.431 133.866C122.428 133.804 122.427 133.741 122.427 133.679C122.427 133.616 122.429 133.554 122.432 133.491C122.435 133.429 122.439 133.366 122.444 133.304C122.45 133.242 122.457 133.18 122.465 133.118C122.474 133.056 122.483 132.994 122.494 132.933C122.505 132.871 122.518 132.81 122.531 132.749C122.545 132.688 122.56 132.628 122.576 132.568C122.593 132.508 122.61 132.448 122.629 132.389C122.648 132.329 122.668 132.27 122.69 132.212C122.711 132.154 122.734 132.096 122.758 132.039C122.782 131.982 122.808 131.926 122.834 131.87C122.861 131.814 122.888 131.759 122.917 131.704C122.946 131.649 122.976 131.596 123.008 131.543C123.039 131.489 123.071 131.437 123.105 131.386C123.138 131.334 123.173 131.284 123.209 131.234C123.245 131.184 123.281 131.135 123.319 131.087C123.357 131.039 123.396 130.992 123.436 130.946C123.476 130.9 123.517 130.855 123.559 130.811C123.601 130.767 123.644 130.724 123.688 130.682C123.732 130.64 123.776 130.599 123.822 130.56C123.868 130.52 123.914 130.481 123.962 130.444C124.009 130.406 124.057 130.37 124.106 130.335C124.155 130.3 124.204 130.266 124.255 130.233C124.305 130.2 124.356 130.169 124.408 130.139C124.46 130.109 124.512 130.08 124.565 130.052C124.618 130.025 124.672 129.998 124.726 129.973C124.78 129.948 124.835 129.925 124.89 129.902C124.945 129.88 125.001 129.859 125.057 129.84C125.113 129.82 125.169 129.802 125.226 129.785C125.283 129.768 125.341 129.753 125.398 129.739C125.456 129.725 125.514 129.712 125.572 129.701L126.26 129.636L141.565 129.636ZM103.304 1.91965e-05C103.404 -0.000145604 103.504 0.00384874 103.604 0.0120015C103.704 0.0201545 103.803 0.0324473 103.902 0.0488797C104.001 0.0653118 104.1 0.0858272 104.197 0.110425C104.295 0.135023 104.391 0.163634 104.486 0.196259C104.582 0.228883 104.676 0.265413 104.768 0.305848C104.861 0.346296 104.952 0.390523 105.041 0.438529C105.131 0.486548 105.218 0.5382 105.304 0.593485C105.389 0.648758 105.472 0.707505 105.554 0.769729L106.013 1.18294L121.317 17.3875C121.388 17.4624 121.456 17.5402 121.521 17.6209C121.586 17.7015 121.647 17.7847 121.706 17.8704C121.765 17.9562 121.82 18.0443 121.873 18.1347C121.925 18.225 121.974 18.3174 122.019 18.4118C122.065 18.5062 122.106 18.6024 122.145 18.7004C122.183 18.7983 122.218 18.8976 122.249 18.9984C122.279 19.0991 122.307 19.2011 122.33 19.3042C122.353 19.4071 122.373 19.511 122.388 19.6156L122.434 20.2557L122.434 85.0739C122.434 85.1325 122.433 85.1912 122.431 85.2499C122.428 85.3084 122.425 85.3671 122.42 85.4256C122.415 85.4838 122.409 85.5421 122.402 85.6004C122.395 85.6586 122.386 85.7165 122.377 85.7744C122.367 85.8321 122.357 85.8897 122.345 85.947C122.333 86.0044 122.32 86.0613 122.305 86.1179C122.291 86.1745 122.276 86.2309 122.259 86.2871C122.243 86.3429 122.225 86.3986 122.206 86.4538C122.187 86.5089 122.167 86.5636 122.146 86.6179C122.125 86.672 122.103 86.7258 122.079 86.7791C122.056 86.8323 122.032 86.8849 122.006 86.9371C121.981 86.9892 121.954 87.0408 121.927 87.0917C121.899 87.1426 121.871 87.1927 121.841 87.2423C121.811 87.2919 121.781 87.3407 121.749 87.3889C121.717 87.4371 121.685 87.4844 121.651 87.5311C121.617 87.5778 121.583 87.6236 121.548 87.6688C121.512 87.7138 121.476 87.7581 121.438 87.8015C121.401 87.8448 121.363 87.8872 121.324 87.929C121.285 87.9706 121.245 88.0114 121.204 88.0513C121.164 88.0909 121.122 88.1299 121.08 88.1679C121.037 88.2056 120.994 88.2425 120.951 88.2786C120.907 88.3143 120.862 88.3492 120.817 88.3832C120.772 88.417 120.726 88.4499 120.679 88.4816C120.633 88.5133 120.585 88.544 120.538 88.5737C120.49 88.6033 120.441 88.6318 120.392 88.6591C120.343 88.6865 120.294 88.7127 120.244 88.7377C120.193 88.7628 120.143 88.7867 120.092 88.8095C120.041 88.8321 119.989 88.8536 119.937 88.8741C119.885 88.8944 119.833 88.9136 119.78 88.9316C119.728 88.9495 119.674 88.9664 119.621 88.9819C119.568 88.9975 119.514 89.0118 119.46 89.0249C119.406 89.0378 119.352 89.0495 119.297 89.0602L118.608 89.1251L57.3911 89.1251C57.3357 89.1251 57.2803 89.1238 57.225 89.1213C57.1696 89.1187 57.1144 89.1149 57.0591 89.1099C57.0039 89.1048 56.9488 89.0985 56.8939 89.0909C56.8389 89.0834 56.7842 89.0744 56.7297 89.0644C56.675 89.0541 56.6206 89.0427 56.5666 89.0302C56.5125 89.0175 56.4585 89.0036 56.405 88.9886C56.3514 88.9734 56.2981 88.9571 56.2454 88.9396C56.1925 88.9219 56.14 88.9031 56.088 88.8834C56.0358 88.8633 55.9841 88.8422 55.933 88.82C55.8817 88.7976 55.8309 88.774 55.7807 88.7493C55.7303 88.7246 55.6807 88.6988 55.6315 88.6718C55.5822 88.6449 55.5336 88.6168 55.4855 88.5877C55.4375 88.5585 55.3899 88.5281 55.3433 88.4968C55.2963 88.4652 55.2502 88.4328 55.2048 88.3993C55.1593 88.3659 55.1145 88.3314 55.0705 88.2958C55.0264 88.2601 54.983 88.2237 54.9405 88.1861C54.8978 88.1485 54.856 88.1099 54.8151 88.0704C54.7741 88.0309 54.7339 87.9907 54.6946 87.9493C54.6551 87.9079 54.6168 87.8657 54.5793 87.8226C54.5416 87.7795 54.5049 87.7356 54.4692 87.6908C54.4333 87.646 54.3985 87.6004 54.3646 87.5541C54.3305 87.5076 54.2977 87.4605 54.2658 87.4126C54.2337 87.3646 54.2027 87.316 54.1727 87.2668C54.1428 87.2174 54.1139 87.1673 54.0859 87.1168C54.0579 87.0661 54.031 87.0148 54.0052 86.963C53.9794 86.9109 53.9546 86.8585 53.9309 86.8055C53.9073 86.7524 53.8847 86.6988 53.8632 86.6447C53.8416 86.5906 53.8212 86.5361 53.802 86.4812C53.7826 86.4261 53.7645 86.3707 53.7477 86.3148C53.7306 86.259 53.7148 86.2028 53.7003 86.1462C53.6856 86.0896 53.672 86.0327 53.6598 85.9755C53.6474 85.9181 53.6363 85.8608 53.6262 85.8031L53.5651 85.0739L53.5651 4.05115C53.5651 3.99247 53.5662 3.93383 53.5687 3.87521C53.571 3.81659 53.5746 3.75806 53.5794 3.69959C53.5841 3.64114 53.5902 3.58282 53.5974 3.52466C53.6045 3.46648 53.6128 3.40848 53.6225 3.35069C53.632 3.29291 53.6427 3.23535 53.6548 3.17806C53.6666 3.12077 53.6797 3.06376 53.694 3.00708C53.7082 2.95039 53.7236 2.89405 53.7403 2.83805C53.7568 2.78207 53.7744 2.72648 53.7934 2.67132C53.8122 2.61615 53.8321 2.56144 53.8533 2.50719C53.8745 2.45294 53.8967 2.39918 53.92 2.34595C53.9433 2.29272 53.9677 2.24006 53.9932 2.18796C54.0186 2.13585 54.045 2.08435 54.0726 2.03346C54.1003 1.98256 54.1288 1.93234 54.1585 1.88275C54.1881 1.83319 54.2188 1.78432 54.2504 1.73615C54.2819 1.68799 54.3146 1.64058 54.3483 1.59392C54.3818 1.54726 54.4164 1.50139 54.452 1.45632C54.4873 1.41125 54.5237 1.36701 54.561 1.3236C54.5983 1.2802 54.6365 1.23769 54.6756 1.19605C54.7145 1.1544 54.7543 1.11367 54.795 1.07387C54.8358 1.03405 54.8774 0.995193 54.9197 0.95729C54.962 0.9194 55.0051 0.882489 55.0488 0.846561C55.0926 0.810646 55.1371 0.775754 55.1824 0.74189C55.2276 0.708012 55.2735 0.675192 55.3202 0.643428C55.3668 0.611677 55.414 0.581009 55.4619 0.551423C55.5096 0.521837 55.558 0.493366 55.6071 0.466007C55.6561 0.438649 55.7056 0.412432 55.7558 0.387352C55.8058 0.362272 55.8564 0.338358 55.9075 0.315609C55.9585 0.292859 56.0101 0.271293 56.0621 0.250911C56.1141 0.230529 56.1665 0.211355 56.2192 0.193391C56.272 0.175414 56.3251 0.158659 56.3785 0.143125C56.4319 0.127605 56.4856 0.113312 56.5397 0.100247C56.5935 0.0871944 56.6479 0.0753893 56.7024 0.0648308L57.3911 0L103.304 0L103.304 1.91965e-05ZM101.72 8.10228L61.2173 8.10228L61.2173 81.0228L114.782 81.0228L114.782 21.9329L101.72 8.10228ZM103.304 64.8183C103.363 64.8181 103.422 64.8195 103.481 64.8223C103.54 64.825 103.599 64.8293 103.658 64.835C103.717 64.8405 103.775 64.8475 103.834 64.8563C103.892 64.8646 103.951 64.8747 104.009 64.8863C104.067 64.8977 104.125 64.9104 104.182 64.9247C104.24 64.9389 104.297 64.9545 104.354 64.9716C104.411 64.9886 104.467 65.0071 104.523 65.027C104.579 65.0468 104.635 65.0678 104.69 65.0904C104.745 65.1128 104.8 65.1368 104.854 65.1622C104.908 65.1873 104.961 65.2139 105.014 65.2418C105.067 65.2695 105.119 65.2987 105.171 65.3291C105.223 65.3595 105.274 65.391 105.324 65.4241C105.374 65.4569 105.423 65.4911 105.472 65.5264C105.521 65.5618 105.569 65.5982 105.616 65.636C105.663 65.6736 105.71 65.7125 105.755 65.7524C105.8 65.7923 105.845 65.8335 105.889 65.8757C105.932 65.9178 105.975 65.9609 106.017 66.0052C106.059 66.0494 106.099 66.0946 106.139 66.1409C106.179 66.1871 106.218 66.2344 106.255 66.2826C106.293 66.3307 106.33 66.3796 106.365 66.4296C106.401 66.4795 106.436 66.5304 106.469 66.5821C106.502 66.6337 106.534 66.6861 106.566 66.7393C106.597 66.7925 106.627 66.8464 106.655 66.9011C106.684 66.9558 106.711 67.011 106.738 67.0673C106.764 67.1231 106.789 67.1797 106.813 67.237C106.837 67.2944 106.859 67.3521 106.881 67.4106C106.902 67.4689 106.922 67.5278 106.94 67.587C106.959 67.6463 106.976 67.7061 106.993 67.7665C107.009 67.8265 107.023 67.887 107.037 67.948C107.05 68.0088 107.062 68.0701 107.073 68.1316C107.084 68.1932 107.093 68.2549 107.101 68.317C107.109 68.3789 107.116 68.441 107.122 68.5033C107.127 68.5655 107.131 68.628 107.133 68.6905C107.136 68.753 107.137 68.8155 107.137 68.8781C107.137 68.9406 107.136 69.0031 107.133 69.0657C107.13 69.128 107.125 69.1905 107.12 69.2528C107.114 69.3151 107.107 69.3772 107.099 69.4391C107.091 69.501 107.081 69.5627 107.07 69.6242C107.059 69.6857 107.047 69.7469 107.033 69.8077C107.019 69.8684 107.004 69.929 106.988 69.9892C106.972 70.0492 106.954 70.109 106.935 70.1683C106.916 70.2275 106.896 70.2862 106.874 70.3445C106.853 70.4026 106.83 70.4603 106.806 70.5177C106.782 70.5747 106.757 70.6312 106.73 70.6873C106.704 70.7431 106.676 70.7982 106.647 70.8529C106.618 70.9074 106.588 70.9611 106.557 71.0143C106.526 71.0672 106.493 71.1195 106.46 71.1711C106.426 71.2226 106.391 71.2733 106.356 71.323C106.32 71.3728 106.283 71.4216 106.245 71.4696C106.207 71.5175 106.168 71.5646 106.128 71.6107C106.088 71.6567 106.047 71.7017 106.005 71.7458C105.963 71.7898 105.92 71.8327 105.877 71.8749C105.833 71.9167 105.788 71.9575 105.742 71.9974C105.697 72.0371 105.65 72.0756 105.603 72.1132C105.556 72.1506 105.507 72.1869 105.459 72.222C105.41 72.2571 105.36 72.2911 105.31 72.3238C105.259 72.3565 105.208 72.3878 105.157 72.418C105.105 72.4482 105.052 72.477 104.999 72.5048C104.946 72.5323 104.893 72.5585 104.839 72.5836C104.784 72.6085 104.73 72.6322 104.675 72.6546C104.619 72.6768 104.564 72.6977 104.508 72.7173C104.451 72.7368 104.395 72.7551 104.338 72.7718C104.281 72.7885 104.224 72.8039 104.166 72.8179C104.109 72.832 104.051 72.8445 103.993 72.8557L103.304 72.9205L72.6955 72.9205C72.6363 72.9205 72.5771 72.9191 72.5183 72.9165C72.4591 72.9136 72.4003 72.9094 72.3415 72.9039C72.2826 72.8982 72.2238 72.891 72.1654 72.8825C72.1069 72.8739 72.0486 72.8641 71.9905 72.8527C71.9324 72.8411 71.8745 72.8282 71.8171 72.8141C71.7595 72.7997 71.7023 72.7841 71.6454 72.7672C71.5886 72.7501 71.5321 72.7315 71.4761 72.7118C71.4202 72.692 71.3646 72.6707 71.3095 72.6483C71.2543 72.6257 71.1997 72.6018 71.1458 72.5766C71.0916 72.5513 71.038 72.5247 70.9852 72.497C70.9322 72.4691 70.88 72.44 70.8285 72.4096C70.7768 72.3792 70.7259 72.3475 70.6757 72.3147C70.6253 72.2816 70.5758 72.2477 70.5272 72.2123C70.4784 72.177 70.4303 72.1404 70.3832 72.1028C70.336 72.065 70.2897 72.0262 70.2444 71.9864C70.1988 71.9463 70.1543 71.9053 70.1106 71.8631C70.0668 71.821 70.0241 71.7777 69.9825 71.7336C69.9407 71.6892 69.9 71.644 69.8602 71.5978C69.8204 71.5515 69.7815 71.5044 69.7438 71.4562C69.7061 71.4079 69.6694 71.3589 69.6339 71.3092C69.5984 71.259 69.5639 71.2083 69.5306 71.1567C69.4972 71.105 69.4649 71.0526 69.4339 70.9995C69.4027 70.9463 69.3729 70.8924 69.3442 70.8377C69.3155 70.783 69.2879 70.7275 69.2617 70.6715C69.2354 70.6155 69.2102 70.5589 69.1866 70.5017C69.1627 70.4444 69.1401 70.3865 69.119 70.3282C69.0976 70.2697 69.0777 70.211 69.0591 70.1518C69.0402 70.0923 69.0228 70.0325 69.0069 69.9725C68.9907 69.9121 68.9758 69.8515 68.9626 69.7908C68.9491 69.7298 68.9371 69.6687 68.9263 69.6071C68.9156 69.5456 68.9061 69.4837 68.898 69.4218C68.8899 69.3599 68.8833 69.2978 68.8779 69.2355C68.8725 69.173 68.8686 69.1105 68.8661 69.0483C68.8634 68.9856 68.8621 68.9231 68.8623 68.8606C68.8623 68.798 68.8639 68.7355 68.8668 68.673C68.8697 68.6105 68.8738 68.5483 68.8795 68.486C68.8849 68.4237 68.8919 68.3616 68.9003 68.2997C68.9086 68.2376 68.9183 68.1759 68.9294 68.1145C68.9403 68.053 68.9527 67.9919 68.9663 67.9311C68.98 67.8701 68.9949 67.8096 69.0114 67.7496C69.0277 67.6894 69.0452 67.6297 69.0643 67.5705C69.0831 67.5112 69.1034 67.4524 69.1249 67.3943C69.1464 67.336 69.1692 67.2782 69.1932 67.2211C69.2172 67.1639 69.2425 67.1073 69.2691 67.0515C69.2956 66.9957 69.3232 66.9404 69.3523 66.8859C69.3812 66.8312 69.4113 66.7775 69.4425 66.7245C69.4737 66.6713 69.5062 66.6191 69.5399 66.5676C69.5734 66.516 69.608 66.4655 69.6439 66.4157C69.6796 66.366 69.7164 66.317 69.7544 66.2691C69.7924 66.2211 69.8313 66.174 69.8713 66.128C69.9111 66.0819 69.9522 66.0369 69.9942 65.9928C70.0361 65.9488 70.079 65.9058 70.1229 65.8639C70.1667 65.8219 70.2114 65.7811 70.2571 65.7414C70.3027 65.7015 70.3491 65.663 70.3964 65.6256C70.4438 65.588 70.4919 65.5517 70.5408 65.5166C70.5896 65.4814 70.6393 65.4476 70.6897 65.415C70.7399 65.3823 70.791 65.3508 70.8428 65.3206C70.8945 65.2904 70.9469 65.2615 71 65.234C71.053 65.2063 71.1067 65.1801 71.1608 65.1552C71.215 65.1301 71.2697 65.1064 71.3249 65.0842C71.38 65.0618 71.4356 65.0409 71.4919 65.0215C71.5479 65.0017 71.6044 64.9837 71.6614 64.967C71.7182 64.9501 71.7755 64.9347 71.8332 64.9207C71.8906 64.9066 71.9485 64.8941 72.0068 64.8831L72.6955 64.8183L103.304 64.8183ZM103.304 48.6136C103.363 48.6134 103.422 48.6148 103.481 48.6176C103.54 48.6203 103.599 48.6246 103.658 48.6303C103.717 48.636 103.775 48.6431 103.834 48.6516C103.892 48.6602 103.951 48.6702 104.009 48.6816C104.067 48.693 104.125 48.7057 104.182 48.7202C104.24 48.7342 104.297 48.75 104.354 48.7671C104.411 48.7842 104.467 48.8026 104.523 48.8223C104.579 48.8421 104.635 48.8633 104.69 48.8859C104.745 48.9084 104.8 48.9323 104.854 48.9575C104.908 48.9826 104.961 49.0092 105.014 49.0371C105.067 49.0648 105.119 49.0941 105.171 49.1246C105.223 49.155 105.274 49.1866 105.324 49.2196C105.374 49.2524 105.423 49.2866 105.472 49.322C105.521 49.3573 105.569 49.3937 105.616 49.4315C105.663 49.4691 105.71 49.5079 105.755 49.5479C105.8 49.5878 105.845 49.629 105.889 49.6712C105.932 49.7133 105.975 49.7564 106.017 49.8007C106.059 49.8447 106.099 49.8901 106.139 49.9365C106.179 49.9826 106.218 50.0297 106.255 50.0779C106.293 50.1262 106.33 50.1752 106.365 50.2251C106.401 50.275 106.436 50.3257 106.469 50.3774C106.502 50.4291 106.534 50.4815 106.566 50.5348C106.597 50.588 106.627 50.6419 106.655 50.6966C106.684 50.7513 106.711 50.8066 106.738 50.8626C106.764 50.9186 106.789 50.9752 106.813 51.0325C106.837 51.0897 106.859 51.1474 106.881 51.2059C106.902 51.2642 106.922 51.3231 106.94 51.3825C106.959 51.4418 106.976 51.5016 106.993 51.5618C107.009 51.622 107.023 51.6826 107.037 51.7435C107.05 51.8043 107.062 51.8656 107.073 51.9271C107.084 51.9887 107.093 52.0504 107.101 52.1123C107.109 52.1742 107.116 52.2365 107.122 52.2988C107.127 52.3611 107.131 52.4234 107.133 52.486C107.136 52.5485 107.137 52.611 107.137 52.6736C107.137 52.7361 107.136 52.7986 107.133 52.8611C107.13 52.9235 107.125 52.986 107.12 53.0483C107.114 53.1106 107.107 53.1727 107.099 53.2346C107.091 53.2965 107.081 53.3582 107.07 53.4197C107.059 53.4811 107.047 53.5422 107.033 53.6032C107.019 53.6639 107.004 53.7245 106.988 53.7847C106.972 53.8447 106.954 53.9044 106.935 53.9636C106.916 54.0229 106.896 54.0815 106.874 54.14C106.853 54.1981 106.83 54.2559 106.806 54.313C106.782 54.3702 106.757 54.4268 106.73 54.4826C106.704 54.5384 106.676 54.5937 106.647 54.6484C106.618 54.7029 106.588 54.7566 106.557 54.8098C106.526 54.8628 106.493 54.915 106.46 54.9666C106.426 55.0179 106.391 55.0686 106.356 55.1186C106.32 55.1683 106.283 55.2171 106.245 55.2652C106.207 55.313 106.168 55.3601 106.128 55.4061C106.088 55.452 106.047 55.4972 106.005 55.5413C105.963 55.5853 105.92 55.6282 105.877 55.6702C105.833 55.7122 105.788 55.753 105.742 55.7929C105.697 55.8326 105.65 55.8711 105.603 55.9087C105.556 55.9461 105.507 55.9824 105.459 56.0175C105.41 56.0525 105.36 56.0865 105.31 56.1193C105.259 56.152 105.208 56.1833 105.157 56.2135C105.105 56.2435 105.052 56.2726 104.999 56.3003C104.946 56.3278 104.893 56.354 104.839 56.3791C104.784 56.404 104.73 56.4275 104.675 56.4499C104.619 56.4721 104.564 56.493 104.508 56.5128C104.451 56.5322 104.395 56.5504 104.338 56.5673C104.281 56.584 104.224 56.5994 104.166 56.6134C104.109 56.6275 104.051 56.64 103.993 56.6512L103.304 56.716L72.6955 56.716C72.6363 56.716 72.5771 56.7146 72.5183 56.712C72.4591 56.7091 72.4003 56.705 72.3415 56.6993C72.2826 56.6936 72.2238 56.6863 72.1654 56.678C72.1069 56.6693 72.0486 56.6594 71.9905 56.648C71.9324 56.6366 71.8745 56.6237 71.8171 56.6094C71.7595 56.5952 71.7023 56.5796 71.6456 56.5625C71.5886 56.5454 71.5321 56.527 71.4761 56.5073C71.4202 56.4873 71.3646 56.4661 71.3095 56.4437C71.2543 56.4211 71.1997 56.3971 71.1458 56.3721C71.0916 56.3468 71.038 56.3202 70.9852 56.2925C70.9323 56.2646 70.8801 56.2355 70.8285 56.2051C70.7768 56.1746 70.7259 56.1429 70.6757 56.11C70.6253 56.077 70.5758 56.043 70.5272 56.0077C70.4784 55.9723 70.4303 55.9359 70.3834 55.8983C70.336 55.8605 70.2897 55.8216 70.2444 55.7817C70.1988 55.7416 70.1543 55.7006 70.1107 55.6586C70.067 55.6165 70.0241 55.5732 69.9825 55.5289C69.9407 55.4847 69.9 55.4395 69.8602 55.3933C69.8204 55.347 69.7816 55.2997 69.744 55.2517C69.7061 55.2034 69.6696 55.1544 69.634 55.1045C69.5984 55.0546 69.5639 55.0039 69.5306 54.9522C69.4972 54.9006 69.4649 54.8481 69.4339 54.795C69.4027 54.7416 69.3729 54.6877 69.3442 54.633C69.3155 54.5783 69.2879 54.523 69.2617 54.467C69.2354 54.4108 69.2102 54.3542 69.1866 54.2971C69.1627 54.2397 69.1401 54.182 69.119 54.1237C69.0976 54.0652 69.0777 54.0063 69.0591 53.9471C69.0404 53.8878 69.023 53.828 69.0069 53.7678C68.9907 53.7076 68.976 53.647 68.9626 53.5861C68.9491 53.5251 68.9371 53.464 68.9263 53.4025C68.9156 53.3409 68.9061 53.2792 68.898 53.2173C68.8899 53.1552 68.8833 53.0931 68.8779 53.0308C68.8725 52.9685 68.8686 52.9061 68.8661 52.8436C68.8634 52.7811 68.8621 52.7186 68.8623 52.6562C68.8623 52.5935 68.8639 52.531 68.8668 52.4685C68.8697 52.4059 68.8738 52.3436 68.8795 52.2815C68.8851 52.2192 68.8921 52.1569 68.9003 52.095C68.9086 52.0331 68.9183 51.9714 68.9294 51.9101C68.9403 51.8485 68.9527 51.7872 68.9663 51.7264C68.98 51.6657 68.995 51.6051 69.0114 51.5451C69.0277 51.4849 69.0452 51.4253 69.0643 51.366C69.0833 51.3068 69.1035 51.2479 69.1251 51.1898C69.1466 51.1313 69.1694 51.0736 69.1934 51.0166C69.2174 50.9594 69.2425 50.9028 69.2691 50.847C69.2956 50.791 69.3232 50.7357 69.3523 50.6814C69.3812 50.6267 69.4113 50.573 69.4427 50.52C69.4739 50.4668 69.5062 50.4144 69.5399 50.3632C69.5734 50.3115 69.608 50.261 69.6439 50.2112C69.6796 50.1615 69.7164 50.1125 69.7544 50.0646C69.7924 50.0166 69.8313 49.9695 69.8713 49.9235C69.9111 49.8774 69.9522 49.8324 69.9942 49.7883C70.0361 49.7443 70.079 49.7012 70.1229 49.6594C70.1667 49.6174 70.2114 49.5766 70.2571 49.5369C70.3027 49.497 70.3491 49.4585 70.3964 49.4211C70.4438 49.3835 70.4919 49.3472 70.5408 49.3121C70.5896 49.2769 70.6393 49.2431 70.6897 49.2105C70.7399 49.1778 70.791 49.1463 70.8428 49.1161C70.8945 49.0859 70.947 49.057 71.0001 49.0295C71.053 49.0018 71.1067 48.9756 71.1608 48.9505C71.215 48.9254 71.2697 48.9019 71.3249 48.8797C71.38 48.8573 71.4356 48.8364 71.4919 48.8168C71.5479 48.7973 71.6044 48.779 71.6614 48.7623C71.7182 48.7456 71.7755 48.7302 71.8332 48.7162C71.8906 48.7021 71.9485 48.6896 72.0068 48.6786L72.6955 48.6136L103.304 48.6136ZM87.9997 32.4092C88.0587 32.409 88.1177 32.4103 88.1769 32.4131C88.2357 32.4158 88.2948 32.4202 88.3536 32.4259C88.4124 32.4316 88.4711 32.4386 88.5297 32.4471C88.5882 32.4557 88.6465 32.4657 88.7046 32.4771C88.7627 32.4885 88.8204 32.5013 88.878 32.5155C88.9354 32.5297 88.9926 32.5455 89.0496 32.5626C89.1063 32.5795 89.1628 32.5979 89.2189 32.6179C89.2749 32.6376 89.3305 32.6587 89.3857 32.6815C89.4408 32.7039 89.4953 32.7278 89.5495 32.7531C89.6035 32.7781 89.6569 32.8047 89.71 32.8326C89.7627 32.8603 89.8151 32.8896 89.8667 32.92C89.9184 32.9504 89.9693 32.9821 90.0195 33.0149C90.0698 33.0478 90.1193 33.082 90.168 33.1175C90.2168 33.1528 90.2647 33.1893 90.3119 33.2268C90.3589 33.2645 90.4053 33.3034 90.4509 33.3434C90.4962 33.3833 90.5407 33.4243 90.5845 33.4665C90.6281 33.5087 90.6707 33.5518 90.7125 33.5962C90.7543 33.6403 90.7952 33.6855 90.835 33.7318C90.8747 33.7781 90.9134 33.8252 90.9512 33.8735C90.9889 33.9215 91.0255 33.9705 91.0612 34.0206C91.0967 34.0704 91.1313 34.1213 91.1647 34.1729C91.198 34.2246 91.2301 34.277 91.2613 34.3302C91.2922 34.3833 91.3221 34.4373 91.3508 34.4919C91.3795 34.5466 91.407 34.6019 91.4333 34.6581C91.4595 34.7139 91.4846 34.7707 91.5085 34.8281C91.5322 34.8852 91.5547 34.943 91.5761 35.0014C91.5973 35.0597 91.6173 35.1186 91.6362 35.178C91.6548 35.2373 91.6722 35.2969 91.6884 35.3573C91.7043 35.4173 91.719 35.4779 91.7325 35.539C91.7459 35.5998 91.7581 35.6611 91.7689 35.7227C91.7797 35.7842 91.789 35.8459 91.7971 35.9078C91.8051 35.9697 91.8118 36.032 91.8171 36.0943C91.8225 36.1566 91.8265 36.2189 91.8292 36.2813C91.8317 36.3438 91.8329 36.4063 91.8327 36.469C91.8326 36.5314 91.8311 36.5939 91.8283 36.6566C91.8254 36.7191 91.8211 36.7813 91.8157 36.8436C91.81 36.9059 91.8031 36.968 91.7949 37.0301C91.7865 37.092 91.7768 37.1535 91.7658 37.2151C91.7547 37.2766 91.7423 37.3377 91.7287 37.3987C91.7151 37.4595 91.7 37.5199 91.6837 37.58C91.6674 37.6401 91.6498 37.6999 91.6308 37.7591C91.6118 37.8184 91.5917 37.877 91.5702 37.9353C91.5487 37.9936 91.5259 38.0514 91.5018 38.1085C91.4778 38.1655 91.4525 38.2221 91.426 38.2781C91.3994 38.3339 91.3716 38.3892 91.3429 38.4437C91.3139 38.4982 91.2838 38.5519 91.2525 38.6051C91.2212 38.6583 91.1887 38.7105 91.1553 38.762C91.1216 38.8134 91.087 38.8641 91.0513 38.9139C91.0155 38.9636 90.9785 39.0124 90.9407 39.0605C90.9026 39.1083 90.8637 39.1554 90.8239 39.2016C90.7837 39.2475 90.7428 39.2927 90.7009 39.3368C90.6589 39.3808 90.6161 39.4238 90.5723 39.4657C90.5283 39.5075 90.4837 39.5483 90.4381 39.5882C90.3924 39.6279 90.3459 39.6664 90.2988 39.704C90.2514 39.7415 90.2032 39.7777 90.1544 39.813C90.1054 39.848 90.0558 39.882 90.0055 39.9146C89.955 39.9473 89.9039 39.9786 89.8522 40.009C89.8004 40.039 89.748 40.0679 89.6951 40.0956C89.642 40.1231 89.5886 40.1495 89.5344 40.1746C89.4802 40.1995 89.4255 40.223 89.3703 40.2454C89.3151 40.2677 89.2593 40.2886 89.2033 40.3083C89.147 40.3277 89.0905 40.3459 89.0338 40.3628C88.9768 40.3795 88.9194 40.3949 88.862 40.4089C88.8043 40.4228 88.7465 40.4353 88.6884 40.4465L87.9997 40.5115L72.6955 40.5115C72.6363 40.5115 72.5771 40.5102 72.5183 40.5075C72.4591 40.5047 72.4003 40.5005 72.3415 40.4948C72.2826 40.4891 72.2238 40.4819 72.1654 40.4733C72.1069 40.4648 72.0486 40.4549 71.9905 40.4435C71.9324 40.4321 71.8745 40.4192 71.8171 40.405C71.7595 40.3907 71.7023 40.3751 71.6454 40.3581C71.5886 40.341 71.5321 40.3225 71.4761 40.3028C71.4202 40.2829 71.3646 40.2616 71.3095 40.2392C71.2543 40.2166 71.1997 40.1927 71.1458 40.1676C71.0916 40.1421 71.038 40.1157 70.9852 40.088C70.9322 40.0601 70.88 40.0309 70.8285 40.0005C70.7768 39.9701 70.7259 39.9384 70.6757 39.9055C70.6253 39.8725 70.5758 39.8385 70.5272 39.8032C70.4784 39.7679 70.4303 39.7312 70.3832 39.6936C70.336 39.656 70.2897 39.6171 70.2444 39.5772C70.1988 39.5371 70.1543 39.4961 70.1107 39.454C70.067 39.4118 70.0241 39.3685 69.9825 39.3244C69.9407 39.28 69.9 39.2348 69.8602 39.1887C69.8204 39.1423 69.7816 39.0952 69.744 39.0472C69.7061 38.999 69.6694 38.9498 69.6339 38.9C69.5984 38.8499 69.5639 38.7992 69.5306 38.7477C69.4972 38.6961 69.4649 38.6435 69.4339 38.5903C69.4027 38.5371 69.3729 38.4832 69.3442 38.4285C69.3155 38.3738 69.2879 38.3184 69.2617 38.2625C69.2354 38.2063 69.2102 38.1497 69.1866 38.0926C69.1627 38.0352 69.1401 37.9775 69.119 37.9192C69.0976 37.8607 69.0777 37.8018 69.0591 37.7426C69.0402 37.6832 69.0228 37.6233 69.0069 37.5633C68.9907 37.503 68.9758 37.4424 68.9626 37.3816C68.9491 37.3207 68.9371 37.2595 68.9263 37.198C68.9156 37.1365 68.9061 37.0747 68.898 37.0128C68.8899 36.9507 68.8833 36.8886 68.8779 36.8263C68.8725 36.7641 68.8686 36.7016 68.8661 36.6391C68.8634 36.5764 68.8621 36.514 68.8623 36.4515C68.8623 36.3888 68.8639 36.3264 68.8668 36.2641C68.8697 36.2014 68.8738 36.1391 68.8795 36.0768C68.8851 36.0145 68.8921 35.9524 68.9003 35.8905C68.9086 35.8286 68.9183 35.7669 68.9294 35.7054C68.9403 35.6439 68.9527 35.5827 68.9663 35.5219C68.98 35.461 68.995 35.4006 69.0114 35.3406C69.0277 35.2804 69.0452 35.2208 69.0643 35.1615C69.0833 35.1021 69.1035 35.0432 69.1251 34.9851C69.1464 34.9268 69.1692 34.8691 69.1934 34.8121C69.2174 34.7548 69.2425 34.6984 69.2691 34.6425C69.2956 34.5865 69.3232 34.5313 69.3523 34.4768C69.3812 34.4221 69.4113 34.3683 69.4427 34.3153C69.4739 34.2622 69.5062 34.2099 69.5399 34.1585C69.5734 34.107 69.608 34.0565 69.6439 34.0068C69.6796 33.9568 69.7164 33.9078 69.7544 33.86C69.7924 33.8119 69.8313 33.765 69.8713 33.7191C69.9111 33.6729 69.9522 33.6279 69.9942 33.5839C70.0361 33.5398 70.079 33.4967 70.1229 33.4549C70.1667 33.4128 70.2114 33.3719 70.2571 33.3322C70.3027 33.2924 70.3491 33.2538 70.3964 33.2164C70.4438 33.1788 70.4919 33.1425 70.5408 33.1076C70.5896 33.0723 70.6393 33.0385 70.6897 33.0058C70.7399 32.9731 70.791 32.9416 70.8428 32.9116C70.8945 32.8812 70.947 32.8524 71.0001 32.8248C71.053 32.7971 71.1067 32.7709 71.1608 32.746C71.215 32.721 71.2697 32.6974 71.3249 32.6752C71.38 32.6528 71.4356 32.6319 71.4919 32.6123C71.5479 32.5928 71.6044 32.5746 71.6614 32.5578C71.7182 32.5409 71.7755 32.5256 71.8332 32.5117C71.8906 32.4976 71.9485 32.4849 72.0068 32.4739L72.6955 32.4092L87.9997 32.4092Z"></path><defs><linearGradient id="linear_0" x1="-9.689219124001385e-14%" y1="50%" x2="100.00000000000009%" y2="50%" gradientUnits="objectBoundingBox"><stop offset="0" stop-color="#1F4799" stop-opacity="0.5" /><stop offset="1" stop-color="#3A9CDE" stop-opacity="0.5" /></linearGradient></defs></svg>