<svg xmlns="http://www.w3.org/2000/svg" xmlns:xlink="http://www.w3.org/1999/xlink" width="176" height="181.86676025390625" viewBox="0 0 176 181.86676025390625" fill="none"><path id="路径 1" fill-rule="evenodd" fill="url(#linear_0)" opacity="1" d="M140.767 96.6509C144.051 98.8755 147.999 100.998 152.608 103.007C157.488 105.134 163.454 107.283 170.49 109.441C170.587 109.47 170.682 109.502 170.777 109.534C170.873 109.567 170.967 109.602 171.06 109.638C171.154 109.675 171.247 109.713 171.339 109.752C171.431 109.792 171.523 109.833 171.613 109.876C171.703 109.919 171.793 109.963 171.882 110.009C171.97 110.055 172.058 110.103 172.145 110.152C172.231 110.201 172.317 110.252 172.402 110.304C172.486 110.356 172.57 110.41 172.652 110.465C172.735 110.521 172.816 110.577 172.896 110.635C172.977 110.693 173.056 110.753 173.133 110.814C173.211 110.875 173.288 110.937 173.363 111.001C173.438 111.064 173.512 111.129 173.584 111.195C173.657 111.262 173.728 111.329 173.798 111.398C173.868 111.467 173.936 111.537 174.003 111.608C174.07 111.679 174.136 111.751 174.2 111.825C174.264 111.899 174.327 111.973 174.388 112.049C174.449 112.125 174.508 112.202 174.566 112.28C174.624 112.358 174.68 112.437 174.735 112.516C174.79 112.596 174.843 112.677 174.894 112.759C174.946 112.841 174.996 112.923 175.044 113.007C175.092 113.09 175.138 113.175 175.183 113.26C175.227 113.345 175.27 113.431 175.311 113.518C175.352 113.605 175.392 113.692 175.429 113.78C175.467 113.868 175.503 113.957 175.537 114.047C175.571 114.136 175.603 114.226 175.633 114.317C175.664 114.407 175.692 114.498 175.719 114.59C175.745 114.681 175.77 114.773 175.793 114.866C175.816 114.958 175.837 115.051 175.856 115.144C175.875 115.238 175.892 115.331 175.908 115.425C175.923 115.519 175.937 115.613 175.948 115.707C175.96 115.801 175.969 115.896 175.977 115.991C175.985 116.085 175.99 116.18 175.994 116.275L176 116.559L176 156.918C176 156.994 175.999 157.07 175.996 157.146C175.994 157.222 175.99 157.299 175.985 157.375C175.98 157.451 175.974 157.527 175.966 157.603C175.959 157.678 175.95 157.754 175.94 157.83C175.93 157.906 175.919 157.981 175.907 158.056C175.895 158.132 175.881 158.207 175.866 158.282C175.851 158.357 175.835 158.431 175.818 158.506C175.801 158.58 175.782 158.655 175.762 158.729C175.743 158.803 175.722 158.876 175.7 158.95C175.678 159.023 175.654 159.096 175.63 159.169C175.606 159.241 175.58 159.314 175.553 159.386C175.526 159.458 175.498 159.529 175.469 159.6C175.44 159.672 175.41 159.742 175.378 159.813C175.347 159.883 175.314 159.953 175.28 160.022C175.246 160.091 175.212 160.16 175.176 160.229C175.14 160.297 175.102 160.365 175.064 160.432C175.026 160.499 174.987 160.566 174.946 160.632C174.906 160.699 174.865 160.764 174.822 160.829C174.779 160.894 174.736 160.958 174.691 161.022C174.647 161.086 174.601 161.149 174.554 161.212C174.508 161.274 174.46 161.336 174.411 161.397C174.363 161.458 174.313 161.518 174.262 161.578C174.212 161.638 174.16 161.697 174.107 161.755C174.055 161.813 174.001 161.871 173.947 161.927C173.892 161.984 173.837 162.04 173.781 162.095C173.725 162.15 173.667 162.204 173.609 162.258C173.551 162.311 173.492 162.364 173.433 162.415C173.373 162.467 173.312 162.518 173.251 162.568C173.19 162.618 173.127 162.667 173.064 162.715C173.001 162.764 172.937 162.811 172.873 162.857C172.808 162.904 172.743 162.949 172.677 162.994C172.611 163.038 172.544 163.082 172.477 163.125L172.219 163.281L143.835 179.775C143.693 179.858 143.549 179.938 143.403 180.017C143.258 180.095 143.111 180.171 142.963 180.244C142.815 180.318 142.665 180.389 142.515 180.458C142.364 180.527 142.212 180.593 142.058 180.658C141.905 180.722 141.751 180.783 141.596 180.842C141.44 180.901 141.284 180.958 141.126 181.012C140.969 181.067 140.81 181.118 140.651 181.167C140.492 181.217 140.332 181.263 140.171 181.307C140.01 181.351 139.848 181.393 139.685 181.432C139.523 181.471 139.36 181.507 139.196 181.541C139.032 181.575 138.868 181.606 138.703 181.635C138.538 181.663 138.372 181.689 138.206 181.713C138.04 181.736 137.874 181.756 137.707 181.775C137.541 181.793 137.374 181.808 137.207 181.821C137.04 181.834 136.872 181.844 136.704 181.851C136.537 181.858 136.369 181.863 136.202 181.866C136.034 181.868 135.866 181.867 135.698 181.864C135.531 181.861 135.363 181.855 135.195 181.846C135.028 181.838 134.861 181.827 134.694 181.813C134.526 181.799 134.36 181.783 134.193 181.764C134.027 181.745 133.86 181.723 133.695 181.698C133.529 181.674 133.364 181.647 133.199 181.617C133.034 181.588 132.87 181.556 132.706 181.521C132.543 181.486 132.38 181.448 132.218 181.408C132.055 181.369 131.894 181.326 131.733 181.281C131.573 181.236 131.413 181.188 131.254 181.138C131.095 181.088 130.937 181.035 130.78 180.98C130.623 180.925 130.467 180.867 130.312 180.807C130.156 180.747 130.003 180.684 129.85 180.619C129.697 180.554 129.546 180.487 129.396 180.417C129.245 180.347 129.096 180.275 128.948 180.2C128.801 180.126 128.655 180.049 128.51 179.97L128.165 179.775L99.7806 163.281C99.7114 163.241 99.6429 163.199 99.575 163.157C99.5071 163.115 99.44 163.072 99.3737 163.028C99.3071 162.984 99.2415 162.939 99.1766 162.893C99.1116 162.847 99.0473 162.8 98.9839 162.752C98.9205 162.704 98.8578 162.656 98.796 162.606C98.7342 162.557 98.673 162.506 98.6129 162.455C98.5527 162.403 98.4933 162.351 98.4348 162.298C98.3763 162.245 98.3187 162.191 98.2621 162.137C98.2054 162.082 98.1496 162.026 98.0944 161.97C98.0395 161.914 97.9855 161.857 97.9326 161.799C97.8795 161.741 97.8272 161.683 97.7761 161.623C97.725 161.564 97.6748 161.504 97.6257 161.443C97.5763 161.383 97.5281 161.321 97.481 161.259C97.4339 161.197 97.3877 161.134 97.3424 161.071C97.2973 161.007 97.2531 160.943 97.21 160.878C97.167 160.814 97.125 160.748 97.0842 160.682C97.0433 160.617 97.0033 160.55 96.9645 160.483C96.9259 160.416 96.8882 160.348 96.8516 160.28C96.815 160.212 96.7795 160.144 96.7453 160.074C96.7109 160.005 96.6777 159.936 96.6458 159.866C96.6136 159.796 96.5828 159.725 96.5531 159.654C96.5234 159.583 96.4946 159.512 96.4672 159.44C96.4397 159.368 96.4136 159.296 96.3884 159.224C96.3634 159.151 96.3395 159.078 96.317 159.005C96.2942 158.932 96.2728 158.858 96.2525 158.784C96.2321 158.71 96.2129 158.636 96.1951 158.562C96.1772 158.488 96.1605 158.413 96.1451 158.338C96.1297 158.263 96.1154 158.188 96.1025 158.113C96.0895 158.038 96.0777 157.962 96.0672 157.887C96.0567 157.811 96.0473 157.735 96.0393 157.659C96.0312 157.584 96.0243 157.508 96.0188 157.432C96.0132 157.356 96.0087 157.28 96.0058 157.203L96 156.918L96 116.681C96 116.573 96.0025 116.464 96.0076 116.356C96.0127 116.247 96.0201 116.139 96.0301 116.031C96.0402 115.923 96.0529 115.815 96.0679 115.708C96.0828 115.6 96.1004 115.492 96.1205 115.386C96.1406 115.279 96.1632 115.172 96.1882 115.066C96.2132 114.96 96.2406 114.855 96.2705 114.75C96.3004 114.645 96.3328 114.541 96.3674 114.438C96.402 114.334 96.4393 114.231 96.4788 114.129C96.5183 114.027 96.56 113.926 96.6042 113.826C96.6484 113.725 96.6949 113.626 96.7438 113.527C96.7926 113.429 96.8438 113.332 96.8971 113.235C96.9504 113.139 97.0058 113.044 97.0636 112.95C97.1214 112.856 97.1813 112.763 97.2433 112.671C97.3054 112.579 97.3696 112.489 97.4359 112.4C97.5022 112.311 97.5705 112.223 97.6408 112.137C97.7112 112.051 97.7833 111.966 97.8576 111.882C97.9319 111.799 98.008 111.717 98.0862 111.637C98.1643 111.557 98.2442 111.478 98.3259 111.401C98.4076 111.324 98.4911 111.249 98.5763 111.176C98.6614 111.102 98.7482 111.03 98.8368 110.96C98.9254 110.89 99.0156 110.822 99.1074 110.755C99.1991 110.689 99.2922 110.624 99.3868 110.562C99.4817 110.499 99.5777 110.439 99.6752 110.38C99.7728 110.321 99.8717 110.265 99.9716 110.21C100.072 110.155 100.173 110.103 100.276 110.052C100.378 110.002 100.482 109.953 100.587 109.907C100.692 109.861 100.798 109.817 100.905 109.775C101.012 109.733 101.119 109.693 101.228 109.655C101.337 109.618 101.446 109.582 101.557 109.549C101.667 109.516 101.778 109.485 101.89 109.456C102.002 109.428 102.114 109.401 102.227 109.377C102.34 109.353 102.454 109.332 102.568 109.312C107.923 108.401 113.146 106.836 118.248 104.612C122.742 102.654 126.553 100.441 129.658 98.0174L130.199 97.5871L130.741 97.1409C130.825 97.0703 130.911 97.0014 130.998 96.9343C131.085 96.867 131.174 96.8016 131.264 96.7378C131.355 96.6741 131.446 96.6122 131.54 96.5522C131.633 96.4921 131.727 96.4337 131.823 96.3775C131.919 96.3213 132.016 96.2668 132.114 96.2143C132.212 96.1619 132.311 96.1115 132.412 96.063C132.512 96.0143 132.614 95.9679 132.717 95.9234C132.819 95.8789 132.923 95.8365 133.027 95.7961C133.132 95.7558 133.237 95.7173 133.343 95.6812C133.45 95.645 133.557 95.611 133.665 95.579C133.772 95.547 133.881 95.5173 133.99 95.4898C134.099 95.462 134.209 95.4365 134.319 95.4133C134.429 95.3901 134.54 95.369 134.651 95.35C134.763 95.3311 134.874 95.3144 134.986 95.3C135.098 95.2856 135.21 95.2733 135.323 95.2634C135.436 95.2534 135.548 95.2457 135.661 95.24C135.774 95.2346 135.887 95.2312 136 95.2302C136.113 95.2292 136.226 95.2304 136.34 95.234C136.452 95.2373 136.565 95.243 136.678 95.2509C136.791 95.2588 136.903 95.2691 137.016 95.2814C137.128 95.2937 137.24 95.3084 137.352 95.3253C137.463 95.3422 137.574 95.3612 137.685 95.3826C137.796 95.4037 137.906 95.4271 138.016 95.4528C138.125 95.4785 138.235 95.5063 138.343 95.5364C138.452 95.5663 138.559 95.5984 138.666 95.6327C138.773 95.6668 138.879 95.7031 138.985 95.7416C139.09 95.78 139.195 95.8206 139.298 95.8632C139.402 95.9059 139.504 95.9506 139.606 95.9972C139.707 96.0438 139.807 96.0925 139.907 96.1433C140.006 96.1938 140.104 96.2465 140.201 96.301C140.298 96.3556 140.394 96.412 140.488 96.4703C140.582 96.5286 140.675 96.5888 140.767 96.6509ZM82.2857 0C127.331 0 163.835 10.9054 164.56 29.3972L164.571 29.96L164.571 68.48C164.571 87.313 127.786 98.44 82.2857 98.44C55.0696 98.44 30.9714 94.4597 16 87.2297L16 107C16 107.053 16.048 107.196 16.2674 107.521C16.7018 108.163 17.5051 108.944 18.6938 109.794C21.6125 111.88 26.2422 113.954 32.2172 115.761C44.96 119.616 62.4297 121.892 81.2011 121.978L82.2857 121.98L82.2857 136.96C55.0696 136.96 30.9714 132.98 16 125.75L16 145.52C16 145.573 16.048 145.716 16.2674 146.041C16.7018 146.683 17.5051 147.464 18.6938 148.314C21.6125 150.4 26.2422 152.474 32.2172 154.281C44.96 158.136 62.4297 160.412 81.2011 160.498L82.2857 160.5L82.2857 175.48C37.24 175.48 0.735937 164.575 0.0113828 146.083L0 145.52L0 29.96L0.0113828 29.3972C0.735937 10.9054 37.24 0 82.2857 0ZM136.413 109.382L135.878 109.758C132.385 112.172 128.437 114.335 124.038 116.253C122.014 117.138 119.953 117.941 117.857 118.662C115.76 119.384 113.634 120.02 111.48 120.573L110.411 120.838L109.714 121.001L109.714 153.941L135.398 168.866C135.433 168.887 135.469 168.905 135.506 168.922C135.542 168.938 135.58 168.953 135.619 168.966C135.658 168.978 135.697 168.989 135.737 168.998C135.777 169.007 135.817 169.014 135.858 169.019C135.899 169.024 135.94 169.026 135.98 169.027C136.021 169.028 136.062 169.026 136.103 169.023C136.144 169.019 136.185 169.014 136.225 169.006C136.265 168.999 136.305 168.989 136.344 168.978L136.477 168.929L136.602 168.865L162.286 153.941L162.286 120.402L161.128 120.024C156.397 118.464 152.144 116.893 148.367 115.31L147.566 114.969L146.821 114.648C143.502 113.201 140.438 111.682 137.63 110.088L136.704 109.554L136.413 109.382ZM151.406 126.352L158.308 131.964C158.337 131.987 158.365 132.011 158.392 132.035C158.419 132.059 158.445 132.084 158.471 132.109C158.496 132.135 158.521 132.161 158.546 132.187C158.57 132.214 158.594 132.241 158.616 132.269C158.639 132.297 158.662 132.325 158.683 132.353C158.704 132.382 158.725 132.411 158.745 132.441C158.765 132.471 158.784 132.501 158.802 132.531C158.821 132.562 158.838 132.593 158.855 132.624C158.872 132.655 158.887 132.687 158.902 132.719C158.917 132.751 158.932 132.783 158.945 132.816C158.958 132.849 158.971 132.882 158.983 132.915C158.994 132.948 159.005 132.982 159.015 133.016C159.025 133.049 159.033 133.084 159.042 133.118C159.05 133.152 159.057 133.186 159.063 133.221C159.069 133.255 159.075 133.29 159.079 133.325C159.084 133.36 159.087 133.394 159.09 133.429C159.092 133.464 159.094 133.499 159.095 133.534C159.096 133.569 159.096 133.604 159.095 133.639C159.094 133.674 159.092 133.709 159.089 133.744C159.086 133.779 159.082 133.814 159.077 133.849C159.073 133.883 159.067 133.918 159.061 133.952C159.054 133.987 159.047 134.021 159.038 134.055C159.03 134.089 159.021 134.123 159.011 134.157C159.001 134.191 158.99 134.224 158.978 134.258C158.966 134.291 158.953 134.324 158.94 134.356C158.926 134.389 158.912 134.421 158.896 134.453C158.881 134.485 158.865 134.517 158.848 134.548C158.831 134.579 158.814 134.61 158.795 134.64C158.777 134.671 158.757 134.701 158.737 134.73C158.717 134.76 158.696 134.789 158.675 134.817C158.653 134.846 158.631 134.874 158.607 134.902C158.584 134.929 158.56 134.956 158.536 134.983L138.451 156.636C138.428 156.661 138.405 156.685 138.381 156.709C138.356 156.733 138.331 156.756 138.306 156.779C138.281 156.802 138.255 156.824 138.228 156.845C138.202 156.867 138.175 156.888 138.147 156.909C138.12 156.929 138.092 156.949 138.063 156.968C138.035 156.988 138.006 157.006 137.976 157.024C137.947 157.042 137.917 157.059 137.887 157.076C137.857 157.093 137.826 157.109 137.795 157.124C137.764 157.14 137.732 157.154 137.7 157.168C137.669 157.182 137.637 157.196 137.604 157.208C137.572 157.221 137.539 157.233 137.506 157.244C137.473 157.256 137.44 157.266 137.406 157.276C137.373 157.286 137.339 157.295 137.305 157.303C137.271 157.311 137.237 157.319 137.202 157.326C137.168 157.333 137.133 157.339 137.099 157.344C137.064 157.349 137.029 157.354 136.994 157.358C136.959 157.362 136.925 157.365 136.89 157.367C136.854 157.37 136.819 157.371 136.784 157.372C136.749 157.373 136.714 157.373 136.679 157.372C136.644 157.372 136.608 157.37 136.573 157.368C136.538 157.366 136.504 157.363 136.469 157.359C136.433 157.355 136.399 157.351 136.364 157.346C136.329 157.341 136.295 157.335 136.26 157.328C136.226 157.321 136.192 157.314 136.158 157.306C136.124 157.298 136.09 157.289 136.056 157.279C136.023 157.269 135.99 157.259 135.956 157.248C135.923 157.237 135.89 157.225 135.858 157.212C135.825 157.2 135.793 157.187 135.761 157.173C135.729 157.159 135.698 157.145 135.667 157.129C135.636 157.114 135.605 157.098 135.575 157.081C135.544 157.065 135.515 157.048 135.485 157.03C135.455 157.012 135.426 156.993 135.398 156.974L117.874 145.256C117.844 145.235 117.814 145.214 117.785 145.193C117.755 145.171 117.727 145.148 117.698 145.125C117.67 145.102 117.643 145.079 117.616 145.054C117.589 145.03 117.563 145.005 117.537 144.98C117.511 144.954 117.487 144.928 117.462 144.901C117.438 144.875 117.415 144.847 117.392 144.82C117.369 144.792 117.347 144.764 117.325 144.735C117.304 144.706 117.283 144.677 117.264 144.647C117.244 144.617 117.225 144.587 117.207 144.557C117.188 144.526 117.171 144.495 117.154 144.464C117.138 144.432 117.122 144.4 117.107 144.368C117.092 144.336 117.078 144.304 117.065 144.271C117.052 144.238 117.039 144.205 117.028 144.172C117.016 144.139 117.006 144.105 116.996 144.071C116.986 144.037 116.977 144.003 116.969 143.969C116.961 143.935 116.954 143.901 116.948 143.866C116.942 143.832 116.937 143.797 116.932 143.762C116.928 143.727 116.925 143.692 116.922 143.658C116.92 143.623 116.918 143.588 116.917 143.553C116.917 143.518 116.917 143.482 116.918 143.447C116.919 143.413 116.921 143.377 116.925 143.343C116.927 143.308 116.931 143.273 116.936 143.238C116.941 143.203 116.947 143.169 116.953 143.134C116.96 143.1 116.968 143.065 116.976 143.031C116.984 142.997 116.994 142.963 117.004 142.93C117.014 142.896 117.025 142.863 117.037 142.83C117.049 142.796 117.062 142.763 117.076 142.731C117.09 142.698 117.104 142.666 117.119 142.634C117.135 142.602 117.151 142.571 117.168 142.539C117.185 142.508 117.203 142.477 117.222 142.447C117.24 142.417 117.26 142.387 117.28 142.357C117.3 142.328 117.321 142.299 117.343 142.27L122.657 135.305C122.679 135.276 122.701 135.248 122.725 135.221C122.748 135.193 122.772 135.166 122.796 135.14C122.821 135.114 122.846 135.088 122.872 135.063C122.898 135.037 122.925 135.013 122.952 134.989C122.979 134.965 123.007 134.942 123.036 134.919C123.064 134.896 123.093 134.874 123.123 134.853C123.153 134.831 123.183 134.811 123.213 134.791C123.244 134.771 123.275 134.752 123.307 134.733C123.339 134.714 123.371 134.697 123.404 134.68C123.436 134.663 123.469 134.646 123.503 134.631C123.537 134.615 123.571 134.6 123.605 134.586C123.639 134.572 123.674 134.559 123.709 134.547C123.744 134.535 123.779 134.523 123.815 134.512C123.85 134.501 123.886 134.491 123.922 134.482C123.958 134.473 123.995 134.465 124.031 134.457C124.068 134.45 124.104 134.443 124.141 134.438C124.178 134.432 124.215 134.427 124.252 134.423C124.29 134.419 124.327 134.416 124.364 134.413C124.402 134.411 124.439 134.41 124.476 134.409C124.514 134.408 124.551 134.408 124.588 134.41C124.626 134.411 124.663 134.413 124.7 134.415C124.738 134.418 124.775 134.422 124.812 134.426C124.849 134.431 124.886 134.436 124.923 134.443C124.96 134.449 124.996 134.456 125.033 134.464C125.069 134.472 125.106 134.48 125.142 134.49C125.177 134.499 125.213 134.51 125.249 134.521C125.284 134.532 125.319 134.544 125.354 134.557C125.389 134.57 125.423 134.584 125.457 134.598C125.492 134.612 125.525 134.628 125.558 134.643C125.592 134.659 125.625 134.676 125.657 134.694C125.689 134.711 125.721 134.729 125.753 134.748C125.784 134.767 125.815 134.787 125.846 134.807L134.911 140.869L148.181 126.563C148.205 126.536 148.23 126.511 148.256 126.485C148.282 126.46 148.309 126.435 148.336 126.411C148.363 126.387 148.391 126.364 148.419 126.341C148.448 126.318 148.477 126.296 148.506 126.274C148.536 126.253 148.566 126.232 148.597 126.212C148.627 126.192 148.658 126.173 148.69 126.154C148.722 126.136 148.754 126.118 148.787 126.101C148.819 126.083 148.852 126.067 148.886 126.051C148.919 126.036 148.953 126.021 148.987 126.007C149.021 125.993 149.056 125.979 149.091 125.967C149.126 125.954 149.161 125.943 149.197 125.932C149.232 125.921 149.268 125.911 149.304 125.902C149.34 125.892 149.377 125.884 149.413 125.877C149.45 125.869 149.487 125.862 149.523 125.856C149.56 125.85 149.597 125.845 149.635 125.841C149.672 125.837 149.709 125.834 149.746 125.831C149.783 125.829 149.821 125.827 149.858 125.827C149.896 125.826 149.933 125.826 149.971 125.827C150.008 125.828 150.045 125.83 150.083 125.832C150.12 125.835 150.157 125.839 150.194 125.843C150.231 125.847 150.268 125.853 150.305 125.859C150.342 125.865 150.379 125.872 150.415 125.88C150.452 125.888 150.488 125.896 150.524 125.906C150.56 125.915 150.596 125.926 150.631 125.937C150.667 125.948 150.702 125.96 150.737 125.972C150.772 125.985 150.806 125.999 150.84 126.013C150.874 126.027 150.908 126.042 150.942 126.058C150.975 126.074 151.008 126.091 151.04 126.108C151.073 126.125 151.105 126.144 151.136 126.162C151.168 126.181 151.199 126.201 151.229 126.221C151.26 126.241 151.29 126.262 151.319 126.284C151.349 126.306 151.377 126.328 151.406 126.351L151.406 126.352ZM148.571 48.7076C133.601 55.9397 109.503 59.92 82.2857 59.92C55.0696 59.92 30.9714 55.9397 16 48.7097L16 68.48C16 68.5335 16.048 68.6758 16.2674 69.001C16.7018 69.643 17.5051 70.4242 18.6938 71.2737C21.6125 73.3602 26.2422 75.434 32.2172 77.2412C45.2058 81.1702 63.104 83.46 82.2857 83.46C101.467 83.46 119.366 81.1702 132.354 77.2412C138.329 75.434 142.96 73.3612 145.878 71.2737C147.066 70.4242 147.87 69.643 148.304 69.001C148.469 68.7571 148.537 68.6158 148.56 68.5379L148.571 68.48L148.573 48.7086L148.571 48.7076ZM82.2857 14.98C63.104 14.98 45.2058 17.2698 32.2172 21.1987C26.2422 23.006 21.6114 25.0788 18.6938 27.1663C17.5051 28.0158 16.7018 28.797 16.2674 29.439C16.048 29.7642 16 29.9065 16 29.96C16 30.0135 16.048 30.1558 16.2674 30.481C16.7018 31.123 17.5051 31.9042 18.6938 32.7537C21.6125 34.8402 26.2422 36.914 32.2172 38.7212C45.2058 42.6502 63.104 44.94 82.2857 44.94C101.467 44.94 119.366 42.6502 132.354 38.7212C138.329 36.914 142.96 34.8412 145.878 32.7537C147.066 31.9042 147.87 31.123 148.304 30.481C148.398 30.3489 148.479 30.2095 148.544 30.0628L148.56 30.0177L148.571 29.96C148.571 29.9065 148.523 29.7642 148.304 29.439C147.87 28.797 147.066 28.0158 145.878 27.1663C142.959 25.0798 138.329 23.006 132.354 21.1987C119.366 17.2698 101.467 14.98 82.2857 14.98Z"></path><defs><linearGradient id="linear_0" x1="0%" y1="50%" x2="100%" y2="50%" gradientUnits="objectBoundingBox"><stop offset="0" stop-color="#1F4799" stop-opacity="0.5" /><stop offset="1" stop-color="#3A9CDE" stop-opacity="0.5" /></linearGradient></defs></svg>