<?xml version="1.0" standalone="no"?><!DOCTYPE svg PUBLIC "-//W3C//DTD SVG 1.1//EN" "http://www.w3.org/Graphics/SVG/1.1/DTD/svg11.dtd"><svg t="1704949670848" class="icon" viewBox="0 0 1024 1024" version="1.1" xmlns="http://www.w3.org/2000/svg" p-id="12330" xmlns:xlink="http://www.w3.org/1999/xlink" width="128" height="128"><path d="M934.2 450.58C904.31 244.44 726.3 85.32 512.07 85.32S119.84 244.44 89.95 450.58c-2.78 5.66-4.48 11.95-4.48 18.69v170.64c0 23.56 19.1 42.66 42.66 42.66h42.66c70.68 0 127.98-57.3 127.98-127.98 0-67.08-51.63-122.01-117.31-127.44 37.81-147.28 171.74-256.5 330.61-256.5s292.8 109.23 330.61 256.5c-65.67 5.44-117.31 60.36-117.31 127.44 0 55.99 36.01 103.46 86.1 120.83-45 82-122.67 143.72-215.36 167.56-4.69-18.77-21.33-32.42-41.38-32.42h-42.66c-23.47 0-42.66 19.2-42.66 42.66v42.66c0 23.46 19.2 42.66 42.66 42.66h42.66c6.82 0 13.23-1.71 19.2-4.69 147.99-21.45 271.54-119.26 329.43-252.01 20.05-3.49 35.32-20.87 35.32-41.92V469.27c0-6.74-1.7-13.03-4.48-18.69zM213.45 554.59c0 23.52-19.14 42.66-42.66 42.66v-85.32c23.52 0 42.66 19.13 42.66 42.66z m597.25 0c0-23.52 19.14-42.66 42.66-42.66 0 28.93-3.72 57-10.54 83.85-18.41-4.73-32.12-21.33-32.12-41.19z" fill="#fff" p-id="12331"></path><path d="M384.09 554.59m-42.66 0a42.66 42.66 0 1 0 85.32 0 42.66 42.66 0 1 0-85.32 0Z" fill="#fff" p-id="12332"></path><path d="M512.07 554.59m-42.66 0a42.66 42.66 0 1 0 85.32 0 42.66 42.66 0 1 0-85.32 0Z" fill="#fff" p-id="12333"></path><path d="M640.06 554.59m-42.66 0a42.66 42.66 0 1 0 85.32 0 42.66 42.66 0 1 0-85.32 0Z" fill="#fff" p-id="12334"></path></svg>