<svg xmlns="http://www.w3.org/2000/svg" xmlns:xlink="http://www.w3.org/1999/xlink" width="25" height="25.8125" viewBox="0 0 25 25.8125" fill="none"><g opacity="1"  transform="translate(0 0.21875)"><path id="路径 1" fill-rule="evenodd" style="fill:#666666" opacity="1" d="M24.2124 23.7297L23.439 23.7297L23.439 14.7011C23.439 14.2168 23.2065 13.5645 22.6514 13.3224L15.6292 8.53874L15.6292 1.04704L15.5533 0.879022C15.2354 0.0636318 14.5379 -0.346534 13.6791 -0.183456L2.66654 3.2313C2.04024 3.47344 1.57525 4.12576 1.57525 4.85713L1.57525 23.7297L0.787627 23.7297C0.308408 23.7297 0 24.1399 0 24.55C0 25.0492 0.317897 25.3704 0.787627 25.3704L24.2124 25.3704C24.6916 25.3704 25 25.0393 25 24.55C24.9953 24.0509 24.6774 23.7297 24.2124 23.7297ZM21.8685 14.6122L21.8685 23.7297L15.6292 23.7297L15.6292 10.4018L21.8685 14.6122ZM3.11729 4.85713L14.0444 1.44238L14.0444 23.7297L3.11729 23.7297L3.11729 4.85713Z"></path><path id="路径 2" fill-rule="evenodd" style="fill:#666666" opacity="1" d="M10.9269 7.37744L6.24856 7.37744C5.76935 7.37744 5.46094 7.69866 5.46094 8.19777C5.46094 8.69689 5.77884 9.0181 6.24856 9.0181L10.9269 9.0181C11.4061 9.0181 11.7145 8.69689 11.7145 8.19777C11.7145 7.69371 11.3919 7.37744 10.9269 7.37744ZM10.9269 12.2451L6.24856 12.2451C5.76935 12.2451 5.46094 12.5762 5.46094 13.0654L5.46094 13.0753C5.46094 13.5744 5.77884 13.8956 6.24856 13.8956L10.9269 13.8956C11.4061 13.8956 11.7145 13.5645 11.7145 13.0753L11.7145 13.0703L11.7145 13.0654C11.7145 12.5663 11.3919 12.2451 10.9269 12.2451ZM10.9269 17.1325L6.24856 17.1325C5.76935 17.1325 5.46094 17.4537 5.46094 17.9528L5.46094 17.9627C5.46094 18.4618 5.77884 18.783 6.24856 18.783L10.9269 18.783C11.4061 18.783 11.7145 18.4618 11.7145 17.9627L11.7145 17.9577L11.7145 17.9528C11.7145 17.4537 11.3919 17.1325 10.9269 17.1325ZM17.1757 17.9627C17.1757 18.4618 17.4936 18.783 17.9633 18.783L19.5243 18.783C20.0036 18.783 20.312 18.4618 20.312 17.9627L20.312 17.9577L20.312 17.9528C20.312 17.4537 19.9941 17.1325 19.5243 17.1325L17.9633 17.1325C17.4841 17.1325 17.1757 17.4537 17.1757 17.9528L17.1757 17.9627Z"></path></g></svg>