<svg xmlns="http://www.w3.org/2000/svg" xmlns:xlink="http://www.w3.org/1999/xlink" width="24.6708984375" height="26.26177978515625" viewBox="0 0 24.6708984375 26.26177978515625" fill="none"><g opacity="1"  transform="translate(0 0.21875)"><path id="路径 1" fill-rule="evenodd" style="fill:#666666" opacity="1" d="M15.0783 25.8193L11.6986 25.8193C11.4067 25.8193 11.17 25.578 11.17 25.2802L11.17 14.8942C11.17 14.7724 11.2102 14.6592 11.2768 14.5686C11.2074 14.4748 11.17 14.3605 11.17 14.243L11.17 6.87912L8.95531 6.87912C8.74123 6.87951 8.54806 6.74816 8.46608 6.54646C8.38411 6.34476 8.42952 6.11255 8.58109 5.95836L14.4842 -0.0621434C14.6917 -0.270952 15.0251 -0.270952 15.2326 -0.0621434L21.0564 5.87857C21.2619 6.00678 21.3566 6.2602 21.287 6.49535C21.2175 6.73051 21.0011 6.88819 20.7604 6.87912L18.5457 6.87912L18.5457 14.0026C18.5457 14.146 18.4897 14.2829 18.3914 14.3843L13.612 19.2587L15.0793 19.2587C15.3713 19.2587 15.6079 19.5 15.6079 19.7978L15.6079 25.2792C15.6079 25.5775 15.3708 25.8193 15.0783 25.8193ZM12.2261 24.7412L14.5487 24.7412L14.5487 20.3379L12.335 20.3379C12.2984 20.3378 12.2619 20.3338 12.2261 20.3261L12.2261 24.7412ZM12.2261 15.4333L12.2261 19.1465L17.4886 13.7794L17.4886 6.34003C17.4886 6.0423 17.7252 5.80095 18.0171 5.80095L19.4845 5.80095L14.8584 1.0818L10.2313 5.80095L11.6986 5.80095C11.9905 5.80095 12.2272 6.0423 12.2272 6.34003L12.2272 14.0198L12.7103 14.5126C12.8608 14.6671 12.9055 14.8988 12.8237 15.1C12.7419 15.3012 12.5496 15.4327 12.3361 15.4333L12.2261 15.4333Z"></path><path id="路径 2" fill-rule="evenodd" style="fill:#666666" opacity="1" d="M9.59135 25.8195L3.27282 25.8195C2.98089 25.8195 2.74425 25.5781 2.74425 25.2804L2.74425 15.4335L0.529532 15.4335C0.315452 15.4339 0.122281 15.3025 0.0403036 15.1008C-0.0416734 14.8991 0.00373436 14.6669 0.155304 14.5127L6.05733 8.4922C6.2669 8.28971 6.59515 8.28971 6.80473 8.4922L12.7078 14.5127C12.8605 14.6665 12.9066 14.8993 12.8244 15.1015C12.7422 15.3037 12.5482 15.4349 12.3336 15.4335L10.1189 15.4335L10.1189 25.2804C10.1197 25.4235 10.0644 25.5609 9.96536 25.6622C9.86628 25.7634 9.73162 25.8201 9.59135 25.8195ZM3.80139 24.7413L9.06384 24.7413L9.06384 14.8944C9.06384 14.5967 9.30049 14.3553 9.59241 14.3553L11.0597 14.3553L6.43261 9.63614L1.8055 14.3553L3.27282 14.3553C3.56474 14.3553 3.80139 14.5967 3.80139 14.8944L3.80139 24.7413ZM21.3965 25.8195L15.0769 25.8195C14.7849 25.8195 14.5483 25.5781 14.5483 25.2804L14.5483 20.3381L12.3346 20.3381C12.1206 20.3385 11.9274 20.2071 11.8454 20.0054C11.7634 19.8037 11.8088 19.5715 11.9604 19.4173L17.8635 13.3968C18.071 13.188 18.4045 13.188 18.6119 13.3968L24.514 19.4173C24.6666 19.5711 24.7127 19.8039 24.6306 20.0061C24.5484 20.2083 24.3543 20.3395 24.1397 20.3381L21.925 20.3381L21.925 25.2804C21.925 25.5791 21.6893 25.8195 21.3965 25.8195ZM15.6065 24.7413L20.8689 24.7413L20.8689 19.799C20.8689 19.5013 21.1056 19.2599 21.3975 19.2599L22.8648 19.2599L18.2388 14.5407L13.6117 19.2599L15.079 19.2599C15.3709 19.2599 15.6076 19.5013 15.6076 19.799L15.6076 24.7413L15.6065 24.7413Z"></path></g></svg>