<svg xmlns="http://www.w3.org/2000/svg" xmlns:xlink="http://www.w3.org/1999/xlink" width="25.014651909071695" height="26.26171875" viewBox="0 0 25.014651909071695 26.26171875" fill="none"><g opacity="1"  transform="translate(0 0.21875)"><path id="路径 1" fill-rule="evenodd" style="fill:#1D448F" opacity="1" d="M5.83622 16.0765C5.57006 16.0747 5.32847 15.9134 5.21478 15.6616C5.10109 15.4098 5.13544 15.1121 5.30313 14.8958L7.96861 11.4697C8.11975 11.254 8.37214 11.1431 8.62513 11.181C8.87811 11.219 9.09054 11.3996 9.17771 11.651C9.26488 11.9024 9.2126 12.1835 9.04172 12.3823L6.37624 15.8158C6.24291 15.9833 6.04456 16.0791 5.83622 16.0765ZM14.2204 14.5337C14.0985 14.5323 13.979 14.4974 13.8742 14.4323L10.2118 12.2085C10.0527 12.1117 9.93702 11.9526 9.89025 11.7665C9.84349 11.5803 9.86949 11.3822 9.96252 11.2161C10.155 10.8739 10.575 10.7576 10.9041 10.9554L14.5665 13.1791C14.8408 13.3418 14.9755 13.6778 14.894 13.9964C14.8126 14.3151 14.5357 14.536 14.2204 14.5337ZM16.4081 14.1643C16.1243 14.172 15.8648 13.9977 15.7533 13.7245C15.6418 13.4514 15.7011 13.1347 15.9027 12.9256L18.8728 9.78193C19.1429 9.50108 19.579 9.50108 19.849 9.78193C19.9801 9.91793 20.0538 10.1031 20.0538 10.2962C20.0538 10.4894 19.9801 10.6745 19.849 10.8105L16.8789 13.9542C16.7534 14.0846 16.585 14.1597 16.4081 14.1643Z"></path><path id="路径 2" fill-rule="evenodd" style="fill:#1D448F" opacity="1" d="M9.35984 12.7151C8.34455 12.7151 7.52081 11.8554 7.51829 10.7932C7.51576 9.73093 8.33541 8.86693 9.35067 8.86162C10.3659 8.8563 11.1938 9.71168 11.2014 10.7739L11.2014 10.8825C11.2052 11.2572 11.1042 11.6248 10.9107 11.9401C10.5596 12.4654 9.97099 12.7596 9.35984 12.7151ZM9.35984 10.3103C9.19656 10.3102 9.04566 10.4014 8.964 10.5493C8.88235 10.6972 8.88235 10.8795 8.964 11.0274C9.04566 11.1754 9.19656 11.2665 9.35984 11.2664C9.49394 11.277 9.62767 11.2414 9.74062 11.165C9.7961 11.0773 9.82283 10.9731 9.81678 10.868L9.81678 10.7884C9.81306 10.526 9.61064 10.3142 9.35984 10.3103ZM4.82506 18.0826C4.0802 18.0826 3.40868 17.6131 3.12364 16.8932C2.83859 16.1732 2.99615 15.3444 3.52285 14.7934C4.04954 14.2423 4.84165 14.0775 5.52981 14.3757C6.21797 14.6739 6.66666 15.3765 6.66666 16.1558C6.66287 17.2183 5.84057 18.0786 4.82506 18.0826ZM4.82506 15.6777C4.64024 15.6777 4.47363 15.7942 4.4029 15.9729C4.33217 16.1515 4.37127 16.3571 4.50195 16.4939C4.63264 16.6306 4.82917 16.6715 4.99992 16.5975C5.17067 16.5235 5.282 16.3492 5.282 16.1558C5.27828 15.8934 5.07586 15.6816 4.82506 15.6777ZM15.2724 16.3369C14.2554 16.3367 13.431 15.4741 13.431 14.4101C13.431 13.3461 14.2554 12.4835 15.2724 12.4834C15.8835 12.4389 16.4722 12.7331 16.8232 13.2584C17.0177 13.5736 17.121 13.9408 17.1209 14.316L17.1209 14.4246C17.1095 15.4842 16.2852 16.337 15.2724 16.3369ZM15.2724 13.9321C15.02 13.9321 14.8154 14.1461 14.8154 14.4101C14.8154 14.6742 15.02 14.8882 15.2724 14.8882C15.5247 14.8882 15.7293 14.6742 15.7293 14.4101C15.7259 14.3837 15.7259 14.3569 15.7293 14.3304C15.7323 14.2248 15.7032 14.1208 15.6462 14.0335C15.5356 13.9576 15.4042 13.922 15.2724 13.9321ZM20.181 11.3316C19.4361 11.3316 18.7646 10.8622 18.4796 10.1422C18.1945 9.42222 18.3521 8.59348 18.8788 8.04242C19.4055 7.49137 20.1976 7.32652 20.8857 7.62475C21.5739 7.92298 22.0226 8.62555 22.0226 9.40486C22.0226 10.469 21.1981 11.3316 20.181 11.3316ZM20.181 8.92679C19.9286 8.92679 19.7241 9.14083 19.7241 9.40486C19.7241 9.66889 19.9286 9.88293 20.181 9.88293C20.4334 9.88293 20.6379 9.66889 20.6379 9.40486C20.6379 9.14083 20.4334 8.92679 20.181 8.92679Z"></path><path id="路径 3" fill-rule="evenodd" style="fill:#1D448F" opacity="1" d="M16.1244 25.8194C16.016 25.8187 15.9093 25.7914 15.8129 25.7397L9.58188 22.4077L0.858492 24.6242C0.65359 24.6768 0.436934 24.6288 0.27001 24.4938C0.100217 24.3571 0.000515025 24.1458 0 23.9216L0 4.03813C0.000124002 3.73315 0.182812 3.46093 0.456939 3.35724L9.78265 -0.177599C9.99168 -0.254633 10.2233 -0.222319 10.4058 -0.0906765L16.0898 3.92223L23.5185 1.82885C23.7235 1.7698 23.943 1.81253 24.1139 1.94475C24.2825 2.0769 24.3845 2.28218 24.3909 2.5025L25.014 22.1976C25.0292 22.5242 24.8335 22.821 24.5363 22.922L16.339 25.7469C16.2715 25.7825 16.1991 25.8069 16.1244 25.8194ZM9.67188 20.8793C9.78026 20.88 9.88697 20.9073 9.98343 20.959L16.159 24.2765L23.5878 21.734L22.9924 3.45865L16.1175 5.40715C15.9242 5.46332 15.717 5.42896 15.5498 5.31299L9.89343 1.31457L1.36389 4.54517L1.36389 23.0016L9.51264 20.901C9.56474 20.8873 9.61818 20.8801 9.67188 20.8793Z"></path></g></svg>