<svg xmlns="http://www.w3.org/2000/svg" xmlns:xlink="http://www.w3.org/1999/xlink" width="52.44158935546875" height="59.0584716796875" viewBox="0 0 52.44158935546875 59.0584716796875" fill="none"><g opacity="1"  transform="translate(0 0)  rotate(0)"><path id="路径 1" fill-rule="evenodd" style="fill:#AAC0E6" opacity="1" d="M26.2209 59.0584C26.1626 59.0588 26.1046 59.0555 26.0468 59.0485C25.9889 59.0413 25.9319 59.0306 25.8755 59.0162C25.8191 59.0018 25.7639 58.9839 25.7099 58.9624C25.6559 58.9408 25.6036 58.916 25.5529 58.8878L0.672476 44.7807C0.647147 44.7663 0.622323 44.7511 0.598002 44.7351C0.573633 44.7191 0.549843 44.7024 0.526633 44.685C0.503423 44.6674 0.480819 44.6491 0.45882 44.6302C0.43682 44.6112 0.415477 44.5916 0.394791 44.5712C0.374155 44.5509 0.354199 44.5298 0.334924 44.5083C0.31565 44.4866 0.297108 44.4643 0.279297 44.4415C0.261537 44.4186 0.244533 44.3953 0.228286 44.3714C0.212089 44.3474 0.196675 44.323 0.182043 44.2981C0.167461 44.2731 0.153737 44.2477 0.140871 44.222C0.127954 44.1962 0.115946 44.17 0.104846 44.1434C0.0936942 44.1168 0.0834519 44.0899 0.0741173 44.0627C0.0647827 44.0354 0.0563823 44.0079 0.0489151 43.9801C0.041397 43.9523 0.0348375 43.9243 0.0292365 43.8961C0.0235858 43.8679 0.0189191 43.8395 0.0152351 43.811C0.0115015 43.7825 0.00872636 43.7538 0.00690979 43.7251C0.00509321 43.6965 0.00426057 43.6677 0.00441185 43.639L0.00441185 15.4247C0.00426057 15.3959 0.00509321 15.3672 0.00690979 15.3386C0.00872636 15.3098 0.0115015 15.2812 0.0152351 15.2527C0.0189191 15.2242 0.0235858 15.1958 0.0292365 15.1676C0.0348375 15.1394 0.041397 15.1114 0.0489151 15.0836C0.0563823 15.0558 0.0647827 15.0282 0.0741173 15.001C0.0834519 14.9737 0.0936942 14.9468 0.104846 14.9203C0.115946 14.8937 0.127954 14.8675 0.140871 14.8417C0.153737 14.8158 0.167461 14.7905 0.182043 14.7656C0.196675 14.7406 0.212089 14.7162 0.228286 14.6923C0.244533 14.6683 0.261537 14.6449 0.279297 14.6222C0.297108 14.5993 0.31565 14.5771 0.334924 14.5554C0.354199 14.5338 0.374155 14.5128 0.394791 14.4925C0.415477 14.4721 0.43682 14.4524 0.45882 14.4335C0.480819 14.4145 0.503423 14.3963 0.526633 14.3787C0.549843 14.3612 0.573633 14.3445 0.598002 14.3285C0.622323 14.3125 0.647147 14.2974 0.672476 14.283L25.5529 0.175811C25.5781 0.16149 25.6038 0.147997 25.63 0.13533C25.6562 0.122665 25.6827 0.110851 25.7096 0.0998902C25.7365 0.0889296 25.7639 0.0788461 25.7914 0.0696387C25.819 0.0604366 25.847 0.0521294 25.8751 0.0447165C25.9033 0.037303 25.9317 0.0308018 25.9603 0.0252121C25.9889 0.0196274 26.0176 0.0149648 26.0465 0.0112238C26.0755 0.00748725 26.1045 0.00468243 26.1336 0.00280934C26.1626 0.000936257 26.1918 0 26.2209 0C26.2501 0 26.2793 0.000936257 26.3083 0.00280934C26.3375 0.00468243 26.3665 0.00748725 26.3954 0.0112238C26.4243 0.0149648 26.453 0.0196274 26.4817 0.0252121C26.5103 0.0308018 26.5386 0.037303 26.5668 0.0447165C26.5949 0.0521294 26.6229 0.0604366 26.6504 0.0696387C26.6781 0.0788461 26.7054 0.0889296 26.7323 0.0998902C26.7593 0.110851 26.7858 0.122665 26.8119 0.13533C26.8381 0.147997 26.8638 0.16149 26.8891 0.175811L51.7694 14.283C51.7948 14.2974 51.8196 14.3125 51.8439 14.3285C51.8683 14.3445 51.8921 14.3612 51.9152 14.3787C51.9385 14.3962 51.9611 14.4144 51.983 14.4335C52.0051 14.4524 52.0264 14.4721 52.0471 14.4925C52.0678 14.5128 52.0878 14.5337 52.107 14.5554C52.1263 14.5771 52.1448 14.5993 52.1626 14.6222C52.1804 14.6449 52.1974 14.6683 52.2136 14.6923C52.2298 14.7162 52.2453 14.7406 52.2598 14.7656C52.2744 14.7905 52.2881 14.8158 52.301 14.8417C52.3139 14.8675 52.326 14.8937 52.337 14.9203C52.3482 14.9468 52.3584 14.9737 52.3677 15.001C52.3771 15.0282 52.3855 15.0558 52.393 15.0836C52.4005 15.1114 52.4071 15.1394 52.4127 15.1676C52.4183 15.1958 52.423 15.2242 52.4267 15.2527C52.4304 15.2812 52.4331 15.3098 52.4349 15.3385C52.4368 15.3672 52.4377 15.3959 52.4375 15.4247L52.4375 43.639C52.4377 43.6677 52.4368 43.6965 52.4349 43.7251C52.4331 43.7538 52.4304 43.7825 52.4267 43.811C52.423 43.8395 52.4183 43.8679 52.4127 43.8961C52.4071 43.9243 52.4005 43.9523 52.393 43.9801C52.3855 44.0079 52.3771 44.0354 52.3677 44.0627C52.3584 44.0899 52.3482 44.1168 52.3371 44.1434C52.326 44.17 52.3139 44.1962 52.301 44.222C52.2881 44.2477 52.2744 44.2731 52.2598 44.2981C52.2453 44.323 52.2298 44.3474 52.2136 44.3714C52.1974 44.3953 52.1804 44.4186 52.1626 44.4415C52.1448 44.4643 52.1263 44.4866 52.107 44.5083C52.0878 44.5298 52.0678 44.5509 52.0471 44.5712C52.0264 44.5915 52.0051 44.6111 51.983 44.6302C51.9611 44.6491 51.9385 44.6674 51.9152 44.685C51.8921 44.7024 51.8683 44.7191 51.8439 44.7351C51.8196 44.7511 51.7948 44.7663 51.7694 44.7807L26.8891 58.8878C26.8384 58.916 26.7861 58.9408 26.732 58.9624C26.678 58.9839 26.6228 59.0018 26.5664 59.0162C26.51 59.0306 26.4529 59.0413 26.3951 59.0485C26.3372 59.0555 26.2792 59.0588 26.2209 59.0584ZM2.67682 42.8779L26.2209 56.237L49.765 42.8779L49.765 16.1858L26.2209 2.82664L2.67682 16.1858L2.67682 42.8779Z"></path><path id="路径 2" fill-rule="evenodd" style="fill:#AAC0E6" opacity="1" d="M26.2209 42.8121C26.1628 42.8113 26.1049 42.807 26.0473 42.7993C25.9897 42.7917 25.9327 42.7806 25.8764 42.7662C25.8202 42.7519 25.765 42.7343 25.7108 42.7134C25.6567 42.6925 25.6041 42.6686 25.5529 42.6415L14.9968 36.6574C14.9714 36.6431 14.9465 36.6279 14.9222 36.6119C14.8979 36.596 14.8741 36.5792 14.8509 36.5617C14.8277 36.5442 14.8051 36.5259 14.7831 36.507C14.7611 36.488 14.7398 36.4683 14.7191 36.448C14.6984 36.4277 14.6784 36.4066 14.6591 36.385C14.6399 36.3634 14.6213 36.3412 14.6035 36.3183C14.5857 36.2955 14.5687 36.2721 14.5525 36.2482C14.5363 36.2242 14.5209 36.1998 14.5063 36.1749C14.4917 36.15 14.478 36.1246 14.4651 36.0988C14.4522 36.073 14.4402 36.0467 14.4291 36.0201C14.418 35.9936 14.4077 35.9667 14.3984 35.9394C14.3891 35.9121 14.3806 35.8846 14.3731 35.8568C14.3657 35.829 14.3591 35.801 14.3534 35.7728C14.3478 35.7447 14.3432 35.7163 14.3394 35.6877C14.3357 35.6593 14.333 35.6306 14.3312 35.602C14.3294 35.5733 14.3285 35.5445 14.3286 35.5157L14.3286 23.5476C14.3285 23.5189 14.3294 23.4902 14.3312 23.4615C14.333 23.4328 14.3357 23.4042 14.3394 23.3757C14.3432 23.3472 14.3478 23.3188 14.3534 23.2906C14.3591 23.2624 14.3657 23.2344 14.3731 23.2066C14.3806 23.1788 14.3891 23.1513 14.3984 23.124C14.4077 23.0968 14.418 23.0698 14.4291 23.0432C14.4402 23.0167 14.4522 22.9905 14.4651 22.9647C14.478 22.9388 14.4917 22.9135 14.5063 22.8885C14.5209 22.8636 14.5363 22.8392 14.5526 22.8153C14.5688 22.7913 14.5858 22.7679 14.6036 22.7451C14.6213 22.7223 14.6399 22.7 14.6591 22.6784C14.6784 22.6568 14.6984 22.6358 14.7191 22.6155C14.7398 22.5951 14.7611 22.5754 14.7831 22.5564C14.8051 22.5375 14.8277 22.5192 14.8509 22.5017C14.8741 22.4842 14.8979 22.4674 14.9222 22.4515C14.9465 22.4355 14.9714 22.4203 14.9968 22.4059L25.5529 16.4088C25.5781 16.3944 25.6038 16.381 25.63 16.3683C25.6561 16.3556 25.6827 16.3438 25.7096 16.3329C25.7366 16.3219 25.7638 16.3118 25.7914 16.3026C25.8191 16.2934 25.8469 16.2851 25.8751 16.2776C25.9033 16.2703 25.9317 16.2638 25.9603 16.2582C25.9889 16.2526 26.0177 16.2479 26.0466 16.2442C26.0755 16.2404 26.1045 16.2376 26.1335 16.2358C26.1627 16.2339 26.1918 16.233 26.2209 16.233C26.2501 16.233 26.2792 16.2339 26.3084 16.2358C26.3375 16.2376 26.3665 16.2404 26.3954 16.2442C26.4243 16.2479 26.4531 16.2526 26.4817 16.2582C26.5102 16.2638 26.5386 16.2703 26.5668 16.2776C26.595 16.2851 26.6228 16.2934 26.6505 16.3026C26.6781 16.3118 26.7054 16.3219 26.7323 16.3329C26.7593 16.3438 26.7859 16.3556 26.812 16.3683C26.8381 16.381 26.8638 16.3944 26.8891 16.4088L37.4452 22.3928C37.4706 22.4072 37.4954 22.4224 37.5197 22.4383C37.5441 22.4543 37.5678 22.4711 37.5911 22.4886C37.6143 22.5061 37.6369 22.5244 37.6589 22.5433C37.6809 22.5623 37.7022 22.5819 37.7228 22.6023C37.7435 22.6227 37.7635 22.6437 37.7828 22.6653C37.8021 22.6869 37.8206 22.7092 37.8384 22.732C37.8562 22.7548 37.8731 22.7782 37.8894 22.8021C37.9056 22.826 37.921 22.8505 37.9356 22.8754C37.9502 22.9003 37.964 22.9257 37.9768 22.9515C37.9897 22.9773 38.0017 23.0035 38.0129 23.0301C38.024 23.0567 38.0343 23.0836 38.0436 23.1109C38.0529 23.1381 38.0613 23.1656 38.0688 23.1934C38.0763 23.2212 38.0829 23.2492 38.0885 23.2774C38.0941 23.3057 38.0988 23.334 38.1025 23.3625C38.1062 23.3911 38.109 23.4197 38.1108 23.4484C38.1125 23.4771 38.1134 23.5058 38.1133 23.5345L38.1133 35.5026C38.1134 35.5314 38.1125 35.5601 38.1108 35.5888C38.109 35.6175 38.1062 35.6461 38.1025 35.6746C38.0988 35.7031 38.0941 35.7315 38.0885 35.7598C38.0829 35.7879 38.0763 35.8159 38.0688 35.8437C38.0613 35.8715 38.0529 35.899 38.0436 35.9263C38.0343 35.9535 38.024 35.9804 38.0129 36.007C38.0017 36.0337 37.9897 36.0598 37.9768 36.0856C37.964 36.1114 37.9502 36.1368 37.9356 36.1617C37.921 36.1866 37.9056 36.2111 37.8894 36.235C37.8731 36.2589 37.8562 36.2824 37.8384 36.3052C37.8206 36.328 37.8021 36.3503 37.7828 36.3719C37.7635 36.3936 37.7436 36.4145 37.7229 36.4349C37.7022 36.4553 37.6809 36.4749 37.6589 36.4938C37.6369 36.5128 37.6143 36.5311 37.5911 36.5486C37.5678 36.5661 37.5441 36.5828 37.5197 36.5988C37.4954 36.6148 37.4706 36.63 37.4452 36.6443L26.8891 42.6547C26.8375 42.6806 26.7846 42.7034 26.7304 42.7231C26.6761 42.7428 26.6209 42.7593 26.5646 42.7726C26.5083 42.7859 26.4514 42.7958 26.394 42.8024C26.3365 42.8091 26.2788 42.8122 26.2209 42.8121ZM17.001 34.7809L26.2209 40.03L35.4409 34.7809L35.4409 24.2825L26.2209 19.0333L17.001 24.2825L17.001 34.7809Z"></path><path id="路径 3" fill-rule="evenodd" style="fill:#AAC0E6" opacity="1" d="M36.7773 24.8601C36.759 24.8602 36.7406 24.86 36.7223 24.8594C36.704 24.8587 36.6857 24.8578 36.6675 24.8564C36.6491 24.8551 36.6309 24.8534 36.6127 24.8512C36.5945 24.8491 36.5763 24.8467 36.5582 24.8439C36.5402 24.841 36.5221 24.8378 36.5041 24.8343C36.4862 24.8308 36.4683 24.8268 36.4505 24.8225C36.4327 24.8183 36.4151 24.8136 36.3974 24.8086C36.3798 24.8036 36.3623 24.7984 36.3449 24.7926C36.3276 24.7869 36.3103 24.7809 36.2931 24.7745C36.276 24.7681 36.2591 24.7614 36.2422 24.7543C36.2253 24.7472 36.2087 24.7398 36.1921 24.732C36.1755 24.7243 36.1592 24.7162 36.143 24.7078C36.1268 24.6994 36.1107 24.6906 36.0949 24.6815C36.0791 24.6725 36.0634 24.6631 36.048 24.6534C36.0325 24.6437 36.0173 24.6337 36.0023 24.6233C35.9873 24.613 35.9725 24.6024 35.9579 24.5915C35.9433 24.5806 35.929 24.5694 35.9149 24.5579C35.9008 24.5464 35.8869 24.5346 35.8733 24.5226C35.8598 24.5106 35.8464 24.4982 35.8333 24.4857C35.8202 24.4731 35.8073 24.4602 35.7947 24.4471C35.7823 24.434 35.77 24.4206 35.758 24.407C35.7459 24.3934 35.7343 24.3795 35.7228 24.3655C35.7114 24.3514 35.7003 24.3371 35.6895 24.3226C35.6786 24.3081 35.6681 24.2933 35.6579 24.2784C35.6477 24.2634 35.6379 24.2483 35.6282 24.2329C35.6187 24.2176 35.6095 24.202 35.6005 24.1863C35.5916 24.1706 35.5831 24.1547 35.5748 24.1386C35.5666 24.1225 35.5586 24.1063 35.551 24.0899C35.5435 24.0735 35.5363 24.057 35.5294 24.0403C35.5225 24.0236 35.516 24.0068 35.5098 23.9899C35.5037 23.9729 35.4978 23.9558 35.4924 23.9387C35.4869 23.9215 35.4818 23.9042 35.4771 23.8868C35.4723 23.8694 35.468 23.8519 35.464 23.8344C35.46 23.8168 35.4564 23.7992 35.4531 23.7815C35.4499 23.7637 35.4469 23.7459 35.4444 23.7282C35.4419 23.7103 35.4397 23.6924 35.438 23.6745C35.4362 23.6566 35.4348 23.6387 35.4338 23.6207C35.4328 23.6027 35.4321 23.5847 35.4318 23.5667C35.4316 23.5487 35.4317 23.5308 35.4322 23.5128C35.4327 23.4948 35.4335 23.4768 35.4348 23.4589C35.4361 23.4409 35.4377 23.423 35.4396 23.4051C35.4417 23.3872 35.444 23.3693 35.4467 23.3516C35.4495 23.3338 35.4527 23.316 35.4561 23.2983C35.4596 23.2806 35.4635 23.263 35.4676 23.2456C35.4719 23.2281 35.4765 23.2106 35.4814 23.1933C35.4863 23.176 35.4917 23.1587 35.4974 23.1416C35.5031 23.1245 35.509 23.1075 35.5155 23.0907C35.5218 23.0738 35.5286 23.057 35.5357 23.0404C35.5427 23.0238 35.5501 23.0074 35.5579 22.9911C35.5657 22.9749 35.5738 22.9586 35.5823 22.9427C35.5907 22.9267 35.5995 22.9109 35.6086 22.8953C35.6177 22.8797 35.6272 22.8643 35.6369 22.849C35.6467 22.8338 35.6568 22.8188 35.6671 22.804C35.6775 22.7891 35.6883 22.7745 35.6992 22.7601C35.7102 22.7457 35.7216 22.7315 35.7331 22.7176C35.7447 22.7037 35.7566 22.6899 35.7688 22.6765C35.781 22.663 35.7934 22.6499 35.8061 22.6369C35.8188 22.6239 35.8318 22.6112 35.8451 22.5988C35.8583 22.5864 35.8719 22.5742 35.8856 22.5623C35.8993 22.5504 35.9133 22.5388 35.9276 22.5275C35.9419 22.5162 35.9563 22.5052 35.9711 22.4945C35.9858 22.4837 36.0007 22.4733 36.0159 22.4632C36.031 22.453 36.0464 22.4432 36.0619 22.4337C36.0775 22.4241 36.0932 22.4149 36.1091 22.4061L50.4334 14.283C50.4524 14.2723 50.4717 14.262 50.4912 14.2523C50.5108 14.2424 50.5305 14.2331 50.5506 14.2243C50.5706 14.2154 50.5908 14.2071 50.6112 14.1993C50.6316 14.1914 50.6522 14.184 50.673 14.1771C50.6939 14.1703 50.7147 14.1639 50.7359 14.158C50.757 14.1522 50.7782 14.1468 50.7996 14.142C50.821 14.1371 50.8425 14.1328 50.8641 14.129C50.8856 14.1252 50.9073 14.1219 50.9291 14.1192C50.9508 14.1164 50.9726 14.1142 50.9945 14.1125C51.0163 14.1108 51.0382 14.1096 51.0602 14.109C51.082 14.1083 51.104 14.1082 51.1259 14.1086C51.1479 14.109 51.1698 14.1099 51.1916 14.1114C51.2135 14.1128 51.2354 14.1148 51.2572 14.1174C51.279 14.1198 51.3007 14.1229 51.3223 14.1264C51.3439 14.13 51.3655 14.1341 51.3869 14.1387C51.4083 14.1433 51.4296 14.1484 51.4508 14.154C51.472 14.1596 51.493 14.1658 51.5138 14.1724C51.5347 14.1791 51.5554 14.1862 51.5759 14.1938C51.5964 14.2015 51.6167 14.2096 51.6368 14.2181C51.6569 14.2268 51.6768 14.2359 51.6964 14.2454C51.7161 14.255 51.7355 14.2651 51.7546 14.2756C51.7738 14.2861 51.7927 14.2971 51.8113 14.3085C51.8299 14.3199 51.8482 14.3317 51.8662 14.344C51.8842 14.3563 51.9019 14.3691 51.9193 14.3822C51.9366 14.3953 51.9536 14.4089 51.9703 14.4228C51.9871 14.4368 52.0034 14.4512 52.0194 14.466C52.0354 14.4807 52.0509 14.4959 52.0662 14.5114C52.0814 14.5269 52.0962 14.5427 52.1107 14.5589C52.1251 14.5752 52.1391 14.5918 52.1527 14.6087C52.1663 14.6256 52.1795 14.6428 52.1922 14.6603C52.205 14.6779 52.2172 14.6957 52.2291 14.7138C52.2409 14.7319 52.2523 14.7503 52.2632 14.769C52.2742 14.7877 52.2847 14.8066 52.2946 14.8258C52.3046 14.845 52.3141 14.8644 52.3231 14.8841C52.3321 14.9037 52.3407 14.9235 52.3487 14.9435C52.3567 14.9636 52.3642 14.9838 52.3712 15.0042C52.3782 15.0247 52.3847 15.0452 52.3907 15.0659C52.3967 15.0867 52.4022 15.1075 52.4071 15.1285C52.412 15.1495 52.4165 15.1706 52.4204 15.1918C52.4242 15.213 52.4275 15.2343 52.4304 15.2556C52.4332 15.277 52.4355 15.2984 52.4372 15.3199C52.439 15.3414 52.4402 15.3629 52.4409 15.3844C52.4416 15.4059 52.4417 15.4275 52.4413 15.449C52.4409 15.4705 52.44 15.492 52.4385 15.5135C52.4371 15.5351 52.435 15.5565 52.4325 15.5778C52.43 15.5992 52.4269 15.6206 52.4232 15.6418C52.4197 15.6631 52.4155 15.6843 52.4108 15.7053C52.4062 15.7263 52.401 15.7472 52.3953 15.7681C52.3896 15.7889 52.3834 15.8095 52.3766 15.83C52.3699 15.8505 52.3626 15.8708 52.3548 15.891C52.3471 15.9111 52.3388 15.9311 52.3301 15.9508C52.3214 15.9706 52.3121 15.9901 52.3024 16.0094C52.2926 16.0287 52.2824 16.0478 52.2717 16.0666C52.261 16.0854 52.2498 16.1039 52.2383 16.1222C52.2267 16.1405 52.2146 16.1585 52.2021 16.1762C52.1896 16.1939 52.1767 16.2113 52.1633 16.2283C52.1499 16.2454 52.1361 16.2621 52.1219 16.2785C52.1077 16.2949 52.0931 16.311 52.078 16.3267C52.063 16.3424 52.0476 16.3577 52.0319 16.3726C52.0161 16.3876 51.9999 16.4022 51.9834 16.4163C51.9669 16.4306 51.95 16.4443 51.9328 16.4577C51.9156 16.4711 51.8981 16.484 51.8803 16.4966C51.8624 16.5091 51.8442 16.5212 51.8259 16.5328C51.8074 16.5445 51.7886 16.5557 51.7696 16.5664L37.4454 24.6895C37.3947 24.7177 37.3423 24.7425 37.2884 24.764C37.2343 24.7855 37.1792 24.8035 37.1228 24.8179C37.0664 24.8323 37.0092 24.843 36.9514 24.8501C36.8936 24.8572 36.8356 24.8604 36.7773 24.8601ZM15.665 24.8601C15.6068 24.8604 15.5487 24.8572 15.4909 24.8501C15.4331 24.843 15.376 24.8323 15.3196 24.8179C15.2632 24.8035 15.208 24.7855 15.154 24.764C15.1 24.7425 15.0476 24.7177 14.997 24.6895L0.672685 16.5664C0.653661 16.5557 0.634917 16.5445 0.61645 16.5328C0.597984 16.5212 0.579819 16.5091 0.561959 16.4966C0.544096 16.4841 0.526563 16.4711 0.509357 16.4578C0.492153 16.4444 0.475275 16.4307 0.458725 16.4164C0.442226 16.4023 0.42608 16.3877 0.410287 16.3727C0.394494 16.3578 0.37908 16.3425 0.364044 16.3268C0.349008 16.3111 0.334376 16.295 0.320147 16.2786C0.305918 16.2622 0.292094 16.2455 0.278672 16.2284C0.265301 16.2113 0.25236 16.194 0.239846 16.1763C0.227283 16.1586 0.215198 16.1406 0.203594 16.1223C0.191989 16.104 0.180837 16.0855 0.170142 16.0666C0.159444 16.0478 0.149201 16.0288 0.139413 16.0095C0.129676 15.9901 0.120441 15.9706 0.111713 15.9508C0.102934 15.9311 0.0946582 15.9112 0.0868884 15.891C0.0791187 15.8708 0.0718523 15.8505 0.0650919 15.83C0.0583302 15.8095 0.0520987 15.7889 0.0463972 15.7681C0.040646 15.7472 0.0354481 15.7263 0.0308067 15.7052C0.0261146 15.6842 0.0219514 15.663 0.0183182 15.6418C0.0147359 15.6205 0.0116582 15.5992 0.0090852 15.5778C0.00651219 15.5564 0.00449351 15.5349 0.00303033 15.5134C0.00156713 15.4919 0.000634012 15.4704 0.000229815 15.4489C-0.000173227 15.4273 -4.73488e-05 15.4058 0.000608605 15.3842C0.00131538 15.3627 0.00252566 15.3412 0.00424176 15.3197C0.00600752 15.2982 0.00830338 15.2768 0.0111293 15.2554C0.013954 15.234 0.01731 15.2128 0.021195 15.1916C0.0250798 15.1703 0.0294948 15.1492 0.0344399 15.1282C0.0393838 15.1072 0.0448336 15.0864 0.0507868 15.0656C0.056792 15.0449 0.0633007 15.0243 0.0703141 15.0039C0.0773273 14.9835 0.0848457 14.9632 0.0928675 14.9431C0.10089 14.9231 0.109417 14.9033 0.118449 14.8836C0.127431 14.864 0.136916 14.8446 0.146906 14.8253C0.156896 14.8062 0.167366 14.7872 0.178316 14.7685C0.189263 14.7499 0.200642 14.7315 0.212448 14.7133C0.224306 14.6952 0.236617 14.6773 0.249382 14.6598C0.262148 14.6423 0.275317 14.625 0.28889 14.6081C0.302513 14.5912 0.316539 14.5747 0.330971 14.5584C0.345401 14.5422 0.360234 14.5264 0.375472 14.5108C0.39071 14.4953 0.406326 14.4801 0.422321 14.4654C0.438316 14.4506 0.454663 14.4363 0.471364 14.4223C0.488066 14.4083 0.505094 14.3948 0.522452 14.3816C0.539858 14.3685 0.557567 14.3557 0.575581 14.3434C0.593595 14.3311 0.611909 14.3193 0.630528 14.3079C0.649146 14.2964 0.668016 14.2854 0.687139 14.2749C0.706313 14.2644 0.725738 14.2544 0.745416 14.2448C0.765091 14.2353 0.784973 14.2262 0.805052 14.2175C0.825184 14.209 0.845521 14.2009 0.866054 14.1932C0.886541 14.1856 0.907226 14.1785 0.928115 14.1718C0.949004 14.1652 0.970044 14.159 0.991235 14.1534C1.01243 14.1478 1.03375 14.1427 1.05519 14.1381C1.07658 14.1335 1.0981 14.1295 1.11975 14.1259C1.14139 14.1223 1.16311 14.1193 1.18491 14.1168C1.20671 14.1143 1.22856 14.1123 1.25045 14.1109C1.27236 14.1094 1.29427 14.1085 1.31622 14.1081C1.33817 14.1077 1.3601 14.1079 1.38199 14.1085C1.40394 14.1092 1.42587 14.1103 1.44776 14.1121C1.46961 14.1138 1.49141 14.1161 1.51315 14.1188C1.53495 14.1216 1.55665 14.1249 1.57824 14.1287C1.59984 14.1325 1.62134 14.1369 1.64272 14.1417C1.66407 14.1465 1.68531 14.1519 1.70645 14.1578C1.72754 14.1637 1.74849 14.1701 1.76927 14.177C1.79006 14.1839 1.81067 14.1912 1.8311 14.1991C1.85154 14.207 1.87174 14.2153 1.89173 14.2242C1.91176 14.233 1.93154 14.2424 1.95106 14.2522C1.97059 14.262 1.98987 14.2723 2.00888 14.283L16.3332 22.4061C16.3491 22.4149 16.3649 22.4241 16.3804 22.4337C16.396 22.4432 16.4114 22.453 16.4265 22.4632C16.4416 22.4733 16.4565 22.4837 16.4713 22.4945C16.486 22.5052 16.5004 22.5162 16.5147 22.5275C16.529 22.5388 16.543 22.5504 16.5567 22.5623C16.5705 22.5742 16.584 22.5864 16.5972 22.5988C16.6105 22.6112 16.6235 22.6239 16.6362 22.6369C16.6489 22.6498 16.6613 22.663 16.6735 22.6765C16.6857 22.6899 16.6976 22.7037 16.7092 22.7176C16.7207 22.7315 16.7321 22.7457 16.7431 22.7601C16.754 22.7745 16.7648 22.7891 16.7752 22.8039C16.7855 22.8188 16.7956 22.8338 16.8054 22.849C16.8151 22.8643 16.8246 22.8797 16.8337 22.8953C16.8428 22.9109 16.8516 22.9267 16.8601 22.9427C16.8685 22.9586 16.8766 22.9748 16.8844 22.9911C16.8922 23.0073 16.8996 23.0238 16.9067 23.0404C16.9137 23.057 16.9205 23.0738 16.9269 23.0907C16.9333 23.1075 16.9393 23.1245 16.945 23.1416C16.9507 23.1587 16.956 23.176 16.9609 23.1933C16.9658 23.2106 16.9704 23.228 16.9747 23.2456C16.9789 23.263 16.9828 23.2806 16.9862 23.2983C16.9897 23.316 16.9928 23.3338 16.9956 23.3516C16.9984 23.3693 17.0007 23.3872 17.0027 23.4051C17.0047 23.423 17.0063 23.4409 17.0075 23.4588C17.0088 23.4768 17.0096 23.4948 17.0102 23.5128C17.0106 23.5308 17.0107 23.5487 17.0105 23.5667C17.0102 23.5847 17.0096 23.6027 17.0086 23.6207C17.0075 23.6387 17.0061 23.6566 17.0043 23.6745C17.0026 23.6924 17.0004 23.7103 16.9979 23.7282C16.9954 23.7459 16.9925 23.7637 16.9893 23.7815C16.986 23.7992 16.9824 23.8168 16.9784 23.8344C16.9744 23.8519 16.9701 23.8694 16.9653 23.8868C16.9605 23.9042 16.9554 23.9215 16.95 23.9387C16.9445 23.9558 16.9387 23.9729 16.9325 23.9898C16.9264 24.0068 16.9199 24.0236 16.913 24.0403C16.9061 24.057 16.8988 24.0735 16.8913 24.0899C16.8837 24.1063 16.8758 24.1225 16.8676 24.1386C16.8593 24.1547 16.8507 24.1706 16.8418 24.1863C16.8329 24.202 16.8237 24.2176 16.8141 24.2329C16.8045 24.2483 16.7946 24.2634 16.7844 24.2784C16.7742 24.2933 16.7637 24.3081 16.7529 24.3226C16.7421 24.3371 16.731 24.3514 16.7195 24.3655C16.7081 24.3795 16.6964 24.3934 16.6844 24.407C16.6724 24.4206 16.6601 24.4339 16.6476 24.4471C16.635 24.4602 16.6221 24.4731 16.609 24.4857C16.5959 24.4982 16.5826 24.5106 16.569 24.5226C16.5554 24.5346 16.5415 24.5464 16.5275 24.5579C16.5133 24.5694 16.499 24.5806 16.4844 24.5915C16.4698 24.6024 16.455 24.613 16.44 24.6233C16.425 24.6337 16.4098 24.6437 16.3943 24.6534C16.3789 24.6631 16.3632 24.6725 16.3474 24.6815C16.3316 24.6906 16.3155 24.6994 16.2993 24.7078C16.2831 24.7162 16.2668 24.7243 16.2502 24.732C16.2337 24.7398 16.2171 24.7472 16.2002 24.7543C16.1833 24.7614 16.1664 24.768 16.1492 24.7745C16.1321 24.7809 16.1148 24.7869 16.0974 24.7926C16.0801 24.7984 16.0626 24.8036 16.045 24.8086C16.0273 24.8136 16.0096 24.8183 15.9918 24.8225C15.974 24.8268 15.9561 24.8308 15.9382 24.8343C15.9202 24.8378 15.9021 24.841 15.8841 24.8439C15.866 24.8467 15.8478 24.8491 15.8296 24.8512C15.8114 24.8533 15.7932 24.855 15.7749 24.8564C15.7567 24.8578 15.7384 24.8587 15.7201 24.8594C15.7017 24.86 15.6834 24.8602 15.665 24.8601ZM15.665 36.8282C15.6391 36.828 15.6132 36.8271 15.5872 36.8254C15.5613 36.8237 15.5355 36.8213 15.5097 36.8182C15.484 36.815 15.4583 36.8111 15.4328 36.8065C15.4073 36.8018 15.3819 36.7965 15.3567 36.7905C15.3315 36.7844 15.3064 36.7776 15.2816 36.7701C15.2569 36.7626 15.2323 36.7544 15.208 36.7455C15.1837 36.7366 15.1596 36.727 15.1358 36.7167C15.1121 36.7063 15.0886 36.6954 15.0655 36.6838C15.0425 36.6721 15.0197 36.6599 14.9973 36.6469C14.9749 36.634 14.953 36.6205 14.9314 36.6063C14.9099 36.5921 14.8887 36.5773 14.868 36.5619C14.8473 36.5465 14.8271 36.5305 14.8074 36.514C14.7876 36.4974 14.7683 36.4803 14.7496 36.4627C14.7309 36.445 14.7127 36.4268 14.6951 36.4081C14.6774 36.3895 14.6603 36.3702 14.6438 36.3505C14.6273 36.3308 14.6114 36.3108 14.5961 36.2902C14.583 36.2729 14.5705 36.2553 14.5583 36.2374C14.5461 36.2195 14.5345 36.2013 14.5232 36.1829C14.5119 36.1644 14.5012 36.1457 14.4909 36.1267C14.4806 36.1078 14.4707 36.0886 14.4614 36.0691C14.452 36.0497 14.4432 36.03 14.4349 36.0102C14.4265 35.9902 14.4186 35.9702 14.4112 35.95C14.4039 35.9297 14.397 35.9092 14.3907 35.8886C14.3844 35.8681 14.3786 35.8474 14.3733 35.8265C14.368 35.8056 14.3632 35.7847 14.3589 35.7635C14.3547 35.7424 14.351 35.7213 14.3478 35.7C14.3446 35.6787 14.342 35.6574 14.3399 35.636C14.3378 35.6146 14.3362 35.5931 14.3351 35.5716C14.334 35.5501 14.3335 35.5287 14.3336 35.5072C14.3337 35.4857 14.3342 35.4642 14.3353 35.4427C14.3365 35.4213 14.3381 35.3998 14.3403 35.3784C14.3424 35.357 14.3451 35.3357 14.3484 35.3144C14.3516 35.2931 14.3554 35.2719 14.3597 35.2509C14.364 35.2298 14.3689 35.2088 14.3742 35.1879C14.3796 35.1671 14.3854 35.1465 14.3919 35.1259C14.3982 35.1053 14.4051 35.0848 14.4125 35.0646C14.42 35.0444 14.4279 35.0243 14.4363 35.0045C14.4447 34.9847 14.4536 34.965 14.463 34.9456C14.4725 34.9262 14.4823 34.907 14.4927 34.888C14.5031 34.8691 14.5139 34.8504 14.5252 34.832C14.5364 34.8136 14.5482 34.7955 14.5604 34.7776C14.5726 34.7597 14.5852 34.7422 14.5983 34.7249C14.6114 34.7077 14.625 34.6908 14.6389 34.6742C14.6528 34.6576 14.6671 34.6413 14.6819 34.6254C14.6967 34.6096 14.7118 34.5941 14.7273 34.5789C14.7428 34.5637 14.7587 34.5489 14.775 34.5345C14.7913 34.5201 14.8078 34.5061 14.8248 34.4925C14.8418 34.4789 14.8591 34.4657 14.8767 34.453L25.4328 26.8023C25.4503 26.7897 25.4682 26.7776 25.4863 26.7659C25.5045 26.7543 25.5229 26.743 25.5416 26.7322C25.5603 26.7213 25.5793 26.7109 25.5985 26.701C25.6176 26.6912 25.6371 26.6817 25.6569 26.6727C25.6765 26.6637 25.6964 26.6553 25.7165 26.6472C25.7366 26.6393 25.7569 26.6317 25.7774 26.6246C25.7979 26.6176 25.8185 26.611 25.8393 26.605C25.8601 26.5989 25.881 26.5933 25.9021 26.5883C25.9233 26.5832 25.9445 26.5787 25.9657 26.5746C25.987 26.5705 26.0084 26.567 26.0299 26.564C26.0514 26.5609 26.073 26.5585 26.0945 26.5565C26.1161 26.5545 26.1378 26.5531 26.1595 26.5521C26.1812 26.5511 26.2028 26.5507 26.2246 26.5508C26.2463 26.5508 26.2679 26.5514 26.2896 26.5525C26.3113 26.5536 26.3329 26.5553 26.3545 26.5574C26.3761 26.5596 26.3976 26.5623 26.4191 26.5655C26.4406 26.5687 26.4619 26.5723 26.4832 26.5765C26.5044 26.5808 26.5256 26.5855 26.5467 26.5907C26.5677 26.5959 26.5886 26.6017 26.6093 26.6078C26.6301 26.6141 26.6507 26.6208 26.6712 26.628C26.6915 26.6352 26.7118 26.6428 26.7319 26.651C26.7519 26.6592 26.7718 26.6678 26.7914 26.677C26.811 26.6861 26.8303 26.6957 26.8495 26.7057C26.8686 26.7158 26.8875 26.7263 26.9061 26.7372C26.9247 26.7482 26.943 26.7596 26.9611 26.7714C26.9792 26.7833 26.9969 26.7955 27.0143 26.8082C27.0318 26.8209 27.0489 26.8339 27.0657 26.8475C27.0825 26.8609 27.0989 26.8748 27.1151 26.8891C27.1312 26.9034 27.1469 26.9181 27.1623 26.9331C27.1777 26.9482 27.1927 26.9636 27.2073 26.9793C27.2219 26.9951 27.2361 27.0111 27.2499 27.0276C27.2638 27.044 27.2772 27.0608 27.2901 27.0779C27.3032 27.0951 27.3159 27.1125 27.3282 27.1303C27.3404 27.1481 27.3523 27.1662 27.3636 27.1846C27.3749 27.2029 27.3858 27.2216 27.3962 27.2405C27.4066 27.2593 27.4165 27.2784 27.426 27.2978C27.4354 27.3172 27.4444 27.3367 27.4529 27.3566C27.4614 27.3763 27.4693 27.3963 27.4768 27.4165C27.4843 27.4367 27.4913 27.457 27.4977 27.4776C27.5042 27.4981 27.5101 27.5187 27.5156 27.5396C27.521 27.5604 27.5259 27.5813 27.5303 27.6023C27.5347 27.6233 27.5385 27.6445 27.5418 27.6657C27.5452 27.6869 27.548 27.7083 27.5502 27.7296C27.5525 27.7509 27.5543 27.7724 27.5554 27.7938C27.5566 27.8153 27.5573 27.8367 27.5574 27.8582C27.5574 27.8797 27.5571 27.9011 27.5561 27.9226C27.5551 27.944 27.5536 27.9655 27.5516 27.9869C27.5496 28.0082 27.5471 28.0295 27.544 28.0508C27.5409 28.0721 27.5372 28.0933 27.5331 28.1143C27.5289 28.1354 27.5243 28.1564 27.5191 28.1773C27.5138 28.1982 27.5082 28.2188 27.5019 28.2394C27.4957 28.26 27.4889 28.2804 27.4817 28.3007C27.4744 28.321 27.4666 28.341 27.4584 28.3609C27.4501 28.3808 27.4414 28.4005 27.4321 28.4199C27.4229 28.4394 27.4132 28.4586 27.403 28.4777C27.3927 28.4966 27.3821 28.5153 27.3709 28.5339C27.3598 28.5524 27.3482 28.5705 27.3361 28.5884C27.3241 28.6063 27.3116 28.624 27.2987 28.6413C27.2857 28.6587 27.2724 28.6756 27.2586 28.6923C27.2448 28.709 27.2306 28.7253 27.216 28.7413C27.2014 28.7573 27.1864 28.7729 27.1711 28.7882C27.1557 28.8034 27.14 28.8184 27.1238 28.8329C27.1077 28.8474 27.0912 28.8614 27.0744 28.8752C27.0575 28.8889 27.0404 28.9022 27.0229 28.9151L16.44 36.5658C16.4123 36.5862 16.3837 36.6056 16.3544 36.6239C16.3251 36.6422 16.2951 36.6594 16.2644 36.6753C16.2337 36.6913 16.2025 36.7061 16.1706 36.7197C16.1387 36.7333 16.1064 36.7457 16.0736 36.7568C16.0407 36.7679 16.0075 36.7778 15.9739 36.7863C15.9402 36.7949 15.9063 36.8021 15.8722 36.8082C15.838 36.8142 15.8036 36.8188 15.769 36.8221C15.7344 36.8255 15.6998 36.8276 15.665 36.8282ZM26.2212 59.0584C26.1993 59.0584 26.1775 59.0579 26.1556 59.0569C26.1337 59.0558 26.1119 59.0543 26.0902 59.0521C26.0684 59.05 26.0467 59.0474 26.0251 59.0442C26.0035 59.041 25.9819 59.0374 25.9605 59.0332C25.9391 59.029 25.9177 59.0243 25.8965 59.0191C25.8753 59.0139 25.8542 59.0082 25.8333 59.002C25.8123 58.9957 25.7916 58.9889 25.771 58.9817C25.7504 58.9745 25.73 58.9668 25.7098 58.9585C25.6896 58.9503 25.6696 58.9416 25.6499 58.9325C25.6301 58.9233 25.6106 58.9136 25.5913 58.9035C25.572 58.8934 25.5529 58.8828 25.5342 58.8717C25.5155 58.8607 25.497 58.8492 25.4788 58.8373C25.4606 58.8253 25.4427 58.813 25.4252 58.8002C25.4076 58.7874 25.3904 58.7742 25.3735 58.7606C25.3566 58.747 25.34 58.733 25.3238 58.7185C25.3076 58.704 25.2918 58.6892 25.2763 58.6741C25.2609 58.6589 25.2458 58.6434 25.2311 58.6274C25.2164 58.6115 25.2021 58.5952 25.1883 58.5786C25.1744 58.5621 25.161 58.5451 25.1479 58.5279C25.1349 58.5106 25.1223 58.4931 25.1101 58.4753C25.098 58.4573 25.0863 58.4392 25.0751 58.4208C25.0638 58.4024 25.053 58.3838 25.0428 58.3648C25.0324 58.3458 25.0225 58.3267 25.0132 58.3073C25.0039 58.2879 24.9951 58.2682 24.9867 58.2483C24.9783 58.2285 24.9704 58.2085 24.9631 58.1883C24.9557 58.1681 24.9488 58.1477 24.9425 58.1271C24.9361 58.1065 24.9303 58.0858 24.925 58.065C24.9197 58.0441 24.9149 58.0232 24.9106 58.0022C24.9064 57.9811 24.9027 57.9599 24.8994 57.9387C24.8962 57.9175 24.8935 57.8962 24.8914 57.8748C24.8893 57.8534 24.8877 57.832 24.8865 57.8105C24.8855 57.789 24.885 57.7676 24.885 57.7462L24.885 41.5C24.885 41.4785 24.8855 41.4571 24.8865 41.4356C24.8877 41.4141 24.8893 41.3927 24.8914 41.3714C24.8935 41.35 24.8962 41.3286 24.8994 41.3074C24.9027 41.2862 24.9064 41.265 24.9106 41.244C24.9149 41.2229 24.9197 41.2019 24.925 41.1811C24.9303 41.1603 24.9361 41.1396 24.9425 41.119C24.9488 41.0984 24.9557 41.0781 24.9631 41.0579C24.9704 41.0376 24.9783 41.0177 24.9867 40.9978C24.9951 40.978 25.0039 40.9583 25.0132 40.9389C25.0225 40.9195 25.0324 40.9003 25.0428 40.8813C25.053 40.8624 25.0638 40.8437 25.0751 40.8253C25.0863 40.8069 25.098 40.7888 25.1101 40.7709C25.1223 40.753 25.1349 40.7355 25.1479 40.7183C25.161 40.701 25.1744 40.6841 25.1883 40.6675C25.2021 40.6509 25.2164 40.6346 25.2311 40.6187C25.2458 40.6027 25.2609 40.5872 25.2763 40.572C25.2918 40.5568 25.3076 40.542 25.3238 40.5276C25.34 40.5132 25.3566 40.4991 25.3735 40.4855C25.3904 40.4719 25.4076 40.4587 25.4252 40.4459C25.4427 40.4331 25.4606 40.4208 25.4788 40.4088C25.497 40.3969 25.5155 40.3854 25.5342 40.3744C25.5529 40.3633 25.572 40.3528 25.5913 40.3426C25.6106 40.3325 25.6301 40.3228 25.6499 40.3137C25.6696 40.3045 25.6896 40.2958 25.7098 40.2876C25.73 40.2793 25.7504 40.2716 25.771 40.2644C25.7916 40.2572 25.8123 40.2504 25.8333 40.2442C25.8542 40.2379 25.8753 40.2322 25.8965 40.227C25.9177 40.2218 25.9391 40.2171 25.9605 40.2129C25.9819 40.2087 26.0035 40.205 26.0251 40.2019C26.0467 40.1987 26.0684 40.1961 26.0902 40.194C26.1119 40.1919 26.1337 40.1903 26.1556 40.1893C26.1775 40.1882 26.1993 40.1877 26.2212 40.1877C26.243 40.1877 26.2649 40.1882 26.2868 40.1893C26.3086 40.1903 26.3304 40.1919 26.3522 40.194C26.3739 40.1961 26.3956 40.1987 26.4173 40.2019C26.4389 40.205 26.4605 40.2087 26.4819 40.2129C26.5033 40.2171 26.5246 40.2218 26.5458 40.227C26.567 40.2322 26.5881 40.2379 26.609 40.2442C26.63 40.2504 26.6507 40.2572 26.6713 40.2644C26.6919 40.2716 26.7123 40.2793 26.7326 40.2876C26.7528 40.2958 26.7727 40.3045 26.7925 40.3137C26.8122 40.3228 26.8318 40.3325 26.8511 40.3426C26.8704 40.3528 26.8894 40.3633 26.9081 40.3744C26.9269 40.3854 26.9454 40.3969 26.9635 40.4088C26.9817 40.4208 26.9996 40.4331 27.0171 40.4459C27.0348 40.4587 27.052 40.4719 27.0689 40.4855C27.0858 40.4991 27.1023 40.5132 27.1185 40.5276C27.1347 40.542 27.1506 40.5568 27.166 40.572C27.1815 40.5872 27.1966 40.6027 27.2113 40.6187C27.2259 40.6346 27.2402 40.6509 27.2541 40.6675C27.2679 40.6841 27.2814 40.701 27.2944 40.7183C27.3074 40.7355 27.32 40.753 27.3322 40.7709C27.3444 40.7888 27.356 40.8069 27.3673 40.8253C27.3785 40.8437 27.3893 40.8624 27.3996 40.8813C27.4099 40.9003 27.4198 40.9195 27.4291 40.9389C27.4385 40.9583 27.4473 40.978 27.4556 40.9978C27.464 41.0177 27.4719 41.0376 27.4793 41.0579C27.4866 41.0781 27.4935 41.0984 27.4998 41.119C27.5062 41.1396 27.512 41.1603 27.5173 41.1811C27.5227 41.2019 27.5275 41.2229 27.5317 41.244C27.536 41.265 27.5397 41.2862 27.5429 41.3074C27.5462 41.3286 27.5488 41.35 27.5509 41.3714C27.5531 41.3927 27.5547 41.4141 27.5558 41.4356C27.5568 41.4571 27.5574 41.4785 27.5574 41.5L27.5574 57.7462C27.5574 57.7676 27.5568 57.789 27.5558 57.8105C27.5547 57.832 27.5531 57.8534 27.5509 57.8748C27.5488 57.8962 27.5462 57.9175 27.5429 57.9387C27.5397 57.9599 27.536 57.9811 27.5317 58.0022C27.5275 58.0232 27.5227 58.0441 27.5173 58.065C27.512 58.0858 27.5062 58.1065 27.4998 58.1271C27.4935 58.1477 27.4866 58.1681 27.4793 58.1883C27.4719 58.2085 27.464 58.2285 27.4556 58.2483C27.4473 58.2682 27.4385 58.2878 27.4291 58.3072C27.4198 58.3266 27.4099 58.3458 27.3996 58.3648C27.3893 58.3838 27.3785 58.4024 27.3673 58.4208C27.356 58.4392 27.3444 58.4573 27.3322 58.4753C27.32 58.4931 27.3074 58.5106 27.2944 58.5279C27.2814 58.5451 27.2679 58.5621 27.2541 58.5786C27.2402 58.5952 27.2259 58.6115 27.2113 58.6274C27.1966 58.6434 27.1815 58.6589 27.166 58.6741C27.1506 58.6892 27.1347 58.704 27.1185 58.7185C27.1023 58.733 27.0858 58.747 27.0689 58.7606C27.052 58.7742 27.0348 58.7874 27.0171 58.8002C26.9996 58.813 26.9817 58.8253 26.9635 58.8373C26.9454 58.8492 26.9269 58.8607 26.9081 58.8717C26.8894 58.8828 26.8704 58.8934 26.8511 58.9035C26.8318 58.9136 26.8122 58.9233 26.7925 58.9325C26.7727 58.9416 26.7528 58.9503 26.7326 58.9585C26.7123 58.9668 26.6919 58.9745 26.6713 58.9817C26.6507 58.9889 26.63 58.9957 26.609 59.002C26.5881 59.0082 26.567 59.0139 26.5458 59.0191C26.5246 59.0243 26.5033 59.029 26.4819 59.0332C26.4605 59.0374 26.4389 59.041 26.4173 59.0442C26.3956 59.0474 26.3739 59.05 26.3522 59.0521C26.3304 59.0543 26.3086 59.0558 26.2868 59.0569C26.2649 59.0579 26.243 59.0584 26.2212 59.0584Z"></path><path id="路径 4" fill-rule="evenodd" style="fill:#AAC0E6" opacity="1" d="M36.7773 36.8284C36.7415 36.8284 36.7057 36.8269 36.67 36.8241C36.6342 36.8212 36.5986 36.817 36.5633 36.8114C36.528 36.8058 36.4928 36.7987 36.458 36.7903C36.4232 36.7819 36.3888 36.7721 36.3548 36.761C36.3208 36.7499 36.2873 36.7374 36.2543 36.7236C36.2213 36.7099 36.1889 36.6948 36.1572 36.6784C36.1255 36.6621 36.0944 36.6445 36.0641 36.6257C36.0337 36.6069 36.0043 36.587 35.9756 36.5659L25.4329 28.9152C25.4117 28.9 25.391 28.8842 25.3708 28.8678C25.3505 28.8514 25.3308 28.8344 25.3116 28.8169C25.2923 28.7993 25.2736 28.7813 25.2555 28.7626C25.2374 28.7439 25.2198 28.7248 25.2028 28.7052C25.1858 28.6855 25.1694 28.6655 25.1537 28.6449C25.1379 28.6243 25.1227 28.6032 25.1082 28.5818C25.0937 28.5603 25.0798 28.5384 25.0667 28.5162C25.0534 28.4939 25.0409 28.4712 25.029 28.4483C25.0172 28.4253 25.006 28.402 24.9956 28.3783C24.9851 28.3547 24.9754 28.3307 24.9664 28.3066C24.9573 28.2824 24.9491 28.258 24.9415 28.2332C24.934 28.2086 24.9272 28.1837 24.9211 28.1586C24.9151 28.1336 24.9098 28.1083 24.9052 28.0829C24.9007 28.0576 24.8969 28.0321 24.8939 28.0065C24.8908 27.9809 24.8886 27.9552 24.8871 27.9295C24.8857 27.9037 24.885 27.878 24.885 27.8522L24.885 17.5639C24.885 17.5424 24.8855 17.5209 24.8866 17.4994C24.8877 17.478 24.8893 17.4566 24.8914 17.4352C24.8936 17.4139 24.8962 17.3926 24.8995 17.3713C24.9027 17.35 24.9064 17.3289 24.9107 17.3078C24.915 17.2868 24.9198 17.2658 24.9251 17.245C24.9303 17.2241 24.9362 17.2035 24.9425 17.1829C24.9489 17.1624 24.9558 17.142 24.9631 17.1218C24.9705 17.1016 24.9784 17.0815 24.9867 17.0616C24.9951 17.0418 25.004 17.0222 25.0133 17.0028C25.0226 16.9833 25.0325 16.9642 25.0428 16.9452C25.0531 16.9263 25.0639 16.9076 25.0751 16.8892C25.0864 16.8708 25.0981 16.8526 25.1102 16.8348C25.1223 16.8169 25.1349 16.7994 25.1479 16.7821C25.161 16.7648 25.1745 16.7479 25.1884 16.7313C25.2022 16.7147 25.2165 16.6985 25.2312 16.6826C25.2459 16.6667 25.2609 16.6511 25.2764 16.636C25.2919 16.6207 25.3077 16.6059 25.3239 16.5915C25.3401 16.5771 25.3566 16.5631 25.3736 16.5494C25.3905 16.5358 25.4077 16.5226 25.4252 16.5098C25.4428 16.497 25.4607 16.4847 25.4788 16.4727C25.497 16.4608 25.5155 16.4493 25.5343 16.4382C25.553 16.4272 25.572 16.4166 25.5914 16.4065C25.6106 16.3964 25.6302 16.3868 25.65 16.3776C25.6697 16.3684 25.6897 16.3596 25.7099 16.3514C25.7301 16.3432 25.7505 16.3355 25.771 16.3282C25.7916 16.321 25.8124 16.3143 25.8333 16.3081C25.8543 16.3018 25.8753 16.2961 25.8965 16.2909C25.9178 16.2857 25.9391 16.281 25.9606 16.2768C25.982 16.2726 26.0036 16.2689 26.0252 16.2658C26.0468 16.2626 26.0685 16.26 26.0903 16.2579C26.112 16.2558 26.1338 16.2542 26.1557 16.2532C26.1775 16.2521 26.1994 16.2515 26.2212 16.2515C26.2431 16.2515 26.265 16.2521 26.2868 16.2532C26.3086 16.2542 26.3304 16.2558 26.3522 16.2578C26.374 16.26 26.3957 16.2626 26.4173 16.2658C26.439 16.2689 26.4605 16.2726 26.4819 16.2768C26.5034 16.281 26.5247 16.2857 26.5459 16.2909C26.5671 16.2961 26.5882 16.3018 26.6091 16.3081C26.63 16.3143 26.6508 16.321 26.6714 16.3282C26.692 16.3355 26.7124 16.3432 26.7326 16.3514C26.7528 16.3596 26.7728 16.3684 26.7926 16.3776C26.8123 16.3868 26.8319 16.3964 26.8511 16.4065C26.8704 16.4166 26.8894 16.4272 26.9082 16.4382C26.927 16.4493 26.9454 16.4608 26.9636 16.4727C26.9818 16.4847 26.9996 16.497 27.0172 16.5098C27.0348 16.5226 27.0521 16.5358 27.069 16.5494C27.0859 16.5631 27.1024 16.5771 27.1186 16.5915C27.1348 16.6059 27.1506 16.6207 27.1661 16.636C27.1815 16.6511 27.1966 16.6667 27.2113 16.6826C27.226 16.6985 27.2403 16.7147 27.2542 16.7313C27.268 16.7479 27.2815 16.7648 27.2945 16.7821C27.3075 16.7994 27.3201 16.8169 27.3323 16.8348C27.3444 16.8526 27.3561 16.8708 27.3674 16.8892C27.3786 16.9076 27.3894 16.9263 27.3997 16.9452C27.41 16.9642 27.4198 16.9833 27.4291 17.0028C27.4385 17.0222 27.4474 17.0418 27.4557 17.0616C27.4641 17.0815 27.4719 17.1016 27.4793 17.1218C27.4867 17.142 27.4935 17.1624 27.4999 17.1829C27.5063 17.2035 27.5121 17.2241 27.5174 17.245C27.5227 17.2658 27.5275 17.2868 27.5318 17.3078C27.5361 17.3289 27.5398 17.35 27.543 17.3713C27.5462 17.3926 27.5489 17.4139 27.551 17.4352C27.5532 17.4566 27.5548 17.478 27.5558 17.4994C27.5569 17.5209 27.5574 17.5424 27.5574 17.5639L27.5574 27.1961L37.5657 34.4531C37.5834 34.4658 37.6006 34.479 37.6176 34.4926C37.6345 34.5062 37.6511 34.5202 37.6674 34.5346C37.6837 34.549 37.6996 34.5638 37.7151 34.579C37.7306 34.5942 37.7457 34.6097 37.7605 34.6255C37.7752 34.6414 37.7896 34.6577 37.8035 34.6743C37.8175 34.6909 37.8309 34.7078 37.844 34.7251C37.8571 34.7423 37.8698 34.7598 37.882 34.7777C37.8941 34.7956 37.9059 34.8137 37.9172 34.8321C37.9285 34.8505 37.9393 34.8692 37.9497 34.8881C37.9601 34.9071 37.97 34.9263 37.9794 34.9457C37.9887 34.9651 37.9977 34.9848 38.0061 35.0046C38.0145 35.0245 38.0224 35.0445 38.0298 35.0647C38.0373 35.085 38.0441 35.1053 38.0506 35.1259C38.0569 35.1465 38.0628 35.1672 38.0681 35.1881C38.0735 35.2089 38.0784 35.2299 38.0827 35.251C38.087 35.272 38.0908 35.2932 38.094 35.3145C38.0973 35.3357 38.0999 35.3571 38.1021 35.3785C38.1043 35.3999 38.106 35.4213 38.1071 35.4428C38.1082 35.4643 38.1087 35.4858 38.1088 35.5073C38.1088 35.5288 38.1083 35.5503 38.1073 35.5717C38.1062 35.5932 38.1046 35.6147 38.1025 35.6361C38.1004 35.6575 38.0977 35.6789 38.0945 35.7001C38.0914 35.7214 38.0877 35.7426 38.0834 35.7637C38.0792 35.7848 38.0744 35.8057 38.0691 35.8266C38.0638 35.8475 38.058 35.8682 38.0516 35.8888C38.0453 35.9093 38.0385 35.9298 38.0311 35.9501C38.0238 35.9703 38.0159 35.9904 38.0076 36.0103C37.9992 36.0301 37.9903 36.0498 37.981 36.0692C37.9716 36.0887 37.9618 36.1079 37.9515 36.1268C37.9412 36.1458 37.9305 36.1645 37.9192 36.183C37.9079 36.2015 37.8963 36.2196 37.8841 36.2375C37.872 36.2554 37.8594 36.273 37.8463 36.2903C37.831 36.3109 37.8151 36.331 37.7985 36.3507C37.782 36.3704 37.7649 36.3896 37.7473 36.4082C37.7297 36.4269 37.7115 36.4451 37.6927 36.4628C37.674 36.4804 37.6548 36.4975 37.6351 36.5141C37.6153 36.5307 37.595 36.5466 37.5744 36.562C37.5537 36.5774 37.5326 36.5922 37.511 36.6064C37.4895 36.6206 37.4674 36.6341 37.4451 36.6471C37.4227 36.66 37.3999 36.6723 37.3768 36.6839C37.3537 36.6955 37.3303 36.7065 37.3066 36.7168C37.2828 36.7271 37.2588 36.7367 37.2345 36.7456C37.2102 36.7545 37.1856 36.7627 37.1608 36.7702C37.1359 36.7777 37.1109 36.7845 37.0857 36.7906C37.0605 36.7966 37.0351 36.802 37.0096 36.8066C36.9841 36.8113 36.9585 36.8151 36.9326 36.8183C36.9068 36.8214 36.881 36.8238 36.8551 36.8255C36.8293 36.8272 36.8033 36.8281 36.7773 36.8284Z"></path></g></svg>