<svg xmlns="http://www.w3.org/2000/svg" xmlns:xlink="http://www.w3.org/1999/xlink" width="51.6085205078125" height="59.3311767578125" viewBox="0 0 51.6085205078125 59.3311767578125" fill="none"><g opacity="1"  transform="translate(0 0.00006103515625)  rotate(0)"><path id="路径 1" fill-rule="evenodd" style="fill:#AAC0E6" opacity="1" d="M51.5775 26.6522C51.5775 25.0785 50.6518 22.8686 46.1775 21.2949C43.2769 20.2905 39.4814 19.7213 35.4391 19.7213C31.3968 19.7213 27.6322 20.2905 24.7316 21.2949C20.2573 22.8686 19.3315 25.0785 19.3315 26.6522L19.3315 43.6278C19.3315 43.7617 19.3316 43.9292 19.3624 44.0631C19.3316 44.1635 19.3315 44.264 19.3315 44.3644L19.3315 52.4003C19.3315 53.9739 20.2573 56.1837 24.7316 57.7574C27.6322 58.7619 31.4277 59.3311 35.47 59.3311C39.5123 59.3311 43.3077 58.7619 46.2083 57.7574C50.6826 56.1837 51.6083 53.9739 51.6083 52.4003L51.6083 44.3644C51.6083 44.264 51.6084 44.1635 51.5775 44.0631C51.6084 43.9292 51.6083 43.7617 51.6083 43.6278L51.6083 35.592L51.6083 35.4246L51.6083 27.1544L51.6083 26.9535C51.5775 26.853 51.5775 26.7526 51.5775 26.6522ZM35.47 55.6146C31.798 55.6146 28.3418 55.1123 25.7807 54.2083C23.4664 53.4047 22.7875 52.5342 22.7258 52.3668L22.7258 48.081C23.3121 48.3823 23.991 48.6837 24.7316 48.9515C27.6322 49.956 31.4277 50.5252 35.47 50.5252C39.5123 50.5252 43.3077 49.956 46.2083 48.9515C46.9489 48.6837 47.6278 48.4158 48.2141 48.081L48.2141 52.3333C48.1832 52.5007 47.5043 53.3712 45.1592 54.2083C42.5672 55.1123 39.142 55.6146 35.47 55.6146ZM35.47 46.8421C31.798 46.8421 28.3418 46.3399 25.7807 45.4358C23.4664 44.6323 22.7875 43.7618 22.7258 43.5943L22.7258 39.6434C23.3121 39.9447 23.991 40.2461 24.7316 40.5139C27.6322 41.5184 31.4277 42.0876 35.47 42.0876C39.5123 42.0876 43.3077 41.5184 46.2083 40.5139C46.9489 40.2461 47.6278 39.9782 48.2141 39.6434L48.2141 43.5609C48.1523 43.7617 47.4426 44.5988 45.1592 45.4024C42.5672 46.3399 39.142 46.8421 35.47 46.8421ZM35.47 38.438C31.798 38.438 28.3418 37.9358 25.7807 37.0317C23.4664 36.2282 22.7875 35.3576 22.7258 35.1902L22.7258 31.1388C23.3121 31.4402 23.991 31.7415 24.7316 32.0093C27.6322 33.0138 31.4277 33.583 35.47 33.583C39.5123 33.583 43.3077 33.0138 46.2083 32.0093C46.9489 31.7415 47.6278 31.4737 48.2141 31.1388L48.2141 35.1902C48.1523 35.3911 47.4426 36.2282 45.1592 37.0317C42.5672 37.9358 39.142 38.438 35.47 38.438ZM25.7807 24.8106C28.3418 23.9066 31.7671 23.4044 35.47 23.4044C39.142 23.4044 42.598 23.9066 45.1592 24.8106C47.3501 25.5807 48.0906 26.4178 48.1832 26.6522C48.0906 26.8865 47.3501 27.6901 45.1592 28.4937C42.598 29.3977 39.1729 29.9 35.47 29.9C31.7671 29.9 28.3418 29.3977 25.7807 28.4937C23.5898 27.7236 22.8493 26.8865 22.7567 26.6522C22.8493 26.4178 23.5898 25.5807 25.7807 24.8106Z"></path><path id="路径 2" fill-rule="evenodd" style="fill:#AAC0E6" opacity="1" d="M45.4371 -4.70889e-05L3.1783 -6.10352e-05C1.41944 -6.10352e-05 0 1.54014 0 3.44864L0 21.1609C0 23.0694 1.41944 24.6096 3.1783 24.6096L16.5238 24.6096C17.573 24.6096 18.4061 23.7056 18.4061 22.5672C18.4061 21.4288 17.573 20.5247 16.5238 20.5247L3.76459 20.5247L3.76459 4.08481L44.8817 4.08481L44.8817 17.9466C44.8817 19.085 45.7149 19.9891 46.764 19.9891C47.8132 19.9891 48.6463 19.085 48.6463 17.9466L48.6463 3.44863C48.6463 1.54012 47.196 -4.70889e-05 45.4371 -4.70889e-05ZM16.5547 35.4245C17.6039 35.4245 18.437 34.5205 18.437 33.3821C18.437 32.2437 17.6039 31.3396 16.5547 31.3396L3.1783 31.3396C1.41944 31.3396 0 32.8798 0 34.7883L0 52.5341C0 54.4426 1.41944 55.9828 3.1783 55.9828L16.5238 55.9828C17.573 55.9828 18.4061 55.0788 18.4061 53.9403C18.4061 52.8019 17.573 51.8979 16.5238 51.8979L3.76459 51.8979L3.76459 35.4245L16.5547 35.4245Z"></path></g></svg>