<svg xmlns="http://www.w3.org/2000/svg" xmlns:xlink="http://www.w3.org/1999/xlink" width="51.5123291015625" height="58.65191650390625" viewBox="0 0 51.5123291015625 58.65191650390625" fill="none"><g opacity="1"  transform="translate(0 0)  rotate(0)"><path id="路径 1" fill-rule="evenodd" style="fill:#AAC0E6" opacity="1" d="M30.7827 9.11205L31.94 7.11045L41.7977 13.1037L40.6403 15.1053L30.7827 9.11205ZM45.4989 23.9729L47.7681 23.9729L47.7681 35.1447L45.4989 35.1447L45.4989 23.9729ZM3.74427 23.9729L6.01355 23.9729L6.01355 35.1447L3.74427 35.1447L3.74427 23.9729ZM9.78055 13.1805L19.6394 7.18956L20.7967 9.19122L10.9367 15.1832L9.78055 13.1805ZM24.6216 10.0081L24.6216 12.6847L26.8908 12.6847L26.8908 10.0081C28.9332 9.42625 30.5217 7.56431 30.5217 5.23685C30.5217 2.56027 28.3659 0.349182 25.7562 0.349182C23.1465 0.349182 20.9907 2.56027 20.9907 5.23685C20.9907 7.6807 22.5792 9.54263 24.6216 10.0081ZM25.7562 2.79301C27.1178 2.79301 28.2524 3.95674 28.2524 5.35322C28.2524 6.74971 27.1178 7.91342 25.7562 7.91342C24.3946 7.91342 23.26 6.74971 23.26 5.35322C23.26 3.95674 24.3946 2.79301 25.7562 2.79301ZM26.8908 48.993L26.8908 46.3165L24.6216 46.3165L24.6216 48.993C22.5792 49.5749 20.9907 51.4369 20.9907 53.7644C20.9907 56.441 23.1465 58.6519 25.7562 58.6519C28.3659 58.6519 30.5217 56.441 30.5217 53.7644C30.5217 51.4369 29.0467 49.5749 26.8908 48.9931L26.8908 48.993ZM25.7562 56.3246C24.3946 56.3246 23.26 55.1608 23.26 53.7644C23.26 52.3679 24.3946 51.2041 25.7562 51.2041C27.1178 51.2041 28.2524 52.3679 28.2524 53.7644C28.2524 55.1608 27.1177 56.3246 25.7562 56.3246ZM46.6335 36.7739C45.1585 36.7739 43.9104 37.4722 43.1161 38.4032L40.9603 36.8903L39.7122 38.8686L42.0949 40.4979C41.9815 40.847 41.9815 41.1961 41.9815 41.6616C41.9815 44.3382 44.1373 46.5492 46.747 46.5492C49.3566 46.5492 51.5124 44.3382 51.5124 41.6616C51.3989 38.985 49.3566 36.7739 46.6335 36.7739L46.6335 36.7739ZM46.6335 44.2218C45.2719 44.2218 44.1373 43.0581 44.1373 41.6616C44.1373 40.2651 45.2719 39.1014 46.6335 39.1014C47.9951 39.1014 49.1297 40.2651 49.1297 41.6616C49.1297 43.0581 48.1085 44.2218 46.6335 44.2218ZM4.87895 22.3437C6.35393 22.3437 7.60203 21.6454 8.39627 20.7145L10.5521 22.2273L11.8002 20.249L9.41747 18.6198C9.53089 18.2706 9.53089 17.9215 9.53089 17.456C9.53089 14.7794 7.37513 12.5683 4.76547 12.5683C2.1558 12.5683 0 14.7794 0 17.456C0 20.1326 2.26927 22.3437 4.87895 22.3437ZM4.87895 14.8958C6.24045 14.8958 7.37513 16.0595 7.37513 17.456C7.37513 18.8525 6.24045 20.0162 4.87895 20.0162C3.51737 20.0162 2.38273 18.8525 2.38273 17.456C2.38273 16.0595 3.51737 14.8958 4.87895 14.8958ZM26.6639 13.4993C26.3235 13.4993 26.0966 13.3829 25.7562 13.3829C25.4158 13.3829 25.1889 13.3829 24.8485 13.4993C16.6791 13.9648 10.0982 20.9472 10.0982 29.5588C10.0982 38.4032 17.133 45.6182 25.7562 45.6182C34.3794 45.6182 41.4142 38.4032 41.4142 29.5588C41.4142 20.9472 34.9468 13.9648 26.6639 13.4993ZM37.4429 22.8092L33.4717 22.8092C32.9044 20.4817 32.1101 18.5034 31.089 16.9905C33.8121 18.1543 35.9679 20.1326 37.4429 22.8092ZM39.1449 29.5588C39.1449 31.0716 38.918 32.5845 38.4641 33.981L33.9256 33.981C34.1525 32.5845 34.266 31.0716 34.266 29.5588C34.266 28.0459 34.1525 26.5331 33.9256 25.1366L38.4641 25.1366C38.918 26.5331 39.1449 28.0459 39.1449 29.5588ZM12.3675 29.5588C12.3675 28.0459 12.5944 26.5331 13.0483 25.1366L17.5868 25.1366C17.3599 26.5331 17.2465 28.0459 17.2465 29.5588C17.2465 31.0716 17.3599 32.5845 17.5868 33.981L13.0483 33.981C12.7079 32.5845 12.3675 31.0716 12.3675 29.5588ZM19.6292 29.5588C19.6292 28.0459 19.7426 26.5331 19.9696 25.1366L24.6216 25.1366L24.6216 33.981L19.9696 33.981C19.7426 32.5845 19.6292 31.0716 19.6292 29.5588ZM26.8908 16.0595C28.4793 16.8742 30.1813 19.318 31.089 22.8092L26.8908 22.8092L26.8908 16.0595ZM24.6216 16.0595L24.6216 22.8092L20.4234 22.8092C21.4446 19.318 23.033 16.8742 24.6216 16.0595ZM24.6216 36.3084L24.6216 42.9417C23.033 42.1271 21.4446 39.6833 20.4234 36.1921L24.6216 36.1921L24.6216 36.3084ZM26.8908 42.9417L26.8908 36.1921L31.089 36.1921C30.1813 39.7996 28.5928 42.2435 26.8908 42.9417ZM26.8908 33.981L26.8908 25.1366L31.5429 25.1366C31.7698 26.5331 31.8832 27.9295 31.8832 29.5588C31.8832 31.188 31.7698 32.5845 31.5429 33.981L26.8908 33.981ZM20.5369 16.8742C19.5157 18.387 18.7215 20.4817 18.1541 22.6928L14.1829 22.6928C15.5445 20.1326 17.8137 18.1543 20.5369 16.8742ZM14.1829 36.3084L18.1541 36.3084C18.7215 38.6359 19.5157 40.6142 20.5369 42.2435C17.8137 40.9634 15.6579 38.8687 14.1829 36.3084ZM30.9755 42.1271C31.9967 40.6142 32.791 38.5195 33.3582 36.1921L37.3295 36.1921C35.9679 38.8687 33.6986 40.9634 30.9755 42.1271ZM11.9137 38.8686L10.6656 36.8903L8.50975 38.4032C8.48245 38.3712 8.45475 38.3395 8.42661 38.3083C8.39852 38.277 8.36998 38.2462 8.34099 38.2157C8.31212 38.1852 8.28279 38.1552 8.25307 38.1256C8.22336 38.0959 8.19324 38.0667 8.1628 38.0379C8.13235 38.009 8.10145 37.9806 8.07022 37.9526C8.03904 37.9246 8.00746 37.8971 7.9755 37.87C7.94359 37.8429 7.91134 37.8162 7.87865 37.79C7.84607 37.7638 7.81309 37.738 7.77978 37.7126C7.74652 37.6873 7.71287 37.6624 7.67888 37.638C7.64495 37.6137 7.61074 37.5897 7.57613 37.5662C7.54158 37.5428 7.5067 37.5198 7.47153 37.4973C7.43636 37.4748 7.40086 37.4527 7.36513 37.4312C7.3294 37.4096 7.29339 37.3886 7.25704 37.368C7.22075 37.3475 7.18424 37.3275 7.14738 37.3079C7.11059 37.2884 7.07351 37.2693 7.03621 37.2508C6.99891 37.2323 6.96138 37.2143 6.92357 37.1967C6.88582 37.1793 6.84779 37.1623 6.80953 37.1458C6.77133 37.1294 6.7329 37.1134 6.69425 37.098C6.6556 37.0827 6.61678 37.0677 6.57774 37.0534C6.53875 37.039 6.49954 37.0253 6.4601 37.012C6.42072 36.9987 6.38118 36.986 6.34146 36.9738C6.30174 36.9617 6.26185 36.95 6.22186 36.9389C6.18186 36.9278 6.14169 36.9173 6.10135 36.9073C6.06107 36.8974 6.02063 36.8879 5.98007 36.879C5.93956 36.8702 5.89895 36.8619 5.85816 36.8541C5.81738 36.8463 5.77653 36.8391 5.73558 36.8325C5.69463 36.8259 5.65362 36.8197 5.61252 36.8142C5.5714 36.8087 5.53022 36.8037 5.48898 36.7994C5.44775 36.795 5.40647 36.7912 5.36517 36.7879C5.32382 36.7846 5.28243 36.7819 5.24101 36.7798C5.19963 36.7777 5.15821 36.7761 5.11675 36.7752C5.07529 36.7742 5.03383 36.7738 4.99237 36.7739C2.38273 36.7739 0.226924 38.985 0.226924 41.6616C0.226924 44.3381 2.38273 46.5492 4.99237 46.5492C7.60203 46.5492 9.75785 44.3381 9.75785 41.6616C9.75785 41.3125 9.64437 40.847 9.64437 40.4979L11.9137 38.8686ZM4.87895 44.2218C3.51737 44.2218 2.38273 43.0581 2.38273 41.6616C2.38273 40.2651 3.51737 39.1014 4.87895 39.1014C6.24045 39.1014 7.37513 40.2651 7.37513 41.6616C7.37513 43.0581 6.35393 44.2218 4.87895 44.2218ZM39.7122 20.1326L40.9603 22.1109L43.1161 20.5981C44.0238 21.6454 45.2719 22.2273 46.6335 22.2273C49.2432 22.2273 51.399 20.0162 51.399 17.3397C51.399 14.6631 49.2432 12.452 46.6335 12.452C44.0239 12.452 41.868 14.6631 41.868 17.3397C41.868 17.6888 41.9815 18.1543 41.9815 18.5034L39.7122 20.1326ZM46.6335 14.8958C47.9951 14.8958 49.1297 16.0595 49.1297 17.456C49.1297 18.8525 47.9951 20.0162 46.6335 20.0162C45.2719 20.0162 44.1373 18.8525 44.1373 17.456C44.1373 16.0595 45.2719 14.8958 46.6335 14.8958ZM30.769 50.4222L40.629 44.4312L41.7841 46.4329L31.9241 52.4249L30.769 50.4222ZM9.78959 46.3468L10.947 44.3452L20.8046 50.3384L19.6473 52.34L9.78959 46.3468Z"></path><path id="路径 2" fill-rule="evenodd" style="fill:#AAC0E6" opacity="1" d="M30.7883 8.76057L31.9456 6.75891L41.8033 12.7521L40.646 14.7537L30.7883 8.76057ZM45.4989 23.6237L47.7681 23.6237L47.7681 34.7955L45.4989 34.7955L45.4989 23.6237ZM3.74427 23.6237L6.01355 23.6237L6.01355 34.7955L3.74427 34.7955L3.74427 23.6237ZM9.78392 12.8301L19.6428 6.83923L20.8001 8.84083L10.9401 14.8329L9.78392 12.8301ZM24.6216 9.65895L24.6216 12.3355L26.8908 12.3355L26.8908 9.65895C28.9332 9.07706 30.5217 7.21513 30.5217 4.88766C30.5217 2.21109 28.3659 0 25.7562 0C23.1465 0 20.9907 2.21109 20.9907 4.88766C20.9907 7.21513 22.5792 9.19345 24.6216 9.65895ZM25.7562 2.44383C27.1178 2.44383 28.2524 3.60757 28.2524 5.00404C28.2524 6.40052 27.1178 7.56424 25.7562 7.56424C24.3946 7.56424 23.26 6.40052 23.26 5.00404C23.26 3.60756 24.3946 2.44383 25.7562 2.44383ZM26.8908 48.6439L26.8908 45.9673L24.6216 45.9673L24.6216 48.6439C22.5792 49.2258 20.9907 51.0877 20.9907 53.4152C20.9907 56.0918 23.1465 58.3028 25.7562 58.3028C28.3659 58.3028 30.5217 56.0918 30.5217 53.4152C30.5217 51.0877 29.0467 49.2258 26.8908 48.6439ZM25.7562 55.9754C24.3946 55.9754 23.26 54.8117 23.26 53.4152C23.26 52.0187 24.3946 50.855 25.7562 50.855C27.1178 50.855 28.2524 52.0187 28.2524 53.4152C28.2524 54.8117 27.1177 55.9754 25.7562 55.9754ZM46.6335 36.4247C45.1585 36.4247 43.9104 37.123 43.1161 38.0539L40.9603 36.5411L39.7122 38.5194L42.0949 40.1486C41.9815 40.4978 41.9815 40.8469 41.9815 41.3124C41.9815 43.9889 44.1373 46.2 46.747 46.2C49.3566 46.2 51.5124 43.9889 51.5124 41.3124C51.3989 38.6358 49.3566 36.4247 46.6335 36.4247ZM46.6335 43.8726C45.2719 43.8726 44.1373 42.7088 44.1373 41.3124C44.1373 39.9159 45.2719 38.7522 46.6335 38.7522C47.9951 38.7522 49.1297 39.9159 49.1297 41.3124C49.1297 42.7088 47.9951 43.8726 46.6335 43.8726ZM4.87895 21.9945C6.35393 21.9945 7.60203 21.2962 8.39627 20.3652L10.5521 21.8781L11.8002 19.8998L9.41747 18.2705C9.53089 17.9214 9.53089 17.5723 9.53089 17.1068C9.53089 14.4303 7.37513 12.2192 4.76547 12.2192C2.1558 12.2192 0 14.4303 0 17.1068C0 19.7834 2.26927 21.9945 4.87895 21.9945ZM4.87895 14.5466C6.24045 14.5466 7.37513 15.7103 7.37513 17.1068C7.37513 18.5033 6.35393 19.667 4.87895 19.667C3.40389 19.667 2.38273 18.5033 2.38273 17.1068C2.38273 15.7103 3.51737 14.5466 4.87895 14.5466ZM26.6639 13.1502C26.3235 13.1502 26.0966 13.0338 25.7562 13.0338C25.4158 13.0338 25.1889 13.0338 24.8485 13.1502C16.6791 13.6156 10.0982 20.598 10.0982 29.2096C10.0982 38.0539 17.133 45.269 25.7562 45.269C34.3794 45.269 41.4142 38.0539 41.4142 29.2096C41.4142 20.598 34.9468 13.6156 26.6639 13.1501L26.6639 13.1502ZM37.4429 22.4599L33.4717 22.4599C32.9044 20.1325 32.1101 18.1542 31.089 16.6413C33.8121 17.805 35.9679 19.7834 37.4429 22.4599ZM39.1449 29.2096C39.1449 30.7225 38.918 32.2353 38.4641 33.6318L33.9256 33.6318C34.1525 32.2353 34.266 30.7225 34.266 29.2096C34.266 27.6967 34.1525 26.1839 33.9256 24.7874L38.4641 24.7874C38.918 26.1839 39.1449 27.5804 39.1449 29.2096ZM12.3675 29.2096C12.3675 27.6967 12.5944 26.1839 13.0483 24.7874L17.5868 24.7874C17.3599 26.1839 17.2465 27.6967 17.2465 29.2096C17.2465 30.7225 17.3599 32.2353 17.5868 33.6318L13.0483 33.6318C12.7079 32.2353 12.3675 30.7225 12.3675 29.2096ZM19.6292 29.2096C19.6292 27.6967 19.7426 26.1839 19.9696 24.7874L24.6216 24.7874L24.6216 33.6318L19.9696 33.6318C19.7426 32.2353 19.6292 30.7225 19.6292 29.2096ZM26.8908 15.7103C28.4793 16.5249 30.1813 18.9688 31.089 22.4599L26.8908 22.4599L26.8908 15.7103ZM24.6216 15.7103L24.6216 22.4599L20.4234 22.4599C21.4446 18.9688 23.033 16.5249 24.6216 15.7103ZM24.6216 35.9592L24.6216 42.7088C23.033 41.8942 21.4446 39.4504 20.4234 35.9592L24.6216 35.9592ZM26.8908 42.5925L26.8908 35.9592L31.089 35.9592C30.1813 39.4504 28.5928 41.8942 26.8908 42.5925ZM26.8908 33.6318L26.8908 24.7874L31.5429 24.7874C31.7698 26.1839 31.8832 27.5804 31.8832 29.2096C31.8832 30.8388 31.7698 32.2353 31.5429 33.6318L26.8908 33.6318ZM20.5369 16.5249C19.5157 18.0378 18.7215 20.1325 18.1541 22.3436L14.1829 22.3436C15.5445 19.7834 17.8137 17.805 20.5369 16.5249ZM14.1829 35.9592L18.1541 35.9592C18.7215 38.2867 19.5157 40.265 20.5369 41.8942C17.8137 40.6141 15.6579 38.5194 14.1829 35.9592ZM30.9755 41.7779C31.9967 40.265 32.791 38.1703 33.3582 35.8429L37.3295 35.8429C35.9679 38.5194 33.6986 40.6141 30.9755 41.7779ZM11.9137 38.5194L10.6656 36.5411L8.50975 38.0539C8.48245 38.0219 8.45475 37.9903 8.42661 37.9591C8.39852 37.9278 8.36998 37.897 8.34099 37.8665C8.31212 37.8361 8.28279 37.806 8.25307 37.7764C8.22336 37.7468 8.19324 37.7175 8.1628 37.6887C8.13235 37.6599 8.10145 37.6315 8.07022 37.6035C8.03904 37.5755 8.00746 37.5479 7.9755 37.5208C7.94359 37.4937 7.91134 37.467 7.87865 37.4408C7.84607 37.4146 7.81309 37.3888 7.77978 37.3634C7.74652 37.3381 7.71287 37.3133 7.67888 37.2889C7.64495 37.2644 7.61074 37.2405 7.57613 37.217C7.54158 37.1936 7.5067 37.1706 7.47153 37.1481C7.43636 37.1256 7.40086 37.1036 7.36513 37.082C7.3294 37.0605 7.29339 37.0394 7.25704 37.0189C7.22075 36.9984 7.18424 36.9783 7.14738 36.9587C7.11059 36.9392 7.07351 36.9202 7.03621 36.9016C6.99891 36.8831 6.96138 36.8651 6.92357 36.8476C6.88582 36.83 6.84779 36.8131 6.80953 36.7966C6.77133 36.7802 6.7329 36.7642 6.69425 36.7488C6.6556 36.7334 6.61678 36.7186 6.57774 36.7042C6.53875 36.6899 6.49954 36.6761 6.4601 36.6628C6.42072 36.6495 6.38118 36.6369 6.34146 36.6246C6.30174 36.6125 6.26185 36.6008 6.22186 36.5897C6.18186 36.5787 6.14169 36.5682 6.10135 36.5581C6.06107 36.5482 6.02063 36.5387 5.98007 36.5299C5.93956 36.521 5.89895 36.5126 5.85816 36.5049C5.81738 36.4971 5.77653 36.4899 5.73558 36.4832C5.69463 36.4766 5.65362 36.4706 5.61252 36.465C5.5714 36.4595 5.53022 36.4546 5.48898 36.4502C5.44775 36.4458 5.40647 36.442 5.36517 36.4387C5.32382 36.4355 5.28243 36.4328 5.24101 36.4306C5.19963 36.4286 5.15821 36.427 5.11675 36.426C5.07529 36.425 5.03383 36.4246 4.99237 36.4247C2.38273 36.4247 0.226924 38.6358 0.226924 41.3124C0.226924 43.9889 2.38273 46.2 4.99237 46.2C7.60203 46.2 9.75785 43.9889 9.75785 41.3124C9.75785 40.9633 9.64437 40.4978 9.64437 40.1486L11.9137 38.5194ZM4.87895 43.8726C3.51737 43.8726 2.38273 42.7088 2.38273 41.3124C2.38273 39.9159 3.51737 38.7522 4.87895 38.7522C6.24045 38.7522 7.37513 39.9159 7.37513 41.3124C7.37513 42.7088 6.35393 43.8726 4.87895 43.8726ZM39.7122 19.7834L40.9603 21.7617L43.1161 20.2489C44.0238 21.2962 45.2719 21.8781 46.6335 21.8781C49.2432 21.8781 51.399 19.667 51.399 16.9904C51.399 14.3139 49.2432 12.1028 46.6335 12.1028C44.0239 12.1028 41.868 14.3139 41.868 16.9904C41.868 17.3396 41.9815 17.805 41.9815 18.1542L39.7122 19.7834ZM46.6335 14.5466C47.9951 14.5466 49.1297 15.7103 49.1297 17.1068C49.1297 18.5033 47.9951 19.667 46.6335 19.667C45.2719 19.667 44.1373 18.5033 44.1373 17.1068C44.1373 15.7103 45.2719 14.5466 46.6335 14.5466ZM30.7724 50.0718L40.6324 44.0809L41.7886 46.0825L31.9286 52.0746L30.7724 50.0718ZM9.79527 45.9941L10.9526 43.9925L20.8103 49.9857L19.653 51.9873L9.79527 45.9941Z"></path></g></svg>