<svg xmlns="http://www.w3.org/2000/svg" xmlns:xlink="http://www.w3.org/1999/xlink" width="138.6368408203125" height="131.68927001953125" viewBox="0 0 138.6368408203125 131.68927001953125" fill="none"><g opacity="1"  transform="translate(0 0)  rotate(0)"><path id="路径 1" fill-rule="evenodd" style="fill:#AAC0E6" opacity="1" d="M109.263 29.6982L99.7669 29.6982L88.5292 45.9891L63.0557 45.9891C62.7674 45.9804 62.479 45.9787 62.1905 45.984C61.9021 45.9893 61.614 46.0016 61.3262 46.0208C61.0385 46.04 60.7514 46.0662 60.465 46.0993C60.1786 46.1325 59.8931 46.1726 59.6088 46.2196C59.3244 46.2667 59.0415 46.3204 58.7598 46.3812C58.4783 46.4418 58.1984 46.5093 57.9203 46.5836C57.6423 46.6579 57.3663 46.7389 57.0924 46.8265C56.8186 46.9141 56.5471 47.0084 56.2781 47.1091C56.009 47.2099 55.7428 47.3172 55.4793 47.4308C55.2159 47.5445 54.9555 47.6646 54.6982 47.7909C54.441 47.9172 54.1872 48.0496 53.9368 48.1883C53.6864 48.3269 53.4397 48.4715 53.1967 48.622C52.9538 48.7725 52.7149 48.929 52.4801 49.0912C52.2452 49.2533 52.0148 49.421 51.7886 49.5944C51.5625 49.7676 51.3409 49.9463 51.124 50.1304C50.9071 50.3144 50.6951 50.5036 50.488 50.698C50.2808 50.8923 50.0789 51.0915 49.8819 51.2956C49.6851 51.4998 49.4937 51.7085 49.3077 51.9219C49.1217 52.1354 48.9413 52.3531 48.7665 52.5752C48.5918 52.7974 48.4229 53.0236 48.2598 53.2539C48.0968 53.4842 47.9398 53.7183 47.7888 53.9563C47.6379 54.1943 47.4932 54.4356 47.3547 54.6806C47.2163 54.9256 47.0843 55.1736 46.9586 55.425C46.833 55.6765 46.714 55.9306 46.6016 56.1877C46.4891 56.4448 46.3833 56.7044 46.2842 56.9667C46.1853 57.2289 46.0931 57.4935 46.0077 57.7601C45.9224 58.0268 45.844 58.2955 45.7725 58.566C45.701 58.8365 45.6366 59.1086 45.5792 59.3822C45.5219 59.6558 45.4717 59.9306 45.4285 60.2067C45.3853 60.4828 45.3493 60.7597 45.3205 61.0374C45.2916 61.3153 45.27 61.5937 45.2556 61.8724C45.2411 62.1513 45.2339 62.4304 45.2339 62.7096C45.2339 62.9888 45.2411 63.2678 45.2556 63.5467C45.27 63.8255 45.2916 64.1038 45.3205 64.3817C45.3493 64.6594 45.3853 64.9364 45.4285 65.2124C45.4717 65.4886 45.5219 65.7634 45.5792 66.037C45.6366 66.3106 45.701 66.5828 45.7725 66.8533C45.844 67.1238 45.9224 67.3923 46.0077 67.659C46.0931 67.9258 46.1853 68.1902 46.2842 68.4524C46.3833 68.7147 46.4891 68.9744 46.6016 69.2315C46.714 69.4885 46.833 69.7428 46.9586 69.9941C47.0843 70.2455 47.2163 70.4936 47.3547 70.7385C47.4932 70.9835 47.6379 71.225 47.7888 71.4628C47.9398 71.7008 48.0968 71.935 48.2598 72.1652C48.4229 72.3955 48.5918 72.6217 48.7665 72.844C48.9413 73.0661 49.1217 73.2839 49.3078 73.4973C49.4938 73.7106 49.6851 73.9193 49.8819 74.1235C50.0789 74.3276 50.2808 74.5268 50.488 74.7212C50.6951 74.9156 50.9071 75.1047 51.124 75.2888C51.3409 75.4728 51.5625 75.6515 51.7886 75.8249C52.0148 75.9981 52.2452 76.1659 52.4801 76.3281C52.7149 76.4902 52.9538 76.6466 53.1967 76.7971C53.4397 76.9477 53.6864 77.0923 53.9368 77.2309C54.1872 77.3696 54.441 77.502 54.6982 77.6283C54.9555 77.7545 55.2159 77.8746 55.4793 77.9883C55.7428 78.1019 56.009 78.2093 56.2781 78.31C56.5471 78.4109 56.8186 78.5052 57.0924 78.5928C57.3663 78.6804 57.6424 78.7614 57.9205 78.8355C58.1985 78.9098 58.4783 78.9773 58.7598 79.0381C59.0415 79.0988 59.3244 79.1526 59.6088 79.1996C59.8931 79.2466 60.1786 79.2866 60.465 79.3198C60.7514 79.3529 61.0385 79.3791 61.3262 79.3983C61.614 79.4176 61.9021 79.43 62.1905 79.4352C62.479 79.4405 62.7674 79.4387 63.0557 79.4301L68.2308 79.4301L68.2308 73.9998L63.0557 73.9998C62.8645 73.9972 62.6735 73.9902 62.4828 73.9787C62.2921 73.9672 62.1017 73.9512 61.9117 73.9308C61.7218 73.9104 61.5324 73.8857 61.3437 73.8564C61.155 73.8271 60.9671 73.7936 60.7799 73.7556C60.5929 73.7176 60.4069 73.6753 60.2219 73.6286C60.037 73.5819 59.8534 73.5309 59.6709 73.4757C59.4885 73.4205 59.3076 73.361 59.1281 73.2973C58.9486 73.2336 58.7709 73.1657 58.5948 73.0938C58.4187 73.0218 58.2446 72.9457 58.0723 72.8656C57.9 72.7854 57.7298 72.7015 57.5617 72.6134C57.3936 72.5253 57.2278 72.4334 57.0643 72.3376C56.9008 72.2417 56.7398 72.1421 56.5812 72.0388C56.4226 71.9355 56.2668 71.8286 56.1135 71.718C55.9603 71.6075 55.8099 71.4933 55.6623 71.3756C55.5148 71.2581 55.3703 71.1371 55.2288 71.0128C55.0873 70.8884 54.949 70.7608 54.8138 70.63C54.6786 70.4992 54.5468 70.3653 54.4183 70.2283C54.2898 70.0914 54.1649 69.9515 54.0434 69.8087C53.9219 69.6659 53.804 69.5203 53.6897 69.3721C53.5754 69.2237 53.4649 69.0728 53.3582 68.9194C53.2514 68.7659 53.1485 68.6101 53.0496 68.4518C52.9506 68.2935 52.8556 68.133 52.7646 67.9704C52.6736 67.8077 52.5868 67.643 52.5041 67.4762C52.4212 67.3094 52.3427 67.1408 52.2683 66.9704C52.1939 66.8 52.1238 66.628 52.058 66.4543C51.9922 66.2805 51.9308 66.1055 51.8736 65.9289C51.8166 65.7523 51.764 65.5745 51.7157 65.3956C51.6675 65.2166 51.6237 65.0365 51.5844 64.8555C51.5453 64.6744 51.5106 64.4925 51.4803 64.3098C51.4501 64.1272 51.4245 63.9439 51.4034 63.7601C51.3824 63.5762 51.3659 63.3919 51.354 63.2073C51.3422 63.0227 51.3349 62.8379 51.3321 62.6529C51.3393 62.4692 51.3509 62.2857 51.3669 62.1026C51.383 61.9193 51.4035 61.7366 51.4284 61.5543C51.4532 61.3721 51.4824 61.1906 51.5161 61.0096C51.5497 60.8286 51.5876 60.6485 51.6299 60.4693C51.6723 60.2902 51.7189 60.1119 51.7698 59.9348C51.8207 59.7577 51.8759 59.5818 51.9352 59.4072C51.9947 59.2326 52.0583 59.0594 52.1261 58.8877C52.1939 58.716 52.2658 58.5459 52.3417 58.3774C52.4177 58.2088 52.4977 58.0421 52.5818 57.8773C52.6658 57.7124 52.7538 57.5495 52.8456 57.3886C52.9375 57.2278 53.0333 57.069 53.1329 56.9125C53.2324 56.7559 53.3357 56.6016 53.4427 56.4498C53.5497 56.298 53.6603 56.1486 53.7746 56.0017C53.8888 55.8547 54.0065 55.7105 54.1276 55.569C54.2488 55.4275 54.3734 55.2887 54.5014 55.1527C54.6292 55.0169 54.7603 54.8839 54.8945 54.7539C55.0289 54.624 55.1663 54.497 55.3068 54.3732C55.4471 54.2495 55.5905 54.1289 55.7367 54.0116C55.883 53.8944 56.032 53.7803 56.1837 53.6698C56.3355 53.5592 56.4899 53.4522 56.6469 53.3486C56.8038 53.245 56.9631 53.145 57.1248 53.0487C57.2866 52.9523 57.4506 52.8597 57.6169 52.7708C57.783 52.6818 57.9512 52.5967 58.1216 52.5153C58.292 52.434 58.4642 52.3566 58.6383 52.2829C58.8124 52.2094 58.9882 52.1399 59.1655 52.0742C59.3429 52.0087 59.5219 51.9472 59.7024 51.8896C59.8827 51.8321 60.0645 51.7787 60.2475 51.7294C60.4305 51.6801 60.6145 51.635 60.7997 51.5941C60.9848 51.5532 61.1708 51.5164 61.3578 51.4838C61.5448 51.4513 61.7323 51.423 61.9207 51.3989C62.109 51.3749 62.2978 51.3552 62.4871 51.3396C62.6763 51.3241 62.8659 51.3129 63.0557 51.3059L91.527 51.3059L102.748 34.9988L108.861 34.9988C108.886 35.1588 108.915 35.3182 108.948 35.477C108.98 35.6358 109.017 35.7938 109.057 35.951C109.097 36.1083 109.14 36.2645 109.188 36.4198C109.235 36.5751 109.286 36.7293 109.34 36.8824C109.394 37.0355 109.452 37.1875 109.514 37.338C109.575 37.4885 109.64 37.6378 109.708 37.7855C109.777 37.9333 109.848 38.0796 109.923 38.2242C109.998 38.3688 110.077 38.5119 110.159 38.6531C110.24 38.7944 110.325 38.9337 110.414 39.0713C110.502 39.209 110.593 39.3445 110.687 39.4781C110.782 39.6117 110.879 39.7433 110.98 39.8727C111.081 40.002 111.184 40.1291 111.29 40.254C111.397 40.3788 111.506 40.5014 111.618 40.6215C111.73 40.7416 111.845 40.8592 111.963 40.9744C112.081 41.0896 112.201 41.2021 112.324 41.3121C112.446 41.422 112.572 41.5292 112.699 41.6337C112.827 41.7382 112.957 41.8399 113.09 41.9387C113.222 42.0376 113.357 42.1335 113.494 42.2265C113.631 42.3195 113.77 42.4095 113.911 42.4965C114.052 42.5834 114.195 42.6673 114.34 42.748C114.485 42.8288 114.632 42.9063 114.78 42.9807C114.929 43.0551 115.079 43.1262 115.231 43.1941C115.383 43.2619 115.536 43.3264 115.691 43.3877C115.846 43.4488 116.002 43.5066 116.16 43.5611C116.317 43.6155 116.476 43.6665 116.636 43.7141C116.796 43.7615 116.957 43.8055 117.119 43.8462C117.281 43.8867 117.443 43.9237 117.607 43.9572C117.771 43.9906 117.935 44.0206 118.1 44.0469C118.265 44.0732 118.431 44.0959 118.597 44.1151C118.763 44.1343 118.929 44.1498 119.096 44.1618C119.263 44.1737 119.43 44.1819 119.597 44.1866C119.764 44.1913 119.932 44.1924 120.099 44.1898C120.282 44.1867 120.464 44.1794 120.647 44.1677C120.829 44.1563 121.011 44.1404 121.192 44.1204C121.374 44.1004 121.555 44.0762 121.735 44.0478C121.916 44.0193 122.096 43.9866 122.274 43.9499C122.453 43.9131 122.631 43.8722 122.808 43.8272C122.984 43.7822 123.16 43.733 123.334 43.6799C123.508 43.6266 123.681 43.5695 123.853 43.5082C124.024 43.4469 124.194 43.3818 124.362 43.3126C124.531 43.2435 124.697 43.1705 124.862 43.0937C125.026 43.0168 125.189 42.9362 125.35 42.8518C125.51 42.7673 125.669 42.6792 125.825 42.5875C125.981 42.4958 126.135 42.4004 126.287 42.3014C126.438 42.2025 126.587 42.1002 126.734 41.9943C126.88 41.8884 127.024 41.7792 127.165 41.6667C127.306 41.5543 127.444 41.4386 127.579 41.3195C127.715 41.2006 127.847 41.0785 127.976 40.9535C128.105 40.8284 128.231 40.7003 128.354 40.5694C128.477 40.4384 128.597 40.3048 128.713 40.1682C128.829 40.0317 128.942 39.8927 129.051 39.7509C129.161 39.6091 129.267 39.4649 129.369 39.3182C129.471 39.1716 129.57 39.0227 129.664 38.8714C129.759 38.7201 129.85 38.5668 129.938 38.4114C130.025 38.2559 130.108 38.0984 130.187 37.9391C130.267 37.7798 130.342 37.6187 130.414 37.4559C130.485 37.293 130.552 37.1286 130.616 36.9626C130.679 36.7966 130.738 36.6293 130.793 36.4606C130.848 36.2918 130.899 36.1219 130.945 35.9509C130.992 35.7798 131.034 35.6078 131.072 35.4348C131.11 35.2617 131.144 35.0878 131.173 34.9132C131.203 34.7387 131.227 34.5635 131.248 34.3877C131.269 34.2119 131.285 34.0358 131.297 33.8592C131.309 33.6827 131.317 33.5061 131.32 33.3292C131.317 33.1522 131.309 32.9754 131.297 32.7987C131.285 32.6221 131.269 32.4458 131.248 32.27C131.228 32.0941 131.203 31.9188 131.173 31.7442C131.144 31.5694 131.11 31.3955 131.072 31.2224C131.034 31.0492 130.992 30.877 130.945 30.7059C130.899 30.5347 130.848 30.3646 130.793 30.1958C130.738 30.027 130.679 29.8596 130.616 29.6935C130.553 29.5274 130.485 29.3628 130.414 29.1998C130.343 29.0369 130.267 28.8757 130.188 28.7162C130.109 28.5568 130.025 28.3992 129.938 28.2436C129.851 28.088 129.76 27.9345 129.665 27.7832C129.57 27.6318 129.472 27.4828 129.37 27.336C129.268 27.1892 129.162 27.0448 129.052 26.9029C128.943 26.761 128.83 26.6217 128.714 26.4851C128.598 26.3485 128.478 26.2146 128.355 26.0834C128.233 25.9523 128.107 25.8242 127.977 25.6989C127.848 25.5736 127.716 25.4515 127.581 25.3324C127.445 25.2133 127.307 25.0974 127.166 24.9846C127.025 24.872 126.881 24.7626 126.735 24.6566C126.588 24.5505 126.439 24.4479 126.288 24.3488C126.136 24.2497 125.983 24.1542 125.826 24.0622C125.67 23.9702 125.512 23.8819 125.351 23.7973C125.19 23.7127 125.028 23.6319 124.863 23.5548C124.698 23.4778 124.532 23.4045 124.364 23.3351C124.195 23.2658 124.026 23.2004 123.854 23.1389C123.683 23.0775 123.51 23.0201 123.335 22.9667C123.161 22.9132 122.985 22.8639 122.809 22.8186C122.632 22.7733 122.454 22.7321 122.275 22.6952C122.096 22.6582 121.917 22.6253 121.736 22.5966C121.556 22.568 121.375 22.5435 121.193 22.5232C121.011 22.5029 120.829 22.4869 120.647 22.4751C120.464 22.4632 120.282 22.4556 120.099 22.4523C119.956 22.4604 119.814 22.4708 119.671 22.4836C119.529 22.4963 119.387 22.5114 119.245 22.5288C119.103 22.5461 118.962 22.5658 118.821 22.5878C118.679 22.6099 118.539 22.6342 118.398 22.6607C118.258 22.6873 118.118 22.7162 117.979 22.7473C117.84 22.7784 117.701 22.8118 117.563 22.8475C117.425 22.8831 117.287 22.921 117.151 22.9612C117.014 23.0013 116.878 23.0437 116.742 23.0882C116.607 23.1329 116.473 23.1796 116.339 23.2286C116.205 23.2776 116.072 23.3288 115.94 23.3821C115.809 23.4353 115.678 23.4907 115.548 23.5484C115.418 23.6059 115.289 23.6656 115.161 23.7274C115.033 23.7892 114.906 23.853 114.78 23.9188C114.655 23.9848 114.53 24.0527 114.407 24.1227C114.283 24.1927 114.162 24.2646 114.041 24.3386C113.92 24.4125 113.8 24.4884 113.682 24.5663C113.564 24.6441 113.447 24.7239 113.332 24.8056C113.216 24.8873 113.102 24.9708 112.99 25.0561C112.877 25.1415 112.766 25.2287 112.657 25.3177C112.548 25.4067 112.44 25.4974 112.333 25.5899C112.227 25.6824 112.122 25.7766 112.019 25.8725C111.916 25.9685 111.815 26.0661 111.715 26.1653C111.616 26.2646 111.518 26.3654 111.422 26.4678C111.326 26.5701 111.231 26.6741 111.139 26.7796C111.046 26.8851 110.956 26.9921 110.867 27.1005C110.778 27.209 110.691 27.3188 110.606 27.4301C110.522 27.5414 110.439 27.654 110.358 27.768C110.276 27.882 110.197 27.9973 110.12 28.1138C110.044 28.2304 109.968 28.3482 109.896 28.4673C109.823 28.5863 109.752 28.7064 109.683 28.8277C109.615 28.949 109.548 29.0715 109.483 29.1949C109.419 29.3184 109.357 29.443 109.297 29.5685L109.263 29.6982ZM119.63 81.0997C119.489 81.1014 119.348 81.1058 119.208 81.1127C119.067 81.1196 118.927 81.129 118.786 81.141C118.646 81.153 118.506 81.1675 118.366 81.1847C118.227 81.2019 118.087 81.2216 117.948 81.2438C117.809 81.2661 117.671 81.2909 117.533 81.3181C117.395 81.3453 117.258 81.3751 117.121 81.4075C116.984 81.4397 116.848 81.4746 116.713 81.5118C116.577 81.5491 116.443 81.5888 116.309 81.631C116.175 81.6732 116.042 81.7178 115.909 81.7649C115.777 81.812 115.646 81.8615 115.516 81.9134C115.386 81.9653 115.257 82.0194 115.128 82.0761C115 82.1327 114.873 82.1915 114.748 82.2527C114.622 82.3139 114.497 82.3774 114.374 82.4432C114.251 82.509 114.128 82.577 114.008 82.6473C113.887 82.7174 113.768 82.7898 113.65 82.8645C113.532 82.9391 113.416 83.0158 113.301 83.0946C113.186 83.1734 113.073 83.2545 112.961 83.3374C112.849 83.4203 112.739 83.5052 112.631 83.5923C112.523 83.6794 112.416 83.7682 112.311 83.8592C112.206 83.9501 112.103 84.0429 112.002 84.1376C111.9 84.2323 111.801 84.3287 111.703 84.427C111.606 84.5253 111.51 84.6254 111.417 84.7272C111.323 84.829 111.232 84.9324 111.142 85.0376C111.052 85.1427 110.965 85.2495 110.879 85.3579C110.794 85.4662 110.711 85.5761 110.63 85.6875C110.548 85.7988 110.469 85.9117 110.393 86.026C110.316 86.1402 110.241 86.2558 110.169 86.3728C110.097 86.4898 110.027 86.6081 109.959 86.7277C109.892 86.8473 109.827 86.968 109.764 87.0899C109.701 87.2118 109.64 87.3349 109.582 87.459C109.524 87.5832 109.468 87.7083 109.415 87.8345C109.362 87.9608 109.311 88.0878 109.263 88.2158L102.346 88.2158L91.5606 73.9998L84.6436 73.9998L84.6436 79.4301L88.5292 79.4301L99.3315 93.6138L108.392 93.6138C108.413 93.7754 108.439 93.9364 108.468 94.0968C108.497 94.2572 108.53 94.4169 108.566 94.576C108.603 94.7349 108.644 94.8929 108.688 95.0502C108.732 95.2073 108.78 95.3634 108.832 95.5184C108.884 95.6734 108.939 95.8271 108.998 95.9796C109.058 96.1322 109.12 96.2833 109.187 96.433C109.253 96.5827 109.323 96.7308 109.397 96.8773C109.47 97.024 109.547 97.1688 109.627 97.3119C109.708 97.455 109.792 97.5962 109.879 97.7355C109.966 97.8748 110.057 98.0121 110.15 98.1474C110.244 98.2827 110.341 98.4157 110.441 98.5467C110.541 98.6776 110.645 98.8062 110.751 98.9325C110.857 99.0588 110.966 99.1826 111.079 99.304C111.191 99.4254 111.306 99.5442 111.424 99.6604C111.542 99.7766 111.663 99.8902 111.786 100.001C111.909 100.112 112.035 100.22 112.164 100.325C112.293 100.43 112.424 100.532 112.557 100.632C112.69 100.731 112.826 100.827 112.964 100.92C113.102 101.013 113.242 101.103 113.385 101.19C113.527 101.277 113.672 101.361 113.818 101.441C113.964 101.521 114.113 101.598 114.263 101.672C114.413 101.746 114.565 101.816 114.718 101.883C114.872 101.95 115.027 102.014 115.183 102.074C115.339 102.134 115.497 102.19 115.657 102.243C115.816 102.296 115.976 102.345 116.138 102.391C116.299 102.436 116.462 102.478 116.625 102.517C116.789 102.555 116.953 102.59 117.119 102.621C117.284 102.652 117.45 102.679 117.616 102.703C117.783 102.726 117.95 102.746 118.117 102.762C118.285 102.778 118.453 102.79 118.621 102.799C118.789 102.807 118.957 102.812 119.125 102.813C119.293 102.814 119.462 102.811 119.63 102.805C119.813 102.802 119.995 102.794 120.178 102.783C120.36 102.771 120.542 102.755 120.724 102.735C120.905 102.715 121.086 102.691 121.267 102.663C121.447 102.634 121.627 102.602 121.805 102.565C121.984 102.528 122.162 102.487 122.339 102.442C122.515 102.397 122.691 102.348 122.865 102.295C123.04 102.242 123.212 102.184 123.384 102.123C123.555 102.062 123.725 101.997 123.893 101.928C124.062 101.859 124.228 101.786 124.393 101.709C124.557 101.632 124.72 101.551 124.881 101.467C125.041 101.382 125.2 101.294 125.356 101.203C125.512 101.111 125.666 101.015 125.818 100.916C125.969 100.818 126.118 100.715 126.265 100.609C126.411 100.503 126.555 100.394 126.696 100.282C126.837 100.169 126.975 100.053 127.11 99.9345C127.246 99.8156 127.378 99.6936 127.507 99.5684C127.636 99.4434 127.763 99.3153 127.885 99.1844C128.008 99.0535 128.128 98.9197 128.244 98.7832C128.36 98.6468 128.473 98.5077 128.583 98.3659C128.692 98.2242 128.798 98.0799 128.9 97.9333C129.002 97.7866 129.101 97.6377 129.196 97.4864C129.29 97.3351 129.381 97.1817 129.468 97.0263C129.556 96.8709 129.639 96.7135 129.718 96.5542C129.798 96.3949 129.873 96.2337 129.945 96.0708C130.016 95.908 130.083 95.7437 130.147 95.5777C130.21 95.4116 130.269 95.2443 130.324 95.0756C130.379 94.9069 130.43 94.737 130.476 94.5659C130.523 94.3949 130.565 94.2228 130.603 94.0497C130.641 93.8767 130.675 93.7028 130.704 93.5283C130.734 93.3536 130.759 93.1784 130.779 93.0028C130.8 92.8269 130.816 92.6508 130.828 92.4743C130.84 92.2977 130.848 92.1211 130.851 91.9442C130.852 91.7659 130.849 91.5878 130.841 91.4098C130.834 91.2318 130.821 91.054 130.805 90.8765C130.788 90.699 130.766 90.522 130.74 90.3457C130.715 90.1692 130.684 89.9935 130.649 89.8185C130.615 89.6435 130.575 89.4695 130.531 89.2964C130.488 89.1233 130.44 88.9513 130.387 88.7806C130.334 88.6098 130.277 88.4404 130.216 88.2723C130.155 88.1042 130.089 87.9378 130.02 87.7728C129.95 87.6078 129.876 87.4447 129.798 87.2833C129.72 87.1219 129.638 86.9626 129.551 86.8051C129.465 86.6476 129.375 86.4924 129.281 86.3393C129.186 86.1862 129.089 86.0354 128.987 85.887C128.885 85.7385 128.779 85.5927 128.67 85.4493C128.56 85.306 128.447 85.1653 128.331 85.0274C128.214 84.8895 128.094 84.7544 127.971 84.6222C127.847 84.49 127.72 84.3609 127.59 84.2348C127.46 84.1087 127.327 83.9857 127.19 83.866C127.054 83.7463 126.915 83.63 126.772 83.517C126.63 83.4038 126.485 83.2943 126.337 83.1883C126.189 83.0821 126.038 82.9797 125.885 82.8809C125.732 82.7819 125.576 82.6869 125.418 82.5954C125.26 82.504 125.1 82.4165 124.937 82.3328C124.775 82.2491 124.61 82.1692 124.444 82.0934C124.277 82.0175 124.109 81.9456 123.938 81.8779C123.768 81.8102 123.596 81.7466 123.423 81.687C123.249 81.6275 123.074 81.5722 122.898 81.5211C122.721 81.4699 122.544 81.4231 122.365 81.3804C122.186 81.3378 122.006 81.2995 121.826 81.2654C121.645 81.2315 121.463 81.2019 121.281 81.1766C121.099 81.1512 120.916 81.1303 120.733 81.1138C120.55 81.0971 120.366 81.085 120.182 81.0772C119.998 81.0695 119.814 81.0661 119.63 81.0673L119.63 81.0997Z"></path><path id="路径 2" fill-rule="evenodd" style="fill:#AAC0E6" opacity="1" d="M126.965 51.0142C126.799 51.0165 126.633 51.0222 126.468 51.0313C126.302 51.0405 126.137 51.0531 125.972 51.0693C125.806 51.0854 125.642 51.1049 125.478 51.1277C125.313 51.1506 125.15 51.177 124.987 51.2068C124.824 51.2364 124.661 51.2696 124.5 51.3061C124.338 51.3426 124.177 51.3823 124.018 51.4255C123.858 51.4688 123.699 51.5152 123.541 51.565C123.383 51.6148 123.227 51.6678 123.071 51.7242C122.916 51.7805 122.762 51.84 122.609 51.9027C122.456 51.9655 122.305 52.0314 122.155 52.1005C122.005 52.1695 121.857 52.2416 121.711 52.3168C121.564 52.392 121.419 52.4702 121.276 52.5514C121.133 52.6326 120.992 52.7168 120.852 52.8039C120.713 52.8909 120.575 52.981 120.44 53.0739C120.304 53.1666 120.171 53.2622 120.04 53.3606C119.909 53.459 119.78 53.5601 119.653 53.6639C119.527 53.7676 119.402 53.8739 119.28 53.9829C119.158 54.0918 119.039 54.2032 118.922 54.3171C118.805 54.431 118.691 54.5473 118.579 54.6659C118.467 54.7846 118.358 54.9056 118.251 55.0288C118.145 55.152 118.041 55.2773 117.94 55.4048C117.839 55.5324 117.742 55.6619 117.646 55.7935C117.551 55.9252 117.459 56.0587 117.37 56.1942C117.281 56.3296 117.195 56.4669 117.112 56.6058C117.028 56.7449 116.949 56.8856 116.872 57.0279C116.795 57.1702 116.721 57.3141 116.651 57.4595C116.58 57.6049 116.513 57.7518 116.449 57.9C116.385 58.0482 116.325 58.1976 116.267 58.3484C116.21 58.4992 116.156 58.6511 116.106 58.804C116.055 58.957 116.008 59.1111 115.965 59.266C115.921 59.4209 115.881 59.5766 115.844 59.7333C115.807 59.8899 115.774 60.0472 115.744 60.2052L89.3997 60.2052L89.3997 65.6356L116.598 65.6356C116.647 65.7634 116.698 65.8904 116.751 66.0164C116.805 66.1424 116.861 66.2675 116.919 66.3915C116.977 66.5154 117.038 66.6383 117.101 66.7601C117.164 66.882 117.229 67.0024 117.297 67.1219C117.365 67.2412 117.435 67.3594 117.507 67.4762C117.58 67.5931 117.654 67.7086 117.731 67.8227C117.808 67.9369 117.887 68.0495 117.968 68.1608C118.05 68.272 118.133 68.3818 118.219 68.49C118.304 68.5981 118.392 68.7048 118.481 68.8098C118.571 68.9149 118.663 69.0183 118.756 69.1199C118.85 69.2216 118.946 69.3214 119.043 69.4197C119.141 69.5179 119.24 69.6144 119.341 69.7089C119.443 69.8035 119.546 69.8962 119.651 69.987C119.756 70.0779 119.862 70.1667 119.971 70.2537C120.079 70.3406 120.189 70.4255 120.301 70.5084C120.412 70.5914 120.526 70.6723 120.64 70.7511C120.755 70.8299 120.872 70.9067 120.989 70.9812C121.107 71.0558 121.226 71.1282 121.347 71.1984C121.468 71.2686 121.59 71.3366 121.713 71.4024C121.836 71.4683 121.961 71.5318 122.086 71.5931C122.212 71.6543 122.339 71.7133 122.467 71.7699C122.595 71.8264 122.724 71.8807 122.854 71.9327C122.984 71.9847 123.115 72.0342 123.247 72.0813C123.379 72.1285 123.512 72.1733 123.646 72.2156C123.78 72.2579 123.915 72.2978 124.05 72.3352C124.185 72.3726 124.321 72.4075 124.458 72.44C124.595 72.4724 124.732 72.5025 124.87 72.53C125.008 72.5574 125.146 72.5823 125.285 72.6048C125.424 72.6271 125.563 72.647 125.702 72.6644C125.842 72.6818 125.982 72.6965 126.122 72.7089C126.262 72.721 126.403 72.7308 126.543 72.7379C126.684 72.745 126.824 72.7496 126.965 72.7517C127.153 72.7588 127.342 72.7612 127.53 72.7591C127.719 72.7569 127.907 72.7502 128.095 72.7389C128.283 72.7276 128.471 72.7117 128.658 72.6913C128.845 72.6708 129.032 72.6459 129.218 72.6164C129.404 72.5868 129.589 72.5529 129.773 72.5144C129.957 72.4758 130.14 72.4328 130.322 72.3854C130.504 72.3379 130.685 72.286 130.864 72.2298C131.043 72.1735 131.221 72.113 131.397 72.0482C131.573 71.9833 131.747 71.9141 131.92 71.8407C132.092 71.7673 132.263 71.6898 132.432 71.6081C132.6 71.5265 132.766 71.4407 132.93 71.3509C133.094 71.2613 133.256 71.1675 133.415 71.0698C133.574 70.9722 133.73 70.8708 133.884 70.7655C134.039 70.6603 134.19 70.5513 134.337 70.4387C134.485 70.326 134.631 70.2099 134.773 70.0902C134.915 69.9705 135.054 69.8475 135.19 69.721C135.326 69.5946 135.458 69.4649 135.587 69.332C135.717 69.1991 135.843 69.0632 135.964 68.9241C136.086 68.7852 136.204 68.6433 136.319 68.4985C136.434 68.3537 136.544 68.2062 136.651 68.0561C136.758 67.9059 136.861 67.7532 136.96 67.598C137.06 67.4428 137.155 67.2853 137.245 67.1256C137.336 66.9658 137.423 66.8039 137.505 66.6398C137.588 66.4757 137.666 66.31 137.74 66.1422C137.813 65.9743 137.883 65.8048 137.948 65.6337C138.013 65.4625 138.073 65.2897 138.129 65.1156C138.185 64.9415 138.236 64.766 138.283 64.5894C138.331 64.4128 138.373 64.2351 138.41 64.0564C138.447 63.8777 138.48 63.6982 138.509 63.5178C138.537 63.3375 138.561 63.1567 138.579 62.9752C138.599 62.7937 138.613 62.6119 138.622 62.4298C138.632 62.2476 138.637 62.0653 138.637 61.8829C138.637 61.7005 138.632 61.5183 138.622 61.3361C138.613 61.154 138.599 60.9722 138.579 60.7907C138.561 60.6092 138.537 60.4284 138.509 60.248C138.48 60.0677 138.447 59.8881 138.41 59.7095C138.373 59.5308 138.331 59.3531 138.283 59.1765C138.236 58.9999 138.185 58.8244 138.129 58.6503C138.073 58.4761 138.013 58.3035 137.948 58.1324C137.883 57.9612 137.813 57.7915 137.74 57.6237C137.666 57.4559 137.588 57.29 137.505 57.126C137.423 56.962 137.336 56.8001 137.245 56.6402C137.155 56.4804 137.06 56.323 136.96 56.1679C136.861 56.0127 136.758 55.8599 136.651 55.7098C136.544 55.5596 136.434 55.4122 136.319 55.2675C136.204 55.1226 136.086 54.9807 135.964 54.8418C135.843 54.7027 135.717 54.5667 135.587 54.4339C135.458 54.3009 135.326 54.1712 135.19 54.0448C135.054 53.9184 134.915 53.7953 134.773 53.6756C134.631 53.5559 134.485 53.4398 134.337 53.3272C134.19 53.2146 134.039 53.1056 133.884 53.0003C133.73 52.8951 133.574 52.7937 133.415 52.696C133.256 52.5984 133.094 52.5046 132.93 52.4149C132.766 52.3252 132.6 52.2394 132.432 52.1577C132.263 52.0761 132.092 51.9985 131.92 51.9251C131.747 51.8517 131.573 51.7826 131.397 51.7177C131.221 51.6528 131.043 51.5923 130.864 51.5361C130.685 51.4798 130.504 51.428 130.322 51.3805C130.14 51.3332 129.957 51.2901 129.773 51.2515C129.589 51.213 129.404 51.179 129.218 51.1495C129.032 51.1199 128.845 51.0951 128.658 51.0745C128.471 51.0542 128.283 51.0383 128.095 51.0269C127.907 51.0157 127.719 51.009 127.53 51.0068C127.342 51.0046 127.153 51.0071 126.965 51.0142ZM100.621 109.111C100.413 109.107 100.206 109.11 99.9987 109.12C99.7914 109.131 99.5847 109.148 99.3788 109.173C99.1729 109.198 98.968 109.23 98.7644 109.268C98.5607 109.307 98.3588 109.353 98.1586 109.406C97.9583 109.459 97.7603 109.518 97.5643 109.584C97.3684 109.651 97.1752 109.724 96.9847 109.804C96.7943 109.883 96.6069 109.97 96.4228 110.062C96.2386 110.155 96.058 110.254 95.8812 110.359L81.6287 90.7122L63.4908 90.7122C46.2071 90.7122 32.3902 78.182 32.3902 63.1554C32.3902 47.2696 47.0779 33.0537 63.4908 33.0537L63.4908 27.607C44.0467 27.607 26.7964 44.3195 26.7964 63.1392C26.7964 81.5212 43.2093 96.1587 63.5076 96.1587L79.0497 96.1587L92.0124 114.136C91.9246 114.247 91.8393 114.36 91.7562 114.474C91.6732 114.589 91.5927 114.705 91.5146 114.823C91.4366 114.941 91.3611 115.06 91.2882 115.181C91.2151 115.302 91.1448 115.424 91.077 115.548C91.0092 115.672 90.9442 115.797 90.8818 115.923C90.8193 116.049 90.7596 116.177 90.7027 116.305C90.6456 116.434 90.5914 116.564 90.5399 116.695C90.4885 116.825 90.4398 116.957 90.394 117.09C90.3481 117.223 90.3051 117.356 90.265 117.491C90.2249 117.625 90.1875 117.761 90.1532 117.897C90.1188 118.032 90.0873 118.169 90.0588 118.306C90.0302 118.444 90.0046 118.581 89.9819 118.72C89.9592 118.858 89.9395 118.996 89.9227 119.136C89.9059 119.275 89.8921 119.414 89.8813 119.553C89.8705 119.693 89.8626 119.833 89.8577 119.973C89.8528 120.113 89.8509 120.253 89.852 120.393C89.8446 120.575 89.8421 120.757 89.8444 120.94C89.8466 121.122 89.8536 121.304 89.8652 121.486C89.8767 121.668 89.8931 121.85 89.9143 122.031C89.9355 122.212 89.9612 122.393 89.9918 122.573C90.0223 122.753 90.0573 122.932 90.0972 123.11C90.137 123.288 90.1814 123.466 90.2305 123.642C90.2795 123.818 90.3331 123.993 90.3912 124.166C90.4492 124.34 90.5118 124.512 90.5789 124.682C90.6459 124.853 90.7173 125.021 90.7932 125.188C90.869 125.355 90.9491 125.52 91.0335 125.683C91.1178 125.846 91.2063 126.007 91.2991 126.166C91.3918 126.325 91.4886 126.481 91.5895 126.635C91.6904 126.789 91.7953 126.941 91.904 127.09C92.0128 127.239 92.1253 127.385 92.2416 127.528C92.358 127.672 92.4781 127.812 92.6017 127.95C92.7253 128.088 92.8524 128.222 92.9832 128.354C93.1138 128.485 93.2477 128.613 93.3852 128.738C93.5224 128.863 93.6629 128.985 93.8064 129.103C93.9501 129.22 94.0967 129.335 94.2463 129.446C94.3959 129.557 94.5483 129.664 94.7034 129.767C94.8585 129.872 95.0162 129.971 95.1765 130.066C95.3369 130.163 95.4996 130.255 95.6647 130.342C95.8299 130.43 95.9971 130.514 96.1665 130.594C96.3361 130.674 96.5075 130.75 96.6808 130.821C96.8542 130.892 97.0294 130.959 97.2062 131.022C97.3831 131.085 97.5615 131.143 97.7415 131.198C97.9214 131.252 98.1027 131.302 98.2851 131.347C98.4676 131.392 98.6512 131.434 98.8358 131.47C99.0204 131.506 99.2059 131.538 99.3923 131.565C99.5786 131.592 99.7654 131.616 99.9529 131.634C100.14 131.653 100.328 131.666 100.516 131.675C100.705 131.684 100.893 131.689 101.081 131.689C101.27 131.689 101.458 131.684 101.646 131.675C101.835 131.666 102.022 131.653 102.21 131.634C102.397 131.616 102.584 131.592 102.771 131.565C102.957 131.538 103.142 131.506 103.327 131.47C103.511 131.434 103.695 131.392 103.878 131.347C104.06 131.302 104.241 131.252 104.421 131.198C104.601 131.143 104.78 131.085 104.956 131.022C105.133 130.959 105.309 130.892 105.482 130.821C105.655 130.75 105.827 130.674 105.996 130.594C106.166 130.514 106.333 130.43 106.498 130.342C106.663 130.255 106.826 130.163 106.986 130.066C107.146 129.971 107.304 129.872 107.459 129.767C107.615 129.664 107.767 129.557 107.916 129.446C108.066 129.335 108.213 129.22 108.356 129.103C108.5 128.985 108.64 128.863 108.778 128.738C108.915 128.613 109.049 128.485 109.18 128.354C109.31 128.222 109.437 128.088 109.561 127.95C109.685 127.812 109.805 127.672 109.921 127.528C110.037 127.385 110.15 127.239 110.259 127.09C110.368 126.941 110.472 126.789 110.573 126.635C110.674 126.481 110.771 126.325 110.864 126.166C110.956 126.007 111.045 125.846 111.129 125.683C111.214 125.52 111.294 125.355 111.37 125.188C111.445 125.021 111.517 124.853 111.584 124.682C111.651 124.512 111.714 124.34 111.772 124.166C111.83 123.993 111.883 123.818 111.932 123.642C111.981 123.466 112.026 123.288 112.065 123.11C112.105 122.932 112.141 122.753 112.171 122.573C112.202 122.393 112.227 122.212 112.248 122.031C112.27 121.85 112.286 121.668 112.298 121.486C112.309 121.304 112.316 121.122 112.318 120.94C112.321 120.757 112.318 120.575 112.311 120.393C112.303 120.209 112.291 120.026 112.275 119.843C112.258 119.66 112.237 119.477 112.212 119.295C112.187 119.113 112.157 118.931 112.123 118.751C112.089 118.57 112.051 118.39 112.008 118.211C111.966 118.032 111.919 117.854 111.867 117.677C111.816 117.5 111.761 117.325 111.701 117.15C111.642 116.976 111.578 116.803 111.51 116.631C111.442 116.46 111.37 116.29 111.294 116.122C111.217 115.953 111.137 115.787 111.053 115.622C110.969 115.457 110.881 115.295 110.789 115.134C110.697 114.973 110.601 114.815 110.501 114.658C110.402 114.502 110.298 114.348 110.191 114.196C110.084 114.045 109.974 113.895 109.859 113.749C109.745 113.602 109.628 113.458 109.506 113.316C109.385 113.175 109.261 113.036 109.133 112.9C109.005 112.765 108.874 112.632 108.74 112.502C108.606 112.372 108.468 112.245 108.328 112.121C108.188 111.998 108.045 111.877 107.898 111.76C107.752 111.643 107.603 111.529 107.452 111.418C107.3 111.308 107.146 111.201 106.989 111.097C106.832 110.993 106.673 110.893 106.512 110.797C106.35 110.701 106.186 110.608 106.02 110.519C105.854 110.43 105.686 110.344 105.516 110.263C105.346 110.182 105.174 110.104 105 110.03C104.826 109.957 104.651 109.887 104.473 109.821C104.296 109.755 104.117 109.693 103.937 109.636C103.757 109.578 103.576 109.524 103.393 109.475C103.21 109.425 103.026 109.38 102.841 109.338C102.656 109.297 102.47 109.26 102.284 109.227C102.097 109.194 101.909 109.166 101.721 109.141C101.533 109.117 101.345 109.097 101.156 109.081C100.966 109.065 100.777 109.053 100.587 109.046L100.621 109.111ZM98.4604 18.8213C98.5833 18.9148 98.708 19.0062 98.8346 19.095C98.9611 19.1839 99.0894 19.2705 99.2194 19.3547C99.3493 19.4388 99.481 19.5205 99.6142 19.5998C99.7474 19.6791 99.8822 19.7559 100.018 19.8301C100.155 19.9044 100.292 19.9761 100.432 20.0452C100.571 20.1142 100.711 20.1808 100.853 20.2447C100.995 20.3086 101.138 20.3699 101.282 20.4285C101.426 20.487 101.571 20.5429 101.718 20.5962C101.864 20.6493 102.012 20.6998 102.16 20.7475C102.308 20.7951 102.458 20.8401 102.608 20.8823C102.758 20.9245 102.909 20.9637 103.061 21.0002C103.213 21.0367 103.365 21.0705 103.518 21.1013C103.671 21.1322 103.825 21.1603 103.979 21.1854C104.133 21.2106 104.288 21.2328 104.443 21.2521C104.598 21.2716 104.753 21.2881 104.909 21.3017C105.065 21.3153 105.221 21.326 105.377 21.3339C105.56 21.3306 105.743 21.3229 105.925 21.3111C106.108 21.2993 106.29 21.2832 106.471 21.263C106.653 21.2427 106.834 21.2182 107.015 21.1896C107.195 21.1608 107.375 21.128 107.554 21.091C107.732 21.054 107.91 21.0128 108.087 20.9676C108.264 20.9223 108.439 20.8729 108.614 20.8195C108.788 20.7661 108.961 20.7087 109.132 20.6471C109.304 20.5857 109.474 20.5203 109.642 20.451C109.81 20.3816 109.977 20.3084 110.141 20.2314C110.306 20.1544 110.469 20.0735 110.629 19.9889C110.79 19.9042 110.948 19.816 111.105 19.724C111.261 19.632 111.415 19.5365 111.566 19.4374C111.718 19.3382 111.867 19.2356 112.013 19.1296C112.16 19.0236 112.304 18.9142 112.445 18.8016C112.586 18.6888 112.724 18.5729 112.859 18.4538C112.994 18.3347 113.127 18.2126 113.256 18.0873C113.385 17.9621 113.511 17.8338 113.634 17.7028C113.757 17.5716 113.876 17.4377 113.992 17.3011C114.109 17.1645 114.221 17.0251 114.331 16.8833C114.44 16.7414 114.546 16.597 114.648 16.4502C114.75 16.3034 114.849 16.1543 114.943 16.003C115.038 15.8517 115.129 15.6982 115.216 15.5425C115.304 15.3869 115.387 15.2294 115.466 15.0699C115.546 14.9105 115.621 14.7493 115.693 14.5863C115.764 14.4234 115.831 14.2588 115.894 14.0927C115.958 13.9266 116.017 13.7592 116.072 13.5903C116.127 13.4215 116.177 13.2515 116.224 13.0803C116.27 12.9091 116.313 12.737 116.351 12.5638C116.389 12.3906 116.422 12.2167 116.452 12.042C116.481 11.8673 116.506 11.692 116.527 11.5162C116.547 11.3403 116.564 11.164 116.576 10.9874C116.587 10.8108 116.595 10.634 116.598 10.457C116.591 10.2835 116.58 10.1103 116.565 9.93727C116.549 9.76428 116.529 9.59175 116.505 9.41969C116.481 9.24762 116.453 9.07621 116.42 8.90547C116.388 8.73471 116.351 8.56481 116.31 8.39575C116.269 8.22669 116.224 8.05869 116.175 7.89174C116.126 7.72476 116.073 7.55904 116.015 7.39454C115.958 7.23005 115.896 7.06698 115.831 6.90535C115.765 6.7437 115.696 6.58367 115.622 6.42525C115.549 6.26683 115.472 6.1102 115.391 5.95536C115.309 5.80052 115.224 5.64764 115.136 5.49674C115.047 5.34584 114.954 5.19708 114.858 5.05046C114.762 4.90384 114.663 4.75954 114.559 4.61754C114.456 4.47554 114.349 4.336 114.239 4.19895C114.129 4.06191 114.016 3.92748 113.899 3.79568C113.782 3.66389 113.662 3.53488 113.539 3.40864C113.416 3.2824 113.29 3.1591 113.16 3.03872C113.031 2.91834 112.899 2.80101 112.764 2.68676C112.629 2.5725 112.491 2.46144 112.35 2.35358C112.21 2.24571 112.067 2.14116 111.921 2.03993C111.775 1.9387 111.627 1.8409 111.476 1.74654C111.326 1.65217 111.173 1.56135 111.018 1.47407C110.863 1.38679 110.706 1.30315 110.546 1.22316C110.387 1.14316 110.226 1.0669 110.063 0.99437C109.9 0.921845 109.735 0.853136 109.569 0.788242C109.402 0.723348 109.235 0.662345 109.065 0.605233C108.896 0.548122 108.725 0.494967 108.553 0.445768C108.381 0.39657 108.208 0.351386 108.034 0.310214C107.859 0.269042 107.684 0.23193 107.508 0.198878C107.332 0.165828 107.155 0.136875 106.977 0.11202C106.8 0.0871645 106.622 0.066436 106.443 0.0498341C106.265 0.0332322 106.086 0.0207763 105.907 0.0124663C105.727 0.0041554 105.548 0 105.369 0C105.189 0 105.01 0.0041554 104.831 0.0124663C104.652 0.0207763 104.473 0.0332322 104.294 0.0498341C104.116 0.066436 103.938 0.0871645 103.76 0.11202C103.583 0.136874 103.406 0.165827 103.23 0.198878C103.054 0.23193 102.878 0.269041 102.704 0.310213C102.53 0.351385 102.357 0.39657 102.185 0.445768C102.013 0.494967 101.842 0.548122 101.672 0.605233C101.503 0.662344 101.335 0.723347 101.169 0.788241C101.002 0.853136 100.838 0.921845 100.675 0.99437C100.512 1.0669 100.351 1.14316 100.191 1.22316C100.032 1.30315 99.875 1.38679 99.7198 1.47407C99.5648 1.56135 99.412 1.65217 99.2614 1.74654C99.1109 1.8409 98.9627 1.9387 98.8169 2.03993C98.6712 2.14116 98.5281 2.24571 98.3875 2.35358C98.2469 2.46144 98.109 2.5725 97.9739 2.68676C97.8389 2.80101 97.7067 2.91834 97.5774 3.03872C97.4481 3.1591 97.3219 3.2824 97.1988 3.40864C97.0756 3.53488 96.9557 3.66389 96.8388 3.79568C96.722 3.92747 96.6086 4.06189 96.4984 4.19895C96.3883 4.336 96.2817 4.47554 96.1784 4.61754C96.0751 4.75954 95.9754 4.90384 95.8793 5.05046C95.7832 5.19708 95.6909 5.34584 95.6021 5.49674C95.5133 5.64764 95.4284 5.80052 95.3473 5.95536C95.2661 6.1102 95.1888 6.26683 95.1154 6.42525C95.0419 6.58367 94.9725 6.7437 94.9069 6.90535C94.8415 7.06698 94.78 7.23005 94.7226 7.39454C94.6652 7.55904 94.6117 7.72476 94.5625 7.89174C94.5134 8.05869 94.4683 8.22669 94.4274 8.39575C94.3865 8.56481 94.3497 8.73471 94.3172 8.90547C94.2846 9.07621 94.2564 9.24762 94.2324 9.41969C94.2083 9.59175 94.1886 9.76428 94.1731 9.93727C94.1575 10.1103 94.1463 10.2835 94.1394 10.457C94.1479 10.8145 94.1726 11.1709 94.2135 11.5263C94.2544 11.8817 94.3114 12.2347 94.3843 12.5852C94.4574 12.9358 94.5461 13.2826 94.6506 13.6256C94.7552 13.9686 94.8751 14.3064 95.0103 14.6392L83.2868 27.607L79.9037 27.607L79.9037 33.0374L85.9497 33.0374L98.4604 18.8213Z"></path><path id="路径 3" fill-rule="evenodd" style="fill:#AAC0E6" opacity="1" d="M67.3766 118.723L53.5931 118.723L53.5931 107.376L51.4326 106.955C50.8276 106.807 50.2253 106.649 49.626 106.481C49.0266 106.313 48.4303 106.135 47.8373 105.947C47.2442 105.759 46.6545 105.561 46.0685 105.353C45.4825 105.146 44.9003 104.929 44.3221 104.702C43.7438 104.475 43.1697 104.238 42.5998 103.992C42.0299 103.746 41.4646 103.49 40.9039 103.225C40.3432 102.96 39.7873 102.686 39.2363 102.402C38.6852 102.119 38.1394 101.826 37.5989 101.524L35.9241 100.276L28.1531 106.955L17.7862 96.5153L24.703 88.151L23.8322 86.5301C23.4983 85.9373 23.1743 85.3395 22.8603 84.7367C22.5463 84.1341 22.2425 83.5265 21.9486 82.9141C21.6547 82.3019 21.3711 81.6853 21.0977 81.0642C20.8244 80.4432 20.5613 79.818 20.3087 79.1887C20.056 78.5595 19.8139 77.9265 19.5824 77.2897C19.3507 76.653 19.1298 76.0128 18.9193 75.3691C18.709 74.7255 18.5093 74.0788 18.3204 73.4289C18.1315 72.779 17.9534 72.1264 17.7862 71.4711L16.932 69.3799L5.61053 69.3799L5.61053 53.9319L17.334 53.9319L17.7694 51.8408C17.9201 51.2713 18.0817 50.7046 18.2537 50.1407C18.4258 49.5769 18.6084 49.0163 18.8016 48.4588C18.9947 47.9015 19.1984 47.3477 19.4124 46.7974C19.6265 46.2471 19.8508 45.7008 20.0855 45.1585C20.3202 44.6162 20.5649 44.0783 20.8197 43.5447C21.0747 43.011 21.3395 42.482 21.6143 41.9576C21.8891 41.4334 22.1737 40.914 22.4681 40.3997C22.7625 39.8855 23.0664 39.3765 23.38 38.8729L24.2508 37.2519L17.7694 29.7305L28.1364 19.6966L36.3428 25.9699L38.0176 24.7054C38.5429 24.3775 39.0758 24.0617 39.6166 23.7579C40.1571 23.4542 40.7048 23.1628 41.2595 22.8837C41.8142 22.6048 42.3753 22.3385 42.9428 22.0849C43.5104 21.8313 44.0838 21.5907 44.663 21.3631C45.2421 21.1356 45.8265 20.9211 46.416 20.7198C47.0055 20.5187 47.5996 20.331 48.1983 20.1567C48.7969 19.9825 49.3994 19.8219 50.0058 19.6748C50.6121 19.5278 51.2217 19.3946 51.8345 19.2752L53.5093 19.2752L53.5093 9.63026L67.3263 9.63026L67.3263 16.3088L72.9368 16.3088L72.9368 4.19995L48.3677 4.19995L48.3677 15.0606C47.3425 15.3135 46.3274 15.5998 45.3223 15.9195C44.3173 16.2391 43.3246 16.5915 42.3442 16.9765C41.364 17.3614 40.3982 17.7782 39.447 18.2266C38.496 18.6751 37.5617 19.1543 36.6443 19.6642L27.6339 12.5643L10.3669 29.6981L18.1379 38.0462C17.8579 38.4481 17.5855 38.855 17.3208 39.2666C17.0561 39.6784 16.7993 40.0945 16.5504 40.5152C16.3015 40.936 16.0606 41.361 15.8278 41.7903C15.595 42.2196 15.3703 42.6528 15.1539 43.0901C14.9375 43.5274 14.7295 43.9683 14.5297 44.4129C14.3299 44.8576 14.1386 45.3056 13.9559 45.757C13.7732 46.2084 13.599 46.6629 13.4333 47.1205C13.2678 47.5781 13.111 48.0385 12.9628 48.5016L0 48.5016L0 74.8427L12.5274 74.8427C12.8635 75.9562 13.2237 77.0623 13.6079 78.161C13.9923 79.2598 14.4004 80.3503 14.8322 81.4324C15.264 82.5145 15.7192 83.5874 16.1978 84.6508C16.6764 85.7143 17.178 86.7675 17.7025 87.8106L10.3669 96.9854L28.0694 114.541L37.1466 106.582C37.577 106.847 38.0127 107.104 38.454 107.352C38.8953 107.6 39.3417 107.839 39.7933 108.069C40.2448 108.299 40.7012 108.519 41.1623 108.731C41.6233 108.942 42.0887 109.144 42.5585 109.337C43.0283 109.53 43.5021 109.713 43.9798 109.887C44.4575 110.06 44.9386 110.224 45.4233 110.378C45.9081 110.533 46.396 110.677 46.8869 110.812C47.3778 110.946 47.8715 111.071 48.3677 111.185L48.3677 123.732L72.987 123.732L72.987 107.019L67.3766 107.019L67.3766 118.723Z"></path><path id="路径 4" fill-rule="evenodd" style="fill:#AAC0E6" opacity="1" d="M67.812 60.2052L72.5516 60.2052L72.5516 65.6356L67.812 65.6356L67.812 60.2052ZM79.9039 60.2052L84.6435 60.2052L84.6435 65.6356L79.9039 65.6356L79.9039 60.2052ZM67.812 27.6071L72.5516 27.6071L72.5516 33.0374L67.812 33.0374L67.812 27.6071ZM72.5516 74.4213L79.9039 74.4213L79.9039 79.8516L72.5516 79.8516L72.5516 74.4213Z"></path></g></svg>