<svg xmlns="http://www.w3.org/2000/svg" xmlns:xlink="http://www.w3.org/1999/xlink" width="57.25518798828125" height="58.77069091796875" viewBox="0 0 57.25518798828125 58.77069091796875" fill="none"><path id="路径 1" fill-rule="evenodd" style="fill:#AAC0E6" opacity="1" d="M36.4436 41.1265C38.432 42.4883 39.6367 44.6777 39.5607 46.9962C39.4613 50.0014 37.2857 52.543 33.496 53.8402C33.4551 56.5696 31.2386 58.7707 28.5075 58.7707C25.753 58.7707 23.5189 56.5285 23.5189 53.7639C23.5189 50.9993 25.753 48.7571 28.5075 48.7571C30.4082 48.7571 32.0632 49.8254 32.9054 51.3984C34.2388 50.9171 35.2564 50.2656 35.9582 49.4967C36.6716 48.716 37.0401 47.8297 37.0693 46.914C37.1336 45.0944 35.8587 43.3218 33.8411 42.5822L33.8645 42.5235C33.2563 42.8111 32.6305 43.0752 31.9872 43.3159C28.3028 44.7187 24.2675 45.3527 20.6708 45.159C16.9981 44.9594 14.0097 43.9087 12.4073 42.0891C10.8107 40.2813 10.7171 37.9627 12.1032 35.4799C10.9452 35.1864 9.93932 34.6346 9.12642 33.854C6.69355 34.3236 4.50048 33.3903 2.86297 31.3828C1.4243 29.6161 0.465194 27.0804 0.131844 24.3334C-0.207354 21.5805 0.108451 18.8041 1.07341 16.5678C2.05591 14.2904 3.66418 12.6586 5.80464 11.9366C6.28417 8.69069 7.47136 6.13152 9.26677 4.32364C11.0388 2.54513 13.3255 1.5825 15.7876 1.46511C17.7935 1.3712 19.7644 1.84077 21.4311 2.72122C23.133 0.889883 25.9167 -0.207746 28.6829 0.0329104C31.1158 0.250088 33.3323 1.42989 35.1452 3.54297C37.5547 2.73296 40.397 2.57448 42.7947 3.36688C44.9586 4.08298 46.6546 5.50931 47.7365 7.65176C50.9764 8.56743 53.8362 10.6042 55.0585 13.1751C56.2749 15.746 56.4036 18.6985 55.3041 21.5218C57.5557 24.3979 57.9066 28.4774 56.1054 31.5707C55.0819 33.3257 53.4502 34.6229 51.3566 35.2744C49.1167 35.9671 46.4207 35.9084 43.3679 35.0396C43.2217 34.9986 43.0872 34.934 42.9702 34.846C42.6719 35.2803 42.3561 35.7147 42.0228 36.149C40.5256 38.1036 38.6308 39.7647 36.4436 41.1265ZM14.9279 35.7029C14.115 36.7888 13.6997 37.7514 13.6296 38.5615C13.5711 39.2717 13.7816 39.8763 14.267 40.428C15.3489 41.6548 17.7292 42.4883 20.7995 42.6585C24.0511 42.8346 27.7355 42.2535 31.0983 40.9739C34.7944 39.5652 37.9115 37.4051 40.0519 34.6288C42.0988 31.9698 43.2451 29.5339 43.5258 27.321C41.3444 26.781 39.7303 24.8088 39.7303 22.4551C39.7303 19.6905 41.9643 17.4482 44.7188 17.4482C47.4733 17.4482 49.7074 19.6905 49.7074 22.4551C49.7074 24.7619 48.1517 26.7047 46.0347 27.2858C45.8651 29.0291 45.2803 30.837 44.286 32.6977C46.7949 33.3785 48.9237 33.4079 50.6197 32.8796C52.1227 32.4159 53.2456 31.5178 53.9532 30.3087C55.3275 27.9491 54.924 24.6973 52.9473 22.6136C52.5906 22.2379 52.5028 21.6861 52.7251 21.2166C53.8362 18.8511 53.8187 16.3858 52.8069 14.2551C52.0935 12.7525 50.6255 11.4494 48.76 10.6336C48.836 10.9857 48.8945 11.3438 48.9471 11.7194C49.0407 12.4062 48.5611 13.0343 47.8827 13.1282C47.1985 13.2221 46.5727 12.7408 46.4791 12.0599C45.9996 8.52634 44.4206 6.54826 42.0169 5.74997C40.4028 5.21583 38.432 5.25104 36.6658 5.70301C37.0459 6.35457 37.3968 7.0648 37.7185 7.82785C37.9875 8.46765 37.6892 9.20136 37.0518 9.46549C36.4143 9.7355 35.6833 9.43614 35.4201 8.79635C34.5253 6.66566 33.3966 5.08669 32.1042 4.04189C30.9813 3.13209 29.7473 2.63317 28.4666 2.52165C26.5951 2.3573 24.7061 3.04992 23.5072 4.17102C24.7061 5.28039 25.56 6.67153 25.8582 8.22699C25.9927 8.90787 25.5483 9.56528 24.8699 9.69441C24.1915 9.82941 23.5365 9.38332 23.4078 8.70243C22.8756 5.95543 19.4837 3.78363 15.9045 3.95385C14.0448 4.04189 12.3488 4.75799 11.0329 6.07869C9.50655 7.61068 8.5065 9.9292 8.17315 13.0401C8.11467 13.5801 7.71699 14.0262 7.1848 14.1319C5.45374 14.4899 4.16712 15.6697 3.36007 17.548C2.58225 19.35 2.31908 21.6861 2.5998 24.0223C2.88051 26.3291 3.67002 28.4187 4.78704 29.7863C5.6058 30.79 6.54734 31.3535 7.59418 31.4474C6.75788 28.7474 8.02695 25.3488 10.799 22.9657C10.1616 22.1381 9.78727 21.0874 9.78727 19.9546C9.78727 17.19 12.0213 14.9478 14.7758 14.9478C17.5303 14.9478 19.7644 17.19 19.7644 19.9546C19.7644 22.7192 17.5362 24.9614 14.7758 24.9614C14.0155 24.9614 13.2904 24.7912 12.6412 24.4801C9.70539 26.8104 9.0036 29.6454 10.3779 31.5178C11.068 32.4629 12.109 33.044 13.4775 33.1907C15.0916 33.3609 17.0976 32.9207 19.4135 31.7996C20.6358 31.2068 21.7996 30.9015 22.9867 30.8135C23.8698 30.7489 24.5424 30.7959 25.829 30.9485C26.5308 31.0307 26.7764 31.06 27.1156 31.0776C28.5133 31.1598 29.5134 30.8663 30.7708 29.8391C31.993 28.8413 32.3264 27.1567 31.6305 24.5858C31.0456 24.8264 30.4082 24.9614 29.7356 24.9614C26.9811 24.9614 24.7471 22.7192 24.7471 19.9546C24.7471 17.19 26.9811 14.9478 29.7356 14.9478C32.4901 14.9478 34.7242 17.19 34.7242 19.9546C34.7242 21.0757 34.3557 22.1088 33.7358 22.9423C33.7417 22.9599 33.7475 22.9775 33.7534 22.9892C35.0341 26.9043 34.6248 29.9154 32.3381 31.782C30.5778 33.2201 28.9637 33.6896 26.9694 33.5781C26.56 33.5546 26.2852 33.5253 25.5249 33.4372C24.3903 33.3022 23.8406 33.267 23.1563 33.314C22.2791 33.3785 21.4194 33.6016 20.4837 34.0594C18.5011 35.0279 16.6239 35.5738 14.9279 35.7029ZM29.7473 22.4551C31.1275 22.4551 32.2445 21.334 32.2445 19.9487C32.2445 18.5635 31.1275 17.4482 29.7473 17.4482C28.3671 17.4482 27.2501 18.5694 27.2501 19.9546C27.2501 21.3398 28.373 22.4551 29.7473 22.4551ZM14.7758 22.4551C16.156 22.4551 17.273 21.334 17.273 19.9487C17.273 18.5635 16.156 17.4482 14.7758 17.4482C13.3956 17.4482 12.2786 18.5694 12.2786 19.9546C12.2786 21.3398 13.4015 22.4551 14.7758 22.4551ZM44.7188 24.9614C46.099 24.9614 47.216 23.8403 47.216 22.4551C47.216 21.0698 46.099 19.9487 44.7188 19.9487C43.3386 19.9487 42.2216 21.0698 42.2216 22.4551C42.2216 23.8403 43.3445 24.9614 44.7188 24.9614ZM28.5016 56.2644C29.8818 56.2644 30.9988 55.1433 30.9988 53.758C30.9988 52.3728 29.8818 51.2576 28.5016 51.2576C27.1215 51.2576 26.0044 52.3787 26.0044 53.7639C26.0044 55.1491 27.1215 56.2644 28.5016 56.2644Z"></path></svg>