<svg xmlns="http://www.w3.org/2000/svg" xmlns:xlink="http://www.w3.org/1999/xlink" width="70" height="59.96490478515625" viewBox="0 0 70 59.96490478515625" fill="none"><g opacity="1"  transform="translate(0 0)"><path id="路径 1" fill-rule="evenodd" style="fill:#153E8B" opacity="1" d="M52.5 0.553772L17.5 0.553772L0 30.2593L17.5 59.9649L52.4999 59.9649L69.9999 30.2593L52.5 0.553772ZM50.816 57.1065L19.1839 57.1065L3.36788 30.2593L19.184 3.41223L50.8161 3.41223L66.6321 30.2594L50.816 57.1065Z"></path><path id="路径 2" fill-rule="evenodd" style="fill:#153E8B" opacity="1" d="M49.8335 27.2498C49.6914 27.2498 49.5518 27.2591 49.4142 27.2754L44.9288 20.4651C45.6322 19.6222 46.055 18.5461 46.055 17.3748C46.055 14.6787 43.8169 12.4852 41.0659 12.4852C38.3148 12.4852 36.0767 14.6787 36.0767 17.3748C36.0767 18.9206 36.8133 20.3003 37.9598 21.197L28.8091 39.1472C28.6382 39.1276 28.4662 39.1176 28.2942 39.1173C27.9695 39.1175 27.6457 39.1523 27.3287 39.2213L22.9334 32.4399C23.2725 31.9031 23.4517 31.2842 23.4508 30.6529C23.4508 28.7735 21.8961 27.2498 19.9783 27.2498C18.0606 27.2498 16.5059 28.7735 16.5059 30.6529C16.5059 32.5324 18.0606 34.056 19.9783 34.056C20.1117 34.056 20.2432 34.0479 20.3727 34.0336L24.7686 40.8159C24.1866 41.5536 23.8394 42.4783 23.8394 43.483C23.8394 45.8942 25.8339 47.8488 28.2942 47.8488C30.7544 47.8488 32.7489 45.8942 32.7489 43.483C32.7489 42.3175 32.2819 41.2594 31.5224 40.4764L40.8099 22.2579C41.3417 22.2847 41.8744 22.2275 42.3877 22.0887L46.8649 28.8865C46.5344 29.4187 46.36 30.0299 46.361 30.6528C46.361 32.5323 47.9157 34.056 49.8335 34.056C51.7512 34.056 53.3059 32.5323 53.3059 30.6528C53.3059 28.7735 51.7512 27.2498 49.8335 27.2498ZM39.1101 17.3748C39.1101 16.318 39.9874 15.4581 41.0659 15.4581C42.1443 15.4581 43.0216 16.318 43.0216 17.3748C43.0216 18.4317 42.1443 19.2915 41.0659 19.2915C39.9874 19.2915 39.1101 18.4317 39.1101 17.3748Z"></path></g></svg>