<svg xmlns="http://www.w3.org/2000/svg" xmlns:xlink="http://www.w3.org/1999/xlink" width="60" height="56.9957275390625" viewBox="0 0 60 56.9957275390625" fill="none"><g opacity="1"  transform="translate(0 0)"><path id="路径 1" fill-rule="evenodd" style="fill:#153E8B" opacity="1" d="M26.1136 42.6446C24.0812 42.6446 22.0488 42.1802 20.1582 41.2977C13.3047 38.0467 10.4216 29.9657 13.6829 23.2314C16.9914 16.4972 25.2156 13.6642 32.069 16.8688C35.3776 18.4478 37.8826 21.1879 39.1115 24.5783C40.3404 28.0151 40.1041 31.6841 38.5443 34.9351C36.9373 38.1861 34.1487 40.6475 30.6983 41.8551C29.1858 42.4124 27.6261 42.6446 26.1136 42.6446ZM26.1136 17.4261C21.6707 17.4261 17.4168 19.8875 15.3844 24.0674C14.0137 26.9004 13.8247 30.0585 14.8645 32.9845C15.9043 35.9104 18.0785 38.279 20.9144 39.6722C23.7976 41.0191 27.0116 41.2049 29.9894 40.1831C32.9671 39.1614 35.3776 37.025 36.7955 34.2384C38.1662 31.4054 38.3553 28.2473 37.3155 25.3214C36.2756 22.3955 34.1014 20.0269 31.2655 18.6336C29.6112 17.7976 27.8624 17.4261 26.1136 17.4261Z"></path><path id="路径 2" fill-rule="evenodd" style="fill:#153E8B" opacity="1" d="M26.1139 38.465C24.6959 38.465 23.2779 38.1399 22.0018 37.5361C19.6858 36.468 17.9843 34.5638 17.1335 32.1952C17.039 31.963 17.1807 31.6843 17.4171 31.5914C17.6534 31.4986 17.937 31.6379 18.0315 31.8701C18.7878 34.0065 20.3475 35.7249 22.4272 36.7002C23.6088 37.2575 24.8377 37.5361 26.1611 37.5361C26.4447 37.5361 26.6338 37.7219 26.6338 38.0006C26.5865 38.2792 26.3502 38.465 26.1139 38.465ZM55.8436 29.7337C55.2292 29.7337 54.6147 29.5944 54.0475 29.3157C51.9679 28.3404 51.1171 25.9254 52.1097 23.8819C53.1022 21.8384 55.56 21.0025 57.6397 21.9778C58.6323 22.4422 59.3885 23.2782 59.7666 24.2999C60.1447 25.3217 60.0502 26.4363 59.5776 27.4116C58.8686 28.8978 57.4034 29.7337 55.8436 29.7337ZM55.8436 23.4639C54.9929 23.4639 54.1893 23.9284 53.8112 24.7179C53.5276 25.2288 53.5276 25.8325 53.7167 26.3898C53.9058 26.9472 54.3311 27.4116 54.8511 27.6438C55.9854 28.1547 57.3088 27.6902 57.876 26.6221C58.1596 26.1112 58.1596 25.5074 57.9706 24.9501C57.7815 24.3928 57.3561 23.9284 56.8362 23.6961C56.5053 23.5568 56.1745 23.4639 55.8436 23.4639ZM9.19294 26.2505C8.57849 26.2505 7.96405 26.1112 7.39686 25.8325C6.4043 25.3681 5.64805 24.5321 5.26993 23.5104C4.89181 22.4886 4.98634 21.374 5.45899 20.3987C6.45156 18.3552 8.90935 17.5192 10.989 18.4945C11.9816 18.959 12.7378 19.7949 13.1159 20.8167C13.4941 21.8384 13.3995 22.9531 12.9269 23.9284C12.4542 24.9037 11.6035 25.6468 10.5636 26.0183C10.1382 26.2041 9.66559 26.2505 9.19294 26.2505ZM9.2402 19.9807C8.38943 19.9807 7.58593 20.4451 7.2078 21.2347C6.92421 21.7455 6.92421 22.3493 7.11327 22.9066C7.30233 23.4639 7.72772 23.9284 8.24764 24.1606C8.76755 24.4392 9.382 24.4392 9.94918 24.2535C10.5164 24.0677 10.989 23.6497 11.2253 23.1388C11.7453 22.0242 11.2726 20.7238 10.1855 20.1665C9.85465 20.0736 9.5238 19.9807 9.2402 19.9807ZM23.3252 56.9957C22.2854 56.9957 21.2455 56.7635 20.3002 56.2991C16.8026 54.6271 15.3374 50.4937 16.9917 47.0569C18.6932 43.6202 22.8998 42.1804 26.3974 43.8059C29.8951 45.4779 31.3603 49.6113 29.706 53.0481C28.4771 55.5096 25.9721 56.9957 23.3252 56.9957ZM23.3725 44.967C21.4346 44.967 19.5913 46.0352 18.6932 47.8465C17.4643 50.3544 18.5514 53.4196 21.1038 54.6271C23.6561 55.8347 26.7756 54.7665 28.0045 52.2586C29.2334 49.7506 28.1463 46.6854 25.5939 45.4779C24.885 45.1528 24.0815 44.967 23.3725 44.967ZM8.72029 17.705C7.44413 17.705 6.12071 17.4264 4.93908 16.869C2.85941 15.8937 1.2524 14.1289 0.496155 11.9925C-0.260087 9.80971 -0.165556 7.48756 0.874277 5.44407C2.90668 1.12488 8.15311 -0.639955 12.5015 1.40353C16.8499 3.44702 18.6932 8.60219 16.5663 12.8749C15.5737 14.9184 13.7777 16.4975 11.6035 17.2406C10.6582 17.5657 9.66559 17.705 8.72029 17.705ZM8.72029 2.42528C6.16797 2.42528 3.71018 3.81857 2.52856 6.2336C1.77231 7.81266 1.63052 9.67038 2.24497 11.3423C2.85941 13.0143 4.0883 14.4076 5.74258 15.1971C7.39686 15.9866 9.2402 16.0795 10.989 15.4757C12.6906 14.872 14.1085 13.6645 14.912 12.039C16.5663 8.69508 15.1011 4.65454 11.698 3.07548C10.7054 2.61105 9.71286 2.42528 8.72029 2.42528ZM45.9652 38.0006C45.209 38.0006 44.4527 37.8148 43.7438 37.4897C42.5149 36.8859 41.5696 35.9106 41.1442 34.6102C40.6715 33.3563 40.766 31.963 41.3805 30.7555C41.9949 29.548 42.9875 28.6191 44.3109 28.2011C45.5871 27.7367 47.005 27.8296 48.2339 28.4333C49.4628 29.0371 50.4081 30.0124 50.8335 31.3128C51.3062 32.5668 51.2116 33.96 50.5972 35.1676C49.9827 36.3751 48.9902 37.3039 47.6668 37.7219C47.0996 37.9077 46.5324 38.0006 45.9652 38.0006ZM45.9652 29.7802C45.5871 29.7802 45.2562 29.8266 44.8781 29.9659C44.0746 30.2446 43.4129 30.8019 43.0348 31.5914C42.6567 32.3345 42.6094 33.217 42.893 34.0065C43.1766 34.796 43.7438 35.4462 44.5473 35.8178C46.1543 36.5608 48.0921 35.9106 48.8484 34.3316C49.2265 33.5885 49.2738 32.7061 48.9902 31.9165C48.7066 31.127 48.1394 30.4768 47.3359 30.1053C46.9105 29.9195 46.4379 29.7802 45.9652 29.7802ZM46.7687 24.207C46.3433 24.207 45.9652 23.9284 45.8707 23.5104C43.082 13.9896 33.7708 7.8591 23.7506 9.02018C22.6635 9.15951 21.5291 9.34528 20.4893 9.67038C19.9694 9.80971 19.4495 9.53105 19.3077 9.02018C19.1659 8.50931 19.4495 7.99843 19.9694 7.8591C21.151 7.534 22.3326 7.30179 23.5615 7.16246C34.5271 5.9085 44.6891 12.5498 47.7613 22.9995C47.9031 23.5104 47.6195 24.0212 47.0996 24.1606C46.9578 24.207 46.8632 24.207 46.7687 24.207ZM11.7925 45.803C11.5562 45.803 11.3671 45.7101 11.1781 45.5708C8.01131 42.7842 5.74258 39.2081 4.56096 35.214C3.80471 32.6132 3.52112 29.9195 3.75745 27.2723C3.80471 26.7614 4.27737 26.3898 4.79728 26.4363C5.3172 26.4827 5.69532 26.9472 5.64805 27.458C5.41173 29.8266 5.64805 32.2881 6.35703 34.6567C7.44413 38.3257 9.5238 41.6231 12.407 44.1775C12.7851 44.5026 12.8324 45.1063 12.5015 45.4779C12.3124 45.7101 12.0288 45.803 11.7925 45.803ZM34.8106 49.3791C34.4325 49.3791 34.1017 49.1933 33.9599 48.8218C33.7708 48.3574 33.9599 47.8 34.4325 47.6143C37.7883 46.1281 40.7188 43.8059 42.893 40.8336C43.1766 40.4156 43.791 40.3227 44.2164 40.6014C44.6418 40.88 44.7363 41.4838 44.4527 41.9018C42.1367 45.1528 38.9227 47.7072 35.236 49.3327C35.0942 49.3327 34.9524 49.3791 34.8106 49.3791Z"></path></g></svg>