<svg xmlns="http://www.w3.org/2000/svg" xmlns:xlink="http://www.w3.org/1999/xlink" width="57" height="59.964935302734375" viewBox="0 0 57 59.964935302734375" fill="none"><g opacity="1"  transform="translate(0 0)"><path id="路径 1" fill-rule="evenodd" style="fill:#153E8B" opacity="1" d="M43.5417 45.1151L13.5165 45.1151C9.3901 45.1264 6.0327 41.8042 6.01025 37.6876L6.01025 7.98134C6.01025 3.88744 9.38034 0.553772 13.5165 0.553772L43.5417 0.553772C47.6778 0.553772 51.0479 3.88744 51.0479 7.98134L51.0479 37.6876C51.0255 41.8042 47.6681 45.1264 43.5417 45.1151ZM13.5165 3.52561C11.0348 3.52561 9.01358 5.52581 9.01358 7.98134L9.01358 37.6876C9.01358 40.1431 11.0348 42.1433 13.5165 42.1433L43.5417 42.1433C46.0234 42.1433 48.0446 40.1431 48.0446 37.6876L48.0446 7.98134C48.0446 5.52581 46.0234 3.52561 43.5417 3.52561L13.5165 3.52561Z"></path><path id="路径 2" fill-rule="evenodd" style="fill:#153E8B" opacity="1" d="M56.8918 57.8156L50.8851 45.9323C50.5107 45.1972 49.6128 44.8998 48.872 45.2656C48.5168 45.4395 48.246 45.7477 48.1197 46.1218C47.9934 46.4959 48.0222 46.9048 48.1996 47.2577L48.6153 48.0789L8.43511 48.0789L8.85077 47.2577C9.02819 46.9048 9.05697 46.4959 8.9307 46.1218C8.80443 45.7477 8.53359 45.4395 8.17838 45.2656C7.43777 44.8974 6.53814 45.1954 6.1653 45.9323L0.158645 57.8156C-0.212186 58.5474 0.0893692 59.4418 0.831032 59.8077C1.57073 60.1741 2.46824 59.8787 2.84412 59.145L3.93216 56.9944L53.1182 56.9944L54.2063 59.145C54.6095 59.816 55.4619 60.0652 56.1643 59.7174C56.8668 59.3697 57.1834 58.5418 56.8918 57.8156ZM5.43586 54.0266L6.93549 51.0548L50.119 51.0548L51.6186 54.0266L5.43586 54.0266ZM16.52 39.1715C14.0446 39.1782 12.0306 37.1853 12.0171 34.7158C12.0214 33.529 12.4984 32.3926 13.343 31.5569C14.1876 30.7212 15.3305 30.2546 16.52 30.26C19.0018 30.26 21.023 32.2602 21.023 34.7158C21.023 37.1713 19.0018 39.1715 16.52 39.1715ZM16.52 33.2319C15.6957 33.2296 15.0249 33.8933 15.0204 34.7158C15.0204 35.537 15.6928 36.1997 16.52 36.1997C17.3444 36.2019 18.0152 35.5382 18.0197 34.7158C18.0186 34.3204 17.8599 33.9418 17.5785 33.6634C17.2972 33.385 16.9163 33.2297 16.52 33.2319ZM40.5385 39.1715C38.0631 39.1782 36.049 37.1853 36.0356 34.7158C36.0356 32.2602 38.0568 30.26 40.5385 30.26C43.0202 30.26 45.0415 32.2602 45.0415 34.7158C45.0415 37.1713 43.0202 39.1715 40.5385 39.1715ZM40.5385 33.2319C39.7141 33.2296 39.0434 33.8933 39.0389 34.7158C39.0389 35.537 39.7113 36.1997 40.5385 36.1997C41.3629 36.2019 42.0336 35.5382 42.0381 34.7158C42.0371 34.3204 41.8783 33.9418 41.597 33.6634C41.3156 33.385 40.9348 33.2297 40.5385 33.2319ZM37.5352 9.46527L19.5193 9.46527C18.6949 9.46753 18.0242 8.80382 18.0197 7.98139C18.0197 7.16017 18.6921 6.4975 19.5193 6.4975L37.5352 6.4975C38.3624 6.4975 39.0348 7.16423 39.0348 7.98139C39.0337 8.37672 38.875 8.75538 38.5936 9.03378C38.3123 9.31218 37.9314 9.46744 37.5352 9.46527ZM43.5418 12.4371L13.5167 12.4371C12.6923 12.4349 12.0216 13.0986 12.0171 13.921L12.0171 25.8043C12.0171 26.6255 12.6895 27.2882 13.5167 27.2882L43.5418 27.2882C44.3662 27.2904 45.037 26.6267 45.0415 25.8043L45.0415 13.921C45.0404 13.5257 44.8816 13.147 44.6003 12.8686C44.3189 12.5902 43.9381 12.435 43.5418 12.4371ZM27.0256 24.3204L15.0163 24.3204L15.0163 15.4049L27.0256 15.4049L27.0256 24.3204ZM42.0381 24.3204L30.0289 24.3204L30.0289 15.4049L42.0381 15.4049L42.0381 24.3204Z"></path></g></svg>