<svg xmlns="http://www.w3.org/2000/svg" xmlns:xlink="http://www.w3.org/1999/xlink" width="62" height="52" viewBox="0 0 62 52" fill="none"><g opacity="1"  transform="translate(0 0)"><mask id="bg-mask-0" fill="white"><use transform="translate(0 0)" xlink:href="#path_0"></use></mask><g mask="url(#bg-mask-0)" ><path id="路径 1" fill-rule="evenodd" style="fill:#153E8B" opacity="1" d="M37.7072 21.48L29.9386 21.48L30.8048 12.376L30.823 11.004L28.6201 10.228L17.2151 28.34C16.8829 28.864 16.8415 29.5463 17.1075 30.114L17.6418 31.034L25.4105 31.034L24.5443 40.004C24.4636 40.7756 24.8673 41.51 25.5272 41.792L26.7235 42.152L38.1267 24.172C38.4582 23.6476 38.4989 22.9653 38.2324 22.398L37.7054 21.478L37.7072 21.48ZM27.7848 35.168L28.2991 29.838L28.3064 29.024L27.3636 27.972L20.8113 27.972L27.5715 17.24L27.0572 22.636L27.0262 23.456L27.969 24.536L34.5232 24.536L27.7848 35.168ZM58.6243 15.532L55.3472 15.532L55.3472 8.09201C55.3472 3.83201 52.227 0.37201 48.3901 0.37201L6.95533 0.37201C3.12206 0.37001 0 3.84001 0 8.09001L0 43.782C0 48.04 3.11841 51.502 6.95715 51.502L48.3937 51.502C52.2306 51.502 55.3509 48.04 55.3509 43.782L55.3509 36.348L58.6298 36.348C59.7312 36.348 60.6321 35.348 60.6321 34.128L60.6321 17.752C60.6302 16.5346 59.7361 15.5451 58.6261 15.532L58.6243 15.532ZM52.5917 17.752L52.5917 43.79C52.5917 46.36 50.7097 48.456 48.3937 48.456L6.95715 48.456C4.64114 48.456 2.75915 46.366 2.75915 43.79L2.75915 8.09201C2.75915 5.52201 4.64114 3.42601 6.95715 3.42601L48.3937 3.42601C50.7097 3.42601 52.5917 5.51601 52.5917 8.09201L52.5917 17.752ZM57.8729 33.288L55.3509 33.288L55.3509 18.588L57.8729 18.588L57.8729 33.288Z"></path></g></g><defs><rect id="path_0" x="0" y="0" width="62" height="52" rx="0" ry="0"/></defs></svg>