<svg xmlns="http://www.w3.org/2000/svg" xmlns:xlink="http://www.w3.org/1999/xlink" width="64.68017578125" height="68.28497314453125" viewBox="0 0 64.68017578125 68.28497314453125" fill="none"><path id="路径 1" fill-rule="evenodd" style="fill:#FFFFFF" opacity="1" d="M2.8 49.385L2.8 20.825L28.28 34.825L28.28 64.505L3.36 50.225C3.08 50.085 2.8 49.665 2.8 49.385ZM29.12 2.905C29.4 2.765 29.96 2.765 30.1 2.905L55.72 17.885L29.54 32.305L3.22 17.885L29.12 2.905ZM57.96 15.925L31.64 0.525C30.52 -0.175 28.98 -0.175 27.86 0.525L1.96 15.505C0.84 16.205 0 17.605 0 18.865L0 49.385C0 50.645 0.84 52.045 1.96 52.745L28.98 68.145C29.26 68.285 29.4 68.285 29.68 68.285C30.1 68.285 30.66 68.005 30.94 67.585C31.08 67.305 31.08 67.165 31.08 66.885L31.08 34.825L56.98 20.545L56.98 27.685C56.98 28.525 57.54 29.085 58.38 29.085C59.22 29.085 59.78 28.525 59.78 27.685L59.78 19.285C59.78 18.025 58.94 16.485 57.96 15.925ZM61.88 46.585L61.88 43.085C61.88 35.805 56.28 29.785 49.28 29.785C42.28 29.785 36.68 35.665 36.68 43.085L36.68 46.585C35.14 46.585 33.88 47.845 33.88 49.385L33.88 64.785C33.88 66.325 35.14 67.585 36.68 67.585L61.88 67.585C63.42 67.585 64.68 66.325 64.68 64.785L64.68 49.385C64.68 47.705 63.42 46.585 61.88 46.585ZM36.68 64.785L36.68 49.385L61.88 49.385L61.88 64.785L36.68 64.785ZM39.48 42.945C39.48 37.205 43.82 32.445 49.28 32.445C54.74 32.445 59.08 37.065 59.08 42.945L59.08 46.445L39.48 46.445L39.48 42.945ZM52.08 55.685C52.08 56.665 51.52 57.645 50.68 58.065L50.68 61.285C50.68 62.125 50.12 62.685 49.28 62.685C48.44 62.685 47.88 62.125 47.88 61.285L47.88 58.065C47.04 57.645 46.48 56.665 46.48 55.685C46.48 54.145 47.74 52.885 49.28 52.885C50.82 52.885 52.08 54.005 52.08 55.685Z"></path></svg>