<svg xmlns="http://www.w3.org/2000/svg" xmlns:xlink="http://www.w3.org/1999/xlink" width="70.048828125" height="65" viewBox="0 0 70.048828125 65" fill="none"><path id="路径 1" fill-rule="evenodd" style="fill:#FFFFFF" opacity="1" d="M1.6678 65C0.746701 65 9.02686e-16 64.2538 0 63.3334L0 16.6667C0 15.7468 0.747318 15 1.6678 15L18.8632 15L28.6466 5.47333C28.9576 5.1703 29.3747 5.00048 29.8091 4.99999L38.3601 4.99999C39.2812 4.99999 40.0279 5.74618 40.0279 6.66666C40.0279 7.58714 39.2812 8.33333 38.3601 8.33333L30.4879 8.33333L20.7044 17.86C20.3922 18.1643 19.9731 18.3342 19.5369 18.3334L3.33573 18.3334L3.33573 63.3334C3.33573 63.7754 3.16 64.1993 2.8472 64.5119C2.5344 64.8245 2.11015 65 1.6678 65ZM68.381 65L10.0069 65C9.08585 65 8.33914 64.2538 8.33914 63.3334L8.33914 25C8.33914 24.0795 9.08585 23.3333 10.0069 23.3333L38.3601 23.3333C39.2806 23.3333 40.028 24.0802 40.028 25C40.028 25.9199 39.2806 26.6667 38.3601 26.6667L11.6748 26.6667L11.6748 61.6667L66.7131 61.6667L66.7131 35C66.7131 34.0802 67.4604 33.3334 68.3809 33.3334C69.3014 33.3334 70.0488 34.0802 70.0488 35L70.0488 63.3334C70.0488 64.2538 69.3021 65 68.381 65ZM59.4832 46.3133L17.709 46.3133C17.2666 46.3133 16.8424 46.1378 16.5296 45.8252C16.2168 45.5126 16.0411 45.0887 16.0411 44.6467L16.0411 34.21C16.0411 33.768 16.2168 33.344 16.5296 33.0315C16.8424 32.7189 17.2666 32.5433 17.709 32.5434L59.4831 32.5434C60.4042 32.5434 61.1509 33.2895 61.1509 34.21L61.1509 44.6467C61.1509 45.5671 60.4042 46.3133 59.4832 46.3133ZM19.3785 42.98L57.8153 42.98L57.8153 35.8766L19.3768 35.8766L19.3768 42.98L19.3785 42.98ZM49.1926 58.1083L26.852 58.1083C26.4097 58.1083 25.9855 57.9328 25.6727 57.6202C25.3599 57.3076 25.1842 56.8837 25.1842 56.4416L25.1842 51.3767C25.1842 50.4562 25.9309 49.71 26.852 49.71L49.201 49.71C49.6433 49.71 50.0675 49.8856 50.3803 50.1981C50.6931 50.5107 50.8688 50.9346 50.8688 51.3767L50.8688 56.4416C50.8689 56.8851 50.692 57.3103 50.3774 57.6232C50.0628 57.936 49.6364 58.1106 49.1926 58.1083ZM28.5115 54.775L47.5248 54.775L47.5248 53.0434L28.5199 53.0434L28.5199 54.775L28.5115 54.775ZM23.3496 41.6666L21.6818 41.6666C20.7613 41.6666 20.0139 40.9198 20.0139 40C20.0139 39.0801 20.7613 38.3333 21.6818 38.3333L23.3496 38.3333C24.2701 38.3333 25.0175 39.0801 25.0175 40C25.0175 40.9198 24.2701 41.6666 23.3496 41.6666ZM30.0209 41.6666L28.3532 41.6666C27.4327 41.6666 26.6853 40.9198 26.6853 40C26.6853 39.0801 27.4327 38.3333 28.3532 38.3333L30.021 38.3333C30.9415 38.3333 31.6888 39.0801 31.6888 40C31.6888 40.9198 30.9415 41.6666 30.0209 41.6666ZM36.6922 41.6666L35.0244 41.6666C34.1039 41.6666 33.3566 40.9198 33.3566 40C33.3566 39.0801 34.1039 38.3333 35.0244 38.3333L36.6922 38.3333C37.6128 38.3333 38.3601 39.0801 38.3601 40C38.3601 40.9198 37.6128 41.6666 36.6922 41.6666ZM57.5401 30.6884C57.2927 30.6864 57.0489 30.6295 56.8263 30.5217C56.4177 30.3283 46.8193 25.6483 45.0464 12.4733C45.0368 12.4021 45.0317 12.3303 45.0314 12.2583L45.0314 5.32162C45.0317 4.60113 45.4953 3.96241 46.1805 3.73833L56.0391 0.50832C56.3534 0.183454 56.7861 4.17282e-06 57.2383 3.33725e-09L57.857 3.33725e-09C58.3099 -2.862e-05 58.7434 0.184069 59.0578 0.509971L68.898 3.73839C69.5826 3.96303 70.0454 4.60162 70.0455 5.32168L70.0455 12.2583C70.0454 12.3325 70.0404 12.4065 70.0305 12.48C68.2626 25.6467 58.6576 30.335 58.2506 30.5283C58.0285 30.6333 57.7858 30.6879 57.5401 30.6884ZM48.3671 12.145C49.0078 18.2629 52.3787 23.7646 57.5401 27.1167C62.7017 23.7648 66.0726 18.263 66.7132 12.145L66.7132 6.52831L57.5401 3.52834L48.3671 6.53002L48.3671 12.1467L48.3671 12.145ZM68.381 13.3333L46.6992 13.3333C45.7781 13.3333 45.0314 12.5871 45.0314 11.6666C45.0314 10.7462 45.7781 9.99997 46.6992 9.99997L68.381 9.99997C69.3021 9.99997 70.0489 10.7462 70.0489 11.6666C70.0489 12.5871 69.3021 13.3333 68.381 13.3333ZM58.374 30C57.4529 30 56.7062 29.2538 56.7062 28.3333L56.7062 3.33334C56.7062 2.41348 57.4535 1.66667 58.374 1.66667C59.2945 1.66667 60.0419 2.41348 60.0419 3.33334L60.0419 28.3333C60.0419 28.7754 59.8662 29.1993 59.5534 29.5119C59.2406 29.8244 58.8164 30 58.374 30Z"></path></svg>