<svg xmlns="http://www.w3.org/2000/svg" xmlns:xlink="http://www.w3.org/1999/xlink" width="70" height="69.16070556640625" viewBox="0 0 70 69.16070556640625" fill="none"><path id="路径 1" fill-rule="evenodd" style="fill:#FFFFFF" opacity="1" d="M63.1257 45.3578L58.6645 41.0172C60.0298 38.9908 60.6883 36.7237 60.6399 34.2157C60.5916 32.1893 60.0306 30.308 58.9571 28.5718C57.8835 26.8355 56.469 25.4488 54.7136 24.4117C52.9581 23.3746 51.0318 22.8321 48.9347 22.7843C46.7408 22.7364 44.6927 23.2426 42.7906 24.3029C40.8885 25.3632 39.4015 26.834 38.3295 28.7153C37.2575 30.5966 36.7457 32.6222 36.794 34.7922C36.8424 36.8664 37.3909 38.7717 38.4395 40.5079C39.4881 42.2442 40.8901 43.6308 42.6455 44.668C44.401 45.7051 46.3031 46.2715 48.3519 46.3672C51.0342 46.415 53.4481 45.6673 55.5936 44.1239L60.0548 48.4646C60.4933 48.8982 61.0051 49.1151 61.5902 49.1151C62.1754 49.1151 62.6872 48.8982 63.1257 48.4646C63.5641 48.0309 63.7834 47.5123 63.7834 46.9089C63.7834 46.3054 63.5641 45.7869 63.1257 45.3532L63.1257 45.3578ZM41.1826 34.5792C41.1826 33.2288 41.5244 31.9748 42.2078 30.8173C42.8913 29.6598 43.8057 28.7554 44.951 28.1041C46.0963 27.4528 47.3517 27.1272 48.717 27.1272C50.0823 27.1272 51.3377 27.4528 52.483 28.1041C53.6283 28.7554 54.5427 29.6598 55.2262 30.8173C55.9096 31.9748 56.2513 33.2288 56.2513 34.5792C56.2513 35.9296 55.9096 37.1712 55.2262 38.304C54.5427 39.4368 53.6283 40.3412 52.483 41.0172C51.3377 41.6932 50.0823 42.0312 48.717 42.0312C47.3517 42.0312 46.0963 41.6932 44.951 41.0172C43.8057 40.3412 42.8913 39.4368 42.2078 38.304C41.5244 37.1712 41.1826 35.9296 41.1826 34.5792ZM62.3205 38.4869L65.3937 41.4524L65.3937 28.4305C64.9552 31.9509 63.9308 35.303 62.3205 38.4869ZM60.7851 50.93L56.249 54.6919L56.249 64.8201L51.2753 64.8201L51.2753 61.7087L49.4473 61.1299L46.8141 62.5768L46.8867 64.8201L41.9129 64.8201L41.9129 56.8611L39.7174 55.2684L37.522 55.2684L37.522 64.8177L32.5482 64.8177L32.5482 55.2684L37.522 55.2684L33.4259 52.0852C32.9375 51.6994 32.4741 51.3136 32.0356 50.9277L9.14234 50.9277L9.14234 4.33831L61.0004 4.33831L61.0004 15.0452C62.269 15.4789 63.586 15.8169 64.9513 16.0592L65.3913 16.1309L65.3913 2.16916C65.3913 1.59041 65.1838 1.08419 64.7687 0.650516C64.3537 0.216839 63.8294 0 63.1959 0L6.9492 0C6.36406 0 5.85225 0.216839 5.41378 0.650516C4.97531 1.08419 4.75607 1.59041 4.75607 2.16916L4.75607 52.0876C3.34236 52.8592 2.19625 53.9565 1.31775 55.3795C0.43925 56.8024 0 58.3458 0 60.0095C0 61.6732 0.414284 63.2042 1.24285 64.6024C2.07142 66.0007 3.19334 67.1104 4.60862 67.9314C6.02389 68.7525 7.58428 69.1622 9.28979 69.1607L60.7827 69.1607C62.4414 69.1607 63.9776 68.7509 65.3913 67.9314C66.8051 67.1119 67.927 66.0023 68.7571 64.6024C69.5872 63.2026 70.0015 61.6832 70 60.0442C69.9984 58.4052 69.5841 56.8858 68.7571 55.486C67.9301 54.0862 66.8082 52.9765 65.3913 52.157C63.9745 51.3375 62.4383 50.9277 60.7827 50.9277L60.7851 50.93ZM9.43959 64.8201L9.29213 64.8201C7.92679 64.8201 6.76898 64.3501 5.8187 63.4102C4.86842 62.4703 4.39328 61.3491 4.39328 60.0465C4.39328 58.7439 4.86842 57.6227 5.8187 56.6828C6.76898 55.7429 7.92679 55.273 9.29213 55.273L9.43959 55.273L9.43959 64.8224L9.43959 64.8201ZM18.8019 64.8201L13.8282 64.8201L13.8282 55.2707L18.8019 55.2707L18.8019 64.8201ZM28.1643 64.8201L23.1905 64.8201L23.1905 55.2707L28.1643 55.2707L28.1643 64.8201ZM60.7851 64.8201L60.6376 64.8201L60.6376 55.2707L60.7851 55.2707C62.1504 55.2707 63.2965 55.7406 64.2234 56.6805C65.1503 57.6204 65.6137 58.7416 65.6137 60.0442C65.6137 61.3468 65.1503 62.468 64.2234 63.4079C63.2965 64.3478 62.1504 64.8177 60.7851 64.8177L60.7851 64.8201ZM65.3937 20.1104L64.9537 20.0387C63.5883 19.7979 62.2713 19.4599 61.0027 19.0247C58.6622 18.253 56.4924 17.1194 54.4936 15.624C52.4947 14.1285 50.8126 12.3683 49.4473 10.3434L49.2998 10.1976C48.9097 9.61883 48.3487 9.30554 47.6169 9.25769C46.8851 9.20985 46.2758 9.45138 45.7889 9.98229L44.106 12.0079C42.3506 14.0822 40.2534 15.8061 37.8145 17.1796C35.3756 18.5532 32.7909 19.4815 30.0602 19.9646L26.7693 20.5433C26.2809 20.5912 25.8666 20.8204 25.5265 21.2309C25.1863 21.6414 25.0154 22.1114 25.0139 22.6407L25.0139 24.6663C25.0139 30.0202 26.1842 35.1086 28.5247 39.9315C30.6219 44.1278 33.4501 47.7932 37.0094 50.9277L38.4722 52.0852L47.4695 59.102L57.0518 51.65L53.9061 48.6104L47.4695 53.6016L41.178 48.6822C37.4237 45.7884 34.5221 42.2318 32.4733 38.0123C30.4245 33.7929 29.4001 29.3434 29.4001 24.664L29.4001 24.4464L30.7904 24.2288C34.0579 23.6501 37.1053 22.5651 39.9328 20.9739C42.7602 19.3827 45.2475 17.3571 47.3946 14.897C49.2483 17.067 51.3938 18.9236 53.8312 20.4669C56.075 21.8652 58.4648 22.9023 61.0004 23.5783C62.0739 23.8684 63.1709 24.11 64.2913 24.3029L65.609 24.5205L65.609 24.6663C65.609 25.9211 65.5357 27.175 65.389 28.4282L65.389 41.4501L65.5365 41.6677C65.8782 41.089 66.1949 40.5102 66.4867 39.9315C68.8273 35.1086 69.9976 30.0202 69.9976 24.6663L69.9976 22.6407C69.9976 22.1098 69.8268 21.6399 69.485 21.2309C69.1433 20.8219 68.7041 20.5688 68.1673 20.4716L65.3937 20.1104ZM30.65 14.1794L15.6562 14.1794C15.0227 14.1794 14.4984 13.9625 14.0833 13.5289C13.6683 13.0952 13.4607 12.5766 13.4607 11.9732C13.4607 11.3697 13.6683 10.8635 14.0833 10.4545C14.4984 10.0456 15.0227 9.8403 15.6562 9.83876L30.65 9.83876C31.2835 9.83876 31.8078 10.044 32.2229 10.4545C32.6379 10.8651 32.8455 11.3713 32.8455 11.9732C32.8455 12.5751 32.6379 13.0937 32.2229 13.5289C31.8078 13.9641 31.2835 14.1809 30.65 14.1794ZM19.8973 25.1756L15.6539 25.1756C15.0203 25.1756 14.496 24.9588 14.081 24.5251C13.6659 24.0915 13.4584 23.5729 13.4584 22.9695C13.4584 22.366 13.6659 21.8598 14.081 21.4508C14.496 21.0418 15.0203 20.8366 15.6539 20.835L19.8973 20.835C20.4825 20.835 20.9943 21.0403 21.4328 21.4508C21.8712 21.8613 22.0905 22.3675 22.0905 22.9695C22.0905 23.5714 21.8712 24.0899 21.4328 24.5251C20.9943 24.9604 20.4825 25.1772 19.8973 25.1756ZM19.8973 36.8942L15.6539 36.8942C15.0203 36.8942 14.496 36.6889 14.081 36.2784C13.6659 35.8679 13.4584 35.3617 13.4584 34.7598C13.4584 34.1579 13.6659 33.6393 14.081 33.2041C14.496 32.7689 15.0203 32.552 15.6539 32.5536L19.8973 32.5536C20.4825 32.5536 20.9943 32.7704 21.4328 33.2041C21.8712 33.6378 22.0905 34.1563 22.0905 34.7598C22.0905 35.3632 21.8712 35.8694 21.4328 36.2784C20.9943 36.6874 20.4825 36.8926 19.8973 36.8942Z"></path></svg>