<svg xmlns="http://www.w3.org/2000/svg" xmlns:xlink="http://www.w3.org/1999/xlink" width="67" height="70.986572265625" viewBox="0 0 67 70.986572265625" fill="none"><g opacity="1"  transform="translate(0 1.76025390625)"><path id="路径 1" fill-rule="evenodd" style="fill:#FFFFFF" opacity="1" d="M65.16 6.19974C64.18 6.19974 63.37 6.95974 63.33 7.93974L63.33 12.8797C56.8 3.70974 46.19 -1.75025 34.87 -1.76025C25.62 -1.76025 16.75 1.87975 10.21 8.36974C3.67 14.8497 0 23.6497 0 32.8197C0 51.8897 15.65 67.3997 34.87 67.3997C35.89 67.3997 36.71 66.5797 36.71 65.5797C36.71 64.5697 35.89 63.7597 34.87 63.7597C18.96 63.7597 5.81 51.8797 3.93 36.5897L20.06 36.5897C20.9 36.5897 21.65 36.0497 21.91 35.2597L24.65 26.7397L29.09 46.7197C29.28 47.5797 30.04 48.2097 30.93 48.2397L30.99 48.2397C31.85 48.2397 32.62 47.6697 32.86 46.8397L37.04 32.3497L38.75 35.5697C39.08 36.1997 39.74 36.5897 40.46 36.5897L48.24 36.5897C49.31 36.5897 50.18 35.7297 50.18 34.6697C50.18 33.5997 49.31 32.7397 48.24 32.7397L41.64 32.7397L38.22 26.2997C37.85 25.5997 37.09 25.1997 36.3 25.2897C35.51 25.3597 34.84 25.9197 34.63 26.6697L31.23 38.4497L26.9 18.9197C26.71 18.0697 25.97 17.4497 25.09 17.4097C24.17 17.2897 23.41 17.9097 23.15 18.7497L18.64 32.7397L3.68 32.7397C3.71 15.6797 17.67 1.87975 34.87 1.88975C47.2 1.87975 58.38 9.06974 63.39 20.2297C63.8 21.1597 64.89 21.5697 65.81 21.1597C66.22 20.9697 66.54 20.6497 66.72 20.2397C66.9 19.9697 66.99 19.6497 67 19.3297L67 7.93974C66.95 6.95974 66.15 6.19974 65.16 6.19974Z"></path><path id="路径 2" fill-rule="evenodd" style="fill:#FFFFFF" opacity="1" d="M47.1579 47.2757C46.1179 49.0657 46.1179 51.2657 47.1579 53.0557C48.1979 54.8457 50.1279 55.9457 52.2079 55.9457C55.4279 55.9457 58.0379 53.3557 58.0379 50.1657C58.0379 46.9757 55.4279 44.3857 52.2079 44.3857L52.2079 44.3857C50.1279 44.3857 48.1979 45.4857 47.1579 47.2757Z"></path><path id="路径 3" fill-rule="evenodd" style="fill:#FFFFFF" opacity="1" d="M52.2099 59.8012C46.8449 59.7969 42.4967 55.4859 42.4925 50.1666C42.4925 44.8483 46.8459 40.532 52.2099 40.532C57.5701 40.532 61.9274 44.8483 61.9274 50.1666C61.9274 55.481 57.5701 59.8012 52.2099 59.8012ZM52.2099 36.6782C44.708 36.6782 38.6055 42.7287 38.6055 50.1666C38.6055 57.6045 44.708 63.655 52.2099 63.655C59.7118 63.655 65.8144 57.6045 65.8144 50.1666C65.8144 42.7287 59.7118 36.6782 52.2099 36.6782Z"></path></g></svg>