<svg xmlns="http://www.w3.org/2000/svg" xmlns:xlink="http://www.w3.org/1999/xlink" width="70" height="66.818359375" viewBox="0 0 70 66.818359375" fill="none"><g opacity="1"  transform="translate(0 0)"><mask id="bg-mask-0" fill="white"><use transform="translate(0 0)" xlink:href="#path_0"></use></mask><g mask="url(#bg-mask-0)" ><path id="路径 1" fill-rule="evenodd" style="fill:#0D61A0" opacity="1" d="M55.0211 15.2269L50.2393 15.2269L44.5803 23.4675L31.7527 23.4675C31.6076 23.4632 31.4623 23.4623 31.3171 23.465C31.1719 23.4677 31.0268 23.4739 30.8819 23.4836C30.737 23.4933 30.5924 23.5065 30.4482 23.5233C30.304 23.5401 30.1602 23.5604 30.017 23.5841C29.8738 23.6079 29.7313 23.6352 29.5895 23.6659C29.4477 23.6966 29.3068 23.7307 29.1668 23.7683C29.0268 23.8059 28.8878 23.8468 28.7499 23.8911C28.612 23.9354 28.4753 23.9831 28.3398 24.0341C28.2043 24.0851 28.0702 24.1394 27.9376 24.1968C27.8049 24.2543 27.6738 24.3151 27.5442 24.379C27.4147 24.4429 27.2869 24.5099 27.1608 24.58C27.0347 24.6501 26.9105 24.7232 26.7881 24.7994C26.6658 24.8755 26.5455 24.9547 26.4272 25.0367C26.309 25.1187 26.1929 25.2036 26.0791 25.2913C25.9652 25.3789 25.8536 25.4693 25.7444 25.5624C25.6351 25.6555 25.5284 25.7512 25.4241 25.8495C25.3198 25.9478 25.2181 26.0486 25.1189 26.1518C25.0198 26.2551 24.9234 26.3607 24.8297 26.4686C24.7361 26.5766 24.6453 26.6867 24.5572 26.7991C24.4692 26.9115 24.3842 27.0259 24.3021 27.1424C24.22 27.2589 24.1409 27.3773 24.0649 27.4977C23.9889 27.6181 23.916 27.7402 23.8463 27.8641C23.7766 27.988 23.7101 28.1135 23.6468 28.2407C23.5836 28.3678 23.5236 28.4964 23.467 28.6264C23.4104 28.7565 23.3571 28.8878 23.3072 29.0205C23.2574 29.1532 23.211 29.287 23.168 29.4219C23.125 29.5567 23.0855 29.6927 23.0495 29.8295C23.0136 29.9663 22.9811 30.1039 22.9522 30.2423C22.9234 30.3807 22.8981 30.5198 22.8763 30.6594C22.8546 30.7991 22.8364 30.9392 22.8219 31.0797C22.8074 31.2202 22.7965 31.361 22.7893 31.502C22.782 31.6431 22.7783 31.7843 22.7783 31.9255C22.7783 32.0667 22.782 32.2079 22.7893 32.349C22.7965 32.49 22.8074 32.6308 22.8219 32.7713C22.8364 32.9118 22.8546 33.0519 22.8763 33.1916C22.8981 33.3313 22.9234 33.4702 22.9522 33.6087C22.9811 33.747 23.0136 33.8847 23.0495 34.0216C23.0855 34.1584 23.125 34.2943 23.168 34.4291C23.211 34.5641 23.2574 34.6978 23.3072 34.8305C23.3571 34.9632 23.4104 35.0945 23.467 35.2246C23.5236 35.3546 23.5836 35.4832 23.6468 35.6103C23.7101 35.7375 23.7766 35.863 23.8463 35.9869C23.916 36.1108 23.9889 36.233 24.0649 36.3533C24.1409 36.4737 24.22 36.5921 24.3021 36.7086C24.3842 36.8251 24.4692 36.9395 24.5572 37.0519C24.6453 37.1643 24.7361 37.2745 24.8298 37.3824C24.9234 37.4903 25.0198 37.5959 25.1189 37.6992C25.2181 37.8024 25.3198 37.9032 25.4241 38.0015C25.5284 38.0998 25.6351 38.1955 25.7444 38.2886C25.8536 38.3817 25.9652 38.4721 26.0791 38.5598C26.1929 38.6474 26.309 38.7323 26.4272 38.8143C26.5455 38.8964 26.6658 38.9755 26.7881 39.0516C26.9105 39.1278 27.0347 39.2009 27.1608 39.271C27.2869 39.3412 27.4147 39.4081 27.5442 39.472C27.6738 39.5359 27.8049 39.5967 27.9376 39.6541C28.0702 39.7116 28.2043 39.7659 28.3398 39.8169C28.4753 39.8679 28.612 39.9156 28.7499 39.9599C28.8878 40.0042 29.0268 40.0452 29.1668 40.0827C29.3068 40.1203 29.4477 40.1544 29.5895 40.1852C29.7313 40.2159 29.8738 40.2431 30.017 40.2669C30.1602 40.2907 30.304 40.3109 30.4482 40.3277C30.5924 40.3445 30.737 40.3577 30.8819 40.3674C31.0268 40.3771 31.1719 40.3834 31.3171 40.3861C31.4623 40.3888 31.6076 40.3878 31.7527 40.3835L34.3588 40.3835L34.3588 37.6366L31.7527 37.6366C31.6565 37.6353 31.5603 37.6317 31.4643 37.6259C31.3683 37.6201 31.2723 37.612 31.1767 37.6017C31.0811 37.5914 30.9857 37.5789 30.8907 37.564C30.7956 37.5492 30.701 37.5323 30.6068 37.5131C30.5126 37.4938 30.4189 37.4724 30.3258 37.4488C30.2327 37.4252 30.1402 37.3994 30.0483 37.3715C29.9564 37.3436 29.8654 37.3135 29.775 37.2812C29.6846 37.249 29.5951 37.2147 29.5064 37.1783C29.4178 37.1419 29.33 37.1034 29.2433 37.0628C29.1565 37.0223 29.0708 36.9798 28.9862 36.9353C28.9015 36.8907 28.818 36.8442 28.7357 36.7958C28.6534 36.7473 28.5723 36.6969 28.4924 36.6446C28.4126 36.5924 28.3341 36.5383 28.2569 36.4824C28.1798 36.4264 28.104 36.3687 28.0297 36.3092C27.9555 36.2497 27.8827 36.1885 27.8114 36.1256C27.7402 36.0627 27.6705 35.9982 27.6024 35.932C27.5344 35.8659 27.468 35.7981 27.4033 35.7288C27.3386 35.6595 27.2757 35.5888 27.2145 35.5166C27.1533 35.4443 27.0939 35.3707 27.0364 35.2957C26.9788 35.2206 26.9232 35.1443 26.8695 35.0667C26.8157 34.9891 26.7639 34.9102 26.714 34.8302C26.6642 34.7501 26.6164 34.6689 26.5705 34.5866C26.5247 34.5044 26.481 34.421 26.4393 34.3367C26.3976 34.2523 26.3581 34.167 26.3206 34.0808C26.2832 33.9946 26.2479 33.9076 26.2147 33.8197C26.1816 33.7318 26.1506 33.6433 26.1219 33.554C26.0932 33.4646 26.0666 33.3747 26.0423 33.2842C26.0181 33.1936 25.996 33.1026 25.9762 33.011C25.9565 32.9194 25.939 32.8274 25.9238 32.735C25.9086 32.6426 25.8957 32.5499 25.8851 32.4569C25.8745 32.3639 25.8662 32.2706 25.8602 32.1773C25.8542 32.0839 25.8506 31.9904 25.8492 31.8968C25.8528 31.8039 25.8587 31.7111 25.8667 31.6185C25.8748 31.5257 25.8851 31.4333 25.8976 31.3411C25.9101 31.2489 25.9249 31.1571 25.9418 31.0656C25.9587 30.974 25.9778 30.8829 25.9991 30.7923C26.0205 30.7017 26.044 30.6115 26.0696 30.5219C26.0952 30.4323 26.123 30.3434 26.1529 30.255C26.1828 30.1667 26.2148 30.0791 26.249 29.9922C26.2831 29.9054 26.3193 29.8193 26.3576 29.7341C26.3958 29.6488 26.4361 29.5645 26.4785 29.4811C26.5208 29.3977 26.5651 29.3153 26.6113 29.2339C26.6576 29.1526 26.7058 29.0722 26.756 28.9931C26.8061 28.9139 26.8581 28.8358 26.912 28.759C26.9659 28.6822 27.0216 28.6067 27.0791 28.5323C27.1366 28.458 27.1959 28.3851 27.2569 28.3135C27.3179 28.2419 27.3807 28.1717 27.4451 28.1029C27.5095 28.0342 27.5755 27.9669 27.6431 27.9012C27.7107 27.8354 27.7799 27.7712 27.8507 27.7086C27.9214 27.646 27.9935 27.585 28.0672 27.5257C28.1408 27.4664 28.2159 27.4087 28.2923 27.3528C28.3687 27.2969 28.4464 27.2427 28.5255 27.1903C28.6045 27.1379 28.6847 27.0873 28.7662 27.0386C28.8476 26.9898 28.9302 26.943 29.014 26.898C29.0976 26.853 29.1823 26.8099 29.2681 26.7688C29.3539 26.7277 29.4407 26.6885 29.5283 26.6512C29.616 26.6141 29.7045 26.5789 29.7938 26.5457C29.8832 26.5125 29.9733 26.4814 30.0642 26.4523C30.155 26.4232 30.2465 26.3962 30.3387 26.3713C30.4308 26.3463 30.5235 26.3235 30.6167 26.3028C30.7099 26.2821 30.8036 26.2635 30.8978 26.247C30.9919 26.2306 31.0864 26.2163 31.1812 26.2041C31.276 26.1919 31.3711 26.182 31.4664 26.1741C31.5617 26.1662 31.6572 26.1606 31.7527 26.157L46.0899 26.157L51.7405 17.9082L54.8187 17.9082C54.8315 17.9891 54.846 18.0697 54.8625 18.15C54.8789 18.2304 54.8972 18.3103 54.9174 18.3898C54.9375 18.4694 54.9595 18.5484 54.9832 18.627C55.007 18.7055 55.0326 18.7835 55.06 18.861C55.0874 18.9384 55.1165 19.0153 55.1474 19.0914C55.1784 19.1676 55.211 19.2431 55.2454 19.3178C55.2799 19.3926 55.316 19.4666 55.3537 19.5397C55.3915 19.6129 55.4311 19.6852 55.4722 19.7567C55.5133 19.8281 55.5561 19.8986 55.6005 19.9682C55.6449 20.0379 55.6909 20.1064 55.7384 20.174C55.786 20.2416 55.8352 20.3081 55.8858 20.3736C55.9364 20.439 55.9885 20.5033 56.0421 20.5665C56.0958 20.6296 56.1508 20.6916 56.2072 20.7524C56.2637 20.8131 56.3215 20.8726 56.3808 20.9309C56.44 20.9892 56.5005 21.0461 56.5623 21.1017C56.6241 21.1573 56.6872 21.2116 56.7516 21.2644C56.816 21.3173 56.8815 21.3687 56.9482 21.4187C57.0149 21.4687 57.0827 21.5172 57.1517 21.5642C57.2206 21.6113 57.2906 21.6568 57.3617 21.7008C57.4327 21.7448 57.5048 21.7872 57.5778 21.8281C57.6507 21.8689 57.7246 21.9081 57.7995 21.9458C57.8743 21.9834 57.95 22.0194 58.0264 22.0537C58.1029 22.088 58.1801 22.1207 58.2581 22.1516C58.3361 22.1826 58.4148 22.2118 58.4941 22.2393C58.5734 22.2669 58.6533 22.2927 58.7339 22.3167C58.8144 22.3407 58.8954 22.363 58.977 22.3836C59.0585 22.404 59.1405 22.4228 59.2229 22.4397C59.3053 22.4566 59.388 22.4718 59.4712 22.4851C59.5543 22.4984 59.6376 22.5099 59.7213 22.5196C59.805 22.5293 59.8888 22.5372 59.9728 22.5432C60.0568 22.5492 60.1409 22.5534 60.2251 22.5558C60.3093 22.5582 60.3935 22.5587 60.4777 22.5574C60.5697 22.5558 60.6617 22.5521 60.7535 22.5462C60.8454 22.5404 60.937 22.5324 61.0284 22.5223C61.1199 22.5122 61.2111 22.4999 61.3019 22.4855C61.3927 22.4711 61.4832 22.4546 61.5732 22.436C61.6632 22.4174 61.7527 22.3967 61.8417 22.374C61.9308 22.3512 62.0192 22.3263 62.1069 22.2994C62.1947 22.2725 62.2817 22.2436 62.3681 22.2126C62.4545 22.1816 62.54 22.1486 62.6248 22.1137C62.7094 22.0787 62.7933 22.0418 62.8762 22.0029C62.959 21.964 63.041 21.9233 63.1219 21.8806C63.2027 21.8378 63.2825 21.7933 63.3612 21.7469C63.4399 21.7005 63.5174 21.6522 63.5937 21.6022C63.67 21.5521 63.745 21.5004 63.8188 21.4468C63.8925 21.3932 63.9649 21.338 64.036 21.2811C64.107 21.2242 64.1766 21.1657 64.2447 21.1055C64.3128 21.0453 64.3794 20.9836 64.4445 20.9203C64.5095 20.857 64.573 20.7922 64.6349 20.726C64.6968 20.6598 64.757 20.5922 64.8156 20.5231C64.8741 20.454 64.9309 20.3837 64.986 20.312C65.0411 20.2403 65.0943 20.1673 65.1458 20.0931C65.1973 20.0189 65.2469 19.9436 65.2946 19.8671C65.3423 19.7906 65.3882 19.713 65.4321 19.6344C65.476 19.5558 65.518 19.4761 65.558 19.3955C65.598 19.3149 65.636 19.2334 65.6719 19.1511C65.7078 19.0687 65.7417 18.9855 65.7736 18.9016C65.8055 18.8176 65.8352 18.7329 65.8629 18.6476C65.8906 18.5622 65.9162 18.4763 65.9396 18.3898C65.963 18.3033 65.9843 18.2162 66.0034 18.1287C66.0225 18.0411 66.0395 17.9532 66.0544 17.8649C66.0692 17.7766 66.0817 17.688 66.0921 17.5991C66.1025 17.5101 66.1108 17.421 66.1168 17.3317C66.1228 17.2425 66.1266 17.1531 66.1282 17.0636C66.1266 16.9741 66.1228 16.8846 66.1168 16.7953C66.1108 16.7059 66.1026 16.6168 66.0922 16.5278C66.0818 16.4389 66.0692 16.3502 66.0544 16.2618C66.0396 16.1734 66.0227 16.0855 66.0035 15.9979C65.9844 15.9103 65.9631 15.8232 65.9397 15.7366C65.9163 15.65 65.8907 15.564 65.8631 15.4786C65.8354 15.3932 65.8057 15.3085 65.7738 15.2245C65.7419 15.1405 65.708 15.0572 65.6721 14.9748C65.6362 14.8924 65.5982 14.8108 65.5582 14.7302C65.5183 14.6495 65.4764 14.5698 65.4324 14.4911C65.3885 14.4124 65.3427 14.3348 65.295 14.2582C65.2472 14.1816 65.1977 14.1062 65.1462 14.032C65.0948 13.9577 65.0415 13.8847 64.9864 13.8129C64.9314 13.7411 64.8746 13.6707 64.816 13.6016C64.7575 13.5324 64.6973 13.4647 64.6355 13.3984C64.5736 13.3321 64.5101 13.2672 64.445 13.2039C64.38 13.1405 64.3134 13.0787 64.2453 13.0185C64.1772 12.9582 64.1076 12.8996 64.0366 12.8426C63.9656 12.7856 63.8932 12.7303 63.8195 12.6766C63.7457 12.623 63.6707 12.5711 63.5943 12.5209C63.518 12.4708 63.4406 12.4225 63.3619 12.3759C63.2832 12.3294 63.2034 12.2848 63.1225 12.242C63.0417 12.1992 62.9597 12.1583 62.8768 12.1193C62.7939 12.0803 62.7101 12.0433 62.6254 12.0082C62.5407 11.9731 62.4552 11.94 62.3688 11.9089C62.2824 11.8779 62.1953 11.8488 62.1075 11.8218C62.0197 11.7948 61.9313 11.7698 61.8423 11.7469C61.7532 11.724 61.6637 11.7032 61.5736 11.6845C61.4836 11.6657 61.3931 11.6491 61.3023 11.6346C61.2114 11.6201 61.1202 11.6077 61.0287 11.5975C60.9372 11.5872 60.8456 11.5791 60.7537 11.5731C60.6618 11.5671 60.5698 11.5633 60.4777 11.5616C60.4058 11.5657 60.3341 11.571 60.2624 11.5774C60.1907 11.5839 60.1192 11.5915 60.0478 11.6003C59.9764 11.6091 59.9051 11.619 59.834 11.6302C59.7629 11.6413 59.6921 11.6536 59.6215 11.667C59.5508 11.6805 59.4805 11.6951 59.4103 11.7108C59.3402 11.7266 59.2703 11.7435 59.2007 11.7615C59.1312 11.7795 59.062 11.7987 58.9931 11.819C58.9242 11.8393 58.8557 11.8607 58.7876 11.8833C58.7195 11.9059 58.6517 11.9295 58.5844 11.9543C58.517 11.9791 58.4501 12.005 58.3837 12.0319C58.3173 12.0589 58.2513 12.0869 58.1859 12.116C58.1205 12.1451 58.0555 12.1753 57.9911 12.2066C57.9267 12.2378 57.8628 12.2701 57.7995 12.3034C57.7362 12.3368 57.6735 12.3712 57.6114 12.4065C57.5493 12.4419 57.4879 12.4784 57.427 12.5158C57.3662 12.5532 57.306 12.5916 57.2465 12.6309C57.187 12.6703 57.1282 12.7107 57.0701 12.752C57.0119 12.7933 56.9546 12.8356 56.8979 12.8787C56.8413 12.9219 56.7854 12.966 56.7303 13.011C56.6752 13.0561 56.6208 13.102 56.5673 13.1487C56.5138 13.1955 56.4611 13.2432 56.4092 13.2917C56.3573 13.3402 56.3063 13.3896 56.2562 13.4398C56.206 13.49 56.1567 13.541 56.1083 13.5928C56.0599 13.6446 56.0124 13.6972 55.9658 13.7505C55.9193 13.8039 55.8736 13.858 55.8289 13.9129C55.7842 13.9677 55.7405 14.0233 55.6977 14.0796C55.655 14.1359 55.6131 14.1929 55.5723 14.2505C55.5315 14.3082 55.4917 14.3665 55.4529 14.4254C55.4142 14.4844 55.3764 14.544 55.3397 14.6042C55.303 14.6644 55.2674 14.7252 55.2327 14.7866C55.1982 14.8479 55.1646 14.9099 55.1321 14.9723C55.0997 15.0348 55.0683 15.0978 55.038 15.1613L55.0211 15.2269ZM60.2416 41.228C60.1707 41.2289 60.0998 41.2311 60.029 41.2346C59.9582 41.2381 59.8874 41.2428 59.8168 41.2489C59.7462 41.255 59.6757 41.2624 59.6054 41.271C59.535 41.2797 59.4648 41.2897 59.3949 41.3009C59.3249 41.3122 59.2552 41.3247 59.1857 41.3385C59.1162 41.3523 59.0471 41.3673 58.9782 41.3837C58.9093 41.4 58.8407 41.4177 58.7725 41.4365C58.7043 41.4554 58.6366 41.4755 58.5691 41.4968C58.5017 41.5181 58.4347 41.5407 58.3681 41.5645C58.3016 41.5884 58.2355 41.6134 58.1699 41.6396C58.1044 41.6659 58.0393 41.6933 57.9748 41.7219C57.9103 41.7506 57.8464 41.7803 57.783 41.8113C57.7197 41.8423 57.6569 41.8744 57.5948 41.9076C57.5327 41.9409 57.4713 41.9753 57.4105 42.0109C57.3498 42.0464 57.2897 42.083 57.2303 42.1208C57.171 42.1585 57.1124 42.1973 57.0546 42.2372C56.9968 42.277 56.9397 42.318 56.8834 42.36C56.8272 42.4019 56.7717 42.4449 56.7172 42.4889C56.6626 42.5329 56.6088 42.5779 56.556 42.6239C56.5032 42.6699 56.4513 42.7168 56.4003 42.7647C56.3493 42.8126 56.2993 42.8614 56.2501 42.9111C56.201 42.9609 56.1529 43.0115 56.1057 43.063C56.0586 43.1145 56.0125 43.1668 55.9673 43.22C55.9222 43.2732 55.8781 43.3272 55.8351 43.382C55.7921 43.4368 55.7502 43.4924 55.7093 43.5487C55.6684 43.605 55.6286 43.6621 55.5901 43.72C55.5514 43.7778 55.5139 43.8362 55.4775 43.8954C55.4411 43.9546 55.4059 44.0144 55.3719 44.0749C55.3378 44.1354 55.305 44.1965 55.2733 44.2582C55.2416 44.3198 55.2111 44.3821 55.1819 44.4448C55.1526 44.5077 55.1246 44.571 55.0978 44.6348C55.071 44.6987 55.0455 44.7629 55.0211 44.8277L51.538 44.8277L46.1068 37.6366L42.6237 37.6366L42.6237 40.3835L44.5803 40.3835L50.02 47.5582L54.5826 47.5582C54.5933 47.64 54.606 47.7214 54.6207 47.8025C54.6354 47.8837 54.6519 47.9645 54.6704 48.0449C54.6889 48.1253 54.7093 48.2053 54.7316 48.2848C54.7539 48.3643 54.778 48.4432 54.8041 48.5217C54.8303 48.6 54.8582 48.6778 54.888 48.755C54.9177 48.8321 54.9493 48.9086 54.9827 48.9843C55.0162 49.06 55.0515 49.1349 55.0884 49.209C55.1254 49.2832 55.1642 49.3565 55.2047 49.4289C55.2452 49.5012 55.2874 49.5727 55.3313 49.6432C55.3752 49.7136 55.4208 49.7831 55.468 49.8515C55.5152 49.92 55.5641 49.9872 55.6145 50.0535C55.6649 50.1197 55.7169 50.1848 55.7705 50.2486C55.8239 50.3125 55.879 50.3752 55.9355 50.4366C55.9921 50.498 56.05 50.5581 56.1094 50.6169C56.1688 50.6757 56.2296 50.7331 56.2917 50.7891C56.3538 50.8452 56.4172 50.8998 56.482 50.953C56.5468 51.0062 56.6127 51.0578 56.6799 51.1081C56.7471 51.1583 56.8155 51.2069 56.885 51.2541C56.9545 51.3012 57.0251 51.3467 57.0968 51.3907C57.1685 51.4346 57.2412 51.477 57.315 51.5176C57.3886 51.5583 57.4633 51.5972 57.5389 51.6345C57.6145 51.6718 57.6909 51.7074 57.7682 51.7413C57.8454 51.7752 57.9235 51.8072 58.0023 51.8375C58.0811 51.8679 58.1605 51.8964 58.2407 51.9231C58.3209 51.9499 58.4017 51.9748 58.483 51.9979C58.5644 52.021 58.6462 52.0423 58.7286 52.0617C58.8109 52.0811 58.8937 52.0987 58.977 52.1143C59.0601 52.1301 59.1437 52.1438 59.2276 52.1558C59.3114 52.1677 59.3955 52.1777 59.4799 52.1858C59.5642 52.1939 59.6487 52.2001 59.7333 52.2044C59.818 52.2088 59.9026 52.2112 59.9874 52.2117C60.0721 52.2122 60.1569 52.2108 60.2416 52.2075C60.3336 52.2059 60.4255 52.2022 60.5174 52.1963C60.6092 52.1905 60.7009 52.1825 60.7923 52.1723C60.8837 52.1622 60.9749 52.15 61.0658 52.1355C61.1566 52.1212 61.247 52.1047 61.337 52.0861C61.427 52.0675 61.5166 52.0468 61.6056 52.024C61.6946 52.0013 61.783 51.9764 61.8708 51.9494C61.9586 51.9226 62.0456 51.8937 62.132 51.8627C62.2184 51.8317 62.3039 51.7987 62.3886 51.7637C62.4733 51.7288 62.5572 51.6918 62.6401 51.6529C62.7229 51.6141 62.8048 51.5733 62.8857 51.5306C62.9666 51.4879 63.0464 51.4433 63.1251 51.397C63.2037 51.3505 63.2813 51.3023 63.3576 51.2522C63.4339 51.2022 63.5089 51.1504 63.5827 51.0969C63.6564 51.0433 63.7288 50.9881 63.7998 50.9312C63.8709 50.8742 63.9404 50.8157 64.0085 50.7555C64.0766 50.6954 64.1433 50.6336 64.2083 50.5703C64.2734 50.5071 64.3369 50.4423 64.3988 50.3761C64.4607 50.3098 64.5209 50.2422 64.5795 50.1731C64.638 50.1041 64.6947 50.0338 64.7499 49.9621C64.805 49.8903 64.8582 49.8174 64.9097 49.7432C64.9611 49.669 65.0107 49.5937 65.0585 49.5172C65.1062 49.4406 65.1521 49.363 65.196 49.2844C65.2399 49.2058 65.2819 49.1262 65.3218 49.0456C65.3618 48.965 65.3998 48.8835 65.4358 48.8011C65.4717 48.7187 65.5056 48.6356 65.5375 48.5516C65.5694 48.4676 65.5991 48.383 65.6268 48.2977C65.6545 48.2123 65.68 48.1264 65.7034 48.0399C65.7268 47.9533 65.7482 47.8663 65.7673 47.7787C65.7864 47.6912 65.8034 47.6032 65.8182 47.515C65.833 47.4266 65.8456 47.338 65.856 47.2491C65.8664 47.1602 65.8747 47.0711 65.8807 46.9818C65.8867 46.8925 65.8905 46.8031 65.8921 46.7137C65.8928 46.6235 65.8912 46.5334 65.8873 46.4433C65.8834 46.3533 65.8772 46.2634 65.8688 46.1736C65.8603 46.0838 65.8495 45.9943 65.8365 45.9051C65.8235 45.8158 65.8082 45.7269 65.7907 45.6384C65.7731 45.5499 65.7533 45.4619 65.7312 45.3743C65.7092 45.2867 65.685 45.1997 65.6584 45.1133C65.632 45.027 65.6033 44.9413 65.5725 44.8563C65.5417 44.7712 65.5086 44.6871 65.4735 44.6036C65.4384 44.5201 65.4012 44.4376 65.3619 44.356C65.3225 44.2743 65.2811 44.1937 65.2377 44.1141C65.1943 44.0344 65.1488 43.9559 65.1014 43.8784C65.0539 43.801 65.0046 43.7247 64.9533 43.6497C64.9019 43.5746 64.8488 43.5008 64.7937 43.4283C64.7386 43.3558 64.6817 43.2846 64.6229 43.2148C64.5642 43.1451 64.5038 43.0768 64.4417 43.0099C64.3795 42.943 64.3156 42.8777 64.2501 42.8139C64.1846 42.7501 64.1174 42.6879 64.0488 42.6274C63.9801 42.5668 63.9099 42.508 63.8382 42.4508C63.7666 42.3936 63.6935 42.3382 63.619 42.2845C63.5445 42.2308 63.4686 42.179 63.3915 42.129C63.3144 42.079 63.236 42.0309 63.1564 41.9846C63.0768 41.9384 62.9961 41.8941 62.9143 41.8518C62.8325 41.8094 62.7496 41.769 62.6657 41.7307C62.5817 41.6923 62.4969 41.656 62.4112 41.6217C62.3254 41.5874 62.2388 41.5553 62.1515 41.5251C62.0641 41.495 61.976 41.467 61.8872 41.4412C61.7984 41.4153 61.7089 41.3916 61.6189 41.37C61.5288 41.3485 61.4383 41.3291 61.3473 41.3119C61.2563 41.2947 61.1649 41.2797 61.0731 41.2669C60.9814 41.2541 60.8893 41.2435 60.797 41.2351C60.7047 41.2267 60.6122 41.2206 60.5196 41.2167C60.427 41.2128 60.3343 41.2111 60.2416 41.2117L60.2416 41.228Z"></path><path id="路径 2" fill-rule="evenodd" style="fill:#0D61A0" opacity="1" d="M63.9352 26.0094C63.8516 26.0105 63.7682 26.0134 63.6847 26.018C63.6013 26.0227 63.518 26.0291 63.4349 26.0372C63.3517 26.0454 63.2688 26.0552 63.1861 26.0668C63.1034 26.0784 63.021 26.0917 62.9389 26.1068C62.8568 26.1218 62.7751 26.1386 62.6937 26.157C62.6122 26.1755 62.5314 26.1956 62.4509 26.2175C62.3704 26.2393 62.2904 26.2628 62.211 26.288C62.1316 26.3132 62.0527 26.34 61.9745 26.3685C61.8962 26.397 61.8186 26.4271 61.7416 26.4588C61.6647 26.4906 61.5886 26.5239 61.5131 26.5589C61.4377 26.5938 61.363 26.6302 61.2892 26.6683C61.2153 26.7063 61.1424 26.7459 61.0703 26.787C60.9982 26.828 60.9271 26.8706 60.8569 26.9147C60.7867 26.9587 60.7175 27.0043 60.6493 27.0513C60.5811 27.0982 60.514 27.1465 60.4479 27.1963C60.3819 27.2461 60.317 27.2972 60.2532 27.3497C60.1894 27.4022 60.1268 27.4559 60.0654 27.5111C60.004 27.5662 59.9439 27.6225 59.8849 27.6802C59.8261 27.7378 59.7684 27.7966 59.7121 27.8566C59.6558 27.9166 59.6008 27.9778 59.5472 28.0401C59.4936 28.1025 59.4414 28.1658 59.3906 28.2304C59.3398 28.2949 59.2905 28.3604 59.2426 28.427C59.1947 28.4936 59.1483 28.5611 59.1034 28.6296C59.0585 28.6982 59.0151 28.7676 58.9733 28.8379C58.9314 28.9082 58.8912 28.9794 58.8524 29.0514C58.8138 29.1233 58.7767 29.1962 58.7412 29.2697C58.7057 29.3432 58.6719 29.4176 58.6398 29.4925C58.6076 29.5675 58.5771 29.6431 58.5482 29.7194C58.5194 29.7956 58.4922 29.8724 58.4668 29.9498C58.4414 30.0272 58.4177 30.1051 58.3957 30.1835C58.3737 30.2619 58.3534 30.3406 58.3349 30.4199C58.3164 30.4991 58.2996 30.5787 58.2847 30.6586L45.0186 30.6586L45.0186 33.4055L58.7148 33.4055C58.7392 33.4702 58.7649 33.5344 58.7918 33.5981C58.8188 33.6619 58.8469 33.7252 58.8762 33.7879C58.9056 33.8505 58.9362 33.9127 58.9679 33.9743C58.9997 34.036 59.0326 34.0969 59.0668 34.1574C59.1009 34.2177 59.1362 34.2775 59.1726 34.3366C59.2091 34.3957 59.2466 34.4541 59.2853 34.5119C59.3241 34.5696 59.3639 34.6266 59.4048 34.6829C59.4457 34.7391 59.4877 34.7947 59.5307 34.8494C59.5738 34.9041 59.6179 34.9581 59.663 35.0112C59.7082 35.0644 59.7543 35.1166 59.8015 35.168C59.8487 35.2195 59.8968 35.27 59.9459 35.3197C59.9951 35.3694 60.0451 35.4182 60.0961 35.466C60.1472 35.5138 60.1991 35.5607 60.2519 35.6067C60.3047 35.6526 60.3585 35.6976 60.413 35.7416C60.4676 35.7855 60.523 35.8285 60.5792 35.8704C60.6355 35.9124 60.6925 35.9533 60.7503 35.9932C60.8081 36.033 60.8667 36.0719 60.926 36.1096C60.9853 36.1473 61.0453 36.1839 61.1061 36.2195C61.1668 36.255 61.2282 36.2893 61.2903 36.3226C61.3524 36.356 61.4151 36.3881 61.4784 36.4191C61.5416 36.4501 61.6055 36.4799 61.67 36.5085C61.7345 36.5371 61.7995 36.5646 61.865 36.5909C61.9306 36.6172 61.9965 36.6422 62.063 36.666C62.1296 36.6899 62.1965 36.7126 62.2639 36.734C62.3312 36.7554 62.399 36.7755 62.4671 36.7945C62.5353 36.8134 62.6038 36.8311 62.6726 36.8475C62.7414 36.8639 62.8106 36.8791 62.88 36.893C62.9494 36.9069 63.0191 36.9195 63.089 36.9308C63.1589 36.9421 63.229 36.9522 63.2994 36.961C63.3696 36.9698 63.4401 36.9772 63.5107 36.9835C63.5812 36.9896 63.6519 36.9946 63.7227 36.9982C63.7935 37.0018 63.8643 37.0041 63.9352 37.0052C64.03 37.0088 64.1249 37.01 64.2198 37.0089C64.3147 37.0078 64.4095 37.0044 64.5042 36.9987C64.5989 36.993 64.6934 36.9849 64.7877 36.9746C64.882 36.9643 64.9759 36.9517 65.0696 36.9367C65.1632 36.9218 65.2564 36.9046 65.3492 36.8851C65.4419 36.8656 65.5341 36.8439 65.6257 36.8198C65.7173 36.7958 65.8083 36.7696 65.8986 36.7412C65.9888 36.7127 66.0783 36.6821 66.1669 36.6493C66.2556 36.6165 66.3434 36.5815 66.4303 36.5444C66.5171 36.5072 66.603 36.468 66.6879 36.4267C66.7727 36.3854 66.8564 36.342 66.939 36.2966C67.0216 36.2512 67.103 36.2038 67.183 36.1544C67.2631 36.105 67.3419 36.0537 67.4193 36.0005C67.4971 35.9472 67.5732 35.8921 67.6475 35.8351C67.7222 35.7782 67.7953 35.7194 67.8669 35.6589C67.9386 35.5983 68.0086 35.5361 68.077 35.4721C68.1455 35.4082 68.2121 35.3425 68.277 35.2753C68.3423 35.2081 68.4057 35.1393 68.4669 35.069C68.5282 34.9987 68.5878 34.9269 68.6455 34.8537C68.7032 34.7805 68.7589 34.7059 68.8126 34.6299C68.8667 34.554 68.9186 34.4767 68.9683 34.3982C69.0184 34.3197 69.0663 34.24 69.1119 34.1592C69.1575 34.0784 69.2012 33.9965 69.2428 33.9135C69.2844 33.8305 69.3238 33.7467 69.3609 33.6618C69.398 33.5769 69.4329 33.4911 69.4656 33.4045C69.4983 33.318 69.5287 33.2306 69.5569 33.1425C69.5851 33.0544 69.611 32.9657 69.6347 32.8763C69.6584 32.787 69.6797 32.6971 69.6985 32.6067C69.7173 32.5163 69.7339 32.4255 69.7482 32.3343C69.7625 32.243 69.7743 32.1516 69.7837 32.0598C69.7936 31.9679 69.8007 31.876 69.8052 31.7839C69.8101 31.6917 69.8126 31.5995 69.8126 31.5073C69.8126 31.415 69.8101 31.3228 69.8052 31.2307C69.8007 31.1385 69.7936 31.0466 69.7837 30.9548C69.7743 30.863 69.7625 30.7715 69.7482 30.6803C69.7339 30.589 69.7173 30.4982 69.6985 30.4078C69.6797 30.3175 69.6584 30.2275 69.6347 30.1382C69.611 30.0489 69.5851 29.9601 69.5569 29.872C69.5287 29.784 69.4983 29.6966 69.4656 29.6101C69.4329 29.5235 69.398 29.4377 69.3609 29.3528C69.3238 29.2679 69.2844 29.184 69.2428 29.101C69.2012 29.018 69.1575 28.9361 69.1119 28.8553C69.0663 28.7744 69.0184 28.6948 68.9683 28.6163C68.9186 28.5378 68.8667 28.4606 68.8126 28.3846C68.7589 28.3087 68.7032 28.2341 68.6455 28.1609C68.5878 28.0876 68.5282 28.0158 68.4669 27.9455C68.4057 27.8752 68.3423 27.8064 68.277 27.7392C68.2121 27.6719 68.1455 27.6064 68.077 27.5424C68.0086 27.4785 67.9386 27.4162 67.8669 27.3557C67.7953 27.2951 67.7222 27.2364 67.6475 27.1794C67.5732 27.1224 67.4971 27.0673 67.4193 27.0141C67.3419 26.9608 67.2631 26.9095 67.183 26.8601C67.103 26.8107 67.0216 26.7633 66.939 26.7179C66.8564 26.6725 66.7727 26.6291 66.6879 26.5878C66.603 26.5465 66.5171 26.5073 66.4303 26.4702C66.3434 26.4331 66.2556 26.3981 66.1669 26.3653C66.0783 26.3324 65.9888 26.3018 65.8986 26.2734C65.8083 26.2449 65.7173 26.2187 65.6257 26.1947C65.5341 26.1707 65.4419 26.1489 65.3492 26.1294C65.2564 26.1099 65.1632 26.0928 65.0696 26.0778C64.9759 26.0629 64.882 26.0503 64.7877 26.0399C64.6934 26.0296 64.5989 26.0216 64.5042 26.0158C64.4095 26.0101 64.3147 26.0068 64.2198 26.0056C64.1249 26.0045 64.03 26.0058 63.9352 26.0094ZM50.6691 55.3971C50.5646 55.3951 50.4602 55.3967 50.3558 55.4021C50.2514 55.4074 50.1473 55.4162 50.0437 55.4288C49.94 55.4412 49.8368 55.4573 49.7343 55.4769C49.6317 55.4965 49.53 55.5197 49.4292 55.5464C49.3284 55.5731 49.2286 55.6032 49.13 55.6368C49.0313 55.6703 48.934 55.7073 48.8381 55.7477C48.7422 55.788 48.6478 55.8316 48.5551 55.8784C48.4624 55.9253 48.3714 55.9753 48.2824 56.0284L41.1053 46.0904L31.9717 46.0904C23.2682 46.0904 16.3105 39.752 16.3105 32.1509C16.3105 24.1152 23.7067 16.9242 31.9717 16.9242L31.9717 14.169C22.1803 14.169 13.4937 22.6229 13.4937 32.1428C13.4937 41.4411 21.7586 48.8455 31.9802 48.8455L39.8066 48.8455L46.3342 57.939C46.29 57.9952 46.247 58.0523 46.2052 58.1103C46.1634 58.1683 46.1228 58.2271 46.0835 58.2868C46.0443 58.3463 46.0062 58.4067 45.9695 58.4679C45.9327 58.529 45.8973 58.5908 45.8632 58.6534C45.829 58.716 45.7963 58.7791 45.7649 58.8431C45.7334 58.907 45.7033 58.9714 45.6747 59.0365C45.6459 59.1016 45.6186 59.1672 45.5927 59.2334C45.5668 59.2996 45.5423 59.3663 45.5192 59.4334C45.4961 59.5006 45.4745 59.5682 45.4543 59.6362C45.4341 59.7042 45.4153 59.7726 45.3979 59.8414C45.3806 59.9102 45.3648 59.9793 45.3504 60.0487C45.336 60.1181 45.3231 60.1878 45.3117 60.2578C45.3003 60.3276 45.2904 60.3978 45.2819 60.4681C45.2735 60.5385 45.2665 60.609 45.261 60.6796C45.2556 60.7502 45.2516 60.8208 45.2492 60.8916C45.2467 60.9624 45.2457 61.0332 45.2463 61.104C45.2426 61.1962 45.2413 61.2884 45.2424 61.3807C45.2436 61.4729 45.2471 61.5651 45.2529 61.6572C45.2588 61.7492 45.267 61.8411 45.2777 61.9328C45.2884 62.0245 45.3013 62.1159 45.3167 62.2069C45.332 62.2979 45.3497 62.3886 45.3698 62.4787C45.3898 62.5689 45.4122 62.6585 45.4369 62.7476C45.4616 62.8367 45.4886 62.9251 45.5178 63.0128C45.547 63.1006 45.5786 63.1876 45.6123 63.2739C45.6461 63.3601 45.682 63.4454 45.7202 63.5299C45.7584 63.6143 45.7988 63.6978 45.8412 63.7803C45.8837 63.8628 45.9283 63.9442 45.975 64.0245C46.0217 64.1048 46.0704 64.1839 46.1212 64.2618C46.172 64.3398 46.2249 64.4164 46.2796 64.4918C46.3344 64.5672 46.391 64.6411 46.4496 64.7136C46.5082 64.7862 46.5687 64.8573 46.631 64.9269C46.6932 64.9965 46.7572 65.0646 46.823 65.1311C46.8888 65.1975 46.9563 65.2623 47.0255 65.3254C47.0946 65.3889 47.1653 65.4505 47.2376 65.51C47.31 65.5694 47.3838 65.6274 47.4591 65.6836C47.5345 65.7397 47.6112 65.7938 47.6893 65.846C47.7674 65.8989 47.8468 65.9491 47.9275 65.9974C48.0083 66.0464 48.0902 66.0927 48.1734 66.1371C48.2565 66.1814 48.3408 66.2238 48.4261 66.2643C48.5114 66.3048 48.5977 66.3433 48.6851 66.3792C48.7724 66.415 48.8606 66.449 48.9496 66.4809C49.0387 66.5129 49.1286 66.5423 49.2192 66.5697C49.3098 66.5971 49.401 66.6225 49.4929 66.6454C49.5848 66.6682 49.6773 66.6891 49.7702 66.7074C49.8632 66.7256 49.9566 66.742 50.0504 66.7557C50.1443 66.7694 50.2383 66.7811 50.3328 66.7902C50.4272 66.8 50.5218 66.8065 50.6165 66.8111C50.7113 66.8157 50.8061 66.8183 50.901 66.8183C50.9959 66.8183 51.0908 66.8157 51.1855 66.8111C51.2803 66.8065 51.3749 66.8 51.4693 66.7902C51.5637 66.7811 51.6578 66.7694 51.7516 66.7557C51.8454 66.742 51.9388 66.7256 52.0318 66.7074C52.1247 66.6891 52.2172 66.6682 52.3092 66.6454C52.401 66.6225 52.4923 66.5971 52.5829 66.5697C52.6735 66.5423 52.7633 66.5129 52.8524 66.4809C52.9414 66.449 53.0297 66.415 53.117 66.3792C53.2043 66.3433 53.2906 66.3048 53.3759 66.2643C53.4612 66.2238 53.5455 66.1814 53.6287 66.1371C53.7118 66.0927 53.7937 66.0464 53.8745 65.9974C53.9552 65.9491 54.0347 65.8989 54.1128 65.846C54.1909 65.7938 54.2676 65.7397 54.3429 65.6836C54.4183 65.6274 54.4921 65.5694 54.5644 65.51C54.6367 65.4505 54.7075 65.3889 54.7766 65.3254C54.8457 65.2623 54.9132 65.1975 54.979 65.1311C55.0448 65.0646 55.1088 64.9965 55.1711 64.9269C55.2334 64.8573 55.2938 64.7862 55.3524 64.7136C55.411 64.6411 55.4677 64.5672 55.5224 64.4918C55.5772 64.4164 55.63 64.3398 55.6808 64.2618C55.7316 64.1839 55.7803 64.1048 55.827 64.0245C55.8737 63.9442 55.9184 63.8628 55.9608 63.7803C56.0033 63.6978 56.0437 63.6143 56.0818 63.5299C56.12 63.4454 56.156 63.3601 56.1898 63.2739C56.2235 63.1876 56.255 63.1006 56.2843 63.0128C56.3135 62.9251 56.3405 62.8367 56.3652 62.7476C56.3898 62.6585 56.4122 62.5689 56.4322 62.4787C56.4523 62.3886 56.47 62.2979 56.4854 62.2069C56.5008 62.1159 56.5137 62.0245 56.5244 61.9328C56.535 61.8411 56.5433 61.7492 56.5492 61.6572C56.555 61.5651 56.5585 61.4729 56.5596 61.3807C56.5608 61.2884 56.5595 61.1962 56.5558 61.104C56.5519 61.0112 56.5458 60.9184 56.5375 60.8259C56.5293 60.7333 56.5188 60.6409 56.5061 60.5488C56.4933 60.4567 56.4784 60.3649 56.4613 60.2735C56.4442 60.1821 56.4249 60.091 56.4035 60.0005C56.382 59.91 56.3583 59.8199 56.3325 59.7305C56.3067 59.641 56.2788 59.5521 56.2488 59.4639C56.2188 59.3756 56.1866 59.2881 56.1524 59.2014C56.1181 59.1146 56.0818 59.0286 56.0435 58.9435C56.0052 58.8584 55.9648 58.7742 55.9224 58.6909C55.88 58.6076 55.8357 58.5253 55.7894 58.444C55.743 58.3628 55.6947 58.2826 55.6446 58.2034C55.5945 58.1243 55.5424 58.0464 55.4885 57.9697C55.4346 57.8929 55.3789 57.8174 55.3214 57.7432C55.2639 57.669 55.2046 57.5961 55.1436 57.5245C55.0826 57.453 55.0198 57.3829 54.9555 57.3142C54.8911 57.2455 54.8251 57.1782 54.7575 57.1125C54.69 57.0468 54.6208 56.9827 54.5502 56.9201C54.4795 56.8575 54.4074 56.7966 54.3338 56.7373C54.2602 56.678 54.1853 56.6203 54.109 56.5644C54.0326 56.5085 53.9549 56.4543 53.876 56.4019C53.7971 56.3495 53.7169 56.2989 53.6355 56.2501C53.5542 56.2014 53.4717 56.1544 53.3881 56.1094C53.3045 56.0643 53.2199 56.0212 53.1342 55.98C53.0485 55.9388 52.9619 55.8996 52.8743 55.8623C52.7867 55.825 52.6983 55.7897 52.6092 55.7564C52.5199 55.7231 52.4299 55.6919 52.3392 55.6627C52.2484 55.6335 52.157 55.6063 52.065 55.5813C51.973 55.5562 51.8804 55.5332 51.7872 55.5124C51.6941 55.4915 51.6004 55.4727 51.5064 55.4561C51.4124 55.4394 51.318 55.4249 51.2233 55.4126C51.1286 55.4002 51.0336 55.39 50.9384 55.3819C50.8431 55.3739 50.7477 55.368 50.6522 55.3642L50.6691 55.3971ZM49.5812 9.7248C49.643 9.77211 49.7059 9.81831 49.7696 9.86327C49.8333 9.90823 49.8979 9.95201 49.9634 9.99462C50.0288 10.0372 50.0951 10.0785 50.1622 10.1186C50.2293 10.1587 50.2971 10.1976 50.3657 10.2351C50.4344 10.2727 50.5037 10.3089 50.5738 10.3439C50.6439 10.3788 50.7146 10.4125 50.7859 10.4448C50.8573 10.4772 50.9294 10.5082 51.002 10.5378C51.0745 10.5674 51.1477 10.5957 51.2214 10.6226C51.2952 10.6495 51.3694 10.675 51.4442 10.6992C51.5189 10.7232 51.5941 10.746 51.6697 10.7673C51.7453 10.7887 51.8214 10.8085 51.8978 10.827C51.9743 10.8454 52.051 10.8625 52.1281 10.8781C52.2052 10.8937 52.2826 10.908 52.3602 10.9207C52.4379 10.9334 52.5157 10.9446 52.5939 10.9544C52.6719 10.9643 52.7502 10.9726 52.8286 10.9795C52.9071 10.9864 52.9856 10.9918 53.0643 10.9958C53.1563 10.9941 53.2484 10.9902 53.3402 10.9842C53.4321 10.9783 53.5238 10.9701 53.6153 10.9599C53.7067 10.9497 53.7979 10.9373 53.8888 10.9228C53.9797 10.9082 54.0702 10.8916 54.1602 10.8729C54.2502 10.8542 54.3398 10.8334 54.4288 10.8105C54.5179 10.7876 54.6063 10.7626 54.6941 10.7356C54.7818 10.7085 54.8689 10.6795 54.9553 10.6484C55.0416 10.6173 55.1272 10.5842 55.2119 10.5492C55.2967 10.5141 55.3805 10.477 55.4634 10.4381C55.5463 10.3991 55.6282 10.3582 55.7091 10.3154C55.79 10.2726 55.8698 10.228 55.9484 10.1814C56.0271 10.1349 56.1046 10.0866 56.1809 10.0364C56.2572 9.98627 56.3322 9.93439 56.406 9.88076C56.4798 9.82712 56.5521 9.77178 56.6231 9.71482C56.6941 9.65779 56.7637 9.59913 56.8318 9.5389C56.8999 9.47867 56.9665 9.41688 57.0316 9.35352C57.0966 9.29016 57.1601 9.2253 57.222 9.159C57.2839 9.09264 57.3441 9.02491 57.4026 8.9558C57.4611 8.8867 57.5179 8.81623 57.573 8.74445C57.628 8.67267 57.6812 8.59966 57.7327 8.5254C57.7842 8.45114 57.8338 8.37571 57.8815 8.29917C57.9292 8.22263 57.9751 8.14498 58.019 8.06622C58.0628 7.98752 58.1048 7.90785 58.1448 7.8272C58.1847 7.74655 58.2227 7.66498 58.2587 7.58257C58.2946 7.50015 58.3285 7.41689 58.3604 7.33285C58.3922 7.24887 58.422 7.16417 58.4496 7.07876C58.4773 6.99334 58.5028 6.90734 58.5263 6.82075C58.5497 6.73416 58.571 6.64708 58.5901 6.55947C58.6092 6.47189 58.6261 6.38392 58.641 6.29554C58.6557 6.20717 58.6684 6.1185 58.6788 6.02954C58.6892 5.94057 58.6973 5.85142 58.7034 5.76207C58.7094 5.67272 58.7132 5.58329 58.7148 5.49377C58.7113 5.40601 58.7057 5.31837 58.6979 5.23087C58.69 5.14336 58.6801 5.05609 58.668 4.96906C58.6559 4.88202 58.6416 4.79531 58.6253 4.70894C58.6089 4.62256 58.5904 4.53662 58.5698 4.4511C58.5492 4.36558 58.5265 4.2806 58.5017 4.19615C58.4769 4.11169 58.4501 4.02786 58.4212 3.94465C58.3922 3.86144 58.3612 3.77895 58.3283 3.69719C58.2953 3.61542 58.2604 3.53447 58.2234 3.45433C58.1864 3.3742 58.1475 3.29497 58.1066 3.21665C58.0657 3.13832 58.0229 3.06099 57.9782 2.98466C57.9336 2.90832 57.887 2.83307 57.8386 2.75891C57.7902 2.68474 57.7401 2.61174 57.6881 2.53992C57.6361 2.46809 57.5824 2.3975 57.5269 2.32818C57.4714 2.25885 57.4143 2.19085 57.3555 2.12419C57.2967 2.05752 57.2363 1.99226 57.1743 1.9284C57.1122 1.86455 57.0486 1.80217 56.9835 1.74128C56.9184 1.68039 56.8518 1.62104 56.7839 1.56324C56.7159 1.50544 56.6465 1.44927 56.5757 1.3947C56.5049 1.34014 56.4328 1.28725 56.3594 1.23605C56.286 1.18484 56.2114 1.13537 56.1355 1.08764C56.0597 1.0399 55.9827 0.993964 55.9047 0.949814C55.8266 0.905664 55.7475 0.863355 55.6673 0.82289C55.5871 0.782425 55.5059 0.743848 55.4239 0.707159C55.3418 0.670472 55.2589 0.635716 55.1751 0.60289C55.0912 0.570064 55.0067 0.539206 54.9214 0.510316C54.8361 0.481427 54.7502 0.454538 54.6635 0.429652C54.5769 0.404765 54.4897 0.381909 54.4019 0.361083C54.3142 0.340256 54.2259 0.321483 54.1373 0.304764C54.0486 0.288046 53.9596 0.2734 53.8701 0.260827C53.7807 0.248254 53.691 0.237769 53.6011 0.229371C53.5112 0.220973 53.4212 0.214672 53.3309 0.210469C53.2406 0.206265 53.1504 0.204163 53.06 0.204163C52.9697 0.204163 52.8794 0.206265 52.7892 0.210469C52.699 0.214672 52.6089 0.220973 52.519 0.229371C52.429 0.237769 52.3394 0.248254 52.25 0.260827C52.1606 0.273399 52.0715 0.288045 51.9828 0.304764C51.8942 0.321483 51.8059 0.340255 51.7181 0.361082C51.6304 0.381909 51.5433 0.404765 51.4566 0.429652C51.37 0.454538 51.284 0.481427 51.1987 0.510316C51.1134 0.539205 51.0288 0.570063 50.945 0.60289C50.8612 0.635716 50.7783 0.670472 50.6962 0.707159C50.6141 0.743848 50.533 0.782425 50.4528 0.82289C50.3726 0.863355 50.2935 0.905664 50.2154 0.949814C50.1373 0.993964 50.0604 1.0399 49.9845 1.08764C49.9088 1.13537 49.8341 1.18484 49.7607 1.23605C49.6873 1.28725 49.6153 1.34014 49.5445 1.3947C49.4737 1.44927 49.4043 1.50544 49.3362 1.56324C49.2682 1.62104 49.2016 1.68039 49.1365 1.74128C49.0714 1.80217 49.0079 1.86455 48.9459 1.9284C48.8839 1.99226 48.8235 2.05752 48.7646 2.12419C48.7058 2.19085 48.6487 2.25885 48.5932 2.32818C48.5377 2.3975 48.4841 2.46809 48.432 2.53992C48.38 2.61174 48.3298 2.68474 48.2814 2.75891C48.233 2.83307 48.1865 2.90832 48.1418 2.98466C48.0971 3.06099 48.0544 3.13832 48.0135 3.21665C47.9726 3.29497 47.9337 3.3742 47.8967 3.45433C47.8598 3.53447 47.8248 3.61542 47.7918 3.69719C47.7588 3.77895 47.7279 3.86144 47.699 3.94465C47.67 4.02786 47.6431 4.11169 47.6184 4.19615C47.5936 4.2806 47.5709 4.36558 47.5503 4.4511C47.5297 4.53662 47.5112 4.62256 47.4948 4.70894C47.4784 4.79531 47.4642 4.88202 47.4521 4.96906C47.44 5.05609 47.43 5.14336 47.4222 5.23087C47.4144 5.31837 47.4088 5.40601 47.4053 5.49377C47.4096 5.6746 47.422 5.85491 47.4426 6.03469C47.4632 6.21446 47.4919 6.393 47.5286 6.5703C47.5654 6.74766 47.6101 6.92306 47.6627 7.09657C47.7154 7.27008 47.7757 7.44097 47.8439 7.60932L41.9403 14.169L40.2367 14.169L40.2367 16.9159L43.2812 16.9159L49.5812 9.7248Z"></path><path id="路径 3" fill-rule="evenodd" style="fill:#0D61A0" opacity="1" d="M33.9285 60.2595L26.9877 60.2595L26.9877 54.5197L25.8997 54.3065C25.595 54.2317 25.2917 54.1518 24.9899 54.0668C24.6881 53.9818 24.3879 53.8918 24.0892 53.7967C23.7905 53.7017 23.4936 53.6017 23.1985 53.4966C22.9034 53.3916 22.6103 53.2817 22.3191 53.1669C22.0279 53.052 21.7388 52.9324 21.4518 52.8079C21.1648 52.6834 20.8801 52.554 20.5978 52.42C20.3154 52.286 20.0355 52.1472 19.7581 52.0037C19.4805 51.8603 19.2057 51.7123 18.9335 51.5596L18.0901 50.9282L14.1769 54.3065L8.95651 49.0259L12.4396 44.7949L12.0011 43.9749C11.833 43.6751 11.6698 43.3727 11.5117 43.0678C11.3536 42.7629 11.2005 42.4556 11.0526 42.1458C10.9046 41.8361 10.7617 41.5242 10.6241 41.21C10.4864 40.8959 10.354 40.5796 10.2268 40.2613C10.0995 39.943 9.97758 39.6228 9.86101 39.3008C9.74436 38.9787 9.63309 38.6548 9.52711 38.3292C9.42121 38.0037 9.32067 37.6765 9.2255 37.3478C9.1304 37.019 9.04074 36.6889 8.95651 36.3574L8.52638 35.2996L2.82527 35.2996L2.82527 27.4853L8.72879 27.4853L8.94805 26.4276C9.02396 26.1395 9.1053 25.8528 9.19195 25.5676C9.27859 25.2824 9.37054 24.9988 9.46785 24.7168C9.5651 24.4349 9.66765 24.1548 9.77544 23.8764C9.88322 23.5981 9.99617 23.3217 10.1144 23.0474C10.2326 22.7731 10.3558 22.501 10.4841 22.231C10.6125 21.9611 10.7458 21.6935 10.8842 21.4282C11.0226 21.163 11.1659 20.9003 11.3142 20.6402C11.4624 20.3801 11.6154 20.1226 11.7734 19.8678L12.2119 19.0479L8.94805 15.2432L14.1685 10.1676L18.301 13.3409L19.1444 12.7013C19.4089 12.5354 19.6772 12.3757 19.9495 12.222C20.2217 12.0684 20.4975 11.921 20.7768 11.7798C21.0562 11.6387 21.3387 11.504 21.6245 11.3757C21.9103 11.2474 22.1991 11.1257 22.4907 11.0106C22.7824 10.8955 23.0766 10.787 23.3735 10.6852C23.6703 10.5835 23.9695 10.4885 24.271 10.4004C24.5724 10.3122 24.8758 10.231 25.1812 10.1566C25.4865 10.0822 25.7935 10.0149 26.1021 9.95445L26.9454 9.95445L26.9454 5.07562L33.9032 5.07562L33.9032 8.45392L36.7285 8.45392L36.7285 2.32874L24.3563 2.32874L24.3563 7.82254C23.8401 7.95048 23.3289 8.09529 22.8228 8.25699C22.3166 8.41868 21.8168 8.5969 21.3231 8.79166C20.8295 8.98636 20.3432 9.19719 19.8642 9.42401C19.3852 9.65089 18.9148 9.8933 18.4528 10.1512L13.9155 6.55977L5.22042 15.2268L9.13363 19.4496C8.99262 19.653 8.85544 19.8588 8.72215 20.067C8.58886 20.2753 8.45953 20.4858 8.33423 20.6986C8.20886 20.9114 8.08758 21.1264 7.97034 21.3436C7.85309 21.5607 7.73993 21.7799 7.63101 22.0011C7.52201 22.2223 7.41725 22.4453 7.31664 22.6702C7.21604 22.8952 7.11973 23.1218 7.02772 23.3501C6.93571 23.5785 6.84799 23.8084 6.76456 24.0398C6.68121 24.2713 6.60223 24.5042 6.52763 24.7385L0 24.7385L0 38.0629L6.30836 38.0629C6.4776 38.6262 6.65898 39.1857 6.85248 39.7415C7.04604 40.2973 7.25154 40.8489 7.46899 41.3963C7.68644 41.9437 7.91564 42.4864 8.15664 43.0243C8.39765 43.5623 8.65027 44.095 8.91436 44.6227L5.22042 49.2637L14.1348 58.1439L18.7058 54.1179C18.9225 54.2522 19.1419 54.3821 19.3641 54.5075C19.5863 54.6329 19.8111 54.7537 20.0385 54.87C20.2659 54.9864 20.4957 55.098 20.7279 55.205C20.9601 55.312 21.1944 55.4142 21.431 55.5117C21.6676 55.6092 21.9062 55.7019 22.1467 55.7897C22.3873 55.8775 22.6295 55.9605 22.8736 56.0384C23.1177 56.1165 23.3634 56.1896 23.6106 56.2575C23.8579 56.3257 24.1064 56.3886 24.3563 56.4466L24.3563 62.7932L36.7538 62.7932L36.7538 54.3393L33.9285 54.3393L33.9285 60.2595Z"></path><path id="路径 4" fill-rule="evenodd" style="fill:#0D61A0" opacity="1" d="M34.1479 30.6586L36.5347 30.6586L36.5347 33.4056L34.1479 33.4056L34.1479 30.6586ZM40.237 30.6586L42.6237 30.6586L42.6237 33.4056L40.237 33.4056L40.237 30.6586ZM34.1479 14.1691L36.5347 14.1691L36.5347 16.916L34.1479 16.916L34.1479 14.1691ZM36.5347 37.8498L40.237 37.8498L40.237 40.5966L36.5347 40.5966L36.5347 37.8498Z"></path></g></g><defs><rect id="path_0" x="0" y="0" width="70" height="66.81838637094182" rx="0" ry="0"/></defs></svg>