<svg xmlns="http://www.w3.org/2000/svg" xmlns:xlink="http://www.w3.org/1999/xlink" width="69.8125" height="66.61419677734375" viewBox="0 0 69.8125 66.61419677734375" fill="none"><g opacity="1"  transform="translate(0 0)"><path id="路径 1" fill-rule="evenodd" style="fill:#FFFFFF" opacity="1" d="M55.0211 15.0227L50.2393 15.0227L44.5803 23.2634L31.7527 23.2634C31.6076 23.259 31.4623 23.2581 31.3171 23.2608C31.1719 23.2635 31.0268 23.2697 30.8819 23.2794C30.737 23.2891 30.5924 23.3024 30.4482 23.3192C30.304 23.3359 30.1602 23.3562 30.017 23.38C29.8738 23.4038 29.7313 23.431 29.5895 23.4617C29.4477 23.4924 29.3068 23.5265 29.1668 23.5641C29.0268 23.6017 28.8878 23.6427 28.7499 23.687C28.612 23.7313 28.4753 23.779 28.3398 23.8299C28.2043 23.8809 28.0702 23.9352 27.9376 23.9927C27.8049 24.0502 27.6738 24.1109 27.5442 24.1748C27.4147 24.2387 27.2869 24.3057 27.1608 24.3758C27.0347 24.4459 26.9105 24.5191 26.7881 24.5952C26.6658 24.6714 26.5455 24.7505 26.4272 24.8325C26.309 24.9146 26.1929 24.9994 26.0791 25.0871C25.9652 25.1747 25.8536 25.2651 25.7444 25.3582C25.6351 25.4513 25.5284 25.547 25.4241 25.6453C25.3198 25.7437 25.2181 25.8444 25.1189 25.9476C25.0198 26.0509 24.9234 26.1565 24.8297 26.2644C24.7361 26.3724 24.6453 26.4826 24.5572 26.5949C24.4692 26.7073 24.3842 26.8218 24.3021 26.9382C24.22 27.0547 24.1409 27.1731 24.0649 27.2935C23.9889 27.4139 23.916 27.536 23.8463 27.6599C23.7766 27.7838 23.7101 27.9093 23.6468 28.0365C23.5836 28.1637 23.5236 28.2922 23.467 28.4223C23.4104 28.5523 23.3571 28.6837 23.3072 28.8163C23.2574 28.949 23.211 29.0828 23.168 29.2177C23.125 29.3526 23.0855 29.4885 23.0495 29.6253C23.0136 29.7622 22.9811 29.8998 22.9522 30.0382C22.9234 30.1766 22.8981 30.3156 22.8763 30.4553C22.8546 30.5949 22.8364 30.735 22.8219 30.8755C22.8074 31.0161 22.7965 31.1569 22.7893 31.2979C22.782 31.439 22.7783 31.5801 22.7783 31.7214C22.7783 31.8626 22.782 32.0037 22.7893 32.1448C22.7965 32.2858 22.8074 32.4266 22.8219 32.5672C22.8364 32.7077 22.8546 32.8478 22.8763 32.9874C22.8981 33.1271 22.9234 33.2661 22.9522 33.4045C22.9811 33.5429 23.0136 33.6806 23.0495 33.8174C23.0855 33.9542 23.125 34.0901 23.168 34.225C23.211 34.3599 23.2574 34.4937 23.3072 34.6263C23.3571 34.759 23.4104 34.8903 23.467 35.0204C23.5236 35.1504 23.5836 35.2791 23.6468 35.4062C23.7101 35.5333 23.7766 35.6588 23.8463 35.7827C23.916 35.9067 23.9889 36.0288 24.0649 36.1491C24.1409 36.2695 24.22 36.388 24.3021 36.5044C24.3842 36.6209 24.4692 36.7354 24.5572 36.8478C24.6453 36.9602 24.7361 37.0703 24.8298 37.1782C24.9234 37.2861 25.0198 37.3917 25.1189 37.495C25.2181 37.5983 25.3198 37.699 25.4241 37.7973C25.5284 37.8957 25.6351 37.9913 25.7444 38.0844C25.8536 38.1776 25.9652 38.2679 26.0791 38.3556C26.1929 38.4433 26.309 38.5282 26.4272 38.6102C26.5455 38.6922 26.6658 38.7713 26.7881 38.8474C26.9105 38.9236 27.0347 38.9967 27.1608 39.0669C27.2869 39.137 27.4147 39.204 27.5442 39.2679C27.6738 39.3317 27.8049 39.3925 27.9376 39.45C28.0702 39.5075 28.2043 39.5618 28.3398 39.6127C28.4753 39.6637 28.612 39.7114 28.7499 39.7558C28.8878 39.8001 29.0268 39.841 29.1668 39.8786C29.3068 39.9161 29.4477 39.9503 29.5895 39.981C29.7313 40.0117 29.8738 40.0389 30.017 40.0627C30.1602 40.0865 30.304 40.1067 30.4482 40.1235C30.5924 40.1403 30.737 40.1535 30.8819 40.1633C31.0268 40.173 31.1719 40.1792 31.3171 40.1819C31.4623 40.1846 31.6076 40.1837 31.7527 40.1793L34.3588 40.1793L34.3588 37.4324L31.7527 37.4324C31.6565 37.4311 31.5603 37.4276 31.4643 37.4217C31.3683 37.4159 31.2723 37.4078 31.1767 37.3975C31.0811 37.3872 30.9857 37.3747 30.8907 37.3599C30.7956 37.3451 30.701 37.3281 30.6068 37.3089C30.5126 37.2897 30.4189 37.2683 30.3258 37.2447C30.2327 37.221 30.1402 37.1953 30.0483 37.1673C29.9564 37.1394 29.8654 37.1093 29.775 37.0771C29.6846 37.0448 29.5951 37.0105 29.5064 36.9741C29.4178 36.9377 29.33 36.8992 29.2433 36.8587C29.1565 36.8182 29.0708 36.7757 28.9862 36.7311C28.9015 36.6865 28.818 36.6401 28.7357 36.5916C28.6534 36.5431 28.5723 36.4927 28.4924 36.4405C28.4126 36.3882 28.3341 36.3341 28.2569 36.2782C28.1798 36.2223 28.104 36.1645 28.0297 36.105C27.9555 36.0456 27.8827 35.9844 27.8114 35.9215C27.7402 35.8586 27.6705 35.794 27.6024 35.7279C27.5344 35.6617 27.468 35.594 27.4033 35.5247C27.3386 35.4554 27.2757 35.3846 27.2145 35.3124C27.1533 35.2402 27.0939 35.1665 27.0364 35.0915C26.9788 35.0165 26.9232 34.9401 26.8695 34.8625C26.8157 34.7849 26.7639 34.7061 26.714 34.626C26.6642 34.5459 26.6164 34.4648 26.5705 34.3825C26.5247 34.3002 26.481 34.2169 26.4393 34.1325C26.3976 34.0481 26.3581 33.9628 26.3206 33.8766C26.2832 33.7905 26.2479 33.7035 26.2147 33.6156C26.1816 33.5277 26.1506 33.4391 26.1219 33.3498C26.0932 33.2605 26.0666 33.1706 26.0423 33.08C26.0181 32.9895 25.996 32.8984 25.9762 32.8068C25.9565 32.7152 25.939 32.6232 25.9238 32.5308C25.9086 32.4384 25.8957 32.3457 25.8851 32.2527C25.8745 32.1597 25.8662 32.0665 25.8602 31.9731C25.8542 31.8797 25.8506 31.7862 25.8492 31.6927C25.8528 31.5997 25.8587 31.5069 25.8667 31.4143C25.8748 31.3216 25.8851 31.2292 25.8976 31.137C25.9101 31.0448 25.9249 30.953 25.9418 30.8614C25.9587 30.7699 25.9778 30.6788 25.9991 30.5881C26.0205 30.4975 26.044 30.4073 26.0696 30.3177C26.0952 30.2281 26.123 30.1392 26.1529 30.0508C26.1828 29.9626 26.2148 29.8749 26.249 29.7881C26.2831 29.7012 26.3193 29.6152 26.3576 29.5299C26.3958 29.4446 26.4361 29.3603 26.4785 29.2769C26.5208 29.1936 26.5651 29.1111 26.6113 29.0298C26.6576 28.9484 26.7058 28.8681 26.756 28.7889C26.8061 28.7097 26.8581 28.6317 26.912 28.5549C26.9659 28.4781 27.0216 28.4025 27.0791 28.3282C27.1366 28.2539 27.1959 28.1809 27.2569 28.1093C27.3179 28.0377 27.3807 27.9675 27.4451 27.8988C27.5095 27.83 27.5755 27.7628 27.6431 27.697C27.7107 27.6313 27.7799 27.5671 27.8507 27.5044C27.9214 27.4419 27.9935 27.3808 28.0672 27.3215C28.1408 27.2622 28.2159 27.2045 28.2923 27.1486C28.3687 27.0927 28.4464 27.0385 28.5255 26.9861C28.6045 26.9337 28.6847 26.8832 28.7662 26.8344C28.8476 26.7857 28.9302 26.7388 29.014 26.6939C29.0976 26.6488 29.1823 26.6058 29.2681 26.5646C29.3539 26.5235 29.4407 26.4843 29.5283 26.4471C29.616 26.4099 29.7045 26.3747 29.7938 26.3415C29.8832 26.3084 29.9733 26.2772 30.0642 26.2481C30.155 26.219 30.2465 26.192 30.3387 26.1671C30.4308 26.1422 30.5235 26.1193 30.6167 26.0986C30.7099 26.078 30.8036 26.0594 30.8978 26.0428C30.9919 26.0264 31.0864 26.0121 31.1812 25.9999C31.276 25.9878 31.3711 25.9778 31.4664 25.9699C31.5617 25.9621 31.6572 25.9564 31.7527 25.9529L46.0899 25.9529L51.7405 17.704L54.8187 17.704C54.8315 17.785 54.846 17.8656 54.8625 17.9459C54.8789 18.0262 54.8972 18.1061 54.9174 18.1857C54.9375 18.2652 54.9595 18.3442 54.9832 18.4228C55.007 18.5014 55.0326 18.5794 55.06 18.6568C55.0874 18.7343 55.1165 18.8111 55.1474 18.8873C55.1784 18.9634 55.211 19.0389 55.2454 19.1136C55.2799 19.1884 55.316 19.2624 55.3537 19.3356C55.3915 19.4087 55.4311 19.4811 55.4722 19.5525C55.5133 19.624 55.5561 19.6945 55.6005 19.7641C55.6449 19.8337 55.6909 19.9023 55.7384 19.9698C55.786 20.0374 55.8352 20.104 55.8858 20.1694C55.9364 20.2349 55.9885 20.2991 56.0421 20.3623C56.0958 20.4255 56.1508 20.4875 56.2072 20.5482C56.2637 20.609 56.3215 20.6685 56.3808 20.7267C56.44 20.785 56.5005 20.8419 56.5623 20.8976C56.6241 20.9532 56.6872 21.0074 56.7516 21.0602C56.816 21.1131 56.8815 21.1645 56.9482 21.2145C57.0149 21.2646 57.0827 21.313 57.1517 21.3601C57.2206 21.4071 57.2906 21.4527 57.3617 21.4967C57.4327 21.5406 57.5048 21.583 57.5778 21.6239C57.6507 21.6647 57.7246 21.704 57.7995 21.7416C57.8743 21.7793 57.95 21.8152 58.0264 21.8495C58.1029 21.8839 58.1801 21.9165 58.2581 21.9475C58.3361 21.9784 58.4148 22.0076 58.4941 22.0352C58.5734 22.0627 58.6533 22.0885 58.7339 22.1126C58.8144 22.1366 58.8954 22.1588 58.977 22.1794C59.0585 22.1999 59.1405 22.2186 59.2229 22.2356C59.3053 22.2525 59.388 22.2676 59.4712 22.2809C59.5543 22.2942 59.6376 22.3057 59.7213 22.3154C59.805 22.3252 59.8888 22.333 59.9728 22.3391C60.0568 22.3451 60.1409 22.3492 60.2251 22.3516C60.3093 22.354 60.3935 22.3545 60.4777 22.3532C60.5697 22.3517 60.6617 22.3479 60.7535 22.3421C60.8454 22.3363 60.937 22.3282 61.0284 22.3181C61.1199 22.308 61.2111 22.2957 61.3019 22.2814C61.3927 22.267 61.4832 22.2505 61.5732 22.2319C61.6632 22.2133 61.7527 22.1926 61.8417 22.1698C61.9308 22.147 62.0192 22.1222 62.1069 22.0953C62.1947 22.0683 62.2817 22.0394 62.3681 22.0084C62.4545 21.9774 62.54 21.9445 62.6248 21.9095C62.7094 21.8745 62.7933 21.8376 62.8762 21.7988C62.959 21.7599 63.041 21.7191 63.1219 21.6764C63.2027 21.6337 63.2825 21.5891 63.3612 21.5427C63.4399 21.4963 63.5174 21.448 63.5937 21.398C63.67 21.3479 63.745 21.2962 63.8188 21.2426C63.8925 21.1891 63.9649 21.1339 64.036 21.077C64.107 21.0201 64.1766 20.9615 64.2447 20.9013C64.3128 20.8411 64.3794 20.7794 64.4445 20.7162C64.5095 20.6529 64.573 20.5881 64.6349 20.5219C64.6968 20.4556 64.757 20.388 64.8156 20.3189C64.8741 20.2499 64.9309 20.1795 64.986 20.1078C65.0411 20.0361 65.0943 19.9632 65.1458 19.889C65.1973 19.8148 65.2469 19.7395 65.2946 19.6629C65.3423 19.5864 65.3882 19.5089 65.4321 19.4302C65.476 19.3516 65.518 19.2719 65.558 19.1914C65.598 19.1108 65.636 19.0293 65.6719 18.9469C65.7078 18.8645 65.7417 18.7814 65.7736 18.6974C65.8055 18.6134 65.8352 18.5288 65.8629 18.4434C65.8906 18.3581 65.9162 18.2721 65.9396 18.1856C65.963 18.0991 65.9843 18.0121 66.0034 17.9245C66.0225 17.837 66.0395 17.749 66.0544 17.6607C66.0692 17.5724 66.0817 17.4838 66.0921 17.3949C66.1025 17.306 66.1108 17.2169 66.1168 17.1276C66.1228 17.0383 66.1266 16.9489 66.1282 16.8594C66.1266 16.7699 66.1228 16.6805 66.1168 16.5911C66.1108 16.5018 66.1026 16.4126 66.0922 16.3236C66.0818 16.2347 66.0692 16.146 66.0544 16.0577C66.0396 15.9693 66.0227 15.8813 66.0035 15.7937C65.9844 15.7061 65.9631 15.619 65.9397 15.5325C65.9163 15.4459 65.8907 15.3598 65.8631 15.2745C65.8354 15.1891 65.8057 15.1044 65.7738 15.0204C65.7419 14.9363 65.708 14.8531 65.6721 14.7706C65.6362 14.6882 65.5982 14.6067 65.5582 14.526C65.5183 14.4454 65.4764 14.3657 65.4324 14.2869C65.3885 14.2082 65.3427 14.1306 65.295 14.054C65.2472 13.9775 65.1977 13.9021 65.1462 13.8278C65.0948 13.7536 65.0415 13.6805 64.9864 13.6088C64.9314 13.537 64.8746 13.4665 64.816 13.3974C64.7575 13.3283 64.6973 13.2606 64.6355 13.1942C64.5736 13.1279 64.5101 13.0631 64.445 12.9997C64.38 12.9364 64.3134 12.8746 64.2453 12.8143C64.1772 12.7541 64.1076 12.6954 64.0366 12.6384C63.9656 12.5814 63.8932 12.5261 63.8195 12.4725C63.7457 12.4188 63.6707 12.3669 63.5943 12.3168C63.518 12.2666 63.4406 12.2183 63.3619 12.1718C63.2832 12.1253 63.2034 12.0806 63.1225 12.0378C63.0417 11.995 62.9597 11.9541 62.8768 11.9151C62.7939 11.8762 62.7101 11.8391 62.6254 11.804C62.5407 11.7689 62.4552 11.7359 62.3688 11.7048C62.2824 11.6737 62.1953 11.6447 62.1075 11.6176C62.0197 11.5906 61.9313 11.5656 61.8423 11.5427C61.7532 11.5198 61.6637 11.499 61.5736 11.4803C61.4836 11.4616 61.3931 11.445 61.3023 11.4304C61.2114 11.416 61.1202 11.4036 61.0287 11.3933C60.9372 11.383 60.8456 11.3749 60.7537 11.369C60.6618 11.363 60.5698 11.3591 60.4777 11.3574C60.4058 11.3615 60.3341 11.3668 60.2624 11.3733C60.1907 11.3797 60.1192 11.3873 60.0478 11.3961C59.9764 11.4049 59.9051 11.4149 59.834 11.426C59.7629 11.4371 59.6921 11.4494 59.6215 11.4629C59.5508 11.4763 59.4805 11.4909 59.4103 11.5067C59.3402 11.5224 59.2703 11.5393 59.2007 11.5574C59.1312 11.5754 59.062 11.5945 58.9931 11.6148C58.9242 11.6352 58.8557 11.6566 58.7876 11.6791C58.7195 11.7017 58.6517 11.7254 58.5844 11.7501C58.517 11.7749 58.4501 11.8008 58.3837 11.8278C58.3173 11.8547 58.2513 11.8827 58.1859 11.9119C58.1205 11.941 58.0555 11.9712 57.9911 12.0024C57.9267 12.0337 57.8628 12.066 57.7995 12.0993C57.7362 12.1326 57.6735 12.167 57.6114 12.2024C57.5493 12.2378 57.4879 12.2742 57.427 12.3116C57.3662 12.349 57.306 12.3874 57.2465 12.4268C57.187 12.4661 57.1282 12.5065 57.0701 12.5478C57.0119 12.5891 56.9546 12.6314 56.8979 12.6745C56.8413 12.7177 56.7854 12.7618 56.7303 12.8069C56.6752 12.8519 56.6208 12.8978 56.5673 12.9446C56.5138 12.9914 56.4611 13.039 56.4092 13.0875C56.3573 13.1361 56.3063 13.1854 56.2562 13.2356C56.206 13.2858 56.1567 13.3369 56.1083 13.3887C56.0599 13.4404 56.0124 13.493 55.9658 13.5464C55.9193 13.5998 55.8736 13.6539 55.8289 13.7087C55.7842 13.7636 55.7405 13.8192 55.6977 13.8754C55.655 13.9317 55.6131 13.9887 55.5723 14.0463C55.5315 14.104 55.4917 14.1623 55.4529 14.2213C55.4142 14.2803 55.3764 14.3399 55.3397 14.4001C55.303 14.4603 55.2674 14.5211 55.2327 14.5824C55.1982 14.6438 55.1646 14.7057 55.1321 14.7682C55.0997 14.8306 55.0683 14.8936 55.038 14.9571L55.0211 15.0227ZM60.2416 41.0239C60.1707 41.0247 60.0998 41.0269 60.029 41.0305C59.9582 41.0339 59.8874 41.0387 59.8168 41.0448C59.7462 41.0508 59.6757 41.0582 59.6054 41.0669C59.535 41.0755 59.4648 41.0855 59.3949 41.0968C59.3249 41.108 59.2552 41.1206 59.1857 41.1343C59.1162 41.1481 59.0471 41.1632 58.9782 41.1796C58.9093 41.1959 58.8407 41.2135 58.7725 41.2323C58.7043 41.2512 58.6366 41.2713 58.5691 41.2926C58.5017 41.314 58.4347 41.3366 58.3681 41.3604C58.3016 41.3842 58.2355 41.4092 58.1699 41.4355C58.1044 41.4617 58.0393 41.4891 57.9748 41.5178C57.9103 41.5464 57.8464 41.5762 57.783 41.6071C57.7197 41.6381 57.6569 41.6702 57.5948 41.7035C57.5327 41.7367 57.4713 41.7711 57.4105 41.8067C57.3498 41.8422 57.2897 41.8788 57.2303 41.9166C57.171 41.9543 57.1124 41.9931 57.0546 42.033C56.9968 42.0729 56.9397 42.1138 56.8834 42.1558C56.8272 42.1978 56.7717 42.2407 56.7172 42.2847C56.6626 42.3288 56.6088 42.3737 56.556 42.4197C56.5032 42.4658 56.4513 42.5127 56.4003 42.5606C56.3493 42.6085 56.2993 42.6573 56.2501 42.707C56.201 42.7567 56.1529 42.8073 56.1057 42.8588C56.0586 42.9103 56.0125 42.9626 55.9673 43.0158C55.9222 43.069 55.8781 43.123 55.8351 43.1778C55.7921 43.2327 55.7502 43.2883 55.7093 43.3446C55.6684 43.4009 55.6286 43.458 55.5901 43.5158C55.5514 43.5736 55.5139 43.6321 55.4775 43.6912C55.4411 43.7504 55.4059 43.8103 55.3719 43.8708C55.3378 43.9312 55.305 43.9923 55.2733 44.054C55.2416 44.1157 55.2111 44.1779 55.1819 44.2407C55.1526 44.3035 55.1246 44.3668 55.0978 44.4306C55.071 44.4945 55.0455 44.5588 55.0211 44.6235L51.538 44.6235L46.1068 37.4324L42.6237 37.4324L42.6237 40.1793L44.5803 40.1793L50.02 47.3541L54.5826 47.3541C54.5933 47.4358 54.606 47.5173 54.6207 47.5984C54.6354 47.6795 54.6519 47.7603 54.6704 47.8408C54.6889 47.9212 54.7093 48.0011 54.7316 48.0806C54.7539 48.1601 54.778 48.2391 54.8041 48.3175C54.8303 48.3959 54.8582 48.4737 54.888 48.5508C54.9177 48.628 54.9493 48.7044 54.9827 48.7802C55.0162 48.8558 55.0515 48.9308 55.0884 49.0049C55.1254 49.0791 55.1642 49.1523 55.2047 49.2247C55.2452 49.2971 55.2874 49.3685 55.3313 49.439C55.3752 49.5095 55.4208 49.5789 55.468 49.6474C55.5152 49.7158 55.5641 49.7831 55.6145 49.8493C55.6649 49.9155 55.7169 49.9806 55.7705 50.0445C55.8239 50.1084 55.879 50.171 55.9355 50.2324C55.9921 50.2938 56.05 50.3539 56.1094 50.4127C56.1688 50.4715 56.2296 50.5289 56.2917 50.585C56.3538 50.641 56.4172 50.6956 56.482 50.7488C56.5468 50.802 56.6127 50.8537 56.6799 50.9039C56.7471 50.9541 56.8155 51.0028 56.885 51.0499C56.9545 51.097 57.0251 51.1425 57.0968 51.1865C57.1685 51.2304 57.2412 51.2728 57.315 51.3134C57.3886 51.3541 57.4633 51.393 57.5389 51.4304C57.6145 51.4676 57.6909 51.5033 57.7682 51.5371C57.8454 51.571 57.9235 51.603 58.0023 51.6334C58.0811 51.6637 58.1605 51.6922 58.2407 51.719C58.3209 51.7457 58.4017 51.7707 58.483 51.7938C58.5644 51.8169 58.6462 51.8381 58.7286 51.8576C58.8109 51.877 58.8937 51.8945 58.977 51.9102C59.0601 51.9259 59.1437 51.9397 59.2276 51.9516C59.3114 51.9636 59.3955 51.9735 59.4799 51.9816C59.5642 51.9898 59.6487 51.996 59.7333 52.0003C59.818 52.0046 59.9026 52.007 59.9874 52.0075C60.0721 52.008 60.1569 52.0066 60.2416 52.0033C60.3336 52.0017 60.4255 51.998 60.5174 51.9921C60.6092 51.9863 60.7009 51.9783 60.7923 51.9682C60.8837 51.9581 60.9749 51.9458 61.0658 51.9314C61.1566 51.917 61.247 51.9005 61.337 51.8819C61.427 51.8633 61.5166 51.8426 61.6056 51.8199C61.6946 51.7971 61.783 51.7722 61.8708 51.7453C61.9586 51.7184 62.0456 51.6895 62.132 51.6585C62.2184 51.6275 62.3039 51.5945 62.3886 51.5596C62.4733 51.5246 62.5572 51.4877 62.6401 51.4488C62.7229 51.41 62.8048 51.3692 62.8857 51.3264C62.9666 51.2838 63.0464 51.2392 63.1251 51.1928C63.2037 51.1463 63.2813 51.0981 63.3576 51.0481C63.4339 50.998 63.5089 50.9463 63.5827 50.8927C63.6564 50.8391 63.7288 50.7839 63.7998 50.727C63.8709 50.6701 63.9404 50.6115 64.0085 50.5514C64.0766 50.4912 64.1433 50.4295 64.2083 50.3662C64.2734 50.3029 64.3369 50.2381 64.3988 50.1719C64.4607 50.1057 64.5209 50.038 64.5795 49.969C64.638 49.8999 64.6947 49.8296 64.7499 49.7579C64.805 49.6862 64.8582 49.6132 64.9097 49.539C64.9611 49.4648 65.0107 49.3895 65.0585 49.313C65.1062 49.2365 65.1521 49.1589 65.196 49.0802C65.2399 49.0016 65.2819 48.922 65.3218 48.8414C65.3618 48.7608 65.3998 48.6793 65.4358 48.5969C65.4717 48.5146 65.5056 48.4314 65.5375 48.3475C65.5694 48.2635 65.5991 48.1788 65.6268 48.0935C65.6545 48.0081 65.68 47.9222 65.7034 47.8357C65.7268 47.7492 65.7482 47.6621 65.7673 47.5745C65.7864 47.487 65.8034 47.3991 65.8182 47.3108C65.833 47.2224 65.8456 47.1338 65.856 47.045C65.8664 46.956 65.8747 46.867 65.8807 46.7776C65.8867 46.6883 65.8905 46.599 65.8921 46.5095C65.8928 46.4193 65.8912 46.3292 65.8873 46.2392C65.8834 46.1491 65.8772 46.0592 65.8688 45.9694C65.8603 45.8796 65.8495 45.7901 65.8365 45.7009C65.8235 45.6116 65.8082 45.5228 65.7907 45.4342C65.7731 45.3457 65.7533 45.2577 65.7312 45.1701C65.7092 45.0826 65.685 44.9956 65.6584 44.9092C65.632 44.8228 65.6033 44.7371 65.5725 44.6521C65.5417 44.5671 65.5086 44.4829 65.4735 44.3994C65.4384 44.316 65.4012 44.2334 65.3619 44.1518C65.3225 44.0702 65.2811 43.9896 65.2377 43.9099C65.1943 43.8302 65.1488 43.7517 65.1014 43.6743C65.0539 43.5968 65.0046 43.5205 64.9533 43.4455C64.9019 43.3704 64.8488 43.2966 64.7937 43.2241C64.7386 43.1516 64.6817 43.0804 64.6229 43.0107C64.5642 42.9409 64.5038 42.8726 64.4417 42.8057C64.3795 42.7388 64.3156 42.6735 64.2501 42.6098C64.1846 42.5459 64.1174 42.4838 64.0488 42.4232C63.9801 42.3626 63.9099 42.3038 63.8382 42.2466C63.7666 42.1894 63.6935 42.134 63.619 42.0804C63.5445 42.0267 63.4686 41.9749 63.3915 41.9249C63.3144 41.8748 63.236 41.8267 63.1564 41.7805C63.0768 41.7342 62.9961 41.69 62.9143 41.6476C62.8325 41.6053 62.7496 41.5649 62.6657 41.5265C62.5817 41.4881 62.4969 41.4518 62.4112 41.4175C62.3254 41.3833 62.2388 41.3511 62.1515 41.321C62.0641 41.2909 61.976 41.2629 61.8872 41.237C61.7984 41.2111 61.7089 41.1875 61.6189 41.1659C61.5288 41.1443 61.4383 41.1249 61.3473 41.1077C61.2563 41.0906 61.1649 41.0755 61.0731 41.0628C60.9814 41.0499 60.8893 41.0393 60.797 41.031C60.7047 41.0226 60.6122 41.0164 60.5196 41.0125C60.427 41.0086 60.3343 41.0069 60.2416 41.0075L60.2416 41.0239Z"></path><path id="路径 2" fill-rule="evenodd" style="fill:#FFFFFF" opacity="1" d="M63.9352 25.8052C63.8516 25.8064 63.7682 25.8092 63.6847 25.8139C63.6013 25.8185 63.518 25.8249 63.4349 25.8331C63.3517 25.8412 63.2688 25.8511 63.1861 25.8626C63.1034 25.8742 63.021 25.8876 62.9389 25.9026C62.8568 25.9176 62.7751 25.9344 62.6937 25.9529C62.6122 25.9713 62.5314 25.9914 62.4509 26.0133C62.3704 26.0352 62.2904 26.0586 62.211 26.0838C62.1316 26.109 62.0527 26.1358 61.9745 26.1644C61.8962 26.1929 61.8186 26.2229 61.7416 26.2547C61.6647 26.2864 61.5886 26.3198 61.5131 26.3547C61.4377 26.3896 61.363 26.4261 61.2892 26.4641C61.2153 26.5022 61.1424 26.5417 61.0703 26.5828C60.9982 26.6239 60.9271 26.6665 60.8569 26.7105C60.7867 26.7546 60.7175 26.8001 60.6493 26.8471C60.5811 26.894 60.514 26.9424 60.4479 26.9921C60.3819 27.0419 60.317 27.093 60.2532 27.1456C60.1894 27.198 60.1268 27.2518 60.0654 27.3069C60.004 27.362 59.9439 27.4184 59.8849 27.476C59.8261 27.5336 59.7684 27.5924 59.7121 27.6524C59.6558 27.7125 59.6008 27.7737 59.5472 27.836C59.4936 27.8983 59.4414 27.9617 59.3906 28.0262C59.3398 28.0907 59.2905 28.1562 59.2426 28.2228C59.1947 28.2894 59.1483 28.357 59.1034 28.4255C59.0585 28.494 59.0151 28.5634 58.9733 28.6337C58.9314 28.704 58.8912 28.7752 58.8524 28.8472C58.8138 28.9192 58.7767 28.992 58.7412 29.0655C58.7057 29.1391 58.6719 29.2134 58.6398 29.2884C58.6076 29.3633 58.5771 29.4389 58.5482 29.5152C58.5194 29.5915 58.4922 29.6683 58.4668 29.7457C58.4414 29.8231 58.4177 29.901 58.3957 29.9793C58.3737 30.0577 58.3534 30.1365 58.3349 30.2157C58.3164 30.295 58.2996 30.3745 58.2847 30.4544L45.0186 30.4544L45.0186 33.2014L58.7148 33.2014C58.7392 33.266 58.7649 33.3302 58.7918 33.394C58.8188 33.4577 58.8469 33.521 58.8762 33.5837C58.9056 33.6464 58.9362 33.7086 58.9679 33.7702C58.9997 33.8318 59.0326 33.8928 59.0668 33.9532C59.1009 34.0136 59.1362 34.0733 59.1726 34.1324C59.2091 34.1916 59.2466 34.25 59.2853 34.3077C59.3241 34.3655 59.3639 34.4224 59.4048 34.4787C59.4457 34.535 59.4877 34.5905 59.5307 34.6453C59.5738 34.6999 59.6179 34.7539 59.663 34.807C59.7082 34.8602 59.7543 34.9125 59.8015 34.9639C59.8487 35.0153 59.8968 35.0658 59.9459 35.1155C59.9951 35.1652 60.0451 35.214 60.0961 35.2618C60.1472 35.3097 60.1991 35.3566 60.2519 35.4025C60.3047 35.4485 60.3585 35.4934 60.413 35.5374C60.4676 35.5814 60.523 35.6243 60.5792 35.6663C60.6355 35.7082 60.6925 35.7491 60.7503 35.789C60.8081 35.8289 60.8667 35.8677 60.926 35.9054C60.9853 35.9431 61.0453 35.9797 61.1061 36.0153C61.1668 36.0508 61.2282 36.0852 61.2903 36.1185C61.3524 36.1518 61.4151 36.1839 61.4784 36.2149C61.5416 36.2459 61.6055 36.2757 61.67 36.3044C61.7345 36.3329 61.7995 36.3604 61.865 36.3867C61.9306 36.413 61.9965 36.4381 62.063 36.4619C62.1296 36.4858 62.1965 36.5084 62.2639 36.5298C62.3312 36.5512 62.399 36.5714 62.4671 36.5903C62.5353 36.6092 62.6038 36.6269 62.6726 36.6434C62.7414 36.6597 62.8106 36.6749 62.88 36.6888C62.9494 36.7027 63.0191 36.7153 63.089 36.7267C63.1589 36.738 63.229 36.748 63.2994 36.7568C63.3696 36.7656 63.4401 36.7731 63.5107 36.7793C63.5812 36.7855 63.6519 36.7904 63.7227 36.794C63.7935 36.7976 63.8643 36.8 63.9352 36.801C64.03 36.8046 64.1249 36.8058 64.2198 36.8047C64.3147 36.8036 64.4095 36.8002 64.5042 36.7945C64.5989 36.7888 64.6934 36.7808 64.7877 36.7705C64.882 36.7601 64.9759 36.7475 65.0696 36.7326C65.1632 36.7176 65.2564 36.7004 65.3492 36.6809C65.4419 36.6614 65.5341 36.6397 65.6257 36.6157C65.7173 36.5917 65.8083 36.5654 65.8986 36.537C65.9888 36.5085 66.0783 36.4779 66.1669 36.4451C66.2556 36.4123 66.3434 36.3773 66.4303 36.3402C66.5171 36.3031 66.603 36.2638 66.6879 36.2225C66.7727 36.1812 66.8564 36.1378 66.939 36.0924C67.0216 36.0471 67.103 35.9996 67.183 35.9502C67.2631 35.9008 67.3419 35.8496 67.4193 35.7963C67.4971 35.7431 67.5732 35.6879 67.6475 35.631C67.7222 35.574 67.7953 35.5153 67.8669 35.4547C67.9386 35.3942 68.0086 35.3319 68.077 35.268C68.1455 35.204 68.2121 35.1384 68.277 35.0712C68.3423 35.004 68.4057 34.9352 68.4669 34.8648C68.5282 34.7946 68.5878 34.7228 68.6455 34.6496C68.7032 34.5763 68.7589 34.5017 68.8126 34.4258C68.8667 34.3498 68.9186 34.2725 68.9683 34.194C69.0184 34.1155 69.0663 34.0359 69.1119 33.9551C69.1575 33.8742 69.2012 33.7923 69.2428 33.7093C69.2844 33.6263 69.3238 33.5425 69.3609 33.4576C69.398 33.3727 69.4329 33.287 69.4656 33.2004C69.4983 33.1138 69.5287 33.0264 69.5569 32.9383C69.5851 32.8502 69.611 32.7615 69.6347 32.6722C69.6584 32.5828 69.6797 32.4929 69.6985 32.4025C69.7173 32.3122 69.7339 32.2213 69.7482 32.1301C69.7625 32.0389 69.7743 31.9474 69.7837 31.8556C69.7936 31.7638 69.8007 31.6718 69.8052 31.5797C69.8101 31.4876 69.8126 31.3954 69.8126 31.3031C69.8126 31.2108 69.8101 31.1186 69.8052 31.0265C69.8007 30.9344 69.7936 30.8424 69.7837 30.7506C69.7743 30.6588 69.7625 30.5673 69.7482 30.4761C69.7339 30.3849 69.7173 30.294 69.6985 30.2037C69.6797 30.1133 69.6584 30.0234 69.6347 29.934C69.611 29.8447 69.5851 29.756 69.5569 29.6679C69.5287 29.5798 69.4983 29.4925 69.4656 29.4059C69.4329 29.3193 69.398 29.2335 69.3609 29.1486C69.3238 29.0637 69.2844 28.9798 69.2428 28.8969C69.2012 28.8139 69.1575 28.732 69.1119 28.6511C69.0663 28.5703 69.0184 28.4907 68.9683 28.4122C68.9186 28.3337 68.8667 28.2564 68.8126 28.1805C68.7589 28.1045 68.7032 28.0299 68.6455 27.9567C68.5878 27.8834 68.5282 27.8116 68.4669 27.7414C68.4057 27.671 68.3423 27.6023 68.277 27.535C68.2121 27.4678 68.1455 27.4022 68.077 27.3382C68.0086 27.2743 67.9386 27.212 67.8669 27.1515C67.7953 27.0909 67.7222 27.0322 67.6475 26.9752C67.5732 26.9183 67.4971 26.8631 67.4193 26.8099C67.3419 26.7566 67.2631 26.7054 67.183 26.656C67.103 26.6066 67.0216 26.5591 66.939 26.5138C66.8564 26.4684 66.7727 26.425 66.6879 26.3837C66.603 26.3424 66.5171 26.3031 66.4303 26.266C66.3434 26.2289 66.2556 26.1939 66.1669 26.1611C66.0783 26.1283 65.9888 26.0977 65.8986 26.0692C65.8083 26.0408 65.7173 26.0145 65.6257 25.9905C65.5341 25.9666 65.4419 25.9448 65.3492 25.9253C65.2564 25.9058 65.1632 25.8886 65.0696 25.8737C64.9759 25.8587 64.882 25.8461 64.7877 25.8357C64.6934 25.8254 64.5989 25.8174 64.5042 25.8117C64.4095 25.806 64.3147 25.8026 64.2198 25.8015C64.1249 25.8004 64.03 25.8016 63.9352 25.8052ZM50.6691 55.1929C50.5646 55.1909 50.4602 55.1926 50.3558 55.1979C50.2514 55.2032 50.1473 55.2121 50.0437 55.2246C49.94 55.2371 49.8368 55.2531 49.7343 55.2728C49.6317 55.2923 49.53 55.3156 49.4292 55.3423C49.3284 55.3689 49.2286 55.399 49.13 55.4326C49.0313 55.4662 48.934 55.5032 48.8381 55.5435C48.7422 55.5838 48.6478 55.6274 48.5551 55.6743C48.4624 55.7211 48.3714 55.7711 48.2824 55.8243L41.1053 45.8862L31.9717 45.8862C23.2682 45.8862 16.3105 39.5479 16.3105 31.9468C16.3105 23.9111 23.7067 16.72 31.9717 16.72L31.9717 13.9648C22.1803 13.9648 13.4937 22.4187 13.4937 31.9386C13.4937 41.237 21.7586 48.6413 31.9802 48.6413L39.8066 48.6413L46.3342 57.7348C46.29 57.791 46.247 57.8481 46.2052 57.9061C46.1634 57.9641 46.1228 58.0229 46.0835 58.0826C46.0443 58.1422 46.0062 58.2025 45.9695 58.2637C45.9327 58.3249 45.8973 58.3867 45.8632 58.4492C45.829 58.5118 45.7963 58.575 45.7649 58.6389C45.7334 58.7028 45.7033 58.7673 45.6747 58.8323C45.6459 58.8974 45.6186 58.963 45.5927 59.0292C45.5668 59.0954 45.5423 59.1621 45.5192 59.2293C45.4961 59.2964 45.4745 59.364 45.4543 59.432C45.4341 59.5001 45.4153 59.5685 45.3979 59.6372C45.3806 59.706 45.3648 59.7751 45.3504 59.8445C45.336 59.914 45.3231 59.9837 45.3117 60.0536C45.3003 60.1235 45.2904 60.1936 45.2819 60.264C45.2735 60.3343 45.2665 60.4048 45.261 60.4754C45.2556 60.546 45.2516 60.6167 45.2492 60.6875C45.2467 60.7583 45.2457 60.8291 45.2463 60.8999C45.2426 60.9921 45.2413 61.0843 45.2424 61.1765C45.2436 61.2687 45.2471 61.3609 45.2529 61.453C45.2588 61.5451 45.267 61.637 45.2777 61.7286C45.2884 61.8203 45.3013 61.9117 45.3167 62.0028C45.332 62.0938 45.3497 62.1844 45.3698 62.2745C45.3898 62.3647 45.4122 62.4544 45.4369 62.5434C45.4616 62.6325 45.4886 62.7209 45.5178 62.8087C45.547 62.8965 45.5786 62.9834 45.6123 63.0697C45.6461 63.1559 45.682 63.2412 45.7202 63.3257C45.7584 63.4102 45.7988 63.4936 45.8412 63.5762C45.8837 63.6587 45.9283 63.74 45.975 63.8204C46.0217 63.9007 46.0704 63.9798 46.1212 64.0577C46.172 64.1357 46.2249 64.2123 46.2796 64.2876C46.3344 64.363 46.391 64.4369 46.4496 64.5095C46.5082 64.582 46.5687 64.6531 46.631 64.7227C46.6932 64.7924 46.7572 64.8604 46.823 64.9269C46.8888 64.9933 46.9563 65.0581 47.0255 65.1212C47.0946 65.1847 47.1653 65.2463 47.2376 65.3058C47.31 65.3652 47.3838 65.4233 47.4591 65.4794C47.5345 65.5355 47.6112 65.5897 47.6893 65.6419C47.7674 65.6947 47.8468 65.745 47.9275 65.7933C48.0083 65.8422 48.0902 65.8885 48.1734 65.9329C48.2565 65.9773 48.3408 66.0197 48.4261 66.0601C48.5114 66.1006 48.5977 66.1391 48.6851 66.175C48.7724 66.2109 48.8606 66.2448 48.9496 66.2768C49.0387 66.3088 49.1286 66.3381 49.2192 66.3655C49.3098 66.3929 49.401 66.4184 49.4929 66.4412C49.5848 66.4641 49.6773 66.4849 49.7702 66.5032C49.8632 66.5215 49.9566 66.5378 50.0504 66.5515C50.1443 66.5652 50.2383 66.5769 50.3328 66.5861C50.4272 66.5959 50.5218 66.6024 50.6165 66.607C50.7113 66.6115 50.8061 66.6141 50.901 66.6141C50.9959 66.6141 51.0908 66.6115 51.1855 66.607C51.2803 66.6024 51.3749 66.5959 51.4693 66.5861C51.5637 66.5769 51.6578 66.5652 51.7516 66.5515C51.8454 66.5378 51.9388 66.5215 52.0318 66.5032C52.1247 66.4849 52.2172 66.4641 52.3092 66.4412C52.401 66.4184 52.4923 66.3929 52.5829 66.3655C52.6735 66.3381 52.7633 66.3088 52.8524 66.2768C52.9414 66.2448 53.0297 66.2109 53.117 66.175C53.2043 66.1391 53.2906 66.1006 53.3759 66.0601C53.4612 66.0197 53.5455 65.9773 53.6287 65.9329C53.7118 65.8885 53.7937 65.8422 53.8745 65.7933C53.9552 65.745 54.0347 65.6947 54.1128 65.6419C54.1909 65.5897 54.2676 65.5355 54.3429 65.4794C54.4183 65.4233 54.4921 65.3652 54.5644 65.3058C54.6367 65.2463 54.7075 65.1847 54.7766 65.1212C54.8457 65.0581 54.9132 64.9933 54.979 64.9269C55.0448 64.8604 55.1088 64.7924 55.1711 64.7227C55.2334 64.6531 55.2938 64.582 55.3524 64.5095C55.411 64.4369 55.4677 64.363 55.5224 64.2876C55.5772 64.2123 55.63 64.1357 55.6808 64.0577C55.7316 63.9798 55.7803 63.9007 55.827 63.8204C55.8737 63.74 55.9184 63.6587 55.9608 63.5762C56.0033 63.4936 56.0437 63.4102 56.0818 63.3257C56.12 63.2412 56.156 63.1559 56.1898 63.0697C56.2235 62.9834 56.255 62.8965 56.2843 62.8087C56.3135 62.7209 56.3405 62.6325 56.3652 62.5434C56.3898 62.4544 56.4122 62.3647 56.4322 62.2745C56.4523 62.1844 56.47 62.0938 56.4854 62.0028C56.5008 61.9117 56.5137 61.8203 56.5244 61.7286C56.535 61.637 56.5433 61.5451 56.5492 61.453C56.555 61.3609 56.5585 61.2687 56.5596 61.1765C56.5608 61.0843 56.5595 60.9921 56.5558 60.8999C56.5519 60.807 56.5458 60.7142 56.5375 60.6217C56.5293 60.5291 56.5188 60.4368 56.5061 60.3446C56.4933 60.2526 56.4784 60.1607 56.4613 60.0693C56.4442 59.9779 56.4249 59.8869 56.4035 59.7964C56.382 59.7058 56.3583 59.6158 56.3325 59.5263C56.3067 59.4368 56.2788 59.348 56.2488 59.2597C56.2188 59.1715 56.1866 59.084 56.1524 58.9972C56.1181 58.9104 56.0818 58.8244 56.0435 58.7394C56.0052 58.6542 55.9648 58.57 55.9224 58.4868C55.88 58.4034 55.8357 58.3212 55.7894 58.2398C55.743 58.1586 55.6947 58.0784 55.6446 57.9993C55.5945 57.9202 55.5424 57.8423 55.4885 57.7655C55.4346 57.6887 55.3789 57.6132 55.3214 57.539C55.2639 57.4648 55.2046 57.392 55.1436 57.3204C55.0826 57.2489 55.0198 57.1787 54.9555 57.11C54.8911 57.0413 54.8251 56.9741 54.7575 56.9084C54.69 56.8427 54.6208 56.7785 54.5502 56.7159C54.4795 56.6534 54.4074 56.5924 54.3338 56.5331C54.2602 56.4738 54.1853 56.4162 54.109 56.3603C54.0326 56.3043 53.9549 56.2502 53.876 56.1978C53.7971 56.1454 53.7169 56.0947 53.6355 56.0459C53.5542 55.9972 53.4717 55.9503 53.3881 55.9053C53.3045 55.8602 53.2199 55.817 53.1342 55.7759C53.0485 55.7347 52.9619 55.6954 52.8743 55.6581C52.7867 55.6209 52.6983 55.5856 52.6092 55.5522C52.5199 55.519 52.4299 55.4877 52.3392 55.4585C52.2484 55.4293 52.157 55.4022 52.065 55.3771C51.973 55.352 51.8804 55.3291 51.7872 55.3082C51.6941 55.2873 51.6004 55.2685 51.5064 55.2519C51.4124 55.2352 51.318 55.2208 51.2233 55.2084C51.1286 55.1961 51.0336 55.1858 50.9384 55.1778C50.8431 55.1697 50.7477 55.1638 50.6522 55.1601L50.6691 55.1929ZM49.5812 9.52064C49.643 9.56795 49.7059 9.61415 49.7696 9.6591C49.8333 9.70406 49.8979 9.74785 49.9634 9.79046C50.0288 9.833 50.0951 9.87431 50.1622 9.91444C50.2293 9.95457 50.2971 9.99339 50.3657 10.0309C50.4344 10.0685 50.5037 10.1048 50.5738 10.1398C50.6439 10.1747 50.7146 10.2083 50.7859 10.2406C50.8573 10.273 50.9294 10.304 51.002 10.3336C51.0745 10.3632 51.1477 10.3915 51.2214 10.4184C51.2952 10.4453 51.3694 10.4708 51.4442 10.495C51.5189 10.5191 51.5941 10.5418 51.6697 10.5632C51.7453 10.5845 51.8214 10.6044 51.8978 10.6228C51.9743 10.6413 52.051 10.6584 52.1281 10.674C52.2052 10.6896 52.2826 10.7038 52.3602 10.7165C52.4379 10.7292 52.5157 10.7405 52.5939 10.7503C52.6719 10.7601 52.7502 10.7685 52.8286 10.7753C52.9071 10.7822 52.9856 10.7876 53.0643 10.7916C53.1563 10.7899 53.2484 10.7861 53.3402 10.7801C53.4321 10.7741 53.5238 10.766 53.6153 10.7557C53.7067 10.7455 53.7979 10.7331 53.8888 10.7186C53.9797 10.7041 54.0702 10.6875 54.1602 10.6688C54.2502 10.65 54.3398 10.6292 54.4288 10.6063C54.5179 10.5834 54.6063 10.5584 54.6941 10.5314C54.7818 10.5044 54.8689 10.4753 54.9553 10.4442C55.0416 10.4132 55.1272 10.3801 55.2119 10.345C55.2967 10.3099 55.3805 10.2729 55.4634 10.2339C55.5463 10.195 55.6282 10.154 55.7091 10.1112C55.79 10.0684 55.8698 10.0238 55.9484 9.97727C56.0271 9.93075 56.1046 9.8824 56.1809 9.83228C56.2572 9.78211 56.3322 9.73023 56.406 9.67659C56.4798 9.62296 56.5521 9.56762 56.6231 9.51066C56.6941 9.45363 56.7637 9.39496 56.8318 9.33474C56.8999 9.27451 56.9665 9.21271 57.0316 9.14935C57.0966 9.08599 57.1601 9.02113 57.222 8.95484C57.2839 8.88847 57.3441 8.82074 57.4026 8.75164C57.4611 8.68254 57.5179 8.61207 57.573 8.54029C57.628 8.46851 57.6812 8.39549 57.7327 8.32124C57.7842 8.24698 57.8338 8.17155 57.8815 8.09501C57.9292 8.01847 57.9751 7.94082 58.019 7.86206C58.0628 7.78336 58.1048 7.70369 58.1448 7.62304C58.1847 7.54239 58.2227 7.46082 58.2587 7.37841C58.2946 7.29599 58.3285 7.21273 58.3604 7.12869C58.3922 7.04471 58.422 6.96001 58.4496 6.87459C58.4773 6.78918 58.5028 6.70318 58.5263 6.61659C58.5497 6.53 58.571 6.44292 58.5901 6.35531C58.6092 6.26773 58.6261 6.17975 58.641 6.09138C58.6557 6.003 58.6684 5.91433 58.6788 5.82537C58.6892 5.73641 58.6973 5.64726 58.7034 5.55791C58.7094 5.46856 58.7132 5.37913 58.7148 5.28961C58.7113 5.20184 58.7057 5.11421 58.6979 5.02671C58.69 4.9392 58.6801 4.85193 58.668 4.76489C58.6559 4.67785 58.6416 4.59115 58.6253 4.50478C58.6089 4.4184 58.5904 4.33245 58.5698 4.24694C58.5492 4.16142 58.5265 4.07644 58.5017 3.99199C58.4769 3.90752 58.4501 3.82369 58.4212 3.74048C58.3922 3.65727 58.3612 3.57479 58.3283 3.49303C58.2953 3.41126 58.2604 3.33031 58.2234 3.25017C58.1864 3.17004 58.1475 3.09081 58.1066 3.01248C58.0657 2.93416 58.0229 2.85682 57.9782 2.78049C57.9336 2.70416 57.887 2.62891 57.8386 2.55475C57.7902 2.48058 57.7401 2.40758 57.6881 2.33575C57.6361 2.26392 57.5824 2.19334 57.5269 2.12402C57.4714 2.05469 57.4143 1.98669 57.3555 1.92002C57.2967 1.85336 57.2363 1.7881 57.1743 1.72424C57.1122 1.66038 57.0486 1.59801 56.9835 1.53712C56.9184 1.47622 56.8518 1.41688 56.7839 1.35908C56.7159 1.30128 56.6465 1.24511 56.5757 1.19054C56.5049 1.13598 56.4328 1.08309 56.3594 1.03189C56.286 0.980677 56.2114 0.931209 56.1355 0.883477C56.0597 0.835739 55.9827 0.789801 55.9047 0.745651C55.8266 0.701502 55.7475 0.659192 55.6673 0.618728C55.5871 0.578263 55.5059 0.539686 55.4239 0.502996C55.3418 0.466309 55.2589 0.431553 55.1751 0.398728C55.0912 0.365901 55.0067 0.335043 54.9214 0.306153C54.8361 0.277264 54.7502 0.250376 54.6635 0.225489C54.5769 0.200603 54.4897 0.177747 54.4019 0.15692C54.3142 0.136093 54.2259 0.11732 54.1373 0.100601C54.0486 0.0838832 53.9596 0.0692373 53.8701 0.0566645C53.7807 0.0440916 53.691 0.0336062 53.6011 0.0252083C53.5112 0.0168103 53.4212 0.0105095 53.3309 0.00630598C53.2406 0.00210199 53.1504 0 53.06 0C52.9697 0 52.8794 0.00210199 52.7892 0.00630598C52.699 0.0105095 52.6089 0.0168103 52.519 0.0252083C52.429 0.0336062 52.3394 0.0440916 52.25 0.0566645C52.1606 0.0692366 52.0715 0.0838825 51.9828 0.100601C51.8942 0.11732 51.8059 0.136093 51.7181 0.156919C51.6304 0.177746 51.5433 0.200603 51.4566 0.225489C51.37 0.250376 51.284 0.277264 51.1987 0.306153C51.1134 0.335043 51.0288 0.3659 50.945 0.398727C50.8612 0.431553 50.7783 0.466309 50.6962 0.502996C50.6141 0.539686 50.533 0.578263 50.4528 0.618728C50.3726 0.659192 50.2935 0.701502 50.2154 0.745651C50.1373 0.789801 50.0604 0.835739 49.9845 0.883477C49.9088 0.931209 49.8341 0.980677 49.7607 1.03189C49.6873 1.08309 49.6153 1.13598 49.5445 1.19054C49.4737 1.24511 49.4043 1.30128 49.3362 1.35908C49.2682 1.41688 49.2016 1.47622 49.1365 1.53712C49.0714 1.59801 49.0079 1.66038 48.9459 1.72424C48.8839 1.7881 48.8235 1.85336 48.7646 1.92002C48.7058 1.98669 48.6487 2.05468 48.5932 2.12402C48.5377 2.19334 48.4841 2.26392 48.432 2.33575C48.38 2.40758 48.3298 2.48058 48.2814 2.55475C48.233 2.62891 48.1865 2.70416 48.1418 2.78049C48.0971 2.85682 48.0544 2.93416 48.0135 3.01248C47.9726 3.09081 47.9337 3.17004 47.8967 3.25017C47.8598 3.33031 47.8248 3.41126 47.7918 3.49303C47.7588 3.57479 47.7279 3.65727 47.699 3.74048C47.67 3.82369 47.6431 3.90752 47.6184 3.99199C47.5936 4.07644 47.5709 4.16142 47.5503 4.24694C47.5297 4.33245 47.5112 4.4184 47.4948 4.50478C47.4784 4.59115 47.4642 4.67785 47.4521 4.76489C47.44 4.85193 47.43 4.9392 47.4222 5.02671C47.4144 5.11421 47.4088 5.20184 47.4053 5.28961C47.4096 5.47044 47.422 5.65075 47.4426 5.83052C47.4632 6.01029 47.4919 6.18884 47.5286 6.36614C47.5654 6.5435 47.6101 6.7189 47.6627 6.89241C47.7154 7.06591 47.7757 7.23681 47.8439 7.40516L41.9403 13.9648L40.2367 13.9648L40.2367 16.7118L43.2812 16.7118L49.5812 9.52064Z"></path><path id="路径 3" fill-rule="evenodd" style="fill:#FFFFFF" opacity="1" d="M33.9285 60.0553L26.9877 60.0553L26.9877 54.3155L25.8997 54.1023C25.595 54.0276 25.2917 53.9476 24.9899 53.8626C24.6881 53.7776 24.3879 53.6876 24.0892 53.5925C23.7905 53.4975 23.4936 53.3975 23.1985 53.2924C22.9034 53.1874 22.6103 53.0776 22.3191 52.9627C22.0279 52.8479 21.7388 52.7282 21.4518 52.6037C21.1648 52.4792 20.8801 52.3499 20.5978 52.2158C20.3154 52.0818 20.0355 51.943 19.7581 51.7996C19.4805 51.6562 19.2057 51.5081 18.9335 51.3554L18.0901 50.724L14.1769 54.1023L8.95651 48.8217L12.4396 44.5907L12.0011 43.7707C11.833 43.4709 11.6698 43.1685 11.5117 42.8636C11.3536 42.5588 11.2005 42.2514 11.0526 41.9417C10.9046 41.632 10.7617 41.3201 10.6241 41.0059C10.4864 40.6918 10.354 40.3755 10.2268 40.0572C10.0995 39.7389 9.97758 39.4187 9.86101 39.0966C9.74436 38.7745 9.63309 38.4507 9.52711 38.1251C9.42121 37.7995 9.32067 37.4723 9.2255 37.1436C9.1304 36.8148 9.04074 36.4847 8.95651 36.1533L8.52638 35.0955L2.82527 35.0955L2.82527 27.2812L8.72879 27.2812L8.94805 26.2234C9.02396 25.9353 9.1053 25.6487 9.19195 25.3634C9.27859 25.0782 9.37054 24.7947 9.46785 24.5126C9.5651 24.2307 9.66765 23.9506 9.77544 23.6723C9.88322 23.3939 9.99617 23.1175 10.1144 22.8432C10.2326 22.5689 10.3558 22.2968 10.4841 22.0269C10.6125 21.7569 10.7458 21.4893 10.8842 21.2241C11.0226 20.9589 11.1659 20.6962 11.3142 20.436C11.4624 20.1759 11.6154 19.9184 11.7734 19.6637L12.2119 18.8437L8.94805 15.039L14.1685 9.96346L18.301 13.1367L19.1444 12.4971C19.4089 12.3313 19.6772 12.1715 19.9495 12.0179C20.2217 11.8642 20.4975 11.7168 20.7768 11.5757C21.0562 11.4346 21.3387 11.2998 21.6245 11.1715C21.9103 11.0433 22.1991 10.9216 22.4907 10.8065C22.7824 10.6914 23.0766 10.5828 23.3735 10.481C23.6703 10.3793 23.9695 10.2844 24.271 10.1962C24.5724 10.1081 24.8758 10.0268 25.1812 9.95244C25.4865 9.87805 25.7935 9.81071 26.1021 9.75028L26.9454 9.75028L26.9454 4.87146L33.9032 4.87146L33.9032 8.24975L36.7285 8.24975L36.7285 2.12457L24.3563 2.12457L24.3563 7.61837C23.8401 7.74631 23.3289 7.89113 22.8228 8.05282C22.3166 8.21452 21.8168 8.39274 21.3231 8.5875C20.8295 8.7822 20.3432 8.99303 19.8642 9.21985C19.3852 9.44673 18.9148 9.68914 18.4528 9.94708L13.9155 6.35561L5.22042 15.0227L9.13363 19.2455C8.99262 19.4488 8.85544 19.6546 8.72215 19.8628C8.58886 20.0711 8.45953 20.2816 8.33423 20.4944C8.20886 20.7073 8.08758 20.9223 7.97034 21.1394C7.85309 21.3566 7.73993 21.5757 7.63101 21.7969C7.52201 22.0181 7.41725 22.2411 7.31664 22.4661C7.21604 22.691 7.11973 22.9176 7.02772 23.1459C6.93571 23.3743 6.84799 23.6042 6.76456 23.8356C6.68121 24.0672 6.60223 24.3 6.52763 24.5343L0 24.5343L0 37.8588L6.30836 37.8588C6.4776 38.422 6.65898 38.9816 6.85248 39.5373C7.04604 40.0931 7.25154 40.6448 7.46899 41.1921C7.68644 41.7395 7.91564 42.2822 8.15664 42.8202C8.39765 43.3581 8.65027 43.8909 8.91436 44.4185L5.22042 49.0595L14.1348 57.9398L18.7058 53.9138C18.9225 54.0481 19.1419 54.1779 19.3641 54.3033C19.5863 54.4287 19.8111 54.5496 20.0385 54.6659C20.2659 54.7822 20.4957 54.8939 20.7279 55.0008C20.9601 55.1078 21.1944 55.2101 21.431 55.3076C21.6676 55.405 21.9062 55.4977 22.1467 55.5855C22.3873 55.6734 22.6295 55.7563 22.8736 55.8343C23.1177 55.9123 23.3634 55.9854 23.6106 56.0534C23.8579 56.1215 24.1064 56.1845 24.3563 56.2424L24.3563 62.589L36.7538 62.589L36.7538 54.1351L33.9285 54.1351L33.9285 60.0553Z"></path><path id="路径 4" fill-rule="evenodd" style="fill:#FFFFFF" opacity="1" d="M34.1479 30.4545L36.5347 30.4545L36.5347 33.2014L34.1479 33.2014L34.1479 30.4545ZM40.237 30.4545L42.6237 30.4545L42.6237 33.2014L40.237 33.2014L40.237 30.4545ZM34.1479 13.9649L36.5347 13.9649L36.5347 16.7118L34.1479 16.7118L34.1479 13.9649ZM36.5347 37.6456L40.237 37.6456L40.237 40.3925L36.5347 40.3925L36.5347 37.6456Z"></path></g></svg>